ISO-10303-21;
HEADER;
FILE_DESCRIPTION(('STEP AP214'),
    '1');
FILE_NAME('TSOP',
    '2022-07-22T05:28:43',
    (''),
    (''),
    'ASCON STEP Converter 1.3',
    'ASCON Math Kernel',
    '');
FILE_SCHEMA(('AUTOMOTIVE_DESIGN { 1 0 10303 214 3 1 1}'));
ENDSEC;

DATA;
#1=SHAPE_REPRESENTATION('NONE',(#2),#6);
#2=AXIS2_PLACEMENT_3D('',#3,#4,#5);
#3=CARTESIAN_POINT('',(0.,0.,0.));
#4=DIRECTION('',(0.,0.,1.));
#5=DIRECTION('',(1.,0.,0.));
#6=(GEOMETRIC_REPRESENTATION_CONTEXT(3)GLOBAL_UNCERTAINTY_ASSIGNED_CONTEXT((#8))
GLOBAL_UNIT_ASSIGNED_CONTEXT((#7,#9,#10))REPRESENTATION_CONTEXT('NONE','NONE'));
#7=(LENGTH_UNIT()NAMED_UNIT(*)SI_UNIT(.MILLI.,.METRE.));
#8=UNCERTAINTY_MEASURE_WITH_UNIT(LENGTH_MEASURE(1.E-005),#7,'NONE','NONE');
#9=(NAMED_UNIT(*)PLANE_ANGLE_UNIT()SI_UNIT($,.RADIAN.));
#10=(NAMED_UNIT(*)SI_UNIT($,.STERADIAN.)SOLID_ANGLE_UNIT());
#11=SHAPE_DEFINITION_REPRESENTATION(#12,#1);
#12=PRODUCT_DEFINITION_SHAPE('NONE','NONE',#13);
#13=PRODUCT_DEFINITION('','UNSPECIFIED',#14,#17);
#14=PRODUCT_DEFINITION_FORMATION_WITH_SPECIFIED_SOURCE('ANY','UNSPECIFIED',#15,.NOT_KNOWN.);
#15=PRODUCT('','Деталь','NONE',(#20));
#16=PRODUCT_RELATED_PRODUCT_CATEGORY('detail','',(#15));
#17=DESIGN_CONTEXT('detailed design',#18,'design');
#18=APPLICATION_CONTEXT('configuration controlled 3d designs of mechanical parts and assemblies');
#19=APPLICATION_PROTOCOL_DEFINITION('international standard','automotive_design',
2011,#18);
#20=MECHANICAL_CONTEXT('NONE',#18,'mechanical');
#21=CC_DESIGN_DATE_AND_TIME_ASSIGNMENT(#22,#26,(#13));
#22=DATE_AND_TIME(#23,#24);
#23=CALENDAR_DATE(0,1,1);
#24=LOCAL_TIME(0,0,0.,#25);
#25=COORDINATED_UNIVERSAL_TIME_OFFSET(0,0,.AHEAD.);
#26=DATE_TIME_ROLE('creation_date');
#27=CC_DESIGN_APPROVAL(#28,(#13));
#28=APPROVAL(#29,'UNSPECIFIED');
#29=APPROVAL_STATUS('not_yet_approved');
#30=APPROVAL_DATE_TIME(#31,#28);
#31=DATE_AND_TIME(#32,#33);
#32=CALENDAR_DATE(0,1,1);
#33=LOCAL_TIME(0,0,0.,#34);
#34=COORDINATED_UNIVERSAL_TIME_OFFSET(0,0,.AHEAD.);
#35=DERIVED_UNIT((#39,#36));
#36=DERIVED_UNIT_ELEMENT(#37,-1.);
#37=VOLUME_UNIT(#38);
#38=DIMENSIONAL_EXPONENTS(3.,0.,0.,0.,0.,0.,0.);
#39=(NAMED_UNIT($)MASS_UNIT()SI_UNIT($,.GRAM.));
#40=MANIFOLD_SOLID_BREP('',#41);
#41=CLOSED_SHELL('',(#53,#62,#71,#80,#89,#98,#107,#116,#125,#134,#143,#152,#161,
#170,#179,#188,#197,#206,#215,#224,#233,#242,#251,#260,#269,#278,#287,#296,#305,
#314,#323,#332,#341,#350,#359,#368,#377,#386,#395,#404,#413,#422,#431,#440,#449,
#458,#467,#476,#485,#494,#503,#512,#521,#530,#539,#548,#557,#566,#575));
#42=COLOUR_RGB($,0.564705882352941,0.564705882352941,0.564705882352941);
#43=FILL_AREA_STYLE_COLOUR($,#42);
#44=FILL_AREA_STYLE($,(#43));
#45=SURFACE_STYLE_FILL_AREA(#44);
#46=SURFACE_SIDE_STYLE('',(#45));
#47=SURFACE_STYLE_USAGE(.BOTH.,#46);
#48=PRESENTATION_STYLE_ASSIGNMENT((#47));
#49=MECHANICAL_DESIGN_GEOMETRIC_PRESENTATION_REPRESENTATION('NONE',(#50,#61,#70,
#79,#88,#97,#106,#115,#124,#133,#142,#151,#160,#169,#178,#187,#196,#205,#214,#223,
#232,#241,#250,#259,#268,#277,#286,#295,#304,#313,#322,#331,#340,#349,#358,#367,
#376,#385,#394,#403,#412,#421,#430,#439,#448,#457,#466,#475,#484,#493,#502,#511,
#520,#529,#538,#547,#556,#565,#574,#583),#6);
#50=STYLED_ITEM('',(#48),#40);
#51=ADVANCED_BREP_SHAPE_REPRESENTATION('NONE',(#40),#6);
#52=SHAPE_REPRESENTATION_RELATIONSHIP('','',#1,#51);
#53=ADVANCED_FACE('',(#584,#586,#588,#590),#592,.T.);
#54=COLOUR_RGB($,0.250980392156863,0.250980392156863,0.250980392156863);
#55=FILL_AREA_STYLE_COLOUR($,#54);
#56=FILL_AREA_STYLE($,(#55));
#57=SURFACE_STYLE_FILL_AREA(#56);
#58=SURFACE_SIDE_STYLE('',(#57));
#59=SURFACE_STYLE_USAGE(.BOTH.,#58);
#60=PRESENTATION_STYLE_ASSIGNMENT((#59));
#61=STYLED_ITEM('',(#60),#53);
#62=ADVANCED_FACE('',(#597),#599,.T.);
#63=COLOUR_RGB($,0.250980392156863,0.250980392156863,0.250980392156863);
#64=FILL_AREA_STYLE_COLOUR($,#63);
#65=FILL_AREA_STYLE($,(#64));
#66=SURFACE_STYLE_FILL_AREA(#65);
#67=SURFACE_SIDE_STYLE('',(#66));
#68=SURFACE_STYLE_USAGE(.BOTH.,#67);
#69=PRESENTATION_STYLE_ASSIGNMENT((#68));
#70=STYLED_ITEM('',(#69),#62);
#71=ADVANCED_FACE('',(#604),#606,.T.);
#72=COLOUR_RGB($,0.250980392156863,0.250980392156863,0.250980392156863);
#73=FILL_AREA_STYLE_COLOUR($,#72);
#74=FILL_AREA_STYLE($,(#73));
#75=SURFACE_STYLE_FILL_AREA(#74);
#76=SURFACE_SIDE_STYLE('',(#75));
#77=SURFACE_STYLE_USAGE(.BOTH.,#76);
#78=PRESENTATION_STYLE_ASSIGNMENT((#77));
#79=STYLED_ITEM('',(#78),#71);
#80=ADVANCED_FACE('',(#611),#613,.T.);
#81=COLOUR_RGB($,0.250980392156863,0.250980392156863,0.250980392156863);
#82=FILL_AREA_STYLE_COLOUR($,#81);
#83=FILL_AREA_STYLE($,(#82));
#84=SURFACE_STYLE_FILL_AREA(#83);
#85=SURFACE_SIDE_STYLE('',(#84));
#86=SURFACE_STYLE_USAGE(.BOTH.,#85);
#87=PRESENTATION_STYLE_ASSIGNMENT((#86));
#88=STYLED_ITEM('',(#87),#80);
#89=ADVANCED_FACE('',(#618),#620,.F.);
#90=COLOUR_RGB($,0.250980392156863,0.250980392156863,0.250980392156863);
#91=FILL_AREA_STYLE_COLOUR($,#90);
#92=FILL_AREA_STYLE($,(#91));
#93=SURFACE_STYLE_FILL_AREA(#92);
#94=SURFACE_SIDE_STYLE('',(#93));
#95=SURFACE_STYLE_USAGE(.BOTH.,#94);
#96=PRESENTATION_STYLE_ASSIGNMENT((#95));
#97=STYLED_ITEM('',(#96),#89);
#98=ADVANCED_FACE('',(#625),#627,.T.);
#99=COLOUR_RGB($,0.250980392156863,0.250980392156863,0.250980392156863);
#100=FILL_AREA_STYLE_COLOUR($,#99);
#101=FILL_AREA_STYLE($,(#100));
#102=SURFACE_STYLE_FILL_AREA(#101);
#103=SURFACE_SIDE_STYLE('',(#102));
#104=SURFACE_STYLE_USAGE(.BOTH.,#103);
#105=PRESENTATION_STYLE_ASSIGNMENT((#104));
#106=STYLED_ITEM('',(#105),#98);
#107=ADVANCED_FACE('',(#632),#634,.T.);
#108=COLOUR_RGB($,0.250980392156863,0.250980392156863,0.250980392156863);
#109=FILL_AREA_STYLE_COLOUR($,#108);
#110=FILL_AREA_STYLE($,(#109));
#111=SURFACE_STYLE_FILL_AREA(#110);
#112=SURFACE_SIDE_STYLE('',(#111));
#113=SURFACE_STYLE_USAGE(.BOTH.,#112);
#114=PRESENTATION_STYLE_ASSIGNMENT((#113));
#115=STYLED_ITEM('',(#114),#107);
#116=ADVANCED_FACE('',(#639),#641,.T.);
#117=COLOUR_RGB($,0.815686274509804,0.815686274509804,0.815686274509804);
#118=FILL_AREA_STYLE_COLOUR($,#117);
#119=FILL_AREA_STYLE($,(#118));
#120=SURFACE_STYLE_FILL_AREA(#119);
#121=SURFACE_SIDE_STYLE('',(#120));
#122=SURFACE_STYLE_USAGE(.BOTH.,#121);
#123=PRESENTATION_STYLE_ASSIGNMENT((#122));
#124=STYLED_ITEM('',(#123),#116);
#125=ADVANCED_FACE('',(#646),#648,.F.);
#126=COLOUR_RGB($,0.815686274509804,0.815686274509804,0.815686274509804);
#127=FILL_AREA_STYLE_COLOUR($,#126);
#128=FILL_AREA_STYLE($,(#127));
#129=SURFACE_STYLE_FILL_AREA(#128);
#130=SURFACE_SIDE_STYLE('',(#129));
#131=SURFACE_STYLE_USAGE(.BOTH.,#130);
#132=PRESENTATION_STYLE_ASSIGNMENT((#131));
#133=STYLED_ITEM('',(#132),#125);
#134=ADVANCED_FACE('',(#653),#655,.T.);
#135=COLOUR_RGB($,0.815686274509804,0.815686274509804,0.815686274509804);
#136=FILL_AREA_STYLE_COLOUR($,#135);
#137=FILL_AREA_STYLE($,(#136));
#138=SURFACE_STYLE_FILL_AREA(#137);
#139=SURFACE_SIDE_STYLE('',(#138));
#140=SURFACE_STYLE_USAGE(.BOTH.,#139);
#141=PRESENTATION_STYLE_ASSIGNMENT((#140));
#142=STYLED_ITEM('',(#141),#134);
#143=ADVANCED_FACE('',(#660),#662,.T.);
#144=COLOUR_RGB($,0.815686274509804,0.815686274509804,0.815686274509804);
#145=FILL_AREA_STYLE_COLOUR($,#144);
#146=FILL_AREA_STYLE($,(#145));
#147=SURFACE_STYLE_FILL_AREA(#146);
#148=SURFACE_SIDE_STYLE('',(#147));
#149=SURFACE_STYLE_USAGE(.BOTH.,#148);
#150=PRESENTATION_STYLE_ASSIGNMENT((#149));
#151=STYLED_ITEM('',(#150),#143);
#152=ADVANCED_FACE('',(#667),#669,.T.);
#153=COLOUR_RGB($,0.815686274509804,0.815686274509804,0.815686274509804);
#154=FILL_AREA_STYLE_COLOUR($,#153);
#155=FILL_AREA_STYLE($,(#154));
#156=SURFACE_STYLE_FILL_AREA(#155);
#157=SURFACE_SIDE_STYLE('',(#156));
#158=SURFACE_STYLE_USAGE(.BOTH.,#157);
#159=PRESENTATION_STYLE_ASSIGNMENT((#158));
#160=STYLED_ITEM('',(#159),#152);
#161=ADVANCED_FACE('',(#674),#676,.F.);
#162=COLOUR_RGB($,0.815686274509804,0.815686274509804,0.815686274509804);
#163=FILL_AREA_STYLE_COLOUR($,#162);
#164=FILL_AREA_STYLE($,(#163));
#165=SURFACE_STYLE_FILL_AREA(#164);
#166=SURFACE_SIDE_STYLE('',(#165));
#167=SURFACE_STYLE_USAGE(.BOTH.,#166);
#168=PRESENTATION_STYLE_ASSIGNMENT((#167));
#169=STYLED_ITEM('',(#168),#161);
#170=ADVANCED_FACE('',(#681),#683,.T.);
#171=COLOUR_RGB($,0.815686274509804,0.815686274509804,0.815686274509804);
#172=FILL_AREA_STYLE_COLOUR($,#171);
#173=FILL_AREA_STYLE($,(#172));
#174=SURFACE_STYLE_FILL_AREA(#173);
#175=SURFACE_SIDE_STYLE('',(#174));
#176=SURFACE_STYLE_USAGE(.BOTH.,#175);
#177=PRESENTATION_STYLE_ASSIGNMENT((#176));
#178=STYLED_ITEM('',(#177),#170);
#179=ADVANCED_FACE('',(#688),#690,.T.);
#180=COLOUR_RGB($,0.815686274509804,0.815686274509804,0.815686274509804);
#181=FILL_AREA_STYLE_COLOUR($,#180);
#182=FILL_AREA_STYLE($,(#181));
#183=SURFACE_STYLE_FILL_AREA(#182);
#184=SURFACE_SIDE_STYLE('',(#183));
#185=SURFACE_STYLE_USAGE(.BOTH.,#184);
#186=PRESENTATION_STYLE_ASSIGNMENT((#185));
#187=STYLED_ITEM('',(#186),#179);
#188=ADVANCED_FACE('',(#695),#697,.T.);
#189=COLOUR_RGB($,0.815686274509804,0.815686274509804,0.815686274509804);
#190=FILL_AREA_STYLE_COLOUR($,#189);
#191=FILL_AREA_STYLE($,(#190));
#192=SURFACE_STYLE_FILL_AREA(#191);
#193=SURFACE_SIDE_STYLE('',(#192));
#194=SURFACE_STYLE_USAGE(.BOTH.,#193);
#195=PRESENTATION_STYLE_ASSIGNMENT((#194));
#196=STYLED_ITEM('',(#195),#188);
#197=ADVANCED_FACE('',(#702),#704,.F.);
#198=COLOUR_RGB($,0.815686274509804,0.815686274509804,0.815686274509804);
#199=FILL_AREA_STYLE_COLOUR($,#198);
#200=FILL_AREA_STYLE($,(#199));
#201=SURFACE_STYLE_FILL_AREA(#200);
#202=SURFACE_SIDE_STYLE('',(#201));
#203=SURFACE_STYLE_USAGE(.BOTH.,#202);
#204=PRESENTATION_STYLE_ASSIGNMENT((#203));
#205=STYLED_ITEM('',(#204),#197);
#206=ADVANCED_FACE('',(#709),#711,.T.);
#207=COLOUR_RGB($,0.815686274509804,0.815686274509804,0.815686274509804);
#208=FILL_AREA_STYLE_COLOUR($,#207);
#209=FILL_AREA_STYLE($,(#208));
#210=SURFACE_STYLE_FILL_AREA(#209);
#211=SURFACE_SIDE_STYLE('',(#210));
#212=SURFACE_STYLE_USAGE(.BOTH.,#211);
#213=PRESENTATION_STYLE_ASSIGNMENT((#212));
#214=STYLED_ITEM('',(#213),#206);
#215=ADVANCED_FACE('',(#716),#718,.T.);
#216=COLOUR_RGB($,0.815686274509804,0.815686274509804,0.815686274509804);
#217=FILL_AREA_STYLE_COLOUR($,#216);
#218=FILL_AREA_STYLE($,(#217));
#219=SURFACE_STYLE_FILL_AREA(#218);
#220=SURFACE_SIDE_STYLE('',(#219));
#221=SURFACE_STYLE_USAGE(.BOTH.,#220);
#222=PRESENTATION_STYLE_ASSIGNMENT((#221));
#223=STYLED_ITEM('',(#222),#215);
#224=ADVANCED_FACE('',(#723),#725,.T.);
#225=COLOUR_RGB($,0.250980392156863,0.250980392156863,0.250980392156863);
#226=FILL_AREA_STYLE_COLOUR($,#225);
#227=FILL_AREA_STYLE($,(#226));
#228=SURFACE_STYLE_FILL_AREA(#227);
#229=SURFACE_SIDE_STYLE('',(#228));
#230=SURFACE_STYLE_USAGE(.BOTH.,#229);
#231=PRESENTATION_STYLE_ASSIGNMENT((#230));
#232=STYLED_ITEM('',(#231),#224);
#233=ADVANCED_FACE('',(#730),#732,.T.);
#234=COLOUR_RGB($,0.815686274509804,0.815686274509804,0.815686274509804);
#235=FILL_AREA_STYLE_COLOUR($,#234);
#236=FILL_AREA_STYLE($,(#235));
#237=SURFACE_STYLE_FILL_AREA(#236);
#238=SURFACE_SIDE_STYLE('',(#237));
#239=SURFACE_STYLE_USAGE(.BOTH.,#238);
#240=PRESENTATION_STYLE_ASSIGNMENT((#239));
#241=STYLED_ITEM('',(#240),#233);
#242=ADVANCED_FACE('',(#737),#739,.T.);
#243=COLOUR_RGB($,0.815686274509804,0.815686274509804,0.815686274509804);
#244=FILL_AREA_STYLE_COLOUR($,#243);
#245=FILL_AREA_STYLE($,(#244));
#246=SURFACE_STYLE_FILL_AREA(#245);
#247=SURFACE_SIDE_STYLE('',(#246));
#248=SURFACE_STYLE_USAGE(.BOTH.,#247);
#249=PRESENTATION_STYLE_ASSIGNMENT((#248));
#250=STYLED_ITEM('',(#249),#242);
#251=ADVANCED_FACE('',(#744),#746,.T.);
#252=COLOUR_RGB($,0.815686274509804,0.815686274509804,0.815686274509804);
#253=FILL_AREA_STYLE_COLOUR($,#252);
#254=FILL_AREA_STYLE($,(#253));
#255=SURFACE_STYLE_FILL_AREA(#254);
#256=SURFACE_SIDE_STYLE('',(#255));
#257=SURFACE_STYLE_USAGE(.BOTH.,#256);
#258=PRESENTATION_STYLE_ASSIGNMENT((#257));
#259=STYLED_ITEM('',(#258),#251);
#260=ADVANCED_FACE('',(#751),#753,.T.);
#261=COLOUR_RGB($,0.815686274509804,0.815686274509804,0.815686274509804);
#262=FILL_AREA_STYLE_COLOUR($,#261);
#263=FILL_AREA_STYLE($,(#262));
#264=SURFACE_STYLE_FILL_AREA(#263);
#265=SURFACE_SIDE_STYLE('',(#264));
#266=SURFACE_STYLE_USAGE(.BOTH.,#265);
#267=PRESENTATION_STYLE_ASSIGNMENT((#266));
#268=STYLED_ITEM('',(#267),#260);
#269=ADVANCED_FACE('',(#758),#760,.T.);
#270=COLOUR_RGB($,0.815686274509804,0.815686274509804,0.815686274509804);
#271=FILL_AREA_STYLE_COLOUR($,#270);
#272=FILL_AREA_STYLE($,(#271));
#273=SURFACE_STYLE_FILL_AREA(#272);
#274=SURFACE_SIDE_STYLE('',(#273));
#275=SURFACE_STYLE_USAGE(.BOTH.,#274);
#276=PRESENTATION_STYLE_ASSIGNMENT((#275));
#277=STYLED_ITEM('',(#276),#269);
#278=ADVANCED_FACE('',(#765),#767,.T.);
#279=COLOUR_RGB($,0.815686274509804,0.815686274509804,0.815686274509804);
#280=FILL_AREA_STYLE_COLOUR($,#279);
#281=FILL_AREA_STYLE($,(#280));
#282=SURFACE_STYLE_FILL_AREA(#281);
#283=SURFACE_SIDE_STYLE('',(#282));
#284=SURFACE_STYLE_USAGE(.BOTH.,#283);
#285=PRESENTATION_STYLE_ASSIGNMENT((#284));
#286=STYLED_ITEM('',(#285),#278);
#287=ADVANCED_FACE('',(#772),#774,.T.);
#288=COLOUR_RGB($,0.815686274509804,0.815686274509804,0.815686274509804);
#289=FILL_AREA_STYLE_COLOUR($,#288);
#290=FILL_AREA_STYLE($,(#289));
#291=SURFACE_STYLE_FILL_AREA(#290);
#292=SURFACE_SIDE_STYLE('',(#291));
#293=SURFACE_STYLE_USAGE(.BOTH.,#292);
#294=PRESENTATION_STYLE_ASSIGNMENT((#293));
#295=STYLED_ITEM('',(#294),#287);
#296=ADVANCED_FACE('',(#779),#781,.T.);
#297=COLOUR_RGB($,0.815686274509804,0.815686274509804,0.815686274509804);
#298=FILL_AREA_STYLE_COLOUR($,#297);
#299=FILL_AREA_STYLE($,(#298));
#300=SURFACE_STYLE_FILL_AREA(#299);
#301=SURFACE_SIDE_STYLE('',(#300));
#302=SURFACE_STYLE_USAGE(.BOTH.,#301);
#303=PRESENTATION_STYLE_ASSIGNMENT((#302));
#304=STYLED_ITEM('',(#303),#296);
#305=ADVANCED_FACE('',(#786),#788,.T.);
#306=COLOUR_RGB($,0.815686274509804,0.815686274509804,0.815686274509804);
#307=FILL_AREA_STYLE_COLOUR($,#306);
#308=FILL_AREA_STYLE($,(#307));
#309=SURFACE_STYLE_FILL_AREA(#308);
#310=SURFACE_SIDE_STYLE('',(#309));
#311=SURFACE_STYLE_USAGE(.BOTH.,#310);
#312=PRESENTATION_STYLE_ASSIGNMENT((#311));
#313=STYLED_ITEM('',(#312),#305);
#314=ADVANCED_FACE('',(#793),#795,.T.);
#315=COLOUR_RGB($,0.815686274509804,0.815686274509804,0.815686274509804);
#316=FILL_AREA_STYLE_COLOUR($,#315);
#317=FILL_AREA_STYLE($,(#316));
#318=SURFACE_STYLE_FILL_AREA(#317);
#319=SURFACE_SIDE_STYLE('',(#318));
#320=SURFACE_STYLE_USAGE(.BOTH.,#319);
#321=PRESENTATION_STYLE_ASSIGNMENT((#320));
#322=STYLED_ITEM('',(#321),#314);
#323=ADVANCED_FACE('',(#800),#802,.T.);
#324=COLOUR_RGB($,0.815686274509804,0.815686274509804,0.815686274509804);
#325=FILL_AREA_STYLE_COLOUR($,#324);
#326=FILL_AREA_STYLE($,(#325));
#327=SURFACE_STYLE_FILL_AREA(#326);
#328=SURFACE_SIDE_STYLE('',(#327));
#329=SURFACE_STYLE_USAGE(.BOTH.,#328);
#330=PRESENTATION_STYLE_ASSIGNMENT((#329));
#331=STYLED_ITEM('',(#330),#323);
#332=ADVANCED_FACE('',(#807),#809,.T.);
#333=COLOUR_RGB($,0.815686274509804,0.815686274509804,0.815686274509804);
#334=FILL_AREA_STYLE_COLOUR($,#333);
#335=FILL_AREA_STYLE($,(#334));
#336=SURFACE_STYLE_FILL_AREA(#335);
#337=SURFACE_SIDE_STYLE('',(#336));
#338=SURFACE_STYLE_USAGE(.BOTH.,#337);
#339=PRESENTATION_STYLE_ASSIGNMENT((#338));
#340=STYLED_ITEM('',(#339),#332);
#341=ADVANCED_FACE('',(#814),#816,.T.);
#342=COLOUR_RGB($,0.815686274509804,0.815686274509804,0.815686274509804);
#343=FILL_AREA_STYLE_COLOUR($,#342);
#344=FILL_AREA_STYLE($,(#343));
#345=SURFACE_STYLE_FILL_AREA(#344);
#346=SURFACE_SIDE_STYLE('',(#345));
#347=SURFACE_STYLE_USAGE(.BOTH.,#346);
#348=PRESENTATION_STYLE_ASSIGNMENT((#347));
#349=STYLED_ITEM('',(#348),#341);
#350=ADVANCED_FACE('',(#821),#823,.T.);
#351=COLOUR_RGB($,0.815686274509804,0.815686274509804,0.815686274509804);
#352=FILL_AREA_STYLE_COLOUR($,#351);
#353=FILL_AREA_STYLE($,(#352));
#354=SURFACE_STYLE_FILL_AREA(#353);
#355=SURFACE_SIDE_STYLE('',(#354));
#356=SURFACE_STYLE_USAGE(.BOTH.,#355);
#357=PRESENTATION_STYLE_ASSIGNMENT((#356));
#358=STYLED_ITEM('',(#357),#350);
#359=ADVANCED_FACE('',(#828),#830,.T.);
#360=COLOUR_RGB($,0.815686274509804,0.815686274509804,0.815686274509804);
#361=FILL_AREA_STYLE_COLOUR($,#360);
#362=FILL_AREA_STYLE($,(#361));
#363=SURFACE_STYLE_FILL_AREA(#362);
#364=SURFACE_SIDE_STYLE('',(#363));
#365=SURFACE_STYLE_USAGE(.BOTH.,#364);
#366=PRESENTATION_STYLE_ASSIGNMENT((#365));
#367=STYLED_ITEM('',(#366),#359);
#368=ADVANCED_FACE('',(#835),#837,.T.);
#369=COLOUR_RGB($,0.815686274509804,0.815686274509804,0.815686274509804);
#370=FILL_AREA_STYLE_COLOUR($,#369);
#371=FILL_AREA_STYLE($,(#370));
#372=SURFACE_STYLE_FILL_AREA(#371);
#373=SURFACE_SIDE_STYLE('',(#372));
#374=SURFACE_STYLE_USAGE(.BOTH.,#373);
#375=PRESENTATION_STYLE_ASSIGNMENT((#374));
#376=STYLED_ITEM('',(#375),#368);
#377=ADVANCED_FACE('',(#842),#844,.T.);
#378=COLOUR_RGB($,0.815686274509804,0.815686274509804,0.815686274509804);
#379=FILL_AREA_STYLE_COLOUR($,#378);
#380=FILL_AREA_STYLE($,(#379));
#381=SURFACE_STYLE_FILL_AREA(#380);
#382=SURFACE_SIDE_STYLE('',(#381));
#383=SURFACE_STYLE_USAGE(.BOTH.,#382);
#384=PRESENTATION_STYLE_ASSIGNMENT((#383));
#385=STYLED_ITEM('',(#384),#377);
#386=ADVANCED_FACE('',(#849),#851,.T.);
#387=COLOUR_RGB($,0.815686274509804,0.815686274509804,0.815686274509804);
#388=FILL_AREA_STYLE_COLOUR($,#387);
#389=FILL_AREA_STYLE($,(#388));
#390=SURFACE_STYLE_FILL_AREA(#389);
#391=SURFACE_SIDE_STYLE('',(#390));
#392=SURFACE_STYLE_USAGE(.BOTH.,#391);
#393=PRESENTATION_STYLE_ASSIGNMENT((#392));
#394=STYLED_ITEM('',(#393),#386);
#395=ADVANCED_FACE('',(#856),#858,.T.);
#396=COLOUR_RGB($,0.815686274509804,0.815686274509804,0.815686274509804);
#397=FILL_AREA_STYLE_COLOUR($,#396);
#398=FILL_AREA_STYLE($,(#397));
#399=SURFACE_STYLE_FILL_AREA(#398);
#400=SURFACE_SIDE_STYLE('',(#399));
#401=SURFACE_STYLE_USAGE(.BOTH.,#400);
#402=PRESENTATION_STYLE_ASSIGNMENT((#401));
#403=STYLED_ITEM('',(#402),#395);
#404=ADVANCED_FACE('',(#863),#865,.T.);
#405=COLOUR_RGB($,0.815686274509804,0.815686274509804,0.815686274509804);
#406=FILL_AREA_STYLE_COLOUR($,#405);
#407=FILL_AREA_STYLE($,(#406));
#408=SURFACE_STYLE_FILL_AREA(#407);
#409=SURFACE_SIDE_STYLE('',(#408));
#410=SURFACE_STYLE_USAGE(.BOTH.,#409);
#411=PRESENTATION_STYLE_ASSIGNMENT((#410));
#412=STYLED_ITEM('',(#411),#404);
#413=ADVANCED_FACE('',(#870),#872,.T.);
#414=COLOUR_RGB($,0.815686274509804,0.815686274509804,0.815686274509804);
#415=FILL_AREA_STYLE_COLOUR($,#414);
#416=FILL_AREA_STYLE($,(#415));
#417=SURFACE_STYLE_FILL_AREA(#416);
#418=SURFACE_SIDE_STYLE('',(#417));
#419=SURFACE_STYLE_USAGE(.BOTH.,#418);
#420=PRESENTATION_STYLE_ASSIGNMENT((#419));
#421=STYLED_ITEM('',(#420),#413);
#422=ADVANCED_FACE('',(#877),#879,.T.);
#423=COLOUR_RGB($,0.815686274509804,0.815686274509804,0.815686274509804);
#424=FILL_AREA_STYLE_COLOUR($,#423);
#425=FILL_AREA_STYLE($,(#424));
#426=SURFACE_STYLE_FILL_AREA(#425);
#427=SURFACE_SIDE_STYLE('',(#426));
#428=SURFACE_STYLE_USAGE(.BOTH.,#427);
#429=PRESENTATION_STYLE_ASSIGNMENT((#428));
#430=STYLED_ITEM('',(#429),#422);
#431=ADVANCED_FACE('',(#884),#886,.T.);
#432=COLOUR_RGB($,0.815686274509804,0.815686274509804,0.815686274509804);
#433=FILL_AREA_STYLE_COLOUR($,#432);
#434=FILL_AREA_STYLE($,(#433));
#435=SURFACE_STYLE_FILL_AREA(#434);
#436=SURFACE_SIDE_STYLE('',(#435));
#437=SURFACE_STYLE_USAGE(.BOTH.,#436);
#438=PRESENTATION_STYLE_ASSIGNMENT((#437));
#439=STYLED_ITEM('',(#438),#431);
#440=ADVANCED_FACE('',(#891),#893,.T.);
#441=COLOUR_RGB($,0.815686274509804,0.815686274509804,0.815686274509804);
#442=FILL_AREA_STYLE_COLOUR($,#441);
#443=FILL_AREA_STYLE($,(#442));
#444=SURFACE_STYLE_FILL_AREA(#443);
#445=SURFACE_SIDE_STYLE('',(#444));
#446=SURFACE_STYLE_USAGE(.BOTH.,#445);
#447=PRESENTATION_STYLE_ASSIGNMENT((#446));
#448=STYLED_ITEM('',(#447),#440);
#449=ADVANCED_FACE('',(#898),#900,.T.);
#450=COLOUR_RGB($,0.815686274509804,0.815686274509804,0.815686274509804);
#451=FILL_AREA_STYLE_COLOUR($,#450);
#452=FILL_AREA_STYLE($,(#451));
#453=SURFACE_STYLE_FILL_AREA(#452);
#454=SURFACE_SIDE_STYLE('',(#453));
#455=SURFACE_STYLE_USAGE(.BOTH.,#454);
#456=PRESENTATION_STYLE_ASSIGNMENT((#455));
#457=STYLED_ITEM('',(#456),#449);
#458=ADVANCED_FACE('',(#905),#907,.T.);
#459=COLOUR_RGB($,0.815686274509804,0.815686274509804,0.815686274509804);
#460=FILL_AREA_STYLE_COLOUR($,#459);
#461=FILL_AREA_STYLE($,(#460));
#462=SURFACE_STYLE_FILL_AREA(#461);
#463=SURFACE_SIDE_STYLE('',(#462));
#464=SURFACE_STYLE_USAGE(.BOTH.,#463);
#465=PRESENTATION_STYLE_ASSIGNMENT((#464));
#466=STYLED_ITEM('',(#465),#458);
#467=ADVANCED_FACE('',(#912),#914,.T.);
#468=COLOUR_RGB($,0.815686274509804,0.815686274509804,0.815686274509804);
#469=FILL_AREA_STYLE_COLOUR($,#468);
#470=FILL_AREA_STYLE($,(#469));
#471=SURFACE_STYLE_FILL_AREA(#470);
#472=SURFACE_SIDE_STYLE('',(#471));
#473=SURFACE_STYLE_USAGE(.BOTH.,#472);
#474=PRESENTATION_STYLE_ASSIGNMENT((#473));
#475=STYLED_ITEM('',(#474),#467);
#476=ADVANCED_FACE('',(#919),#921,.T.);
#477=COLOUR_RGB($,0.250980392156863,0.250980392156863,0.250980392156863);
#478=FILL_AREA_STYLE_COLOUR($,#477);
#479=FILL_AREA_STYLE($,(#478));
#480=SURFACE_STYLE_FILL_AREA(#479);
#481=SURFACE_SIDE_STYLE('',(#480));
#482=SURFACE_STYLE_USAGE(.BOTH.,#481);
#483=PRESENTATION_STYLE_ASSIGNMENT((#482));
#484=STYLED_ITEM('',(#483),#476);
#485=ADVANCED_FACE('',(#926),#928,.T.);
#486=COLOUR_RGB($,0.250980392156863,0.250980392156863,0.250980392156863);
#487=FILL_AREA_STYLE_COLOUR($,#486);
#488=FILL_AREA_STYLE($,(#487));
#489=SURFACE_STYLE_FILL_AREA(#488);
#490=SURFACE_SIDE_STYLE('',(#489));
#491=SURFACE_STYLE_USAGE(.BOTH.,#490);
#492=PRESENTATION_STYLE_ASSIGNMENT((#491));
#493=STYLED_ITEM('',(#492),#485);
#494=ADVANCED_FACE('',(#933),#935,.T.);
#495=COLOUR_RGB($,0.250980392156863,0.250980392156863,0.250980392156863);
#496=FILL_AREA_STYLE_COLOUR($,#495);
#497=FILL_AREA_STYLE($,(#496));
#498=SURFACE_STYLE_FILL_AREA(#497);
#499=SURFACE_SIDE_STYLE('',(#498));
#500=SURFACE_STYLE_USAGE(.BOTH.,#499);
#501=PRESENTATION_STYLE_ASSIGNMENT((#500));
#502=STYLED_ITEM('',(#501),#494);
#503=ADVANCED_FACE('',(#940),#942,.T.);
#504=COLOUR_RGB($,0.250980392156863,0.250980392156863,0.250980392156863);
#505=FILL_AREA_STYLE_COLOUR($,#504);
#506=FILL_AREA_STYLE($,(#505));
#507=SURFACE_STYLE_FILL_AREA(#506);
#508=SURFACE_SIDE_STYLE('',(#507));
#509=SURFACE_STYLE_USAGE(.BOTH.,#508);
#510=PRESENTATION_STYLE_ASSIGNMENT((#509));
#511=STYLED_ITEM('',(#510),#503);
#512=ADVANCED_FACE('',(#947),#949,.T.);
#513=COLOUR_RGB($,0.250980392156863,0.250980392156863,0.250980392156863);
#514=FILL_AREA_STYLE_COLOUR($,#513);
#515=FILL_AREA_STYLE($,(#514));
#516=SURFACE_STYLE_FILL_AREA(#515);
#517=SURFACE_SIDE_STYLE('',(#516));
#518=SURFACE_STYLE_USAGE(.BOTH.,#517);
#519=PRESENTATION_STYLE_ASSIGNMENT((#518));
#520=STYLED_ITEM('',(#519),#512);
#521=ADVANCED_FACE('',(#954),#956,.T.);
#522=COLOUR_RGB($,0.250980392156863,0.250980392156863,0.250980392156863);
#523=FILL_AREA_STYLE_COLOUR($,#522);
#524=FILL_AREA_STYLE($,(#523));
#525=SURFACE_STYLE_FILL_AREA(#524);
#526=SURFACE_SIDE_STYLE('',(#525));
#527=SURFACE_STYLE_USAGE(.BOTH.,#526);
#528=PRESENTATION_STYLE_ASSIGNMENT((#527));
#529=STYLED_ITEM('',(#528),#521);
#530=ADVANCED_FACE('',(#961),#963,.T.);
#531=COLOUR_RGB($,0.250980392156863,0.250980392156863,0.250980392156863);
#532=FILL_AREA_STYLE_COLOUR($,#531);
#533=FILL_AREA_STYLE($,(#532));
#534=SURFACE_STYLE_FILL_AREA(#533);
#535=SURFACE_SIDE_STYLE('',(#534));
#536=SURFACE_STYLE_USAGE(.BOTH.,#535);
#537=PRESENTATION_STYLE_ASSIGNMENT((#536));
#538=STYLED_ITEM('',(#537),#530);
#539=ADVANCED_FACE('',(#968),#970,.T.);
#540=COLOUR_RGB($,0.250980392156863,0.250980392156863,0.250980392156863);
#541=FILL_AREA_STYLE_COLOUR($,#540);
#542=FILL_AREA_STYLE($,(#541));
#543=SURFACE_STYLE_FILL_AREA(#542);
#544=SURFACE_SIDE_STYLE('',(#543));
#545=SURFACE_STYLE_USAGE(.BOTH.,#544);
#546=PRESENTATION_STYLE_ASSIGNMENT((#545));
#547=STYLED_ITEM('',(#546),#539);
#548=ADVANCED_FACE('',(#975),#977,.T.);
#549=COLOUR_RGB($,0.250980392156863,0.250980392156863,0.250980392156863);
#550=FILL_AREA_STYLE_COLOUR($,#549);
#551=FILL_AREA_STYLE($,(#550));
#552=SURFACE_STYLE_FILL_AREA(#551);
#553=SURFACE_SIDE_STYLE('',(#552));
#554=SURFACE_STYLE_USAGE(.BOTH.,#553);
#555=PRESENTATION_STYLE_ASSIGNMENT((#554));
#556=STYLED_ITEM('',(#555),#548);
#557=ADVANCED_FACE('',(#982),#984,.T.);
#558=COLOUR_RGB($,0.250980392156863,0.250980392156863,0.250980392156863);
#559=FILL_AREA_STYLE_COLOUR($,#558);
#560=FILL_AREA_STYLE($,(#559));
#561=SURFACE_STYLE_FILL_AREA(#560);
#562=SURFACE_SIDE_STYLE('',(#561));
#563=SURFACE_STYLE_USAGE(.BOTH.,#562);
#564=PRESENTATION_STYLE_ASSIGNMENT((#563));
#565=STYLED_ITEM('',(#564),#557);
#566=ADVANCED_FACE('',(#989),#991,.T.);
#567=COLOUR_RGB($,0.250980392156863,0.250980392156863,0.250980392156863);
#568=FILL_AREA_STYLE_COLOUR($,#567);
#569=FILL_AREA_STYLE($,(#568));
#570=SURFACE_STYLE_FILL_AREA(#569);
#571=SURFACE_SIDE_STYLE('',(#570));
#572=SURFACE_STYLE_USAGE(.BOTH.,#571);
#573=PRESENTATION_STYLE_ASSIGNMENT((#572));
#574=STYLED_ITEM('',(#573),#566);
#575=ADVANCED_FACE('',(#996),#998,.T.);
#576=COLOUR_RGB($,0.250980392156863,0.250980392156863,0.250980392156863);
#577=FILL_AREA_STYLE_COLOUR($,#576);
#578=FILL_AREA_STYLE($,(#577));
#579=SURFACE_STYLE_FILL_AREA(#578);
#580=SURFACE_SIDE_STYLE('',(#579));
#581=SURFACE_STYLE_USAGE(.BOTH.,#580);
#582=PRESENTATION_STYLE_ASSIGNMENT((#581));
#583=STYLED_ITEM('',(#582),#575);
#584=FACE_BOUND('',#585,.T.);
#585=EDGE_LOOP('',(#1003,#1004,#1005,#1006,#1007,#1008,#1009,#1010,#1011,#1012));
#586=FACE_BOUND('',#587,.T.);
#587=EDGE_LOOP('',(#1013,#1014,#1015,#1016));
#588=FACE_BOUND('',#589,.T.);
#589=EDGE_LOOP('',(#1017,#1018,#1019,#1020));
#590=FACE_BOUND('',#591,.T.);
#591=EDGE_LOOP('',(#1021,#1022,#1023,#1024));
#592=PLANE('',#593);
#593=AXIS2_PLACEMENT_3D('',#594,#595,#596);
#594=CARTESIAN_POINT('',(-5.,0.,-1.4));
#595=DIRECTION('',(1.E-301,-1.,0.));
#596=DIRECTION('',(1.,1.E-301,0.));
#597=FACE_BOUND('',#598,.T.);
#598=EDGE_LOOP('',(#1025,#1026,#1027));
#599=SPHERICAL_SURFACE('',#600,2.75);
#600=AXIS2_PLACEMENT_3D('',#601,#602,#603);
#601=CARTESIAN_POINT('',(0.,9.2,1.65));
#602=DIRECTION('',(-0.,-0.,-1.));
#603=DIRECTION('',(-1.,0.,0.));
#604=FACE_BOUND('',#605,.T.);
#605=EDGE_LOOP('',(#1028,#1029,#1030,#1031,#1032,#1033,#1034,#1035));
#606=PLANE('',#607);
#607=AXIS2_PLACEMENT_3D('',#608,#609,#610);
#608=CARTESIAN_POINT('',(0.,0.,2.6));
#609=DIRECTION('',(0.,0.,1.));
#610=DIRECTION('',(1.,0.,0.));
#611=FACE_BOUND('',#612,.T.);
#612=EDGE_LOOP('',(#1036,#1037,#1038,#1039,#1040));
#613=CYLINDRICAL_SURFACE('',#614,2.75);
#614=AXIS2_PLACEMENT_3D('',#615,#616,#617);
#615=CARTESIAN_POINT('',(0.,0.,1.65));
#616=DIRECTION('',(0.,1.,0.));
#617=DIRECTION('',(-0.938435483677377,-0.,0.345454545454546));
#618=FACE_BOUND('',#619,.T.);
#619=EDGE_LOOP('',(#1041,#1042,#1043,#1044));
#620=PLANE('',#621);
#621=AXIS2_PLACEMENT_3D('',#622,#623,#624);
#622=CARTESIAN_POINT('',(0.,0.,-1.4));
#623=DIRECTION('',(0.,0.,1.));
#624=DIRECTION('',(1.,0.,0.));
#625=FACE_BOUND('',#626,.T.);
#626=EDGE_LOOP('',(#1045,#1046,#1047,#1048));
#627=PLANE('',#628);
#628=AXIS2_PLACEMENT_3D('',#629,#630,#631);
#629=CARTESIAN_POINT('',(5.,1.E-300,-1.4));
#630=DIRECTION('',(1.,0.,0.));
#631=DIRECTION('',(0.,1.,0.));
#632=FACE_BOUND('',#633,.T.);
#633=EDGE_LOOP('',(#1049,#1050,#1051,#1052));
#634=PLANE('',#635);
#635=AXIS2_PLACEMENT_3D('',#636,#637,#638);
#636=CARTESIAN_POINT('',(-5.,12.5,-1.4));
#637=DIRECTION('',(-1.,0.,0.));
#638=DIRECTION('',(0.,-1.,0.));
#639=FACE_BOUND('',#640,.T.);
#640=EDGE_LOOP('',(#1053,#1054,#1055,#1056));
#641=PLANE('',#642);
#642=AXIS2_PLACEMENT_3D('',#643,#644,#645);
#643=CARTESIAN_POINT('',(-1.02,-1.,8.80337495614722E-016));
#644=DIRECTION('',(1.,0.,0.));
#645=DIRECTION('',(0.,1.,0.));
#646=FACE_BOUND('',#647,.T.);
#647=EDGE_LOOP('',(#1057,#1058,#1059,#1060,#1061,#1062,#1063,#1064,#1065,#1066,#1067,
#1068));
#648=PLANE('',#649);
#649=AXIS2_PLACEMENT_3D('',#650,#651,#652);
#650=CARTESIAN_POINT('',(2.54,4.44089209850063E-016,8.80337495614722E-016));
#651=DIRECTION('',(0.,0.,1.));
#652=DIRECTION('',(1.,0.,0.));
#653=FACE_BOUND('',#654,.T.);
#654=EDGE_LOOP('',(#1069,#1070,#1071,#1072));
#655=PLANE('',#656);
#656=AXIS2_PLACEMENT_3D('',#657,#658,#659);
#657=CARTESIAN_POINT('',(-1.52,4.44089209850063E-016,8.80337495614722E-016));
#658=DIRECTION('',(-1.,0.,0.));
#659=DIRECTION('',(0.,-1.,0.));
#660=FACE_BOUND('',#661,.T.);
#661=EDGE_LOOP('',(#1073,#1074,#1075,#1076,#1077,#1078,#1079,#1080,#1081,#1082,#1083,
#1084));
#662=PLANE('',#663);
#663=AXIS2_PLACEMENT_3D('',#664,#665,#666);
#664=CARTESIAN_POINT('',(2.54,4.44089209850063E-016,0.400000000000001));
#665=DIRECTION('',(0.,0.,1.));
#666=DIRECTION('',(1.,0.,0.));
#667=FACE_BOUND('',#668,.T.);
#668=EDGE_LOOP('',(#1085,#1086,#1087,#1088));
#669=PLANE('',#670);
#670=AXIS2_PLACEMENT_3D('',#671,#672,#673);
#671=CARTESIAN_POINT('',(4.06,-0.999999999999999,1.49049544017645E-015));
#672=DIRECTION('',(1.,0.,0.));
#673=DIRECTION('',(0.,1.,0.));
#674=FACE_BOUND('',#675,.T.);
#675=EDGE_LOOP('',(#1089,#1090,#1091,#1092,#1093,#1094,#1095,#1096,#1097,#1098,#1099,
#1100));
#676=PLANE('',#677);
#677=AXIS2_PLACEMENT_3D('',#678,#679,#680);
#678=CARTESIAN_POINT('',(7.62,6.66133814775094E-016,1.49049544017645E-015));
#679=DIRECTION('',(0.,0.,1.));
#680=DIRECTION('',(1.,0.,0.));
#681=FACE_BOUND('',#682,.T.);
#682=EDGE_LOOP('',(#1101,#1102,#1103,#1104));
#683=PLANE('',#684);
#684=AXIS2_PLACEMENT_3D('',#685,#686,#687);
#685=CARTESIAN_POINT('',(3.56,6.66133814775094E-016,1.49049544017645E-015));
#686=DIRECTION('',(-1.,0.,0.));
#687=DIRECTION('',(0.,-1.,0.));
#688=FACE_BOUND('',#689,.T.);
#689=EDGE_LOOP('',(#1105,#1106,#1107,#1108,#1109,#1110,#1111,#1112,#1113,#1114,#1115,
#1116));
#690=PLANE('',#691);
#691=AXIS2_PLACEMENT_3D('',#692,#693,#694);
#692=CARTESIAN_POINT('',(7.62,6.66133814775094E-016,0.400000000000002));
#693=DIRECTION('',(0.,0.,1.));
#694=DIRECTION('',(1.,0.,0.));
#695=FACE_BOUND('',#696,.T.);
#696=EDGE_LOOP('',(#1117,#1118,#1119,#1120));
#697=PLANE('',#698);
#698=AXIS2_PLACEMENT_3D('',#699,#700,#701);
#699=CARTESIAN_POINT('',(-3.56,-1.,0.));
#700=DIRECTION('',(1.,0.,0.));
#701=DIRECTION('',(0.,1.,0.));
#702=FACE_BOUND('',#703,.T.);
#703=EDGE_LOOP('',(#1121,#1122,#1123,#1124,#1125,#1126,#1127,#1128,#1129,#1130,#1131,
#1132));
#704=PLANE('',#705);
#705=AXIS2_PLACEMENT_3D('',#706,#707,#708);
#706=CARTESIAN_POINT('',(0.,0.,0.));
#707=DIRECTION('',(0.,0.,1.));
#708=DIRECTION('',(1.,0.,0.));
#709=FACE_BOUND('',#710,.T.);
#710=EDGE_LOOP('',(#1133,#1134,#1135,#1136));
#711=PLANE('',#712);
#712=AXIS2_PLACEMENT_3D('',#713,#714,#715);
#713=CARTESIAN_POINT('',(-4.06,0.,0.));
#714=DIRECTION('',(-1.,0.,0.));
#715=DIRECTION('',(0.,-1.,0.));
#716=FACE_BOUND('',#717,.T.);
#717=EDGE_LOOP('',(#1137,#1138,#1139,#1140,#1141,#1142,#1143,#1144,#1145,#1146,#1147,
#1148));
#718=PLANE('',#719);
#719=AXIS2_PLACEMENT_3D('',#720,#721,#722);
#720=CARTESIAN_POINT('',(0.,0.,0.4));
#721=DIRECTION('',(0.,0.,1.));
#722=DIRECTION('',(1.,0.,0.));
#723=FACE_BOUND('',#724,.T.);
#724=EDGE_LOOP('',(#1149,#1150,#1151,#1152));
#725=PLANE('',#726);
#726=AXIS2_PLACEMENT_3D('',#727,#728,#729);
#727=CARTESIAN_POINT('',(5.,12.5,-1.4));
#728=DIRECTION('',(0.,1.,-0.));
#729=DIRECTION('',(-1.,0.,0.));
#730=FACE_BOUND('',#731,.T.);
#731=EDGE_LOOP('',(#1153,#1154,#1155,#1156));
#732=PLANE('',#733);
#733=AXIS2_PLACEMENT_3D('',#734,#735,#736);
#734=CARTESIAN_POINT('',(-0.945,-1.,8.80337495614722E-016));
#735=DIRECTION('',(0.,1.,-0.));
#736=DIRECTION('',(-1.,0.,0.));
#737=FACE_BOUND('',#738,.T.);
#738=EDGE_LOOP('',(#1157,#1158,#1159,#1160));
#739=PLANE('',#740);
#740=AXIS2_PLACEMENT_3D('',#741,#742,#743);
#741=CARTESIAN_POINT('',(-0.945,-2.,8.80337495614722E-016));
#742=DIRECTION('',(1.,0.,0.));
#743=DIRECTION('',(0.,1.,0.));
#744=FACE_BOUND('',#745,.T.);
#745=EDGE_LOOP('',(#1161,#1162,#1163,#1164));
#746=PLANE('',#747);
#747=AXIS2_PLACEMENT_3D('',#748,#749,#750);
#748=CARTESIAN_POINT('',(-1.02,-2.,8.80337495614722E-016));
#749=DIRECTION('',(0.,-1.,0.));
#750=DIRECTION('',(1.,0.,0.));
#751=FACE_BOUND('',#752,.T.);
#752=EDGE_LOOP('',(#1165,#1166,#1167,#1168));
#753=PLANE('',#754);
#754=AXIS2_PLACEMENT_3D('',#755,#756,#757);
#755=CARTESIAN_POINT('',(-1.02,-3.5,8.80337495614722E-016));
#756=DIRECTION('',(1.,2.96059473233375E-016,-0.));
#757=DIRECTION('',(-2.96059473233375E-016,1.,0.));
#758=FACE_BOUND('',#759,.T.);
#759=EDGE_LOOP('',(#1169,#1170,#1171,#1172));
#760=PLANE('',#761);
#761=AXIS2_PLACEMENT_3D('',#762,#763,#764);
#762=CARTESIAN_POINT('',(-1.52,-3.5,8.80337495614722E-016));
#763=DIRECTION('',(0.,-1.,0.));
#764=DIRECTION('',(1.,0.,0.));
#765=FACE_BOUND('',#766,.T.);
#766=EDGE_LOOP('',(#1173,#1174,#1175,#1176));
#767=PLANE('',#768);
#768=AXIS2_PLACEMENT_3D('',#769,#770,#771);
#769=CARTESIAN_POINT('',(-1.52,-2.,8.80337495614722E-016));
#770=DIRECTION('',(-1.,0.,0.));
#771=DIRECTION('',(0.,-1.,0.));
#772=FACE_BOUND('',#773,.T.);
#773=EDGE_LOOP('',(#1177,#1178,#1179,#1180));
#774=PLANE('',#775);
#775=AXIS2_PLACEMENT_3D('',#776,#777,#778);
#776=CARTESIAN_POINT('',(-1.595,-2.,8.80337495614722E-016));
#777=DIRECTION('',(0.,-1.,0.));
#778=DIRECTION('',(1.,0.,0.));
#779=FACE_BOUND('',#780,.T.);
#780=EDGE_LOOP('',(#1181,#1182,#1183,#1184));
#781=PLANE('',#782);
#782=AXIS2_PLACEMENT_3D('',#783,#784,#785);
#783=CARTESIAN_POINT('',(-1.595,-1.,8.80337495614722E-016));
#784=DIRECTION('',(-1.,0.,0.));
#785=DIRECTION('',(0.,-1.,0.));
#786=FACE_BOUND('',#787,.T.);
#787=EDGE_LOOP('',(#1185,#1186,#1187,#1188));
#788=PLANE('',#789);
#789=AXIS2_PLACEMENT_3D('',#790,#791,#792);
#790=CARTESIAN_POINT('',(-1.52,-1.,8.80337495614722E-016));
#791=DIRECTION('',(0.,1.,-0.));
#792=DIRECTION('',(-1.,0.,0.));
#793=FACE_BOUND('',#794,.T.);
#794=EDGE_LOOP('',(#1189,#1190,#1191,#1192));
#795=PLANE('',#796);
#796=AXIS2_PLACEMENT_3D('',#797,#798,#799);
#797=CARTESIAN_POINT('',(4.135,-0.999999999999999,1.49049544017645E-015));
#798=DIRECTION('',(0.,1.,-0.));
#799=DIRECTION('',(-1.,0.,0.));
#800=FACE_BOUND('',#801,.T.);
#801=EDGE_LOOP('',(#1193,#1194,#1195,#1196));
#802=PLANE('',#803);
#803=AXIS2_PLACEMENT_3D('',#804,#805,#806);
#804=CARTESIAN_POINT('',(4.135,-2.,1.49049544017645E-015));
#805=DIRECTION('',(1.,0.,0.));
#806=DIRECTION('',(0.,1.,0.));
#807=FACE_BOUND('',#808,.T.);
#808=EDGE_LOOP('',(#1197,#1198,#1199,#1200));
#809=PLANE('',#810);
#810=AXIS2_PLACEMENT_3D('',#811,#812,#813);
#811=CARTESIAN_POINT('',(4.06,-2.,1.49049544017645E-015));
#812=DIRECTION('',(0.,-1.,0.));
#813=DIRECTION('',(1.,0.,0.));
#814=FACE_BOUND('',#815,.T.);
#815=EDGE_LOOP('',(#1201,#1202,#1203,#1204));
#816=PLANE('',#817);
#817=AXIS2_PLACEMENT_3D('',#818,#819,#820);
#818=CARTESIAN_POINT('',(4.06,-3.5,1.49049544017645E-015));
#819=DIRECTION('',(1.,5.9211894646675E-016,-0.));
#820=DIRECTION('',(-5.9211894646675E-016,1.,0.));
#821=FACE_BOUND('',#822,.T.);
#822=EDGE_LOOP('',(#1205,#1206,#1207,#1208));
#823=PLANE('',#824);
#824=AXIS2_PLACEMENT_3D('',#825,#826,#827);
#825=CARTESIAN_POINT('',(3.56,-3.5,1.49049544017645E-015));
#826=DIRECTION('',(0.,-1.,0.));
#827=DIRECTION('',(1.,0.,0.));
#828=FACE_BOUND('',#829,.T.);
#829=EDGE_LOOP('',(#1209,#1210,#1211,#1212));
#830=PLANE('',#831);
#831=AXIS2_PLACEMENT_3D('',#832,#833,#834);
#832=CARTESIAN_POINT('',(3.56,-2.,1.49049544017645E-015));
#833=DIRECTION('',(-1.,0.,0.));
#834=DIRECTION('',(0.,-1.,0.));
#835=FACE_BOUND('',#836,.T.);
#836=EDGE_LOOP('',(#1213,#1214,#1215,#1216));
#837=PLANE('',#838);
#838=AXIS2_PLACEMENT_3D('',#839,#840,#841);
#839=CARTESIAN_POINT('',(3.485,-2.,1.49049544017645E-015));
#840=DIRECTION('',(0.,-1.,0.));
#841=DIRECTION('',(1.,0.,0.));
#842=FACE_BOUND('',#843,.T.);
#843=EDGE_LOOP('',(#1217,#1218,#1219,#1220));
#844=PLANE('',#845);
#845=AXIS2_PLACEMENT_3D('',#846,#847,#848);
#846=CARTESIAN_POINT('',(3.485,-0.999999999999999,1.49049544017645E-015));
#847=DIRECTION('',(-1.,0.,0.));
#848=DIRECTION('',(0.,-1.,0.));
#849=FACE_BOUND('',#850,.T.);
#850=EDGE_LOOP('',(#1221,#1222,#1223,#1224));
#851=PLANE('',#852);
#852=AXIS2_PLACEMENT_3D('',#853,#854,#855);
#853=CARTESIAN_POINT('',(3.56,-0.999999999999999,1.49049544017645E-015));
#854=DIRECTION('',(0.,1.,-0.));
#855=DIRECTION('',(-1.,0.,0.));
#856=FACE_BOUND('',#857,.T.);
#857=EDGE_LOOP('',(#1225,#1226,#1227,#1228));
#858=PLANE('',#859);
#859=AXIS2_PLACEMENT_3D('',#860,#861,#862);
#860=CARTESIAN_POINT('',(-3.485,-1.,0.));
#861=DIRECTION('',(0.,1.,-0.));
#862=DIRECTION('',(-1.,0.,0.));
#863=FACE_BOUND('',#864,.T.);
#864=EDGE_LOOP('',(#1229,#1230,#1231,#1232));
#865=PLANE('',#866);
#866=AXIS2_PLACEMENT_3D('',#867,#868,#869);
#867=CARTESIAN_POINT('',(-3.485,-2.,0.));
#868=DIRECTION('',(1.,0.,0.));
#869=DIRECTION('',(0.,1.,0.));
#870=FACE_BOUND('',#871,.T.);
#871=EDGE_LOOP('',(#1233,#1234,#1235,#1236));
#872=PLANE('',#873);
#873=AXIS2_PLACEMENT_3D('',#874,#875,#876);
#874=CARTESIAN_POINT('',(-3.56,-2.,0.));
#875=DIRECTION('',(0.,-1.,0.));
#876=DIRECTION('',(1.,0.,0.));
#877=FACE_BOUND('',#878,.T.);
#878=EDGE_LOOP('',(#1237,#1238,#1239,#1240));
#879=PLANE('',#880);
#880=AXIS2_PLACEMENT_3D('',#881,#882,#883);
#881=CARTESIAN_POINT('',(-3.56,-3.5,0.));
#882=DIRECTION('',(1.,2.96059473233375E-016,-0.));
#883=DIRECTION('',(-2.96059473233375E-016,1.,0.));
#884=FACE_BOUND('',#885,.T.);
#885=EDGE_LOOP('',(#1241,#1242,#1243,#1244));
#886=PLANE('',#887);
#887=AXIS2_PLACEMENT_3D('',#888,#889,#890);
#888=CARTESIAN_POINT('',(-4.06,-3.5,0.));
#889=DIRECTION('',(0.,-1.,0.));
#890=DIRECTION('',(1.,0.,0.));
#891=FACE_BOUND('',#892,.T.);
#892=EDGE_LOOP('',(#1245,#1246,#1247,#1248));
#893=PLANE('',#894);
#894=AXIS2_PLACEMENT_3D('',#895,#896,#897);
#895=CARTESIAN_POINT('',(-4.06,-2.,0.));
#896=DIRECTION('',(-1.,0.,0.));
#897=DIRECTION('',(0.,-1.,0.));
#898=FACE_BOUND('',#899,.T.);
#899=EDGE_LOOP('',(#1249,#1250,#1251,#1252));
#900=PLANE('',#901);
#901=AXIS2_PLACEMENT_3D('',#902,#903,#904);
#902=CARTESIAN_POINT('',(-4.135,-2.,0.));
#903=DIRECTION('',(0.,-1.,0.));
#904=DIRECTION('',(1.,0.,0.));
#905=FACE_BOUND('',#906,.T.);
#906=EDGE_LOOP('',(#1253,#1254,#1255,#1256));
#907=PLANE('',#908);
#908=AXIS2_PLACEMENT_3D('',#909,#910,#911);
#909=CARTESIAN_POINT('',(-4.135,-1.,0.));
#910=DIRECTION('',(-1.,0.,0.));
#911=DIRECTION('',(0.,-1.,0.));
#912=FACE_BOUND('',#913,.T.);
#913=EDGE_LOOP('',(#1257,#1258,#1259,#1260));
#914=PLANE('',#915);
#915=AXIS2_PLACEMENT_3D('',#916,#917,#918);
#916=CARTESIAN_POINT('',(-4.06,-1.,0.));
#917=DIRECTION('',(0.,1.,-0.));
#918=DIRECTION('',(-1.,0.,0.));
#919=FACE_BOUND('',#920,.T.);
#920=EDGE_LOOP('',(#1261,#1262,#1263,#1264));
#921=CYLINDRICAL_SURFACE('',#922,0.2);
#922=AXIS2_PLACEMENT_3D('',#923,#924,#925);
#923=CARTESIAN_POINT('',(4.8,12.3,-2.2));
#924=DIRECTION('',(-0.,-3.1720657846433E-016,-1.));
#925=DIRECTION('',(-4.4408920985006E-015,1.,-3.1720657846433E-016));
#926=FACE_BOUND('',#927,.T.);
#927=EDGE_LOOP('',(#1265,#1266,#1267,#1268));
#928=CYLINDRICAL_SURFACE('',#929,0.2);
#929=AXIS2_PLACEMENT_3D('',#930,#931,#932);
#930=CARTESIAN_POINT('',(-4.8,12.3,-2.2));
#931=DIRECTION('',(-0.,0.,-1.));
#932=DIRECTION('',(-1.,0.,0.));
#933=FACE_BOUND('',#934,.T.);
#934=EDGE_LOOP('',(#1269,#1270,#1271,#1272));
#935=CYLINDRICAL_SURFACE('',#936,0.2);
#936=AXIS2_PLACEMENT_3D('',#937,#938,#939);
#937=CARTESIAN_POINT('',(4.8,-0.8,2.4));
#938=DIRECTION('',(6.38977280359802E-017,1.,-0.));
#939=DIRECTION('',(-4.44089209850062E-015,2.83762915547126E-031,1.));
#940=FACE_BOUND('',#941,.T.);
#941=EDGE_LOOP('',(#1273,#1274,#1275));
#942=SPHERICAL_SURFACE('',#943,0.2);
#943=AXIS2_PLACEMENT_3D('',#944,#945,#946);
#944=CARTESIAN_POINT('',(4.8,12.3,2.4));
#945=DIRECTION('',(0.,0.,1.));
#946=DIRECTION('',(1.,1.77635683940025E-014,0.));
#947=FACE_BOUND('',#948,.T.);
#948=EDGE_LOOP('',(#1276,#1277,#1278,#1279));
#949=CYLINDRICAL_SURFACE('',#950,0.2);
#950=AXIS2_PLACEMENT_3D('',#951,#952,#953);
#951=CARTESIAN_POINT('',(5.6,12.3,2.4));
#952=DIRECTION('',(-1.,1.58603289232165E-016,-0.));
#953=DIRECTION('',(0.,0.,1.));
#954=FACE_BOUND('',#955,.T.);
#955=EDGE_LOOP('',(#1280,#1281,#1282));
#956=SPHERICAL_SURFACE('',#957,0.2);
#957=AXIS2_PLACEMENT_3D('',#958,#959,#960);
#958=CARTESIAN_POINT('',(-4.8,12.3,2.4));
#959=DIRECTION('',(0.,0.,1.));
#960=DIRECTION('',(0.,1.,0.));
#961=FACE_BOUND('',#962,.T.);
#962=EDGE_LOOP('',(#1283,#1284,#1285,#1286));
#963=CYLINDRICAL_SURFACE('',#964,0.2);
#964=AXIS2_PLACEMENT_3D('',#965,#966,#967);
#965=CARTESIAN_POINT('',(-4.8,13.1,2.4));
#966=DIRECTION('',(-6.38977280359802E-017,-1.,-0.));
#967=DIRECTION('',(4.44089209850062E-015,0.,1.));
#968=FACE_BOUND('',#969,.T.);
#969=EDGE_LOOP('',(#1287,#1288,#1289,#1290));
#970=CYLINDRICAL_SURFACE('',#971,0.2);
#971=AXIS2_PLACEMENT_3D('',#972,#973,#974);
#972=CARTESIAN_POINT('',(4.8,-0.8,-1.2));
#973=DIRECTION('',(-6.38977280359802E-017,-1.,0.));
#974=DIRECTION('',(-4.44089209850062E-015,2.83762915547126E-031,-1.));
#975=FACE_BOUND('',#976,.T.);
#976=EDGE_LOOP('',(#1291,#1292,#1293));
#977=SPHERICAL_SURFACE('',#978,0.2);
#978=AXIS2_PLACEMENT_3D('',#979,#980,#981);
#979=CARTESIAN_POINT('',(4.8,12.3,-1.2));
#980=DIRECTION('',(-0.,-0.,-1.));
#981=DIRECTION('',(-4.44089209850064E-015,1.,0.));
#982=FACE_BOUND('',#983,.T.);
#983=EDGE_LOOP('',(#1294,#1295,#1296,#1297));
#984=CYLINDRICAL_SURFACE('',#985,0.2);
#985=AXIS2_PLACEMENT_3D('',#986,#987,#988);
#986=CARTESIAN_POINT('',(5.6,12.3,-1.2));
#987=DIRECTION('',(1.,-1.58603289232165E-016,0.));
#988=DIRECTION('',(0.,0.,-1.));
#989=FACE_BOUND('',#990,.T.);
#990=EDGE_LOOP('',(#1298,#1299,#1300));
#991=SPHERICAL_SURFACE('',#992,0.2);
#992=AXIS2_PLACEMENT_3D('',#993,#994,#995);
#993=CARTESIAN_POINT('',(-4.8,12.3,-1.2));
#994=DIRECTION('',(-0.,-0.,-1.));
#995=DIRECTION('',(-1.,0.,0.));
#996=FACE_BOUND('',#997,.T.);
#997=EDGE_LOOP('',(#1301,#1302,#1303,#1304));
#998=CYLINDRICAL_SURFACE('',#999,0.2);
#999=AXIS2_PLACEMENT_3D('',#1000,#1001,#1002);
#1000=CARTESIAN_POINT('',(-4.8,13.1,-1.2));
#1001=DIRECTION('',(6.38977280359802E-017,1.,0.));
#1002=DIRECTION('',(4.44089209850062E-015,0.,-1.));
#1003=ORIENTED_EDGE('',*,*,#1305,.F.);
#1004=ORIENTED_EDGE('',*,*,#1306,.T.);
#1005=ORIENTED_EDGE('',*,*,#1307,.F.);
#1006=ORIENTED_EDGE('',*,*,#1308,.F.);
#1007=ORIENTED_EDGE('',*,*,#1309,.F.);
#1008=ORIENTED_EDGE('',*,*,#1310,.F.);
#1009=ORIENTED_EDGE('',*,*,#1311,.F.);
#1010=ORIENTED_EDGE('',*,*,#1312,.F.);
#1011=ORIENTED_EDGE('',*,*,#1313,.F.);
#1012=ORIENTED_EDGE('',*,*,#1314,.T.);
#1013=ORIENTED_EDGE('',*,*,#1315,.F.);
#1014=ORIENTED_EDGE('',*,*,#1316,.F.);
#1015=ORIENTED_EDGE('',*,*,#1317,.F.);
#1016=ORIENTED_EDGE('',*,*,#1318,.F.);
#1017=ORIENTED_EDGE('',*,*,#1319,.F.);
#1018=ORIENTED_EDGE('',*,*,#1320,.F.);
#1019=ORIENTED_EDGE('',*,*,#1321,.F.);
#1020=ORIENTED_EDGE('',*,*,#1322,.F.);
#1021=ORIENTED_EDGE('',*,*,#1323,.T.);
#1022=ORIENTED_EDGE('',*,*,#1324,.T.);
#1023=ORIENTED_EDGE('',*,*,#1325,.T.);
#1024=ORIENTED_EDGE('',*,*,#1326,.T.);
#1025=ORIENTED_EDGE('',*,*,#1327,.T.);
#1026=ORIENTED_EDGE('',*,*,#1328,.F.);
#1027=ORIENTED_EDGE('',*,*,#1329,.F.);
#1028=ORIENTED_EDGE('',*,*,#1330,.T.);
#1029=ORIENTED_EDGE('',*,*,#1331,.T.);
#1030=ORIENTED_EDGE('',*,*,#1332,.T.);
#1031=ORIENTED_EDGE('',*,*,#1310,.T.);
#1032=ORIENTED_EDGE('',*,*,#1333,.F.);
#1033=ORIENTED_EDGE('',*,*,#1327,.F.);
#1034=ORIENTED_EDGE('',*,*,#1334,.F.);
#1035=ORIENTED_EDGE('',*,*,#1308,.T.);
#1036=ORIENTED_EDGE('',*,*,#1333,.T.);
#1037=ORIENTED_EDGE('',*,*,#1309,.T.);
#1038=ORIENTED_EDGE('',*,*,#1334,.T.);
#1039=ORIENTED_EDGE('',*,*,#1329,.T.);
#1040=ORIENTED_EDGE('',*,*,#1328,.T.);
#1041=ORIENTED_EDGE('',*,*,#1335,.F.);
#1042=ORIENTED_EDGE('',*,*,#1314,.F.);
#1043=ORIENTED_EDGE('',*,*,#1336,.F.);
#1044=ORIENTED_EDGE('',*,*,#1337,.F.);
#1045=ORIENTED_EDGE('',*,*,#1338,.T.);
#1046=ORIENTED_EDGE('',*,*,#1339,.T.);
#1047=ORIENTED_EDGE('',*,*,#1340,.F.);
#1048=ORIENTED_EDGE('',*,*,#1306,.F.);
#1049=ORIENTED_EDGE('',*,*,#1341,.T.);
#1050=ORIENTED_EDGE('',*,*,#1312,.T.);
#1051=ORIENTED_EDGE('',*,*,#1342,.F.);
#1052=ORIENTED_EDGE('',*,*,#1343,.F.);
#1053=ORIENTED_EDGE('',*,*,#1315,.T.);
#1054=ORIENTED_EDGE('',*,*,#1344,.F.);
#1055=ORIENTED_EDGE('',*,*,#1345,.F.);
#1056=ORIENTED_EDGE('',*,*,#1346,.T.);
#1057=ORIENTED_EDGE('',*,*,#1316,.T.);
#1058=ORIENTED_EDGE('',*,*,#1346,.F.);
#1059=ORIENTED_EDGE('',*,*,#1347,.F.);
#1060=ORIENTED_EDGE('',*,*,#1348,.F.);
#1061=ORIENTED_EDGE('',*,*,#1349,.F.);
#1062=ORIENTED_EDGE('',*,*,#1350,.F.);
#1063=ORIENTED_EDGE('',*,*,#1351,.F.);
#1064=ORIENTED_EDGE('',*,*,#1352,.F.);
#1065=ORIENTED_EDGE('',*,*,#1353,.F.);
#1066=ORIENTED_EDGE('',*,*,#1354,.F.);
#1067=ORIENTED_EDGE('',*,*,#1355,.F.);
#1068=ORIENTED_EDGE('',*,*,#1356,.F.);
#1069=ORIENTED_EDGE('',*,*,#1317,.T.);
#1070=ORIENTED_EDGE('',*,*,#1356,.T.);
#1071=ORIENTED_EDGE('',*,*,#1357,.T.);
#1072=ORIENTED_EDGE('',*,*,#1358,.F.);
#1073=ORIENTED_EDGE('',*,*,#1318,.T.);
#1074=ORIENTED_EDGE('',*,*,#1358,.T.);
#1075=ORIENTED_EDGE('',*,*,#1359,.T.);
#1076=ORIENTED_EDGE('',*,*,#1360,.T.);
#1077=ORIENTED_EDGE('',*,*,#1361,.T.);
#1078=ORIENTED_EDGE('',*,*,#1362,.T.);
#1079=ORIENTED_EDGE('',*,*,#1363,.T.);
#1080=ORIENTED_EDGE('',*,*,#1364,.T.);
#1081=ORIENTED_EDGE('',*,*,#1365,.T.);
#1082=ORIENTED_EDGE('',*,*,#1366,.T.);
#1083=ORIENTED_EDGE('',*,*,#1367,.T.);
#1084=ORIENTED_EDGE('',*,*,#1344,.T.);
#1085=ORIENTED_EDGE('',*,*,#1319,.T.);
#1086=ORIENTED_EDGE('',*,*,#1368,.F.);
#1087=ORIENTED_EDGE('',*,*,#1369,.F.);
#1088=ORIENTED_EDGE('',*,*,#1370,.T.);
#1089=ORIENTED_EDGE('',*,*,#1320,.T.);
#1090=ORIENTED_EDGE('',*,*,#1370,.F.);
#1091=ORIENTED_EDGE('',*,*,#1371,.F.);
#1092=ORIENTED_EDGE('',*,*,#1372,.F.);
#1093=ORIENTED_EDGE('',*,*,#1373,.F.);
#1094=ORIENTED_EDGE('',*,*,#1374,.F.);
#1095=ORIENTED_EDGE('',*,*,#1375,.F.);
#1096=ORIENTED_EDGE('',*,*,#1376,.F.);
#1097=ORIENTED_EDGE('',*,*,#1377,.F.);
#1098=ORIENTED_EDGE('',*,*,#1378,.F.);
#1099=ORIENTED_EDGE('',*,*,#1379,.F.);
#1100=ORIENTED_EDGE('',*,*,#1380,.F.);
#1101=ORIENTED_EDGE('',*,*,#1321,.T.);
#1102=ORIENTED_EDGE('',*,*,#1380,.T.);
#1103=ORIENTED_EDGE('',*,*,#1381,.T.);
#1104=ORIENTED_EDGE('',*,*,#1382,.F.);
#1105=ORIENTED_EDGE('',*,*,#1322,.T.);
#1106=ORIENTED_EDGE('',*,*,#1382,.T.);
#1107=ORIENTED_EDGE('',*,*,#1383,.T.);
#1108=ORIENTED_EDGE('',*,*,#1384,.T.);
#1109=ORIENTED_EDGE('',*,*,#1385,.T.);
#1110=ORIENTED_EDGE('',*,*,#1386,.T.);
#1111=ORIENTED_EDGE('',*,*,#1387,.T.);
#1112=ORIENTED_EDGE('',*,*,#1388,.T.);
#1113=ORIENTED_EDGE('',*,*,#1389,.T.);
#1114=ORIENTED_EDGE('',*,*,#1390,.T.);
#1115=ORIENTED_EDGE('',*,*,#1391,.T.);
#1116=ORIENTED_EDGE('',*,*,#1368,.T.);
#1117=ORIENTED_EDGE('',*,*,#1323,.F.);
#1118=ORIENTED_EDGE('',*,*,#1392,.F.);
#1119=ORIENTED_EDGE('',*,*,#1393,.F.);
#1120=ORIENTED_EDGE('',*,*,#1394,.T.);
#1121=ORIENTED_EDGE('',*,*,#1324,.F.);
#1122=ORIENTED_EDGE('',*,*,#1394,.F.);
#1123=ORIENTED_EDGE('',*,*,#1395,.F.);
#1124=ORIENTED_EDGE('',*,*,#1396,.F.);
#1125=ORIENTED_EDGE('',*,*,#1397,.F.);
#1126=ORIENTED_EDGE('',*,*,#1398,.F.);
#1127=ORIENTED_EDGE('',*,*,#1399,.F.);
#1128=ORIENTED_EDGE('',*,*,#1400,.F.);
#1129=ORIENTED_EDGE('',*,*,#1401,.F.);
#1130=ORIENTED_EDGE('',*,*,#1402,.F.);
#1131=ORIENTED_EDGE('',*,*,#1403,.F.);
#1132=ORIENTED_EDGE('',*,*,#1404,.F.);
#1133=ORIENTED_EDGE('',*,*,#1325,.F.);
#1134=ORIENTED_EDGE('',*,*,#1404,.T.);
#1135=ORIENTED_EDGE('',*,*,#1405,.T.);
#1136=ORIENTED_EDGE('',*,*,#1406,.F.);
#1137=ORIENTED_EDGE('',*,*,#1326,.F.);
#1138=ORIENTED_EDGE('',*,*,#1406,.T.);
#1139=ORIENTED_EDGE('',*,*,#1407,.T.);
#1140=ORIENTED_EDGE('',*,*,#1408,.T.);
#1141=ORIENTED_EDGE('',*,*,#1409,.T.);
#1142=ORIENTED_EDGE('',*,*,#1410,.T.);
#1143=ORIENTED_EDGE('',*,*,#1411,.T.);
#1144=ORIENTED_EDGE('',*,*,#1412,.T.);
#1145=ORIENTED_EDGE('',*,*,#1413,.T.);
#1146=ORIENTED_EDGE('',*,*,#1414,.T.);
#1147=ORIENTED_EDGE('',*,*,#1415,.T.);
#1148=ORIENTED_EDGE('',*,*,#1392,.T.);
#1149=ORIENTED_EDGE('',*,*,#1416,.T.);
#1150=ORIENTED_EDGE('',*,*,#1417,.T.);
#1151=ORIENTED_EDGE('',*,*,#1418,.F.);
#1152=ORIENTED_EDGE('',*,*,#1419,.F.);
#1153=ORIENTED_EDGE('',*,*,#1347,.T.);
#1154=ORIENTED_EDGE('',*,*,#1345,.T.);
#1155=ORIENTED_EDGE('',*,*,#1367,.F.);
#1156=ORIENTED_EDGE('',*,*,#1420,.F.);
#1157=ORIENTED_EDGE('',*,*,#1348,.T.);
#1158=ORIENTED_EDGE('',*,*,#1420,.T.);
#1159=ORIENTED_EDGE('',*,*,#1366,.F.);
#1160=ORIENTED_EDGE('',*,*,#1421,.F.);
#1161=ORIENTED_EDGE('',*,*,#1349,.T.);
#1162=ORIENTED_EDGE('',*,*,#1421,.T.);
#1163=ORIENTED_EDGE('',*,*,#1365,.F.);
#1164=ORIENTED_EDGE('',*,*,#1422,.F.);
#1165=ORIENTED_EDGE('',*,*,#1350,.T.);
#1166=ORIENTED_EDGE('',*,*,#1422,.T.);
#1167=ORIENTED_EDGE('',*,*,#1364,.F.);
#1168=ORIENTED_EDGE('',*,*,#1423,.F.);
#1169=ORIENTED_EDGE('',*,*,#1351,.T.);
#1170=ORIENTED_EDGE('',*,*,#1423,.T.);
#1171=ORIENTED_EDGE('',*,*,#1363,.F.);
#1172=ORIENTED_EDGE('',*,*,#1424,.F.);
#1173=ORIENTED_EDGE('',*,*,#1352,.T.);
#1174=ORIENTED_EDGE('',*,*,#1424,.T.);
#1175=ORIENTED_EDGE('',*,*,#1362,.F.);
#1176=ORIENTED_EDGE('',*,*,#1425,.F.);
#1177=ORIENTED_EDGE('',*,*,#1353,.T.);
#1178=ORIENTED_EDGE('',*,*,#1425,.T.);
#1179=ORIENTED_EDGE('',*,*,#1361,.F.);
#1180=ORIENTED_EDGE('',*,*,#1426,.F.);
#1181=ORIENTED_EDGE('',*,*,#1354,.T.);
#1182=ORIENTED_EDGE('',*,*,#1426,.T.);
#1183=ORIENTED_EDGE('',*,*,#1360,.F.);
#1184=ORIENTED_EDGE('',*,*,#1427,.F.);
#1185=ORIENTED_EDGE('',*,*,#1355,.T.);
#1186=ORIENTED_EDGE('',*,*,#1427,.T.);
#1187=ORIENTED_EDGE('',*,*,#1359,.F.);
#1188=ORIENTED_EDGE('',*,*,#1357,.F.);
#1189=ORIENTED_EDGE('',*,*,#1371,.T.);
#1190=ORIENTED_EDGE('',*,*,#1369,.T.);
#1191=ORIENTED_EDGE('',*,*,#1391,.F.);
#1192=ORIENTED_EDGE('',*,*,#1428,.F.);
#1193=ORIENTED_EDGE('',*,*,#1372,.T.);
#1194=ORIENTED_EDGE('',*,*,#1428,.T.);
#1195=ORIENTED_EDGE('',*,*,#1390,.F.);
#1196=ORIENTED_EDGE('',*,*,#1429,.F.);
#1197=ORIENTED_EDGE('',*,*,#1373,.T.);
#1198=ORIENTED_EDGE('',*,*,#1429,.T.);
#1199=ORIENTED_EDGE('',*,*,#1389,.F.);
#1200=ORIENTED_EDGE('',*,*,#1430,.F.);
#1201=ORIENTED_EDGE('',*,*,#1374,.T.);
#1202=ORIENTED_EDGE('',*,*,#1430,.T.);
#1203=ORIENTED_EDGE('',*,*,#1388,.F.);
#1204=ORIENTED_EDGE('',*,*,#1431,.F.);
#1205=ORIENTED_EDGE('',*,*,#1375,.T.);
#1206=ORIENTED_EDGE('',*,*,#1431,.T.);
#1207=ORIENTED_EDGE('',*,*,#1387,.F.);
#1208=ORIENTED_EDGE('',*,*,#1432,.F.);
#1209=ORIENTED_EDGE('',*,*,#1376,.T.);
#1210=ORIENTED_EDGE('',*,*,#1432,.T.);
#1211=ORIENTED_EDGE('',*,*,#1386,.F.);
#1212=ORIENTED_EDGE('',*,*,#1433,.F.);
#1213=ORIENTED_EDGE('',*,*,#1377,.T.);
#1214=ORIENTED_EDGE('',*,*,#1433,.T.);
#1215=ORIENTED_EDGE('',*,*,#1385,.F.);
#1216=ORIENTED_EDGE('',*,*,#1434,.F.);
#1217=ORIENTED_EDGE('',*,*,#1378,.T.);
#1218=ORIENTED_EDGE('',*,*,#1434,.T.);
#1219=ORIENTED_EDGE('',*,*,#1384,.F.);
#1220=ORIENTED_EDGE('',*,*,#1435,.F.);
#1221=ORIENTED_EDGE('',*,*,#1379,.T.);
#1222=ORIENTED_EDGE('',*,*,#1435,.T.);
#1223=ORIENTED_EDGE('',*,*,#1383,.F.);
#1224=ORIENTED_EDGE('',*,*,#1381,.F.);
#1225=ORIENTED_EDGE('',*,*,#1395,.T.);
#1226=ORIENTED_EDGE('',*,*,#1393,.T.);
#1227=ORIENTED_EDGE('',*,*,#1415,.F.);
#1228=ORIENTED_EDGE('',*,*,#1436,.F.);
#1229=ORIENTED_EDGE('',*,*,#1396,.T.);
#1230=ORIENTED_EDGE('',*,*,#1436,.T.);
#1231=ORIENTED_EDGE('',*,*,#1414,.F.);
#1232=ORIENTED_EDGE('',*,*,#1437,.F.);
#1233=ORIENTED_EDGE('',*,*,#1397,.T.);
#1234=ORIENTED_EDGE('',*,*,#1437,.T.);
#1235=ORIENTED_EDGE('',*,*,#1413,.F.);
#1236=ORIENTED_EDGE('',*,*,#1438,.F.);
#1237=ORIENTED_EDGE('',*,*,#1398,.T.);
#1238=ORIENTED_EDGE('',*,*,#1438,.T.);
#1239=ORIENTED_EDGE('',*,*,#1412,.F.);
#1240=ORIENTED_EDGE('',*,*,#1439,.F.);
#1241=ORIENTED_EDGE('',*,*,#1399,.T.);
#1242=ORIENTED_EDGE('',*,*,#1439,.T.);
#1243=ORIENTED_EDGE('',*,*,#1411,.F.);
#1244=ORIENTED_EDGE('',*,*,#1440,.F.);
#1245=ORIENTED_EDGE('',*,*,#1400,.T.);
#1246=ORIENTED_EDGE('',*,*,#1440,.T.);
#1247=ORIENTED_EDGE('',*,*,#1410,.F.);
#1248=ORIENTED_EDGE('',*,*,#1441,.F.);
#1249=ORIENTED_EDGE('',*,*,#1401,.T.);
#1250=ORIENTED_EDGE('',*,*,#1441,.T.);
#1251=ORIENTED_EDGE('',*,*,#1409,.F.);
#1252=ORIENTED_EDGE('',*,*,#1442,.F.);
#1253=ORIENTED_EDGE('',*,*,#1402,.T.);
#1254=ORIENTED_EDGE('',*,*,#1442,.T.);
#1255=ORIENTED_EDGE('',*,*,#1408,.F.);
#1256=ORIENTED_EDGE('',*,*,#1443,.F.);
#1257=ORIENTED_EDGE('',*,*,#1403,.T.);
#1258=ORIENTED_EDGE('',*,*,#1443,.T.);
#1259=ORIENTED_EDGE('',*,*,#1407,.F.);
#1260=ORIENTED_EDGE('',*,*,#1405,.F.);
#1261=ORIENTED_EDGE('',*,*,#1444,.T.);
#1262=ORIENTED_EDGE('',*,*,#1419,.T.);
#1263=ORIENTED_EDGE('',*,*,#1445,.T.);
#1264=ORIENTED_EDGE('',*,*,#1339,.F.);
#1265=ORIENTED_EDGE('',*,*,#1446,.T.);
#1266=ORIENTED_EDGE('',*,*,#1343,.T.);
#1267=ORIENTED_EDGE('',*,*,#1447,.T.);
#1268=ORIENTED_EDGE('',*,*,#1417,.F.);
#1269=ORIENTED_EDGE('',*,*,#1340,.T.);
#1270=ORIENTED_EDGE('',*,*,#1448,.T.);
#1271=ORIENTED_EDGE('',*,*,#1330,.F.);
#1272=ORIENTED_EDGE('',*,*,#1307,.T.);
#1273=ORIENTED_EDGE('',*,*,#1445,.F.);
#1274=ORIENTED_EDGE('',*,*,#1449,.T.);
#1275=ORIENTED_EDGE('',*,*,#1448,.F.);
#1276=ORIENTED_EDGE('',*,*,#1418,.T.);
#1277=ORIENTED_EDGE('',*,*,#1450,.T.);
#1278=ORIENTED_EDGE('',*,*,#1331,.F.);
#1279=ORIENTED_EDGE('',*,*,#1449,.F.);
#1280=ORIENTED_EDGE('',*,*,#1447,.F.);
#1281=ORIENTED_EDGE('',*,*,#1451,.T.);
#1282=ORIENTED_EDGE('',*,*,#1450,.F.);
#1283=ORIENTED_EDGE('',*,*,#1342,.T.);
#1284=ORIENTED_EDGE('',*,*,#1311,.T.);
#1285=ORIENTED_EDGE('',*,*,#1332,.F.);
#1286=ORIENTED_EDGE('',*,*,#1451,.F.);
#1287=ORIENTED_EDGE('',*,*,#1338,.F.);
#1288=ORIENTED_EDGE('',*,*,#1305,.T.);
#1289=ORIENTED_EDGE('',*,*,#1335,.T.);
#1290=ORIENTED_EDGE('',*,*,#1452,.T.);
#1291=ORIENTED_EDGE('',*,*,#1452,.F.);
#1292=ORIENTED_EDGE('',*,*,#1453,.T.);
#1293=ORIENTED_EDGE('',*,*,#1444,.F.);
#1294=ORIENTED_EDGE('',*,*,#1416,.F.);
#1295=ORIENTED_EDGE('',*,*,#1453,.F.);
#1296=ORIENTED_EDGE('',*,*,#1337,.T.);
#1297=ORIENTED_EDGE('',*,*,#1454,.T.);
#1298=ORIENTED_EDGE('',*,*,#1454,.F.);
#1299=ORIENTED_EDGE('',*,*,#1455,.T.);
#1300=ORIENTED_EDGE('',*,*,#1446,.F.);
#1301=ORIENTED_EDGE('',*,*,#1341,.F.);
#1302=ORIENTED_EDGE('',*,*,#1455,.F.);
#1303=ORIENTED_EDGE('',*,*,#1336,.T.);
#1304=ORIENTED_EDGE('',*,*,#1313,.T.);
#1305=EDGE_CURVE('',#1456,#1457,#1458,.F.);
#1306=EDGE_CURVE('',#1456,#1459,#1460,.T.);
#1307=EDGE_CURVE('',#1461,#1459,#1462,.F.);
#1308=EDGE_CURVE('',#1463,#1461,#1464,.T.);
#1309=EDGE_CURVE('',#1465,#1463,#1466,.T.);
#1310=EDGE_CURVE('',#1467,#1465,#1468,.T.);
#1311=EDGE_CURVE('',#1469,#1467,#1470,.F.);
#1312=EDGE_CURVE('',#1471,#1469,#1472,.T.);
#1313=EDGE_CURVE('',#1473,#1471,#1474,.F.);
#1314=EDGE_CURVE('',#1473,#1457,#1475,.T.);
#1315=EDGE_CURVE('',#1476,#1477,#1478,.T.);
#1316=EDGE_CURVE('',#1479,#1476,#1480,.F.);
#1317=EDGE_CURVE('',#1481,#1479,#1482,.T.);
#1318=EDGE_CURVE('',#1477,#1481,#1483,.T.);
#1319=EDGE_CURVE('',#1484,#1485,#1486,.T.);
#1320=EDGE_CURVE('',#1487,#1484,#1488,.F.);
#1321=EDGE_CURVE('',#1489,#1487,#1490,.T.);
#1322=EDGE_CURVE('',#1485,#1489,#1491,.T.);
#1323=EDGE_CURVE('',#1492,#1493,#1494,.T.);
#1324=EDGE_CURVE('',#1493,#1495,#1496,.F.);
#1325=EDGE_CURVE('',#1495,#1497,#1498,.T.);
#1326=EDGE_CURVE('',#1497,#1492,#1499,.T.);
#1327=EDGE_CURVE('',#1500,#1501,#1502,.F.);
#1328=EDGE_CURVE('',#1503,#1501,#1504,.T.);
#1329=EDGE_CURVE('',#1500,#1503,#1505,.F.);
#1330=EDGE_CURVE('',#1461,#1506,#1507,.T.);
#1331=EDGE_CURVE('',#1506,#1508,#1509,.T.);
#1332=EDGE_CURVE('',#1508,#1467,#1510,.T.);
#1333=EDGE_CURVE('',#1501,#1465,#1511,.F.);
#1334=EDGE_CURVE('',#1463,#1500,#1512,.T.);
#1335=EDGE_CURVE('',#1457,#1513,#1514,.T.);
#1336=EDGE_CURVE('',#1515,#1473,#1516,.T.);
#1337=EDGE_CURVE('',#1513,#1515,#1517,.T.);
#1338=EDGE_CURVE('',#1456,#1518,#1519,.T.);
#1339=EDGE_CURVE('',#1518,#1520,#1521,.T.);
#1340=EDGE_CURVE('',#1459,#1520,#1522,.T.);
#1341=EDGE_CURVE('',#1523,#1471,#1524,.T.);
#1342=EDGE_CURVE('',#1525,#1469,#1526,.T.);
#1343=EDGE_CURVE('',#1523,#1525,#1527,.T.);
#1344=EDGE_CURVE('',#1528,#1477,#1529,.T.);
#1345=EDGE_CURVE('',#1530,#1528,#1531,.T.);
#1346=EDGE_CURVE('',#1530,#1476,#1532,.T.);
#1347=EDGE_CURVE('',#1533,#1530,#1534,.T.);
#1348=EDGE_CURVE('',#1535,#1533,#1536,.T.);
#1349=EDGE_CURVE('',#1537,#1535,#1538,.T.);
#1350=EDGE_CURVE('',#1539,#1537,#1540,.T.);
#1351=EDGE_CURVE('',#1541,#1539,#1542,.T.);
#1352=EDGE_CURVE('',#1543,#1541,#1544,.T.);
#1353=EDGE_CURVE('',#1545,#1543,#1546,.T.);
#1354=EDGE_CURVE('',#1547,#1545,#1548,.T.);
#1355=EDGE_CURVE('',#1549,#1547,#1550,.T.);
#1356=EDGE_CURVE('',#1479,#1549,#1551,.T.);
#1357=EDGE_CURVE('',#1549,#1552,#1553,.T.);
#1358=EDGE_CURVE('',#1481,#1552,#1554,.T.);
#1359=EDGE_CURVE('',#1552,#1555,#1556,.T.);
#1360=EDGE_CURVE('',#1555,#1557,#1558,.T.);
#1361=EDGE_CURVE('',#1557,#1559,#1560,.T.);
#1362=EDGE_CURVE('',#1559,#1561,#1562,.T.);
#1363=EDGE_CURVE('',#1561,#1563,#1564,.T.);
#1364=EDGE_CURVE('',#1563,#1565,#1566,.T.);
#1365=EDGE_CURVE('',#1565,#1567,#1568,.T.);
#1366=EDGE_CURVE('',#1567,#1569,#1570,.T.);
#1367=EDGE_CURVE('',#1569,#1528,#1571,.T.);
#1368=EDGE_CURVE('',#1572,#1485,#1573,.T.);
#1369=EDGE_CURVE('',#1574,#1572,#1575,.T.);
#1370=EDGE_CURVE('',#1574,#1484,#1576,.T.);
#1371=EDGE_CURVE('',#1577,#1574,#1578,.T.);
#1372=EDGE_CURVE('',#1579,#1577,#1580,.T.);
#1373=EDGE_CURVE('',#1581,#1579,#1582,.T.);
#1374=EDGE_CURVE('',#1583,#1581,#1584,.T.);
#1375=EDGE_CURVE('',#1585,#1583,#1586,.T.);
#1376=EDGE_CURVE('',#1587,#1585,#1588,.T.);
#1377=EDGE_CURVE('',#1589,#1587,#1590,.T.);
#1378=EDGE_CURVE('',#1591,#1589,#1592,.T.);
#1379=EDGE_CURVE('',#1593,#1591,#1594,.T.);
#1380=EDGE_CURVE('',#1487,#1593,#1595,.T.);
#1381=EDGE_CURVE('',#1593,#1596,#1597,.T.);
#1382=EDGE_CURVE('',#1489,#1596,#1598,.T.);
#1383=EDGE_CURVE('',#1596,#1599,#1600,.T.);
#1384=EDGE_CURVE('',#1599,#1601,#1602,.T.);
#1385=EDGE_CURVE('',#1601,#1603,#1604,.T.);
#1386=EDGE_CURVE('',#1603,#1605,#1606,.T.);
#1387=EDGE_CURVE('',#1605,#1607,#1608,.T.);
#1388=EDGE_CURVE('',#1607,#1609,#1610,.T.);
#1389=EDGE_CURVE('',#1609,#1611,#1612,.T.);
#1390=EDGE_CURVE('',#1611,#1613,#1614,.T.);
#1391=EDGE_CURVE('',#1613,#1572,#1615,.T.);
#1392=EDGE_CURVE('',#1616,#1492,#1617,.T.);
#1393=EDGE_CURVE('',#1618,#1616,#1619,.T.);
#1394=EDGE_CURVE('',#1618,#1493,#1620,.T.);
#1395=EDGE_CURVE('',#1621,#1618,#1622,.T.);
#1396=EDGE_CURVE('',#1623,#1621,#1624,.T.);
#1397=EDGE_CURVE('',#1625,#1623,#1626,.T.);
#1398=EDGE_CURVE('',#1627,#1625,#1628,.T.);
#1399=EDGE_CURVE('',#1629,#1627,#1630,.T.);
#1400=EDGE_CURVE('',#1631,#1629,#1632,.T.);
#1401=EDGE_CURVE('',#1633,#1631,#1634,.T.);
#1402=EDGE_CURVE('',#1635,#1633,#1636,.T.);
#1403=EDGE_CURVE('',#1637,#1635,#1638,.T.);
#1404=EDGE_CURVE('',#1495,#1637,#1639,.T.);
#1405=EDGE_CURVE('',#1637,#1640,#1641,.T.);
#1406=EDGE_CURVE('',#1497,#1640,#1642,.T.);
#1407=EDGE_CURVE('',#1640,#1643,#1644,.T.);
#1408=EDGE_CURVE('',#1643,#1645,#1646,.T.);
#1409=EDGE_CURVE('',#1645,#1647,#1648,.T.);
#1410=EDGE_CURVE('',#1647,#1649,#1650,.T.);
#1411=EDGE_CURVE('',#1649,#1651,#1652,.T.);
#1412=EDGE_CURVE('',#1651,#1653,#1654,.T.);
#1413=EDGE_CURVE('',#1653,#1655,#1656,.T.);
#1414=EDGE_CURVE('',#1655,#1657,#1658,.T.);
#1415=EDGE_CURVE('',#1657,#1616,#1659,.T.);
#1416=EDGE_CURVE('',#1660,#1661,#1662,.T.);
#1417=EDGE_CURVE('',#1661,#1663,#1664,.T.);
#1418=EDGE_CURVE('',#1665,#1663,#1666,.T.);
#1419=EDGE_CURVE('',#1660,#1665,#1667,.T.);
#1420=EDGE_CURVE('',#1533,#1569,#1668,.T.);
#1421=EDGE_CURVE('',#1535,#1567,#1669,.T.);
#1422=EDGE_CURVE('',#1537,#1565,#1670,.T.);
#1423=EDGE_CURVE('',#1539,#1563,#1671,.T.);
#1424=EDGE_CURVE('',#1541,#1561,#1672,.T.);
#1425=EDGE_CURVE('',#1543,#1559,#1673,.T.);
#1426=EDGE_CURVE('',#1545,#1557,#1674,.T.);
#1427=EDGE_CURVE('',#1547,#1555,#1675,.T.);
#1428=EDGE_CURVE('',#1577,#1613,#1676,.T.);
#1429=EDGE_CURVE('',#1579,#1611,#1677,.T.);
#1430=EDGE_CURVE('',#1581,#1609,#1678,.T.);
#1431=EDGE_CURVE('',#1583,#1607,#1679,.T.);
#1432=EDGE_CURVE('',#1585,#1605,#1680,.T.);
#1433=EDGE_CURVE('',#1587,#1603,#1681,.T.);
#1434=EDGE_CURVE('',#1589,#1601,#1682,.T.);
#1435=EDGE_CURVE('',#1591,#1599,#1683,.T.);
#1436=EDGE_CURVE('',#1621,#1657,#1684,.T.);
#1437=EDGE_CURVE('',#1623,#1655,#1685,.T.);
#1438=EDGE_CURVE('',#1625,#1653,#1686,.T.);
#1439=EDGE_CURVE('',#1627,#1651,#1687,.T.);
#1440=EDGE_CURVE('',#1629,#1649,#1688,.T.);
#1441=EDGE_CURVE('',#1631,#1647,#1689,.T.);
#1442=EDGE_CURVE('',#1633,#1645,#1690,.T.);
#1443=EDGE_CURVE('',#1635,#1643,#1691,.T.);
#1444=EDGE_CURVE('',#1518,#1660,#1692,.F.);
#1445=EDGE_CURVE('',#1665,#1520,#1693,.F.);
#1446=EDGE_CURVE('',#1661,#1523,#1694,.F.);
#1447=EDGE_CURVE('',#1525,#1663,#1695,.F.);
#1448=EDGE_CURVE('',#1520,#1506,#1696,.T.);
#1449=EDGE_CURVE('',#1665,#1506,#1697,.F.);
#1450=EDGE_CURVE('',#1663,#1508,#1698,.T.);
#1451=EDGE_CURVE('',#1525,#1508,#1699,.F.);
#1452=EDGE_CURVE('',#1513,#1518,#1700,.F.);
#1453=EDGE_CURVE('',#1513,#1660,#1701,.T.);
#1454=EDGE_CURVE('',#1515,#1661,#1702,.F.);
#1455=EDGE_CURVE('',#1515,#1523,#1703,.T.);
#1456=VERTEX_POINT('',#1704);
#1457=VERTEX_POINT('',#1705);
#1458=CIRCLE('',#1706,0.2);
#1459=VERTEX_POINT('',#1710);
#1460=LINE('',#1711,#1712);
#1461=VERTEX_POINT('',#1714);
#1462=CIRCLE('',#1715,0.199999999999999);
#1463=VERTEX_POINT('',#1719);
#1464=LINE('',#1720,#1721);
#1465=VERTEX_POINT('',#1723);
#1466=CIRCLE('',#1724,2.75);
#1467=VERTEX_POINT('',#1728);
#1468=LINE('',#1729,#1730);
#1469=VERTEX_POINT('',#1732);
#1470=CIRCLE('',#1733,0.2);
#1471=VERTEX_POINT('',#1737);
#1472=LINE('',#1738,#1739);
#1473=VERTEX_POINT('',#1741);
#1474=CIRCLE('',#1742,0.2);
#1475=LINE('',#1746,#1747);
#1476=VERTEX_POINT('',#1749);
#1477=VERTEX_POINT('',#1750);
#1478=LINE('',#1751,#1752);
#1479=VERTEX_POINT('',#1754);
#1480=LINE('',#1755,#1756);
#1481=VERTEX_POINT('',#1758);
#1482=LINE('',#1759,#1760);
#1483=LINE('',#1762,#1763);
#1484=VERTEX_POINT('',#1765);
#1485=VERTEX_POINT('',#1766);
#1486=LINE('',#1767,#1768);
#1487=VERTEX_POINT('',#1770);
#1488=LINE('',#1771,#1772);
#1489=VERTEX_POINT('',#1774);
#1490=LINE('',#1775,#1776);
#1491=LINE('',#1778,#1779);
#1492=VERTEX_POINT('',#1781);
#1493=VERTEX_POINT('',#1782);
#1494=LINE('',#1783,#1784);
#1495=VERTEX_POINT('',#1786);
#1496=LINE('',#1787,#1788);
#1497=VERTEX_POINT('',#1790);
#1498=LINE('',#1791,#1792);
#1499=LINE('',#1794,#1795);
#1500=VERTEX_POINT('',#1797);
#1501=VERTEX_POINT('',#1798);
#1502=CIRCLE('',#1799,2.58069758011279);
#1503=VERTEX_POINT('',#1803);
#1504=CIRCLE('',#1804,2.75);
#1505=CIRCLE('',#1808,2.75);
#1506=VERTEX_POINT('',#1812);
#1507=LINE('',#1813,#1814);
#1508=VERTEX_POINT('',#1816);
#1509=LINE('',#1817,#1818);
#1510=LINE('',#1820,#1821);
#1511=LINE('',#1823,#1824);
#1512=LINE('',#1826,#1827);
#1513=VERTEX_POINT('',#1829);
#1514=LINE('',#1830,#1831);
#1515=VERTEX_POINT('',#1833);
#1516=LINE('',#1834,#1835);
#1517=LINE('',#1837,#1838);
#1518=VERTEX_POINT('',#1840);
#1519=LINE('',#1841,#1842);
#1520=VERTEX_POINT('',#1844);
#1521=LINE('',#1845,#1846);
#1522=LINE('',#1848,#1849);
#1523=VERTEX_POINT('',#1851);
#1524=LINE('',#1852,#1853);
#1525=VERTEX_POINT('',#1855);
#1526=LINE('',#1856,#1857);
#1527=LINE('',#1859,#1860);
#1528=VERTEX_POINT('',#1862);
#1529=LINE('',#1863,#1864);
#1530=VERTEX_POINT('',#1866);
#1531=LINE('',#1867,#1868);
#1532=LINE('',#1870,#1871);
#1533=VERTEX_POINT('',#1873);
#1534=LINE('',#1874,#1875);
#1535=VERTEX_POINT('',#1877);
#1536=LINE('',#1878,#1879);
#1537=VERTEX_POINT('',#1881);
#1538=LINE('',#1882,#1883);
#1539=VERTEX_POINT('',#1885);
#1540=LINE('',#1886,#1887);
#1541=VERTEX_POINT('',#1889);
#1542=LINE('',#1890,#1891);
#1543=VERTEX_POINT('',#1893);
#1544=LINE('',#1894,#1895);
#1545=VERTEX_POINT('',#1897);
#1546=LINE('',#1898,#1899);
#1547=VERTEX_POINT('',#1901);
#1548=LINE('',#1902,#1903);
#1549=VERTEX_POINT('',#1905);
#1550=LINE('',#1906,#1907);
#1551=LINE('',#1909,#1910);
#1552=VERTEX_POINT('',#1912);
#1553=LINE('',#1913,#1914);
#1554=LINE('',#1916,#1917);
#1555=VERTEX_POINT('',#1919);
#1556=LINE('',#1920,#1921);
#1557=VERTEX_POINT('',#1923);
#1558=LINE('',#1924,#1925);
#1559=VERTEX_POINT('',#1927);
#1560=LINE('',#1928,#1929);
#1561=VERTEX_POINT('',#1931);
#1562=LINE('',#1932,#1933);
#1563=VERTEX_POINT('',#1935);
#1564=LINE('',#1936,#1937);
#1565=VERTEX_POINT('',#1939);
#1566=LINE('',#1940,#1941);
#1567=VERTEX_POINT('',#1943);
#1568=LINE('',#1944,#1945);
#1569=VERTEX_POINT('',#1947);
#1570=LINE('',#1948,#1949);
#1571=LINE('',#1951,#1952);
#1572=VERTEX_POINT('',#1954);
#1573=LINE('',#1955,#1956);
#1574=VERTEX_POINT('',#1958);
#1575=LINE('',#1959,#1960);
#1576=LINE('',#1962,#1963);
#1577=VERTEX_POINT('',#1965);
#1578=LINE('',#1966,#1967);
#1579=VERTEX_POINT('',#1969);
#1580=LINE('',#1970,#1971);
#1581=VERTEX_POINT('',#1973);
#1582=LINE('',#1974,#1975);
#1583=VERTEX_POINT('',#1977);
#1584=LINE('',#1978,#1979);
#1585=VERTEX_POINT('',#1981);
#1586=LINE('',#1982,#1983);
#1587=VERTEX_POINT('',#1985);
#1588=LINE('',#1986,#1987);
#1589=VERTEX_POINT('',#1989);
#1590=LINE('',#1990,#1991);
#1591=VERTEX_POINT('',#1993);
#1592=LINE('',#1994,#1995);
#1593=VERTEX_POINT('',#1997);
#1594=LINE('',#1998,#1999);
#1595=LINE('',#2001,#2002);
#1596=VERTEX_POINT('',#2004);
#1597=LINE('',#2005,#2006);
#1598=LINE('',#2008,#2009);
#1599=VERTEX_POINT('',#2011);
#1600=LINE('',#2012,#2013);
#1601=VERTEX_POINT('',#2015);
#1602=LINE('',#2016,#2017);
#1603=VERTEX_POINT('',#2019);
#1604=LINE('',#2020,#2021);
#1605=VERTEX_POINT('',#2023);
#1606=LINE('',#2024,#2025);
#1607=VERTEX_POINT('',#2027);
#1608=LINE('',#2028,#2029);
#1609=VERTEX_POINT('',#2031);
#1610=LINE('',#2032,#2033);
#1611=VERTEX_POINT('',#2035);
#1612=LINE('',#2036,#2037);
#1613=VERTEX_POINT('',#2039);
#1614=LINE('',#2040,#2041);
#1615=LINE('',#2043,#2044);
#1616=VERTEX_POINT('',#2046);
#1617=LINE('',#2047,#2048);
#1618=VERTEX_POINT('',#2050);
#1619=LINE('',#2051,#2052);
#1620=LINE('',#2054,#2055);
#1621=VERTEX_POINT('',#2057);
#1622=LINE('',#2058,#2059);
#1623=VERTEX_POINT('',#2061);
#1624=LINE('',#2062,#2063);
#1625=VERTEX_POINT('',#2065);
#1626=LINE('',#2066,#2067);
#1627=VERTEX_POINT('',#2069);
#1628=LINE('',#2070,#2071);
#1629=VERTEX_POINT('',#2073);
#1630=LINE('',#2074,#2075);
#1631=VERTEX_POINT('',#2077);
#1632=LINE('',#2078,#2079);
#1633=VERTEX_POINT('',#2081);
#1634=LINE('',#2082,#2083);
#1635=VERTEX_POINT('',#2085);
#1636=LINE('',#2086,#2087);
#1637=VERTEX_POINT('',#2089);
#1638=LINE('',#2090,#2091);
#1639=LINE('',#2093,#2094);
#1640=VERTEX_POINT('',#2096);
#1641=LINE('',#2097,#2098);
#1642=LINE('',#2100,#2101);
#1643=VERTEX_POINT('',#2103);
#1644=LINE('',#2104,#2105);
#1645=VERTEX_POINT('',#2107);
#1646=LINE('',#2108,#2109);
#1647=VERTEX_POINT('',#2111);
#1648=LINE('',#2112,#2113);
#1649=VERTEX_POINT('',#2115);
#1650=LINE('',#2116,#2117);
#1651=VERTEX_POINT('',#2119);
#1652=LINE('',#2120,#2121);
#1653=VERTEX_POINT('',#2123);
#1654=LINE('',#2124,#2125);
#1655=VERTEX_POINT('',#2127);
#1656=LINE('',#2128,#2129);
#1657=VERTEX_POINT('',#2131);
#1658=LINE('',#2132,#2133);
#1659=LINE('',#2135,#2136);
#1660=VERTEX_POINT('',#2138);
#1661=VERTEX_POINT('',#2139);
#1662=LINE('',#2140,#2141);
#1663=VERTEX_POINT('',#2143);
#1664=LINE('',#2144,#2145);
#1665=VERTEX_POINT('',#2147);
#1666=LINE('',#2148,#2149);
#1667=LINE('',#2151,#2152);
#1668=LINE('',#2154,#2155);
#1669=LINE('',#2157,#2158);
#1670=LINE('',#2160,#2161);
#1671=LINE('',#2163,#2164);
#1672=LINE('',#2166,#2167);
#1673=LINE('',#2169,#2170);
#1674=LINE('',#2172,#2173);
#1675=LINE('',#2175,#2176);
#1676=LINE('',#2178,#2179);
#1677=LINE('',#2181,#2182);
#1678=LINE('',#2184,#2185);
#1679=LINE('',#2187,#2188);
#1680=LINE('',#2190,#2191);
#1681=LINE('',#2193,#2194);
#1682=LINE('',#2196,#2197);
#1683=LINE('',#2199,#2200);
#1684=LINE('',#2202,#2203);
#1685=LINE('',#2205,#2206);
#1686=LINE('',#2208,#2209);
#1687=LINE('',#2211,#2212);
#1688=LINE('',#2214,#2215);
#1689=LINE('',#2217,#2218);
#1690=LINE('',#2220,#2221);
#1691=LINE('',#2223,#2224);
#1692=CIRCLE('',#2226,0.2);
#1693=CIRCLE('',#2230,0.2);
#1694=CIRCLE('',#2234,0.2);
#1695=CIRCLE('',#2238,0.2);
#1696=CIRCLE('',#2242,0.2);
#1697=CIRCLE('',#2246,0.2);
#1698=CIRCLE('',#2250,0.2);
#1699=CIRCLE('',#2254,0.2);
#1700=CIRCLE('',#2258,0.2);
#1701=CIRCLE('',#2262,0.2);
#1702=CIRCLE('',#2266,0.2);
#1703=CIRCLE('',#2270,0.2);
#1704=CARTESIAN_POINT('',(5.,6.66666666666667E-301,-1.2));
#1705=CARTESIAN_POINT('',(4.8,4.9E-301,-1.4));
#1706=AXIS2_PLACEMENT_3D('',#1707,#1708,#1709);
#1707=CARTESIAN_POINT('',(4.8,9.8E-301,-1.2));
#1708=DIRECTION('',(1.E-301,-1.,0.));
#1709=DIRECTION('',(-8.88178419700124E-015,-8.88178427179135E-316,-1.));
#1710=CARTESIAN_POINT('',(5.,6.66666666666667E-301,2.4));
#1711=CARTESIAN_POINT('',(5.,1.E-300,-1.2));
#1712=VECTOR('',#1713,1.);
#1713=DIRECTION('',(0.,0.,1.));
#1714=CARTESIAN_POINT('',(4.8,4.9E-301,2.6));
#1715=AXIS2_PLACEMENT_3D('',#1716,#1717,#1718);
#1716=CARTESIAN_POINT('',(4.8,9.8E-301,2.4));
#1717=DIRECTION('',(1.E-301,-1.,0.));
#1718=DIRECTION('',(1.,1.E-301,0.));
#1719=CARTESIAN_POINT('',(2.58069758011279,3.79034879005639E-301,2.6));
#1720=CARTESIAN_POINT('',(2.58069758011279,7.58069758011279E-301,2.6));
#1721=VECTOR('',#1722,1.);
#1722=DIRECTION('',(1.,1.E-301,0.));
#1723=CARTESIAN_POINT('',(-2.58069758011279,1.20965120994361E-301,2.6));
#1724=AXIS2_PLACEMENT_3D('',#1725,#1726,#1727);
#1725=CARTESIAN_POINT('',(0.,5.E-301,1.65));
#1726=DIRECTION('',(-1.E-301,1.,0.));
#1727=DIRECTION('',(-0.938435483677377,-9.38435483677377E-302,0.345454545454546));
#1728=CARTESIAN_POINT('',(-4.8,9.25185853854297E-017,2.6));
#1729=CARTESIAN_POINT('',(-4.8,2.E-302,2.6));
#1730=VECTOR('',#1731,1.);
#1731=DIRECTION('',(1.,1.E-301,0.));
#1732=CARTESIAN_POINT('',(-5.,0.,2.4));
#1733=AXIS2_PLACEMENT_3D('',#1734,#1735,#1736);
#1734=CARTESIAN_POINT('',(-4.8,2.E-302,2.4));
#1735=DIRECTION('',(1.E-301,-1.,0.));
#1736=DIRECTION('',(0.,0.,1.));
#1737=CARTESIAN_POINT('',(-5.,0.,-1.2));
#1738=CARTESIAN_POINT('',(-5.,0.,-1.2));
#1739=VECTOR('',#1740,1.);
#1740=DIRECTION('',(0.,0.,1.));
#1741=CARTESIAN_POINT('',(-4.8,9.25185853854297E-017,-1.4));
#1742=AXIS2_PLACEMENT_3D('',#1743,#1744,#1745);
#1743=CARTESIAN_POINT('',(-4.8,2.E-302,-1.2));
#1744=DIRECTION('',(1.E-301,-1.,0.));
#1745=DIRECTION('',(-1.,-1.E-301,-1.11022302462516E-015));
#1746=CARTESIAN_POINT('',(-4.8,2.E-302,-1.4));
#1747=VECTOR('',#1748,1.);
#1748=DIRECTION('',(1.,1.E-301,0.));
#1749=CARTESIAN_POINT('',(-1.02,4.44089209850063E-016,8.80337495614722E-016));
#1750=CARTESIAN_POINT('',(-1.02,4.44089209850063E-016,0.400000000000001));
#1751=CARTESIAN_POINT('',(-1.02,3.98E-301,8.88178419700125E-016));
#1752=VECTOR('',#1753,1.);
#1753=DIRECTION('',(0.,0.,1.));
#1754=CARTESIAN_POINT('',(-1.52,4.44089209850063E-016,8.80337495614722E-016));
#1755=CARTESIAN_POINT('',(-1.02,3.98E-301,8.88178419700125E-016));
#1756=VECTOR('',#1757,1.);
#1757=DIRECTION('',(-1.,-1.E-301,0.));
#1758=CARTESIAN_POINT('',(-1.52,4.44089209850063E-016,0.400000000000001));
#1759=CARTESIAN_POINT('',(-1.52,3.48E-301,0.400000000000001));
#1760=VECTOR('',#1761,1.);
#1761=DIRECTION('',(0.,0.,-1.));
#1762=CARTESIAN_POINT('',(-1.02,3.98E-301,0.400000000000001));
#1763=VECTOR('',#1764,1.);
#1764=DIRECTION('',(-1.,-1.E-301,0.));
#1765=CARTESIAN_POINT('',(4.06,6.66133814775094E-016,1.49049544017645E-015));
#1766=CARTESIAN_POINT('',(4.06,6.66133814775094E-016,0.400000000000002));
#1767=CARTESIAN_POINT('',(4.06,9.06E-301,1.33226762955019E-015));
#1768=VECTOR('',#1769,1.);
#1769=DIRECTION('',(0.,0.,1.));
#1770=CARTESIAN_POINT('',(3.56,6.66133814775094E-016,1.49049544017645E-015));
#1771=CARTESIAN_POINT('',(4.06,9.06E-301,1.55431223447522E-015));
#1772=VECTOR('',#1773,1.);
#1773=DIRECTION('',(-1.,-1.E-301,0.));
#1774=CARTESIAN_POINT('',(3.56,6.66133814775094E-016,0.400000000000002));
#1775=CARTESIAN_POINT('',(3.56,8.56E-301,0.400000000000001));
#1776=VECTOR('',#1777,1.);
#1777=DIRECTION('',(0.,0.,-1.));
#1778=CARTESIAN_POINT('',(4.06,9.06E-301,0.400000000000001));
#1779=VECTOR('',#1780,1.);
#1780=DIRECTION('',(-1.,-1.E-301,4.44089209850063E-016));
#1781=CARTESIAN_POINT('',(-3.56,0.,0.4));
#1782=CARTESIAN_POINT('',(-3.56,0.,0.));
#1783=CARTESIAN_POINT('',(-3.56,0.,0.4));
#1784=VECTOR('',#1785,1.);
#1785=DIRECTION('',(0.,0.,-1.));
#1786=CARTESIAN_POINT('',(-4.06,0.,0.));
#1787=CARTESIAN_POINT('',(-4.06,9.39999999999999E-302,0.));
#1788=VECTOR('',#1789,1.);
#1789=DIRECTION('',(1.,1.E-301,0.));
#1790=CARTESIAN_POINT('',(-4.06,0.,0.4));
#1791=CARTESIAN_POINT('',(-4.06,9.39999999999999E-302,0.));
#1792=VECTOR('',#1793,1.);
#1793=DIRECTION('',(0.,0.,1.));
#1794=CARTESIAN_POINT('',(-4.06,9.39999999999999E-302,0.4));
#1795=VECTOR('',#1796,1.);
#1796=DIRECTION('',(1.,1.E-301,0.));
#1797=CARTESIAN_POINT('',(2.58069758011279,9.2,2.6));
#1798=CARTESIAN_POINT('',(-2.58069758011279,9.2,2.6));
#1799=AXIS2_PLACEMENT_3D('',#1800,#1801,#1802);
#1800=CARTESIAN_POINT('',(0.,9.2,2.6));
#1801=DIRECTION('',(0.,0.,-1.));
#1802=DIRECTION('',(-1.,0.,0.));
#1803=CARTESIAN_POINT('',(1.52655665885959E-016,9.2,4.4));
#1804=AXIS2_PLACEMENT_3D('',#1805,#1806,#1807);
#1805=CARTESIAN_POINT('',(0.,9.2,1.65));
#1806=DIRECTION('',(0.,-1.,0.));
#1807=DIRECTION('',(-6.12323399573677E-017,0.,1.));
#1808=AXIS2_PLACEMENT_3D('',#1809,#1810,#1811);
#1809=CARTESIAN_POINT('',(0.,9.2,1.65));
#1810=DIRECTION('',(-1.22464679914735E-016,1.,0.));
#1811=DIRECTION('',(6.12323399573677E-017,7.49879891330929E-033,1.));
#1812=CARTESIAN_POINT('',(4.8,12.3,2.6));
#1813=CARTESIAN_POINT('',(4.8,0.,2.6));
#1814=VECTOR('',#1815,1.);
#1815=DIRECTION('',(7.22096276178964E-017,1.,0.));
#1816=CARTESIAN_POINT('',(-4.8,12.3,2.6));
#1817=CARTESIAN_POINT('',(4.8,12.3,2.6));
#1818=VECTOR('',#1819,1.);
#1819=DIRECTION('',(-1.,1.85037170770859E-016,0.));
#1820=CARTESIAN_POINT('',(-4.8,12.3,2.6));
#1821=VECTOR('',#1822,1.);
#1822=DIRECTION('',(-7.22096276178964E-017,-1.,0.));
#1823=CARTESIAN_POINT('',(-2.58069758011279,0.,2.6));
#1824=VECTOR('',#1825,1.);
#1825=DIRECTION('',(0.,1.,0.));
#1826=CARTESIAN_POINT('',(2.58069758011279,0.,2.6));
#1827=VECTOR('',#1828,1.);
#1828=DIRECTION('',(0.,1.,0.));
#1829=CARTESIAN_POINT('',(4.8,12.3,-1.4));
#1830=CARTESIAN_POINT('',(4.8,0.,-1.4));
#1831=VECTOR('',#1832,1.);
#1832=DIRECTION('',(0.,1.,0.));
#1833=CARTESIAN_POINT('',(-4.8,12.3,-1.4));
#1834=CARTESIAN_POINT('',(-4.8,12.3,-1.4));
#1835=VECTOR('',#1836,1.);
#1836=DIRECTION('',(-7.22096276178964E-017,-1.,0.));
#1837=CARTESIAN_POINT('',(4.8,12.3,-1.4));
#1838=VECTOR('',#1839,1.);
#1839=DIRECTION('',(-1.,1.85037170770859E-016,0.));
#1840=CARTESIAN_POINT('',(5.,12.3,-1.2));
#1841=CARTESIAN_POINT('',(5.,1.E-300,-1.2));
#1842=VECTOR('',#1843,1.);
#1843=DIRECTION('',(0.,1.,0.));
#1844=CARTESIAN_POINT('',(5.,12.3,2.4));
#1845=CARTESIAN_POINT('',(5.,12.3,-1.2));
#1846=VECTOR('',#1847,1.);
#1847=DIRECTION('',(0.,4.93432455388958E-016,1.));
#1848=CARTESIAN_POINT('',(5.,1.E-300,2.4));
#1849=VECTOR('',#1850,1.);
#1850=DIRECTION('',(0.,1.,3.61048138089482E-017));
#1851=CARTESIAN_POINT('',(-5.,12.3,-1.2));
#1852=CARTESIAN_POINT('',(-5.,12.3,-1.2));
#1853=VECTOR('',#1854,1.);
#1854=DIRECTION('',(0.,-1.,0.));
#1855=CARTESIAN_POINT('',(-5.,12.3,2.4));
#1856=CARTESIAN_POINT('',(-5.,12.3,2.4));
#1857=VECTOR('',#1858,1.);
#1858=DIRECTION('',(0.,-1.,3.61048138089482E-017));
#1859=CARTESIAN_POINT('',(-5.,12.3,-1.2));
#1860=VECTOR('',#1861,1.);
#1861=DIRECTION('',(0.,0.,1.));
#1862=CARTESIAN_POINT('',(-1.02,-1.,0.400000000000001));
#1863=CARTESIAN_POINT('',(-1.02,-1.,0.400000000000001));
#1864=VECTOR('',#1865,1.);
#1865=DIRECTION('',(0.,1.,0.));
#1866=CARTESIAN_POINT('',(-1.02,-1.,8.80337495614722E-016));
#1867=CARTESIAN_POINT('',(-1.02,-1.,8.80337495614722E-016));
#1868=VECTOR('',#1869,1.);
#1869=DIRECTION('',(0.,0.,1.));
#1870=CARTESIAN_POINT('',(-1.02,-1.,8.80337495614722E-016));
#1871=VECTOR('',#1872,1.);
#1872=DIRECTION('',(0.,1.,0.));
#1873=CARTESIAN_POINT('',(-0.945,-1.,8.80337495614722E-016));
#1874=CARTESIAN_POINT('',(-0.945,-1.,8.80337495614722E-016));
#1875=VECTOR('',#1876,1.);
#1876=DIRECTION('',(-1.,0.,0.));
#1877=CARTESIAN_POINT('',(-0.945,-2.,8.80337495614722E-016));
#1878=CARTESIAN_POINT('',(-0.945,-2.,8.80337495614722E-016));
#1879=VECTOR('',#1880,1.);
#1880=DIRECTION('',(0.,1.,0.));
#1881=CARTESIAN_POINT('',(-1.02,-2.,8.80337495614722E-016));
#1882=CARTESIAN_POINT('',(-1.02,-2.,8.80337495614722E-016));
#1883=VECTOR('',#1884,1.);
#1884=DIRECTION('',(1.,0.,0.));
#1885=CARTESIAN_POINT('',(-1.02,-3.5,8.80337495614722E-016));
#1886=CARTESIAN_POINT('',(-1.02,-3.5,8.80337495614722E-016));
#1887=VECTOR('',#1888,1.);
#1888=DIRECTION('',(-2.96059473233375E-016,1.,0.));
#1889=CARTESIAN_POINT('',(-1.52,-3.5,8.80337495614722E-016));
#1890=CARTESIAN_POINT('',(-1.52,-3.5,8.80337495614722E-016));
#1891=VECTOR('',#1892,1.);
#1892=DIRECTION('',(1.,0.,0.));
#1893=CARTESIAN_POINT('',(-1.52,-2.,8.80337495614722E-016));
#1894=CARTESIAN_POINT('',(-1.52,-2.,8.80337495614722E-016));
#1895=VECTOR('',#1896,1.);
#1896=DIRECTION('',(0.,-1.,0.));
#1897=CARTESIAN_POINT('',(-1.595,-2.,8.80337495614722E-016));
#1898=CARTESIAN_POINT('',(-1.595,-2.,8.80337495614722E-016));
#1899=VECTOR('',#1900,1.);
#1900=DIRECTION('',(1.,0.,0.));
#1901=CARTESIAN_POINT('',(-1.595,-1.,8.80337495614722E-016));
#1902=CARTESIAN_POINT('',(-1.595,-1.,8.80337495614722E-016));
#1903=VECTOR('',#1904,1.);
#1904=DIRECTION('',(0.,-1.,0.));
#1905=CARTESIAN_POINT('',(-1.52,-1.,8.80337495614722E-016));
#1906=CARTESIAN_POINT('',(-1.52,-1.,8.80337495614722E-016));
#1907=VECTOR('',#1908,1.);
#1908=DIRECTION('',(-1.,0.,0.));
#1909=CARTESIAN_POINT('',(-1.52,4.44089209850063E-016,8.80337495614722E-016));
#1910=VECTOR('',#1911,1.);
#1911=DIRECTION('',(0.,-1.,0.));
#1912=CARTESIAN_POINT('',(-1.52,-1.,0.400000000000001));
#1913=CARTESIAN_POINT('',(-1.52,-1.,8.80337495614722E-016));
#1914=VECTOR('',#1915,1.);
#1915=DIRECTION('',(0.,0.,1.));
#1916=CARTESIAN_POINT('',(-1.52,4.44089209850063E-016,0.400000000000001));
#1917=VECTOR('',#1918,1.);
#1918=DIRECTION('',(0.,-1.,0.));
#1919=CARTESIAN_POINT('',(-1.595,-1.,0.400000000000001));
#1920=CARTESIAN_POINT('',(-1.52,-1.,0.400000000000001));
#1921=VECTOR('',#1922,1.);
#1922=DIRECTION('',(-1.,0.,0.));
#1923=CARTESIAN_POINT('',(-1.595,-2.,0.400000000000001));
#1924=CARTESIAN_POINT('',(-1.595,-1.,0.400000000000001));
#1925=VECTOR('',#1926,1.);
#1926=DIRECTION('',(0.,-1.,0.));
#1927=CARTESIAN_POINT('',(-1.52,-2.,0.400000000000001));
#1928=CARTESIAN_POINT('',(-1.595,-2.,0.400000000000001));
#1929=VECTOR('',#1930,1.);
#1930=DIRECTION('',(1.,0.,0.));
#1931=CARTESIAN_POINT('',(-1.52,-3.5,0.400000000000001));
#1932=CARTESIAN_POINT('',(-1.52,-2.,0.400000000000001));
#1933=VECTOR('',#1934,1.);
#1934=DIRECTION('',(0.,-1.,0.));
#1935=CARTESIAN_POINT('',(-1.02,-3.5,0.400000000000001));
#1936=CARTESIAN_POINT('',(-1.52,-3.5,0.400000000000001));
#1937=VECTOR('',#1938,1.);
#1938=DIRECTION('',(1.,0.,0.));
#1939=CARTESIAN_POINT('',(-1.02,-2.,0.400000000000001));
#1940=CARTESIAN_POINT('',(-1.02,-3.5,0.400000000000001));
#1941=VECTOR('',#1942,1.);
#1942=DIRECTION('',(-2.96059473233375E-016,1.,0.));
#1943=CARTESIAN_POINT('',(-0.945,-2.,0.400000000000001));
#1944=CARTESIAN_POINT('',(-1.02,-2.,0.400000000000001));
#1945=VECTOR('',#1946,1.);
#1946=DIRECTION('',(1.,0.,0.));
#1947=CARTESIAN_POINT('',(-0.945,-1.,0.400000000000001));
#1948=CARTESIAN_POINT('',(-0.945,-2.,0.400000000000001));
#1949=VECTOR('',#1950,1.);
#1950=DIRECTION('',(0.,1.,0.));
#1951=CARTESIAN_POINT('',(-0.945,-1.,0.400000000000001));
#1952=VECTOR('',#1953,1.);
#1953=DIRECTION('',(-1.,0.,0.));
#1954=CARTESIAN_POINT('',(4.06,-0.999999999999999,0.400000000000002));
#1955=CARTESIAN_POINT('',(4.06,-0.999999999999999,0.400000000000002));
#1956=VECTOR('',#1957,1.);
#1957=DIRECTION('',(0.,1.,0.));
#1958=CARTESIAN_POINT('',(4.06,-0.999999999999999,1.49049544017645E-015));
#1959=CARTESIAN_POINT('',(4.06,-0.999999999999999,1.49049544017645E-015));
#1960=VECTOR('',#1961,1.);
#1961=DIRECTION('',(0.,0.,1.));
#1962=CARTESIAN_POINT('',(4.06,-0.999999999999999,1.49049544017645E-015));
#1963=VECTOR('',#1964,1.);
#1964=DIRECTION('',(0.,1.,0.));
#1965=CARTESIAN_POINT('',(4.135,-0.999999999999999,1.49049544017645E-015));
#1966=CARTESIAN_POINT('',(4.135,-0.999999999999999,1.49049544017645E-015));
#1967=VECTOR('',#1968,1.);
#1968=DIRECTION('',(-1.,0.,0.));
#1969=CARTESIAN_POINT('',(4.135,-2.,1.49049544017645E-015));
#1970=CARTESIAN_POINT('',(4.135,-2.,1.49049544017645E-015));
#1971=VECTOR('',#1972,1.);
#1972=DIRECTION('',(0.,1.,0.));
#1973=CARTESIAN_POINT('',(4.06,-2.,1.49049544017645E-015));
#1974=CARTESIAN_POINT('',(4.06,-2.,1.49049544017645E-015));
#1975=VECTOR('',#1976,1.);
#1976=DIRECTION('',(1.,0.,0.));
#1977=CARTESIAN_POINT('',(4.06,-3.5,1.49049544017645E-015));
#1978=CARTESIAN_POINT('',(4.06,-3.5,1.49049544017645E-015));
#1979=VECTOR('',#1980,1.);
#1980=DIRECTION('',(-5.9211894646675E-016,1.,0.));
#1981=CARTESIAN_POINT('',(3.56,-3.5,1.49049544017645E-015));
#1982=CARTESIAN_POINT('',(3.56,-3.5,1.49049544017645E-015));
#1983=VECTOR('',#1984,1.);
#1984=DIRECTION('',(1.,0.,0.));
#1985=CARTESIAN_POINT('',(3.56,-2.,1.49049544017645E-015));
#1986=CARTESIAN_POINT('',(3.56,-2.,1.49049544017645E-015));
#1987=VECTOR('',#1988,1.);
#1988=DIRECTION('',(0.,-1.,0.));
#1989=CARTESIAN_POINT('',(3.485,-2.,1.49049544017645E-015));
#1990=CARTESIAN_POINT('',(3.485,-2.,1.49049544017645E-015));
#1991=VECTOR('',#1992,1.);
#1992=DIRECTION('',(1.,0.,0.));
#1993=CARTESIAN_POINT('',(3.485,-0.999999999999999,1.49049544017645E-015));
#1994=CARTESIAN_POINT('',(3.485,-0.999999999999999,1.49049544017645E-015));
#1995=VECTOR('',#1996,1.);
#1996=DIRECTION('',(0.,-1.,0.));
#1997=CARTESIAN_POINT('',(3.56,-0.999999999999999,1.49049544017645E-015));
#1998=CARTESIAN_POINT('',(3.56,-0.999999999999999,1.49049544017645E-015));
#1999=VECTOR('',#2000,1.);
#2000=DIRECTION('',(-1.,0.,0.));
#2001=CARTESIAN_POINT('',(3.56,6.66133814775094E-016,1.49049544017645E-015));
#2002=VECTOR('',#2003,1.);
#2003=DIRECTION('',(0.,-1.,0.));
#2004=CARTESIAN_POINT('',(3.56,-0.999999999999999,0.400000000000002));
#2005=CARTESIAN_POINT('',(3.56,-0.999999999999999,1.49049544017645E-015));
#2006=VECTOR('',#2007,1.);
#2007=DIRECTION('',(0.,0.,1.));
#2008=CARTESIAN_POINT('',(3.56,6.66133814775094E-016,0.400000000000002));
#2009=VECTOR('',#2010,1.);
#2010=DIRECTION('',(0.,-1.,0.));
#2011=CARTESIAN_POINT('',(3.485,-0.999999999999999,0.400000000000002));
#2012=CARTESIAN_POINT('',(3.56,-0.999999999999999,0.400000000000002));
#2013=VECTOR('',#2014,1.);
#2014=DIRECTION('',(-1.,0.,0.));
#2015=CARTESIAN_POINT('',(3.485,-2.,0.400000000000002));
#2016=CARTESIAN_POINT('',(3.485,-0.999999999999999,0.400000000000002));
#2017=VECTOR('',#2018,1.);
#2018=DIRECTION('',(0.,-1.,0.));
#2019=CARTESIAN_POINT('',(3.56,-2.,0.400000000000002));
#2020=CARTESIAN_POINT('',(3.485,-2.,0.400000000000002));
#2021=VECTOR('',#2022,1.);
#2022=DIRECTION('',(1.,0.,0.));
#2023=CARTESIAN_POINT('',(3.56,-3.5,0.400000000000002));
#2024=CARTESIAN_POINT('',(3.56,-2.,0.400000000000002));
#2025=VECTOR('',#2026,1.);
#2026=DIRECTION('',(0.,-1.,0.));
#2027=CARTESIAN_POINT('',(4.06,-3.5,0.400000000000002));
#2028=CARTESIAN_POINT('',(3.56,-3.5,0.400000000000002));
#2029=VECTOR('',#2030,1.);
#2030=DIRECTION('',(1.,0.,0.));
#2031=CARTESIAN_POINT('',(4.06,-2.,0.400000000000002));
#2032=CARTESIAN_POINT('',(4.06,-3.5,0.400000000000002));
#2033=VECTOR('',#2034,1.);
#2034=DIRECTION('',(-5.9211894646675E-016,1.,0.));
#2035=CARTESIAN_POINT('',(4.135,-2.,0.400000000000002));
#2036=CARTESIAN_POINT('',(4.06,-2.,0.400000000000002));
#2037=VECTOR('',#2038,1.);
#2038=DIRECTION('',(1.,0.,0.));
#2039=CARTESIAN_POINT('',(4.135,-0.999999999999999,0.400000000000002));
#2040=CARTESIAN_POINT('',(4.135,-2.,0.400000000000002));
#2041=VECTOR('',#2042,1.);
#2042=DIRECTION('',(0.,1.,0.));
#2043=CARTESIAN_POINT('',(4.135,-0.999999999999999,0.400000000000002));
#2044=VECTOR('',#2045,1.);
#2045=DIRECTION('',(-1.,0.,0.));
#2046=CARTESIAN_POINT('',(-3.56,-1.,0.4));
#2047=CARTESIAN_POINT('',(-3.56,-1.,0.4));
#2048=VECTOR('',#2049,1.);
#2049=DIRECTION('',(0.,1.,0.));
#2050=CARTESIAN_POINT('',(-3.56,-1.,0.));
#2051=CARTESIAN_POINT('',(-3.56,-1.,0.));
#2052=VECTOR('',#2053,1.);
#2053=DIRECTION('',(0.,0.,1.));
#2054=CARTESIAN_POINT('',(-3.56,-1.,0.));
#2055=VECTOR('',#2056,1.);
#2056=DIRECTION('',(0.,1.,0.));
#2057=CARTESIAN_POINT('',(-3.485,-1.,0.));
#2058=CARTESIAN_POINT('',(-3.485,-1.,0.));
#2059=VECTOR('',#2060,1.);
#2060=DIRECTION('',(-1.,0.,0.));
#2061=CARTESIAN_POINT('',(-3.485,-2.,0.));
#2062=CARTESIAN_POINT('',(-3.485,-2.,0.));
#2063=VECTOR('',#2064,1.);
#2064=DIRECTION('',(0.,1.,0.));
#2065=CARTESIAN_POINT('',(-3.56,-2.,0.));
#2066=CARTESIAN_POINT('',(-3.56,-2.,0.));
#2067=VECTOR('',#2068,1.);
#2068=DIRECTION('',(1.,0.,0.));
#2069=CARTESIAN_POINT('',(-3.56,-3.5,0.));
#2070=CARTESIAN_POINT('',(-3.56,-3.5,0.));
#2071=VECTOR('',#2072,1.);
#2072=DIRECTION('',(-2.96059473233375E-016,1.,0.));
#2073=CARTESIAN_POINT('',(-4.06,-3.5,0.));
#2074=CARTESIAN_POINT('',(-4.06,-3.5,0.));
#2075=VECTOR('',#2076,1.);
#2076=DIRECTION('',(1.,0.,0.));
#2077=CARTESIAN_POINT('',(-4.06,-2.,0.));
#2078=CARTESIAN_POINT('',(-4.06,-2.,0.));
#2079=VECTOR('',#2080,1.);
#2080=DIRECTION('',(0.,-1.,0.));
#2081=CARTESIAN_POINT('',(-4.135,-2.,0.));
#2082=CARTESIAN_POINT('',(-4.135,-2.,0.));
#2083=VECTOR('',#2084,1.);
#2084=DIRECTION('',(1.,0.,0.));
#2085=CARTESIAN_POINT('',(-4.135,-1.,0.));
#2086=CARTESIAN_POINT('',(-4.135,-1.,0.));
#2087=VECTOR('',#2088,1.);
#2088=DIRECTION('',(0.,-1.,0.));
#2089=CARTESIAN_POINT('',(-4.06,-1.,0.));
#2090=CARTESIAN_POINT('',(-4.06,-1.,0.));
#2091=VECTOR('',#2092,1.);
#2092=DIRECTION('',(-1.,0.,0.));
#2093=CARTESIAN_POINT('',(-4.06,0.,0.));
#2094=VECTOR('',#2095,1.);
#2095=DIRECTION('',(0.,-1.,0.));
#2096=CARTESIAN_POINT('',(-4.06,-1.,0.4));
#2097=CARTESIAN_POINT('',(-4.06,-1.,0.));
#2098=VECTOR('',#2099,1.);
#2099=DIRECTION('',(0.,0.,1.));
#2100=CARTESIAN_POINT('',(-4.06,0.,0.4));
#2101=VECTOR('',#2102,1.);
#2102=DIRECTION('',(0.,-1.,0.));
#2103=CARTESIAN_POINT('',(-4.135,-1.,0.4));
#2104=CARTESIAN_POINT('',(-4.06,-1.,0.4));
#2105=VECTOR('',#2106,1.);
#2106=DIRECTION('',(-1.,0.,0.));
#2107=CARTESIAN_POINT('',(-4.135,-2.,0.4));
#2108=CARTESIAN_POINT('',(-4.135,-1.,0.4));
#2109=VECTOR('',#2110,1.);
#2110=DIRECTION('',(0.,-1.,0.));
#2111=CARTESIAN_POINT('',(-4.06,-2.,0.4));
#2112=CARTESIAN_POINT('',(-4.135,-2.,0.4));
#2113=VECTOR('',#2114,1.);
#2114=DIRECTION('',(1.,0.,0.));
#2115=CARTESIAN_POINT('',(-4.06,-3.5,0.4));
#2116=CARTESIAN_POINT('',(-4.06,-2.,0.4));
#2117=VECTOR('',#2118,1.);
#2118=DIRECTION('',(0.,-1.,0.));
#2119=CARTESIAN_POINT('',(-3.56,-3.5,0.4));
#2120=CARTESIAN_POINT('',(-4.06,-3.5,0.4));
#2121=VECTOR('',#2122,1.);
#2122=DIRECTION('',(1.,0.,0.));
#2123=CARTESIAN_POINT('',(-3.56,-2.,0.4));
#2124=CARTESIAN_POINT('',(-3.56,-3.5,0.4));
#2125=VECTOR('',#2126,1.);
#2126=DIRECTION('',(-2.96059473233375E-016,1.,0.));
#2127=CARTESIAN_POINT('',(-3.485,-2.,0.4));
#2128=CARTESIAN_POINT('',(-3.56,-2.,0.4));
#2129=VECTOR('',#2130,1.);
#2130=DIRECTION('',(1.,0.,0.));
#2131=CARTESIAN_POINT('',(-3.485,-1.,0.4));
#2132=CARTESIAN_POINT('',(-3.485,-2.,0.4));
#2133=VECTOR('',#2134,1.);
#2134=DIRECTION('',(0.,1.,0.));
#2135=CARTESIAN_POINT('',(-3.485,-1.,0.4));
#2136=VECTOR('',#2137,1.);
#2137=DIRECTION('',(-1.,0.,0.));
#2138=CARTESIAN_POINT('',(4.8,12.5,-1.2));
#2139=CARTESIAN_POINT('',(-4.8,12.5,-1.2));
#2140=CARTESIAN_POINT('',(4.8,12.5,-1.2));
#2141=VECTOR('',#2142,1.);
#2142=DIRECTION('',(-1.,0.,0.));
#2143=CARTESIAN_POINT('',(-4.8,12.5,2.4));
#2144=CARTESIAN_POINT('',(-4.8,12.5,-1.2));
#2145=VECTOR('',#2146,1.);
#2146=DIRECTION('',(0.,0.,1.));
#2147=CARTESIAN_POINT('',(4.8,12.5,2.4));
#2148=CARTESIAN_POINT('',(4.8,12.5,2.4));
#2149=VECTOR('',#2150,1.);
#2150=DIRECTION('',(-1.,0.,0.));
#2151=CARTESIAN_POINT('',(4.8,12.5,-1.2));
#2152=VECTOR('',#2153,1.);
#2153=DIRECTION('',(0.,0.,1.));
#2154=CARTESIAN_POINT('',(-0.945,-1.,8.80337495614722E-016));
#2155=VECTOR('',#2156,1.);
#2156=DIRECTION('',(0.,0.,1.));
#2157=CARTESIAN_POINT('',(-0.945,-2.,8.80337495614722E-016));
#2158=VECTOR('',#2159,1.);
#2159=DIRECTION('',(0.,0.,1.));
#2160=CARTESIAN_POINT('',(-1.02,-2.,8.80337495614722E-016));
#2161=VECTOR('',#2162,1.);
#2162=DIRECTION('',(0.,0.,1.));
#2163=CARTESIAN_POINT('',(-1.02,-3.5,8.80337495614722E-016));
#2164=VECTOR('',#2165,1.);
#2165=DIRECTION('',(0.,0.,1.));
#2166=CARTESIAN_POINT('',(-1.52,-3.5,8.80337495614722E-016));
#2167=VECTOR('',#2168,1.);
#2168=DIRECTION('',(0.,0.,1.));
#2169=CARTESIAN_POINT('',(-1.52,-2.,8.80337495614722E-016));
#2170=VECTOR('',#2171,1.);
#2171=DIRECTION('',(0.,0.,1.));
#2172=CARTESIAN_POINT('',(-1.595,-2.,8.80337495614722E-016));
#2173=VECTOR('',#2174,1.);
#2174=DIRECTION('',(0.,0.,1.));
#2175=CARTESIAN_POINT('',(-1.595,-1.,8.80337495614722E-016));
#2176=VECTOR('',#2177,1.);
#2177=DIRECTION('',(0.,0.,1.));
#2178=CARTESIAN_POINT('',(4.135,-0.999999999999999,1.49049544017645E-015));
#2179=VECTOR('',#2180,1.);
#2180=DIRECTION('',(0.,0.,1.));
#2181=CARTESIAN_POINT('',(4.135,-2.,1.49049544017645E-015));
#2182=VECTOR('',#2183,1.);
#2183=DIRECTION('',(0.,0.,1.));
#2184=CARTESIAN_POINT('',(4.06,-2.,1.49049544017645E-015));
#2185=VECTOR('',#2186,1.);
#2186=DIRECTION('',(0.,0.,1.));
#2187=CARTESIAN_POINT('',(4.06,-3.5,1.49049544017645E-015));
#2188=VECTOR('',#2189,1.);
#2189=DIRECTION('',(0.,0.,1.));
#2190=CARTESIAN_POINT('',(3.56,-3.5,1.49049544017645E-015));
#2191=VECTOR('',#2192,1.);
#2192=DIRECTION('',(0.,0.,1.));
#2193=CARTESIAN_POINT('',(3.56,-2.,1.49049544017645E-015));
#2194=VECTOR('',#2195,1.);
#2195=DIRECTION('',(0.,0.,1.));
#2196=CARTESIAN_POINT('',(3.485,-2.,1.49049544017645E-015));
#2197=VECTOR('',#2198,1.);
#2198=DIRECTION('',(0.,0.,1.));
#2199=CARTESIAN_POINT('',(3.485,-0.999999999999999,1.49049544017645E-015));
#2200=VECTOR('',#2201,1.);
#2201=DIRECTION('',(0.,0.,1.));
#2202=CARTESIAN_POINT('',(-3.485,-1.,0.));
#2203=VECTOR('',#2204,1.);
#2204=DIRECTION('',(0.,0.,1.));
#2205=CARTESIAN_POINT('',(-3.485,-2.,0.));
#2206=VECTOR('',#2207,1.);
#2207=DIRECTION('',(0.,0.,1.));
#2208=CARTESIAN_POINT('',(-3.56,-2.,0.));
#2209=VECTOR('',#2210,1.);
#2210=DIRECTION('',(0.,0.,1.));
#2211=CARTESIAN_POINT('',(-3.56,-3.5,0.));
#2212=VECTOR('',#2213,1.);
#2213=DIRECTION('',(0.,0.,1.));
#2214=CARTESIAN_POINT('',(-4.06,-3.5,0.));
#2215=VECTOR('',#2216,1.);
#2216=DIRECTION('',(0.,0.,1.));
#2217=CARTESIAN_POINT('',(-4.06,-2.,0.));
#2218=VECTOR('',#2219,1.);
#2219=DIRECTION('',(0.,0.,1.));
#2220=CARTESIAN_POINT('',(-4.135,-2.,0.));
#2221=VECTOR('',#2222,1.);
#2222=DIRECTION('',(0.,0.,1.));
#2223=CARTESIAN_POINT('',(-4.135,-1.,0.));
#2224=VECTOR('',#2225,1.);
#2225=DIRECTION('',(0.,0.,1.));
#2226=AXIS2_PLACEMENT_3D('',#2227,#2228,#2229);
#2227=CARTESIAN_POINT('',(4.8,12.3,-1.2));
#2228=DIRECTION('',(0.,-3.1720657846433E-016,-1.));
#2229=DIRECTION('',(-4.44089209850064E-015,1.,-3.1720657846433E-016));
#2230=AXIS2_PLACEMENT_3D('',#2231,#2232,#2233);
#2231=CARTESIAN_POINT('',(4.8,12.3,2.4));
#2232=DIRECTION('',(-0.,3.1720657846433E-016,1.));
#2233=DIRECTION('',(1.,4.50212443845801E-015,-1.42810348894391E-030));
#2234=AXIS2_PLACEMENT_3D('',#2235,#2236,#2237);
#2235=CARTESIAN_POINT('',(-4.8,12.3,-1.2));
#2236=DIRECTION('',(-0.,0.,-1.));
#2237=DIRECTION('',(-1.,0.,0.));
#2238=AXIS2_PLACEMENT_3D('',#2239,#2240,#2241);
#2239=CARTESIAN_POINT('',(-4.8,12.3,2.4));
#2240=DIRECTION('',(0.,-0.,1.));
#2241=DIRECTION('',(-6.12323399573677E-017,1.,0.));
#2242=AXIS2_PLACEMENT_3D('',#2243,#2244,#2245);
#2243=CARTESIAN_POINT('',(4.8,12.3,2.4));
#2244=DIRECTION('',(-6.38977280359802E-017,-1.,-0.));
#2245=DIRECTION('',(1.,-6.38977280359802E-017,4.50212443845799E-015));
#2246=AXIS2_PLACEMENT_3D('',#2247,#2248,#2249);
#2247=CARTESIAN_POINT('',(4.8,12.3,2.4));
#2248=DIRECTION('',(-1.,-1.77023360540451E-014,0.));
#2249=DIRECTION('',(0.,0.,1.));
#2250=AXIS2_PLACEMENT_3D('',#2251,#2252,#2253);
#2251=CARTESIAN_POINT('',(-4.8,12.3,2.4));
#2252=DIRECTION('',(1.,-1.58603289232165E-016,-0.));
#2253=DIRECTION('',(1.58603289232165E-016,1.,6.12323399573677E-017));
#2254=AXIS2_PLACEMENT_3D('',#2255,#2256,#2257);
#2255=CARTESIAN_POINT('',(-4.8,12.3,2.4));
#2256=DIRECTION('',(-6.12323399573677E-017,-1.,0.));
#2257=DIRECTION('',(0.,0.,1.));
#2258=AXIS2_PLACEMENT_3D('',#2259,#2260,#2261);
#2259=CARTESIAN_POINT('',(4.8,12.3,-1.2));
#2260=DIRECTION('',(6.38977280359802E-017,1.,-0.));
#2261=DIRECTION('',(1.,-6.38977280359802E-017,-4.50212443845799E-015));
#2262=AXIS2_PLACEMENT_3D('',#2263,#2264,#2265);
#2263=CARTESIAN_POINT('',(4.8,12.3,-1.2));
#2264=DIRECTION('',(1.,4.44089209850064E-015,-0.));
#2265=DIRECTION('',(0.,0.,-1.));
#2266=AXIS2_PLACEMENT_3D('',#2267,#2268,#2269);
#2267=CARTESIAN_POINT('',(-4.8,12.3,-1.2));
#2268=DIRECTION('',(-1.,1.58603289232165E-016,-0.));
#2269=DIRECTION('',(1.58603289232165E-016,1.,-6.12323399573677E-017));
#2270=AXIS2_PLACEMENT_3D('',#2271,#2272,#2273);
#2271=CARTESIAN_POINT('',(-4.8,12.3,-1.2));
#2272=DIRECTION('',(0.,1.,-0.));
#2273=DIRECTION('',(0.,0.,-1.));
ENDSEC;
END-ISO-10303-21;
