ISO-10303-21;
HEADER;
FILE_DESCRIPTION(('STEP AP214'),
    '1');
FILE_NAME('SL-105-TT-12',
    '2020-03-30T23:14:43',
    ('AF'),
    (''),
    'UNSPECIFIED',
    'UNSPECIFIED',
    '');
/*Based on Samtec Inc. SL, SDL series datasheet*/
FILE_SCHEMA(('AUTOMOTIVE_DESIGN { 1 0 10303 214 3 1 1}'));
ENDSEC;

DATA;
#1=SHAPE_REPRESENTATION('NONE',(#2,#58,#121,#147,#173),#6);
#2=AXIS2_PLACEMENT_3D('',#3,#4,#5);
#3=CARTESIAN_POINT('',(0.,0.,0.));
#4=DIRECTION('',(0.,0.,1.));
#5=DIRECTION('',(1.,0.,0.));
#6=(GEOMETRIC_REPRESENTATION_CONTEXT(3)GLOBAL_UNCERTAINTY_ASSIGNED_CONTEXT((#8))
GLOBAL_UNIT_ASSIGNED_CONTEXT((#7,#9,#10))REPRESENTATION_CONTEXT('NONE','NONE'));
#7=(LENGTH_UNIT()NAMED_UNIT(*)SI_UNIT(.MILLI.,.METRE.));
#8=UNCERTAINTY_MEASURE_WITH_UNIT(LENGTH_MEASURE(1.E-005),#7,'NONE','NONE');
#9=(NAMED_UNIT(*)PLANE_ANGLE_UNIT()SI_UNIT($,.RADIAN.));
#10=(NAMED_UNIT(*)SI_UNIT($,.STERADIAN.)SOLID_ANGLE_UNIT());
#11=SHAPE_DEFINITION_REPRESENTATION(#12,#1);
#12=PRODUCT_DEFINITION_SHAPE('NONE','NONE',#13);
#13=PRODUCT_DEFINITION('','UNSPECIFIED',#14,#22);
#14=PRODUCT_DEFINITION_FORMATION_WITH_SPECIFIED_SOURCE('ANY','UNSPECIFIED',#15,.NOT_KNOWN.);
#15=PRODUCT('','SDL-102-TT-12','Based on Samtec Inc. SL, SDL series datasheet',(
#25));
#16=PERSON('UNSPECIFIED','AF','UNSPECIFIED',('UNSPECIFIED'),('UNSPECIFIED'),
('UNSPECIFIED'));
#17=ORGANIZATION('UNSPECIFIED','UNSPECIFIED','UNSPECIFIED');
#18=PERSON_AND_ORGANIZATION(#16,#17);
#19=PERSON_AND_ORGANIZATION_ROLE('design_owner');
#20=CC_DESIGN_PERSON_AND_ORGANIZATION_ASSIGNMENT(#18,#19,(#15));
#21=PRODUCT_RELATED_PRODUCT_CATEGORY('assembly','',(#15));
#22=DESIGN_CONTEXT('detailed design',#23,'design');
#23=APPLICATION_CONTEXT('configuration controlled 3d designs of mechanical parts and assemblies');
#24=APPLICATION_PROTOCOL_DEFINITION('international standard','automotive_design',
2011,#23);
#25=PRODUCT_CONTEXT('NONE',#23,'mechanical');
#26=CC_DESIGN_DATE_AND_TIME_ASSIGNMENT(#27,#31,(#13));
#27=DATE_AND_TIME(#28,#29);
#28=CALENDAR_DATE(0,1,1);
#29=LOCAL_TIME(0,0,0.,#30);
#30=COORDINATED_UNIVERSAL_TIME_OFFSET(0,0,.AHEAD.);
#31=DATE_TIME_ROLE('creation_date');
#32=CC_DESIGN_APPROVAL(#33,(#13));
#33=APPROVAL(#34,'UNSPECIFIED');
#34=APPROVAL_STATUS('not_yet_approved');
#35=APPROVAL_DATE_TIME(#36,#33);
#36=DATE_AND_TIME(#37,#38);
#37=CALENDAR_DATE(0,1,1);
#38=LOCAL_TIME(0,0,0.,#39);
#39=COORDINATED_UNIVERSAL_TIME_OFFSET(0,0,.AHEAD.);
#40=DERIVED_UNIT((#44,#41));
#41=DERIVED_UNIT_ELEMENT(#42,-1.);
#42=VOLUME_UNIT(#43);
#43=DIMENSIONAL_EXPONENTS(3.,0.,0.,0.,0.,0.,0.);
#44=(DERIVED_UNIT_ELEMENT($,-1.)NAMED_UNIT($)MASS_UNIT()SI_UNIT($,.GRAM.));
#45=MANIFOLD_SOLID_BREP('',#46);
#46=CLOSED_SHELL('',(#199,#208,#217,#226,#235,#244,#253,#262,#271,#280,#289,#298,
#307,#316,#325,#334,#343,#352,#361,#370,#379,#388,#397,#406,#415,#424,#433,#442,
#451,#460,#469,#478,#487,#496));
#47=COLOUR_RGB($,0.156862745098039,0.156862745098039,0.156862745098039);
#48=FILL_AREA_STYLE_COLOUR($,#47);
#49=FILL_AREA_STYLE($,(#48));
#50=SURFACE_STYLE_FILL_AREA(#49);
#51=SURFACE_SIDE_STYLE('',(#50));
#52=SURFACE_STYLE_USAGE(.BOTH.,#51);
#53=PRESENTATION_STYLE_ASSIGNMENT((#52));
#54=MECHANICAL_DESIGN_GEOMETRIC_PRESENTATION_REPRESENTATION('NONE',(#55,#96,#207,
#216,#225,#234,#243,#252,#261,#270,#279,#288,#297,#306,#315,#324,#333,#342,#351,
#360,#369,#378,#387,#396,#405,#414,#423,#432,#441,#450,#459,#468,#477,#486,#495,
#504,#513,#522,#531,#540,#549,#558,#567,#576,#585,#594,#603,#612,#621,#630,#639,
#648,#657,#666,#675,#684),#6);
#55=STYLED_ITEM('',(#53),#45);
#56=ADVANCED_BREP_SHAPE_REPRESENTATION('NONE',(#45),#6);
#57=SHAPE_REPRESENTATION_RELATIONSHIP('','',#1,#56);
#58=AXIS2_PLACEMENT_3D('',#59,#60,#61);
#59=CARTESIAN_POINT('',(0.,0.,0.));
#60=DIRECTION('',(0.,0.,1.));
#61=DIRECTION('',(1.,0.,0.));
#62=SHAPE_REPRESENTATION('NONE',(#2),#6);
#63=SHAPE_DEFINITION_REPRESENTATION(#64,#62);
#64=PRODUCT_DEFINITION_SHAPE('NONE','NONE',#65);
#65=PRODUCT_DEFINITION('','UNSPECIFIED',#66,#69);
#66=PRODUCT_DEFINITION_FORMATION_WITH_SPECIFIED_SOURCE('ANY','UNSPECIFIED',#67,.NOT_KNOWN.);
#67=PRODUCT('','SxL-1xx-TT-12-pin','Based on Samtec Inc. SL, SDL series datasheet',
(#72));
#68=PRODUCT_RELATED_PRODUCT_CATEGORY('detail','',(#67));
#69=DESIGN_CONTEXT('detailed design',#70,'design');
#70=APPLICATION_CONTEXT('configuration controlled 3d designs of mechanical parts and assemblies');
#71=APPLICATION_PROTOCOL_DEFINITION('international standard','automotive_design',
2011,#70);
#72=PRODUCT_CONTEXT('NONE',#70,'mechanical');
#73=CC_DESIGN_DATE_AND_TIME_ASSIGNMENT(#74,#78,(#65));
#74=DATE_AND_TIME(#75,#76);
#75=CALENDAR_DATE(0,1,1);
#76=LOCAL_TIME(0,0,0.,#77);
#77=COORDINATED_UNIVERSAL_TIME_OFFSET(0,0,.AHEAD.);
#78=DATE_TIME_ROLE('creation_date');
#79=CC_DESIGN_APPROVAL(#80,(#65));
#80=APPROVAL(#81,'UNSPECIFIED');
#81=APPROVAL_STATUS('not_yet_approved');
#82=APPROVAL_DATE_TIME(#83,#80);
#83=DATE_AND_TIME(#84,#85);
#84=CALENDAR_DATE(0,1,1);
#85=LOCAL_TIME(0,0,0.,#86);
#86=COORDINATED_UNIVERSAL_TIME_OFFSET(0,0,.AHEAD.);
#87=MANIFOLD_SOLID_BREP('',#88);
#88=CLOSED_SHELL('',(#505,#514,#523,#532,#541,#550,#559,#568,#577,#586,#595,#604,
#613,#622,#631,#640,#649,#658,#667,#676));
#89=COLOUR_RGB($,0.827450980392157,0.831372549019608,0.835294117647059);
#90=FILL_AREA_STYLE_COLOUR($,#89);
#91=FILL_AREA_STYLE($,(#90));
#92=SURFACE_STYLE_FILL_AREA(#91);
#93=SURFACE_SIDE_STYLE('',(#92));
#94=SURFACE_STYLE_USAGE(.BOTH.,#93);
#95=PRESENTATION_STYLE_ASSIGNMENT((#94));
#96=STYLED_ITEM('',(#95),#87);
#97=ADVANCED_BREP_SHAPE_REPRESENTATION('NONE',(#87),#6);
#98=SHAPE_REPRESENTATION_RELATIONSHIP('','',#62,#97);
#99=ITEM_DEFINED_TRANSFORMATION('','',#2,#58);
#100=(REPRESENTATION_RELATIONSHIP('','',#62,#1)REPRESENTATION_RELATIONSHIP_WITH_TRANSFORMATION(
#99)SHAPE_REPRESENTATION_RELATIONSHIP());
#101=NEXT_ASSEMBLY_USAGE_OCCURRENCE('1','','',#13,#65,$);
#102=CC_DESIGN_SECURITY_CLASSIFICATION(#103,(#101));
#103=SECURITY_CLASSIFICATION('','',#104);
#104=SECURITY_CLASSIFICATION_LEVEL('unclassified');
#105=CC_DESIGN_DATE_AND_TIME_ASSIGNMENT(#106,#110,(#103));
#106=DATE_AND_TIME(#107,#108);
#107=CALENDAR_DATE(0,1,1);
#108=LOCAL_TIME(0,0,0.,#109);
#109=COORDINATED_UNIVERSAL_TIME_OFFSET(0,0,.AHEAD.);
#110=DATE_TIME_ROLE('classification_date');
#111=CC_DESIGN_APPROVAL(#112,(#103));
#112=APPROVAL(#113,'UNSPECIFIED');
#113=APPROVAL_STATUS('not_yet_approved');
#114=APPROVAL_DATE_TIME(#115,#112);
#115=DATE_AND_TIME(#116,#117);
#116=CALENDAR_DATE(0,1,1);
#117=LOCAL_TIME(0,0,0.,#118);
#118=COORDINATED_UNIVERSAL_TIME_OFFSET(0,0,.AHEAD.);
#119=PRODUCT_DEFINITION_SHAPE('NONE','NONE',#101);
#120=CONTEXT_DEPENDENT_SHAPE_REPRESENTATION(#100,#119);
#121=AXIS2_PLACEMENT_3D('',#122,#123,#124);
#122=CARTESIAN_POINT('',(1.55530143491714E-016,2.54,0.));
#123=DIRECTION('',(0.,0.,1.));
#124=DIRECTION('',(1.,0.,0.));
#125=ITEM_DEFINED_TRANSFORMATION('','',#2,#121);
#126=(REPRESENTATION_RELATIONSHIP('','',#62,#1)REPRESENTATION_RELATIONSHIP_WITH_TRANSFORMATION(
#125)SHAPE_REPRESENTATION_RELATIONSHIP());
#127=NEXT_ASSEMBLY_USAGE_OCCURRENCE('2','','',#13,#65,$);
#128=CC_DESIGN_SECURITY_CLASSIFICATION(#129,(#127));
#129=SECURITY_CLASSIFICATION('','',#130);
#130=SECURITY_CLASSIFICATION_LEVEL('unclassified');
#131=CC_DESIGN_DATE_AND_TIME_ASSIGNMENT(#132,#136,(#129));
#132=DATE_AND_TIME(#133,#134);
#133=CALENDAR_DATE(0,1,1);
#134=LOCAL_TIME(0,0,0.,#135);
#135=COORDINATED_UNIVERSAL_TIME_OFFSET(0,0,.AHEAD.);
#136=DATE_TIME_ROLE('classification_date');
#137=CC_DESIGN_APPROVAL(#138,(#129));
#138=APPROVAL(#139,'UNSPECIFIED');
#139=APPROVAL_STATUS('not_yet_approved');
#140=APPROVAL_DATE_TIME(#141,#138);
#141=DATE_AND_TIME(#142,#143);
#142=CALENDAR_DATE(0,1,1);
#143=LOCAL_TIME(0,0,0.,#144);
#144=COORDINATED_UNIVERSAL_TIME_OFFSET(0,0,.AHEAD.);
#145=PRODUCT_DEFINITION_SHAPE('NONE','NONE',#127);
#146=CONTEXT_DEPENDENT_SHAPE_REPRESENTATION(#126,#145);
#147=AXIS2_PLACEMENT_3D('',#148,#149,#150);
#148=CARTESIAN_POINT('',(2.54,0.,0.));
#149=DIRECTION('',(0.,0.,1.));
#150=DIRECTION('',(1.,0.,0.));
#151=ITEM_DEFINED_TRANSFORMATION('','',#2,#147);
#152=(REPRESENTATION_RELATIONSHIP('','',#62,#1)REPRESENTATION_RELATIONSHIP_WITH_TRANSFORMATION(
#151)SHAPE_REPRESENTATION_RELATIONSHIP());
#153=NEXT_ASSEMBLY_USAGE_OCCURRENCE('3','','',#13,#65,$);
#154=CC_DESIGN_SECURITY_CLASSIFICATION(#155,(#153));
#155=SECURITY_CLASSIFICATION('','',#156);
#156=SECURITY_CLASSIFICATION_LEVEL('unclassified');
#157=CC_DESIGN_DATE_AND_TIME_ASSIGNMENT(#158,#162,(#155));
#158=DATE_AND_TIME(#159,#160);
#159=CALENDAR_DATE(0,1,1);
#160=LOCAL_TIME(0,0,0.,#161);
#161=COORDINATED_UNIVERSAL_TIME_OFFSET(0,0,.AHEAD.);
#162=DATE_TIME_ROLE('classification_date');
#163=CC_DESIGN_APPROVAL(#164,(#155));
#164=APPROVAL(#165,'UNSPECIFIED');
#165=APPROVAL_STATUS('not_yet_approved');
#166=APPROVAL_DATE_TIME(#167,#164);
#167=DATE_AND_TIME(#168,#169);
#168=CALENDAR_DATE(0,1,1);
#169=LOCAL_TIME(0,0,0.,#170);
#170=COORDINATED_UNIVERSAL_TIME_OFFSET(0,0,.AHEAD.);
#171=PRODUCT_DEFINITION_SHAPE('NONE','NONE',#153);
#172=CONTEXT_DEPENDENT_SHAPE_REPRESENTATION(#152,#171);
#173=AXIS2_PLACEMENT_3D('',#174,#175,#176);
#174=CARTESIAN_POINT('',(2.54,2.54,0.));
#175=DIRECTION('',(0.,0.,1.));
#176=DIRECTION('',(1.,0.,0.));
#177=ITEM_DEFINED_TRANSFORMATION('','',#2,#173);
#178=(REPRESENTATION_RELATIONSHIP('','',#62,#1)REPRESENTATION_RELATIONSHIP_WITH_TRANSFORMATION(
#177)SHAPE_REPRESENTATION_RELATIONSHIP());
#179=NEXT_ASSEMBLY_USAGE_OCCURRENCE('4','','',#13,#65,$);
#180=CC_DESIGN_SECURITY_CLASSIFICATION(#181,(#179));
#181=SECURITY_CLASSIFICATION('','',#182);
#182=SECURITY_CLASSIFICATION_LEVEL('unclassified');
#183=CC_DESIGN_DATE_AND_TIME_ASSIGNMENT(#184,#188,(#181));
#184=DATE_AND_TIME(#185,#186);
#185=CALENDAR_DATE(0,1,1);
#186=LOCAL_TIME(0,0,0.,#187);
#187=COORDINATED_UNIVERSAL_TIME_OFFSET(0,0,.AHEAD.);
#188=DATE_TIME_ROLE('classification_date');
#189=CC_DESIGN_APPROVAL(#190,(#181));
#190=APPROVAL(#191,'UNSPECIFIED');
#191=APPROVAL_STATUS('not_yet_approved');
#192=APPROVAL_DATE_TIME(#193,#190);
#193=DATE_AND_TIME(#194,#195);
#194=CALENDAR_DATE(0,1,1);
#195=LOCAL_TIME(0,0,0.,#196);
#196=COORDINATED_UNIVERSAL_TIME_OFFSET(0,0,.AHEAD.);
#197=PRODUCT_DEFINITION_SHAPE('NONE','NONE',#179);
#198=CONTEXT_DEPENDENT_SHAPE_REPRESENTATION(#178,#197);
#199=ADVANCED_FACE('',(#685),#687,.F.);
#200=COLOUR_RGB($,0.156862745098039,0.156862745098039,0.156862745098039);
#201=FILL_AREA_STYLE_COLOUR($,#200);
#202=FILL_AREA_STYLE($,(#201));
#203=SURFACE_STYLE_FILL_AREA(#202);
#204=SURFACE_SIDE_STYLE('',(#203));
#205=SURFACE_STYLE_USAGE(.BOTH.,#204);
#206=PRESENTATION_STYLE_ASSIGNMENT((#205));
#207=STYLED_ITEM('',(#206),#199);
#208=ADVANCED_FACE('',(#692),#694,.F.);
#209=COLOUR_RGB($,0.156862745098039,0.156862745098039,0.156862745098039);
#210=FILL_AREA_STYLE_COLOUR($,#209);
#211=FILL_AREA_STYLE($,(#210));
#212=SURFACE_STYLE_FILL_AREA(#211);
#213=SURFACE_SIDE_STYLE('',(#212));
#214=SURFACE_STYLE_USAGE(.BOTH.,#213);
#215=PRESENTATION_STYLE_ASSIGNMENT((#214));
#216=STYLED_ITEM('',(#215),#208);
#217=ADVANCED_FACE('',(#699),#701,.T.);
#218=COLOUR_RGB($,0.156862745098039,0.156862745098039,0.156862745098039);
#219=FILL_AREA_STYLE_COLOUR($,#218);
#220=FILL_AREA_STYLE($,(#219));
#221=SURFACE_STYLE_FILL_AREA(#220);
#222=SURFACE_SIDE_STYLE('',(#221));
#223=SURFACE_STYLE_USAGE(.BOTH.,#222);
#224=PRESENTATION_STYLE_ASSIGNMENT((#223));
#225=STYLED_ITEM('',(#224),#217);
#226=ADVANCED_FACE('',(#706),#708,.T.);
#227=COLOUR_RGB($,0.156862745098039,0.156862745098039,0.156862745098039);
#228=FILL_AREA_STYLE_COLOUR($,#227);
#229=FILL_AREA_STYLE($,(#228));
#230=SURFACE_STYLE_FILL_AREA(#229);
#231=SURFACE_SIDE_STYLE('',(#230));
#232=SURFACE_STYLE_USAGE(.BOTH.,#231);
#233=PRESENTATION_STYLE_ASSIGNMENT((#232));
#234=STYLED_ITEM('',(#233),#226);
#235=ADVANCED_FACE('',(#713,#715,#717,#719,#721,#723),#725,.T.);
#236=COLOUR_RGB($,0.156862745098039,0.156862745098039,0.156862745098039);
#237=FILL_AREA_STYLE_COLOUR($,#236);
#238=FILL_AREA_STYLE($,(#237));
#239=SURFACE_STYLE_FILL_AREA(#238);
#240=SURFACE_SIDE_STYLE('',(#239));
#241=SURFACE_STYLE_USAGE(.BOTH.,#240);
#242=PRESENTATION_STYLE_ASSIGNMENT((#241));
#243=STYLED_ITEM('',(#242),#235);
#244=ADVANCED_FACE('',(#730,#732,#734,#736,#738,#740),#742,.F.);
#245=COLOUR_RGB($,0.156862745098039,0.156862745098039,0.156862745098039);
#246=FILL_AREA_STYLE_COLOUR($,#245);
#247=FILL_AREA_STYLE($,(#246));
#248=SURFACE_STYLE_FILL_AREA(#247);
#249=SURFACE_SIDE_STYLE('',(#248));
#250=SURFACE_STYLE_USAGE(.BOTH.,#249);
#251=PRESENTATION_STYLE_ASSIGNMENT((#250));
#252=STYLED_ITEM('',(#251),#244);
#253=ADVANCED_FACE('',(#747),#749,.F.);
#254=COLOUR_RGB($,0.156862745098039,0.156862745098039,0.156862745098039);
#255=FILL_AREA_STYLE_COLOUR($,#254);
#256=FILL_AREA_STYLE($,(#255));
#257=SURFACE_STYLE_FILL_AREA(#256);
#258=SURFACE_SIDE_STYLE('',(#257));
#259=SURFACE_STYLE_USAGE(.BOTH.,#258);
#260=PRESENTATION_STYLE_ASSIGNMENT((#259));
#261=STYLED_ITEM('',(#260),#253);
#262=ADVANCED_FACE('',(#754),#756,.F.);
#263=COLOUR_RGB($,0.156862745098039,0.156862745098039,0.156862745098039);
#264=FILL_AREA_STYLE_COLOUR($,#263);
#265=FILL_AREA_STYLE($,(#264));
#266=SURFACE_STYLE_FILL_AREA(#265);
#267=SURFACE_SIDE_STYLE('',(#266));
#268=SURFACE_STYLE_USAGE(.BOTH.,#267);
#269=PRESENTATION_STYLE_ASSIGNMENT((#268));
#270=STYLED_ITEM('',(#269),#262);
#271=ADVANCED_FACE('',(#761),#763,.F.);
#272=COLOUR_RGB($,0.156862745098039,0.156862745098039,0.156862745098039);
#273=FILL_AREA_STYLE_COLOUR($,#272);
#274=FILL_AREA_STYLE($,(#273));
#275=SURFACE_STYLE_FILL_AREA(#274);
#276=SURFACE_SIDE_STYLE('',(#275));
#277=SURFACE_STYLE_USAGE(.BOTH.,#276);
#278=PRESENTATION_STYLE_ASSIGNMENT((#277));
#279=STYLED_ITEM('',(#278),#271);
#280=ADVANCED_FACE('',(#768),#770,.F.);
#281=COLOUR_RGB($,0.156862745098039,0.156862745098039,0.156862745098039);
#282=FILL_AREA_STYLE_COLOUR($,#281);
#283=FILL_AREA_STYLE($,(#282));
#284=SURFACE_STYLE_FILL_AREA(#283);
#285=SURFACE_SIDE_STYLE('',(#284));
#286=SURFACE_STYLE_USAGE(.BOTH.,#285);
#287=PRESENTATION_STYLE_ASSIGNMENT((#286));
#288=STYLED_ITEM('',(#287),#280);
#289=ADVANCED_FACE('',(#775),#777,.F.);
#290=COLOUR_RGB($,0.156862745098039,0.156862745098039,0.156862745098039);
#291=FILL_AREA_STYLE_COLOUR($,#290);
#292=FILL_AREA_STYLE($,(#291));
#293=SURFACE_STYLE_FILL_AREA(#292);
#294=SURFACE_SIDE_STYLE('',(#293));
#295=SURFACE_STYLE_USAGE(.BOTH.,#294);
#296=PRESENTATION_STYLE_ASSIGNMENT((#295));
#297=STYLED_ITEM('',(#296),#289);
#298=ADVANCED_FACE('',(#782),#784,.F.);
#299=COLOUR_RGB($,0.156862745098039,0.156862745098039,0.156862745098039);
#300=FILL_AREA_STYLE_COLOUR($,#299);
#301=FILL_AREA_STYLE($,(#300));
#302=SURFACE_STYLE_FILL_AREA(#301);
#303=SURFACE_SIDE_STYLE('',(#302));
#304=SURFACE_STYLE_USAGE(.BOTH.,#303);
#305=PRESENTATION_STYLE_ASSIGNMENT((#304));
#306=STYLED_ITEM('',(#305),#298);
#307=ADVANCED_FACE('',(#789),#791,.F.);
#308=COLOUR_RGB($,0.156862745098039,0.156862745098039,0.156862745098039);
#309=FILL_AREA_STYLE_COLOUR($,#308);
#310=FILL_AREA_STYLE($,(#309));
#311=SURFACE_STYLE_FILL_AREA(#310);
#312=SURFACE_SIDE_STYLE('',(#311));
#313=SURFACE_STYLE_USAGE(.BOTH.,#312);
#314=PRESENTATION_STYLE_ASSIGNMENT((#313));
#315=STYLED_ITEM('',(#314),#307);
#316=ADVANCED_FACE('',(#796),#798,.T.);
#317=COLOUR_RGB($,0.156862745098039,0.156862745098039,0.156862745098039);
#318=FILL_AREA_STYLE_COLOUR($,#317);
#319=FILL_AREA_STYLE($,(#318));
#320=SURFACE_STYLE_FILL_AREA(#319);
#321=SURFACE_SIDE_STYLE('',(#320));
#322=SURFACE_STYLE_USAGE(.BOTH.,#321);
#323=PRESENTATION_STYLE_ASSIGNMENT((#322));
#324=STYLED_ITEM('',(#323),#316);
#325=ADVANCED_FACE('',(#803),#805,.T.);
#326=COLOUR_RGB($,0.156862745098039,0.156862745098039,0.156862745098039);
#327=FILL_AREA_STYLE_COLOUR($,#326);
#328=FILL_AREA_STYLE($,(#327));
#329=SURFACE_STYLE_FILL_AREA(#328);
#330=SURFACE_SIDE_STYLE('',(#329));
#331=SURFACE_STYLE_USAGE(.BOTH.,#330);
#332=PRESENTATION_STYLE_ASSIGNMENT((#331));
#333=STYLED_ITEM('',(#332),#325);
#334=ADVANCED_FACE('',(#810),#812,.T.);
#335=COLOUR_RGB($,0.156862745098039,0.156862745098039,0.156862745098039);
#336=FILL_AREA_STYLE_COLOUR($,#335);
#337=FILL_AREA_STYLE($,(#336));
#338=SURFACE_STYLE_FILL_AREA(#337);
#339=SURFACE_SIDE_STYLE('',(#338));
#340=SURFACE_STYLE_USAGE(.BOTH.,#339);
#341=PRESENTATION_STYLE_ASSIGNMENT((#340));
#342=STYLED_ITEM('',(#341),#334);
#343=ADVANCED_FACE('',(#817),#819,.T.);
#344=COLOUR_RGB($,0.156862745098039,0.156862745098039,0.156862745098039);
#345=FILL_AREA_STYLE_COLOUR($,#344);
#346=FILL_AREA_STYLE($,(#345));
#347=SURFACE_STYLE_FILL_AREA(#346);
#348=SURFACE_SIDE_STYLE('',(#347));
#349=SURFACE_STYLE_USAGE(.BOTH.,#348);
#350=PRESENTATION_STYLE_ASSIGNMENT((#349));
#351=STYLED_ITEM('',(#350),#343);
#352=ADVANCED_FACE('',(#824),#826,.T.);
#353=COLOUR_RGB($,0.156862745098039,0.156862745098039,0.156862745098039);
#354=FILL_AREA_STYLE_COLOUR($,#353);
#355=FILL_AREA_STYLE($,(#354));
#356=SURFACE_STYLE_FILL_AREA(#355);
#357=SURFACE_SIDE_STYLE('',(#356));
#358=SURFACE_STYLE_USAGE(.BOTH.,#357);
#359=PRESENTATION_STYLE_ASSIGNMENT((#358));
#360=STYLED_ITEM('',(#359),#352);
#361=ADVANCED_FACE('',(#831),#833,.T.);
#362=COLOUR_RGB($,0.156862745098039,0.156862745098039,0.156862745098039);
#363=FILL_AREA_STYLE_COLOUR($,#362);
#364=FILL_AREA_STYLE($,(#363));
#365=SURFACE_STYLE_FILL_AREA(#364);
#366=SURFACE_SIDE_STYLE('',(#365));
#367=SURFACE_STYLE_USAGE(.BOTH.,#366);
#368=PRESENTATION_STYLE_ASSIGNMENT((#367));
#369=STYLED_ITEM('',(#368),#361);
#370=ADVANCED_FACE('',(#838),#840,.T.);
#371=COLOUR_RGB($,0.156862745098039,0.156862745098039,0.156862745098039);
#372=FILL_AREA_STYLE_COLOUR($,#371);
#373=FILL_AREA_STYLE($,(#372));
#374=SURFACE_STYLE_FILL_AREA(#373);
#375=SURFACE_SIDE_STYLE('',(#374));
#376=SURFACE_STYLE_USAGE(.BOTH.,#375);
#377=PRESENTATION_STYLE_ASSIGNMENT((#376));
#378=STYLED_ITEM('',(#377),#370);
#379=ADVANCED_FACE('',(#845),#847,.T.);
#380=COLOUR_RGB($,0.156862745098039,0.156862745098039,0.156862745098039);
#381=FILL_AREA_STYLE_COLOUR($,#380);
#382=FILL_AREA_STYLE($,(#381));
#383=SURFACE_STYLE_FILL_AREA(#382);
#384=SURFACE_SIDE_STYLE('',(#383));
#385=SURFACE_STYLE_USAGE(.BOTH.,#384);
#386=PRESENTATION_STYLE_ASSIGNMENT((#385));
#387=STYLED_ITEM('',(#386),#379);
#388=ADVANCED_FACE('',(#852),#854,.F.);
#389=COLOUR_RGB($,0.156862745098039,0.156862745098039,0.156862745098039);
#390=FILL_AREA_STYLE_COLOUR($,#389);
#391=FILL_AREA_STYLE($,(#390));
#392=SURFACE_STYLE_FILL_AREA(#391);
#393=SURFACE_SIDE_STYLE('',(#392));
#394=SURFACE_STYLE_USAGE(.BOTH.,#393);
#395=PRESENTATION_STYLE_ASSIGNMENT((#394));
#396=STYLED_ITEM('',(#395),#388);
#397=ADVANCED_FACE('',(#859),#861,.F.);
#398=COLOUR_RGB($,0.156862745098039,0.156862745098039,0.156862745098039);
#399=FILL_AREA_STYLE_COLOUR($,#398);
#400=FILL_AREA_STYLE($,(#399));
#401=SURFACE_STYLE_FILL_AREA(#400);
#402=SURFACE_SIDE_STYLE('',(#401));
#403=SURFACE_STYLE_USAGE(.BOTH.,#402);
#404=PRESENTATION_STYLE_ASSIGNMENT((#403));
#405=STYLED_ITEM('',(#404),#397);
#406=ADVANCED_FACE('',(#866),#868,.F.);
#407=COLOUR_RGB($,0.156862745098039,0.156862745098039,0.156862745098039);
#408=FILL_AREA_STYLE_COLOUR($,#407);
#409=FILL_AREA_STYLE($,(#408));
#410=SURFACE_STYLE_FILL_AREA(#409);
#411=SURFACE_SIDE_STYLE('',(#410));
#412=SURFACE_STYLE_USAGE(.BOTH.,#411);
#413=PRESENTATION_STYLE_ASSIGNMENT((#412));
#414=STYLED_ITEM('',(#413),#406);
#415=ADVANCED_FACE('',(#873),#875,.T.);
#416=COLOUR_RGB($,0.156862745098039,0.156862745098039,0.156862745098039);
#417=FILL_AREA_STYLE_COLOUR($,#416);
#418=FILL_AREA_STYLE($,(#417));
#419=SURFACE_STYLE_FILL_AREA(#418);
#420=SURFACE_SIDE_STYLE('',(#419));
#421=SURFACE_STYLE_USAGE(.BOTH.,#420);
#422=PRESENTATION_STYLE_ASSIGNMENT((#421));
#423=STYLED_ITEM('',(#422),#415);
#424=ADVANCED_FACE('',(#880),#882,.T.);
#425=COLOUR_RGB($,0.156862745098039,0.156862745098039,0.156862745098039);
#426=FILL_AREA_STYLE_COLOUR($,#425);
#427=FILL_AREA_STYLE($,(#426));
#428=SURFACE_STYLE_FILL_AREA(#427);
#429=SURFACE_SIDE_STYLE('',(#428));
#430=SURFACE_STYLE_USAGE(.BOTH.,#429);
#431=PRESENTATION_STYLE_ASSIGNMENT((#430));
#432=STYLED_ITEM('',(#431),#424);
#433=ADVANCED_FACE('',(#887),#889,.T.);
#434=COLOUR_RGB($,0.156862745098039,0.156862745098039,0.156862745098039);
#435=FILL_AREA_STYLE_COLOUR($,#434);
#436=FILL_AREA_STYLE($,(#435));
#437=SURFACE_STYLE_FILL_AREA(#436);
#438=SURFACE_SIDE_STYLE('',(#437));
#439=SURFACE_STYLE_USAGE(.BOTH.,#438);
#440=PRESENTATION_STYLE_ASSIGNMENT((#439));
#441=STYLED_ITEM('',(#440),#433);
#442=ADVANCED_FACE('',(#894),#896,.T.);
#443=COLOUR_RGB($,0.156862745098039,0.156862745098039,0.156862745098039);
#444=FILL_AREA_STYLE_COLOUR($,#443);
#445=FILL_AREA_STYLE($,(#444));
#446=SURFACE_STYLE_FILL_AREA(#445);
#447=SURFACE_SIDE_STYLE('',(#446));
#448=SURFACE_STYLE_USAGE(.BOTH.,#447);
#449=PRESENTATION_STYLE_ASSIGNMENT((#448));
#450=STYLED_ITEM('',(#449),#442);
#451=ADVANCED_FACE('',(#901),#903,.T.);
#452=COLOUR_RGB($,0.156862745098039,0.156862745098039,0.156862745098039);
#453=FILL_AREA_STYLE_COLOUR($,#452);
#454=FILL_AREA_STYLE($,(#453));
#455=SURFACE_STYLE_FILL_AREA(#454);
#456=SURFACE_SIDE_STYLE('',(#455));
#457=SURFACE_STYLE_USAGE(.BOTH.,#456);
#458=PRESENTATION_STYLE_ASSIGNMENT((#457));
#459=STYLED_ITEM('',(#458),#451);
#460=ADVANCED_FACE('',(#908),#910,.T.);
#461=COLOUR_RGB($,0.156862745098039,0.156862745098039,0.156862745098039);
#462=FILL_AREA_STYLE_COLOUR($,#461);
#463=FILL_AREA_STYLE($,(#462));
#464=SURFACE_STYLE_FILL_AREA(#463);
#465=SURFACE_SIDE_STYLE('',(#464));
#466=SURFACE_STYLE_USAGE(.BOTH.,#465);
#467=PRESENTATION_STYLE_ASSIGNMENT((#466));
#468=STYLED_ITEM('',(#467),#460);
#469=ADVANCED_FACE('',(#915,#917),#919,.F.);
#470=COLOUR_RGB($,0.156862745098039,0.156862745098039,0.156862745098039);
#471=FILL_AREA_STYLE_COLOUR($,#470);
#472=FILL_AREA_STYLE($,(#471));
#473=SURFACE_STYLE_FILL_AREA(#472);
#474=SURFACE_SIDE_STYLE('',(#473));
#475=SURFACE_STYLE_USAGE(.BOTH.,#474);
#476=PRESENTATION_STYLE_ASSIGNMENT((#475));
#477=STYLED_ITEM('',(#476),#469);
#478=ADVANCED_FACE('',(#924,#926),#928,.F.);
#479=COLOUR_RGB($,0.156862745098039,0.156862745098039,0.156862745098039);
#480=FILL_AREA_STYLE_COLOUR($,#479);
#481=FILL_AREA_STYLE($,(#480));
#482=SURFACE_STYLE_FILL_AREA(#481);
#483=SURFACE_SIDE_STYLE('',(#482));
#484=SURFACE_STYLE_USAGE(.BOTH.,#483);
#485=PRESENTATION_STYLE_ASSIGNMENT((#484));
#486=STYLED_ITEM('',(#485),#478);
#487=ADVANCED_FACE('',(#933,#935),#937,.F.);
#488=COLOUR_RGB($,0.156862745098039,0.156862745098039,0.156862745098039);
#489=FILL_AREA_STYLE_COLOUR($,#488);
#490=FILL_AREA_STYLE($,(#489));
#491=SURFACE_STYLE_FILL_AREA(#490);
#492=SURFACE_SIDE_STYLE('',(#491));
#493=SURFACE_STYLE_USAGE(.BOTH.,#492);
#494=PRESENTATION_STYLE_ASSIGNMENT((#493));
#495=STYLED_ITEM('',(#494),#487);
#496=ADVANCED_FACE('',(#942,#944),#946,.F.);
#497=COLOUR_RGB($,0.156862745098039,0.156862745098039,0.156862745098039);
#498=FILL_AREA_STYLE_COLOUR($,#497);
#499=FILL_AREA_STYLE($,(#498));
#500=SURFACE_STYLE_FILL_AREA(#499);
#501=SURFACE_SIDE_STYLE('',(#500));
#502=SURFACE_STYLE_USAGE(.BOTH.,#501);
#503=PRESENTATION_STYLE_ASSIGNMENT((#502));
#504=STYLED_ITEM('',(#503),#496);
#505=ADVANCED_FACE('',(#951),#953,.T.);
#506=COLOUR_RGB($,0.827450980392157,0.831372549019608,0.835294117647059);
#507=FILL_AREA_STYLE_COLOUR($,#506);
#508=FILL_AREA_STYLE($,(#507));
#509=SURFACE_STYLE_FILL_AREA(#508);
#510=SURFACE_SIDE_STYLE('',(#509));
#511=SURFACE_STYLE_USAGE(.BOTH.,#510);
#512=PRESENTATION_STYLE_ASSIGNMENT((#511));
#513=STYLED_ITEM('',(#512),#505);
#514=ADVANCED_FACE('',(#958,#960),#962,.T.);
#515=COLOUR_RGB($,0.827450980392157,0.831372549019608,0.835294117647059);
#516=FILL_AREA_STYLE_COLOUR($,#515);
#517=FILL_AREA_STYLE($,(#516));
#518=SURFACE_STYLE_FILL_AREA(#517);
#519=SURFACE_SIDE_STYLE('',(#518));
#520=SURFACE_STYLE_USAGE(.BOTH.,#519);
#521=PRESENTATION_STYLE_ASSIGNMENT((#520));
#522=STYLED_ITEM('',(#521),#514);
#523=ADVANCED_FACE('',(#967,#969),#971,.T.);
#524=COLOUR_RGB($,0.827450980392157,0.831372549019608,0.835294117647059);
#525=FILL_AREA_STYLE_COLOUR($,#524);
#526=FILL_AREA_STYLE($,(#525));
#527=SURFACE_STYLE_FILL_AREA(#526);
#528=SURFACE_SIDE_STYLE('',(#527));
#529=SURFACE_STYLE_USAGE(.BOTH.,#528);
#530=PRESENTATION_STYLE_ASSIGNMENT((#529));
#531=STYLED_ITEM('',(#530),#523);
#532=ADVANCED_FACE('',(#976,#978),#980,.T.);
#533=COLOUR_RGB($,0.827450980392157,0.831372549019608,0.835294117647059);
#534=FILL_AREA_STYLE_COLOUR($,#533);
#535=FILL_AREA_STYLE($,(#534));
#536=SURFACE_STYLE_FILL_AREA(#535);
#537=SURFACE_SIDE_STYLE('',(#536));
#538=SURFACE_STYLE_USAGE(.BOTH.,#537);
#539=PRESENTATION_STYLE_ASSIGNMENT((#538));
#540=STYLED_ITEM('',(#539),#532);
#541=ADVANCED_FACE('',(#985,#987),#989,.T.);
#542=COLOUR_RGB($,0.827450980392157,0.831372549019608,0.835294117647059);
#543=FILL_AREA_STYLE_COLOUR($,#542);
#544=FILL_AREA_STYLE($,(#543));
#545=SURFACE_STYLE_FILL_AREA(#544);
#546=SURFACE_SIDE_STYLE('',(#545));
#547=SURFACE_STYLE_USAGE(.BOTH.,#546);
#548=PRESENTATION_STYLE_ASSIGNMENT((#547));
#549=STYLED_ITEM('',(#548),#541);
#550=ADVANCED_FACE('',(#994,#996),#998,.T.);
#551=COLOUR_RGB($,0.827450980392157,0.831372549019608,0.835294117647059);
#552=FILL_AREA_STYLE_COLOUR($,#551);
#553=FILL_AREA_STYLE($,(#552));
#554=SURFACE_STYLE_FILL_AREA(#553);
#555=SURFACE_SIDE_STYLE('',(#554));
#556=SURFACE_STYLE_USAGE(.BOTH.,#555);
#557=PRESENTATION_STYLE_ASSIGNMENT((#556));
#558=STYLED_ITEM('',(#557),#550);
#559=ADVANCED_FACE('',(#1003,#1005),#1007,.T.);
#560=COLOUR_RGB($,0.827450980392157,0.831372549019608,0.835294117647059);
#561=FILL_AREA_STYLE_COLOUR($,#560);
#562=FILL_AREA_STYLE($,(#561));
#563=SURFACE_STYLE_FILL_AREA(#562);
#564=SURFACE_SIDE_STYLE('',(#563));
#565=SURFACE_STYLE_USAGE(.BOTH.,#564);
#566=PRESENTATION_STYLE_ASSIGNMENT((#565));
#567=STYLED_ITEM('',(#566),#559);
#568=ADVANCED_FACE('',(#1012,#1014),#1016,.T.);
#569=COLOUR_RGB($,0.827450980392157,0.831372549019608,0.835294117647059);
#570=FILL_AREA_STYLE_COLOUR($,#569);
#571=FILL_AREA_STYLE($,(#570));
#572=SURFACE_STYLE_FILL_AREA(#571);
#573=SURFACE_SIDE_STYLE('',(#572));
#574=SURFACE_STYLE_USAGE(.BOTH.,#573);
#575=PRESENTATION_STYLE_ASSIGNMENT((#574));
#576=STYLED_ITEM('',(#575),#568);
#577=ADVANCED_FACE('',(#1021,#1023),#1025,.T.);
#578=COLOUR_RGB($,0.827450980392157,0.831372549019608,0.835294117647059);
#579=FILL_AREA_STYLE_COLOUR($,#578);
#580=FILL_AREA_STYLE($,(#579));
#581=SURFACE_STYLE_FILL_AREA(#580);
#582=SURFACE_SIDE_STYLE('',(#581));
#583=SURFACE_STYLE_USAGE(.BOTH.,#582);
#584=PRESENTATION_STYLE_ASSIGNMENT((#583));
#585=STYLED_ITEM('',(#584),#577);
#586=ADVANCED_FACE('',(#1030,#1032),#1034,.T.);
#587=COLOUR_RGB($,0.827450980392157,0.831372549019608,0.835294117647059);
#588=FILL_AREA_STYLE_COLOUR($,#587);
#589=FILL_AREA_STYLE($,(#588));
#590=SURFACE_STYLE_FILL_AREA(#589);
#591=SURFACE_SIDE_STYLE('',(#590));
#592=SURFACE_STYLE_USAGE(.BOTH.,#591);
#593=PRESENTATION_STYLE_ASSIGNMENT((#592));
#594=STYLED_ITEM('',(#593),#586);
#595=ADVANCED_FACE('',(#1039,#1041),#1043,.T.);
#596=COLOUR_RGB($,0.827450980392157,0.831372549019608,0.835294117647059);
#597=FILL_AREA_STYLE_COLOUR($,#596);
#598=FILL_AREA_STYLE($,(#597));
#599=SURFACE_STYLE_FILL_AREA(#598);
#600=SURFACE_SIDE_STYLE('',(#599));
#601=SURFACE_STYLE_USAGE(.BOTH.,#600);
#602=PRESENTATION_STYLE_ASSIGNMENT((#601));
#603=STYLED_ITEM('',(#602),#595);
#604=ADVANCED_FACE('',(#1048,#1050),#1052,.F.);
#605=COLOUR_RGB($,0.827450980392157,0.831372549019608,0.835294117647059);
#606=FILL_AREA_STYLE_COLOUR($,#605);
#607=FILL_AREA_STYLE($,(#606));
#608=SURFACE_STYLE_FILL_AREA(#607);
#609=SURFACE_SIDE_STYLE('',(#608));
#610=SURFACE_STYLE_USAGE(.BOTH.,#609);
#611=PRESENTATION_STYLE_ASSIGNMENT((#610));
#612=STYLED_ITEM('',(#611),#604);
#613=ADVANCED_FACE('',(#1057,#1059),#1061,.F.);
#614=COLOUR_RGB($,0.827450980392157,0.831372549019608,0.835294117647059);
#615=FILL_AREA_STYLE_COLOUR($,#614);
#616=FILL_AREA_STYLE($,(#615));
#617=SURFACE_STYLE_FILL_AREA(#616);
#618=SURFACE_SIDE_STYLE('',(#617));
#619=SURFACE_STYLE_USAGE(.BOTH.,#618);
#620=PRESENTATION_STYLE_ASSIGNMENT((#619));
#621=STYLED_ITEM('',(#620),#613);
#622=ADVANCED_FACE('',(#1066,#1068),#1070,.F.);
#623=COLOUR_RGB($,0.827450980392157,0.831372549019608,0.835294117647059);
#624=FILL_AREA_STYLE_COLOUR($,#623);
#625=FILL_AREA_STYLE($,(#624));
#626=SURFACE_STYLE_FILL_AREA(#625);
#627=SURFACE_SIDE_STYLE('',(#626));
#628=SURFACE_STYLE_USAGE(.BOTH.,#627);
#629=PRESENTATION_STYLE_ASSIGNMENT((#628));
#630=STYLED_ITEM('',(#629),#622);
#631=ADVANCED_FACE('',(#1075,#1077),#1079,.T.);
#632=COLOUR_RGB($,0.827450980392157,0.831372549019608,0.835294117647059);
#633=FILL_AREA_STYLE_COLOUR($,#632);
#634=FILL_AREA_STYLE($,(#633));
#635=SURFACE_STYLE_FILL_AREA(#634);
#636=SURFACE_SIDE_STYLE('',(#635));
#637=SURFACE_STYLE_USAGE(.BOTH.,#636);
#638=PRESENTATION_STYLE_ASSIGNMENT((#637));
#639=STYLED_ITEM('',(#638),#631);
#640=ADVANCED_FACE('',(#1084,#1086),#1088,.F.);
#641=COLOUR_RGB($,0.827450980392157,0.831372549019608,0.835294117647059);
#642=FILL_AREA_STYLE_COLOUR($,#641);
#643=FILL_AREA_STYLE($,(#642));
#644=SURFACE_STYLE_FILL_AREA(#643);
#645=SURFACE_SIDE_STYLE('',(#644));
#646=SURFACE_STYLE_USAGE(.BOTH.,#645);
#647=PRESENTATION_STYLE_ASSIGNMENT((#646));
#648=STYLED_ITEM('',(#647),#640);
#649=ADVANCED_FACE('',(#1093,#1095),#1097,.F.);
#650=COLOUR_RGB($,0.827450980392157,0.831372549019608,0.835294117647059);
#651=FILL_AREA_STYLE_COLOUR($,#650);
#652=FILL_AREA_STYLE($,(#651));
#653=SURFACE_STYLE_FILL_AREA(#652);
#654=SURFACE_SIDE_STYLE('',(#653));
#655=SURFACE_STYLE_USAGE(.BOTH.,#654);
#656=PRESENTATION_STYLE_ASSIGNMENT((#655));
#657=STYLED_ITEM('',(#656),#649);
#658=ADVANCED_FACE('',(#1102,#1104),#1106,.F.);
#659=COLOUR_RGB($,0.827450980392157,0.831372549019608,0.835294117647059);
#660=FILL_AREA_STYLE_COLOUR($,#659);
#661=FILL_AREA_STYLE($,(#660));
#662=SURFACE_STYLE_FILL_AREA(#661);
#663=SURFACE_SIDE_STYLE('',(#662));
#664=SURFACE_STYLE_USAGE(.BOTH.,#663);
#665=PRESENTATION_STYLE_ASSIGNMENT((#664));
#666=STYLED_ITEM('',(#665),#658);
#667=ADVANCED_FACE('',(#1111,#1113),#1115,.F.);
#668=COLOUR_RGB($,0.827450980392157,0.831372549019608,0.835294117647059);
#669=FILL_AREA_STYLE_COLOUR($,#668);
#670=FILL_AREA_STYLE($,(#669));
#671=SURFACE_STYLE_FILL_AREA(#670);
#672=SURFACE_SIDE_STYLE('',(#671));
#673=SURFACE_STYLE_USAGE(.BOTH.,#672);
#674=PRESENTATION_STYLE_ASSIGNMENT((#673));
#675=STYLED_ITEM('',(#674),#667);
#676=ADVANCED_FACE('',(#1120),#1122,.T.);
#677=COLOUR_RGB($,0.827450980392157,0.831372549019608,0.835294117647059);
#678=FILL_AREA_STYLE_COLOUR($,#677);
#679=FILL_AREA_STYLE($,(#678));
#680=SURFACE_STYLE_FILL_AREA(#679);
#681=SURFACE_SIDE_STYLE('',(#680));
#682=SURFACE_STYLE_USAGE(.BOTH.,#681);
#683=PRESENTATION_STYLE_ASSIGNMENT((#682));
#684=STYLED_ITEM('',(#683),#676);
#685=FACE_BOUND('',#686,.T.);
#686=EDGE_LOOP('',(#1127,#1128,#1129,#1130));
#687=PLANE('',#688);
#688=AXIS2_PLACEMENT_3D('',#689,#690,#691);
#689=CARTESIAN_POINT('',(1.29718923360973,0.987321452144849,0.63));
#690=DIRECTION('',(0.906307787036574,-0.422618261740861,0.));
#691=DIRECTION('',(0.422618261740861,0.906307787036574,0.));
#692=FACE_BOUND('',#693,.T.);
#693=EDGE_LOOP('',(#1131,#1132,#1133,#1134));
#694=PLANE('',#695);
#695=AXIS2_PLACEMENT_3D('',#696,#697,#698);
#696=CARTESIAN_POINT('',(1.11099559472921,1.27,0.63));
#697=DIRECTION('',(-0.906307787036574,-0.422618261740862,0.));
#698=DIRECTION('',(0.422618261740862,-0.906307787036574,0.));
#699=FACE_BOUND('',#700,.T.);
#700=EDGE_LOOP('',(#1135,#1136,#1137,#1138));
#701=PLANE('',#702);
#702=AXIS2_PLACEMENT_3D('',#703,#704,#705);
#703=CARTESIAN_POINT('',(3.7851077025535,3.81,0.63));
#704=DIRECTION('',(0.,1.,-0.));
#705=DIRECTION('',(-1.,0.,0.));
#706=FACE_BOUND('',#707,.T.);
#707=EDGE_LOOP('',(#1139,#1140,#1141,#1142));
#708=PLANE('',#709);
#709=AXIS2_PLACEMENT_3D('',#710,#711,#712);
#710=CARTESIAN_POINT('',(3.7851077025535,3.81,0.63));
#711=DIRECTION('',(0.,1.,-0.));
#712=DIRECTION('',(-1.,0.,0.));
#713=FACE_BOUND('',#714,.T.);
#714=EDGE_LOOP('',(#1143,#1144,#1145,#1146,#1147,#1148,#1149,#1150,#1151,#1152,#1153,
#1154,#1155,#1156,#1157,#1158,#1159,#1160,#1161,#1162,#1163,#1164));
#715=FACE_BOUND('',#716,.T.);
#716=EDGE_LOOP('',(#1165,#1166,#1167,#1168,#1169,#1170));
#717=FACE_BOUND('',#718,.T.);
#718=EDGE_LOOP('',(#1171));
#719=FACE_BOUND('',#720,.T.);
#720=EDGE_LOOP('',(#1172));
#721=FACE_BOUND('',#722,.T.);
#722=EDGE_LOOP('',(#1173));
#723=FACE_BOUND('',#724,.T.);
#724=EDGE_LOOP('',(#1174));
#725=PLANE('',#726);
#726=AXIS2_PLACEMENT_3D('',#727,#728,#729);
#727=CARTESIAN_POINT('',(0.,0.,1.9));
#728=DIRECTION('',(0.,0.,1.));
#729=DIRECTION('',(1.,0.,0.));
#730=FACE_BOUND('',#731,.T.);
#731=EDGE_LOOP('',(#1175,#1176,#1177,#1178,#1179,#1180,#1181,#1182,#1183,#1184,#1185,
#1186,#1187,#1188,#1189,#1190,#1191,#1192,#1193,#1194,#1195,#1196));
#732=FACE_BOUND('',#733,.T.);
#733=EDGE_LOOP('',(#1197,#1198,#1199,#1200,#1201,#1202));
#734=FACE_BOUND('',#735,.T.);
#735=EDGE_LOOP('',(#1203));
#736=FACE_BOUND('',#737,.T.);
#737=EDGE_LOOP('',(#1204));
#738=FACE_BOUND('',#739,.T.);
#739=EDGE_LOOP('',(#1205));
#740=FACE_BOUND('',#741,.T.);
#741=EDGE_LOOP('',(#1206));
#742=PLANE('',#743);
#743=AXIS2_PLACEMENT_3D('',#744,#745,#746);
#744=CARTESIAN_POINT('',(0.,0.,0.63));
#745=DIRECTION('',(0.,0.,1.));
#746=DIRECTION('',(1.,0.,0.));
#747=FACE_BOUND('',#748,.T.);
#748=EDGE_LOOP('',(#1207,#1208,#1209,#1210));
#749=CYLINDRICAL_SURFACE('',#750,0.03);
#750=AXIS2_PLACEMENT_3D('',#751,#752,#753);
#751=CARTESIAN_POINT('',(1.27,3.54,0.63));
#752=DIRECTION('',(0.,0.,1.));
#753=DIRECTION('',(-0.906307786991439,-0.422618261837655,0.));
#754=FACE_BOUND('',#755,.T.);
#755=EDGE_LOOP('',(#1211,#1212,#1213,#1214));
#756=PLANE('',#757);
#757=AXIS2_PLACEMENT_3D('',#758,#759,#760);
#758=CARTESIAN_POINT('',(1.11099559472921,3.81,0.63));
#759=DIRECTION('',(-0.906307787036574,-0.422618261740862,0.));
#760=DIRECTION('',(0.422618261740862,-0.906307787036574,0.));
#761=FACE_BOUND('',#762,.T.);
#762=EDGE_LOOP('',(#1215,#1216,#1217,#1218));
#763=PLANE('',#764);
#764=AXIS2_PLACEMENT_3D('',#765,#766,#767);
#765=CARTESIAN_POINT('',(1.29718923360973,3.52732145214485,0.63));
#766=DIRECTION('',(0.906307787036574,-0.422618261740861,0.));
#767=DIRECTION('',(0.422618261740861,0.906307787036574,0.));
#768=FACE_BOUND('',#769,.T.);
#769=EDGE_LOOP('',(#1219,#1220,#1221,#1222));
#770=PLANE('',#771);
#771=AXIS2_PLACEMENT_3D('',#772,#773,#774);
#772=CARTESIAN_POINT('',(1.42900440527079,1.27,0.63));
#773=DIRECTION('',(0.906307787036574,0.422618261740862,-0.));
#774=DIRECTION('',(-0.422618261740862,0.906307787036574,0.));
#775=FACE_BOUND('',#776,.T.);
#776=EDGE_LOOP('',(#1223,#1224,#1225,#1226));
#777=PLANE('',#778);
#778=AXIS2_PLACEMENT_3D('',#779,#780,#781);
#779=CARTESIAN_POINT('',(1.24281076639027,1.55267854785516,0.63));
#780=DIRECTION('',(-0.906307787036574,0.422618261740862,0.));
#781=DIRECTION('',(-0.422618261740862,-0.906307787036574,0.));
#782=FACE_BOUND('',#783,.T.);
#783=EDGE_LOOP('',(#1227,#1228,#1229,#1230));
#784=CYLINDRICAL_SURFACE('',#785,0.03);
#785=AXIS2_PLACEMENT_3D('',#786,#787,#788);
#786=CARTESIAN_POINT('',(1.27,1.54,0.63));
#787=DIRECTION('',(0.,0.,1.));
#788=DIRECTION('',(0.906307786056526,0.422618263842583,0.));
#789=FACE_BOUND('',#790,.T.);
#790=EDGE_LOOP('',(#1231,#1232,#1233,#1234));
#791=CYLINDRICAL_SURFACE('',#792,0.03);
#792=AXIS2_PLACEMENT_3D('',#793,#794,#795);
#793=CARTESIAN_POINT('',(1.27,1.,0.63));
#794=DIRECTION('',(0.,0.,1.));
#795=DIRECTION('',(-0.906307786991439,-0.422618261837655,0.));
#796=FACE_BOUND('',#797,.T.);
#797=EDGE_LOOP('',(#1235,#1236,#1237,#1238));
#798=PLANE('',#799);
#799=AXIS2_PLACEMENT_3D('',#800,#801,#802);
#800=CARTESIAN_POINT('',(3.925,3.51,0.63));
#801=DIRECTION('',(0.90630778703665,0.422618261740699,-0.));
#802=DIRECTION('',(-0.422618261740699,0.90630778703665,0.));
#803=FACE_BOUND('',#804,.T.);
#804=EDGE_LOOP('',(#1239,#1240,#1241,#1242));
#805=PLANE('',#806);
#806=AXIS2_PLACEMENT_3D('',#807,#808,#809);
#807=CARTESIAN_POINT('',(-1.2451077025535,3.81,0.63));
#808=DIRECTION('',(-0.90630778703665,0.422618261740699,0.));
#809=DIRECTION('',(-0.4226182617407,-0.90630778703665,0.));
#810=FACE_BOUND('',#811,.T.);
#811=EDGE_LOOP('',(#1243,#1244,#1245,#1246));
#812=PLANE('',#813);
#813=AXIS2_PLACEMENT_3D('',#814,#815,#816);
#814=CARTESIAN_POINT('',(-1.385,3.51,0.63));
#815=DIRECTION('',(-1.,2.28911963840238E-016,0.));
#816=DIRECTION('',(-2.28911963840238E-016,-1.,0.));
#817=FACE_BOUND('',#818,.T.);
#818=EDGE_LOOP('',(#1247,#1248,#1249,#1250));
#819=PLANE('',#820);
#820=AXIS2_PLACEMENT_3D('',#821,#822,#823);
#821=CARTESIAN_POINT('',(-1.385,1.57,0.63));
#822=DIRECTION('',(-0.90630778703665,-0.422618261740699,0.));
#823=DIRECTION('',(0.422618261740699,-0.90630778703665,0.));
#824=FACE_BOUND('',#825,.T.);
#825=EDGE_LOOP('',(#1251,#1252,#1253,#1254));
#826=PLANE('',#827);
#827=AXIS2_PLACEMENT_3D('',#828,#829,#830);
#828=CARTESIAN_POINT('',(-1.2451077025535,1.27,0.63));
#829=DIRECTION('',(-0.90630778703665,0.422618261740699,0.));
#830=DIRECTION('',(-0.4226182617407,-0.90630778703665,0.));
#831=FACE_BOUND('',#832,.T.);
#832=EDGE_LOOP('',(#1255,#1256,#1257,#1258));
#833=PLANE('',#834);
#834=AXIS2_PLACEMENT_3D('',#835,#836,#837);
#835=CARTESIAN_POINT('',(-1.385,0.970000000000001,0.63));
#836=DIRECTION('',(-1.,2.28911963840238E-016,0.));
#837=DIRECTION('',(-2.28911963840238E-016,-1.,0.));
#838=FACE_BOUND('',#839,.T.);
#839=EDGE_LOOP('',(#1259,#1260,#1261,#1262));
#840=PLANE('',#841);
#841=AXIS2_PLACEMENT_3D('',#842,#843,#844);
#842=CARTESIAN_POINT('',(-1.385,-0.97,0.63));
#843=DIRECTION('',(-0.90630778703665,-0.422618261740699,0.));
#844=DIRECTION('',(0.422618261740699,-0.90630778703665,0.));
#845=FACE_BOUND('',#846,.T.);
#846=EDGE_LOOP('',(#1263,#1264,#1265,#1266));
#847=PLANE('',#848);
#848=AXIS2_PLACEMENT_3D('',#849,#850,#851);
#849=CARTESIAN_POINT('',(-1.2451077025535,-1.27,0.63));
#850=DIRECTION('',(0.,-1.,0.));
#851=DIRECTION('',(1.,0.,0.));
#852=FACE_BOUND('',#853,.T.);
#853=EDGE_LOOP('',(#1267,#1268,#1269,#1270));
#854=PLANE('',#855);
#855=AXIS2_PLACEMENT_3D('',#856,#857,#858);
#856=CARTESIAN_POINT('',(1.24281076639027,-0.987321452144841,0.63));
#857=DIRECTION('',(-0.906307787036574,0.422618261740862,0.));
#858=DIRECTION('',(-0.422618261740862,-0.906307787036574,0.));
#859=FACE_BOUND('',#860,.T.);
#860=EDGE_LOOP('',(#1271,#1272,#1273,#1274));
#861=CYLINDRICAL_SURFACE('',#862,0.03);
#862=AXIS2_PLACEMENT_3D('',#863,#864,#865);
#863=CARTESIAN_POINT('',(1.27,-1.,0.63));
#864=DIRECTION('',(0.,0.,1.));
#865=DIRECTION('',(0.906307786056526,0.422618263842583,0.));
#866=FACE_BOUND('',#867,.T.);
#867=EDGE_LOOP('',(#1275,#1276,#1277,#1278));
#868=PLANE('',#869);
#869=AXIS2_PLACEMENT_3D('',#870,#871,#872);
#870=CARTESIAN_POINT('',(1.42900440527079,-1.27,0.63));
#871=DIRECTION('',(0.906307787036574,0.422618261740862,-0.));
#872=DIRECTION('',(-0.422618261740862,0.906307787036574,0.));
#873=FACE_BOUND('',#874,.T.);
#874=EDGE_LOOP('',(#1279,#1280,#1281,#1282));
#875=PLANE('',#876);
#876=AXIS2_PLACEMENT_3D('',#877,#878,#879);
#877=CARTESIAN_POINT('',(-1.2451077025535,-1.27,0.63));
#878=DIRECTION('',(0.,-1.,0.));
#879=DIRECTION('',(1.,0.,0.));
#880=FACE_BOUND('',#881,.T.);
#881=EDGE_LOOP('',(#1283,#1284,#1285,#1286));
#882=PLANE('',#883);
#883=AXIS2_PLACEMENT_3D('',#884,#885,#886);
#884=CARTESIAN_POINT('',(3.7851077025535,-1.27,0.63));
#885=DIRECTION('',(0.90630778703665,-0.422618261740699,0.));
#886=DIRECTION('',(0.422618261740699,0.90630778703665,0.));
#887=FACE_BOUND('',#888,.T.);
#888=EDGE_LOOP('',(#1287,#1288,#1289,#1290));
#889=PLANE('',#890);
#890=AXIS2_PLACEMENT_3D('',#891,#892,#893);
#891=CARTESIAN_POINT('',(3.925,-0.97,0.63));
#892=DIRECTION('',(1.,2.28911963840238E-016,-0.));
#893=DIRECTION('',(-2.28911963840239E-016,1.,0.));
#894=FACE_BOUND('',#895,.T.);
#895=EDGE_LOOP('',(#1291,#1292,#1293,#1294));
#896=PLANE('',#897);
#897=AXIS2_PLACEMENT_3D('',#898,#899,#900);
#898=CARTESIAN_POINT('',(3.925,0.97,0.63));
#899=DIRECTION('',(0.90630778703665,0.422618261740699,-0.));
#900=DIRECTION('',(-0.422618261740699,0.90630778703665,0.));
#901=FACE_BOUND('',#902,.T.);
#902=EDGE_LOOP('',(#1295,#1296,#1297,#1298));
#903=PLANE('',#904);
#904=AXIS2_PLACEMENT_3D('',#905,#906,#907);
#905=CARTESIAN_POINT('',(3.7851077025535,1.27,0.63));
#906=DIRECTION('',(0.90630778703665,-0.422618261740699,0.));
#907=DIRECTION('',(0.422618261740699,0.90630778703665,0.));
#908=FACE_BOUND('',#909,.T.);
#909=EDGE_LOOP('',(#1299,#1300,#1301,#1302));
#910=PLANE('',#911);
#911=AXIS2_PLACEMENT_3D('',#912,#913,#914);
#912=CARTESIAN_POINT('',(3.925,1.57,0.63));
#913=DIRECTION('',(1.,2.28911963840238E-016,-0.));
#914=DIRECTION('',(-2.28911963840239E-016,1.,0.));
#915=FACE_OUTER_BOUND('',#916,.T.);
#916=EDGE_LOOP('',(#1303));
#917=FACE_OUTER_BOUND('',#918,.T.);
#918=EDGE_LOOP('',(#1304));
#919=CYLINDRICAL_SURFACE('',#920,0.66);
#920=AXIS2_PLACEMENT_3D('',#921,#922,#923);
#921=CARTESIAN_POINT('',(0.,0.,0.));
#922=DIRECTION('',(0.,0.,1.));
#923=DIRECTION('',(1.,0.,0.));
#924=FACE_OUTER_BOUND('',#925,.T.);
#925=EDGE_LOOP('',(#1305));
#926=FACE_OUTER_BOUND('',#927,.T.);
#927=EDGE_LOOP('',(#1306));
#928=CYLINDRICAL_SURFACE('',#929,0.66);
#929=AXIS2_PLACEMENT_3D('',#930,#931,#932);
#930=CARTESIAN_POINT('',(2.54,2.54,0.));
#931=DIRECTION('',(0.,0.,1.));
#932=DIRECTION('',(1.,0.,0.));
#933=FACE_OUTER_BOUND('',#934,.T.);
#934=EDGE_LOOP('',(#1307));
#935=FACE_OUTER_BOUND('',#936,.T.);
#936=EDGE_LOOP('',(#1308));
#937=CYLINDRICAL_SURFACE('',#938,0.66);
#938=AXIS2_PLACEMENT_3D('',#939,#940,#941);
#939=CARTESIAN_POINT('',(1.55530143491714E-016,2.54,0.));
#940=DIRECTION('',(0.,0.,1.));
#941=DIRECTION('',(1.,0.,0.));
#942=FACE_OUTER_BOUND('',#943,.T.);
#943=EDGE_LOOP('',(#1309));
#944=FACE_OUTER_BOUND('',#945,.T.);
#945=EDGE_LOOP('',(#1310));
#946=CYLINDRICAL_SURFACE('',#947,0.66);
#947=AXIS2_PLACEMENT_3D('',#948,#949,#950);
#948=CARTESIAN_POINT('',(2.54,0.,0.));
#949=DIRECTION('',(0.,0.,1.));
#950=DIRECTION('',(1.,0.,0.));
#951=FACE_BOUND('',#952,.T.);
#952=EDGE_LOOP('',(#1311));
#953=PLANE('',#954);
#954=AXIS2_PLACEMENT_3D('',#955,#956,#957);
#955=CARTESIAN_POINT('',(0.,0.,-2.42));
#956=DIRECTION('',(-0.,-0.,-1.));
#957=DIRECTION('',(0.,-1.,0.));
#958=FACE_OUTER_BOUND('',#959,.T.);
#959=EDGE_LOOP('',(#1312));
#960=FACE_OUTER_BOUND('',#961,.T.);
#961=EDGE_LOOP('',(#1313));
#962=CONICAL_SURFACE('',#963,0.285,0.785398163397449);
#963=AXIS2_PLACEMENT_3D('',#964,#965,#966);
#964=CARTESIAN_POINT('',(0.,0.,-2.325));
#965=DIRECTION('',(0.,0.,1.));
#966=DIRECTION('',(-0.,1.,-0.));
#967=FACE_OUTER_BOUND('',#968,.T.);
#968=EDGE_LOOP('',(#1314));
#969=FACE_OUTER_BOUND('',#970,.T.);
#970=EDGE_LOOP('',(#1315));
#971=CYLINDRICAL_SURFACE('',#972,0.38);
#972=AXIS2_PLACEMENT_3D('',#973,#974,#975);
#973=CARTESIAN_POINT('',(0.,0.,0.));
#974=DIRECTION('',(-0.,-0.,-1.));
#975=DIRECTION('',(0.,-1.,0.));
#976=FACE_OUTER_BOUND('',#977,.T.);
#977=EDGE_LOOP('',(#1316));
#978=FACE_OUTER_BOUND('',#979,.T.);
#979=EDGE_LOOP('',(#1317));
#980=CONICAL_SURFACE('',#981,0.52,0.785398163397449);
#981=AXIS2_PLACEMENT_3D('',#982,#983,#984);
#982=CARTESIAN_POINT('',(0.,0.,0.14));
#983=DIRECTION('',(0.,0.,1.));
#984=DIRECTION('',(-0.,1.,-0.));
#985=FACE_OUTER_BOUND('',#986,.T.);
#986=EDGE_LOOP('',(#1318));
#987=FACE_OUTER_BOUND('',#988,.T.);
#988=EDGE_LOOP('',(#1319));
#989=CYLINDRICAL_SURFACE('',#990,0.66);
#990=AXIS2_PLACEMENT_3D('',#991,#992,#993);
#991=CARTESIAN_POINT('',(0.,0.,0.852878387081807));
#992=DIRECTION('',(-0.,-0.,-1.));
#993=DIRECTION('',(0.,-1.,0.));
#994=FACE_OUTER_BOUND('',#995,.T.);
#995=EDGE_LOOP('',(#1320));
#996=FACE_OUTER_BOUND('',#997,.T.);
#997=EDGE_LOOP('',(#1321));
#998=CONICAL_SURFACE('',#999,0.735,0.349065850398866);
#999=AXIS2_PLACEMENT_3D('',#1000,#1001,#1002);
#1000=CARTESIAN_POINT('',(0.,0.,1.0589391935409));
#1001=DIRECTION('',(0.,0.,1.));
#1002=DIRECTION('',(-0.,1.,-0.));
#1003=FACE_BOUND('',#1004,.T.);
#1004=EDGE_LOOP('',(#1322));
#1005=FACE_BOUND('',#1006,.T.);
#1006=EDGE_LOOP('',(#1323));
#1007=PLANE('',#1008);
#1008=AXIS2_PLACEMENT_3D('',#1009,#1010,#1011);
#1009=CARTESIAN_POINT('',(0.,0.,1.265));
#1010=DIRECTION('',(0.,0.,1.));
#1011=DIRECTION('',(0.,-1.,0.));
#1012=FACE_OUTER_BOUND('',#1013,.T.);
#1013=EDGE_LOOP('',(#1324));
#1014=FACE_OUTER_BOUND('',#1015,.T.);
#1015=EDGE_LOOP('',(#1325));
#1016=CYLINDRICAL_SURFACE('',#1017,0.66);
#1017=AXIS2_PLACEMENT_3D('',#1018,#1019,#1020);
#1018=CARTESIAN_POINT('',(0.,0.,1.9));
#1019=DIRECTION('',(-0.,-0.,-1.));
#1020=DIRECTION('',(0.,-1.,0.));
#1021=FACE_BOUND('',#1022,.T.);
#1022=EDGE_LOOP('',(#1326));
#1023=FACE_BOUND('',#1024,.T.);
#1024=EDGE_LOOP('',(#1327));
#1025=PLANE('',#1026);
#1026=AXIS2_PLACEMENT_3D('',#1027,#1028,#1029);
#1027=CARTESIAN_POINT('',(0.,0.,1.9));
#1028=DIRECTION('',(-0.,-0.,-1.));
#1029=DIRECTION('',(0.,-1.,0.));
#1030=FACE_OUTER_BOUND('',#1031,.T.);
#1031=EDGE_LOOP('',(#1328));
#1032=FACE_OUTER_BOUND('',#1033,.T.);
#1033=EDGE_LOOP('',(#1329));
#1034=CYLINDRICAL_SURFACE('',#1035,0.915);
#1035=AXIS2_PLACEMENT_3D('',#1036,#1037,#1038);
#1036=CARTESIAN_POINT('',(0.,0.,2.41));
#1037=DIRECTION('',(-0.,-0.,-1.));
#1038=DIRECTION('',(0.,-1.,0.));
#1039=FACE_BOUND('',#1040,.T.);
#1040=EDGE_LOOP('',(#1330));
#1041=FACE_BOUND('',#1042,.T.);
#1042=EDGE_LOOP('',(#1331));
#1043=PLANE('',#1044);
#1044=AXIS2_PLACEMENT_3D('',#1045,#1046,#1047);
#1045=CARTESIAN_POINT('',(0.,0.,2.41));
#1046=DIRECTION('',(0.,0.,1.));
#1047=DIRECTION('',(0.,-1.,0.));
#1048=FACE_OUTER_BOUND('',#1049,.T.);
#1049=EDGE_LOOP('',(#1332));
#1050=FACE_OUTER_BOUND('',#1051,.T.);
#1051=EDGE_LOOP('',(#1333));
#1052=CONICAL_SURFACE('',#1053,0.583909963260681,0.69813170163661);
#1053=AXIS2_PLACEMENT_3D('',#1054,#1055,#1056);
#1054=CARTESIAN_POINT('',(0.,0.,2.31));
#1055=DIRECTION('',(0.,0.,1.));
#1056=DIRECTION('',(-0.,1.,-0.));
#1057=FACE_OUTER_BOUND('',#1058,.T.);
#1058=EDGE_LOOP('',(#1334));
#1059=FACE_OUTER_BOUND('',#1060,.T.);
#1060=EDGE_LOOP('',(#1335));
#1061=CYLINDRICAL_SURFACE('',#1062,0.5);
#1062=AXIS2_PLACEMENT_3D('',#1063,#1064,#1065);
#1063=CARTESIAN_POINT('',(0.,0.,1.71));
#1064=DIRECTION('',(-0.,-0.,-1.));
#1065=DIRECTION('',(0.,-1.,0.));
#1066=FACE_OUTER_BOUND('',#1067,.T.);
#1067=EDGE_LOOP('',(#1336));
#1068=FACE_OUTER_BOUND('',#1069,.T.);
#1069=EDGE_LOOP('',(#1337));
#1070=CONICAL_SURFACE('',#1071,0.3625,0.268366210905907);
#1071=AXIS2_PLACEMENT_3D('',#1072,#1073,#1074);
#1072=CARTESIAN_POINT('',(0.,0.,1.21));
#1073=DIRECTION('',(0.,0.,1.));
#1074=DIRECTION('',(-0.,1.,-0.));
#1075=FACE_BOUND('',#1076,.T.);
#1076=EDGE_LOOP('',(#1338));
#1077=FACE_BOUND('',#1078,.T.);
#1078=EDGE_LOOP('',(#1339));
#1079=PLANE('',#1080);
#1080=AXIS2_PLACEMENT_3D('',#1081,#1082,#1083);
#1081=CARTESIAN_POINT('',(0.,0.,0.71));
#1082=DIRECTION('',(-0.,-0.,-1.));
#1083=DIRECTION('',(0.,-1.,0.));
#1084=FACE_OUTER_BOUND('',#1085,.T.);
#1085=EDGE_LOOP('',(#1340));
#1086=FACE_OUTER_BOUND('',#1087,.T.);
#1087=EDGE_LOOP('',(#1341));
#1088=CYLINDRICAL_SURFACE('',#1089,0.5);
#1089=AXIS2_PLACEMENT_3D('',#1090,#1091,#1092);
#1090=CARTESIAN_POINT('',(0.,0.,0.435193639281201));
#1091=DIRECTION('',(-0.,-0.,-1.));
#1092=DIRECTION('',(0.,-1.,0.));
#1093=FACE_OUTER_BOUND('',#1094,.T.);
#1094=EDGE_LOOP('',(#1342));
#1095=FACE_OUTER_BOUND('',#1096,.T.);
#1096=EDGE_LOOP('',(#1343));
#1097=CONICAL_SURFACE('',#1098,0.3875,1.02974425867665);
#1098=AXIS2_PLACEMENT_3D('',#1099,#1100,#1101);
#1099=CARTESIAN_POINT('',(0.,0.,0.3675968196406));
#1100=DIRECTION('',(0.,0.,1.));
#1101=DIRECTION('',(-0.,1.,-0.));
#1102=FACE_OUTER_BOUND('',#1103,.T.);
#1103=EDGE_LOOP('',(#1344));
#1104=FACE_OUTER_BOUND('',#1105,.T.);
#1105=EDGE_LOOP('',(#1345));
#1106=CYLINDRICAL_SURFACE('',#1107,0.275);
#1107=AXIS2_PLACEMENT_3D('',#1108,#1109,#1110);
#1108=CARTESIAN_POINT('',(0.,0.,-1.49));
#1109=DIRECTION('',(-0.,-0.,-1.));
#1110=DIRECTION('',(0.,-1.,0.));
#1111=FACE_OUTER_BOUND('',#1112,.T.);
#1112=EDGE_LOOP('',(#1346));
#1113=FACE_OUTER_BOUND('',#1114,.T.);
#1114=EDGE_LOOP('',(#1347));
#1115=CONICAL_SURFACE('',#1116,0.152499999986858,1.02974425867665);
#1116=AXIS2_PLACEMENT_3D('',#1117,#1118,#1119);
#1117=CARTESIAN_POINT('',(0.,0.,-1.56360542583877));
#1118=DIRECTION('',(0.,0.,1.));
#1119=DIRECTION('',(-0.,1.,-0.));
#1120=FACE_BOUND('',#1121,.T.);
#1121=EDGE_LOOP('',(#1348));
#1122=PLANE('',#1123);
#1123=AXIS2_PLACEMENT_3D('',#1124,#1125,#1126);
#1124=CARTESIAN_POINT('',(0.,0.,-1.63721085167755));
#1125=DIRECTION('',(0.,0.,1.));
#1126=DIRECTION('',(0.,-1.,0.));
#1127=ORIENTED_EDGE('',*,*,#1349,.T.);
#1128=ORIENTED_EDGE('',*,*,#1350,.F.);
#1129=ORIENTED_EDGE('',*,*,#1351,.T.);
#1130=ORIENTED_EDGE('',*,*,#1352,.F.);
#1131=ORIENTED_EDGE('',*,*,#1353,.T.);
#1132=ORIENTED_EDGE('',*,*,#1354,.F.);
#1133=ORIENTED_EDGE('',*,*,#1355,.F.);
#1134=ORIENTED_EDGE('',*,*,#1356,.F.);
#1135=ORIENTED_EDGE('',*,*,#1357,.T.);
#1136=ORIENTED_EDGE('',*,*,#1358,.F.);
#1137=ORIENTED_EDGE('',*,*,#1359,.F.);
#1138=ORIENTED_EDGE('',*,*,#1360,.T.);
#1139=ORIENTED_EDGE('',*,*,#1361,.T.);
#1140=ORIENTED_EDGE('',*,*,#1362,.T.);
#1141=ORIENTED_EDGE('',*,*,#1363,.T.);
#1142=ORIENTED_EDGE('',*,*,#1364,.F.);
#1143=ORIENTED_EDGE('',*,*,#1365,.T.);
#1144=ORIENTED_EDGE('',*,*,#1366,.T.);
#1145=ORIENTED_EDGE('',*,*,#1367,.T.);
#1146=ORIENTED_EDGE('',*,*,#1364,.T.);
#1147=ORIENTED_EDGE('',*,*,#1368,.T.);
#1148=ORIENTED_EDGE('',*,*,#1369,.T.);
#1149=ORIENTED_EDGE('',*,*,#1370,.T.);
#1150=ORIENTED_EDGE('',*,*,#1371,.T.);
#1151=ORIENTED_EDGE('',*,*,#1372,.T.);
#1152=ORIENTED_EDGE('',*,*,#1373,.T.);
#1153=ORIENTED_EDGE('',*,*,#1374,.T.);
#1154=ORIENTED_EDGE('',*,*,#1375,.T.);
#1155=ORIENTED_EDGE('',*,*,#1376,.T.);
#1156=ORIENTED_EDGE('',*,*,#1377,.T.);
#1157=ORIENTED_EDGE('',*,*,#1378,.T.);
#1158=ORIENTED_EDGE('',*,*,#1379,.T.);
#1159=ORIENTED_EDGE('',*,*,#1380,.T.);
#1160=ORIENTED_EDGE('',*,*,#1381,.T.);
#1161=ORIENTED_EDGE('',*,*,#1382,.T.);
#1162=ORIENTED_EDGE('',*,*,#1383,.T.);
#1163=ORIENTED_EDGE('',*,*,#1384,.T.);
#1164=ORIENTED_EDGE('',*,*,#1358,.T.);
#1165=ORIENTED_EDGE('',*,*,#1385,.T.);
#1166=ORIENTED_EDGE('',*,*,#1386,.T.);
#1167=ORIENTED_EDGE('',*,*,#1352,.T.);
#1168=ORIENTED_EDGE('',*,*,#1387,.T.);
#1169=ORIENTED_EDGE('',*,*,#1354,.T.);
#1170=ORIENTED_EDGE('',*,*,#1388,.T.);
#1171=ORIENTED_EDGE('',*,*,#1389,.T.);
#1172=ORIENTED_EDGE('',*,*,#1390,.T.);
#1173=ORIENTED_EDGE('',*,*,#1391,.T.);
#1174=ORIENTED_EDGE('',*,*,#1392,.T.);
#1175=ORIENTED_EDGE('',*,*,#1393,.T.);
#1176=ORIENTED_EDGE('',*,*,#1360,.F.);
#1177=ORIENTED_EDGE('',*,*,#1394,.F.);
#1178=ORIENTED_EDGE('',*,*,#1395,.F.);
#1179=ORIENTED_EDGE('',*,*,#1396,.F.);
#1180=ORIENTED_EDGE('',*,*,#1397,.F.);
#1181=ORIENTED_EDGE('',*,*,#1398,.F.);
#1182=ORIENTED_EDGE('',*,*,#1399,.F.);
#1183=ORIENTED_EDGE('',*,*,#1400,.F.);
#1184=ORIENTED_EDGE('',*,*,#1401,.T.);
#1185=ORIENTED_EDGE('',*,*,#1402,.T.);
#1186=ORIENTED_EDGE('',*,*,#1403,.T.);
#1187=ORIENTED_EDGE('',*,*,#1404,.F.);
#1188=ORIENTED_EDGE('',*,*,#1405,.F.);
#1189=ORIENTED_EDGE('',*,*,#1406,.F.);
#1190=ORIENTED_EDGE('',*,*,#1407,.F.);
#1191=ORIENTED_EDGE('',*,*,#1408,.F.);
#1192=ORIENTED_EDGE('',*,*,#1409,.F.);
#1193=ORIENTED_EDGE('',*,*,#1410,.F.);
#1194=ORIENTED_EDGE('',*,*,#1362,.F.);
#1195=ORIENTED_EDGE('',*,*,#1411,.T.);
#1196=ORIENTED_EDGE('',*,*,#1412,.T.);
#1197=ORIENTED_EDGE('',*,*,#1413,.T.);
#1198=ORIENTED_EDGE('',*,*,#1414,.T.);
#1199=ORIENTED_EDGE('',*,*,#1356,.T.);
#1200=ORIENTED_EDGE('',*,*,#1415,.T.);
#1201=ORIENTED_EDGE('',*,*,#1350,.T.);
#1202=ORIENTED_EDGE('',*,*,#1416,.T.);
#1203=ORIENTED_EDGE('',*,*,#1417,.T.);
#1204=ORIENTED_EDGE('',*,*,#1418,.T.);
#1205=ORIENTED_EDGE('',*,*,#1419,.T.);
#1206=ORIENTED_EDGE('',*,*,#1420,.T.);
#1207=ORIENTED_EDGE('',*,*,#1412,.F.);
#1208=ORIENTED_EDGE('',*,*,#1421,.T.);
#1209=ORIENTED_EDGE('',*,*,#1366,.F.);
#1210=ORIENTED_EDGE('',*,*,#1422,.F.);
#1211=ORIENTED_EDGE('',*,*,#1411,.F.);
#1212=ORIENTED_EDGE('',*,*,#1361,.F.);
#1213=ORIENTED_EDGE('',*,*,#1367,.F.);
#1214=ORIENTED_EDGE('',*,*,#1421,.F.);
#1215=ORIENTED_EDGE('',*,*,#1393,.F.);
#1216=ORIENTED_EDGE('',*,*,#1422,.T.);
#1217=ORIENTED_EDGE('',*,*,#1365,.F.);
#1218=ORIENTED_EDGE('',*,*,#1357,.F.);
#1219=ORIENTED_EDGE('',*,*,#1349,.F.);
#1220=ORIENTED_EDGE('',*,*,#1386,.F.);
#1221=ORIENTED_EDGE('',*,*,#1423,.F.);
#1222=ORIENTED_EDGE('',*,*,#1416,.F.);
#1223=ORIENTED_EDGE('',*,*,#1353,.F.);
#1224=ORIENTED_EDGE('',*,*,#1414,.F.);
#1225=ORIENTED_EDGE('',*,*,#1424,.T.);
#1226=ORIENTED_EDGE('',*,*,#1388,.F.);
#1227=ORIENTED_EDGE('',*,*,#1413,.F.);
#1228=ORIENTED_EDGE('',*,*,#1423,.T.);
#1229=ORIENTED_EDGE('',*,*,#1385,.F.);
#1230=ORIENTED_EDGE('',*,*,#1424,.F.);
#1231=ORIENTED_EDGE('',*,*,#1415,.F.);
#1232=ORIENTED_EDGE('',*,*,#1355,.T.);
#1233=ORIENTED_EDGE('',*,*,#1387,.F.);
#1234=ORIENTED_EDGE('',*,*,#1351,.F.);
#1235=ORIENTED_EDGE('',*,*,#1394,.T.);
#1236=ORIENTED_EDGE('',*,*,#1359,.T.);
#1237=ORIENTED_EDGE('',*,*,#1384,.F.);
#1238=ORIENTED_EDGE('',*,*,#1425,.F.);
#1239=ORIENTED_EDGE('',*,*,#1410,.T.);
#1240=ORIENTED_EDGE('',*,*,#1426,.T.);
#1241=ORIENTED_EDGE('',*,*,#1368,.F.);
#1242=ORIENTED_EDGE('',*,*,#1363,.F.);
#1243=ORIENTED_EDGE('',*,*,#1409,.T.);
#1244=ORIENTED_EDGE('',*,*,#1427,.T.);
#1245=ORIENTED_EDGE('',*,*,#1369,.F.);
#1246=ORIENTED_EDGE('',*,*,#1426,.F.);
#1247=ORIENTED_EDGE('',*,*,#1428,.T.);
#1248=ORIENTED_EDGE('',*,*,#1370,.F.);
#1249=ORIENTED_EDGE('',*,*,#1427,.F.);
#1250=ORIENTED_EDGE('',*,*,#1408,.T.);
#1251=ORIENTED_EDGE('',*,*,#1428,.F.);
#1252=ORIENTED_EDGE('',*,*,#1407,.T.);
#1253=ORIENTED_EDGE('',*,*,#1429,.T.);
#1254=ORIENTED_EDGE('',*,*,#1371,.F.);
#1255=ORIENTED_EDGE('',*,*,#1406,.T.);
#1256=ORIENTED_EDGE('',*,*,#1430,.T.);
#1257=ORIENTED_EDGE('',*,*,#1372,.F.);
#1258=ORIENTED_EDGE('',*,*,#1429,.F.);
#1259=ORIENTED_EDGE('',*,*,#1405,.T.);
#1260=ORIENTED_EDGE('',*,*,#1431,.T.);
#1261=ORIENTED_EDGE('',*,*,#1373,.F.);
#1262=ORIENTED_EDGE('',*,*,#1430,.F.);
#1263=ORIENTED_EDGE('',*,*,#1432,.T.);
#1264=ORIENTED_EDGE('',*,*,#1374,.F.);
#1265=ORIENTED_EDGE('',*,*,#1431,.F.);
#1266=ORIENTED_EDGE('',*,*,#1404,.T.);
#1267=ORIENTED_EDGE('',*,*,#1403,.F.);
#1268=ORIENTED_EDGE('',*,*,#1433,.T.);
#1269=ORIENTED_EDGE('',*,*,#1375,.F.);
#1270=ORIENTED_EDGE('',*,*,#1432,.F.);
#1271=ORIENTED_EDGE('',*,*,#1402,.F.);
#1272=ORIENTED_EDGE('',*,*,#1434,.T.);
#1273=ORIENTED_EDGE('',*,*,#1376,.F.);
#1274=ORIENTED_EDGE('',*,*,#1433,.F.);
#1275=ORIENTED_EDGE('',*,*,#1401,.F.);
#1276=ORIENTED_EDGE('',*,*,#1435,.F.);
#1277=ORIENTED_EDGE('',*,*,#1377,.F.);
#1278=ORIENTED_EDGE('',*,*,#1434,.F.);
#1279=ORIENTED_EDGE('',*,*,#1435,.T.);
#1280=ORIENTED_EDGE('',*,*,#1400,.T.);
#1281=ORIENTED_EDGE('',*,*,#1436,.T.);
#1282=ORIENTED_EDGE('',*,*,#1378,.F.);
#1283=ORIENTED_EDGE('',*,*,#1399,.T.);
#1284=ORIENTED_EDGE('',*,*,#1437,.T.);
#1285=ORIENTED_EDGE('',*,*,#1379,.F.);
#1286=ORIENTED_EDGE('',*,*,#1436,.F.);
#1287=ORIENTED_EDGE('',*,*,#1398,.T.);
#1288=ORIENTED_EDGE('',*,*,#1438,.T.);
#1289=ORIENTED_EDGE('',*,*,#1380,.F.);
#1290=ORIENTED_EDGE('',*,*,#1437,.F.);
#1291=ORIENTED_EDGE('',*,*,#1439,.F.);
#1292=ORIENTED_EDGE('',*,*,#1381,.F.);
#1293=ORIENTED_EDGE('',*,*,#1438,.F.);
#1294=ORIENTED_EDGE('',*,*,#1397,.T.);
#1295=ORIENTED_EDGE('',*,*,#1439,.T.);
#1296=ORIENTED_EDGE('',*,*,#1396,.T.);
#1297=ORIENTED_EDGE('',*,*,#1440,.T.);
#1298=ORIENTED_EDGE('',*,*,#1382,.F.);
#1299=ORIENTED_EDGE('',*,*,#1395,.T.);
#1300=ORIENTED_EDGE('',*,*,#1425,.T.);
#1301=ORIENTED_EDGE('',*,*,#1383,.F.);
#1302=ORIENTED_EDGE('',*,*,#1440,.F.);
#1303=ORIENTED_EDGE('',*,*,#1389,.F.);
#1304=ORIENTED_EDGE('',*,*,#1417,.F.);
#1305=ORIENTED_EDGE('',*,*,#1390,.F.);
#1306=ORIENTED_EDGE('',*,*,#1418,.F.);
#1307=ORIENTED_EDGE('',*,*,#1391,.F.);
#1308=ORIENTED_EDGE('',*,*,#1419,.F.);
#1309=ORIENTED_EDGE('',*,*,#1392,.F.);
#1310=ORIENTED_EDGE('',*,*,#1420,.F.);
#1311=ORIENTED_EDGE('',*,*,#1441,.T.);
#1312=ORIENTED_EDGE('',*,*,#1441,.F.);
#1313=ORIENTED_EDGE('',*,*,#1442,.T.);
#1314=ORIENTED_EDGE('',*,*,#1443,.T.);
#1315=ORIENTED_EDGE('',*,*,#1442,.F.);
#1316=ORIENTED_EDGE('',*,*,#1443,.F.);
#1317=ORIENTED_EDGE('',*,*,#1444,.T.);
#1318=ORIENTED_EDGE('',*,*,#1445,.T.);
#1319=ORIENTED_EDGE('',*,*,#1444,.F.);
#1320=ORIENTED_EDGE('',*,*,#1445,.F.);
#1321=ORIENTED_EDGE('',*,*,#1446,.T.);
#1322=ORIENTED_EDGE('',*,*,#1446,.F.);
#1323=ORIENTED_EDGE('',*,*,#1447,.T.);
#1324=ORIENTED_EDGE('',*,*,#1448,.T.);
#1325=ORIENTED_EDGE('',*,*,#1447,.F.);
#1326=ORIENTED_EDGE('',*,*,#1449,.T.);
#1327=ORIENTED_EDGE('',*,*,#1448,.F.);
#1328=ORIENTED_EDGE('',*,*,#1450,.T.);
#1329=ORIENTED_EDGE('',*,*,#1449,.F.);
#1330=ORIENTED_EDGE('',*,*,#1450,.F.);
#1331=ORIENTED_EDGE('',*,*,#1451,.T.);
#1332=ORIENTED_EDGE('',*,*,#1452,.T.);
#1333=ORIENTED_EDGE('',*,*,#1451,.F.);
#1334=ORIENTED_EDGE('',*,*,#1452,.F.);
#1335=ORIENTED_EDGE('',*,*,#1453,.T.);
#1336=ORIENTED_EDGE('',*,*,#1454,.T.);
#1337=ORIENTED_EDGE('',*,*,#1453,.F.);
#1338=ORIENTED_EDGE('',*,*,#1455,.T.);
#1339=ORIENTED_EDGE('',*,*,#1454,.F.);
#1340=ORIENTED_EDGE('',*,*,#1455,.F.);
#1341=ORIENTED_EDGE('',*,*,#1456,.T.);
#1342=ORIENTED_EDGE('',*,*,#1457,.T.);
#1343=ORIENTED_EDGE('',*,*,#1456,.F.);
#1344=ORIENTED_EDGE('',*,*,#1457,.F.);
#1345=ORIENTED_EDGE('',*,*,#1458,.T.);
#1346=ORIENTED_EDGE('',*,*,#1459,.T.);
#1347=ORIENTED_EDGE('',*,*,#1458,.F.);
#1348=ORIENTED_EDGE('',*,*,#1459,.F.);
#1349=EDGE_CURVE('',#1460,#1461,#1462,.T.);
#1350=EDGE_CURVE('',#1463,#1461,#1464,.T.);
#1351=EDGE_CURVE('',#1463,#1465,#1466,.T.);
#1352=EDGE_CURVE('',#1460,#1465,#1467,.F.);
#1353=EDGE_CURVE('',#1468,#1469,#1470,.T.);
#1354=EDGE_CURVE('',#1471,#1469,#1472,.F.);
#1355=EDGE_CURVE('',#1473,#1471,#1474,.T.);
#1356=EDGE_CURVE('',#1468,#1473,#1475,.T.);
#1357=EDGE_CURVE('',#1476,#1477,#1478,.F.);
#1358=EDGE_CURVE('',#1479,#1477,#1480,.T.);
#1359=EDGE_CURVE('',#1481,#1479,#1482,.T.);
#1360=EDGE_CURVE('',#1481,#1476,#1483,.T.);
#1361=EDGE_CURVE('',#1484,#1485,#1486,.F.);
#1362=EDGE_CURVE('',#1485,#1487,#1488,.T.);
#1363=EDGE_CURVE('',#1487,#1489,#1490,.T.);
#1364=EDGE_CURVE('',#1484,#1489,#1491,.T.);
#1365=EDGE_CURVE('',#1477,#1492,#1493,.F.);
#1366=EDGE_CURVE('',#1492,#1494,#1495,.F.);
#1367=EDGE_CURVE('',#1494,#1484,#1496,.F.);
#1368=EDGE_CURVE('',#1489,#1497,#1498,.T.);
#1369=EDGE_CURVE('',#1497,#1499,#1500,.T.);
#1370=EDGE_CURVE('',#1499,#1501,#1502,.T.);
#1371=EDGE_CURVE('',#1501,#1503,#1504,.T.);
#1372=EDGE_CURVE('',#1503,#1505,#1506,.T.);
#1373=EDGE_CURVE('',#1505,#1507,#1508,.T.);
#1374=EDGE_CURVE('',#1507,#1509,#1510,.T.);
#1375=EDGE_CURVE('',#1509,#1511,#1512,.F.);
#1376=EDGE_CURVE('',#1511,#1513,#1514,.F.);
#1377=EDGE_CURVE('',#1513,#1515,#1516,.F.);
#1378=EDGE_CURVE('',#1515,#1517,#1518,.T.);
#1379=EDGE_CURVE('',#1517,#1519,#1520,.T.);
#1380=EDGE_CURVE('',#1519,#1521,#1522,.T.);
#1381=EDGE_CURVE('',#1521,#1523,#1524,.T.);
#1382=EDGE_CURVE('',#1523,#1525,#1526,.T.);
#1383=EDGE_CURVE('',#1525,#1527,#1528,.T.);
#1384=EDGE_CURVE('',#1527,#1479,#1529,.T.);
#1385=EDGE_CURVE('',#1530,#1531,#1532,.F.);
#1386=EDGE_CURVE('',#1531,#1460,#1533,.F.);
#1387=EDGE_CURVE('',#1465,#1471,#1534,.F.);
#1388=EDGE_CURVE('',#1469,#1530,#1535,.F.);
#1389=EDGE_CURVE('',#1536,#1536,#1537,.F.);
#1390=EDGE_CURVE('',#1538,#1538,#1539,.F.);
#1391=EDGE_CURVE('',#1540,#1540,#1541,.F.);
#1392=EDGE_CURVE('',#1542,#1542,#1543,.F.);
#1393=EDGE_CURVE('',#1544,#1476,#1545,.T.);
#1394=EDGE_CURVE('',#1546,#1481,#1547,.T.);
#1395=EDGE_CURVE('',#1548,#1546,#1549,.T.);
#1396=EDGE_CURVE('',#1550,#1548,#1551,.T.);
#1397=EDGE_CURVE('',#1552,#1550,#1553,.T.);
#1398=EDGE_CURVE('',#1554,#1552,#1555,.T.);
#1399=EDGE_CURVE('',#1556,#1554,#1557,.T.);
#1400=EDGE_CURVE('',#1558,#1556,#1559,.T.);
#1401=EDGE_CURVE('',#1558,#1560,#1561,.T.);
#1402=EDGE_CURVE('',#1560,#1562,#1563,.T.);
#1403=EDGE_CURVE('',#1562,#1564,#1565,.T.);
#1404=EDGE_CURVE('',#1566,#1564,#1567,.T.);
#1405=EDGE_CURVE('',#1568,#1566,#1569,.T.);
#1406=EDGE_CURVE('',#1570,#1568,#1571,.T.);
#1407=EDGE_CURVE('',#1572,#1570,#1573,.T.);
#1408=EDGE_CURVE('',#1574,#1572,#1575,.T.);
#1409=EDGE_CURVE('',#1576,#1574,#1577,.T.);
#1410=EDGE_CURVE('',#1487,#1576,#1578,.T.);
#1411=EDGE_CURVE('',#1485,#1579,#1580,.T.);
#1412=EDGE_CURVE('',#1579,#1544,#1581,.T.);
#1413=EDGE_CURVE('',#1582,#1583,#1584,.T.);
#1414=EDGE_CURVE('',#1583,#1468,#1585,.T.);
#1415=EDGE_CURVE('',#1473,#1463,#1586,.T.);
#1416=EDGE_CURVE('',#1461,#1582,#1587,.T.);
#1417=EDGE_CURVE('',#1588,#1588,#1589,.T.);
#1418=EDGE_CURVE('',#1590,#1590,#1591,.T.);
#1419=EDGE_CURVE('',#1592,#1592,#1593,.T.);
#1420=EDGE_CURVE('',#1594,#1594,#1595,.T.);
#1421=EDGE_CURVE('',#1579,#1494,#1596,.T.);
#1422=EDGE_CURVE('',#1544,#1492,#1597,.T.);
#1423=EDGE_CURVE('',#1582,#1531,#1598,.T.);
#1424=EDGE_CURVE('',#1583,#1530,#1599,.T.);
#1425=EDGE_CURVE('',#1546,#1527,#1600,.T.);
#1426=EDGE_CURVE('',#1576,#1497,#1601,.T.);
#1427=EDGE_CURVE('',#1574,#1499,#1602,.T.);
#1428=EDGE_CURVE('',#1572,#1501,#1603,.T.);
#1429=EDGE_CURVE('',#1570,#1503,#1604,.T.);
#1430=EDGE_CURVE('',#1568,#1505,#1605,.T.);
#1431=EDGE_CURVE('',#1566,#1507,#1606,.T.);
#1432=EDGE_CURVE('',#1564,#1509,#1607,.F.);
#1433=EDGE_CURVE('',#1562,#1511,#1608,.T.);
#1434=EDGE_CURVE('',#1560,#1513,#1609,.T.);
#1435=EDGE_CURVE('',#1515,#1558,#1610,.F.);
#1436=EDGE_CURVE('',#1556,#1517,#1611,.T.);
#1437=EDGE_CURVE('',#1554,#1519,#1612,.T.);
#1438=EDGE_CURVE('',#1552,#1521,#1613,.T.);
#1439=EDGE_CURVE('',#1523,#1550,#1614,.F.);
#1440=EDGE_CURVE('',#1548,#1525,#1615,.T.);
#1441=EDGE_CURVE('',#1616,#1616,#1617,.T.);
#1442=EDGE_CURVE('',#1618,#1618,#1619,.T.);
#1443=EDGE_CURVE('',#1620,#1620,#1621,.T.);
#1444=EDGE_CURVE('',#1622,#1622,#1623,.T.);
#1445=EDGE_CURVE('',#1624,#1624,#1625,.T.);
#1446=EDGE_CURVE('',#1626,#1626,#1627,.T.);
#1447=EDGE_CURVE('',#1628,#1628,#1629,.T.);
#1448=EDGE_CURVE('',#1630,#1630,#1631,.T.);
#1449=EDGE_CURVE('',#1632,#1632,#1633,.T.);
#1450=EDGE_CURVE('',#1634,#1634,#1635,.T.);
#1451=EDGE_CURVE('',#1636,#1636,#1637,.T.);
#1452=EDGE_CURVE('',#1638,#1638,#1639,.T.);
#1453=EDGE_CURVE('',#1640,#1640,#1641,.T.);
#1454=EDGE_CURVE('',#1642,#1642,#1643,.T.);
#1455=EDGE_CURVE('',#1644,#1644,#1645,.T.);
#1456=EDGE_CURVE('',#1646,#1646,#1647,.T.);
#1457=EDGE_CURVE('',#1648,#1648,#1649,.T.);
#1458=EDGE_CURVE('',#1650,#1650,#1651,.T.);
#1459=EDGE_CURVE('',#1652,#1652,#1653,.T.);
#1460=VERTEX_POINT('',#1654);
#1461=VERTEX_POINT('',#1655);
#1462=LINE('',#1656,#1657);
#1463=VERTEX_POINT('',#1659);
#1464=LINE('',#1660,#1661);
#1465=VERTEX_POINT('',#1663);
#1466=LINE('',#1664,#1665);
#1467=LINE('',#1667,#1668);
#1468=VERTEX_POINT('',#1670);
#1469=VERTEX_POINT('',#1671);
#1470=LINE('',#1672,#1673);
#1471=VERTEX_POINT('',#1675);
#1472=LINE('',#1676,#1677);
#1473=VERTEX_POINT('',#1679);
#1474=LINE('',#1680,#1681);
#1475=LINE('',#1683,#1684);
#1476=VERTEX_POINT('',#1686);
#1477=VERTEX_POINT('',#1687);
#1478=LINE('',#1688,#1689);
#1479=VERTEX_POINT('',#1691);
#1480=LINE('',#1692,#1693);
#1481=VERTEX_POINT('',#1695);
#1482=LINE('',#1696,#1697);
#1483=LINE('',#1699,#1700);
#1484=VERTEX_POINT('',#1702);
#1485=VERTEX_POINT('',#1703);
#1486=LINE('',#1704,#1705);
#1487=VERTEX_POINT('',#1707);
#1488=LINE('',#1708,#1709);
#1489=VERTEX_POINT('',#1711);
#1490=LINE('',#1712,#1713);
#1491=LINE('',#1715,#1716);
#1492=VERTEX_POINT('',#1718);
#1493=LINE('',#1719,#1720);
#1494=VERTEX_POINT('',#1722);
#1495=CIRCLE('',#1723,0.03);
#1496=LINE('',#1727,#1728);
#1497=VERTEX_POINT('',#1730);
#1498=LINE('',#1731,#1732);
#1499=VERTEX_POINT('',#1734);
#1500=LINE('',#1735,#1736);
#1501=VERTEX_POINT('',#1738);
#1502=LINE('',#1739,#1740);
#1503=VERTEX_POINT('',#1742);
#1504=LINE('',#1743,#1744);
#1505=VERTEX_POINT('',#1746);
#1506=LINE('',#1747,#1748);
#1507=VERTEX_POINT('',#1750);
#1508=LINE('',#1751,#1752);
#1509=VERTEX_POINT('',#1754);
#1510=LINE('',#1755,#1756);
#1511=VERTEX_POINT('',#1758);
#1512=LINE('',#1759,#1760);
#1513=VERTEX_POINT('',#1762);
#1514=CIRCLE('',#1763,0.03);
#1515=VERTEX_POINT('',#1767);
#1516=LINE('',#1768,#1769);
#1517=VERTEX_POINT('',#1771);
#1518=LINE('',#1772,#1773);
#1519=VERTEX_POINT('',#1775);
#1520=LINE('',#1776,#1777);
#1521=VERTEX_POINT('',#1779);
#1522=LINE('',#1780,#1781);
#1523=VERTEX_POINT('',#1783);
#1524=LINE('',#1784,#1785);
#1525=VERTEX_POINT('',#1787);
#1526=LINE('',#1788,#1789);
#1527=VERTEX_POINT('',#1791);
#1528=LINE('',#1792,#1793);
#1529=LINE('',#1795,#1796);
#1530=VERTEX_POINT('',#1798);
#1531=VERTEX_POINT('',#1799);
#1532=CIRCLE('',#1800,0.03);
#1533=LINE('',#1804,#1805);
#1534=CIRCLE('',#1807,0.03);
#1535=LINE('',#1811,#1812);
#1536=VERTEX_POINT('',#1814);
#1537=CIRCLE('',#1815,0.66);
#1538=VERTEX_POINT('',#1819);
#1539=CIRCLE('',#1820,0.66);
#1540=VERTEX_POINT('',#1824);
#1541=CIRCLE('',#1825,0.66);
#1542=VERTEX_POINT('',#1829);
#1543=CIRCLE('',#1830,0.66);
#1544=VERTEX_POINT('',#1834);
#1545=LINE('',#1835,#1836);
#1546=VERTEX_POINT('',#1838);
#1547=LINE('',#1839,#1840);
#1548=VERTEX_POINT('',#1842);
#1549=LINE('',#1843,#1844);
#1550=VERTEX_POINT('',#1846);
#1551=LINE('',#1847,#1848);
#1552=VERTEX_POINT('',#1850);
#1553=LINE('',#1851,#1852);
#1554=VERTEX_POINT('',#1854);
#1555=LINE('',#1855,#1856);
#1556=VERTEX_POINT('',#1858);
#1557=LINE('',#1859,#1860);
#1558=VERTEX_POINT('',#1862);
#1559=LINE('',#1863,#1864);
#1560=VERTEX_POINT('',#1866);
#1561=LINE('',#1867,#1868);
#1562=VERTEX_POINT('',#1870);
#1563=CIRCLE('',#1871,0.03);
#1564=VERTEX_POINT('',#1875);
#1565=LINE('',#1876,#1877);
#1566=VERTEX_POINT('',#1879);
#1567=LINE('',#1880,#1881);
#1568=VERTEX_POINT('',#1883);
#1569=LINE('',#1884,#1885);
#1570=VERTEX_POINT('',#1887);
#1571=LINE('',#1888,#1889);
#1572=VERTEX_POINT('',#1891);
#1573=LINE('',#1892,#1893);
#1574=VERTEX_POINT('',#1895);
#1575=LINE('',#1896,#1897);
#1576=VERTEX_POINT('',#1899);
#1577=LINE('',#1900,#1901);
#1578=LINE('',#1903,#1904);
#1579=VERTEX_POINT('',#1906);
#1580=LINE('',#1907,#1908);
#1581=CIRCLE('',#1910,0.03);
#1582=VERTEX_POINT('',#1914);
#1583=VERTEX_POINT('',#1915);
#1584=CIRCLE('',#1916,0.03);
#1585=LINE('',#1920,#1921);
#1586=CIRCLE('',#1923,0.03);
#1587=LINE('',#1927,#1928);
#1588=VERTEX_POINT('',#1930);
#1589=CIRCLE('',#1931,0.66);
#1590=VERTEX_POINT('',#1935);
#1591=CIRCLE('',#1936,0.66);
#1592=VERTEX_POINT('',#1940);
#1593=CIRCLE('',#1941,0.66);
#1594=VERTEX_POINT('',#1945);
#1595=CIRCLE('',#1946,0.66);
#1596=LINE('',#1950,#1951);
#1597=LINE('',#1953,#1954);
#1598=LINE('',#1956,#1957);
#1599=LINE('',#1959,#1960);
#1600=LINE('',#1962,#1963);
#1601=LINE('',#1965,#1966);
#1602=LINE('',#1968,#1969);
#1603=LINE('',#1971,#1972);
#1604=LINE('',#1974,#1975);
#1605=LINE('',#1977,#1978);
#1606=LINE('',#1980,#1981);
#1607=LINE('',#1983,#1984);
#1608=LINE('',#1986,#1987);
#1609=LINE('',#1989,#1990);
#1610=LINE('',#1992,#1993);
#1611=LINE('',#1995,#1996);
#1612=LINE('',#1998,#1999);
#1613=LINE('',#2001,#2002);
#1614=LINE('',#2004,#2005);
#1615=LINE('',#2007,#2008);
#1616=VERTEX_POINT('',#2010);
#1617=CIRCLE('',#2011,0.19);
#1618=VERTEX_POINT('',#2015);
#1619=CIRCLE('',#2016,0.38);
#1620=VERTEX_POINT('',#2020);
#1621=CIRCLE('',#2021,0.38);
#1622=VERTEX_POINT('',#2025);
#1623=CIRCLE('',#2026,0.66);
#1624=VERTEX_POINT('',#2030);
#1625=CIRCLE('',#2031,0.66);
#1626=VERTEX_POINT('',#2035);
#1627=CIRCLE('',#2036,0.81);
#1628=VERTEX_POINT('',#2040);
#1629=CIRCLE('',#2041,0.66);
#1630=VERTEX_POINT('',#2045);
#1631=CIRCLE('',#2046,0.66);
#1632=VERTEX_POINT('',#2050);
#1633=CIRCLE('',#2051,0.915);
#1634=VERTEX_POINT('',#2055);
#1635=CIRCLE('',#2056,0.915);
#1636=VERTEX_POINT('',#2060);
#1637=CIRCLE('',#2061,0.667819926521361);
#1638=VERTEX_POINT('',#2065);
#1639=CIRCLE('',#2066,0.5);
#1640=VERTEX_POINT('',#2070);
#1641=CIRCLE('',#2071,0.5);
#1642=VERTEX_POINT('',#2075);
#1643=CIRCLE('',#2076,0.225);
#1644=VERTEX_POINT('',#2080);
#1645=CIRCLE('',#2081,0.5);
#1646=VERTEX_POINT('',#2085);
#1647=CIRCLE('',#2086,0.5);
#1648=VERTEX_POINT('',#2090);
#1649=CIRCLE('',#2091,0.275);
#1650=VERTEX_POINT('',#2095);
#1651=CIRCLE('',#2096,0.275);
#1652=VERTEX_POINT('',#2100);
#1653=CIRCLE('',#2101,0.0299999999737154);
#1654=CARTESIAN_POINT('',(1.42900440527079,1.27,1.9));
#1655=CARTESIAN_POINT('',(1.42900440527079,1.27,0.63));
#1656=CARTESIAN_POINT('',(1.42900440527079,1.27,1.9));
#1657=VECTOR('',#1658,1.);
#1658=DIRECTION('',(0.,0.,-1.));
#1659=CARTESIAN_POINT('',(1.29718923360973,0.987321452144849,0.63));
#1660=CARTESIAN_POINT('',(1.29718923360973,0.987321452144849,0.63));
#1661=VECTOR('',#1662,1.);
#1662=DIRECTION('',(0.422618261740861,0.906307787036575,0.));
#1663=CARTESIAN_POINT('',(1.29718923360973,0.987321452144849,1.9));
#1664=CARTESIAN_POINT('',(1.29718923360973,0.987321452144849,0.63));
#1665=VECTOR('',#1666,1.);
#1666=DIRECTION('',(0.,0.,1.));
#1667=CARTESIAN_POINT('',(1.29718923360973,0.987321452144849,1.9));
#1668=VECTOR('',#1669,1.);
#1669=DIRECTION('',(0.422618261740861,0.906307787036575,0.));
#1670=CARTESIAN_POINT('',(1.11099559472921,1.27,0.63));
#1671=CARTESIAN_POINT('',(1.11099559472921,1.27,1.9));
#1672=CARTESIAN_POINT('',(1.11099559472921,1.27,0.63));
#1673=VECTOR('',#1674,1.);
#1674=DIRECTION('',(0.,0.,1.));
#1675=CARTESIAN_POINT('',(1.24281076639026,0.987321452144871,1.9));
#1676=CARTESIAN_POINT('',(1.11099559472921,1.27,1.9));
#1677=VECTOR('',#1678,1.);
#1678=DIRECTION('',(0.422618261740862,-0.906307787036574,0.));
#1679=CARTESIAN_POINT('',(1.24281076639026,0.987321452144871,0.63));
#1680=CARTESIAN_POINT('',(1.24281076639026,0.987321452144871,0.63));
#1681=VECTOR('',#1682,1.);
#1682=DIRECTION('',(0.,0.,1.));
#1683=CARTESIAN_POINT('',(1.11099559472921,1.27,0.63));
#1684=VECTOR('',#1685,1.);
#1685=DIRECTION('',(0.422618261740862,-0.906307787036574,0.));
#1686=CARTESIAN_POINT('',(1.42900440527079,3.81,0.63));
#1687=CARTESIAN_POINT('',(1.42900440527079,3.81,1.9));
#1688=CARTESIAN_POINT('',(1.42900440527079,3.81,1.9));
#1689=VECTOR('',#1690,1.);
#1690=DIRECTION('',(0.,0.,-1.));
#1691=CARTESIAN_POINT('',(3.7851077025535,3.81,1.9));
#1692=CARTESIAN_POINT('',(3.7851077025535,3.81,1.9));
#1693=VECTOR('',#1694,1.);
#1694=DIRECTION('',(-1.,0.,0.));
#1695=CARTESIAN_POINT('',(3.7851077025535,3.81,0.63));
#1696=CARTESIAN_POINT('',(3.7851077025535,3.81,0.63));
#1697=VECTOR('',#1698,1.);
#1698=DIRECTION('',(0.,0.,1.));
#1699=CARTESIAN_POINT('',(3.7851077025535,3.81,0.63));
#1700=VECTOR('',#1701,1.);
#1701=DIRECTION('',(-1.,0.,0.));
#1702=CARTESIAN_POINT('',(1.11099559472921,3.81,1.9));
#1703=CARTESIAN_POINT('',(1.11099559472921,3.81,0.63));
#1704=CARTESIAN_POINT('',(1.11099559472921,3.81,0.63));
#1705=VECTOR('',#1706,1.);
#1706=DIRECTION('',(0.,0.,1.));
#1707=CARTESIAN_POINT('',(-1.2451077025535,3.81,0.63));
#1708=CARTESIAN_POINT('',(1.11099559472921,3.81,0.63));
#1709=VECTOR('',#1710,1.);
#1710=DIRECTION('',(-1.,0.,0.));
#1711=CARTESIAN_POINT('',(-1.2451077025535,3.81,1.9));
#1712=CARTESIAN_POINT('',(-1.2451077025535,3.81,0.63));
#1713=VECTOR('',#1714,1.);
#1714=DIRECTION('',(0.,0.,1.));
#1715=CARTESIAN_POINT('',(1.11099559472921,3.81,1.9));
#1716=VECTOR('',#1717,1.);
#1717=DIRECTION('',(-1.,0.,0.));
#1718=CARTESIAN_POINT('',(1.29718923360973,3.52732145214485,1.9));
#1719=CARTESIAN_POINT('',(1.29718923360973,3.52732145214485,1.9));
#1720=VECTOR('',#1721,1.);
#1721=DIRECTION('',(0.422618261740861,0.906307787036574,0.));
#1722=CARTESIAN_POINT('',(1.24281076639026,3.52732145214487,1.9));
#1723=AXIS2_PLACEMENT_3D('',#1724,#1725,#1726);
#1724=CARTESIAN_POINT('',(1.27,3.54,1.9));
#1725=DIRECTION('',(-0.,0.,1.));
#1726=DIRECTION('',(-0.906307786991442,-0.422618261837649,0.));
#1727=CARTESIAN_POINT('',(1.11099559472921,3.81,1.9));
#1728=VECTOR('',#1729,1.);
#1729=DIRECTION('',(0.422618261740862,-0.906307787036574,0.));
#1730=CARTESIAN_POINT('',(-1.385,3.51,1.9));
#1731=CARTESIAN_POINT('',(-1.2451077025535,3.81,1.9));
#1732=VECTOR('',#1733,1.);
#1733=DIRECTION('',(-0.4226182617407,-0.90630778703665,0.));
#1734=CARTESIAN_POINT('',(-1.385,1.57,1.9));
#1735=CARTESIAN_POINT('',(-1.385,3.51,1.9));
#1736=VECTOR('',#1737,1.);
#1737=DIRECTION('',(-2.28911963840238E-016,-1.,0.));
#1738=CARTESIAN_POINT('',(-1.2451077025535,1.27,1.9));
#1739=CARTESIAN_POINT('',(-1.385,1.57,1.9));
#1740=VECTOR('',#1741,1.);
#1741=DIRECTION('',(0.422618261740699,-0.90630778703665,0.));
#1742=CARTESIAN_POINT('',(-1.385,0.970000000000001,1.9));
#1743=CARTESIAN_POINT('',(-1.2451077025535,1.27,1.9));
#1744=VECTOR('',#1745,1.);
#1745=DIRECTION('',(-0.4226182617407,-0.90630778703665,0.));
#1746=CARTESIAN_POINT('',(-1.385,-0.97,1.9));
#1747=CARTESIAN_POINT('',(-1.385,0.970000000000001,1.9));
#1748=VECTOR('',#1749,1.);
#1749=DIRECTION('',(-2.28911963840238E-016,-1.,0.));
#1750=CARTESIAN_POINT('',(-1.2451077025535,-1.27,1.9));
#1751=CARTESIAN_POINT('',(-1.385,-0.97,1.9));
#1752=VECTOR('',#1753,1.);
#1753=DIRECTION('',(0.422618261740699,-0.90630778703665,0.));
#1754=CARTESIAN_POINT('',(1.11099559472921,-1.27,1.9));
#1755=CARTESIAN_POINT('',(-1.2451077025535,-1.27,1.9));
#1756=VECTOR('',#1757,1.);
#1757=DIRECTION('',(1.,0.,-9.42423047330372E-017));
#1758=CARTESIAN_POINT('',(1.24281076639027,-0.987321452144841,1.9));
#1759=CARTESIAN_POINT('',(1.24281076639027,-0.987321452144841,1.9));
#1760=VECTOR('',#1761,1.);
#1761=DIRECTION('',(-0.422618261740862,-0.906307787036574,0.));
#1762=CARTESIAN_POINT('',(1.2971892335817,-0.987321452084722,1.9));
#1763=AXIS2_PLACEMENT_3D('',#1764,#1765,#1766);
#1764=CARTESIAN_POINT('',(1.27,-1.,1.9));
#1765=DIRECTION('',(0.,-0.,1.));
#1766=DIRECTION('',(0.906307786056526,0.422618263842583,0.));
#1767=CARTESIAN_POINT('',(1.42900440527079,-1.27,1.9));
#1768=CARTESIAN_POINT('',(1.42900440527079,-1.27,1.9));
#1769=VECTOR('',#1770,1.);
#1770=DIRECTION('',(-0.422618261740862,0.906307787036574,0.));
#1771=CARTESIAN_POINT('',(3.7851077025535,-1.27,1.9));
#1772=CARTESIAN_POINT('',(1.42900440527079,-1.27,1.9));
#1773=VECTOR('',#1774,1.);
#1774=DIRECTION('',(1.,0.,9.42423047330371E-017));
#1775=CARTESIAN_POINT('',(3.925,-0.97,1.9));
#1776=CARTESIAN_POINT('',(3.7851077025535,-1.27,1.9));
#1777=VECTOR('',#1778,1.);
#1778=DIRECTION('',(0.422618261740699,0.90630778703665,0.));
#1779=CARTESIAN_POINT('',(3.925,0.97,1.9));
#1780=CARTESIAN_POINT('',(3.925,-0.97,1.9));
#1781=VECTOR('',#1782,1.);
#1782=DIRECTION('',(-2.28911963840239E-016,1.,0.));
#1783=CARTESIAN_POINT('',(3.7851077025535,1.27,1.9));
#1784=CARTESIAN_POINT('',(3.925,0.97,1.9));
#1785=VECTOR('',#1786,1.);
#1786=DIRECTION('',(-0.422618261740699,0.90630778703665,0.));
#1787=CARTESIAN_POINT('',(3.925,1.57,1.9));
#1788=CARTESIAN_POINT('',(3.7851077025535,1.27,1.9));
#1789=VECTOR('',#1790,1.);
#1790=DIRECTION('',(0.422618261740699,0.90630778703665,0.));
#1791=CARTESIAN_POINT('',(3.925,3.51,1.9));
#1792=CARTESIAN_POINT('',(3.925,1.57,1.9));
#1793=VECTOR('',#1794,1.);
#1794=DIRECTION('',(-2.28911963840239E-016,1.,0.));
#1795=CARTESIAN_POINT('',(3.925,3.51,1.9));
#1796=VECTOR('',#1797,1.);
#1797=DIRECTION('',(-0.422618261740699,0.90630778703665,0.));
#1798=CARTESIAN_POINT('',(1.24281076639027,1.55267854785516,1.9));
#1799=CARTESIAN_POINT('',(1.2971892335817,1.55267854791528,1.9));
#1800=AXIS2_PLACEMENT_3D('',#1801,#1802,#1803);
#1801=CARTESIAN_POINT('',(1.27,1.54,1.9));
#1802=DIRECTION('',(0.,-0.,1.));
#1803=DIRECTION('',(0.906307786056524,0.422618263842586,0.));
#1804=CARTESIAN_POINT('',(1.42900440527079,1.27,1.9));
#1805=VECTOR('',#1806,1.);
#1806=DIRECTION('',(-0.422618261740862,0.906307787036574,0.));
#1807=AXIS2_PLACEMENT_3D('',#1808,#1809,#1810);
#1808=CARTESIAN_POINT('',(1.27,1.,1.9));
#1809=DIRECTION('',(-0.,0.,1.));
#1810=DIRECTION('',(-0.906307786991439,-0.422618261837655,0.));
#1811=CARTESIAN_POINT('',(1.24281076639027,1.55267854785516,1.9));
#1812=VECTOR('',#1813,1.);
#1813=DIRECTION('',(-0.422618261740862,-0.906307787036574,0.));
#1814=CARTESIAN_POINT('',(0.66,-8.08266887437253E-017,1.9));
#1815=AXIS2_PLACEMENT_3D('',#1816,#1817,#1818);
#1816=CARTESIAN_POINT('',(0.,0.,1.9));
#1817=DIRECTION('',(0.,0.,1.));
#1818=DIRECTION('',(1.,0.,0.));
#1819=CARTESIAN_POINT('',(3.2,2.54,1.9));
#1820=AXIS2_PLACEMENT_3D('',#1821,#1822,#1823);
#1821=CARTESIAN_POINT('',(2.54,2.54,1.9));
#1822=DIRECTION('',(0.,0.,1.));
#1823=DIRECTION('',(1.,0.,0.));
#1824=CARTESIAN_POINT('',(0.66,2.54,1.9));
#1825=AXIS2_PLACEMENT_3D('',#1826,#1827,#1828);
#1826=CARTESIAN_POINT('',(1.55530143491714E-016,2.54,1.9));
#1827=DIRECTION('',(0.,0.,1.));
#1828=DIRECTION('',(1.,0.,0.));
#1829=CARTESIAN_POINT('',(3.2,-8.08266887437253E-017,1.9));
#1830=AXIS2_PLACEMENT_3D('',#1831,#1832,#1833);
#1831=CARTESIAN_POINT('',(2.54,0.,1.9));
#1832=DIRECTION('',(0.,0.,1.));
#1833=DIRECTION('',(1.,0.,0.));
#1834=CARTESIAN_POINT('',(1.29718923360973,3.52732145214485,0.63));
#1835=CARTESIAN_POINT('',(1.29718923360973,3.52732145214485,0.63));
#1836=VECTOR('',#1837,1.);
#1837=DIRECTION('',(0.422618261740861,0.906307787036574,0.));
#1838=CARTESIAN_POINT('',(3.925,3.51,0.63));
#1839=CARTESIAN_POINT('',(3.925,3.51,0.63));
#1840=VECTOR('',#1841,1.);
#1841=DIRECTION('',(-0.422618261740699,0.90630778703665,0.));
#1842=CARTESIAN_POINT('',(3.925,1.57,0.63));
#1843=CARTESIAN_POINT('',(3.925,1.57,0.63));
#1844=VECTOR('',#1845,1.);
#1845=DIRECTION('',(-2.28911963840239E-016,1.,0.));
#1846=CARTESIAN_POINT('',(3.7851077025535,1.27,0.63));
#1847=CARTESIAN_POINT('',(3.7851077025535,1.27,0.63));
#1848=VECTOR('',#1849,1.);
#1849=DIRECTION('',(0.422618261740699,0.90630778703665,0.));
#1850=CARTESIAN_POINT('',(3.925,0.97,0.63));
#1851=CARTESIAN_POINT('',(3.925,0.97,0.63));
#1852=VECTOR('',#1853,1.);
#1853=DIRECTION('',(-0.422618261740699,0.90630778703665,0.));
#1854=CARTESIAN_POINT('',(3.925,-0.97,0.63));
#1855=CARTESIAN_POINT('',(3.925,-0.97,0.63));
#1856=VECTOR('',#1857,1.);
#1857=DIRECTION('',(-2.28911963840239E-016,1.,0.));
#1858=CARTESIAN_POINT('',(3.7851077025535,-1.27,0.63));
#1859=CARTESIAN_POINT('',(3.7851077025535,-1.27,0.63));
#1860=VECTOR('',#1861,1.);
#1861=DIRECTION('',(0.422618261740699,0.90630778703665,0.));
#1862=CARTESIAN_POINT('',(1.42900440527079,-1.27,0.63));
#1863=CARTESIAN_POINT('',(1.42900440527079,-1.27,0.63));
#1864=VECTOR('',#1865,1.);
#1865=DIRECTION('',(1.,0.,0.));
#1866=CARTESIAN_POINT('',(1.2971892335817,-0.987321452084722,0.63));
#1867=CARTESIAN_POINT('',(1.42900440527079,-1.27,0.63));
#1868=VECTOR('',#1869,1.);
#1869=DIRECTION('',(-0.422618261740862,0.906307787036574,0.));
#1870=CARTESIAN_POINT('',(1.24281076639027,-0.987321452144841,0.63));
#1871=AXIS2_PLACEMENT_3D('',#1872,#1873,#1874);
#1872=CARTESIAN_POINT('',(1.27,-1.,0.63));
#1873=DIRECTION('',(0.,-0.,1.));
#1874=DIRECTION('',(0.906307786056526,0.422618263842583,0.));
#1875=CARTESIAN_POINT('',(1.11099559472921,-1.27,0.63));
#1876=CARTESIAN_POINT('',(1.24281076639027,-0.987321452144841,0.63));
#1877=VECTOR('',#1878,1.);
#1878=DIRECTION('',(-0.422618261740862,-0.906307787036574,0.));
#1879=CARTESIAN_POINT('',(-1.2451077025535,-1.27,0.63));
#1880=CARTESIAN_POINT('',(-1.2451077025535,-1.27,0.63));
#1881=VECTOR('',#1882,1.);
#1882=DIRECTION('',(1.,0.,0.));
#1883=CARTESIAN_POINT('',(-1.385,-0.97,0.63));
#1884=CARTESIAN_POINT('',(-1.385,-0.97,0.63));
#1885=VECTOR('',#1886,1.);
#1886=DIRECTION('',(0.422618261740699,-0.90630778703665,0.));
#1887=CARTESIAN_POINT('',(-1.385,0.970000000000001,0.63));
#1888=CARTESIAN_POINT('',(-1.385,0.970000000000001,0.63));
#1889=VECTOR('',#1890,1.);
#1890=DIRECTION('',(-2.28911963840238E-016,-1.,0.));
#1891=CARTESIAN_POINT('',(-1.2451077025535,1.27,0.63));
#1892=CARTESIAN_POINT('',(-1.2451077025535,1.27,0.63));
#1893=VECTOR('',#1894,1.);
#1894=DIRECTION('',(-0.4226182617407,-0.90630778703665,0.));
#1895=CARTESIAN_POINT('',(-1.385,1.57,0.63));
#1896=CARTESIAN_POINT('',(-1.385,1.57,0.63));
#1897=VECTOR('',#1898,1.);
#1898=DIRECTION('',(0.422618261740699,-0.90630778703665,0.));
#1899=CARTESIAN_POINT('',(-1.385,3.51,0.63));
#1900=CARTESIAN_POINT('',(-1.385,3.51,0.63));
#1901=VECTOR('',#1902,1.);
#1902=DIRECTION('',(-2.28911963840238E-016,-1.,0.));
#1903=CARTESIAN_POINT('',(-1.2451077025535,3.81,0.63));
#1904=VECTOR('',#1905,1.);
#1905=DIRECTION('',(-0.4226182617407,-0.90630778703665,0.));
#1906=CARTESIAN_POINT('',(1.24281076639026,3.52732145214487,0.63));
#1907=CARTESIAN_POINT('',(1.11099559472921,3.81,0.63));
#1908=VECTOR('',#1909,1.);
#1909=DIRECTION('',(0.422618261740862,-0.906307787036574,0.));
#1910=AXIS2_PLACEMENT_3D('',#1911,#1912,#1913);
#1911=CARTESIAN_POINT('',(1.27,3.54,0.63));
#1912=DIRECTION('',(-0.,0.,1.));
#1913=DIRECTION('',(-0.906307786991442,-0.422618261837649,0.));
#1914=CARTESIAN_POINT('',(1.2971892335817,1.55267854791528,0.63));
#1915=CARTESIAN_POINT('',(1.24281076639027,1.55267854785516,0.63));
#1916=AXIS2_PLACEMENT_3D('',#1917,#1918,#1919);
#1917=CARTESIAN_POINT('',(1.27,1.54,0.63));
#1918=DIRECTION('',(0.,-0.,1.));
#1919=DIRECTION('',(0.906307786056524,0.422618263842586,0.));
#1920=CARTESIAN_POINT('',(1.24281076639027,1.55267854785516,0.63));
#1921=VECTOR('',#1922,1.);
#1922=DIRECTION('',(-0.422618261740862,-0.906307787036574,0.));
#1923=AXIS2_PLACEMENT_3D('',#1924,#1925,#1926);
#1924=CARTESIAN_POINT('',(1.27,1.,0.63));
#1925=DIRECTION('',(-0.,0.,1.));
#1926=DIRECTION('',(-0.906307786991439,-0.422618261837655,0.));
#1927=CARTESIAN_POINT('',(1.42900440527079,1.27,0.63));
#1928=VECTOR('',#1929,1.);
#1929=DIRECTION('',(-0.422618261740862,0.906307787036574,0.));
#1930=CARTESIAN_POINT('',(0.66,-8.08266887437253E-017,0.63));
#1931=AXIS2_PLACEMENT_3D('',#1932,#1933,#1934);
#1932=CARTESIAN_POINT('',(0.,0.,0.63));
#1933=DIRECTION('',(0.,0.,1.));
#1934=DIRECTION('',(1.,0.,0.));
#1935=CARTESIAN_POINT('',(3.2,2.54,0.63));
#1936=AXIS2_PLACEMENT_3D('',#1937,#1938,#1939);
#1937=CARTESIAN_POINT('',(2.54,2.54,0.63));
#1938=DIRECTION('',(0.,0.,1.));
#1939=DIRECTION('',(1.,0.,0.));
#1940=CARTESIAN_POINT('',(0.66,2.54,0.63));
#1941=AXIS2_PLACEMENT_3D('',#1942,#1943,#1944);
#1942=CARTESIAN_POINT('',(1.55530143491714E-016,2.54,0.63));
#1943=DIRECTION('',(0.,0.,1.));
#1944=DIRECTION('',(1.,0.,0.));
#1945=CARTESIAN_POINT('',(3.2,-8.08266887437253E-017,0.63));
#1946=AXIS2_PLACEMENT_3D('',#1947,#1948,#1949);
#1947=CARTESIAN_POINT('',(2.54,0.,0.63));
#1948=DIRECTION('',(0.,0.,1.));
#1949=DIRECTION('',(1.,0.,0.));
#1950=CARTESIAN_POINT('',(1.24281076639026,3.52732145214487,0.63));
#1951=VECTOR('',#1952,1.);
#1952=DIRECTION('',(0.,0.,1.));
#1953=CARTESIAN_POINT('',(1.29718923360973,3.52732145214485,0.63));
#1954=VECTOR('',#1955,1.);
#1955=DIRECTION('',(0.,0.,1.));
#1956=CARTESIAN_POINT('',(1.2971892335817,1.55267854791528,0.63));
#1957=VECTOR('',#1958,1.);
#1958=DIRECTION('',(0.,0.,1.));
#1959=CARTESIAN_POINT('',(1.24281076639027,1.55267854785516,0.63));
#1960=VECTOR('',#1961,1.);
#1961=DIRECTION('',(0.,0.,1.));
#1962=CARTESIAN_POINT('',(3.925,3.51,0.63));
#1963=VECTOR('',#1964,1.);
#1964=DIRECTION('',(0.,0.,1.));
#1965=CARTESIAN_POINT('',(-1.385,3.51,0.63));
#1966=VECTOR('',#1967,1.);
#1967=DIRECTION('',(0.,0.,1.));
#1968=CARTESIAN_POINT('',(-1.385,1.57,0.63));
#1969=VECTOR('',#1970,1.);
#1970=DIRECTION('',(0.,0.,1.));
#1971=CARTESIAN_POINT('',(-1.2451077025535,1.27,0.63));
#1972=VECTOR('',#1973,1.);
#1973=DIRECTION('',(0.,0.,1.));
#1974=CARTESIAN_POINT('',(-1.385,0.970000000000001,0.63));
#1975=VECTOR('',#1976,1.);
#1976=DIRECTION('',(0.,0.,1.));
#1977=CARTESIAN_POINT('',(-1.385,-0.97,0.63));
#1978=VECTOR('',#1979,1.);
#1979=DIRECTION('',(0.,0.,1.));
#1980=CARTESIAN_POINT('',(-1.2451077025535,-1.27,0.63));
#1981=VECTOR('',#1982,1.);
#1982=DIRECTION('',(0.,0.,1.));
#1983=CARTESIAN_POINT('',(1.11099559472921,-1.27,1.9));
#1984=VECTOR('',#1985,1.);
#1985=DIRECTION('',(0.,0.,-1.));
#1986=CARTESIAN_POINT('',(1.24281076639027,-0.987321452144841,0.63));
#1987=VECTOR('',#1988,1.);
#1988=DIRECTION('',(0.,0.,1.));
#1989=CARTESIAN_POINT('',(1.2971892335817,-0.987321452084722,0.63));
#1990=VECTOR('',#1991,1.);
#1991=DIRECTION('',(0.,0.,1.));
#1992=CARTESIAN_POINT('',(1.42900440527079,-1.27,0.63));
#1993=VECTOR('',#1994,1.);
#1994=DIRECTION('',(0.,0.,1.));
#1995=CARTESIAN_POINT('',(3.7851077025535,-1.27,0.63));
#1996=VECTOR('',#1997,1.);
#1997=DIRECTION('',(0.,0.,1.));
#1998=CARTESIAN_POINT('',(3.925,-0.97,0.63));
#1999=VECTOR('',#2000,1.);
#2000=DIRECTION('',(0.,0.,1.));
#2001=CARTESIAN_POINT('',(3.925,0.97,0.63));
#2002=VECTOR('',#2003,1.);
#2003=DIRECTION('',(0.,0.,1.));
#2004=CARTESIAN_POINT('',(3.7851077025535,1.27,0.63));
#2005=VECTOR('',#2006,1.);
#2006=DIRECTION('',(0.,0.,1.));
#2007=CARTESIAN_POINT('',(3.925,1.57,0.63));
#2008=VECTOR('',#2009,1.);
#2009=DIRECTION('',(0.,0.,1.));
#2010=CARTESIAN_POINT('',(0.,-0.19,-2.42));
#2011=AXIS2_PLACEMENT_3D('',#2012,#2013,#2014);
#2012=CARTESIAN_POINT('',(0.,0.,-2.42));
#2013=DIRECTION('',(-0.,-0.,-1.));
#2014=DIRECTION('',(0.,-1.,0.));
#2015=CARTESIAN_POINT('',(0.,-0.38,-2.23));
#2016=AXIS2_PLACEMENT_3D('',#2017,#2018,#2019);
#2017=CARTESIAN_POINT('',(0.,0.,-2.23));
#2018=DIRECTION('',(-0.,-0.,-1.));
#2019=DIRECTION('',(0.,-1.,0.));
#2020=CARTESIAN_POINT('',(0.,-0.38,0.));
#2021=AXIS2_PLACEMENT_3D('',#2022,#2023,#2024);
#2022=CARTESIAN_POINT('',(0.,0.,0.));
#2023=DIRECTION('',(-0.,-0.,-1.));
#2024=DIRECTION('',(0.,-1.,0.));
#2025=CARTESIAN_POINT('',(0.,-0.66,0.28));
#2026=AXIS2_PLACEMENT_3D('',#2027,#2028,#2029);
#2027=CARTESIAN_POINT('',(0.,0.,0.28));
#2028=DIRECTION('',(-0.,-0.,-1.));
#2029=DIRECTION('',(0.,-1.,0.));
#2030=CARTESIAN_POINT('',(0.,-0.66,0.852878387081807));
#2031=AXIS2_PLACEMENT_3D('',#2032,#2033,#2034);
#2032=CARTESIAN_POINT('',(0.,0.,0.852878387081807));
#2033=DIRECTION('',(-0.,-0.,-1.));
#2034=DIRECTION('',(0.,-1.,0.));
#2035=CARTESIAN_POINT('',(0.,-0.81,1.265));
#2036=AXIS2_PLACEMENT_3D('',#2037,#2038,#2039);
#2037=CARTESIAN_POINT('',(0.,0.,1.265));
#2038=DIRECTION('',(-0.,-0.,-1.));
#2039=DIRECTION('',(0.,-1.,0.));
#2040=CARTESIAN_POINT('',(0.,-0.66,1.265));
#2041=AXIS2_PLACEMENT_3D('',#2042,#2043,#2044);
#2042=CARTESIAN_POINT('',(0.,0.,1.265));
#2043=DIRECTION('',(-0.,-0.,-1.));
#2044=DIRECTION('',(0.,-1.,0.));
#2045=CARTESIAN_POINT('',(0.,-0.66,1.9));
#2046=AXIS2_PLACEMENT_3D('',#2047,#2048,#2049);
#2047=CARTESIAN_POINT('',(0.,0.,1.9));
#2048=DIRECTION('',(-0.,-0.,-1.));
#2049=DIRECTION('',(0.,-1.,0.));
#2050=CARTESIAN_POINT('',(0.,-0.915,1.9));
#2051=AXIS2_PLACEMENT_3D('',#2052,#2053,#2054);
#2052=CARTESIAN_POINT('',(0.,0.,1.9));
#2053=DIRECTION('',(-0.,-0.,-1.));
#2054=DIRECTION('',(0.,-1.,0.));
#2055=CARTESIAN_POINT('',(0.,-0.915,2.41));
#2056=AXIS2_PLACEMENT_3D('',#2057,#2058,#2059);
#2057=CARTESIAN_POINT('',(0.,0.,2.41));
#2058=DIRECTION('',(-0.,-0.,-1.));
#2059=DIRECTION('',(0.,-1.,0.));
#2060=CARTESIAN_POINT('',(0.,-0.667819926521361,2.41));
#2061=AXIS2_PLACEMENT_3D('',#2062,#2063,#2064);
#2062=CARTESIAN_POINT('',(0.,0.,2.41));
#2063=DIRECTION('',(-0.,-0.,-1.));
#2064=DIRECTION('',(0.,-1.,0.));
#2065=CARTESIAN_POINT('',(0.,-0.5,2.21));
#2066=AXIS2_PLACEMENT_3D('',#2067,#2068,#2069);
#2067=CARTESIAN_POINT('',(0.,0.,2.21));
#2068=DIRECTION('',(0.,-0.,-1.));
#2069=DIRECTION('',(0.,-1.,0.));
#2070=CARTESIAN_POINT('',(0.,-0.5,1.71));
#2071=AXIS2_PLACEMENT_3D('',#2072,#2073,#2074);
#2072=CARTESIAN_POINT('',(0.,0.,1.71));
#2073=DIRECTION('',(0.,-0.,-1.));
#2074=DIRECTION('',(0.,-1.,0.));
#2075=CARTESIAN_POINT('',(0.,-0.225,0.71));
#2076=AXIS2_PLACEMENT_3D('',#2077,#2078,#2079);
#2077=CARTESIAN_POINT('',(0.,0.,0.71));
#2078=DIRECTION('',(-0.,-0.,-1.));
#2079=DIRECTION('',(0.,-1.,0.));
#2080=CARTESIAN_POINT('',(0.,-0.5,0.71));
#2081=AXIS2_PLACEMENT_3D('',#2082,#2083,#2084);
#2082=CARTESIAN_POINT('',(0.,0.,0.71));
#2083=DIRECTION('',(-0.,-0.,-1.));
#2084=DIRECTION('',(0.,-1.,0.));
#2085=CARTESIAN_POINT('',(0.,-0.5,0.435193639281201));
#2086=AXIS2_PLACEMENT_3D('',#2087,#2088,#2089);
#2087=CARTESIAN_POINT('',(0.,0.,0.435193639281201));
#2088=DIRECTION('',(0.,-0.,-1.));
#2089=DIRECTION('',(0.,-1.,0.));
#2090=CARTESIAN_POINT('',(0.,-0.275,0.3));
#2091=AXIS2_PLACEMENT_3D('',#2092,#2093,#2094);
#2092=CARTESIAN_POINT('',(0.,0.,0.3));
#2093=DIRECTION('',(0.,-0.,-1.));
#2094=DIRECTION('',(0.,-1.,0.));
#2095=CARTESIAN_POINT('',(0.,-0.275,-1.49));
#2096=AXIS2_PLACEMENT_3D('',#2097,#2098,#2099);
#2097=CARTESIAN_POINT('',(0.,0.,-1.49));
#2098=DIRECTION('',(0.,-0.,-1.));
#2099=DIRECTION('',(0.,-1.,0.));
#2100=CARTESIAN_POINT('',(0.,-0.0299999999737154,-1.63721085167755));
#2101=AXIS2_PLACEMENT_3D('',#2102,#2103,#2104);
#2102=CARTESIAN_POINT('',(0.,0.,-1.63721085167755));
#2103=DIRECTION('',(-0.,-0.,-1.));
#2104=DIRECTION('',(0.,-1.,0.));
ENDSEC;
END-ISO-10303-21;
