ISO-10303-21;
HEADER;
FILE_DESCRIPTION(('STEP AP214'),
    '1');
FILE_NAME('SL-105-TT-12',
    '2020-03-30T23:14:43',
    ('AF'),
    (''),
    'UNSPECIFIED',
    'UNSPECIFIED',
    '');
/*Based on Samtec Inc. SL, SDL series datasheet*/
FILE_SCHEMA(('AUTOMOTIVE_DESIGN { 1 0 10303 214 3 1 1}'));
ENDSEC;

DATA;
#1=SHAPE_REPRESENTATION('NONE',(#2,#58,#121),#6);
#2=AXIS2_PLACEMENT_3D('',#3,#4,#5);
#3=CARTESIAN_POINT('',(0.,0.,0.));
#4=DIRECTION('',(0.,0.,1.));
#5=DIRECTION('',(1.,0.,0.));
#6=(GEOMETRIC_REPRESENTATION_CONTEXT(3)GLOBAL_UNCERTAINTY_ASSIGNED_CONTEXT((#8))
GLOBAL_UNIT_ASSIGNED_CONTEXT((#7,#9,#10))REPRESENTATION_CONTEXT('NONE','NONE'));
#7=(LENGTH_UNIT()NAMED_UNIT(*)SI_UNIT(.MILLI.,.METRE.));
#8=UNCERTAINTY_MEASURE_WITH_UNIT(LENGTH_MEASURE(1.E-005),#7,'NONE','NONE');
#9=(NAMED_UNIT(*)PLANE_ANGLE_UNIT()SI_UNIT($,.RADIAN.));
#10=(NAMED_UNIT(*)SI_UNIT($,.STERADIAN.)SOLID_ANGLE_UNIT());
#11=SHAPE_DEFINITION_REPRESENTATION(#12,#1);
#12=PRODUCT_DEFINITION_SHAPE('NONE','NONE',#13);
#13=PRODUCT_DEFINITION('','UNSPECIFIED',#14,#22);
#14=PRODUCT_DEFINITION_FORMATION_WITH_SPECIFIED_SOURCE('ANY','UNSPECIFIED',#15,.NOT_KNOWN.);
#15=PRODUCT('','SDL-101-TT-12','Based on Samtec Inc. SL, SDL series datasheet',(
#25));
#16=PERSON('UNSPECIFIED','AF','UNSPECIFIED',('UNSPECIFIED'),('UNSPECIFIED'),
('UNSPECIFIED'));
#17=ORGANIZATION('UNSPECIFIED','UNSPECIFIED','UNSPECIFIED');
#18=PERSON_AND_ORGANIZATION(#16,#17);
#19=PERSON_AND_ORGANIZATION_ROLE('design_owner');
#20=CC_DESIGN_PERSON_AND_ORGANIZATION_ASSIGNMENT(#18,#19,(#15));
#21=PRODUCT_RELATED_PRODUCT_CATEGORY('assembly','',(#15));
#22=DESIGN_CONTEXT('detailed design',#23,'design');
#23=APPLICATION_CONTEXT('configuration controlled 3d designs of mechanical parts and assemblies');
#24=APPLICATION_PROTOCOL_DEFINITION('international standard','automotive_design',
2011,#23);
#25=PRODUCT_CONTEXT('NONE',#23,'mechanical');
#26=CC_DESIGN_DATE_AND_TIME_ASSIGNMENT(#27,#31,(#13));
#27=DATE_AND_TIME(#28,#29);
#28=CALENDAR_DATE(0,1,1);
#29=LOCAL_TIME(0,0,0.,#30);
#30=COORDINATED_UNIVERSAL_TIME_OFFSET(0,0,.AHEAD.);
#31=DATE_TIME_ROLE('creation_date');
#32=CC_DESIGN_APPROVAL(#33,(#13));
#33=APPROVAL(#34,'UNSPECIFIED');
#34=APPROVAL_STATUS('not_yet_approved');
#35=APPROVAL_DATE_TIME(#36,#33);
#36=DATE_AND_TIME(#37,#38);
#37=CALENDAR_DATE(0,1,1);
#38=LOCAL_TIME(0,0,0.,#39);
#39=COORDINATED_UNIVERSAL_TIME_OFFSET(0,0,.AHEAD.);
#40=DERIVED_UNIT((#44,#41));
#41=DERIVED_UNIT_ELEMENT(#42,-1.);
#42=VOLUME_UNIT(#43);
#43=DIMENSIONAL_EXPONENTS(3.,0.,0.,0.,0.,0.,0.);
#44=(DERIVED_UNIT_ELEMENT($,-1.)NAMED_UNIT($)MASS_UNIT()SI_UNIT($,.GRAM.));
#45=MANIFOLD_SOLID_BREP('',#46);
#46=CLOSED_SHELL('',(#147,#156,#165,#174,#183,#192,#201,#210,#219,#228,#237,#246,
#255,#264,#273,#282,#291,#300));
#47=COLOUR_RGB($,0.156862745098039,0.156862745098039,0.156862745098039);
#48=FILL_AREA_STYLE_COLOUR($,#47);
#49=FILL_AREA_STYLE($,(#48));
#50=SURFACE_STYLE_FILL_AREA(#49);
#51=SURFACE_SIDE_STYLE('',(#50));
#52=SURFACE_STYLE_USAGE(.BOTH.,#51);
#53=PRESENTATION_STYLE_ASSIGNMENT((#52));
#54=MECHANICAL_DESIGN_GEOMETRIC_PRESENTATION_REPRESENTATION('NONE',(#55,#96,#155,
#164,#173,#182,#191,#200,#209,#218,#227,#236,#245,#254,#263,#272,#281,#290,#299,
#308,#317,#326,#335,#344,#353,#362,#371,#380,#389,#398,#407,#416,#425,#434,#443,
#452,#461,#470,#479,#488),#6);
#55=STYLED_ITEM('',(#53),#45);
#56=ADVANCED_BREP_SHAPE_REPRESENTATION('NONE',(#45),#6);
#57=SHAPE_REPRESENTATION_RELATIONSHIP('','',#1,#56);
#58=AXIS2_PLACEMENT_3D('',#59,#60,#61);
#59=CARTESIAN_POINT('',(0.,0.,0.));
#60=DIRECTION('',(0.,0.,1.));
#61=DIRECTION('',(1.,0.,0.));
#62=SHAPE_REPRESENTATION('NONE',(#2),#6);
#63=SHAPE_DEFINITION_REPRESENTATION(#64,#62);
#64=PRODUCT_DEFINITION_SHAPE('NONE','NONE',#65);
#65=PRODUCT_DEFINITION('','UNSPECIFIED',#66,#69);
#66=PRODUCT_DEFINITION_FORMATION_WITH_SPECIFIED_SOURCE('ANY','UNSPECIFIED',#67,.NOT_KNOWN.);
#67=PRODUCT('','SxL-1xx-TT-12-pin','Based on Samtec Inc. SL, SDL series datasheet',
(#72));
#68=PRODUCT_RELATED_PRODUCT_CATEGORY('detail','',(#67));
#69=DESIGN_CONTEXT('detailed design',#70,'design');
#70=APPLICATION_CONTEXT('configuration controlled 3d designs of mechanical parts and assemblies');
#71=APPLICATION_PROTOCOL_DEFINITION('international standard','automotive_design',
2011,#70);
#72=PRODUCT_CONTEXT('NONE',#70,'mechanical');
#73=CC_DESIGN_DATE_AND_TIME_ASSIGNMENT(#74,#78,(#65));
#74=DATE_AND_TIME(#75,#76);
#75=CALENDAR_DATE(0,1,1);
#76=LOCAL_TIME(0,0,0.,#77);
#77=COORDINATED_UNIVERSAL_TIME_OFFSET(0,0,.AHEAD.);
#78=DATE_TIME_ROLE('creation_date');
#79=CC_DESIGN_APPROVAL(#80,(#65));
#80=APPROVAL(#81,'UNSPECIFIED');
#81=APPROVAL_STATUS('not_yet_approved');
#82=APPROVAL_DATE_TIME(#83,#80);
#83=DATE_AND_TIME(#84,#85);
#84=CALENDAR_DATE(0,1,1);
#85=LOCAL_TIME(0,0,0.,#86);
#86=COORDINATED_UNIVERSAL_TIME_OFFSET(0,0,.AHEAD.);
#87=MANIFOLD_SOLID_BREP('',#88);
#88=CLOSED_SHELL('',(#309,#318,#327,#336,#345,#354,#363,#372,#381,#390,#399,#408,
#417,#426,#435,#444,#453,#462,#471,#480));
#89=COLOUR_RGB($,0.827450980392157,0.831372549019608,0.835294117647059);
#90=FILL_AREA_STYLE_COLOUR($,#89);
#91=FILL_AREA_STYLE($,(#90));
#92=SURFACE_STYLE_FILL_AREA(#91);
#93=SURFACE_SIDE_STYLE('',(#92));
#94=SURFACE_STYLE_USAGE(.BOTH.,#93);
#95=PRESENTATION_STYLE_ASSIGNMENT((#94));
#96=STYLED_ITEM('',(#95),#87);
#97=ADVANCED_BREP_SHAPE_REPRESENTATION('NONE',(#87),#6);
#98=SHAPE_REPRESENTATION_RELATIONSHIP('','',#62,#97);
#99=ITEM_DEFINED_TRANSFORMATION('','',#2,#58);
#100=(REPRESENTATION_RELATIONSHIP('','',#62,#1)REPRESENTATION_RELATIONSHIP_WITH_TRANSFORMATION(
#99)SHAPE_REPRESENTATION_RELATIONSHIP());
#101=NEXT_ASSEMBLY_USAGE_OCCURRENCE('1','','',#13,#65,$);
#102=CC_DESIGN_SECURITY_CLASSIFICATION(#103,(#101));
#103=SECURITY_CLASSIFICATION('','',#104);
#104=SECURITY_CLASSIFICATION_LEVEL('unclassified');
#105=CC_DESIGN_DATE_AND_TIME_ASSIGNMENT(#106,#110,(#103));
#106=DATE_AND_TIME(#107,#108);
#107=CALENDAR_DATE(0,1,1);
#108=LOCAL_TIME(0,0,0.,#109);
#109=COORDINATED_UNIVERSAL_TIME_OFFSET(0,0,.AHEAD.);
#110=DATE_TIME_ROLE('classification_date');
#111=CC_DESIGN_APPROVAL(#112,(#103));
#112=APPROVAL(#113,'UNSPECIFIED');
#113=APPROVAL_STATUS('not_yet_approved');
#114=APPROVAL_DATE_TIME(#115,#112);
#115=DATE_AND_TIME(#116,#117);
#116=CALENDAR_DATE(0,1,1);
#117=LOCAL_TIME(0,0,0.,#118);
#118=COORDINATED_UNIVERSAL_TIME_OFFSET(0,0,.AHEAD.);
#119=PRODUCT_DEFINITION_SHAPE('NONE','NONE',#101);
#120=CONTEXT_DEPENDENT_SHAPE_REPRESENTATION(#100,#119);
#121=AXIS2_PLACEMENT_3D('',#122,#123,#124);
#122=CARTESIAN_POINT('',(1.55530143491714E-016,2.54,0.));
#123=DIRECTION('',(0.,0.,1.));
#124=DIRECTION('',(1.,0.,0.));
#125=ITEM_DEFINED_TRANSFORMATION('','',#2,#121);
#126=(REPRESENTATION_RELATIONSHIP('','',#62,#1)REPRESENTATION_RELATIONSHIP_WITH_TRANSFORMATION(
#125)SHAPE_REPRESENTATION_RELATIONSHIP());
#127=NEXT_ASSEMBLY_USAGE_OCCURRENCE('2','','',#13,#65,$);
#128=CC_DESIGN_SECURITY_CLASSIFICATION(#129,(#127));
#129=SECURITY_CLASSIFICATION('','',#130);
#130=SECURITY_CLASSIFICATION_LEVEL('unclassified');
#131=CC_DESIGN_DATE_AND_TIME_ASSIGNMENT(#132,#136,(#129));
#132=DATE_AND_TIME(#133,#134);
#133=CALENDAR_DATE(0,1,1);
#134=LOCAL_TIME(0,0,0.,#135);
#135=COORDINATED_UNIVERSAL_TIME_OFFSET(0,0,.AHEAD.);
#136=DATE_TIME_ROLE('classification_date');
#137=CC_DESIGN_APPROVAL(#138,(#129));
#138=APPROVAL(#139,'UNSPECIFIED');
#139=APPROVAL_STATUS('not_yet_approved');
#140=APPROVAL_DATE_TIME(#141,#138);
#141=DATE_AND_TIME(#142,#143);
#142=CALENDAR_DATE(0,1,1);
#143=LOCAL_TIME(0,0,0.,#144);
#144=COORDINATED_UNIVERSAL_TIME_OFFSET(0,0,.AHEAD.);
#145=PRODUCT_DEFINITION_SHAPE('NONE','NONE',#127);
#146=CONTEXT_DEPENDENT_SHAPE_REPRESENTATION(#126,#145);
#147=ADVANCED_FACE('',(#489,#491,#493),#495,.T.);
#148=COLOUR_RGB($,0.156862745098039,0.156862745098039,0.156862745098039);
#149=FILL_AREA_STYLE_COLOUR($,#148);
#150=FILL_AREA_STYLE($,(#149));
#151=SURFACE_STYLE_FILL_AREA(#150);
#152=SURFACE_SIDE_STYLE('',(#151));
#153=SURFACE_STYLE_USAGE(.BOTH.,#152);
#154=PRESENTATION_STYLE_ASSIGNMENT((#153));
#155=STYLED_ITEM('',(#154),#147);
#156=ADVANCED_FACE('',(#500,#502,#504),#506,.F.);
#157=COLOUR_RGB($,0.156862745098039,0.156862745098039,0.156862745098039);
#158=FILL_AREA_STYLE_COLOUR($,#157);
#159=FILL_AREA_STYLE($,(#158));
#160=SURFACE_STYLE_FILL_AREA(#159);
#161=SURFACE_SIDE_STYLE('',(#160));
#162=SURFACE_STYLE_USAGE(.BOTH.,#161);
#163=PRESENTATION_STYLE_ASSIGNMENT((#162));
#164=STYLED_ITEM('',(#163),#156);
#165=ADVANCED_FACE('',(#511,#513),#515,.F.);
#166=COLOUR_RGB($,0.156862745098039,0.156862745098039,0.156862745098039);
#167=FILL_AREA_STYLE_COLOUR($,#166);
#168=FILL_AREA_STYLE($,(#167));
#169=SURFACE_STYLE_FILL_AREA(#168);
#170=SURFACE_SIDE_STYLE('',(#169));
#171=SURFACE_STYLE_USAGE(.BOTH.,#170);
#172=PRESENTATION_STYLE_ASSIGNMENT((#171));
#173=STYLED_ITEM('',(#172),#165);
#174=ADVANCED_FACE('',(#520),#522,.T.);
#175=COLOUR_RGB($,0.156862745098039,0.156862745098039,0.156862745098039);
#176=FILL_AREA_STYLE_COLOUR($,#175);
#177=FILL_AREA_STYLE($,(#176));
#178=SURFACE_STYLE_FILL_AREA(#177);
#179=SURFACE_SIDE_STYLE('',(#178));
#180=SURFACE_STYLE_USAGE(.BOTH.,#179);
#181=PRESENTATION_STYLE_ASSIGNMENT((#180));
#182=STYLED_ITEM('',(#181),#174);
#183=ADVANCED_FACE('',(#527),#529,.T.);
#184=COLOUR_RGB($,0.156862745098039,0.156862745098039,0.156862745098039);
#185=FILL_AREA_STYLE_COLOUR($,#184);
#186=FILL_AREA_STYLE($,(#185));
#187=SURFACE_STYLE_FILL_AREA(#186);
#188=SURFACE_SIDE_STYLE('',(#187));
#189=SURFACE_STYLE_USAGE(.BOTH.,#188);
#190=PRESENTATION_STYLE_ASSIGNMENT((#189));
#191=STYLED_ITEM('',(#190),#183);
#192=ADVANCED_FACE('',(#534),#536,.T.);
#193=COLOUR_RGB($,0.156862745098039,0.156862745098039,0.156862745098039);
#194=FILL_AREA_STYLE_COLOUR($,#193);
#195=FILL_AREA_STYLE($,(#194));
#196=SURFACE_STYLE_FILL_AREA(#195);
#197=SURFACE_SIDE_STYLE('',(#196));
#198=SURFACE_STYLE_USAGE(.BOTH.,#197);
#199=PRESENTATION_STYLE_ASSIGNMENT((#198));
#200=STYLED_ITEM('',(#199),#192);
#201=ADVANCED_FACE('',(#541),#543,.T.);
#202=COLOUR_RGB($,0.156862745098039,0.156862745098039,0.156862745098039);
#203=FILL_AREA_STYLE_COLOUR($,#202);
#204=FILL_AREA_STYLE($,(#203));
#205=SURFACE_STYLE_FILL_AREA(#204);
#206=SURFACE_SIDE_STYLE('',(#205));
#207=SURFACE_STYLE_USAGE(.BOTH.,#206);
#208=PRESENTATION_STYLE_ASSIGNMENT((#207));
#209=STYLED_ITEM('',(#208),#201);
#210=ADVANCED_FACE('',(#548),#550,.T.);
#211=COLOUR_RGB($,0.156862745098039,0.156862745098039,0.156862745098039);
#212=FILL_AREA_STYLE_COLOUR($,#211);
#213=FILL_AREA_STYLE($,(#212));
#214=SURFACE_STYLE_FILL_AREA(#213);
#215=SURFACE_SIDE_STYLE('',(#214));
#216=SURFACE_STYLE_USAGE(.BOTH.,#215);
#217=PRESENTATION_STYLE_ASSIGNMENT((#216));
#218=STYLED_ITEM('',(#217),#210);
#219=ADVANCED_FACE('',(#555),#557,.T.);
#220=COLOUR_RGB($,0.156862745098039,0.156862745098039,0.156862745098039);
#221=FILL_AREA_STYLE_COLOUR($,#220);
#222=FILL_AREA_STYLE($,(#221));
#223=SURFACE_STYLE_FILL_AREA(#222);
#224=SURFACE_SIDE_STYLE('',(#223));
#225=SURFACE_STYLE_USAGE(.BOTH.,#224);
#226=PRESENTATION_STYLE_ASSIGNMENT((#225));
#227=STYLED_ITEM('',(#226),#219);
#228=ADVANCED_FACE('',(#562),#564,.T.);
#229=COLOUR_RGB($,0.156862745098039,0.156862745098039,0.156862745098039);
#230=FILL_AREA_STYLE_COLOUR($,#229);
#231=FILL_AREA_STYLE($,(#230));
#232=SURFACE_STYLE_FILL_AREA(#231);
#233=SURFACE_SIDE_STYLE('',(#232));
#234=SURFACE_STYLE_USAGE(.BOTH.,#233);
#235=PRESENTATION_STYLE_ASSIGNMENT((#234));
#236=STYLED_ITEM('',(#235),#228);
#237=ADVANCED_FACE('',(#569),#571,.T.);
#238=COLOUR_RGB($,0.156862745098039,0.156862745098039,0.156862745098039);
#239=FILL_AREA_STYLE_COLOUR($,#238);
#240=FILL_AREA_STYLE($,(#239));
#241=SURFACE_STYLE_FILL_AREA(#240);
#242=SURFACE_SIDE_STYLE('',(#241));
#243=SURFACE_STYLE_USAGE(.BOTH.,#242);
#244=PRESENTATION_STYLE_ASSIGNMENT((#243));
#245=STYLED_ITEM('',(#244),#237);
#246=ADVANCED_FACE('',(#576),#578,.T.);
#247=COLOUR_RGB($,0.156862745098039,0.156862745098039,0.156862745098039);
#248=FILL_AREA_STYLE_COLOUR($,#247);
#249=FILL_AREA_STYLE($,(#248));
#250=SURFACE_STYLE_FILL_AREA(#249);
#251=SURFACE_SIDE_STYLE('',(#250));
#252=SURFACE_STYLE_USAGE(.BOTH.,#251);
#253=PRESENTATION_STYLE_ASSIGNMENT((#252));
#254=STYLED_ITEM('',(#253),#246);
#255=ADVANCED_FACE('',(#583),#585,.T.);
#256=COLOUR_RGB($,0.156862745098039,0.156862745098039,0.156862745098039);
#257=FILL_AREA_STYLE_COLOUR($,#256);
#258=FILL_AREA_STYLE($,(#257));
#259=SURFACE_STYLE_FILL_AREA(#258);
#260=SURFACE_SIDE_STYLE('',(#259));
#261=SURFACE_STYLE_USAGE(.BOTH.,#260);
#262=PRESENTATION_STYLE_ASSIGNMENT((#261));
#263=STYLED_ITEM('',(#262),#255);
#264=ADVANCED_FACE('',(#590),#592,.T.);
#265=COLOUR_RGB($,0.156862745098039,0.156862745098039,0.156862745098039);
#266=FILL_AREA_STYLE_COLOUR($,#265);
#267=FILL_AREA_STYLE($,(#266));
#268=SURFACE_STYLE_FILL_AREA(#267);
#269=SURFACE_SIDE_STYLE('',(#268));
#270=SURFACE_STYLE_USAGE(.BOTH.,#269);
#271=PRESENTATION_STYLE_ASSIGNMENT((#270));
#272=STYLED_ITEM('',(#271),#264);
#273=ADVANCED_FACE('',(#597),#599,.T.);
#274=COLOUR_RGB($,0.156862745098039,0.156862745098039,0.156862745098039);
#275=FILL_AREA_STYLE_COLOUR($,#274);
#276=FILL_AREA_STYLE($,(#275));
#277=SURFACE_STYLE_FILL_AREA(#276);
#278=SURFACE_SIDE_STYLE('',(#277));
#279=SURFACE_STYLE_USAGE(.BOTH.,#278);
#280=PRESENTATION_STYLE_ASSIGNMENT((#279));
#281=STYLED_ITEM('',(#280),#273);
#282=ADVANCED_FACE('',(#604),#606,.T.);
#283=COLOUR_RGB($,0.156862745098039,0.156862745098039,0.156862745098039);
#284=FILL_AREA_STYLE_COLOUR($,#283);
#285=FILL_AREA_STYLE($,(#284));
#286=SURFACE_STYLE_FILL_AREA(#285);
#287=SURFACE_SIDE_STYLE('',(#286));
#288=SURFACE_STYLE_USAGE(.BOTH.,#287);
#289=PRESENTATION_STYLE_ASSIGNMENT((#288));
#290=STYLED_ITEM('',(#289),#282);
#291=ADVANCED_FACE('',(#611),#613,.T.);
#292=COLOUR_RGB($,0.156862745098039,0.156862745098039,0.156862745098039);
#293=FILL_AREA_STYLE_COLOUR($,#292);
#294=FILL_AREA_STYLE($,(#293));
#295=SURFACE_STYLE_FILL_AREA(#294);
#296=SURFACE_SIDE_STYLE('',(#295));
#297=SURFACE_STYLE_USAGE(.BOTH.,#296);
#298=PRESENTATION_STYLE_ASSIGNMENT((#297));
#299=STYLED_ITEM('',(#298),#291);
#300=ADVANCED_FACE('',(#618,#620),#622,.F.);
#301=COLOUR_RGB($,0.156862745098039,0.156862745098039,0.156862745098039);
#302=FILL_AREA_STYLE_COLOUR($,#301);
#303=FILL_AREA_STYLE($,(#302));
#304=SURFACE_STYLE_FILL_AREA(#303);
#305=SURFACE_SIDE_STYLE('',(#304));
#306=SURFACE_STYLE_USAGE(.BOTH.,#305);
#307=PRESENTATION_STYLE_ASSIGNMENT((#306));
#308=STYLED_ITEM('',(#307),#300);
#309=ADVANCED_FACE('',(#627),#629,.T.);
#310=COLOUR_RGB($,0.827450980392157,0.831372549019608,0.835294117647059);
#311=FILL_AREA_STYLE_COLOUR($,#310);
#312=FILL_AREA_STYLE($,(#311));
#313=SURFACE_STYLE_FILL_AREA(#312);
#314=SURFACE_SIDE_STYLE('',(#313));
#315=SURFACE_STYLE_USAGE(.BOTH.,#314);
#316=PRESENTATION_STYLE_ASSIGNMENT((#315));
#317=STYLED_ITEM('',(#316),#309);
#318=ADVANCED_FACE('',(#634,#636),#638,.T.);
#319=COLOUR_RGB($,0.827450980392157,0.831372549019608,0.835294117647059);
#320=FILL_AREA_STYLE_COLOUR($,#319);
#321=FILL_AREA_STYLE($,(#320));
#322=SURFACE_STYLE_FILL_AREA(#321);
#323=SURFACE_SIDE_STYLE('',(#322));
#324=SURFACE_STYLE_USAGE(.BOTH.,#323);
#325=PRESENTATION_STYLE_ASSIGNMENT((#324));
#326=STYLED_ITEM('',(#325),#318);
#327=ADVANCED_FACE('',(#643,#645),#647,.T.);
#328=COLOUR_RGB($,0.827450980392157,0.831372549019608,0.835294117647059);
#329=FILL_AREA_STYLE_COLOUR($,#328);
#330=FILL_AREA_STYLE($,(#329));
#331=SURFACE_STYLE_FILL_AREA(#330);
#332=SURFACE_SIDE_STYLE('',(#331));
#333=SURFACE_STYLE_USAGE(.BOTH.,#332);
#334=PRESENTATION_STYLE_ASSIGNMENT((#333));
#335=STYLED_ITEM('',(#334),#327);
#336=ADVANCED_FACE('',(#652,#654),#656,.T.);
#337=COLOUR_RGB($,0.827450980392157,0.831372549019608,0.835294117647059);
#338=FILL_AREA_STYLE_COLOUR($,#337);
#339=FILL_AREA_STYLE($,(#338));
#340=SURFACE_STYLE_FILL_AREA(#339);
#341=SURFACE_SIDE_STYLE('',(#340));
#342=SURFACE_STYLE_USAGE(.BOTH.,#341);
#343=PRESENTATION_STYLE_ASSIGNMENT((#342));
#344=STYLED_ITEM('',(#343),#336);
#345=ADVANCED_FACE('',(#661,#663),#665,.T.);
#346=COLOUR_RGB($,0.827450980392157,0.831372549019608,0.835294117647059);
#347=FILL_AREA_STYLE_COLOUR($,#346);
#348=FILL_AREA_STYLE($,(#347));
#349=SURFACE_STYLE_FILL_AREA(#348);
#350=SURFACE_SIDE_STYLE('',(#349));
#351=SURFACE_STYLE_USAGE(.BOTH.,#350);
#352=PRESENTATION_STYLE_ASSIGNMENT((#351));
#353=STYLED_ITEM('',(#352),#345);
#354=ADVANCED_FACE('',(#670,#672),#674,.T.);
#355=COLOUR_RGB($,0.827450980392157,0.831372549019608,0.835294117647059);
#356=FILL_AREA_STYLE_COLOUR($,#355);
#357=FILL_AREA_STYLE($,(#356));
#358=SURFACE_STYLE_FILL_AREA(#357);
#359=SURFACE_SIDE_STYLE('',(#358));
#360=SURFACE_STYLE_USAGE(.BOTH.,#359);
#361=PRESENTATION_STYLE_ASSIGNMENT((#360));
#362=STYLED_ITEM('',(#361),#354);
#363=ADVANCED_FACE('',(#679,#681),#683,.T.);
#364=COLOUR_RGB($,0.827450980392157,0.831372549019608,0.835294117647059);
#365=FILL_AREA_STYLE_COLOUR($,#364);
#366=FILL_AREA_STYLE($,(#365));
#367=SURFACE_STYLE_FILL_AREA(#366);
#368=SURFACE_SIDE_STYLE('',(#367));
#369=SURFACE_STYLE_USAGE(.BOTH.,#368);
#370=PRESENTATION_STYLE_ASSIGNMENT((#369));
#371=STYLED_ITEM('',(#370),#363);
#372=ADVANCED_FACE('',(#688,#690),#692,.T.);
#373=COLOUR_RGB($,0.827450980392157,0.831372549019608,0.835294117647059);
#374=FILL_AREA_STYLE_COLOUR($,#373);
#375=FILL_AREA_STYLE($,(#374));
#376=SURFACE_STYLE_FILL_AREA(#375);
#377=SURFACE_SIDE_STYLE('',(#376));
#378=SURFACE_STYLE_USAGE(.BOTH.,#377);
#379=PRESENTATION_STYLE_ASSIGNMENT((#378));
#380=STYLED_ITEM('',(#379),#372);
#381=ADVANCED_FACE('',(#697,#699),#701,.T.);
#382=COLOUR_RGB($,0.827450980392157,0.831372549019608,0.835294117647059);
#383=FILL_AREA_STYLE_COLOUR($,#382);
#384=FILL_AREA_STYLE($,(#383));
#385=SURFACE_STYLE_FILL_AREA(#384);
#386=SURFACE_SIDE_STYLE('',(#385));
#387=SURFACE_STYLE_USAGE(.BOTH.,#386);
#388=PRESENTATION_STYLE_ASSIGNMENT((#387));
#389=STYLED_ITEM('',(#388),#381);
#390=ADVANCED_FACE('',(#706,#708),#710,.T.);
#391=COLOUR_RGB($,0.827450980392157,0.831372549019608,0.835294117647059);
#392=FILL_AREA_STYLE_COLOUR($,#391);
#393=FILL_AREA_STYLE($,(#392));
#394=SURFACE_STYLE_FILL_AREA(#393);
#395=SURFACE_SIDE_STYLE('',(#394));
#396=SURFACE_STYLE_USAGE(.BOTH.,#395);
#397=PRESENTATION_STYLE_ASSIGNMENT((#396));
#398=STYLED_ITEM('',(#397),#390);
#399=ADVANCED_FACE('',(#715,#717),#719,.T.);
#400=COLOUR_RGB($,0.827450980392157,0.831372549019608,0.835294117647059);
#401=FILL_AREA_STYLE_COLOUR($,#400);
#402=FILL_AREA_STYLE($,(#401));
#403=SURFACE_STYLE_FILL_AREA(#402);
#404=SURFACE_SIDE_STYLE('',(#403));
#405=SURFACE_STYLE_USAGE(.BOTH.,#404);
#406=PRESENTATION_STYLE_ASSIGNMENT((#405));
#407=STYLED_ITEM('',(#406),#399);
#408=ADVANCED_FACE('',(#724,#726),#728,.F.);
#409=COLOUR_RGB($,0.827450980392157,0.831372549019608,0.835294117647059);
#410=FILL_AREA_STYLE_COLOUR($,#409);
#411=FILL_AREA_STYLE($,(#410));
#412=SURFACE_STYLE_FILL_AREA(#411);
#413=SURFACE_SIDE_STYLE('',(#412));
#414=SURFACE_STYLE_USAGE(.BOTH.,#413);
#415=PRESENTATION_STYLE_ASSIGNMENT((#414));
#416=STYLED_ITEM('',(#415),#408);
#417=ADVANCED_FACE('',(#733,#735),#737,.F.);
#418=COLOUR_RGB($,0.827450980392157,0.831372549019608,0.835294117647059);
#419=FILL_AREA_STYLE_COLOUR($,#418);
#420=FILL_AREA_STYLE($,(#419));
#421=SURFACE_STYLE_FILL_AREA(#420);
#422=SURFACE_SIDE_STYLE('',(#421));
#423=SURFACE_STYLE_USAGE(.BOTH.,#422);
#424=PRESENTATION_STYLE_ASSIGNMENT((#423));
#425=STYLED_ITEM('',(#424),#417);
#426=ADVANCED_FACE('',(#742,#744),#746,.F.);
#427=COLOUR_RGB($,0.827450980392157,0.831372549019608,0.835294117647059);
#428=FILL_AREA_STYLE_COLOUR($,#427);
#429=FILL_AREA_STYLE($,(#428));
#430=SURFACE_STYLE_FILL_AREA(#429);
#431=SURFACE_SIDE_STYLE('',(#430));
#432=SURFACE_STYLE_USAGE(.BOTH.,#431);
#433=PRESENTATION_STYLE_ASSIGNMENT((#432));
#434=STYLED_ITEM('',(#433),#426);
#435=ADVANCED_FACE('',(#751,#753),#755,.T.);
#436=COLOUR_RGB($,0.827450980392157,0.831372549019608,0.835294117647059);
#437=FILL_AREA_STYLE_COLOUR($,#436);
#438=FILL_AREA_STYLE($,(#437));
#439=SURFACE_STYLE_FILL_AREA(#438);
#440=SURFACE_SIDE_STYLE('',(#439));
#441=SURFACE_STYLE_USAGE(.BOTH.,#440);
#442=PRESENTATION_STYLE_ASSIGNMENT((#441));
#443=STYLED_ITEM('',(#442),#435);
#444=ADVANCED_FACE('',(#760,#762),#764,.F.);
#445=COLOUR_RGB($,0.827450980392157,0.831372549019608,0.835294117647059);
#446=FILL_AREA_STYLE_COLOUR($,#445);
#447=FILL_AREA_STYLE($,(#446));
#448=SURFACE_STYLE_FILL_AREA(#447);
#449=SURFACE_SIDE_STYLE('',(#448));
#450=SURFACE_STYLE_USAGE(.BOTH.,#449);
#451=PRESENTATION_STYLE_ASSIGNMENT((#450));
#452=STYLED_ITEM('',(#451),#444);
#453=ADVANCED_FACE('',(#769,#771),#773,.F.);
#454=COLOUR_RGB($,0.827450980392157,0.831372549019608,0.835294117647059);
#455=FILL_AREA_STYLE_COLOUR($,#454);
#456=FILL_AREA_STYLE($,(#455));
#457=SURFACE_STYLE_FILL_AREA(#456);
#458=SURFACE_SIDE_STYLE('',(#457));
#459=SURFACE_STYLE_USAGE(.BOTH.,#458);
#460=PRESENTATION_STYLE_ASSIGNMENT((#459));
#461=STYLED_ITEM('',(#460),#453);
#462=ADVANCED_FACE('',(#778,#780),#782,.F.);
#463=COLOUR_RGB($,0.827450980392157,0.831372549019608,0.835294117647059);
#464=FILL_AREA_STYLE_COLOUR($,#463);
#465=FILL_AREA_STYLE($,(#464));
#466=SURFACE_STYLE_FILL_AREA(#465);
#467=SURFACE_SIDE_STYLE('',(#466));
#468=SURFACE_STYLE_USAGE(.BOTH.,#467);
#469=PRESENTATION_STYLE_ASSIGNMENT((#468));
#470=STYLED_ITEM('',(#469),#462);
#471=ADVANCED_FACE('',(#787,#789),#791,.F.);
#472=COLOUR_RGB($,0.827450980392157,0.831372549019608,0.835294117647059);
#473=FILL_AREA_STYLE_COLOUR($,#472);
#474=FILL_AREA_STYLE($,(#473));
#475=SURFACE_STYLE_FILL_AREA(#474);
#476=SURFACE_SIDE_STYLE('',(#475));
#477=SURFACE_STYLE_USAGE(.BOTH.,#476);
#478=PRESENTATION_STYLE_ASSIGNMENT((#477));
#479=STYLED_ITEM('',(#478),#471);
#480=ADVANCED_FACE('',(#796),#798,.T.);
#481=COLOUR_RGB($,0.827450980392157,0.831372549019608,0.835294117647059);
#482=FILL_AREA_STYLE_COLOUR($,#481);
#483=FILL_AREA_STYLE($,(#482));
#484=SURFACE_STYLE_FILL_AREA(#483);
#485=SURFACE_SIDE_STYLE('',(#484));
#486=SURFACE_STYLE_USAGE(.BOTH.,#485);
#487=PRESENTATION_STYLE_ASSIGNMENT((#486));
#488=STYLED_ITEM('',(#487),#480);
#489=FACE_BOUND('',#490,.T.);
#490=EDGE_LOOP('',(#803,#804,#805,#806,#807,#808,#809,#810,#811,#812,#813,#814,#815,
#816));
#491=FACE_BOUND('',#492,.T.);
#492=EDGE_LOOP('',(#817));
#493=FACE_BOUND('',#494,.T.);
#494=EDGE_LOOP('',(#818));
#495=PLANE('',#496);
#496=AXIS2_PLACEMENT_3D('',#497,#498,#499);
#497=CARTESIAN_POINT('',(0.,0.,1.9));
#498=DIRECTION('',(0.,0.,1.));
#499=DIRECTION('',(1.,0.,0.));
#500=FACE_BOUND('',#501,.T.);
#501=EDGE_LOOP('',(#819,#820,#821,#822,#823,#824,#825,#826,#827,#828,#829,#830,#831,
#832));
#502=FACE_BOUND('',#503,.T.);
#503=EDGE_LOOP('',(#833));
#504=FACE_BOUND('',#505,.T.);
#505=EDGE_LOOP('',(#834));
#506=PLANE('',#507);
#507=AXIS2_PLACEMENT_3D('',#508,#509,#510);
#508=CARTESIAN_POINT('',(0.,0.,0.63));
#509=DIRECTION('',(0.,0.,1.));
#510=DIRECTION('',(1.,0.,0.));
#511=FACE_OUTER_BOUND('',#512,.T.);
#512=EDGE_LOOP('',(#835));
#513=FACE_OUTER_BOUND('',#514,.T.);
#514=EDGE_LOOP('',(#836));
#515=CYLINDRICAL_SURFACE('',#516,0.66);
#516=AXIS2_PLACEMENT_3D('',#517,#518,#519);
#517=CARTESIAN_POINT('',(1.55530143491714E-016,2.54,0.));
#518=DIRECTION('',(0.,0.,1.));
#519=DIRECTION('',(1.,0.,0.));
#520=FACE_BOUND('',#521,.T.);
#521=EDGE_LOOP('',(#837,#838,#839,#840));
#522=PLANE('',#523);
#523=AXIS2_PLACEMENT_3D('',#524,#525,#526);
#524=CARTESIAN_POINT('',(1.2451077025535,-1.27,0.63));
#525=DIRECTION('',(0.906307787036646,-0.422618261740708,0.));
#526=DIRECTION('',(0.422618261740708,0.906307787036646,0.));
#527=FACE_BOUND('',#528,.T.);
#528=EDGE_LOOP('',(#841,#842,#843,#844));
#529=PLANE('',#530);
#530=AXIS2_PLACEMENT_3D('',#531,#532,#533);
#531=CARTESIAN_POINT('',(1.385,-0.969999999999997,0.63));
#532=DIRECTION('',(1.,-3.66259142144383E-015,0.));
#533=DIRECTION('',(3.66259142144383E-015,1.,0.));
#534=FACE_BOUND('',#535,.T.);
#535=EDGE_LOOP('',(#845,#846,#847,#848));
#536=PLANE('',#537);
#537=AXIS2_PLACEMENT_3D('',#538,#539,#540);
#538=CARTESIAN_POINT('',(1.38500000000001,0.969999999999994,0.63));
#539=DIRECTION('',(0.906307787036643,0.422618261740713,-0.));
#540=DIRECTION('',(-0.422618261740714,0.906307787036644,0.));
#541=FACE_BOUND('',#542,.T.);
#542=EDGE_LOOP('',(#849,#850,#851,#852));
#543=PLANE('',#544);
#544=AXIS2_PLACEMENT_3D('',#545,#546,#547);
#545=CARTESIAN_POINT('',(1.2451077025535,1.27,0.63));
#546=DIRECTION('',(0.906307787036646,-0.422618261740708,0.));
#547=DIRECTION('',(0.422618261740708,0.906307787036646,0.));
#548=FACE_BOUND('',#549,.T.);
#549=EDGE_LOOP('',(#853,#854,#855,#856));
#550=PLANE('',#551);
#551=AXIS2_PLACEMENT_3D('',#552,#553,#554);
#552=CARTESIAN_POINT('',(1.385,1.57,0.63));
#553=DIRECTION('',(1.,-3.66259142144383E-015,0.));
#554=DIRECTION('',(3.66259142144383E-015,1.,0.));
#555=FACE_BOUND('',#556,.T.);
#556=EDGE_LOOP('',(#857,#858,#859,#860));
#557=PLANE('',#558);
#558=AXIS2_PLACEMENT_3D('',#559,#560,#561);
#559=CARTESIAN_POINT('',(1.38500000000001,3.50999999999999,0.63));
#560=DIRECTION('',(0.906307787036643,0.422618261740713,-0.));
#561=DIRECTION('',(-0.422618261740714,0.906307787036644,0.));
#562=FACE_BOUND('',#563,.T.);
#563=EDGE_LOOP('',(#861,#862,#863,#864));
#564=PLANE('',#565);
#565=AXIS2_PLACEMENT_3D('',#566,#567,#568);
#566=CARTESIAN_POINT('',(1.2451077025535,3.81,0.63));
#567=DIRECTION('',(0.,1.,-0.));
#568=DIRECTION('',(-1.,0.,0.));
#569=FACE_BOUND('',#570,.T.);
#570=EDGE_LOOP('',(#865,#866,#867,#868));
#571=PLANE('',#572);
#572=AXIS2_PLACEMENT_3D('',#573,#574,#575);
#573=CARTESIAN_POINT('',(-1.2451077025535,3.81,0.63));
#574=DIRECTION('',(-0.90630778703665,0.422618261740699,0.));
#575=DIRECTION('',(-0.4226182617407,-0.90630778703665,0.));
#576=FACE_BOUND('',#577,.T.);
#577=EDGE_LOOP('',(#869,#870,#871,#872));
#578=PLANE('',#579);
#579=AXIS2_PLACEMENT_3D('',#580,#581,#582);
#580=CARTESIAN_POINT('',(-1.385,3.51,0.63));
#581=DIRECTION('',(-1.,2.28911963840238E-016,0.));
#582=DIRECTION('',(-2.28911963840238E-016,-1.,0.));
#583=FACE_BOUND('',#584,.T.);
#584=EDGE_LOOP('',(#873,#874,#875,#876));
#585=PLANE('',#586);
#586=AXIS2_PLACEMENT_3D('',#587,#588,#589);
#587=CARTESIAN_POINT('',(-1.385,1.57,0.63));
#588=DIRECTION('',(-0.90630778703665,-0.422618261740699,0.));
#589=DIRECTION('',(0.422618261740699,-0.90630778703665,0.));
#590=FACE_BOUND('',#591,.T.);
#591=EDGE_LOOP('',(#877,#878,#879,#880));
#592=PLANE('',#593);
#593=AXIS2_PLACEMENT_3D('',#594,#595,#596);
#594=CARTESIAN_POINT('',(-1.2451077025535,1.27,0.63));
#595=DIRECTION('',(-0.90630778703665,0.422618261740699,0.));
#596=DIRECTION('',(-0.4226182617407,-0.90630778703665,0.));
#597=FACE_BOUND('',#598,.T.);
#598=EDGE_LOOP('',(#881,#882,#883,#884));
#599=PLANE('',#600);
#600=AXIS2_PLACEMENT_3D('',#601,#602,#603);
#601=CARTESIAN_POINT('',(-1.385,0.970000000000001,0.63));
#602=DIRECTION('',(-1.,2.28911963840238E-016,0.));
#603=DIRECTION('',(-2.28911963840238E-016,-1.,0.));
#604=FACE_BOUND('',#605,.T.);
#605=EDGE_LOOP('',(#885,#886,#887,#888));
#606=PLANE('',#607);
#607=AXIS2_PLACEMENT_3D('',#608,#609,#610);
#608=CARTESIAN_POINT('',(-1.385,-0.97,0.63));
#609=DIRECTION('',(-0.90630778703665,-0.422618261740699,0.));
#610=DIRECTION('',(0.422618261740699,-0.90630778703665,0.));
#611=FACE_BOUND('',#612,.T.);
#612=EDGE_LOOP('',(#889,#890,#891,#892));
#613=PLANE('',#614);
#614=AXIS2_PLACEMENT_3D('',#615,#616,#617);
#615=CARTESIAN_POINT('',(-1.2451077025535,-1.27,0.63));
#616=DIRECTION('',(0.,-1.,0.));
#617=DIRECTION('',(1.,0.,0.));
#618=FACE_OUTER_BOUND('',#619,.T.);
#619=EDGE_LOOP('',(#893));
#620=FACE_OUTER_BOUND('',#621,.T.);
#621=EDGE_LOOP('',(#894));
#622=CYLINDRICAL_SURFACE('',#623,0.66);
#623=AXIS2_PLACEMENT_3D('',#624,#625,#626);
#624=CARTESIAN_POINT('',(0.,0.,0.));
#625=DIRECTION('',(0.,0.,1.));
#626=DIRECTION('',(1.,0.,0.));
#627=FACE_BOUND('',#628,.T.);
#628=EDGE_LOOP('',(#895));
#629=PLANE('',#630);
#630=AXIS2_PLACEMENT_3D('',#631,#632,#633);
#631=CARTESIAN_POINT('',(0.,0.,-2.42));
#632=DIRECTION('',(-0.,-0.,-1.));
#633=DIRECTION('',(0.,-1.,0.));
#634=FACE_OUTER_BOUND('',#635,.T.);
#635=EDGE_LOOP('',(#896));
#636=FACE_OUTER_BOUND('',#637,.T.);
#637=EDGE_LOOP('',(#897));
#638=CONICAL_SURFACE('',#639,0.285,0.785398163397449);
#639=AXIS2_PLACEMENT_3D('',#640,#641,#642);
#640=CARTESIAN_POINT('',(0.,0.,-2.325));
#641=DIRECTION('',(0.,0.,1.));
#642=DIRECTION('',(-0.,1.,-0.));
#643=FACE_OUTER_BOUND('',#644,.T.);
#644=EDGE_LOOP('',(#898));
#645=FACE_OUTER_BOUND('',#646,.T.);
#646=EDGE_LOOP('',(#899));
#647=CYLINDRICAL_SURFACE('',#648,0.38);
#648=AXIS2_PLACEMENT_3D('',#649,#650,#651);
#649=CARTESIAN_POINT('',(0.,0.,0.));
#650=DIRECTION('',(-0.,-0.,-1.));
#651=DIRECTION('',(0.,-1.,0.));
#652=FACE_OUTER_BOUND('',#653,.T.);
#653=EDGE_LOOP('',(#900));
#654=FACE_OUTER_BOUND('',#655,.T.);
#655=EDGE_LOOP('',(#901));
#656=CONICAL_SURFACE('',#657,0.52,0.785398163397449);
#657=AXIS2_PLACEMENT_3D('',#658,#659,#660);
#658=CARTESIAN_POINT('',(0.,0.,0.14));
#659=DIRECTION('',(0.,0.,1.));
#660=DIRECTION('',(-0.,1.,-0.));
#661=FACE_OUTER_BOUND('',#662,.T.);
#662=EDGE_LOOP('',(#902));
#663=FACE_OUTER_BOUND('',#664,.T.);
#664=EDGE_LOOP('',(#903));
#665=CYLINDRICAL_SURFACE('',#666,0.66);
#666=AXIS2_PLACEMENT_3D('',#667,#668,#669);
#667=CARTESIAN_POINT('',(0.,0.,0.852878387081807));
#668=DIRECTION('',(-0.,-0.,-1.));
#669=DIRECTION('',(0.,-1.,0.));
#670=FACE_OUTER_BOUND('',#671,.T.);
#671=EDGE_LOOP('',(#904));
#672=FACE_OUTER_BOUND('',#673,.T.);
#673=EDGE_LOOP('',(#905));
#674=CONICAL_SURFACE('',#675,0.735,0.349065850398866);
#675=AXIS2_PLACEMENT_3D('',#676,#677,#678);
#676=CARTESIAN_POINT('',(0.,0.,1.0589391935409));
#677=DIRECTION('',(0.,0.,1.));
#678=DIRECTION('',(-0.,1.,-0.));
#679=FACE_BOUND('',#680,.T.);
#680=EDGE_LOOP('',(#906));
#681=FACE_BOUND('',#682,.T.);
#682=EDGE_LOOP('',(#907));
#683=PLANE('',#684);
#684=AXIS2_PLACEMENT_3D('',#685,#686,#687);
#685=CARTESIAN_POINT('',(0.,0.,1.265));
#686=DIRECTION('',(0.,0.,1.));
#687=DIRECTION('',(0.,-1.,0.));
#688=FACE_OUTER_BOUND('',#689,.T.);
#689=EDGE_LOOP('',(#908));
#690=FACE_OUTER_BOUND('',#691,.T.);
#691=EDGE_LOOP('',(#909));
#692=CYLINDRICAL_SURFACE('',#693,0.66);
#693=AXIS2_PLACEMENT_3D('',#694,#695,#696);
#694=CARTESIAN_POINT('',(0.,0.,1.9));
#695=DIRECTION('',(-0.,-0.,-1.));
#696=DIRECTION('',(0.,-1.,0.));
#697=FACE_BOUND('',#698,.T.);
#698=EDGE_LOOP('',(#910));
#699=FACE_BOUND('',#700,.T.);
#700=EDGE_LOOP('',(#911));
#701=PLANE('',#702);
#702=AXIS2_PLACEMENT_3D('',#703,#704,#705);
#703=CARTESIAN_POINT('',(0.,0.,1.9));
#704=DIRECTION('',(-0.,-0.,-1.));
#705=DIRECTION('',(0.,-1.,0.));
#706=FACE_OUTER_BOUND('',#707,.T.);
#707=EDGE_LOOP('',(#912));
#708=FACE_OUTER_BOUND('',#709,.T.);
#709=EDGE_LOOP('',(#913));
#710=CYLINDRICAL_SURFACE('',#711,0.915);
#711=AXIS2_PLACEMENT_3D('',#712,#713,#714);
#712=CARTESIAN_POINT('',(0.,0.,2.41));
#713=DIRECTION('',(-0.,-0.,-1.));
#714=DIRECTION('',(0.,-1.,0.));
#715=FACE_BOUND('',#716,.T.);
#716=EDGE_LOOP('',(#914));
#717=FACE_BOUND('',#718,.T.);
#718=EDGE_LOOP('',(#915));
#719=PLANE('',#720);
#720=AXIS2_PLACEMENT_3D('',#721,#722,#723);
#721=CARTESIAN_POINT('',(0.,0.,2.41));
#722=DIRECTION('',(0.,0.,1.));
#723=DIRECTION('',(0.,-1.,0.));
#724=FACE_OUTER_BOUND('',#725,.T.);
#725=EDGE_LOOP('',(#916));
#726=FACE_OUTER_BOUND('',#727,.T.);
#727=EDGE_LOOP('',(#917));
#728=CONICAL_SURFACE('',#729,0.583909963260681,0.69813170163661);
#729=AXIS2_PLACEMENT_3D('',#730,#731,#732);
#730=CARTESIAN_POINT('',(0.,0.,2.31));
#731=DIRECTION('',(0.,0.,1.));
#732=DIRECTION('',(-0.,1.,-0.));
#733=FACE_OUTER_BOUND('',#734,.T.);
#734=EDGE_LOOP('',(#918));
#735=FACE_OUTER_BOUND('',#736,.T.);
#736=EDGE_LOOP('',(#919));
#737=CYLINDRICAL_SURFACE('',#738,0.5);
#738=AXIS2_PLACEMENT_3D('',#739,#740,#741);
#739=CARTESIAN_POINT('',(0.,0.,1.71));
#740=DIRECTION('',(-0.,-0.,-1.));
#741=DIRECTION('',(0.,-1.,0.));
#742=FACE_OUTER_BOUND('',#743,.T.);
#743=EDGE_LOOP('',(#920));
#744=FACE_OUTER_BOUND('',#745,.T.);
#745=EDGE_LOOP('',(#921));
#746=CONICAL_SURFACE('',#747,0.3625,0.268366210905907);
#747=AXIS2_PLACEMENT_3D('',#748,#749,#750);
#748=CARTESIAN_POINT('',(0.,0.,1.21));
#749=DIRECTION('',(0.,0.,1.));
#750=DIRECTION('',(-0.,1.,-0.));
#751=FACE_BOUND('',#752,.T.);
#752=EDGE_LOOP('',(#922));
#753=FACE_BOUND('',#754,.T.);
#754=EDGE_LOOP('',(#923));
#755=PLANE('',#756);
#756=AXIS2_PLACEMENT_3D('',#757,#758,#759);
#757=CARTESIAN_POINT('',(0.,0.,0.71));
#758=DIRECTION('',(-0.,-0.,-1.));
#759=DIRECTION('',(0.,-1.,0.));
#760=FACE_OUTER_BOUND('',#761,.T.);
#761=EDGE_LOOP('',(#924));
#762=FACE_OUTER_BOUND('',#763,.T.);
#763=EDGE_LOOP('',(#925));
#764=CYLINDRICAL_SURFACE('',#765,0.5);
#765=AXIS2_PLACEMENT_3D('',#766,#767,#768);
#766=CARTESIAN_POINT('',(0.,0.,0.435193639281201));
#767=DIRECTION('',(-0.,-0.,-1.));
#768=DIRECTION('',(0.,-1.,0.));
#769=FACE_OUTER_BOUND('',#770,.T.);
#770=EDGE_LOOP('',(#926));
#771=FACE_OUTER_BOUND('',#772,.T.);
#772=EDGE_LOOP('',(#927));
#773=CONICAL_SURFACE('',#774,0.3875,1.02974425867665);
#774=AXIS2_PLACEMENT_3D('',#775,#776,#777);
#775=CARTESIAN_POINT('',(0.,0.,0.3675968196406));
#776=DIRECTION('',(0.,0.,1.));
#777=DIRECTION('',(-0.,1.,-0.));
#778=FACE_OUTER_BOUND('',#779,.T.);
#779=EDGE_LOOP('',(#928));
#780=FACE_OUTER_BOUND('',#781,.T.);
#781=EDGE_LOOP('',(#929));
#782=CYLINDRICAL_SURFACE('',#783,0.275);
#783=AXIS2_PLACEMENT_3D('',#784,#785,#786);
#784=CARTESIAN_POINT('',(0.,0.,-1.49));
#785=DIRECTION('',(-0.,-0.,-1.));
#786=DIRECTION('',(0.,-1.,0.));
#787=FACE_OUTER_BOUND('',#788,.T.);
#788=EDGE_LOOP('',(#930));
#789=FACE_OUTER_BOUND('',#790,.T.);
#790=EDGE_LOOP('',(#931));
#791=CONICAL_SURFACE('',#792,0.152499999986858,1.02974425867665);
#792=AXIS2_PLACEMENT_3D('',#793,#794,#795);
#793=CARTESIAN_POINT('',(0.,0.,-1.56360542583877));
#794=DIRECTION('',(0.,0.,1.));
#795=DIRECTION('',(-0.,1.,-0.));
#796=FACE_BOUND('',#797,.T.);
#797=EDGE_LOOP('',(#932));
#798=PLANE('',#799);
#799=AXIS2_PLACEMENT_3D('',#800,#801,#802);
#800=CARTESIAN_POINT('',(0.,0.,-1.63721085167755));
#801=DIRECTION('',(0.,0.,1.));
#802=DIRECTION('',(0.,-1.,0.));
#803=ORIENTED_EDGE('',*,*,#933,.T.);
#804=ORIENTED_EDGE('',*,*,#934,.T.);
#805=ORIENTED_EDGE('',*,*,#935,.T.);
#806=ORIENTED_EDGE('',*,*,#936,.T.);
#807=ORIENTED_EDGE('',*,*,#937,.T.);
#808=ORIENTED_EDGE('',*,*,#938,.T.);
#809=ORIENTED_EDGE('',*,*,#939,.T.);
#810=ORIENTED_EDGE('',*,*,#940,.T.);
#811=ORIENTED_EDGE('',*,*,#941,.T.);
#812=ORIENTED_EDGE('',*,*,#942,.T.);
#813=ORIENTED_EDGE('',*,*,#943,.T.);
#814=ORIENTED_EDGE('',*,*,#944,.T.);
#815=ORIENTED_EDGE('',*,*,#945,.T.);
#816=ORIENTED_EDGE('',*,*,#946,.T.);
#817=ORIENTED_EDGE('',*,*,#947,.T.);
#818=ORIENTED_EDGE('',*,*,#948,.T.);
#819=ORIENTED_EDGE('',*,*,#949,.F.);
#820=ORIENTED_EDGE('',*,*,#950,.F.);
#821=ORIENTED_EDGE('',*,*,#951,.F.);
#822=ORIENTED_EDGE('',*,*,#952,.F.);
#823=ORIENTED_EDGE('',*,*,#953,.F.);
#824=ORIENTED_EDGE('',*,*,#954,.F.);
#825=ORIENTED_EDGE('',*,*,#955,.F.);
#826=ORIENTED_EDGE('',*,*,#956,.F.);
#827=ORIENTED_EDGE('',*,*,#957,.F.);
#828=ORIENTED_EDGE('',*,*,#958,.F.);
#829=ORIENTED_EDGE('',*,*,#959,.F.);
#830=ORIENTED_EDGE('',*,*,#960,.F.);
#831=ORIENTED_EDGE('',*,*,#961,.F.);
#832=ORIENTED_EDGE('',*,*,#962,.F.);
#833=ORIENTED_EDGE('',*,*,#963,.T.);
#834=ORIENTED_EDGE('',*,*,#964,.T.);
#835=ORIENTED_EDGE('',*,*,#947,.F.);
#836=ORIENTED_EDGE('',*,*,#963,.F.);
#837=ORIENTED_EDGE('',*,*,#962,.T.);
#838=ORIENTED_EDGE('',*,*,#965,.T.);
#839=ORIENTED_EDGE('',*,*,#933,.F.);
#840=ORIENTED_EDGE('',*,*,#966,.F.);
#841=ORIENTED_EDGE('',*,*,#961,.T.);
#842=ORIENTED_EDGE('',*,*,#967,.T.);
#843=ORIENTED_EDGE('',*,*,#934,.F.);
#844=ORIENTED_EDGE('',*,*,#965,.F.);
#845=ORIENTED_EDGE('',*,*,#968,.F.);
#846=ORIENTED_EDGE('',*,*,#935,.F.);
#847=ORIENTED_EDGE('',*,*,#967,.F.);
#848=ORIENTED_EDGE('',*,*,#960,.T.);
#849=ORIENTED_EDGE('',*,*,#968,.T.);
#850=ORIENTED_EDGE('',*,*,#959,.T.);
#851=ORIENTED_EDGE('',*,*,#969,.T.);
#852=ORIENTED_EDGE('',*,*,#936,.F.);
#853=ORIENTED_EDGE('',*,*,#958,.T.);
#854=ORIENTED_EDGE('',*,*,#970,.T.);
#855=ORIENTED_EDGE('',*,*,#937,.F.);
#856=ORIENTED_EDGE('',*,*,#969,.F.);
#857=ORIENTED_EDGE('',*,*,#957,.T.);
#858=ORIENTED_EDGE('',*,*,#971,.T.);
#859=ORIENTED_EDGE('',*,*,#938,.F.);
#860=ORIENTED_EDGE('',*,*,#970,.F.);
#861=ORIENTED_EDGE('',*,*,#956,.T.);
#862=ORIENTED_EDGE('',*,*,#972,.T.);
#863=ORIENTED_EDGE('',*,*,#939,.F.);
#864=ORIENTED_EDGE('',*,*,#971,.F.);
#865=ORIENTED_EDGE('',*,*,#955,.T.);
#866=ORIENTED_EDGE('',*,*,#973,.T.);
#867=ORIENTED_EDGE('',*,*,#940,.F.);
#868=ORIENTED_EDGE('',*,*,#972,.F.);
#869=ORIENTED_EDGE('',*,*,#954,.T.);
#870=ORIENTED_EDGE('',*,*,#974,.T.);
#871=ORIENTED_EDGE('',*,*,#941,.F.);
#872=ORIENTED_EDGE('',*,*,#973,.F.);
#873=ORIENTED_EDGE('',*,*,#975,.T.);
#874=ORIENTED_EDGE('',*,*,#942,.F.);
#875=ORIENTED_EDGE('',*,*,#974,.F.);
#876=ORIENTED_EDGE('',*,*,#953,.T.);
#877=ORIENTED_EDGE('',*,*,#975,.F.);
#878=ORIENTED_EDGE('',*,*,#952,.T.);
#879=ORIENTED_EDGE('',*,*,#976,.T.);
#880=ORIENTED_EDGE('',*,*,#943,.F.);
#881=ORIENTED_EDGE('',*,*,#951,.T.);
#882=ORIENTED_EDGE('',*,*,#977,.T.);
#883=ORIENTED_EDGE('',*,*,#944,.F.);
#884=ORIENTED_EDGE('',*,*,#976,.F.);
#885=ORIENTED_EDGE('',*,*,#950,.T.);
#886=ORIENTED_EDGE('',*,*,#978,.T.);
#887=ORIENTED_EDGE('',*,*,#945,.F.);
#888=ORIENTED_EDGE('',*,*,#977,.F.);
#889=ORIENTED_EDGE('',*,*,#949,.T.);
#890=ORIENTED_EDGE('',*,*,#966,.T.);
#891=ORIENTED_EDGE('',*,*,#946,.F.);
#892=ORIENTED_EDGE('',*,*,#978,.F.);
#893=ORIENTED_EDGE('',*,*,#948,.F.);
#894=ORIENTED_EDGE('',*,*,#964,.F.);
#895=ORIENTED_EDGE('',*,*,#979,.T.);
#896=ORIENTED_EDGE('',*,*,#979,.F.);
#897=ORIENTED_EDGE('',*,*,#980,.T.);
#898=ORIENTED_EDGE('',*,*,#981,.T.);
#899=ORIENTED_EDGE('',*,*,#980,.F.);
#900=ORIENTED_EDGE('',*,*,#981,.F.);
#901=ORIENTED_EDGE('',*,*,#982,.T.);
#902=ORIENTED_EDGE('',*,*,#983,.T.);
#903=ORIENTED_EDGE('',*,*,#982,.F.);
#904=ORIENTED_EDGE('',*,*,#983,.F.);
#905=ORIENTED_EDGE('',*,*,#984,.T.);
#906=ORIENTED_EDGE('',*,*,#984,.F.);
#907=ORIENTED_EDGE('',*,*,#985,.T.);
#908=ORIENTED_EDGE('',*,*,#986,.T.);
#909=ORIENTED_EDGE('',*,*,#985,.F.);
#910=ORIENTED_EDGE('',*,*,#987,.T.);
#911=ORIENTED_EDGE('',*,*,#986,.F.);
#912=ORIENTED_EDGE('',*,*,#988,.T.);
#913=ORIENTED_EDGE('',*,*,#987,.F.);
#914=ORIENTED_EDGE('',*,*,#988,.F.);
#915=ORIENTED_EDGE('',*,*,#989,.T.);
#916=ORIENTED_EDGE('',*,*,#990,.T.);
#917=ORIENTED_EDGE('',*,*,#989,.F.);
#918=ORIENTED_EDGE('',*,*,#990,.F.);
#919=ORIENTED_EDGE('',*,*,#991,.T.);
#920=ORIENTED_EDGE('',*,*,#992,.T.);
#921=ORIENTED_EDGE('',*,*,#991,.F.);
#922=ORIENTED_EDGE('',*,*,#993,.T.);
#923=ORIENTED_EDGE('',*,*,#992,.F.);
#924=ORIENTED_EDGE('',*,*,#993,.F.);
#925=ORIENTED_EDGE('',*,*,#994,.T.);
#926=ORIENTED_EDGE('',*,*,#995,.T.);
#927=ORIENTED_EDGE('',*,*,#994,.F.);
#928=ORIENTED_EDGE('',*,*,#995,.F.);
#929=ORIENTED_EDGE('',*,*,#996,.T.);
#930=ORIENTED_EDGE('',*,*,#997,.T.);
#931=ORIENTED_EDGE('',*,*,#996,.F.);
#932=ORIENTED_EDGE('',*,*,#997,.F.);
#933=EDGE_CURVE('',#998,#999,#1000,.T.);
#934=EDGE_CURVE('',#999,#1001,#1002,.T.);
#935=EDGE_CURVE('',#1001,#1003,#1004,.T.);
#936=EDGE_CURVE('',#1003,#1005,#1006,.T.);
#937=EDGE_CURVE('',#1005,#1007,#1008,.T.);
#938=EDGE_CURVE('',#1007,#1009,#1010,.T.);
#939=EDGE_CURVE('',#1009,#1011,#1012,.T.);
#940=EDGE_CURVE('',#1011,#1013,#1014,.T.);
#941=EDGE_CURVE('',#1013,#1015,#1016,.T.);
#942=EDGE_CURVE('',#1015,#1017,#1018,.T.);
#943=EDGE_CURVE('',#1017,#1019,#1020,.T.);
#944=EDGE_CURVE('',#1019,#1021,#1022,.T.);
#945=EDGE_CURVE('',#1021,#1023,#1024,.T.);
#946=EDGE_CURVE('',#1023,#998,#1025,.T.);
#947=EDGE_CURVE('',#1026,#1026,#1027,.F.);
#948=EDGE_CURVE('',#1028,#1028,#1029,.F.);
#949=EDGE_CURVE('',#1030,#1031,#1032,.T.);
#950=EDGE_CURVE('',#1033,#1030,#1034,.T.);
#951=EDGE_CURVE('',#1035,#1033,#1036,.T.);
#952=EDGE_CURVE('',#1037,#1035,#1038,.T.);
#953=EDGE_CURVE('',#1039,#1037,#1040,.T.);
#954=EDGE_CURVE('',#1041,#1039,#1042,.T.);
#955=EDGE_CURVE('',#1043,#1041,#1044,.T.);
#956=EDGE_CURVE('',#1045,#1043,#1046,.T.);
#957=EDGE_CURVE('',#1047,#1045,#1048,.T.);
#958=EDGE_CURVE('',#1049,#1047,#1050,.T.);
#959=EDGE_CURVE('',#1051,#1049,#1052,.T.);
#960=EDGE_CURVE('',#1053,#1051,#1054,.T.);
#961=EDGE_CURVE('',#1055,#1053,#1056,.T.);
#962=EDGE_CURVE('',#1031,#1055,#1057,.T.);
#963=EDGE_CURVE('',#1058,#1058,#1059,.T.);
#964=EDGE_CURVE('',#1060,#1060,#1061,.T.);
#965=EDGE_CURVE('',#1055,#999,#1062,.T.);
#966=EDGE_CURVE('',#1031,#998,#1063,.T.);
#967=EDGE_CURVE('',#1053,#1001,#1064,.T.);
#968=EDGE_CURVE('',#1003,#1051,#1065,.F.);
#969=EDGE_CURVE('',#1049,#1005,#1066,.T.);
#970=EDGE_CURVE('',#1047,#1007,#1067,.T.);
#971=EDGE_CURVE('',#1045,#1009,#1068,.T.);
#972=EDGE_CURVE('',#1043,#1011,#1069,.T.);
#973=EDGE_CURVE('',#1041,#1013,#1070,.T.);
#974=EDGE_CURVE('',#1039,#1015,#1071,.T.);
#975=EDGE_CURVE('',#1037,#1017,#1072,.T.);
#976=EDGE_CURVE('',#1035,#1019,#1073,.T.);
#977=EDGE_CURVE('',#1033,#1021,#1074,.T.);
#978=EDGE_CURVE('',#1030,#1023,#1075,.T.);
#979=EDGE_CURVE('',#1076,#1076,#1077,.T.);
#980=EDGE_CURVE('',#1078,#1078,#1079,.T.);
#981=EDGE_CURVE('',#1080,#1080,#1081,.T.);
#982=EDGE_CURVE('',#1082,#1082,#1083,.T.);
#983=EDGE_CURVE('',#1084,#1084,#1085,.T.);
#984=EDGE_CURVE('',#1086,#1086,#1087,.T.);
#985=EDGE_CURVE('',#1088,#1088,#1089,.T.);
#986=EDGE_CURVE('',#1090,#1090,#1091,.T.);
#987=EDGE_CURVE('',#1092,#1092,#1093,.T.);
#988=EDGE_CURVE('',#1094,#1094,#1095,.T.);
#989=EDGE_CURVE('',#1096,#1096,#1097,.T.);
#990=EDGE_CURVE('',#1098,#1098,#1099,.T.);
#991=EDGE_CURVE('',#1100,#1100,#1101,.T.);
#992=EDGE_CURVE('',#1102,#1102,#1103,.T.);
#993=EDGE_CURVE('',#1104,#1104,#1105,.T.);
#994=EDGE_CURVE('',#1106,#1106,#1107,.T.);
#995=EDGE_CURVE('',#1108,#1108,#1109,.T.);
#996=EDGE_CURVE('',#1110,#1110,#1111,.T.);
#997=EDGE_CURVE('',#1112,#1112,#1113,.T.);
#998=VERTEX_POINT('',#1114);
#999=VERTEX_POINT('',#1115);
#1000=LINE('',#1116,#1117);
#1001=VERTEX_POINT('',#1119);
#1002=LINE('',#1120,#1121);
#1003=VERTEX_POINT('',#1123);
#1004=LINE('',#1124,#1125);
#1005=VERTEX_POINT('',#1127);
#1006=LINE('',#1128,#1129);
#1007=VERTEX_POINT('',#1131);
#1008=LINE('',#1132,#1133);
#1009=VERTEX_POINT('',#1135);
#1010=LINE('',#1136,#1137);
#1011=VERTEX_POINT('',#1139);
#1012=LINE('',#1140,#1141);
#1013=VERTEX_POINT('',#1143);
#1014=LINE('',#1144,#1145);
#1015=VERTEX_POINT('',#1147);
#1016=LINE('',#1148,#1149);
#1017=VERTEX_POINT('',#1151);
#1018=LINE('',#1152,#1153);
#1019=VERTEX_POINT('',#1155);
#1020=LINE('',#1156,#1157);
#1021=VERTEX_POINT('',#1159);
#1022=LINE('',#1160,#1161);
#1023=VERTEX_POINT('',#1163);
#1024=LINE('',#1164,#1165);
#1025=LINE('',#1167,#1168);
#1026=VERTEX_POINT('',#1170);
#1027=CIRCLE('',#1171,0.66);
#1028=VERTEX_POINT('',#1175);
#1029=CIRCLE('',#1176,0.66);
#1030=VERTEX_POINT('',#1180);
#1031=VERTEX_POINT('',#1181);
#1032=LINE('',#1182,#1183);
#1033=VERTEX_POINT('',#1185);
#1034=LINE('',#1186,#1187);
#1035=VERTEX_POINT('',#1189);
#1036=LINE('',#1190,#1191);
#1037=VERTEX_POINT('',#1193);
#1038=LINE('',#1194,#1195);
#1039=VERTEX_POINT('',#1197);
#1040=LINE('',#1198,#1199);
#1041=VERTEX_POINT('',#1201);
#1042=LINE('',#1202,#1203);
#1043=VERTEX_POINT('',#1205);
#1044=LINE('',#1206,#1207);
#1045=VERTEX_POINT('',#1209);
#1046=LINE('',#1210,#1211);
#1047=VERTEX_POINT('',#1213);
#1048=LINE('',#1214,#1215);
#1049=VERTEX_POINT('',#1217);
#1050=LINE('',#1218,#1219);
#1051=VERTEX_POINT('',#1221);
#1052=LINE('',#1222,#1223);
#1053=VERTEX_POINT('',#1225);
#1054=LINE('',#1226,#1227);
#1055=VERTEX_POINT('',#1229);
#1056=LINE('',#1230,#1231);
#1057=LINE('',#1233,#1234);
#1058=VERTEX_POINT('',#1236);
#1059=CIRCLE('',#1237,0.66);
#1060=VERTEX_POINT('',#1241);
#1061=CIRCLE('',#1242,0.66);
#1062=LINE('',#1246,#1247);
#1063=LINE('',#1249,#1250);
#1064=LINE('',#1252,#1253);
#1065=LINE('',#1255,#1256);
#1066=LINE('',#1258,#1259);
#1067=LINE('',#1261,#1262);
#1068=LINE('',#1264,#1265);
#1069=LINE('',#1267,#1268);
#1070=LINE('',#1270,#1271);
#1071=LINE('',#1273,#1274);
#1072=LINE('',#1276,#1277);
#1073=LINE('',#1279,#1280);
#1074=LINE('',#1282,#1283);
#1075=LINE('',#1285,#1286);
#1076=VERTEX_POINT('',#1288);
#1077=CIRCLE('',#1289,0.19);
#1078=VERTEX_POINT('',#1293);
#1079=CIRCLE('',#1294,0.38);
#1080=VERTEX_POINT('',#1298);
#1081=CIRCLE('',#1299,0.38);
#1082=VERTEX_POINT('',#1303);
#1083=CIRCLE('',#1304,0.66);
#1084=VERTEX_POINT('',#1308);
#1085=CIRCLE('',#1309,0.66);
#1086=VERTEX_POINT('',#1313);
#1087=CIRCLE('',#1314,0.81);
#1088=VERTEX_POINT('',#1318);
#1089=CIRCLE('',#1319,0.66);
#1090=VERTEX_POINT('',#1323);
#1091=CIRCLE('',#1324,0.66);
#1092=VERTEX_POINT('',#1328);
#1093=CIRCLE('',#1329,0.915);
#1094=VERTEX_POINT('',#1333);
#1095=CIRCLE('',#1334,0.915);
#1096=VERTEX_POINT('',#1338);
#1097=CIRCLE('',#1339,0.667819926521361);
#1098=VERTEX_POINT('',#1343);
#1099=CIRCLE('',#1344,0.5);
#1100=VERTEX_POINT('',#1348);
#1101=CIRCLE('',#1349,0.5);
#1102=VERTEX_POINT('',#1353);
#1103=CIRCLE('',#1354,0.225);
#1104=VERTEX_POINT('',#1358);
#1105=CIRCLE('',#1359,0.5);
#1106=VERTEX_POINT('',#1363);
#1107=CIRCLE('',#1364,0.5);
#1108=VERTEX_POINT('',#1368);
#1109=CIRCLE('',#1369,0.275);
#1110=VERTEX_POINT('',#1373);
#1111=CIRCLE('',#1374,0.275);
#1112=VERTEX_POINT('',#1378);
#1113=CIRCLE('',#1379,0.0299999999737154);
#1114=CARTESIAN_POINT('',(1.2451077025535,-1.27,1.9));
#1115=CARTESIAN_POINT('',(1.385,-0.969999999999997,1.9));
#1116=CARTESIAN_POINT('',(1.2451077025535,-1.27,1.9));
#1117=VECTOR('',#1118,1.);
#1118=DIRECTION('',(0.422618261740708,0.906307787036646,0.));
#1119=CARTESIAN_POINT('',(1.38500000000001,0.969999999999994,1.9));
#1120=CARTESIAN_POINT('',(1.385,-0.969999999999997,1.9));
#1121=VECTOR('',#1122,1.);
#1122=DIRECTION('',(3.66259142144383E-015,1.,0.));
#1123=CARTESIAN_POINT('',(1.2451077025535,1.27,1.9));
#1124=CARTESIAN_POINT('',(1.38500000000001,0.969999999999994,1.9));
#1125=VECTOR('',#1126,1.);
#1126=DIRECTION('',(-0.422618261740714,0.906307787036644,0.));
#1127=CARTESIAN_POINT('',(1.385,1.57,1.9));
#1128=CARTESIAN_POINT('',(1.2451077025535,1.27,1.9));
#1129=VECTOR('',#1130,1.);
#1130=DIRECTION('',(0.422618261740708,0.906307787036646,0.));
#1131=CARTESIAN_POINT('',(1.38500000000001,3.50999999999999,1.9));
#1132=CARTESIAN_POINT('',(1.385,1.57,1.9));
#1133=VECTOR('',#1134,1.);
#1134=DIRECTION('',(3.66259142144383E-015,1.,0.));
#1135=CARTESIAN_POINT('',(1.2451077025535,3.81,1.9));
#1136=CARTESIAN_POINT('',(1.38500000000001,3.50999999999999,1.9));
#1137=VECTOR('',#1138,1.);
#1138=DIRECTION('',(-0.422618261740713,0.906307787036644,0.));
#1139=CARTESIAN_POINT('',(-1.2451077025535,3.81,1.9));
#1140=CARTESIAN_POINT('',(1.2451077025535,3.81,1.9));
#1141=VECTOR('',#1142,1.);
#1142=DIRECTION('',(-1.,0.,0.));
#1143=CARTESIAN_POINT('',(-1.385,3.51,1.9));
#1144=CARTESIAN_POINT('',(-1.2451077025535,3.81,1.9));
#1145=VECTOR('',#1146,1.);
#1146=DIRECTION('',(-0.4226182617407,-0.90630778703665,0.));
#1147=CARTESIAN_POINT('',(-1.385,1.57,1.9));
#1148=CARTESIAN_POINT('',(-1.385,3.51,1.9));
#1149=VECTOR('',#1150,1.);
#1150=DIRECTION('',(-2.28911963840238E-016,-1.,0.));
#1151=CARTESIAN_POINT('',(-1.2451077025535,1.27,1.9));
#1152=CARTESIAN_POINT('',(-1.385,1.57,1.9));
#1153=VECTOR('',#1154,1.);
#1154=DIRECTION('',(0.422618261740699,-0.90630778703665,0.));
#1155=CARTESIAN_POINT('',(-1.385,0.970000000000001,1.9));
#1156=CARTESIAN_POINT('',(-1.2451077025535,1.27,1.9));
#1157=VECTOR('',#1158,1.);
#1158=DIRECTION('',(-0.4226182617407,-0.90630778703665,0.));
#1159=CARTESIAN_POINT('',(-1.385,-0.97,1.9));
#1160=CARTESIAN_POINT('',(-1.385,0.970000000000001,1.9));
#1161=VECTOR('',#1162,1.);
#1162=DIRECTION('',(-2.28911963840238E-016,-1.,0.));
#1163=CARTESIAN_POINT('',(-1.2451077025535,-1.27,1.9));
#1164=CARTESIAN_POINT('',(-1.385,-0.97,1.9));
#1165=VECTOR('',#1166,1.);
#1166=DIRECTION('',(0.422618261740699,-0.90630778703665,0.));
#1167=CARTESIAN_POINT('',(-1.2451077025535,-1.27,1.9));
#1168=VECTOR('',#1169,1.);
#1169=DIRECTION('',(1.,0.,0.));
#1170=CARTESIAN_POINT('',(0.66,2.54,1.9));
#1171=AXIS2_PLACEMENT_3D('',#1172,#1173,#1174);
#1172=CARTESIAN_POINT('',(1.55530143491714E-016,2.54,1.9));
#1173=DIRECTION('',(0.,0.,1.));
#1174=DIRECTION('',(1.,0.,0.));
#1175=CARTESIAN_POINT('',(0.66,-8.08266887437253E-017,1.9));
#1176=AXIS2_PLACEMENT_3D('',#1177,#1178,#1179);
#1177=CARTESIAN_POINT('',(0.,0.,1.9));
#1178=DIRECTION('',(0.,0.,1.));
#1179=DIRECTION('',(1.,0.,0.));
#1180=CARTESIAN_POINT('',(-1.2451077025535,-1.27,0.63));
#1181=CARTESIAN_POINT('',(1.2451077025535,-1.27,0.63));
#1182=CARTESIAN_POINT('',(-1.2451077025535,-1.27,0.63));
#1183=VECTOR('',#1184,1.);
#1184=DIRECTION('',(1.,0.,0.));
#1185=CARTESIAN_POINT('',(-1.385,-0.97,0.63));
#1186=CARTESIAN_POINT('',(-1.385,-0.97,0.63));
#1187=VECTOR('',#1188,1.);
#1188=DIRECTION('',(0.422618261740699,-0.90630778703665,0.));
#1189=CARTESIAN_POINT('',(-1.385,0.970000000000001,0.63));
#1190=CARTESIAN_POINT('',(-1.385,0.970000000000001,0.63));
#1191=VECTOR('',#1192,1.);
#1192=DIRECTION('',(-2.28911963840238E-016,-1.,0.));
#1193=CARTESIAN_POINT('',(-1.2451077025535,1.27,0.63));
#1194=CARTESIAN_POINT('',(-1.2451077025535,1.27,0.63));
#1195=VECTOR('',#1196,1.);
#1196=DIRECTION('',(-0.4226182617407,-0.90630778703665,0.));
#1197=CARTESIAN_POINT('',(-1.385,1.57,0.63));
#1198=CARTESIAN_POINT('',(-1.385,1.57,0.63));
#1199=VECTOR('',#1200,1.);
#1200=DIRECTION('',(0.422618261740699,-0.90630778703665,0.));
#1201=CARTESIAN_POINT('',(-1.385,3.51,0.63));
#1202=CARTESIAN_POINT('',(-1.385,3.51,0.63));
#1203=VECTOR('',#1204,1.);
#1204=DIRECTION('',(-2.28911963840238E-016,-1.,0.));
#1205=CARTESIAN_POINT('',(-1.2451077025535,3.81,0.63));
#1206=CARTESIAN_POINT('',(-1.2451077025535,3.81,0.63));
#1207=VECTOR('',#1208,1.);
#1208=DIRECTION('',(-0.4226182617407,-0.90630778703665,0.));
#1209=CARTESIAN_POINT('',(1.2451077025535,3.81,0.63));
#1210=CARTESIAN_POINT('',(1.2451077025535,3.81,0.63));
#1211=VECTOR('',#1212,1.);
#1212=DIRECTION('',(-1.,0.,0.));
#1213=CARTESIAN_POINT('',(1.38500000000001,3.50999999999999,0.63));
#1214=CARTESIAN_POINT('',(1.38500000000001,3.50999999999999,0.63));
#1215=VECTOR('',#1216,1.);
#1216=DIRECTION('',(-0.422618261740713,0.906307787036644,0.));
#1217=CARTESIAN_POINT('',(1.385,1.57,0.63));
#1218=CARTESIAN_POINT('',(1.385,1.57,0.63));
#1219=VECTOR('',#1220,1.);
#1220=DIRECTION('',(3.66259142144383E-015,1.,0.));
#1221=CARTESIAN_POINT('',(1.2451077025535,1.27,0.63));
#1222=CARTESIAN_POINT('',(1.2451077025535,1.27,0.63));
#1223=VECTOR('',#1224,1.);
#1224=DIRECTION('',(0.422618261740708,0.906307787036646,0.));
#1225=CARTESIAN_POINT('',(1.38500000000001,0.969999999999994,0.63));
#1226=CARTESIAN_POINT('',(1.38500000000001,0.969999999999994,0.63));
#1227=VECTOR('',#1228,1.);
#1228=DIRECTION('',(-0.422618261740714,0.906307787036644,0.));
#1229=CARTESIAN_POINT('',(1.385,-0.969999999999997,0.63));
#1230=CARTESIAN_POINT('',(1.385,-0.969999999999997,0.63));
#1231=VECTOR('',#1232,1.);
#1232=DIRECTION('',(3.66259142144383E-015,1.,0.));
#1233=CARTESIAN_POINT('',(1.2451077025535,-1.27,0.63));
#1234=VECTOR('',#1235,1.);
#1235=DIRECTION('',(0.422618261740708,0.906307787036646,0.));
#1236=CARTESIAN_POINT('',(0.66,2.54,0.63));
#1237=AXIS2_PLACEMENT_3D('',#1238,#1239,#1240);
#1238=CARTESIAN_POINT('',(1.55530143491714E-016,2.54,0.63));
#1239=DIRECTION('',(0.,0.,1.));
#1240=DIRECTION('',(1.,0.,0.));
#1241=CARTESIAN_POINT('',(0.66,-8.08266887437253E-017,0.63));
#1242=AXIS2_PLACEMENT_3D('',#1243,#1244,#1245);
#1243=CARTESIAN_POINT('',(0.,0.,0.63));
#1244=DIRECTION('',(0.,0.,1.));
#1245=DIRECTION('',(1.,0.,0.));
#1246=CARTESIAN_POINT('',(1.385,-0.969999999999997,0.63));
#1247=VECTOR('',#1248,1.);
#1248=DIRECTION('',(0.,0.,1.));
#1249=CARTESIAN_POINT('',(1.2451077025535,-1.27,0.63));
#1250=VECTOR('',#1251,1.);
#1251=DIRECTION('',(0.,0.,1.));
#1252=CARTESIAN_POINT('',(1.38500000000001,0.969999999999994,0.63));
#1253=VECTOR('',#1254,1.);
#1254=DIRECTION('',(0.,0.,1.));
#1255=CARTESIAN_POINT('',(1.2451077025535,1.27,0.63));
#1256=VECTOR('',#1257,1.);
#1257=DIRECTION('',(0.,0.,1.));
#1258=CARTESIAN_POINT('',(1.385,1.57,0.63));
#1259=VECTOR('',#1260,1.);
#1260=DIRECTION('',(0.,0.,1.));
#1261=CARTESIAN_POINT('',(1.38500000000001,3.50999999999999,0.63));
#1262=VECTOR('',#1263,1.);
#1263=DIRECTION('',(0.,0.,1.));
#1264=CARTESIAN_POINT('',(1.2451077025535,3.81,0.63));
#1265=VECTOR('',#1266,1.);
#1266=DIRECTION('',(0.,0.,1.));
#1267=CARTESIAN_POINT('',(-1.2451077025535,3.81,0.63));
#1268=VECTOR('',#1269,1.);
#1269=DIRECTION('',(0.,0.,1.));
#1270=CARTESIAN_POINT('',(-1.385,3.51,0.63));
#1271=VECTOR('',#1272,1.);
#1272=DIRECTION('',(0.,0.,1.));
#1273=CARTESIAN_POINT('',(-1.385,1.57,0.63));
#1274=VECTOR('',#1275,1.);
#1275=DIRECTION('',(0.,0.,1.));
#1276=CARTESIAN_POINT('',(-1.2451077025535,1.27,0.63));
#1277=VECTOR('',#1278,1.);
#1278=DIRECTION('',(0.,0.,1.));
#1279=CARTESIAN_POINT('',(-1.385,0.970000000000001,0.63));
#1280=VECTOR('',#1281,1.);
#1281=DIRECTION('',(0.,0.,1.));
#1282=CARTESIAN_POINT('',(-1.385,-0.97,0.63));
#1283=VECTOR('',#1284,1.);
#1284=DIRECTION('',(0.,0.,1.));
#1285=CARTESIAN_POINT('',(-1.2451077025535,-1.27,0.63));
#1286=VECTOR('',#1287,1.);
#1287=DIRECTION('',(0.,0.,1.));
#1288=CARTESIAN_POINT('',(0.,-0.19,-2.42));
#1289=AXIS2_PLACEMENT_3D('',#1290,#1291,#1292);
#1290=CARTESIAN_POINT('',(0.,0.,-2.42));
#1291=DIRECTION('',(-0.,-0.,-1.));
#1292=DIRECTION('',(0.,-1.,0.));
#1293=CARTESIAN_POINT('',(0.,-0.38,-2.23));
#1294=AXIS2_PLACEMENT_3D('',#1295,#1296,#1297);
#1295=CARTESIAN_POINT('',(0.,0.,-2.23));
#1296=DIRECTION('',(-0.,-0.,-1.));
#1297=DIRECTION('',(0.,-1.,0.));
#1298=CARTESIAN_POINT('',(0.,-0.38,0.));
#1299=AXIS2_PLACEMENT_3D('',#1300,#1301,#1302);
#1300=CARTESIAN_POINT('',(0.,0.,0.));
#1301=DIRECTION('',(-0.,-0.,-1.));
#1302=DIRECTION('',(0.,-1.,0.));
#1303=CARTESIAN_POINT('',(0.,-0.66,0.28));
#1304=AXIS2_PLACEMENT_3D('',#1305,#1306,#1307);
#1305=CARTESIAN_POINT('',(0.,0.,0.28));
#1306=DIRECTION('',(-0.,-0.,-1.));
#1307=DIRECTION('',(0.,-1.,0.));
#1308=CARTESIAN_POINT('',(0.,-0.66,0.852878387081807));
#1309=AXIS2_PLACEMENT_3D('',#1310,#1311,#1312);
#1310=CARTESIAN_POINT('',(0.,0.,0.852878387081807));
#1311=DIRECTION('',(-0.,-0.,-1.));
#1312=DIRECTION('',(0.,-1.,0.));
#1313=CARTESIAN_POINT('',(0.,-0.81,1.265));
#1314=AXIS2_PLACEMENT_3D('',#1315,#1316,#1317);
#1315=CARTESIAN_POINT('',(0.,0.,1.265));
#1316=DIRECTION('',(-0.,-0.,-1.));
#1317=DIRECTION('',(0.,-1.,0.));
#1318=CARTESIAN_POINT('',(0.,-0.66,1.265));
#1319=AXIS2_PLACEMENT_3D('',#1320,#1321,#1322);
#1320=CARTESIAN_POINT('',(0.,0.,1.265));
#1321=DIRECTION('',(-0.,-0.,-1.));
#1322=DIRECTION('',(0.,-1.,0.));
#1323=CARTESIAN_POINT('',(0.,-0.66,1.9));
#1324=AXIS2_PLACEMENT_3D('',#1325,#1326,#1327);
#1325=CARTESIAN_POINT('',(0.,0.,1.9));
#1326=DIRECTION('',(-0.,-0.,-1.));
#1327=DIRECTION('',(0.,-1.,0.));
#1328=CARTESIAN_POINT('',(0.,-0.915,1.9));
#1329=AXIS2_PLACEMENT_3D('',#1330,#1331,#1332);
#1330=CARTESIAN_POINT('',(0.,0.,1.9));
#1331=DIRECTION('',(-0.,-0.,-1.));
#1332=DIRECTION('',(0.,-1.,0.));
#1333=CARTESIAN_POINT('',(0.,-0.915,2.41));
#1334=AXIS2_PLACEMENT_3D('',#1335,#1336,#1337);
#1335=CARTESIAN_POINT('',(0.,0.,2.41));
#1336=DIRECTION('',(-0.,-0.,-1.));
#1337=DIRECTION('',(0.,-1.,0.));
#1338=CARTESIAN_POINT('',(0.,-0.667819926521361,2.41));
#1339=AXIS2_PLACEMENT_3D('',#1340,#1341,#1342);
#1340=CARTESIAN_POINT('',(0.,0.,2.41));
#1341=DIRECTION('',(-0.,-0.,-1.));
#1342=DIRECTION('',(0.,-1.,0.));
#1343=CARTESIAN_POINT('',(0.,-0.5,2.21));
#1344=AXIS2_PLACEMENT_3D('',#1345,#1346,#1347);
#1345=CARTESIAN_POINT('',(0.,0.,2.21));
#1346=DIRECTION('',(0.,-0.,-1.));
#1347=DIRECTION('',(0.,-1.,0.));
#1348=CARTESIAN_POINT('',(0.,-0.5,1.71));
#1349=AXIS2_PLACEMENT_3D('',#1350,#1351,#1352);
#1350=CARTESIAN_POINT('',(0.,0.,1.71));
#1351=DIRECTION('',(0.,-0.,-1.));
#1352=DIRECTION('',(0.,-1.,0.));
#1353=CARTESIAN_POINT('',(0.,-0.225,0.71));
#1354=AXIS2_PLACEMENT_3D('',#1355,#1356,#1357);
#1355=CARTESIAN_POINT('',(0.,0.,0.71));
#1356=DIRECTION('',(-0.,-0.,-1.));
#1357=DIRECTION('',(0.,-1.,0.));
#1358=CARTESIAN_POINT('',(0.,-0.5,0.71));
#1359=AXIS2_PLACEMENT_3D('',#1360,#1361,#1362);
#1360=CARTESIAN_POINT('',(0.,0.,0.71));
#1361=DIRECTION('',(-0.,-0.,-1.));
#1362=DIRECTION('',(0.,-1.,0.));
#1363=CARTESIAN_POINT('',(0.,-0.5,0.435193639281201));
#1364=AXIS2_PLACEMENT_3D('',#1365,#1366,#1367);
#1365=CARTESIAN_POINT('',(0.,0.,0.435193639281201));
#1366=DIRECTION('',(0.,-0.,-1.));
#1367=DIRECTION('',(0.,-1.,0.));
#1368=CARTESIAN_POINT('',(0.,-0.275,0.3));
#1369=AXIS2_PLACEMENT_3D('',#1370,#1371,#1372);
#1370=CARTESIAN_POINT('',(0.,0.,0.3));
#1371=DIRECTION('',(0.,-0.,-1.));
#1372=DIRECTION('',(0.,-1.,0.));
#1373=CARTESIAN_POINT('',(0.,-0.275,-1.49));
#1374=AXIS2_PLACEMENT_3D('',#1375,#1376,#1377);
#1375=CARTESIAN_POINT('',(0.,0.,-1.49));
#1376=DIRECTION('',(0.,-0.,-1.));
#1377=DIRECTION('',(0.,-1.,0.));
#1378=CARTESIAN_POINT('',(0.,-0.0299999999737154,-1.63721085167755));
#1379=AXIS2_PLACEMENT_3D('',#1380,#1381,#1382);
#1380=CARTESIAN_POINT('',(0.,0.,-1.63721085167755));
#1381=DIRECTION('',(-0.,-0.,-1.));
#1382=DIRECTION('',(0.,-1.,0.));
ENDSEC;
END-ISO-10303-21;
