ISO-10303-21;
HEADER;
FILE_DESCRIPTION(('STEP AP214'),
    '1');
FILE_NAME('SL-105-TT-11',
    '2020-03-30T23:14:59',
    ('AF'),
    (''),
    'UNSPECIFIED',
    'UNSPECIFIED',
    '');
/*Based on Samtec Inc. SL, SDL series datasheet*/
FILE_SCHEMA(('AUTOMOTIVE_DESIGN { 1 0 10303 214 3 1 1}'));
ENDSEC;

DATA;
#1=SHAPE_REPRESENTATION('NONE',(#2,#58,#121,#147,#173),#6);
#2=AXIS2_PLACEMENT_3D('',#3,#4,#5);
#3=CARTESIAN_POINT('',(0.,0.,0.));
#4=DIRECTION('',(0.,0.,1.));
#5=DIRECTION('',(1.,0.,0.));
#6=(GEOMETRIC_REPRESENTATION_CONTEXT(3)GLOBAL_UNCERTAINTY_ASSIGNED_CONTEXT((#8))
GLOBAL_UNIT_ASSIGNED_CONTEXT((#7,#9,#10))REPRESENTATION_CONTEXT('NONE','NONE'));
#7=(LENGTH_UNIT()NAMED_UNIT(*)SI_UNIT(.MILLI.,.METRE.));
#8=UNCERTAINTY_MEASURE_WITH_UNIT(LENGTH_MEASURE(1.E-005),#7,'NONE','NONE');
#9=(NAMED_UNIT(*)PLANE_ANGLE_UNIT()SI_UNIT($,.RADIAN.));
#10=(NAMED_UNIT(*)SI_UNIT($,.STERADIAN.)SOLID_ANGLE_UNIT());
#11=SHAPE_DEFINITION_REPRESENTATION(#12,#1);
#12=PRODUCT_DEFINITION_SHAPE('NONE','NONE',#13);
#13=PRODUCT_DEFINITION('','UNSPECIFIED',#14,#22);
#14=PRODUCT_DEFINITION_FORMATION_WITH_SPECIFIED_SOURCE('ANY','UNSPECIFIED',#15,.NOT_KNOWN.);
#15=PRODUCT('','SDL-102-TT-11','Based on Samtec Inc. SL, SDL series datasheet',(
#25));
#16=PERSON('UNSPECIFIED','AF','UNSPECIFIED',('UNSPECIFIED'),('UNSPECIFIED'),
('UNSPECIFIED'));
#17=ORGANIZATION('UNSPECIFIED','UNSPECIFIED','UNSPECIFIED');
#18=PERSON_AND_ORGANIZATION(#16,#17);
#19=PERSON_AND_ORGANIZATION_ROLE('design_owner');
#20=CC_DESIGN_PERSON_AND_ORGANIZATION_ASSIGNMENT(#18,#19,(#15));
#21=PRODUCT_RELATED_PRODUCT_CATEGORY('assembly','',(#15));
#22=DESIGN_CONTEXT('detailed design',#23,'design');
#23=APPLICATION_CONTEXT('configuration controlled 3d designs of mechanical parts and assemblies');
#24=APPLICATION_PROTOCOL_DEFINITION('international standard','automotive_design',
2011,#23);
#25=PRODUCT_CONTEXT('NONE',#23,'mechanical');
#26=CC_DESIGN_DATE_AND_TIME_ASSIGNMENT(#27,#31,(#13));
#27=DATE_AND_TIME(#28,#29);
#28=CALENDAR_DATE(0,1,1);
#29=LOCAL_TIME(0,0,0.,#30);
#30=COORDINATED_UNIVERSAL_TIME_OFFSET(0,0,.AHEAD.);
#31=DATE_TIME_ROLE('creation_date');
#32=CC_DESIGN_APPROVAL(#33,(#13));
#33=APPROVAL(#34,'UNSPECIFIED');
#34=APPROVAL_STATUS('not_yet_approved');
#35=APPROVAL_DATE_TIME(#36,#33);
#36=DATE_AND_TIME(#37,#38);
#37=CALENDAR_DATE(0,1,1);
#38=LOCAL_TIME(0,0,0.,#39);
#39=COORDINATED_UNIVERSAL_TIME_OFFSET(0,0,.AHEAD.);
#40=DERIVED_UNIT((#44,#41));
#41=DERIVED_UNIT_ELEMENT(#42,-1.);
#42=VOLUME_UNIT(#43);
#43=DIMENSIONAL_EXPONENTS(3.,0.,0.,0.,0.,0.,0.);
#44=(DERIVED_UNIT_ELEMENT($,-1.)NAMED_UNIT($)MASS_UNIT()SI_UNIT($,.GRAM.));
#45=MANIFOLD_SOLID_BREP('',#46);
#46=CLOSED_SHELL('',(#199,#208,#217,#226,#235,#244,#253,#262,#271,#280,#289,#298,
#307,#316,#325,#334,#343,#352,#361,#370,#379,#388,#397,#406,#415,#424,#433,#442,
#451,#460,#469,#478,#487,#496));
#47=COLOUR_RGB($,0.156862745098039,0.156862745098039,0.156862745098039);
#48=FILL_AREA_STYLE_COLOUR($,#47);
#49=FILL_AREA_STYLE($,(#48));
#50=SURFACE_STYLE_FILL_AREA(#49);
#51=SURFACE_SIDE_STYLE('',(#50));
#52=SURFACE_STYLE_USAGE(.BOTH.,#51);
#53=PRESENTATION_STYLE_ASSIGNMENT((#52));
#54=MECHANICAL_DESIGN_GEOMETRIC_PRESENTATION_REPRESENTATION('NONE',(#55,#96,#207,
#216,#225,#234,#243,#252,#261,#270,#279,#288,#297,#306,#315,#324,#333,#342,#351,
#360,#369,#378,#387,#396,#405,#414,#423,#432,#441,#450,#459,#468,#477,#486,#495,
#504,#513,#522,#531,#540,#549,#558,#567,#576,#585,#594,#603,#612,#621,#630,#639,
#648,#657,#666),#6);
#55=STYLED_ITEM('',(#53),#45);
#56=ADVANCED_BREP_SHAPE_REPRESENTATION('NONE',(#45),#6);
#57=SHAPE_REPRESENTATION_RELATIONSHIP('','',#1,#56);
#58=AXIS2_PLACEMENT_3D('',#59,#60,#61);
#59=CARTESIAN_POINT('',(0.,0.,0.));
#60=DIRECTION('',(0.,0.,1.));
#61=DIRECTION('',(1.,0.,0.));
#62=SHAPE_REPRESENTATION('NONE',(#2),#6);
#63=SHAPE_DEFINITION_REPRESENTATION(#64,#62);
#64=PRODUCT_DEFINITION_SHAPE('NONE','NONE',#65);
#65=PRODUCT_DEFINITION('','UNSPECIFIED',#66,#69);
#66=PRODUCT_DEFINITION_FORMATION_WITH_SPECIFIED_SOURCE('ANY','UNSPECIFIED',#67,.NOT_KNOWN.);
#67=PRODUCT('','SxL-1xx-TT-11-pin','Based on Samtec Inc. SL, SDL series datasheet',
(#72));
#68=PRODUCT_RELATED_PRODUCT_CATEGORY('detail','',(#67));
#69=DESIGN_CONTEXT('detailed design',#70,'design');
#70=APPLICATION_CONTEXT('configuration controlled 3d designs of mechanical parts and assemblies');
#71=APPLICATION_PROTOCOL_DEFINITION('international standard','automotive_design',
2011,#70);
#72=PRODUCT_CONTEXT('NONE',#70,'mechanical');
#73=CC_DESIGN_DATE_AND_TIME_ASSIGNMENT(#74,#78,(#65));
#74=DATE_AND_TIME(#75,#76);
#75=CALENDAR_DATE(0,1,1);
#76=LOCAL_TIME(0,0,0.,#77);
#77=COORDINATED_UNIVERSAL_TIME_OFFSET(0,0,.AHEAD.);
#78=DATE_TIME_ROLE('creation_date');
#79=CC_DESIGN_APPROVAL(#80,(#65));
#80=APPROVAL(#81,'UNSPECIFIED');
#81=APPROVAL_STATUS('not_yet_approved');
#82=APPROVAL_DATE_TIME(#83,#80);
#83=DATE_AND_TIME(#84,#85);
#84=CALENDAR_DATE(0,1,1);
#85=LOCAL_TIME(0,0,0.,#86);
#86=COORDINATED_UNIVERSAL_TIME_OFFSET(0,0,.AHEAD.);
#87=MANIFOLD_SOLID_BREP('',#88);
#88=CLOSED_SHELL('',(#505,#514,#523,#532,#541,#550,#559,#568,#577,#586,#595,#604,
#613,#622,#631,#640,#649,#658));
#89=COLOUR_RGB($,0.827450980392157,0.831372549019608,0.835294117647059);
#90=FILL_AREA_STYLE_COLOUR($,#89);
#91=FILL_AREA_STYLE($,(#90));
#92=SURFACE_STYLE_FILL_AREA(#91);
#93=SURFACE_SIDE_STYLE('',(#92));
#94=SURFACE_STYLE_USAGE(.BOTH.,#93);
#95=PRESENTATION_STYLE_ASSIGNMENT((#94));
#96=STYLED_ITEM('',(#95),#87);
#97=ADVANCED_BREP_SHAPE_REPRESENTATION('NONE',(#87),#6);
#98=SHAPE_REPRESENTATION_RELATIONSHIP('','',#62,#97);
#99=ITEM_DEFINED_TRANSFORMATION('','',#2,#58);
#100=(REPRESENTATION_RELATIONSHIP('','',#62,#1)REPRESENTATION_RELATIONSHIP_WITH_TRANSFORMATION(
#99)SHAPE_REPRESENTATION_RELATIONSHIP());
#101=NEXT_ASSEMBLY_USAGE_OCCURRENCE('1','','',#13,#65,$);
#102=CC_DESIGN_SECURITY_CLASSIFICATION(#103,(#101));
#103=SECURITY_CLASSIFICATION('','',#104);
#104=SECURITY_CLASSIFICATION_LEVEL('unclassified');
#105=CC_DESIGN_DATE_AND_TIME_ASSIGNMENT(#106,#110,(#103));
#106=DATE_AND_TIME(#107,#108);
#107=CALENDAR_DATE(0,1,1);
#108=LOCAL_TIME(0,0,0.,#109);
#109=COORDINATED_UNIVERSAL_TIME_OFFSET(0,0,.AHEAD.);
#110=DATE_TIME_ROLE('classification_date');
#111=CC_DESIGN_APPROVAL(#112,(#103));
#112=APPROVAL(#113,'UNSPECIFIED');
#113=APPROVAL_STATUS('not_yet_approved');
#114=APPROVAL_DATE_TIME(#115,#112);
#115=DATE_AND_TIME(#116,#117);
#116=CALENDAR_DATE(0,1,1);
#117=LOCAL_TIME(0,0,0.,#118);
#118=COORDINATED_UNIVERSAL_TIME_OFFSET(0,0,.AHEAD.);
#119=PRODUCT_DEFINITION_SHAPE('NONE','NONE',#101);
#120=CONTEXT_DEPENDENT_SHAPE_REPRESENTATION(#100,#119);
#121=AXIS2_PLACEMENT_3D('',#122,#123,#124);
#122=CARTESIAN_POINT('',(1.55530143491714E-016,2.54,0.));
#123=DIRECTION('',(0.,0.,1.));
#124=DIRECTION('',(1.,0.,0.));
#125=ITEM_DEFINED_TRANSFORMATION('','',#2,#121);
#126=(REPRESENTATION_RELATIONSHIP('','',#62,#1)REPRESENTATION_RELATIONSHIP_WITH_TRANSFORMATION(
#125)SHAPE_REPRESENTATION_RELATIONSHIP());
#127=NEXT_ASSEMBLY_USAGE_OCCURRENCE('2','','',#13,#65,$);
#128=CC_DESIGN_SECURITY_CLASSIFICATION(#129,(#127));
#129=SECURITY_CLASSIFICATION('','',#130);
#130=SECURITY_CLASSIFICATION_LEVEL('unclassified');
#131=CC_DESIGN_DATE_AND_TIME_ASSIGNMENT(#132,#136,(#129));
#132=DATE_AND_TIME(#133,#134);
#133=CALENDAR_DATE(0,1,1);
#134=LOCAL_TIME(0,0,0.,#135);
#135=COORDINATED_UNIVERSAL_TIME_OFFSET(0,0,.AHEAD.);
#136=DATE_TIME_ROLE('classification_date');
#137=CC_DESIGN_APPROVAL(#138,(#129));
#138=APPROVAL(#139,'UNSPECIFIED');
#139=APPROVAL_STATUS('not_yet_approved');
#140=APPROVAL_DATE_TIME(#141,#138);
#141=DATE_AND_TIME(#142,#143);
#142=CALENDAR_DATE(0,1,1);
#143=LOCAL_TIME(0,0,0.,#144);
#144=COORDINATED_UNIVERSAL_TIME_OFFSET(0,0,.AHEAD.);
#145=PRODUCT_DEFINITION_SHAPE('NONE','NONE',#127);
#146=CONTEXT_DEPENDENT_SHAPE_REPRESENTATION(#126,#145);
#147=AXIS2_PLACEMENT_3D('',#148,#149,#150);
#148=CARTESIAN_POINT('',(2.54,0.,0.));
#149=DIRECTION('',(0.,0.,1.));
#150=DIRECTION('',(1.,0.,0.));
#151=ITEM_DEFINED_TRANSFORMATION('','',#2,#147);
#152=(REPRESENTATION_RELATIONSHIP('','',#62,#1)REPRESENTATION_RELATIONSHIP_WITH_TRANSFORMATION(
#151)SHAPE_REPRESENTATION_RELATIONSHIP());
#153=NEXT_ASSEMBLY_USAGE_OCCURRENCE('3','','',#13,#65,$);
#154=CC_DESIGN_SECURITY_CLASSIFICATION(#155,(#153));
#155=SECURITY_CLASSIFICATION('','',#156);
#156=SECURITY_CLASSIFICATION_LEVEL('unclassified');
#157=CC_DESIGN_DATE_AND_TIME_ASSIGNMENT(#158,#162,(#155));
#158=DATE_AND_TIME(#159,#160);
#159=CALENDAR_DATE(0,1,1);
#160=LOCAL_TIME(0,0,0.,#161);
#161=COORDINATED_UNIVERSAL_TIME_OFFSET(0,0,.AHEAD.);
#162=DATE_TIME_ROLE('classification_date');
#163=CC_DESIGN_APPROVAL(#164,(#155));
#164=APPROVAL(#165,'UNSPECIFIED');
#165=APPROVAL_STATUS('not_yet_approved');
#166=APPROVAL_DATE_TIME(#167,#164);
#167=DATE_AND_TIME(#168,#169);
#168=CALENDAR_DATE(0,1,1);
#169=LOCAL_TIME(0,0,0.,#170);
#170=COORDINATED_UNIVERSAL_TIME_OFFSET(0,0,.AHEAD.);
#171=PRODUCT_DEFINITION_SHAPE('NONE','NONE',#153);
#172=CONTEXT_DEPENDENT_SHAPE_REPRESENTATION(#152,#171);
#173=AXIS2_PLACEMENT_3D('',#174,#175,#176);
#174=CARTESIAN_POINT('',(2.54,2.54,0.));
#175=DIRECTION('',(0.,0.,1.));
#176=DIRECTION('',(1.,0.,0.));
#177=ITEM_DEFINED_TRANSFORMATION('','',#2,#173);
#178=(REPRESENTATION_RELATIONSHIP('','',#62,#1)REPRESENTATION_RELATIONSHIP_WITH_TRANSFORMATION(
#177)SHAPE_REPRESENTATION_RELATIONSHIP());
#179=NEXT_ASSEMBLY_USAGE_OCCURRENCE('4','','',#13,#65,$);
#180=CC_DESIGN_SECURITY_CLASSIFICATION(#181,(#179));
#181=SECURITY_CLASSIFICATION('','',#182);
#182=SECURITY_CLASSIFICATION_LEVEL('unclassified');
#183=CC_DESIGN_DATE_AND_TIME_ASSIGNMENT(#184,#188,(#181));
#184=DATE_AND_TIME(#185,#186);
#185=CALENDAR_DATE(0,1,1);
#186=LOCAL_TIME(0,0,0.,#187);
#187=COORDINATED_UNIVERSAL_TIME_OFFSET(0,0,.AHEAD.);
#188=DATE_TIME_ROLE('classification_date');
#189=CC_DESIGN_APPROVAL(#190,(#181));
#190=APPROVAL(#191,'UNSPECIFIED');
#191=APPROVAL_STATUS('not_yet_approved');
#192=APPROVAL_DATE_TIME(#193,#190);
#193=DATE_AND_TIME(#194,#195);
#194=CALENDAR_DATE(0,1,1);
#195=LOCAL_TIME(0,0,0.,#196);
#196=COORDINATED_UNIVERSAL_TIME_OFFSET(0,0,.AHEAD.);
#197=PRODUCT_DEFINITION_SHAPE('NONE','NONE',#179);
#198=CONTEXT_DEPENDENT_SHAPE_REPRESENTATION(#178,#197);
#199=ADVANCED_FACE('',(#667),#669,.F.);
#200=COLOUR_RGB($,0.156862745098039,0.156862745098039,0.156862745098039);
#201=FILL_AREA_STYLE_COLOUR($,#200);
#202=FILL_AREA_STYLE($,(#201));
#203=SURFACE_STYLE_FILL_AREA(#202);
#204=SURFACE_SIDE_STYLE('',(#203));
#205=SURFACE_STYLE_USAGE(.BOTH.,#204);
#206=PRESENTATION_STYLE_ASSIGNMENT((#205));
#207=STYLED_ITEM('',(#206),#199);
#208=ADVANCED_FACE('',(#674),#676,.F.);
#209=COLOUR_RGB($,0.156862745098039,0.156862745098039,0.156862745098039);
#210=FILL_AREA_STYLE_COLOUR($,#209);
#211=FILL_AREA_STYLE($,(#210));
#212=SURFACE_STYLE_FILL_AREA(#211);
#213=SURFACE_SIDE_STYLE('',(#212));
#214=SURFACE_STYLE_USAGE(.BOTH.,#213);
#215=PRESENTATION_STYLE_ASSIGNMENT((#214));
#216=STYLED_ITEM('',(#215),#208);
#217=ADVANCED_FACE('',(#681),#683,.T.);
#218=COLOUR_RGB($,0.156862745098039,0.156862745098039,0.156862745098039);
#219=FILL_AREA_STYLE_COLOUR($,#218);
#220=FILL_AREA_STYLE($,(#219));
#221=SURFACE_STYLE_FILL_AREA(#220);
#222=SURFACE_SIDE_STYLE('',(#221));
#223=SURFACE_STYLE_USAGE(.BOTH.,#222);
#224=PRESENTATION_STYLE_ASSIGNMENT((#223));
#225=STYLED_ITEM('',(#224),#217);
#226=ADVANCED_FACE('',(#688),#690,.T.);
#227=COLOUR_RGB($,0.156862745098039,0.156862745098039,0.156862745098039);
#228=FILL_AREA_STYLE_COLOUR($,#227);
#229=FILL_AREA_STYLE($,(#228));
#230=SURFACE_STYLE_FILL_AREA(#229);
#231=SURFACE_SIDE_STYLE('',(#230));
#232=SURFACE_STYLE_USAGE(.BOTH.,#231);
#233=PRESENTATION_STYLE_ASSIGNMENT((#232));
#234=STYLED_ITEM('',(#233),#226);
#235=ADVANCED_FACE('',(#695,#697,#699,#701,#703,#705),#707,.T.);
#236=COLOUR_RGB($,0.156862745098039,0.156862745098039,0.156862745098039);
#237=FILL_AREA_STYLE_COLOUR($,#236);
#238=FILL_AREA_STYLE($,(#237));
#239=SURFACE_STYLE_FILL_AREA(#238);
#240=SURFACE_SIDE_STYLE('',(#239));
#241=SURFACE_STYLE_USAGE(.BOTH.,#240);
#242=PRESENTATION_STYLE_ASSIGNMENT((#241));
#243=STYLED_ITEM('',(#242),#235);
#244=ADVANCED_FACE('',(#712,#714,#716,#718,#720,#722),#724,.F.);
#245=COLOUR_RGB($,0.156862745098039,0.156862745098039,0.156862745098039);
#246=FILL_AREA_STYLE_COLOUR($,#245);
#247=FILL_AREA_STYLE($,(#246));
#248=SURFACE_STYLE_FILL_AREA(#247);
#249=SURFACE_SIDE_STYLE('',(#248));
#250=SURFACE_STYLE_USAGE(.BOTH.,#249);
#251=PRESENTATION_STYLE_ASSIGNMENT((#250));
#252=STYLED_ITEM('',(#251),#244);
#253=ADVANCED_FACE('',(#729),#731,.F.);
#254=COLOUR_RGB($,0.156862745098039,0.156862745098039,0.156862745098039);
#255=FILL_AREA_STYLE_COLOUR($,#254);
#256=FILL_AREA_STYLE($,(#255));
#257=SURFACE_STYLE_FILL_AREA(#256);
#258=SURFACE_SIDE_STYLE('',(#257));
#259=SURFACE_STYLE_USAGE(.BOTH.,#258);
#260=PRESENTATION_STYLE_ASSIGNMENT((#259));
#261=STYLED_ITEM('',(#260),#253);
#262=ADVANCED_FACE('',(#736),#738,.F.);
#263=COLOUR_RGB($,0.156862745098039,0.156862745098039,0.156862745098039);
#264=FILL_AREA_STYLE_COLOUR($,#263);
#265=FILL_AREA_STYLE($,(#264));
#266=SURFACE_STYLE_FILL_AREA(#265);
#267=SURFACE_SIDE_STYLE('',(#266));
#268=SURFACE_STYLE_USAGE(.BOTH.,#267);
#269=PRESENTATION_STYLE_ASSIGNMENT((#268));
#270=STYLED_ITEM('',(#269),#262);
#271=ADVANCED_FACE('',(#743),#745,.F.);
#272=COLOUR_RGB($,0.156862745098039,0.156862745098039,0.156862745098039);
#273=FILL_AREA_STYLE_COLOUR($,#272);
#274=FILL_AREA_STYLE($,(#273));
#275=SURFACE_STYLE_FILL_AREA(#274);
#276=SURFACE_SIDE_STYLE('',(#275));
#277=SURFACE_STYLE_USAGE(.BOTH.,#276);
#278=PRESENTATION_STYLE_ASSIGNMENT((#277));
#279=STYLED_ITEM('',(#278),#271);
#280=ADVANCED_FACE('',(#750),#752,.F.);
#281=COLOUR_RGB($,0.156862745098039,0.156862745098039,0.156862745098039);
#282=FILL_AREA_STYLE_COLOUR($,#281);
#283=FILL_AREA_STYLE($,(#282));
#284=SURFACE_STYLE_FILL_AREA(#283);
#285=SURFACE_SIDE_STYLE('',(#284));
#286=SURFACE_STYLE_USAGE(.BOTH.,#285);
#287=PRESENTATION_STYLE_ASSIGNMENT((#286));
#288=STYLED_ITEM('',(#287),#280);
#289=ADVANCED_FACE('',(#757),#759,.F.);
#290=COLOUR_RGB($,0.156862745098039,0.156862745098039,0.156862745098039);
#291=FILL_AREA_STYLE_COLOUR($,#290);
#292=FILL_AREA_STYLE($,(#291));
#293=SURFACE_STYLE_FILL_AREA(#292);
#294=SURFACE_SIDE_STYLE('',(#293));
#295=SURFACE_STYLE_USAGE(.BOTH.,#294);
#296=PRESENTATION_STYLE_ASSIGNMENT((#295));
#297=STYLED_ITEM('',(#296),#289);
#298=ADVANCED_FACE('',(#764),#766,.F.);
#299=COLOUR_RGB($,0.156862745098039,0.156862745098039,0.156862745098039);
#300=FILL_AREA_STYLE_COLOUR($,#299);
#301=FILL_AREA_STYLE($,(#300));
#302=SURFACE_STYLE_FILL_AREA(#301);
#303=SURFACE_SIDE_STYLE('',(#302));
#304=SURFACE_STYLE_USAGE(.BOTH.,#303);
#305=PRESENTATION_STYLE_ASSIGNMENT((#304));
#306=STYLED_ITEM('',(#305),#298);
#307=ADVANCED_FACE('',(#771),#773,.F.);
#308=COLOUR_RGB($,0.156862745098039,0.156862745098039,0.156862745098039);
#309=FILL_AREA_STYLE_COLOUR($,#308);
#310=FILL_AREA_STYLE($,(#309));
#311=SURFACE_STYLE_FILL_AREA(#310);
#312=SURFACE_SIDE_STYLE('',(#311));
#313=SURFACE_STYLE_USAGE(.BOTH.,#312);
#314=PRESENTATION_STYLE_ASSIGNMENT((#313));
#315=STYLED_ITEM('',(#314),#307);
#316=ADVANCED_FACE('',(#778),#780,.T.);
#317=COLOUR_RGB($,0.156862745098039,0.156862745098039,0.156862745098039);
#318=FILL_AREA_STYLE_COLOUR($,#317);
#319=FILL_AREA_STYLE($,(#318));
#320=SURFACE_STYLE_FILL_AREA(#319);
#321=SURFACE_SIDE_STYLE('',(#320));
#322=SURFACE_STYLE_USAGE(.BOTH.,#321);
#323=PRESENTATION_STYLE_ASSIGNMENT((#322));
#324=STYLED_ITEM('',(#323),#316);
#325=ADVANCED_FACE('',(#785),#787,.T.);
#326=COLOUR_RGB($,0.156862745098039,0.156862745098039,0.156862745098039);
#327=FILL_AREA_STYLE_COLOUR($,#326);
#328=FILL_AREA_STYLE($,(#327));
#329=SURFACE_STYLE_FILL_AREA(#328);
#330=SURFACE_SIDE_STYLE('',(#329));
#331=SURFACE_STYLE_USAGE(.BOTH.,#330);
#332=PRESENTATION_STYLE_ASSIGNMENT((#331));
#333=STYLED_ITEM('',(#332),#325);
#334=ADVANCED_FACE('',(#792),#794,.T.);
#335=COLOUR_RGB($,0.156862745098039,0.156862745098039,0.156862745098039);
#336=FILL_AREA_STYLE_COLOUR($,#335);
#337=FILL_AREA_STYLE($,(#336));
#338=SURFACE_STYLE_FILL_AREA(#337);
#339=SURFACE_SIDE_STYLE('',(#338));
#340=SURFACE_STYLE_USAGE(.BOTH.,#339);
#341=PRESENTATION_STYLE_ASSIGNMENT((#340));
#342=STYLED_ITEM('',(#341),#334);
#343=ADVANCED_FACE('',(#799),#801,.T.);
#344=COLOUR_RGB($,0.156862745098039,0.156862745098039,0.156862745098039);
#345=FILL_AREA_STYLE_COLOUR($,#344);
#346=FILL_AREA_STYLE($,(#345));
#347=SURFACE_STYLE_FILL_AREA(#346);
#348=SURFACE_SIDE_STYLE('',(#347));
#349=SURFACE_STYLE_USAGE(.BOTH.,#348);
#350=PRESENTATION_STYLE_ASSIGNMENT((#349));
#351=STYLED_ITEM('',(#350),#343);
#352=ADVANCED_FACE('',(#806),#808,.T.);
#353=COLOUR_RGB($,0.156862745098039,0.156862745098039,0.156862745098039);
#354=FILL_AREA_STYLE_COLOUR($,#353);
#355=FILL_AREA_STYLE($,(#354));
#356=SURFACE_STYLE_FILL_AREA(#355);
#357=SURFACE_SIDE_STYLE('',(#356));
#358=SURFACE_STYLE_USAGE(.BOTH.,#357);
#359=PRESENTATION_STYLE_ASSIGNMENT((#358));
#360=STYLED_ITEM('',(#359),#352);
#361=ADVANCED_FACE('',(#813),#815,.T.);
#362=COLOUR_RGB($,0.156862745098039,0.156862745098039,0.156862745098039);
#363=FILL_AREA_STYLE_COLOUR($,#362);
#364=FILL_AREA_STYLE($,(#363));
#365=SURFACE_STYLE_FILL_AREA(#364);
#366=SURFACE_SIDE_STYLE('',(#365));
#367=SURFACE_STYLE_USAGE(.BOTH.,#366);
#368=PRESENTATION_STYLE_ASSIGNMENT((#367));
#369=STYLED_ITEM('',(#368),#361);
#370=ADVANCED_FACE('',(#820),#822,.T.);
#371=COLOUR_RGB($,0.156862745098039,0.156862745098039,0.156862745098039);
#372=FILL_AREA_STYLE_COLOUR($,#371);
#373=FILL_AREA_STYLE($,(#372));
#374=SURFACE_STYLE_FILL_AREA(#373);
#375=SURFACE_SIDE_STYLE('',(#374));
#376=SURFACE_STYLE_USAGE(.BOTH.,#375);
#377=PRESENTATION_STYLE_ASSIGNMENT((#376));
#378=STYLED_ITEM('',(#377),#370);
#379=ADVANCED_FACE('',(#827),#829,.T.);
#380=COLOUR_RGB($,0.156862745098039,0.156862745098039,0.156862745098039);
#381=FILL_AREA_STYLE_COLOUR($,#380);
#382=FILL_AREA_STYLE($,(#381));
#383=SURFACE_STYLE_FILL_AREA(#382);
#384=SURFACE_SIDE_STYLE('',(#383));
#385=SURFACE_STYLE_USAGE(.BOTH.,#384);
#386=PRESENTATION_STYLE_ASSIGNMENT((#385));
#387=STYLED_ITEM('',(#386),#379);
#388=ADVANCED_FACE('',(#834),#836,.F.);
#389=COLOUR_RGB($,0.156862745098039,0.156862745098039,0.156862745098039);
#390=FILL_AREA_STYLE_COLOUR($,#389);
#391=FILL_AREA_STYLE($,(#390));
#392=SURFACE_STYLE_FILL_AREA(#391);
#393=SURFACE_SIDE_STYLE('',(#392));
#394=SURFACE_STYLE_USAGE(.BOTH.,#393);
#395=PRESENTATION_STYLE_ASSIGNMENT((#394));
#396=STYLED_ITEM('',(#395),#388);
#397=ADVANCED_FACE('',(#841),#843,.F.);
#398=COLOUR_RGB($,0.156862745098039,0.156862745098039,0.156862745098039);
#399=FILL_AREA_STYLE_COLOUR($,#398);
#400=FILL_AREA_STYLE($,(#399));
#401=SURFACE_STYLE_FILL_AREA(#400);
#402=SURFACE_SIDE_STYLE('',(#401));
#403=SURFACE_STYLE_USAGE(.BOTH.,#402);
#404=PRESENTATION_STYLE_ASSIGNMENT((#403));
#405=STYLED_ITEM('',(#404),#397);
#406=ADVANCED_FACE('',(#848),#850,.F.);
#407=COLOUR_RGB($,0.156862745098039,0.156862745098039,0.156862745098039);
#408=FILL_AREA_STYLE_COLOUR($,#407);
#409=FILL_AREA_STYLE($,(#408));
#410=SURFACE_STYLE_FILL_AREA(#409);
#411=SURFACE_SIDE_STYLE('',(#410));
#412=SURFACE_STYLE_USAGE(.BOTH.,#411);
#413=PRESENTATION_STYLE_ASSIGNMENT((#412));
#414=STYLED_ITEM('',(#413),#406);
#415=ADVANCED_FACE('',(#855),#857,.T.);
#416=COLOUR_RGB($,0.156862745098039,0.156862745098039,0.156862745098039);
#417=FILL_AREA_STYLE_COLOUR($,#416);
#418=FILL_AREA_STYLE($,(#417));
#419=SURFACE_STYLE_FILL_AREA(#418);
#420=SURFACE_SIDE_STYLE('',(#419));
#421=SURFACE_STYLE_USAGE(.BOTH.,#420);
#422=PRESENTATION_STYLE_ASSIGNMENT((#421));
#423=STYLED_ITEM('',(#422),#415);
#424=ADVANCED_FACE('',(#862),#864,.T.);
#425=COLOUR_RGB($,0.156862745098039,0.156862745098039,0.156862745098039);
#426=FILL_AREA_STYLE_COLOUR($,#425);
#427=FILL_AREA_STYLE($,(#426));
#428=SURFACE_STYLE_FILL_AREA(#427);
#429=SURFACE_SIDE_STYLE('',(#428));
#430=SURFACE_STYLE_USAGE(.BOTH.,#429);
#431=PRESENTATION_STYLE_ASSIGNMENT((#430));
#432=STYLED_ITEM('',(#431),#424);
#433=ADVANCED_FACE('',(#869),#871,.T.);
#434=COLOUR_RGB($,0.156862745098039,0.156862745098039,0.156862745098039);
#435=FILL_AREA_STYLE_COLOUR($,#434);
#436=FILL_AREA_STYLE($,(#435));
#437=SURFACE_STYLE_FILL_AREA(#436);
#438=SURFACE_SIDE_STYLE('',(#437));
#439=SURFACE_STYLE_USAGE(.BOTH.,#438);
#440=PRESENTATION_STYLE_ASSIGNMENT((#439));
#441=STYLED_ITEM('',(#440),#433);
#442=ADVANCED_FACE('',(#876),#878,.T.);
#443=COLOUR_RGB($,0.156862745098039,0.156862745098039,0.156862745098039);
#444=FILL_AREA_STYLE_COLOUR($,#443);
#445=FILL_AREA_STYLE($,(#444));
#446=SURFACE_STYLE_FILL_AREA(#445);
#447=SURFACE_SIDE_STYLE('',(#446));
#448=SURFACE_STYLE_USAGE(.BOTH.,#447);
#449=PRESENTATION_STYLE_ASSIGNMENT((#448));
#450=STYLED_ITEM('',(#449),#442);
#451=ADVANCED_FACE('',(#883),#885,.T.);
#452=COLOUR_RGB($,0.156862745098039,0.156862745098039,0.156862745098039);
#453=FILL_AREA_STYLE_COLOUR($,#452);
#454=FILL_AREA_STYLE($,(#453));
#455=SURFACE_STYLE_FILL_AREA(#454);
#456=SURFACE_SIDE_STYLE('',(#455));
#457=SURFACE_STYLE_USAGE(.BOTH.,#456);
#458=PRESENTATION_STYLE_ASSIGNMENT((#457));
#459=STYLED_ITEM('',(#458),#451);
#460=ADVANCED_FACE('',(#890),#892,.T.);
#461=COLOUR_RGB($,0.156862745098039,0.156862745098039,0.156862745098039);
#462=FILL_AREA_STYLE_COLOUR($,#461);
#463=FILL_AREA_STYLE($,(#462));
#464=SURFACE_STYLE_FILL_AREA(#463);
#465=SURFACE_SIDE_STYLE('',(#464));
#466=SURFACE_STYLE_USAGE(.BOTH.,#465);
#467=PRESENTATION_STYLE_ASSIGNMENT((#466));
#468=STYLED_ITEM('',(#467),#460);
#469=ADVANCED_FACE('',(#897,#899),#901,.F.);
#470=COLOUR_RGB($,0.156862745098039,0.156862745098039,0.156862745098039);
#471=FILL_AREA_STYLE_COLOUR($,#470);
#472=FILL_AREA_STYLE($,(#471));
#473=SURFACE_STYLE_FILL_AREA(#472);
#474=SURFACE_SIDE_STYLE('',(#473));
#475=SURFACE_STYLE_USAGE(.BOTH.,#474);
#476=PRESENTATION_STYLE_ASSIGNMENT((#475));
#477=STYLED_ITEM('',(#476),#469);
#478=ADVANCED_FACE('',(#906,#908),#910,.F.);
#479=COLOUR_RGB($,0.156862745098039,0.156862745098039,0.156862745098039);
#480=FILL_AREA_STYLE_COLOUR($,#479);
#481=FILL_AREA_STYLE($,(#480));
#482=SURFACE_STYLE_FILL_AREA(#481);
#483=SURFACE_SIDE_STYLE('',(#482));
#484=SURFACE_STYLE_USAGE(.BOTH.,#483);
#485=PRESENTATION_STYLE_ASSIGNMENT((#484));
#486=STYLED_ITEM('',(#485),#478);
#487=ADVANCED_FACE('',(#915,#917),#919,.F.);
#488=COLOUR_RGB($,0.156862745098039,0.156862745098039,0.156862745098039);
#489=FILL_AREA_STYLE_COLOUR($,#488);
#490=FILL_AREA_STYLE($,(#489));
#491=SURFACE_STYLE_FILL_AREA(#490);
#492=SURFACE_SIDE_STYLE('',(#491));
#493=SURFACE_STYLE_USAGE(.BOTH.,#492);
#494=PRESENTATION_STYLE_ASSIGNMENT((#493));
#495=STYLED_ITEM('',(#494),#487);
#496=ADVANCED_FACE('',(#924,#926),#928,.F.);
#497=COLOUR_RGB($,0.156862745098039,0.156862745098039,0.156862745098039);
#498=FILL_AREA_STYLE_COLOUR($,#497);
#499=FILL_AREA_STYLE($,(#498));
#500=SURFACE_STYLE_FILL_AREA(#499);
#501=SURFACE_SIDE_STYLE('',(#500));
#502=SURFACE_STYLE_USAGE(.BOTH.,#501);
#503=PRESENTATION_STYLE_ASSIGNMENT((#502));
#504=STYLED_ITEM('',(#503),#496);
#505=ADVANCED_FACE('',(#933),#935,.T.);
#506=COLOUR_RGB($,0.827450980392157,0.831372549019608,0.835294117647059);
#507=FILL_AREA_STYLE_COLOUR($,#506);
#508=FILL_AREA_STYLE($,(#507));
#509=SURFACE_STYLE_FILL_AREA(#508);
#510=SURFACE_SIDE_STYLE('',(#509));
#511=SURFACE_STYLE_USAGE(.BOTH.,#510);
#512=PRESENTATION_STYLE_ASSIGNMENT((#511));
#513=STYLED_ITEM('',(#512),#505);
#514=ADVANCED_FACE('',(#940,#942),#944,.T.);
#515=COLOUR_RGB($,0.827450980392157,0.831372549019608,0.835294117647059);
#516=FILL_AREA_STYLE_COLOUR($,#515);
#517=FILL_AREA_STYLE($,(#516));
#518=SURFACE_STYLE_FILL_AREA(#517);
#519=SURFACE_SIDE_STYLE('',(#518));
#520=SURFACE_STYLE_USAGE(.BOTH.,#519);
#521=PRESENTATION_STYLE_ASSIGNMENT((#520));
#522=STYLED_ITEM('',(#521),#514);
#523=ADVANCED_FACE('',(#949,#951),#953,.T.);
#524=COLOUR_RGB($,0.827450980392157,0.831372549019608,0.835294117647059);
#525=FILL_AREA_STYLE_COLOUR($,#524);
#526=FILL_AREA_STYLE($,(#525));
#527=SURFACE_STYLE_FILL_AREA(#526);
#528=SURFACE_SIDE_STYLE('',(#527));
#529=SURFACE_STYLE_USAGE(.BOTH.,#528);
#530=PRESENTATION_STYLE_ASSIGNMENT((#529));
#531=STYLED_ITEM('',(#530),#523);
#532=ADVANCED_FACE('',(#958,#960),#962,.T.);
#533=COLOUR_RGB($,0.827450980392157,0.831372549019608,0.835294117647059);
#534=FILL_AREA_STYLE_COLOUR($,#533);
#535=FILL_AREA_STYLE($,(#534));
#536=SURFACE_STYLE_FILL_AREA(#535);
#537=SURFACE_SIDE_STYLE('',(#536));
#538=SURFACE_STYLE_USAGE(.BOTH.,#537);
#539=PRESENTATION_STYLE_ASSIGNMENT((#538));
#540=STYLED_ITEM('',(#539),#532);
#541=ADVANCED_FACE('',(#967,#969),#971,.T.);
#542=COLOUR_RGB($,0.827450980392157,0.831372549019608,0.835294117647059);
#543=FILL_AREA_STYLE_COLOUR($,#542);
#544=FILL_AREA_STYLE($,(#543));
#545=SURFACE_STYLE_FILL_AREA(#544);
#546=SURFACE_SIDE_STYLE('',(#545));
#547=SURFACE_STYLE_USAGE(.BOTH.,#546);
#548=PRESENTATION_STYLE_ASSIGNMENT((#547));
#549=STYLED_ITEM('',(#548),#541);
#550=ADVANCED_FACE('',(#976,#978),#980,.T.);
#551=COLOUR_RGB($,0.827450980392157,0.831372549019608,0.835294117647059);
#552=FILL_AREA_STYLE_COLOUR($,#551);
#553=FILL_AREA_STYLE($,(#552));
#554=SURFACE_STYLE_FILL_AREA(#553);
#555=SURFACE_SIDE_STYLE('',(#554));
#556=SURFACE_STYLE_USAGE(.BOTH.,#555);
#557=PRESENTATION_STYLE_ASSIGNMENT((#556));
#558=STYLED_ITEM('',(#557),#550);
#559=ADVANCED_FACE('',(#985,#987),#989,.T.);
#560=COLOUR_RGB($,0.827450980392157,0.831372549019608,0.835294117647059);
#561=FILL_AREA_STYLE_COLOUR($,#560);
#562=FILL_AREA_STYLE($,(#561));
#563=SURFACE_STYLE_FILL_AREA(#562);
#564=SURFACE_SIDE_STYLE('',(#563));
#565=SURFACE_STYLE_USAGE(.BOTH.,#564);
#566=PRESENTATION_STYLE_ASSIGNMENT((#565));
#567=STYLED_ITEM('',(#566),#559);
#568=ADVANCED_FACE('',(#994,#996),#998,.T.);
#569=COLOUR_RGB($,0.827450980392157,0.831372549019608,0.835294117647059);
#570=FILL_AREA_STYLE_COLOUR($,#569);
#571=FILL_AREA_STYLE($,(#570));
#572=SURFACE_STYLE_FILL_AREA(#571);
#573=SURFACE_SIDE_STYLE('',(#572));
#574=SURFACE_STYLE_USAGE(.BOTH.,#573);
#575=PRESENTATION_STYLE_ASSIGNMENT((#574));
#576=STYLED_ITEM('',(#575),#568);
#577=ADVANCED_FACE('',(#1003,#1005),#1007,.T.);
#578=COLOUR_RGB($,0.827450980392157,0.831372549019608,0.835294117647059);
#579=FILL_AREA_STYLE_COLOUR($,#578);
#580=FILL_AREA_STYLE($,(#579));
#581=SURFACE_STYLE_FILL_AREA(#580);
#582=SURFACE_SIDE_STYLE('',(#581));
#583=SURFACE_STYLE_USAGE(.BOTH.,#582);
#584=PRESENTATION_STYLE_ASSIGNMENT((#583));
#585=STYLED_ITEM('',(#584),#577);
#586=ADVANCED_FACE('',(#1012,#1014),#1016,.T.);
#587=COLOUR_RGB($,0.827450980392157,0.831372549019608,0.835294117647059);
#588=FILL_AREA_STYLE_COLOUR($,#587);
#589=FILL_AREA_STYLE($,(#588));
#590=SURFACE_STYLE_FILL_AREA(#589);
#591=SURFACE_SIDE_STYLE('',(#590));
#592=SURFACE_STYLE_USAGE(.BOTH.,#591);
#593=PRESENTATION_STYLE_ASSIGNMENT((#592));
#594=STYLED_ITEM('',(#593),#586);
#595=ADVANCED_FACE('',(#1021,#1023),#1025,.T.);
#596=COLOUR_RGB($,0.827450980392157,0.831372549019608,0.835294117647059);
#597=FILL_AREA_STYLE_COLOUR($,#596);
#598=FILL_AREA_STYLE($,(#597));
#599=SURFACE_STYLE_FILL_AREA(#598);
#600=SURFACE_SIDE_STYLE('',(#599));
#601=SURFACE_STYLE_USAGE(.BOTH.,#600);
#602=PRESENTATION_STYLE_ASSIGNMENT((#601));
#603=STYLED_ITEM('',(#602),#595);
#604=ADVANCED_FACE('',(#1030,#1032),#1034,.F.);
#605=COLOUR_RGB($,0.827450980392157,0.831372549019608,0.835294117647059);
#606=FILL_AREA_STYLE_COLOUR($,#605);
#607=FILL_AREA_STYLE($,(#606));
#608=SURFACE_STYLE_FILL_AREA(#607);
#609=SURFACE_SIDE_STYLE('',(#608));
#610=SURFACE_STYLE_USAGE(.BOTH.,#609);
#611=PRESENTATION_STYLE_ASSIGNMENT((#610));
#612=STYLED_ITEM('',(#611),#604);
#613=ADVANCED_FACE('',(#1039,#1041),#1043,.F.);
#614=COLOUR_RGB($,0.827450980392157,0.831372549019608,0.835294117647059);
#615=FILL_AREA_STYLE_COLOUR($,#614);
#616=FILL_AREA_STYLE($,(#615));
#617=SURFACE_STYLE_FILL_AREA(#616);
#618=SURFACE_SIDE_STYLE('',(#617));
#619=SURFACE_STYLE_USAGE(.BOTH.,#618);
#620=PRESENTATION_STYLE_ASSIGNMENT((#619));
#621=STYLED_ITEM('',(#620),#613);
#622=ADVANCED_FACE('',(#1048,#1050),#1052,.F.);
#623=COLOUR_RGB($,0.827450980392157,0.831372549019608,0.835294117647059);
#624=FILL_AREA_STYLE_COLOUR($,#623);
#625=FILL_AREA_STYLE($,(#624));
#626=SURFACE_STYLE_FILL_AREA(#625);
#627=SURFACE_SIDE_STYLE('',(#626));
#628=SURFACE_STYLE_USAGE(.BOTH.,#627);
#629=PRESENTATION_STYLE_ASSIGNMENT((#628));
#630=STYLED_ITEM('',(#629),#622);
#631=ADVANCED_FACE('',(#1057,#1059),#1061,.T.);
#632=COLOUR_RGB($,0.827450980392157,0.831372549019608,0.835294117647059);
#633=FILL_AREA_STYLE_COLOUR($,#632);
#634=FILL_AREA_STYLE($,(#633));
#635=SURFACE_STYLE_FILL_AREA(#634);
#636=SURFACE_SIDE_STYLE('',(#635));
#637=SURFACE_STYLE_USAGE(.BOTH.,#636);
#638=PRESENTATION_STYLE_ASSIGNMENT((#637));
#639=STYLED_ITEM('',(#638),#631);
#640=ADVANCED_FACE('',(#1066,#1068),#1070,.F.);
#641=COLOUR_RGB($,0.827450980392157,0.831372549019608,0.835294117647059);
#642=FILL_AREA_STYLE_COLOUR($,#641);
#643=FILL_AREA_STYLE($,(#642));
#644=SURFACE_STYLE_FILL_AREA(#643);
#645=SURFACE_SIDE_STYLE('',(#644));
#646=SURFACE_STYLE_USAGE(.BOTH.,#645);
#647=PRESENTATION_STYLE_ASSIGNMENT((#646));
#648=STYLED_ITEM('',(#647),#640);
#649=ADVANCED_FACE('',(#1075,#1077),#1079,.F.);
#650=COLOUR_RGB($,0.827450980392157,0.831372549019608,0.835294117647059);
#651=FILL_AREA_STYLE_COLOUR($,#650);
#652=FILL_AREA_STYLE($,(#651));
#653=SURFACE_STYLE_FILL_AREA(#652);
#654=SURFACE_SIDE_STYLE('',(#653));
#655=SURFACE_STYLE_USAGE(.BOTH.,#654);
#656=PRESENTATION_STYLE_ASSIGNMENT((#655));
#657=STYLED_ITEM('',(#656),#649);
#658=ADVANCED_FACE('',(#1084),#1086,.T.);
#659=COLOUR_RGB($,0.827450980392157,0.831372549019608,0.835294117647059);
#660=FILL_AREA_STYLE_COLOUR($,#659);
#661=FILL_AREA_STYLE($,(#660));
#662=SURFACE_STYLE_FILL_AREA(#661);
#663=SURFACE_SIDE_STYLE('',(#662));
#664=SURFACE_STYLE_USAGE(.BOTH.,#663);
#665=PRESENTATION_STYLE_ASSIGNMENT((#664));
#666=STYLED_ITEM('',(#665),#658);
#667=FACE_BOUND('',#668,.T.);
#668=EDGE_LOOP('',(#1091,#1092,#1093,#1094));
#669=PLANE('',#670);
#670=AXIS2_PLACEMENT_3D('',#671,#672,#673);
#671=CARTESIAN_POINT('',(1.11099559472815,1.27,1.57));
#672=DIRECTION('',(-0.906307787035266,-0.422618261743666,0.));
#673=DIRECTION('',(0.422618261743666,-0.906307787035267,0.));
#674=FACE_BOUND('',#675,.T.);
#675=EDGE_LOOP('',(#1095,#1096,#1097,#1098));
#676=PLANE('',#677);
#677=AXIS2_PLACEMENT_3D('',#678,#679,#680);
#678=CARTESIAN_POINT('',(1.29718923361106,0.987321452147693,1.57));
#679=DIRECTION('',(0.906307787035268,-0.422618261743663,0.));
#680=DIRECTION('',(0.422618261743663,0.906307787035268,0.));
#681=FACE_BOUND('',#682,.T.);
#682=EDGE_LOOP('',(#1099,#1100,#1101,#1102));
#683=PLANE('',#684);
#684=AXIS2_PLACEMENT_3D('',#685,#686,#687);
#685=CARTESIAN_POINT('',(3.7851077025535,3.81,1.57));
#686=DIRECTION('',(0.,1.,-0.));
#687=DIRECTION('',(-1.,0.,0.));
#688=FACE_BOUND('',#689,.T.);
#689=EDGE_LOOP('',(#1103,#1104,#1105,#1106));
#690=PLANE('',#691);
#691=AXIS2_PLACEMENT_3D('',#692,#693,#694);
#692=CARTESIAN_POINT('',(3.7851077025535,3.81,1.57));
#693=DIRECTION('',(0.,1.,-0.));
#694=DIRECTION('',(-1.,0.,0.));
#695=FACE_BOUND('',#696,.T.);
#696=EDGE_LOOP('',(#1107,#1108,#1109,#1110,#1111,#1112,#1113,#1114,#1115,#1116,#1117,
#1118,#1119,#1120,#1121,#1122,#1123,#1124,#1125,#1126,#1127,#1128));
#697=FACE_BOUND('',#698,.T.);
#698=EDGE_LOOP('',(#1129,#1130,#1131,#1132,#1133,#1134));
#699=FACE_BOUND('',#700,.T.);
#700=EDGE_LOOP('',(#1135));
#701=FACE_BOUND('',#702,.T.);
#702=EDGE_LOOP('',(#1136));
#703=FACE_BOUND('',#704,.T.);
#704=EDGE_LOOP('',(#1137));
#705=FACE_BOUND('',#706,.T.);
#706=EDGE_LOOP('',(#1138));
#707=PLANE('',#708);
#708=AXIS2_PLACEMENT_3D('',#709,#710,#711);
#709=CARTESIAN_POINT('',(0.,0.,2.84));
#710=DIRECTION('',(0.,0.,1.));
#711=DIRECTION('',(1.,0.,0.));
#712=FACE_BOUND('',#713,.T.);
#713=EDGE_LOOP('',(#1139,#1140,#1141,#1142,#1143,#1144,#1145,#1146,#1147,#1148,#1149,
#1150,#1151,#1152,#1153,#1154,#1155,#1156,#1157,#1158,#1159,#1160));
#714=FACE_BOUND('',#715,.T.);
#715=EDGE_LOOP('',(#1161,#1162,#1163,#1164,#1165,#1166));
#716=FACE_BOUND('',#717,.T.);
#717=EDGE_LOOP('',(#1167));
#718=FACE_BOUND('',#719,.T.);
#719=EDGE_LOOP('',(#1168));
#720=FACE_BOUND('',#721,.T.);
#721=EDGE_LOOP('',(#1169));
#722=FACE_BOUND('',#723,.T.);
#723=EDGE_LOOP('',(#1170));
#724=PLANE('',#725);
#725=AXIS2_PLACEMENT_3D('',#726,#727,#728);
#726=CARTESIAN_POINT('',(0.,0.,1.57));
#727=DIRECTION('',(0.,0.,1.));
#728=DIRECTION('',(1.,0.,0.));
#729=FACE_BOUND('',#730,.T.);
#730=EDGE_LOOP('',(#1171,#1172,#1173,#1174));
#731=PLANE('',#732);
#732=AXIS2_PLACEMENT_3D('',#733,#734,#735);
#733=CARTESIAN_POINT('',(1.42900440526804,1.27,1.57));
#734=DIRECTION('',(0.906307787039943,0.422618261733638,-0.));
#735=DIRECTION('',(-0.422618261733638,0.906307787039943,0.));
#736=FACE_BOUND('',#737,.T.);
#737=EDGE_LOOP('',(#1175,#1176,#1177,#1178));
#738=PLANE('',#739);
#739=AXIS2_PLACEMENT_3D('',#740,#741,#742);
#740=CARTESIAN_POINT('',(1.24281076638794,1.55267854785015,1.57));
#741=DIRECTION('',(-0.906307787039943,0.422618261733637,0.));
#742=DIRECTION('',(-0.422618261733637,-0.906307787039943,0.));
#743=FACE_BOUND('',#744,.T.);
#744=EDGE_LOOP('',(#1179,#1180,#1181,#1182));
#745=CYLINDRICAL_SURFACE('',#746,0.03);
#746=AXIS2_PLACEMENT_3D('',#747,#748,#749);
#747=CARTESIAN_POINT('',(1.27,1.54,1.57));
#748=DIRECTION('',(0.,0.,1.));
#749=DIRECTION('',(0.906307786970437,0.422618261882694,0.));
#750=FACE_BOUND('',#751,.T.);
#751=EDGE_LOOP('',(#1183,#1184,#1185,#1186));
#752=CYLINDRICAL_SURFACE('',#753,0.03);
#753=AXIS2_PLACEMENT_3D('',#754,#755,#756);
#754=CARTESIAN_POINT('',(1.27,3.54,1.57));
#755=DIRECTION('',(0.,0.,1.));
#756=DIRECTION('',(-0.906307787035285,-0.422618261743626,0.));
#757=FACE_BOUND('',#758,.T.);
#758=EDGE_LOOP('',(#1187,#1188,#1189,#1190));
#759=PLANE('',#760);
#760=AXIS2_PLACEMENT_3D('',#761,#762,#763);
#761=CARTESIAN_POINT('',(1.11099559472815,3.81,1.57));
#762=DIRECTION('',(-0.906307787035266,-0.422618261743666,0.));
#763=DIRECTION('',(0.422618261743666,-0.906307787035267,0.));
#764=FACE_BOUND('',#765,.T.);
#765=EDGE_LOOP('',(#1191,#1192,#1193,#1194));
#766=PLANE('',#767);
#767=AXIS2_PLACEMENT_3D('',#768,#769,#770);
#768=CARTESIAN_POINT('',(1.29718923361106,3.52732145214769,1.57));
#769=DIRECTION('',(0.906307787035268,-0.422618261743663,0.));
#770=DIRECTION('',(0.422618261743663,0.906307787035268,0.));
#771=FACE_BOUND('',#772,.T.);
#772=EDGE_LOOP('',(#1195,#1196,#1197,#1198));
#773=CYLINDRICAL_SURFACE('',#774,0.03);
#774=AXIS2_PLACEMENT_3D('',#775,#776,#777);
#775=CARTESIAN_POINT('',(1.27,1.,1.57));
#776=DIRECTION('',(0.,0.,1.));
#777=DIRECTION('',(-0.906307787035285,-0.422618261743626,0.));
#778=FACE_BOUND('',#779,.T.);
#779=EDGE_LOOP('',(#1199,#1200,#1201,#1202));
#780=PLANE('',#781);
#781=AXIS2_PLACEMENT_3D('',#782,#783,#784);
#782=CARTESIAN_POINT('',(3.925,3.51,1.57));
#783=DIRECTION('',(0.90630778703665,0.422618261740699,-0.));
#784=DIRECTION('',(-0.422618261740699,0.90630778703665,0.));
#785=FACE_BOUND('',#786,.T.);
#786=EDGE_LOOP('',(#1203,#1204,#1205,#1206));
#787=PLANE('',#788);
#788=AXIS2_PLACEMENT_3D('',#789,#790,#791);
#789=CARTESIAN_POINT('',(-1.2451077025535,3.81,1.57));
#790=DIRECTION('',(-0.90630778703665,0.422618261740699,0.));
#791=DIRECTION('',(-0.4226182617407,-0.90630778703665,0.));
#792=FACE_BOUND('',#793,.T.);
#793=EDGE_LOOP('',(#1207,#1208,#1209,#1210));
#794=PLANE('',#795);
#795=AXIS2_PLACEMENT_3D('',#796,#797,#798);
#796=CARTESIAN_POINT('',(-1.385,3.51,1.57));
#797=DIRECTION('',(-1.,2.28911963840238E-016,0.));
#798=DIRECTION('',(-2.28911963840238E-016,-1.,0.));
#799=FACE_BOUND('',#800,.T.);
#800=EDGE_LOOP('',(#1211,#1212,#1213,#1214));
#801=PLANE('',#802);
#802=AXIS2_PLACEMENT_3D('',#803,#804,#805);
#803=CARTESIAN_POINT('',(-1.385,1.57,1.57));
#804=DIRECTION('',(-0.90630778703665,-0.422618261740699,0.));
#805=DIRECTION('',(0.422618261740699,-0.90630778703665,0.));
#806=FACE_BOUND('',#807,.T.);
#807=EDGE_LOOP('',(#1215,#1216,#1217,#1218));
#808=PLANE('',#809);
#809=AXIS2_PLACEMENT_3D('',#810,#811,#812);
#810=CARTESIAN_POINT('',(-1.2451077025535,1.27,1.57));
#811=DIRECTION('',(-0.90630778703665,0.422618261740699,0.));
#812=DIRECTION('',(-0.4226182617407,-0.90630778703665,0.));
#813=FACE_BOUND('',#814,.T.);
#814=EDGE_LOOP('',(#1219,#1220,#1221,#1222));
#815=PLANE('',#816);
#816=AXIS2_PLACEMENT_3D('',#817,#818,#819);
#817=CARTESIAN_POINT('',(-1.385,0.970000000000001,1.57));
#818=DIRECTION('',(-1.,2.28911963840238E-016,0.));
#819=DIRECTION('',(-2.28911963840238E-016,-1.,0.));
#820=FACE_BOUND('',#821,.T.);
#821=EDGE_LOOP('',(#1223,#1224,#1225,#1226));
#822=PLANE('',#823);
#823=AXIS2_PLACEMENT_3D('',#824,#825,#826);
#824=CARTESIAN_POINT('',(-1.385,-0.97,1.57));
#825=DIRECTION('',(-0.90630778703665,-0.422618261740699,0.));
#826=DIRECTION('',(0.422618261740699,-0.90630778703665,0.));
#827=FACE_BOUND('',#828,.T.);
#828=EDGE_LOOP('',(#1227,#1228,#1229,#1230));
#829=PLANE('',#830);
#830=AXIS2_PLACEMENT_3D('',#831,#832,#833);
#831=CARTESIAN_POINT('',(-1.2451077025535,-1.27,1.57));
#832=DIRECTION('',(0.,-1.,0.));
#833=DIRECTION('',(1.,0.,0.));
#834=FACE_BOUND('',#835,.T.);
#835=EDGE_LOOP('',(#1231,#1232,#1233,#1234));
#836=PLANE('',#837);
#837=AXIS2_PLACEMENT_3D('',#838,#839,#840);
#838=CARTESIAN_POINT('',(1.24281076638794,-0.987321452149846,1.57));
#839=DIRECTION('',(-0.906307787039943,0.422618261733637,0.));
#840=DIRECTION('',(-0.422618261733637,-0.906307787039943,0.));
#841=FACE_BOUND('',#842,.T.);
#842=EDGE_LOOP('',(#1235,#1236,#1237,#1238));
#843=CYLINDRICAL_SURFACE('',#844,0.03);
#844=AXIS2_PLACEMENT_3D('',#845,#846,#847);
#845=CARTESIAN_POINT('',(1.27,-1.,1.57));
#846=DIRECTION('',(0.,0.,1.));
#847=DIRECTION('',(0.906307786970437,0.422618261882694,0.));
#848=FACE_BOUND('',#849,.T.);
#849=EDGE_LOOP('',(#1239,#1240,#1241,#1242));
#850=PLANE('',#851);
#851=AXIS2_PLACEMENT_3D('',#852,#853,#854);
#852=CARTESIAN_POINT('',(1.42900440526804,-1.27,1.57));
#853=DIRECTION('',(0.906307787039943,0.422618261733638,-0.));
#854=DIRECTION('',(-0.422618261733638,0.906307787039943,0.));
#855=FACE_BOUND('',#856,.T.);
#856=EDGE_LOOP('',(#1243,#1244,#1245,#1246));
#857=PLANE('',#858);
#858=AXIS2_PLACEMENT_3D('',#859,#860,#861);
#859=CARTESIAN_POINT('',(-1.2451077025535,-1.27,1.57));
#860=DIRECTION('',(0.,-1.,0.));
#861=DIRECTION('',(1.,0.,0.));
#862=FACE_BOUND('',#863,.T.);
#863=EDGE_LOOP('',(#1247,#1248,#1249,#1250));
#864=PLANE('',#865);
#865=AXIS2_PLACEMENT_3D('',#866,#867,#868);
#866=CARTESIAN_POINT('',(3.7851077025535,-1.27,1.57));
#867=DIRECTION('',(0.90630778703665,-0.422618261740699,0.));
#868=DIRECTION('',(0.422618261740699,0.90630778703665,0.));
#869=FACE_BOUND('',#870,.T.);
#870=EDGE_LOOP('',(#1251,#1252,#1253,#1254));
#871=PLANE('',#872);
#872=AXIS2_PLACEMENT_3D('',#873,#874,#875);
#873=CARTESIAN_POINT('',(3.925,-0.97,1.57));
#874=DIRECTION('',(1.,2.28911963840238E-016,-0.));
#875=DIRECTION('',(-2.28911963840239E-016,1.,0.));
#876=FACE_BOUND('',#877,.T.);
#877=EDGE_LOOP('',(#1255,#1256,#1257,#1258));
#878=PLANE('',#879);
#879=AXIS2_PLACEMENT_3D('',#880,#881,#882);
#880=CARTESIAN_POINT('',(3.925,0.97,1.57));
#881=DIRECTION('',(0.90630778703665,0.422618261740699,-0.));
#882=DIRECTION('',(-0.422618261740699,0.90630778703665,0.));
#883=FACE_BOUND('',#884,.T.);
#884=EDGE_LOOP('',(#1259,#1260,#1261,#1262));
#885=PLANE('',#886);
#886=AXIS2_PLACEMENT_3D('',#887,#888,#889);
#887=CARTESIAN_POINT('',(3.7851077025535,1.27,1.57));
#888=DIRECTION('',(0.90630778703665,-0.422618261740699,0.));
#889=DIRECTION('',(0.422618261740699,0.90630778703665,0.));
#890=FACE_BOUND('',#891,.T.);
#891=EDGE_LOOP('',(#1263,#1264,#1265,#1266));
#892=PLANE('',#893);
#893=AXIS2_PLACEMENT_3D('',#894,#895,#896);
#894=CARTESIAN_POINT('',(3.925,1.57,1.57));
#895=DIRECTION('',(1.,2.28911963840238E-016,-0.));
#896=DIRECTION('',(-2.28911963840239E-016,1.,0.));
#897=FACE_OUTER_BOUND('',#898,.T.);
#898=EDGE_LOOP('',(#1267));
#899=FACE_OUTER_BOUND('',#900,.T.);
#900=EDGE_LOOP('',(#1268));
#901=CYLINDRICAL_SURFACE('',#902,0.66);
#902=AXIS2_PLACEMENT_3D('',#903,#904,#905);
#903=CARTESIAN_POINT('',(0.,0.,0.));
#904=DIRECTION('',(0.,0.,1.));
#905=DIRECTION('',(1.,0.,0.));
#906=FACE_OUTER_BOUND('',#907,.T.);
#907=EDGE_LOOP('',(#1269));
#908=FACE_OUTER_BOUND('',#909,.T.);
#909=EDGE_LOOP('',(#1270));
#910=CYLINDRICAL_SURFACE('',#911,0.66);
#911=AXIS2_PLACEMENT_3D('',#912,#913,#914);
#912=CARTESIAN_POINT('',(2.54,2.54,0.));
#913=DIRECTION('',(0.,0.,1.));
#914=DIRECTION('',(1.,0.,0.));
#915=FACE_OUTER_BOUND('',#916,.T.);
#916=EDGE_LOOP('',(#1271));
#917=FACE_OUTER_BOUND('',#918,.T.);
#918=EDGE_LOOP('',(#1272));
#919=CYLINDRICAL_SURFACE('',#920,0.66);
#920=AXIS2_PLACEMENT_3D('',#921,#922,#923);
#921=CARTESIAN_POINT('',(1.55530143491714E-016,2.54,0.));
#922=DIRECTION('',(0.,0.,1.));
#923=DIRECTION('',(1.,0.,0.));
#924=FACE_OUTER_BOUND('',#925,.T.);
#925=EDGE_LOOP('',(#1273));
#926=FACE_OUTER_BOUND('',#927,.T.);
#927=EDGE_LOOP('',(#1274));
#928=CYLINDRICAL_SURFACE('',#929,0.66);
#929=AXIS2_PLACEMENT_3D('',#930,#931,#932);
#930=CARTESIAN_POINT('',(2.54,0.,0.));
#931=DIRECTION('',(0.,0.,1.));
#932=DIRECTION('',(1.,0.,0.));
#933=FACE_BOUND('',#934,.T.);
#934=EDGE_LOOP('',(#1275));
#935=PLANE('',#936);
#936=AXIS2_PLACEMENT_3D('',#937,#938,#939);
#937=CARTESIAN_POINT('',(0.,0.,-2.75));
#938=DIRECTION('',(-0.,-0.,-1.));
#939=DIRECTION('',(0.,-1.,0.));
#940=FACE_OUTER_BOUND('',#941,.T.);
#941=EDGE_LOOP('',(#1276));
#942=FACE_OUTER_BOUND('',#943,.T.);
#943=EDGE_LOOP('',(#1277));
#944=CONICAL_SURFACE('',#945,0.19125,0.785398163397449);
#945=AXIS2_PLACEMENT_3D('',#946,#947,#948);
#946=CARTESIAN_POINT('',(0.,0.,-2.68625));
#947=DIRECTION('',(0.,0.,1.));
#948=DIRECTION('',(-0.,1.,-0.));
#949=FACE_OUTER_BOUND('',#950,.T.);
#950=EDGE_LOOP('',(#1278));
#951=FACE_OUTER_BOUND('',#952,.T.);
#952=EDGE_LOOP('',(#1279));
#953=CYLINDRICAL_SURFACE('',#954,0.255);
#954=AXIS2_PLACEMENT_3D('',#955,#956,#957);
#955=CARTESIAN_POINT('',(0.,0.,0.));
#956=DIRECTION('',(-0.,-0.,-1.));
#957=DIRECTION('',(0.,-1.,0.));
#958=FACE_OUTER_BOUND('',#959,.T.);
#959=EDGE_LOOP('',(#1280));
#960=FACE_OUTER_BOUND('',#961,.T.);
#961=EDGE_LOOP('',(#1281));
#962=CONICAL_SURFACE('',#963,0.4575,0.959931087707183);
#963=AXIS2_PLACEMENT_3D('',#964,#965,#966);
#964=CARTESIAN_POINT('',(0.,0.,0.141792026755963));
#965=DIRECTION('',(0.,0.,1.));
#966=DIRECTION('',(-0.,1.,-0.));
#967=FACE_OUTER_BOUND('',#968,.T.);
#968=EDGE_LOOP('',(#1282));
#969=FACE_OUTER_BOUND('',#970,.T.);
#970=EDGE_LOOP('',(#1283));
#971=CYLINDRICAL_SURFACE('',#972,0.66);
#972=AXIS2_PLACEMENT_3D('',#973,#974,#975);
#973=CARTESIAN_POINT('',(0.,0.,1.79287838708181));
#974=DIRECTION('',(-0.,-0.,-1.));
#975=DIRECTION('',(0.,-1.,0.));
#976=FACE_OUTER_BOUND('',#977,.T.);
#977=EDGE_LOOP('',(#1284));
#978=FACE_OUTER_BOUND('',#979,.T.);
#979=EDGE_LOOP('',(#1285));
#980=CONICAL_SURFACE('',#981,0.735,0.349065850398867);
#981=AXIS2_PLACEMENT_3D('',#982,#983,#984);
#982=CARTESIAN_POINT('',(0.,0.,1.9989391935409));
#983=DIRECTION('',(0.,0.,1.));
#984=DIRECTION('',(-0.,1.,-0.));
#985=FACE_BOUND('',#986,.T.);
#986=EDGE_LOOP('',(#1286));
#987=FACE_BOUND('',#988,.T.);
#988=EDGE_LOOP('',(#1287));
#989=PLANE('',#990);
#990=AXIS2_PLACEMENT_3D('',#991,#992,#993);
#991=CARTESIAN_POINT('',(0.,0.,2.205));
#992=DIRECTION('',(0.,0.,1.));
#993=DIRECTION('',(0.,-1.,0.));
#994=FACE_OUTER_BOUND('',#995,.T.);
#995=EDGE_LOOP('',(#1288));
#996=FACE_OUTER_BOUND('',#997,.T.);
#997=EDGE_LOOP('',(#1289));
#998=CYLINDRICAL_SURFACE('',#999,0.66);
#999=AXIS2_PLACEMENT_3D('',#1000,#1001,#1002);
#1000=CARTESIAN_POINT('',(0.,0.,2.84));
#1001=DIRECTION('',(-0.,-0.,-1.));
#1002=DIRECTION('',(0.,-1.,0.));
#1003=FACE_BOUND('',#1004,.T.);
#1004=EDGE_LOOP('',(#1290));
#1005=FACE_BOUND('',#1006,.T.);
#1006=EDGE_LOOP('',(#1291));
#1007=PLANE('',#1008);
#1008=AXIS2_PLACEMENT_3D('',#1009,#1010,#1011);
#1009=CARTESIAN_POINT('',(0.,0.,2.84));
#1010=DIRECTION('',(-0.,-0.,-1.));
#1011=DIRECTION('',(0.,-1.,0.));
#1012=FACE_OUTER_BOUND('',#1013,.T.);
#1013=EDGE_LOOP('',(#1292));
#1014=FACE_OUTER_BOUND('',#1015,.T.);
#1015=EDGE_LOOP('',(#1293));
#1016=CYLINDRICAL_SURFACE('',#1017,0.915);
#1017=AXIS2_PLACEMENT_3D('',#1018,#1019,#1020);
#1018=CARTESIAN_POINT('',(0.,0.,3.35));
#1019=DIRECTION('',(-0.,-0.,-1.));
#1020=DIRECTION('',(0.,-1.,0.));
#1021=FACE_BOUND('',#1022,.T.);
#1022=EDGE_LOOP('',(#1294));
#1023=FACE_BOUND('',#1024,.T.);
#1024=EDGE_LOOP('',(#1295));
#1025=PLANE('',#1026);
#1026=AXIS2_PLACEMENT_3D('',#1027,#1028,#1029);
#1027=CARTESIAN_POINT('',(0.,0.,3.35));
#1028=DIRECTION('',(0.,0.,1.));
#1029=DIRECTION('',(0.,-1.,0.));
#1030=FACE_OUTER_BOUND('',#1031,.T.);
#1031=EDGE_LOOP('',(#1296));
#1032=FACE_OUTER_BOUND('',#1033,.T.);
#1033=EDGE_LOOP('',(#1297));
#1034=CONICAL_SURFACE('',#1035,0.554595535433107,0.349065852124744);
#1035=AXIS2_PLACEMENT_3D('',#1036,#1037,#1038);
#1036=CARTESIAN_POINT('',(0.,0.,3.2));
#1037=DIRECTION('',(0.,0.,1.));
#1038=DIRECTION('',(-0.,1.,-0.));
#1039=FACE_OUTER_BOUND('',#1040,.T.);
#1040=EDGE_LOOP('',(#1298));
#1041=FACE_OUTER_BOUND('',#1042,.T.);
#1042=EDGE_LOOP('',(#1299));
#1043=CYLINDRICAL_SURFACE('',#1044,0.5);
#1044=AXIS2_PLACEMENT_3D('',#1045,#1046,#1047);
#1045=CARTESIAN_POINT('',(0.,0.,2.85));
#1046=DIRECTION('',(-0.,-0.,-1.));
#1047=DIRECTION('',(0.,-1.,0.));
#1048=FACE_OUTER_BOUND('',#1049,.T.);
#1049=EDGE_LOOP('',(#1300));
#1050=FACE_OUTER_BOUND('',#1051,.T.);
#1051=EDGE_LOOP('',(#1301));
#1052=CONICAL_SURFACE('',#1053,0.3625,0.225276779214055);
#1053=AXIS2_PLACEMENT_3D('',#1054,#1055,#1056);
#1054=CARTESIAN_POINT('',(0.,0.,2.25));
#1055=DIRECTION('',(0.,0.,1.));
#1056=DIRECTION('',(-0.,1.,-0.));
#1057=FACE_BOUND('',#1058,.T.);
#1058=EDGE_LOOP('',(#1302));
#1059=FACE_BOUND('',#1060,.T.);
#1060=EDGE_LOOP('',(#1303));
#1061=PLANE('',#1062);
#1062=AXIS2_PLACEMENT_3D('',#1063,#1064,#1065);
#1063=CARTESIAN_POINT('',(0.,0.,1.65));
#1064=DIRECTION('',(-0.,-0.,-1.));
#1065=DIRECTION('',(0.,-1.,0.));
#1066=FACE_OUTER_BOUND('',#1067,.T.);
#1067=EDGE_LOOP('',(#1304));
#1068=FACE_OUTER_BOUND('',#1069,.T.);
#1069=EDGE_LOOP('',(#1305));
#1070=CYLINDRICAL_SURFACE('',#1071,0.5);
#1071=AXIS2_PLACEMENT_3D('',#1072,#1073,#1074);
#1072=CARTESIAN_POINT('',(0.,0.,0.45));
#1073=DIRECTION('',(-0.,-0.,-1.));
#1074=DIRECTION('',(0.,-1.,0.));
#1075=FACE_OUTER_BOUND('',#1076,.T.);
#1076=EDGE_LOOP('',(#1306));
#1077=FACE_OUTER_BOUND('',#1078,.T.);
#1078=EDGE_LOOP('',(#1307));
#1079=CONICAL_SURFACE('',#1080,0.265,0.959931088596881);
#1080=AXIS2_PLACEMENT_3D('',#1081,#1082,#1083);
#1081=CARTESIAN_POINT('',(0.,0.,0.285451228520718));
#1082=DIRECTION('',(0.,0.,1.));
#1083=DIRECTION('',(-0.,1.,-0.));
#1084=FACE_BOUND('',#1085,.T.);
#1085=EDGE_LOOP('',(#1308));
#1086=PLANE('',#1087);
#1087=AXIS2_PLACEMENT_3D('',#1088,#1089,#1090);
#1088=CARTESIAN_POINT('',(0.,0.,0.120902457041437));
#1089=DIRECTION('',(0.,0.,1.));
#1090=DIRECTION('',(0.,-1.,0.));
#1091=ORIENTED_EDGE('',*,*,#1309,.T.);
#1092=ORIENTED_EDGE('',*,*,#1310,.F.);
#1093=ORIENTED_EDGE('',*,*,#1311,.F.);
#1094=ORIENTED_EDGE('',*,*,#1312,.F.);
#1095=ORIENTED_EDGE('',*,*,#1313,.T.);
#1096=ORIENTED_EDGE('',*,*,#1314,.F.);
#1097=ORIENTED_EDGE('',*,*,#1315,.T.);
#1098=ORIENTED_EDGE('',*,*,#1316,.F.);
#1099=ORIENTED_EDGE('',*,*,#1317,.T.);
#1100=ORIENTED_EDGE('',*,*,#1318,.F.);
#1101=ORIENTED_EDGE('',*,*,#1319,.F.);
#1102=ORIENTED_EDGE('',*,*,#1320,.T.);
#1103=ORIENTED_EDGE('',*,*,#1321,.T.);
#1104=ORIENTED_EDGE('',*,*,#1322,.T.);
#1105=ORIENTED_EDGE('',*,*,#1323,.T.);
#1106=ORIENTED_EDGE('',*,*,#1324,.F.);
#1107=ORIENTED_EDGE('',*,*,#1325,.T.);
#1108=ORIENTED_EDGE('',*,*,#1326,.T.);
#1109=ORIENTED_EDGE('',*,*,#1327,.T.);
#1110=ORIENTED_EDGE('',*,*,#1324,.T.);
#1111=ORIENTED_EDGE('',*,*,#1328,.T.);
#1112=ORIENTED_EDGE('',*,*,#1329,.T.);
#1113=ORIENTED_EDGE('',*,*,#1330,.T.);
#1114=ORIENTED_EDGE('',*,*,#1331,.T.);
#1115=ORIENTED_EDGE('',*,*,#1332,.T.);
#1116=ORIENTED_EDGE('',*,*,#1333,.T.);
#1117=ORIENTED_EDGE('',*,*,#1334,.T.);
#1118=ORIENTED_EDGE('',*,*,#1335,.T.);
#1119=ORIENTED_EDGE('',*,*,#1336,.T.);
#1120=ORIENTED_EDGE('',*,*,#1337,.T.);
#1121=ORIENTED_EDGE('',*,*,#1338,.T.);
#1122=ORIENTED_EDGE('',*,*,#1339,.T.);
#1123=ORIENTED_EDGE('',*,*,#1340,.T.);
#1124=ORIENTED_EDGE('',*,*,#1341,.T.);
#1125=ORIENTED_EDGE('',*,*,#1342,.T.);
#1126=ORIENTED_EDGE('',*,*,#1343,.T.);
#1127=ORIENTED_EDGE('',*,*,#1344,.T.);
#1128=ORIENTED_EDGE('',*,*,#1318,.T.);
#1129=ORIENTED_EDGE('',*,*,#1345,.T.);
#1130=ORIENTED_EDGE('',*,*,#1346,.T.);
#1131=ORIENTED_EDGE('',*,*,#1316,.T.);
#1132=ORIENTED_EDGE('',*,*,#1347,.T.);
#1133=ORIENTED_EDGE('',*,*,#1310,.T.);
#1134=ORIENTED_EDGE('',*,*,#1348,.T.);
#1135=ORIENTED_EDGE('',*,*,#1349,.T.);
#1136=ORIENTED_EDGE('',*,*,#1350,.T.);
#1137=ORIENTED_EDGE('',*,*,#1351,.T.);
#1138=ORIENTED_EDGE('',*,*,#1352,.T.);
#1139=ORIENTED_EDGE('',*,*,#1353,.T.);
#1140=ORIENTED_EDGE('',*,*,#1320,.F.);
#1141=ORIENTED_EDGE('',*,*,#1354,.F.);
#1142=ORIENTED_EDGE('',*,*,#1355,.F.);
#1143=ORIENTED_EDGE('',*,*,#1356,.F.);
#1144=ORIENTED_EDGE('',*,*,#1357,.F.);
#1145=ORIENTED_EDGE('',*,*,#1358,.F.);
#1146=ORIENTED_EDGE('',*,*,#1359,.F.);
#1147=ORIENTED_EDGE('',*,*,#1360,.F.);
#1148=ORIENTED_EDGE('',*,*,#1361,.T.);
#1149=ORIENTED_EDGE('',*,*,#1362,.T.);
#1150=ORIENTED_EDGE('',*,*,#1363,.T.);
#1151=ORIENTED_EDGE('',*,*,#1364,.F.);
#1152=ORIENTED_EDGE('',*,*,#1365,.F.);
#1153=ORIENTED_EDGE('',*,*,#1366,.F.);
#1154=ORIENTED_EDGE('',*,*,#1367,.F.);
#1155=ORIENTED_EDGE('',*,*,#1368,.F.);
#1156=ORIENTED_EDGE('',*,*,#1369,.F.);
#1157=ORIENTED_EDGE('',*,*,#1370,.F.);
#1158=ORIENTED_EDGE('',*,*,#1322,.F.);
#1159=ORIENTED_EDGE('',*,*,#1371,.T.);
#1160=ORIENTED_EDGE('',*,*,#1372,.T.);
#1161=ORIENTED_EDGE('',*,*,#1373,.T.);
#1162=ORIENTED_EDGE('',*,*,#1374,.T.);
#1163=ORIENTED_EDGE('',*,*,#1312,.T.);
#1164=ORIENTED_EDGE('',*,*,#1375,.T.);
#1165=ORIENTED_EDGE('',*,*,#1314,.T.);
#1166=ORIENTED_EDGE('',*,*,#1376,.T.);
#1167=ORIENTED_EDGE('',*,*,#1377,.T.);
#1168=ORIENTED_EDGE('',*,*,#1378,.T.);
#1169=ORIENTED_EDGE('',*,*,#1379,.T.);
#1170=ORIENTED_EDGE('',*,*,#1380,.T.);
#1171=ORIENTED_EDGE('',*,*,#1313,.F.);
#1172=ORIENTED_EDGE('',*,*,#1346,.F.);
#1173=ORIENTED_EDGE('',*,*,#1381,.F.);
#1174=ORIENTED_EDGE('',*,*,#1376,.F.);
#1175=ORIENTED_EDGE('',*,*,#1309,.F.);
#1176=ORIENTED_EDGE('',*,*,#1374,.F.);
#1177=ORIENTED_EDGE('',*,*,#1382,.T.);
#1178=ORIENTED_EDGE('',*,*,#1348,.F.);
#1179=ORIENTED_EDGE('',*,*,#1373,.F.);
#1180=ORIENTED_EDGE('',*,*,#1381,.T.);
#1181=ORIENTED_EDGE('',*,*,#1345,.F.);
#1182=ORIENTED_EDGE('',*,*,#1382,.F.);
#1183=ORIENTED_EDGE('',*,*,#1372,.F.);
#1184=ORIENTED_EDGE('',*,*,#1383,.T.);
#1185=ORIENTED_EDGE('',*,*,#1326,.F.);
#1186=ORIENTED_EDGE('',*,*,#1384,.F.);
#1187=ORIENTED_EDGE('',*,*,#1371,.F.);
#1188=ORIENTED_EDGE('',*,*,#1321,.F.);
#1189=ORIENTED_EDGE('',*,*,#1327,.F.);
#1190=ORIENTED_EDGE('',*,*,#1383,.F.);
#1191=ORIENTED_EDGE('',*,*,#1353,.F.);
#1192=ORIENTED_EDGE('',*,*,#1384,.T.);
#1193=ORIENTED_EDGE('',*,*,#1325,.F.);
#1194=ORIENTED_EDGE('',*,*,#1317,.F.);
#1195=ORIENTED_EDGE('',*,*,#1375,.F.);
#1196=ORIENTED_EDGE('',*,*,#1311,.T.);
#1197=ORIENTED_EDGE('',*,*,#1347,.F.);
#1198=ORIENTED_EDGE('',*,*,#1315,.F.);
#1199=ORIENTED_EDGE('',*,*,#1354,.T.);
#1200=ORIENTED_EDGE('',*,*,#1319,.T.);
#1201=ORIENTED_EDGE('',*,*,#1344,.F.);
#1202=ORIENTED_EDGE('',*,*,#1385,.F.);
#1203=ORIENTED_EDGE('',*,*,#1370,.T.);
#1204=ORIENTED_EDGE('',*,*,#1386,.T.);
#1205=ORIENTED_EDGE('',*,*,#1328,.F.);
#1206=ORIENTED_EDGE('',*,*,#1323,.F.);
#1207=ORIENTED_EDGE('',*,*,#1369,.T.);
#1208=ORIENTED_EDGE('',*,*,#1387,.T.);
#1209=ORIENTED_EDGE('',*,*,#1329,.F.);
#1210=ORIENTED_EDGE('',*,*,#1386,.F.);
#1211=ORIENTED_EDGE('',*,*,#1388,.T.);
#1212=ORIENTED_EDGE('',*,*,#1330,.F.);
#1213=ORIENTED_EDGE('',*,*,#1387,.F.);
#1214=ORIENTED_EDGE('',*,*,#1368,.T.);
#1215=ORIENTED_EDGE('',*,*,#1388,.F.);
#1216=ORIENTED_EDGE('',*,*,#1367,.T.);
#1217=ORIENTED_EDGE('',*,*,#1389,.T.);
#1218=ORIENTED_EDGE('',*,*,#1331,.F.);
#1219=ORIENTED_EDGE('',*,*,#1366,.T.);
#1220=ORIENTED_EDGE('',*,*,#1390,.T.);
#1221=ORIENTED_EDGE('',*,*,#1332,.F.);
#1222=ORIENTED_EDGE('',*,*,#1389,.F.);
#1223=ORIENTED_EDGE('',*,*,#1365,.T.);
#1224=ORIENTED_EDGE('',*,*,#1391,.T.);
#1225=ORIENTED_EDGE('',*,*,#1333,.F.);
#1226=ORIENTED_EDGE('',*,*,#1390,.F.);
#1227=ORIENTED_EDGE('',*,*,#1392,.T.);
#1228=ORIENTED_EDGE('',*,*,#1334,.F.);
#1229=ORIENTED_EDGE('',*,*,#1391,.F.);
#1230=ORIENTED_EDGE('',*,*,#1364,.T.);
#1231=ORIENTED_EDGE('',*,*,#1363,.F.);
#1232=ORIENTED_EDGE('',*,*,#1393,.T.);
#1233=ORIENTED_EDGE('',*,*,#1335,.F.);
#1234=ORIENTED_EDGE('',*,*,#1392,.F.);
#1235=ORIENTED_EDGE('',*,*,#1362,.F.);
#1236=ORIENTED_EDGE('',*,*,#1394,.T.);
#1237=ORIENTED_EDGE('',*,*,#1336,.F.);
#1238=ORIENTED_EDGE('',*,*,#1393,.F.);
#1239=ORIENTED_EDGE('',*,*,#1361,.F.);
#1240=ORIENTED_EDGE('',*,*,#1395,.F.);
#1241=ORIENTED_EDGE('',*,*,#1337,.F.);
#1242=ORIENTED_EDGE('',*,*,#1394,.F.);
#1243=ORIENTED_EDGE('',*,*,#1395,.T.);
#1244=ORIENTED_EDGE('',*,*,#1360,.T.);
#1245=ORIENTED_EDGE('',*,*,#1396,.T.);
#1246=ORIENTED_EDGE('',*,*,#1338,.F.);
#1247=ORIENTED_EDGE('',*,*,#1359,.T.);
#1248=ORIENTED_EDGE('',*,*,#1397,.T.);
#1249=ORIENTED_EDGE('',*,*,#1339,.F.);
#1250=ORIENTED_EDGE('',*,*,#1396,.F.);
#1251=ORIENTED_EDGE('',*,*,#1358,.T.);
#1252=ORIENTED_EDGE('',*,*,#1398,.T.);
#1253=ORIENTED_EDGE('',*,*,#1340,.F.);
#1254=ORIENTED_EDGE('',*,*,#1397,.F.);
#1255=ORIENTED_EDGE('',*,*,#1399,.F.);
#1256=ORIENTED_EDGE('',*,*,#1341,.F.);
#1257=ORIENTED_EDGE('',*,*,#1398,.F.);
#1258=ORIENTED_EDGE('',*,*,#1357,.T.);
#1259=ORIENTED_EDGE('',*,*,#1399,.T.);
#1260=ORIENTED_EDGE('',*,*,#1356,.T.);
#1261=ORIENTED_EDGE('',*,*,#1400,.T.);
#1262=ORIENTED_EDGE('',*,*,#1342,.F.);
#1263=ORIENTED_EDGE('',*,*,#1355,.T.);
#1264=ORIENTED_EDGE('',*,*,#1385,.T.);
#1265=ORIENTED_EDGE('',*,*,#1343,.F.);
#1266=ORIENTED_EDGE('',*,*,#1400,.F.);
#1267=ORIENTED_EDGE('',*,*,#1349,.F.);
#1268=ORIENTED_EDGE('',*,*,#1377,.F.);
#1269=ORIENTED_EDGE('',*,*,#1350,.F.);
#1270=ORIENTED_EDGE('',*,*,#1378,.F.);
#1271=ORIENTED_EDGE('',*,*,#1351,.F.);
#1272=ORIENTED_EDGE('',*,*,#1379,.F.);
#1273=ORIENTED_EDGE('',*,*,#1352,.F.);
#1274=ORIENTED_EDGE('',*,*,#1380,.F.);
#1275=ORIENTED_EDGE('',*,*,#1401,.T.);
#1276=ORIENTED_EDGE('',*,*,#1401,.F.);
#1277=ORIENTED_EDGE('',*,*,#1402,.T.);
#1278=ORIENTED_EDGE('',*,*,#1403,.T.);
#1279=ORIENTED_EDGE('',*,*,#1402,.F.);
#1280=ORIENTED_EDGE('',*,*,#1403,.F.);
#1281=ORIENTED_EDGE('',*,*,#1404,.T.);
#1282=ORIENTED_EDGE('',*,*,#1405,.T.);
#1283=ORIENTED_EDGE('',*,*,#1404,.F.);
#1284=ORIENTED_EDGE('',*,*,#1405,.F.);
#1285=ORIENTED_EDGE('',*,*,#1406,.T.);
#1286=ORIENTED_EDGE('',*,*,#1406,.F.);
#1287=ORIENTED_EDGE('',*,*,#1407,.T.);
#1288=ORIENTED_EDGE('',*,*,#1408,.T.);
#1289=ORIENTED_EDGE('',*,*,#1407,.F.);
#1290=ORIENTED_EDGE('',*,*,#1409,.T.);
#1291=ORIENTED_EDGE('',*,*,#1408,.F.);
#1292=ORIENTED_EDGE('',*,*,#1410,.T.);
#1293=ORIENTED_EDGE('',*,*,#1409,.F.);
#1294=ORIENTED_EDGE('',*,*,#1410,.F.);
#1295=ORIENTED_EDGE('',*,*,#1411,.T.);
#1296=ORIENTED_EDGE('',*,*,#1412,.T.);
#1297=ORIENTED_EDGE('',*,*,#1411,.F.);
#1298=ORIENTED_EDGE('',*,*,#1412,.F.);
#1299=ORIENTED_EDGE('',*,*,#1413,.T.);
#1300=ORIENTED_EDGE('',*,*,#1414,.T.);
#1301=ORIENTED_EDGE('',*,*,#1413,.F.);
#1302=ORIENTED_EDGE('',*,*,#1415,.T.);
#1303=ORIENTED_EDGE('',*,*,#1414,.F.);
#1304=ORIENTED_EDGE('',*,*,#1415,.F.);
#1305=ORIENTED_EDGE('',*,*,#1416,.T.);
#1306=ORIENTED_EDGE('',*,*,#1417,.T.);
#1307=ORIENTED_EDGE('',*,*,#1416,.F.);
#1308=ORIENTED_EDGE('',*,*,#1417,.F.);
#1309=EDGE_CURVE('',#1418,#1419,#1420,.T.);
#1310=EDGE_CURVE('',#1421,#1419,#1422,.F.);
#1311=EDGE_CURVE('',#1423,#1421,#1424,.T.);
#1312=EDGE_CURVE('',#1418,#1423,#1425,.T.);
#1313=EDGE_CURVE('',#1426,#1427,#1428,.T.);
#1314=EDGE_CURVE('',#1429,#1427,#1430,.T.);
#1315=EDGE_CURVE('',#1429,#1431,#1432,.T.);
#1316=EDGE_CURVE('',#1426,#1431,#1433,.F.);
#1317=EDGE_CURVE('',#1434,#1435,#1436,.F.);
#1318=EDGE_CURVE('',#1437,#1435,#1438,.T.);
#1319=EDGE_CURVE('',#1439,#1437,#1440,.T.);
#1320=EDGE_CURVE('',#1439,#1434,#1441,.T.);
#1321=EDGE_CURVE('',#1442,#1443,#1444,.F.);
#1322=EDGE_CURVE('',#1443,#1445,#1446,.T.);
#1323=EDGE_CURVE('',#1445,#1447,#1448,.T.);
#1324=EDGE_CURVE('',#1442,#1447,#1449,.T.);
#1325=EDGE_CURVE('',#1435,#1450,#1451,.F.);
#1326=EDGE_CURVE('',#1450,#1452,#1453,.F.);
#1327=EDGE_CURVE('',#1452,#1442,#1454,.F.);
#1328=EDGE_CURVE('',#1447,#1455,#1456,.T.);
#1329=EDGE_CURVE('',#1455,#1457,#1458,.T.);
#1330=EDGE_CURVE('',#1457,#1459,#1460,.T.);
#1331=EDGE_CURVE('',#1459,#1461,#1462,.T.);
#1332=EDGE_CURVE('',#1461,#1463,#1464,.T.);
#1333=EDGE_CURVE('',#1463,#1465,#1466,.T.);
#1334=EDGE_CURVE('',#1465,#1467,#1468,.T.);
#1335=EDGE_CURVE('',#1467,#1469,#1470,.F.);
#1336=EDGE_CURVE('',#1469,#1471,#1472,.F.);
#1337=EDGE_CURVE('',#1471,#1473,#1474,.F.);
#1338=EDGE_CURVE('',#1473,#1475,#1476,.T.);
#1339=EDGE_CURVE('',#1475,#1477,#1478,.T.);
#1340=EDGE_CURVE('',#1477,#1479,#1480,.T.);
#1341=EDGE_CURVE('',#1479,#1481,#1482,.T.);
#1342=EDGE_CURVE('',#1481,#1483,#1484,.T.);
#1343=EDGE_CURVE('',#1483,#1485,#1486,.T.);
#1344=EDGE_CURVE('',#1485,#1437,#1487,.T.);
#1345=EDGE_CURVE('',#1488,#1489,#1490,.F.);
#1346=EDGE_CURVE('',#1489,#1426,#1491,.F.);
#1347=EDGE_CURVE('',#1431,#1421,#1492,.F.);
#1348=EDGE_CURVE('',#1419,#1488,#1493,.F.);
#1349=EDGE_CURVE('',#1494,#1494,#1495,.F.);
#1350=EDGE_CURVE('',#1496,#1496,#1497,.F.);
#1351=EDGE_CURVE('',#1498,#1498,#1499,.F.);
#1352=EDGE_CURVE('',#1500,#1500,#1501,.F.);
#1353=EDGE_CURVE('',#1502,#1434,#1503,.T.);
#1354=EDGE_CURVE('',#1504,#1439,#1505,.T.);
#1355=EDGE_CURVE('',#1506,#1504,#1507,.T.);
#1356=EDGE_CURVE('',#1508,#1506,#1509,.T.);
#1357=EDGE_CURVE('',#1510,#1508,#1511,.T.);
#1358=EDGE_CURVE('',#1512,#1510,#1513,.T.);
#1359=EDGE_CURVE('',#1514,#1512,#1515,.T.);
#1360=EDGE_CURVE('',#1516,#1514,#1517,.T.);
#1361=EDGE_CURVE('',#1516,#1518,#1519,.T.);
#1362=EDGE_CURVE('',#1518,#1520,#1521,.T.);
#1363=EDGE_CURVE('',#1520,#1522,#1523,.T.);
#1364=EDGE_CURVE('',#1524,#1522,#1525,.T.);
#1365=EDGE_CURVE('',#1526,#1524,#1527,.T.);
#1366=EDGE_CURVE('',#1528,#1526,#1529,.T.);
#1367=EDGE_CURVE('',#1530,#1528,#1531,.T.);
#1368=EDGE_CURVE('',#1532,#1530,#1533,.T.);
#1369=EDGE_CURVE('',#1534,#1532,#1535,.T.);
#1370=EDGE_CURVE('',#1445,#1534,#1536,.T.);
#1371=EDGE_CURVE('',#1443,#1537,#1538,.T.);
#1372=EDGE_CURVE('',#1537,#1502,#1539,.T.);
#1373=EDGE_CURVE('',#1540,#1541,#1542,.T.);
#1374=EDGE_CURVE('',#1541,#1418,#1543,.T.);
#1375=EDGE_CURVE('',#1423,#1429,#1544,.T.);
#1376=EDGE_CURVE('',#1427,#1540,#1545,.T.);
#1377=EDGE_CURVE('',#1546,#1546,#1547,.T.);
#1378=EDGE_CURVE('',#1548,#1548,#1549,.T.);
#1379=EDGE_CURVE('',#1550,#1550,#1551,.T.);
#1380=EDGE_CURVE('',#1552,#1552,#1553,.T.);
#1381=EDGE_CURVE('',#1540,#1489,#1554,.T.);
#1382=EDGE_CURVE('',#1541,#1488,#1555,.T.);
#1383=EDGE_CURVE('',#1537,#1452,#1556,.T.);
#1384=EDGE_CURVE('',#1502,#1450,#1557,.T.);
#1385=EDGE_CURVE('',#1504,#1485,#1558,.T.);
#1386=EDGE_CURVE('',#1534,#1455,#1559,.T.);
#1387=EDGE_CURVE('',#1532,#1457,#1560,.T.);
#1388=EDGE_CURVE('',#1530,#1459,#1561,.T.);
#1389=EDGE_CURVE('',#1528,#1461,#1562,.T.);
#1390=EDGE_CURVE('',#1526,#1463,#1563,.T.);
#1391=EDGE_CURVE('',#1524,#1465,#1564,.T.);
#1392=EDGE_CURVE('',#1522,#1467,#1565,.F.);
#1393=EDGE_CURVE('',#1520,#1469,#1566,.T.);
#1394=EDGE_CURVE('',#1518,#1471,#1567,.T.);
#1395=EDGE_CURVE('',#1473,#1516,#1568,.F.);
#1396=EDGE_CURVE('',#1514,#1475,#1569,.T.);
#1397=EDGE_CURVE('',#1512,#1477,#1570,.T.);
#1398=EDGE_CURVE('',#1510,#1479,#1571,.T.);
#1399=EDGE_CURVE('',#1481,#1508,#1572,.F.);
#1400=EDGE_CURVE('',#1506,#1483,#1573,.T.);
#1401=EDGE_CURVE('',#1574,#1574,#1575,.T.);
#1402=EDGE_CURVE('',#1576,#1576,#1577,.T.);
#1403=EDGE_CURVE('',#1578,#1578,#1579,.T.);
#1404=EDGE_CURVE('',#1580,#1580,#1581,.T.);
#1405=EDGE_CURVE('',#1582,#1582,#1583,.T.);
#1406=EDGE_CURVE('',#1584,#1584,#1585,.T.);
#1407=EDGE_CURVE('',#1586,#1586,#1587,.T.);
#1408=EDGE_CURVE('',#1588,#1588,#1589,.T.);
#1409=EDGE_CURVE('',#1590,#1590,#1591,.T.);
#1410=EDGE_CURVE('',#1592,#1592,#1593,.T.);
#1411=EDGE_CURVE('',#1594,#1594,#1595,.T.);
#1412=EDGE_CURVE('',#1596,#1596,#1597,.T.);
#1413=EDGE_CURVE('',#1598,#1598,#1599,.T.);
#1414=EDGE_CURVE('',#1600,#1600,#1601,.T.);
#1415=EDGE_CURVE('',#1602,#1602,#1603,.T.);
#1416=EDGE_CURVE('',#1604,#1604,#1605,.T.);
#1417=EDGE_CURVE('',#1606,#1606,#1607,.T.);
#1418=VERTEX_POINT('',#1608);
#1419=VERTEX_POINT('',#1609);
#1420=LINE('',#1610,#1611);
#1421=VERTEX_POINT('',#1613);
#1422=LINE('',#1614,#1615);
#1423=VERTEX_POINT('',#1617);
#1424=LINE('',#1618,#1619);
#1425=LINE('',#1621,#1622);
#1426=VERTEX_POINT('',#1624);
#1427=VERTEX_POINT('',#1625);
#1428=LINE('',#1626,#1627);
#1429=VERTEX_POINT('',#1629);
#1430=LINE('',#1630,#1631);
#1431=VERTEX_POINT('',#1633);
#1432=LINE('',#1634,#1635);
#1433=LINE('',#1637,#1638);
#1434=VERTEX_POINT('',#1640);
#1435=VERTEX_POINT('',#1641);
#1436=LINE('',#1642,#1643);
#1437=VERTEX_POINT('',#1645);
#1438=LINE('',#1646,#1647);
#1439=VERTEX_POINT('',#1649);
#1440=LINE('',#1650,#1651);
#1441=LINE('',#1653,#1654);
#1442=VERTEX_POINT('',#1656);
#1443=VERTEX_POINT('',#1657);
#1444=LINE('',#1658,#1659);
#1445=VERTEX_POINT('',#1661);
#1446=LINE('',#1662,#1663);
#1447=VERTEX_POINT('',#1665);
#1448=LINE('',#1666,#1667);
#1449=LINE('',#1669,#1670);
#1450=VERTEX_POINT('',#1672);
#1451=LINE('',#1673,#1674);
#1452=VERTEX_POINT('',#1676);
#1453=CIRCLE('',#1677,0.03);
#1454=LINE('',#1681,#1682);
#1455=VERTEX_POINT('',#1684);
#1456=LINE('',#1685,#1686);
#1457=VERTEX_POINT('',#1688);
#1458=LINE('',#1689,#1690);
#1459=VERTEX_POINT('',#1692);
#1460=LINE('',#1693,#1694);
#1461=VERTEX_POINT('',#1696);
#1462=LINE('',#1697,#1698);
#1463=VERTEX_POINT('',#1700);
#1464=LINE('',#1701,#1702);
#1465=VERTEX_POINT('',#1704);
#1466=LINE('',#1705,#1706);
#1467=VERTEX_POINT('',#1708);
#1468=LINE('',#1709,#1710);
#1469=VERTEX_POINT('',#1712);
#1470=LINE('',#1713,#1714);
#1471=VERTEX_POINT('',#1716);
#1472=CIRCLE('',#1717,0.03);
#1473=VERTEX_POINT('',#1721);
#1474=LINE('',#1722,#1723);
#1475=VERTEX_POINT('',#1725);
#1476=LINE('',#1726,#1727);
#1477=VERTEX_POINT('',#1729);
#1478=LINE('',#1730,#1731);
#1479=VERTEX_POINT('',#1733);
#1480=LINE('',#1734,#1735);
#1481=VERTEX_POINT('',#1737);
#1482=LINE('',#1738,#1739);
#1483=VERTEX_POINT('',#1741);
#1484=LINE('',#1742,#1743);
#1485=VERTEX_POINT('',#1745);
#1486=LINE('',#1746,#1747);
#1487=LINE('',#1749,#1750);
#1488=VERTEX_POINT('',#1752);
#1489=VERTEX_POINT('',#1753);
#1490=CIRCLE('',#1754,0.03);
#1491=LINE('',#1758,#1759);
#1492=CIRCLE('',#1761,0.03);
#1493=LINE('',#1765,#1766);
#1494=VERTEX_POINT('',#1768);
#1495=CIRCLE('',#1769,0.66);
#1496=VERTEX_POINT('',#1773);
#1497=CIRCLE('',#1774,0.66);
#1498=VERTEX_POINT('',#1778);
#1499=CIRCLE('',#1779,0.66);
#1500=VERTEX_POINT('',#1783);
#1501=CIRCLE('',#1784,0.66);
#1502=VERTEX_POINT('',#1788);
#1503=LINE('',#1789,#1790);
#1504=VERTEX_POINT('',#1792);
#1505=LINE('',#1793,#1794);
#1506=VERTEX_POINT('',#1796);
#1507=LINE('',#1797,#1798);
#1508=VERTEX_POINT('',#1800);
#1509=LINE('',#1801,#1802);
#1510=VERTEX_POINT('',#1804);
#1511=LINE('',#1805,#1806);
#1512=VERTEX_POINT('',#1808);
#1513=LINE('',#1809,#1810);
#1514=VERTEX_POINT('',#1812);
#1515=LINE('',#1813,#1814);
#1516=VERTEX_POINT('',#1816);
#1517=LINE('',#1817,#1818);
#1518=VERTEX_POINT('',#1820);
#1519=LINE('',#1821,#1822);
#1520=VERTEX_POINT('',#1824);
#1521=CIRCLE('',#1825,0.03);
#1522=VERTEX_POINT('',#1829);
#1523=LINE('',#1830,#1831);
#1524=VERTEX_POINT('',#1833);
#1525=LINE('',#1834,#1835);
#1526=VERTEX_POINT('',#1837);
#1527=LINE('',#1838,#1839);
#1528=VERTEX_POINT('',#1841);
#1529=LINE('',#1842,#1843);
#1530=VERTEX_POINT('',#1845);
#1531=LINE('',#1846,#1847);
#1532=VERTEX_POINT('',#1849);
#1533=LINE('',#1850,#1851);
#1534=VERTEX_POINT('',#1853);
#1535=LINE('',#1854,#1855);
#1536=LINE('',#1857,#1858);
#1537=VERTEX_POINT('',#1860);
#1538=LINE('',#1861,#1862);
#1539=CIRCLE('',#1864,0.03);
#1540=VERTEX_POINT('',#1868);
#1541=VERTEX_POINT('',#1869);
#1542=CIRCLE('',#1870,0.03);
#1543=LINE('',#1874,#1875);
#1544=CIRCLE('',#1877,0.03);
#1545=LINE('',#1881,#1882);
#1546=VERTEX_POINT('',#1884);
#1547=CIRCLE('',#1885,0.66);
#1548=VERTEX_POINT('',#1889);
#1549=CIRCLE('',#1890,0.66);
#1550=VERTEX_POINT('',#1894);
#1551=CIRCLE('',#1895,0.66);
#1552=VERTEX_POINT('',#1899);
#1553=CIRCLE('',#1900,0.66);
#1554=LINE('',#1904,#1905);
#1555=LINE('',#1907,#1908);
#1556=LINE('',#1910,#1911);
#1557=LINE('',#1913,#1914);
#1558=LINE('',#1916,#1917);
#1559=LINE('',#1919,#1920);
#1560=LINE('',#1922,#1923);
#1561=LINE('',#1925,#1926);
#1562=LINE('',#1928,#1929);
#1563=LINE('',#1931,#1932);
#1564=LINE('',#1934,#1935);
#1565=LINE('',#1937,#1938);
#1566=LINE('',#1940,#1941);
#1567=LINE('',#1943,#1944);
#1568=LINE('',#1946,#1947);
#1569=LINE('',#1949,#1950);
#1570=LINE('',#1952,#1953);
#1571=LINE('',#1955,#1956);
#1572=LINE('',#1958,#1959);
#1573=LINE('',#1961,#1962);
#1574=VERTEX_POINT('',#1964);
#1575=CIRCLE('',#1965,0.1275);
#1576=VERTEX_POINT('',#1969);
#1577=CIRCLE('',#1970,0.255);
#1578=VERTEX_POINT('',#1974);
#1579=CIRCLE('',#1975,0.255);
#1580=VERTEX_POINT('',#1979);
#1581=CIRCLE('',#1980,0.66);
#1582=VERTEX_POINT('',#1984);
#1583=CIRCLE('',#1985,0.66);
#1584=VERTEX_POINT('',#1989);
#1585=CIRCLE('',#1990,0.810000000000001);
#1586=VERTEX_POINT('',#1994);
#1587=CIRCLE('',#1995,0.659999999999999);
#1588=VERTEX_POINT('',#1999);
#1589=CIRCLE('',#2000,0.66);
#1590=VERTEX_POINT('',#2004);
#1591=CIRCLE('',#2005,0.915);
#1592=VERTEX_POINT('',#2009);
#1593=CIRCLE('',#2010,0.915);
#1594=VERTEX_POINT('',#2014);
#1595=CIRCLE('',#2015,0.609191070866214);
#1596=VERTEX_POINT('',#2019);
#1597=CIRCLE('',#2020,0.5);
#1598=VERTEX_POINT('',#2024);
#1599=CIRCLE('',#2025,0.5);
#1600=VERTEX_POINT('',#2029);
#1601=CIRCLE('',#2030,0.225);
#1602=VERTEX_POINT('',#2034);
#1603=CIRCLE('',#2035,0.5);
#1604=VERTEX_POINT('',#2039);
#1605=CIRCLE('',#2040,0.5);
#1606=VERTEX_POINT('',#2044);
#1607=CIRCLE('',#2045,0.03);
#1608=CARTESIAN_POINT('',(1.11099559472815,1.27,1.57));
#1609=CARTESIAN_POINT('',(1.11099559472815,1.27,2.84));
#1610=CARTESIAN_POINT('',(1.11099559472815,1.27,1.57));
#1611=VECTOR('',#1612,1.);
#1612=DIRECTION('',(0.,0.,1.));
#1613=CARTESIAN_POINT('',(1.24281076638894,0.987321452147693,2.84));
#1614=CARTESIAN_POINT('',(1.11099559472815,1.27,2.84));
#1615=VECTOR('',#1616,1.);
#1616=DIRECTION('',(0.422618261743666,-0.906307787035267,0.));
#1617=CARTESIAN_POINT('',(1.24281076638894,0.987321452147693,1.57));
#1618=CARTESIAN_POINT('',(1.24281076638894,0.987321452147694,1.57));
#1619=VECTOR('',#1620,1.);
#1620=DIRECTION('',(0.,0.,1.));
#1621=CARTESIAN_POINT('',(1.11099559472815,1.27,1.57));
#1622=VECTOR('',#1623,1.);
#1623=DIRECTION('',(0.422618261743666,-0.906307787035267,0.));
#1624=CARTESIAN_POINT('',(1.42900440527185,1.27,2.84));
#1625=CARTESIAN_POINT('',(1.42900440527185,1.27,1.57));
#1626=CARTESIAN_POINT('',(1.42900440527185,1.27,2.84));
#1627=VECTOR('',#1628,1.);
#1628=DIRECTION('',(0.,0.,-1.));
#1629=CARTESIAN_POINT('',(1.29718923361106,0.987321452147693,1.57));
#1630=CARTESIAN_POINT('',(1.29718923361106,0.987321452147693,1.57));
#1631=VECTOR('',#1632,1.);
#1632=DIRECTION('',(0.422618261743663,0.906307787035268,0.));
#1633=CARTESIAN_POINT('',(1.29718923361106,0.987321452147693,2.84));
#1634=CARTESIAN_POINT('',(1.29718923361106,0.987321452147693,1.57));
#1635=VECTOR('',#1636,1.);
#1636=DIRECTION('',(0.,0.,1.));
#1637=CARTESIAN_POINT('',(1.29718923361106,0.987321452147693,2.84));
#1638=VECTOR('',#1639,1.);
#1639=DIRECTION('',(0.422618261743663,0.906307787035268,0.));
#1640=CARTESIAN_POINT('',(1.42900440527185,3.81,1.57));
#1641=CARTESIAN_POINT('',(1.42900440527185,3.81,2.84));
#1642=CARTESIAN_POINT('',(1.42900440527185,3.81,2.84));
#1643=VECTOR('',#1644,1.);
#1644=DIRECTION('',(0.,0.,-1.));
#1645=CARTESIAN_POINT('',(3.7851077025535,3.81,2.84));
#1646=CARTESIAN_POINT('',(3.7851077025535,3.81,2.84));
#1647=VECTOR('',#1648,1.);
#1648=DIRECTION('',(-1.,0.,0.));
#1649=CARTESIAN_POINT('',(3.7851077025535,3.81,1.57));
#1650=CARTESIAN_POINT('',(3.7851077025535,3.81,1.57));
#1651=VECTOR('',#1652,1.);
#1652=DIRECTION('',(0.,0.,1.));
#1653=CARTESIAN_POINT('',(3.7851077025535,3.81,1.57));
#1654=VECTOR('',#1655,1.);
#1655=DIRECTION('',(-1.,0.,0.));
#1656=CARTESIAN_POINT('',(1.11099559472815,3.81,2.84));
#1657=CARTESIAN_POINT('',(1.11099559472815,3.81,1.57));
#1658=CARTESIAN_POINT('',(1.11099559472815,3.81,1.57));
#1659=VECTOR('',#1660,1.);
#1660=DIRECTION('',(0.,0.,1.));
#1661=CARTESIAN_POINT('',(-1.2451077025535,3.81,1.57));
#1662=CARTESIAN_POINT('',(1.11099559472815,3.81,1.57));
#1663=VECTOR('',#1664,1.);
#1664=DIRECTION('',(-1.,0.,0.));
#1665=CARTESIAN_POINT('',(-1.2451077025535,3.81,2.84));
#1666=CARTESIAN_POINT('',(-1.2451077025535,3.81,1.57));
#1667=VECTOR('',#1668,1.);
#1668=DIRECTION('',(0.,0.,1.));
#1669=CARTESIAN_POINT('',(1.11099559472815,3.81,2.84));
#1670=VECTOR('',#1671,1.);
#1671=DIRECTION('',(-1.,0.,0.));
#1672=CARTESIAN_POINT('',(1.29718923361106,3.52732145214769,2.84));
#1673=CARTESIAN_POINT('',(1.29718923361106,3.52732145214769,2.84));
#1674=VECTOR('',#1675,1.);
#1675=DIRECTION('',(0.422618261743663,0.906307787035268,0.));
#1676=CARTESIAN_POINT('',(1.24281076638894,3.52732145214769,2.84));
#1677=AXIS2_PLACEMENT_3D('',#1678,#1679,#1680);
#1678=CARTESIAN_POINT('',(1.27,3.54,2.84));
#1679=DIRECTION('',(-0.,0.,1.));
#1680=DIRECTION('',(-0.906307787035288,-0.42261826174362,0.));
#1681=CARTESIAN_POINT('',(1.11099559472815,3.81,2.84));
#1682=VECTOR('',#1683,1.);
#1683=DIRECTION('',(0.422618261743666,-0.906307787035267,0.));
#1684=CARTESIAN_POINT('',(-1.385,3.51,2.84));
#1685=CARTESIAN_POINT('',(-1.2451077025535,3.81,2.84));
#1686=VECTOR('',#1687,1.);
#1687=DIRECTION('',(-0.4226182617407,-0.90630778703665,0.));
#1688=CARTESIAN_POINT('',(-1.385,1.57,2.84));
#1689=CARTESIAN_POINT('',(-1.385,3.51,2.84));
#1690=VECTOR('',#1691,1.);
#1691=DIRECTION('',(-2.28911963840238E-016,-1.,0.));
#1692=CARTESIAN_POINT('',(-1.2451077025535,1.27,2.84));
#1693=CARTESIAN_POINT('',(-1.385,1.57,2.84));
#1694=VECTOR('',#1695,1.);
#1695=DIRECTION('',(0.422618261740699,-0.90630778703665,0.));
#1696=CARTESIAN_POINT('',(-1.385,0.970000000000001,2.84));
#1697=CARTESIAN_POINT('',(-1.2451077025535,1.27,2.84));
#1698=VECTOR('',#1699,1.);
#1699=DIRECTION('',(-0.4226182617407,-0.90630778703665,0.));
#1700=CARTESIAN_POINT('',(-1.385,-0.97,2.84));
#1701=CARTESIAN_POINT('',(-1.385,0.970000000000001,2.84));
#1702=VECTOR('',#1703,1.);
#1703=DIRECTION('',(-2.28911963840238E-016,-1.,0.));
#1704=CARTESIAN_POINT('',(-1.2451077025535,-1.27,2.84));
#1705=CARTESIAN_POINT('',(-1.385,-0.97,2.84));
#1706=VECTOR('',#1707,1.);
#1707=DIRECTION('',(0.422618261740699,-0.90630778703665,0.));
#1708=CARTESIAN_POINT('',(1.11099559473196,-1.27,2.84));
#1709=CARTESIAN_POINT('',(-1.2451077025535,-1.27,2.84));
#1710=VECTOR('',#1711,1.);
#1711=DIRECTION('',(1.,0.,0.));
#1712=CARTESIAN_POINT('',(1.24281076638794,-0.987321452149846,2.84));
#1713=CARTESIAN_POINT('',(1.24281076638794,-0.987321452149846,2.84));
#1714=VECTOR('',#1715,1.);
#1715=DIRECTION('',(-0.422618261733637,-0.906307787039943,0.));
#1716=CARTESIAN_POINT('',(1.29718923360911,-0.987321452143519,2.84));
#1717=AXIS2_PLACEMENT_3D('',#1718,#1719,#1720);
#1718=CARTESIAN_POINT('',(1.27,-1.,2.84));
#1719=DIRECTION('',(0.,-0.,1.));
#1720=DIRECTION('',(0.906307786970437,0.422618261882694,0.));
#1721=CARTESIAN_POINT('',(1.42900440526804,-1.27,2.84));
#1722=CARTESIAN_POINT('',(1.42900440526804,-1.27,2.84));
#1723=VECTOR('',#1724,1.);
#1724=DIRECTION('',(-0.422618261733638,0.906307787039943,0.));
#1725=CARTESIAN_POINT('',(3.7851077025535,-1.27,2.84));
#1726=CARTESIAN_POINT('',(1.42900440526804,-1.27,2.84));
#1727=VECTOR('',#1728,1.);
#1728=DIRECTION('',(1.,0.,0.));
#1729=CARTESIAN_POINT('',(3.925,-0.97,2.84));
#1730=CARTESIAN_POINT('',(3.7851077025535,-1.27,2.84));
#1731=VECTOR('',#1732,1.);
#1732=DIRECTION('',(0.422618261740699,0.90630778703665,0.));
#1733=CARTESIAN_POINT('',(3.925,0.97,2.84));
#1734=CARTESIAN_POINT('',(3.925,-0.97,2.84));
#1735=VECTOR('',#1736,1.);
#1736=DIRECTION('',(-2.28911963840239E-016,1.,0.));
#1737=CARTESIAN_POINT('',(3.7851077025535,1.27,2.84));
#1738=CARTESIAN_POINT('',(3.925,0.97,2.84));
#1739=VECTOR('',#1740,1.);
#1740=DIRECTION('',(-0.422618261740699,0.90630778703665,0.));
#1741=CARTESIAN_POINT('',(3.925,1.57,2.84));
#1742=CARTESIAN_POINT('',(3.7851077025535,1.27,2.84));
#1743=VECTOR('',#1744,1.);
#1744=DIRECTION('',(0.422618261740699,0.90630778703665,0.));
#1745=CARTESIAN_POINT('',(3.925,3.51,2.84));
#1746=CARTESIAN_POINT('',(3.925,1.57,2.84));
#1747=VECTOR('',#1748,1.);
#1748=DIRECTION('',(-2.28911963840239E-016,1.,0.));
#1749=CARTESIAN_POINT('',(3.925,3.51,2.84));
#1750=VECTOR('',#1751,1.);
#1751=DIRECTION('',(-0.422618261740699,0.90630778703665,0.));
#1752=CARTESIAN_POINT('',(1.24281076638794,1.55267854785015,2.84));
#1753=CARTESIAN_POINT('',(1.29718923360911,1.55267854785648,2.84));
#1754=AXIS2_PLACEMENT_3D('',#1755,#1756,#1757);
#1755=CARTESIAN_POINT('',(1.27,1.54,2.84));
#1756=DIRECTION('',(0.,-0.,1.));
#1757=DIRECTION('',(0.906307786970437,0.422618261882694,0.));
#1758=CARTESIAN_POINT('',(1.42900440526804,1.27,2.84));
#1759=VECTOR('',#1760,1.);
#1760=DIRECTION('',(-0.422618261733638,0.906307787039943,0.));
#1761=AXIS2_PLACEMENT_3D('',#1762,#1763,#1764);
#1762=CARTESIAN_POINT('',(1.27,1.,2.84));
#1763=DIRECTION('',(-0.,0.,1.));
#1764=DIRECTION('',(-0.906307787035285,-0.422618261743626,0.));
#1765=CARTESIAN_POINT('',(1.24281076638794,1.55267854785015,2.84));
#1766=VECTOR('',#1767,1.);
#1767=DIRECTION('',(-0.422618261733637,-0.906307787039943,0.));
#1768=CARTESIAN_POINT('',(0.66,-8.08266887437253E-017,2.84));
#1769=AXIS2_PLACEMENT_3D('',#1770,#1771,#1772);
#1770=CARTESIAN_POINT('',(0.,0.,2.84));
#1771=DIRECTION('',(0.,0.,1.));
#1772=DIRECTION('',(1.,0.,0.));
#1773=CARTESIAN_POINT('',(3.2,2.54,2.84));
#1774=AXIS2_PLACEMENT_3D('',#1775,#1776,#1777);
#1775=CARTESIAN_POINT('',(2.54,2.54,2.84));
#1776=DIRECTION('',(0.,0.,1.));
#1777=DIRECTION('',(1.,0.,0.));
#1778=CARTESIAN_POINT('',(0.66,2.54,2.84));
#1779=AXIS2_PLACEMENT_3D('',#1780,#1781,#1782);
#1780=CARTESIAN_POINT('',(1.55530143491714E-016,2.54,2.84));
#1781=DIRECTION('',(0.,0.,1.));
#1782=DIRECTION('',(1.,0.,0.));
#1783=CARTESIAN_POINT('',(3.2,-8.08266887437253E-017,2.84));
#1784=AXIS2_PLACEMENT_3D('',#1785,#1786,#1787);
#1785=CARTESIAN_POINT('',(2.54,0.,2.84));
#1786=DIRECTION('',(0.,0.,1.));
#1787=DIRECTION('',(1.,0.,0.));
#1788=CARTESIAN_POINT('',(1.29718923361106,3.52732145214769,1.57));
#1789=CARTESIAN_POINT('',(1.29718923361106,3.52732145214769,1.57));
#1790=VECTOR('',#1791,1.);
#1791=DIRECTION('',(0.422618261743663,0.906307787035268,0.));
#1792=CARTESIAN_POINT('',(3.925,3.51,1.57));
#1793=CARTESIAN_POINT('',(3.925,3.51,1.57));
#1794=VECTOR('',#1795,1.);
#1795=DIRECTION('',(-0.422618261740699,0.90630778703665,0.));
#1796=CARTESIAN_POINT('',(3.925,1.57,1.57));
#1797=CARTESIAN_POINT('',(3.925,1.57,1.57));
#1798=VECTOR('',#1799,1.);
#1799=DIRECTION('',(-2.28911963840239E-016,1.,0.));
#1800=CARTESIAN_POINT('',(3.7851077025535,1.27,1.57));
#1801=CARTESIAN_POINT('',(3.7851077025535,1.27,1.57));
#1802=VECTOR('',#1803,1.);
#1803=DIRECTION('',(0.422618261740699,0.90630778703665,0.));
#1804=CARTESIAN_POINT('',(3.925,0.97,1.57));
#1805=CARTESIAN_POINT('',(3.925,0.97,1.57));
#1806=VECTOR('',#1807,1.);
#1807=DIRECTION('',(-0.422618261740699,0.90630778703665,0.));
#1808=CARTESIAN_POINT('',(3.925,-0.97,1.57));
#1809=CARTESIAN_POINT('',(3.925,-0.97,1.57));
#1810=VECTOR('',#1811,1.);
#1811=DIRECTION('',(-2.28911963840239E-016,1.,0.));
#1812=CARTESIAN_POINT('',(3.7851077025535,-1.27,1.57));
#1813=CARTESIAN_POINT('',(3.7851077025535,-1.27,1.57));
#1814=VECTOR('',#1815,1.);
#1815=DIRECTION('',(0.422618261740699,0.90630778703665,0.));
#1816=CARTESIAN_POINT('',(1.42900440526804,-1.27,1.57));
#1817=CARTESIAN_POINT('',(1.42900440526804,-1.27,1.57));
#1818=VECTOR('',#1819,1.);
#1819=DIRECTION('',(1.,0.,0.));
#1820=CARTESIAN_POINT('',(1.29718923360911,-0.987321452143519,1.57));
#1821=CARTESIAN_POINT('',(1.42900440526804,-1.27,1.57));
#1822=VECTOR('',#1823,1.);
#1823=DIRECTION('',(-0.422618261733638,0.906307787039943,0.));
#1824=CARTESIAN_POINT('',(1.24281076638794,-0.987321452149846,1.57));
#1825=AXIS2_PLACEMENT_3D('',#1826,#1827,#1828);
#1826=CARTESIAN_POINT('',(1.27,-1.,1.57));
#1827=DIRECTION('',(0.,-0.,1.));
#1828=DIRECTION('',(0.906307786970437,0.422618261882694,0.));
#1829=CARTESIAN_POINT('',(1.11099559473196,-1.27,1.57));
#1830=CARTESIAN_POINT('',(1.24281076638794,-0.987321452149846,1.57));
#1831=VECTOR('',#1832,1.);
#1832=DIRECTION('',(-0.422618261733637,-0.906307787039943,0.));
#1833=CARTESIAN_POINT('',(-1.2451077025535,-1.27,1.57));
#1834=CARTESIAN_POINT('',(-1.2451077025535,-1.27,1.57));
#1835=VECTOR('',#1836,1.);
#1836=DIRECTION('',(1.,0.,0.));
#1837=CARTESIAN_POINT('',(-1.385,-0.97,1.57));
#1838=CARTESIAN_POINT('',(-1.385,-0.97,1.57));
#1839=VECTOR('',#1840,1.);
#1840=DIRECTION('',(0.422618261740699,-0.90630778703665,0.));
#1841=CARTESIAN_POINT('',(-1.385,0.970000000000001,1.57));
#1842=CARTESIAN_POINT('',(-1.385,0.970000000000001,1.57));
#1843=VECTOR('',#1844,1.);
#1844=DIRECTION('',(-2.28911963840238E-016,-1.,0.));
#1845=CARTESIAN_POINT('',(-1.2451077025535,1.27,1.57));
#1846=CARTESIAN_POINT('',(-1.2451077025535,1.27,1.57));
#1847=VECTOR('',#1848,1.);
#1848=DIRECTION('',(-0.4226182617407,-0.90630778703665,0.));
#1849=CARTESIAN_POINT('',(-1.385,1.57,1.57));
#1850=CARTESIAN_POINT('',(-1.385,1.57,1.57));
#1851=VECTOR('',#1852,1.);
#1852=DIRECTION('',(0.422618261740699,-0.90630778703665,0.));
#1853=CARTESIAN_POINT('',(-1.385,3.51,1.57));
#1854=CARTESIAN_POINT('',(-1.385,3.51,1.57));
#1855=VECTOR('',#1856,1.);
#1856=DIRECTION('',(-2.28911963840238E-016,-1.,0.));
#1857=CARTESIAN_POINT('',(-1.2451077025535,3.81,1.57));
#1858=VECTOR('',#1859,1.);
#1859=DIRECTION('',(-0.4226182617407,-0.90630778703665,0.));
#1860=CARTESIAN_POINT('',(1.24281076638894,3.52732145214769,1.57));
#1861=CARTESIAN_POINT('',(1.11099559472815,3.81,1.57));
#1862=VECTOR('',#1863,1.);
#1863=DIRECTION('',(0.422618261743666,-0.906307787035267,0.));
#1864=AXIS2_PLACEMENT_3D('',#1865,#1866,#1867);
#1865=CARTESIAN_POINT('',(1.27,3.54,1.57));
#1866=DIRECTION('',(-0.,0.,1.));
#1867=DIRECTION('',(-0.906307787035288,-0.42261826174362,0.));
#1868=CARTESIAN_POINT('',(1.29718923360911,1.55267854785648,1.57));
#1869=CARTESIAN_POINT('',(1.24281076638794,1.55267854785015,1.57));
#1870=AXIS2_PLACEMENT_3D('',#1871,#1872,#1873);
#1871=CARTESIAN_POINT('',(1.27,1.54,1.57));
#1872=DIRECTION('',(0.,-0.,1.));
#1873=DIRECTION('',(0.906307786970437,0.422618261882694,0.));
#1874=CARTESIAN_POINT('',(1.24281076638794,1.55267854785015,1.57));
#1875=VECTOR('',#1876,1.);
#1876=DIRECTION('',(-0.422618261733637,-0.906307787039943,0.));
#1877=AXIS2_PLACEMENT_3D('',#1878,#1879,#1880);
#1878=CARTESIAN_POINT('',(1.27,1.,1.57));
#1879=DIRECTION('',(-0.,0.,1.));
#1880=DIRECTION('',(-0.906307787035285,-0.422618261743626,0.));
#1881=CARTESIAN_POINT('',(1.42900440526804,1.27,1.57));
#1882=VECTOR('',#1883,1.);
#1883=DIRECTION('',(-0.422618261733638,0.906307787039943,0.));
#1884=CARTESIAN_POINT('',(0.66,-8.08266887437253E-017,1.57));
#1885=AXIS2_PLACEMENT_3D('',#1886,#1887,#1888);
#1886=CARTESIAN_POINT('',(0.,0.,1.57));
#1887=DIRECTION('',(0.,0.,1.));
#1888=DIRECTION('',(1.,0.,0.));
#1889=CARTESIAN_POINT('',(3.2,2.54,1.57));
#1890=AXIS2_PLACEMENT_3D('',#1891,#1892,#1893);
#1891=CARTESIAN_POINT('',(2.54,2.54,1.57));
#1892=DIRECTION('',(0.,0.,1.));
#1893=DIRECTION('',(1.,0.,0.));
#1894=CARTESIAN_POINT('',(0.66,2.54,1.57));
#1895=AXIS2_PLACEMENT_3D('',#1896,#1897,#1898);
#1896=CARTESIAN_POINT('',(1.55530143491714E-016,2.54,1.57));
#1897=DIRECTION('',(0.,0.,1.));
#1898=DIRECTION('',(1.,0.,0.));
#1899=CARTESIAN_POINT('',(3.2,-8.08266887437253E-017,1.57));
#1900=AXIS2_PLACEMENT_3D('',#1901,#1902,#1903);
#1901=CARTESIAN_POINT('',(2.54,0.,1.57));
#1902=DIRECTION('',(0.,0.,1.));
#1903=DIRECTION('',(1.,0.,0.));
#1904=CARTESIAN_POINT('',(1.29718923360911,1.55267854785648,1.57));
#1905=VECTOR('',#1906,1.);
#1906=DIRECTION('',(0.,0.,1.));
#1907=CARTESIAN_POINT('',(1.24281076638794,1.55267854785015,1.57));
#1908=VECTOR('',#1909,1.);
#1909=DIRECTION('',(0.,0.,1.));
#1910=CARTESIAN_POINT('',(1.24281076638894,3.52732145214769,1.57));
#1911=VECTOR('',#1912,1.);
#1912=DIRECTION('',(0.,0.,1.));
#1913=CARTESIAN_POINT('',(1.29718923361106,3.52732145214769,1.57));
#1914=VECTOR('',#1915,1.);
#1915=DIRECTION('',(0.,0.,1.));
#1916=CARTESIAN_POINT('',(3.925,3.51,1.57));
#1917=VECTOR('',#1918,1.);
#1918=DIRECTION('',(0.,0.,1.));
#1919=CARTESIAN_POINT('',(-1.385,3.51,1.57));
#1920=VECTOR('',#1921,1.);
#1921=DIRECTION('',(0.,0.,1.));
#1922=CARTESIAN_POINT('',(-1.385,1.57,1.57));
#1923=VECTOR('',#1924,1.);
#1924=DIRECTION('',(0.,0.,1.));
#1925=CARTESIAN_POINT('',(-1.2451077025535,1.27,1.57));
#1926=VECTOR('',#1927,1.);
#1927=DIRECTION('',(0.,0.,1.));
#1928=CARTESIAN_POINT('',(-1.385,0.970000000000001,1.57));
#1929=VECTOR('',#1930,1.);
#1930=DIRECTION('',(0.,0.,1.));
#1931=CARTESIAN_POINT('',(-1.385,-0.97,1.57));
#1932=VECTOR('',#1933,1.);
#1933=DIRECTION('',(0.,0.,1.));
#1934=CARTESIAN_POINT('',(-1.2451077025535,-1.27,1.57));
#1935=VECTOR('',#1936,1.);
#1936=DIRECTION('',(0.,0.,1.));
#1937=CARTESIAN_POINT('',(1.11099559473196,-1.27,2.84));
#1938=VECTOR('',#1939,1.);
#1939=DIRECTION('',(0.,0.,-1.));
#1940=CARTESIAN_POINT('',(1.24281076638794,-0.987321452149846,1.57));
#1941=VECTOR('',#1942,1.);
#1942=DIRECTION('',(0.,0.,1.));
#1943=CARTESIAN_POINT('',(1.29718923360911,-0.987321452143519,1.57));
#1944=VECTOR('',#1945,1.);
#1945=DIRECTION('',(0.,0.,1.));
#1946=CARTESIAN_POINT('',(1.42900440526804,-1.27,1.57));
#1947=VECTOR('',#1948,1.);
#1948=DIRECTION('',(0.,0.,1.));
#1949=CARTESIAN_POINT('',(3.7851077025535,-1.27,1.57));
#1950=VECTOR('',#1951,1.);
#1951=DIRECTION('',(0.,0.,1.));
#1952=CARTESIAN_POINT('',(3.925,-0.97,1.57));
#1953=VECTOR('',#1954,1.);
#1954=DIRECTION('',(0.,0.,1.));
#1955=CARTESIAN_POINT('',(3.925,0.97,1.57));
#1956=VECTOR('',#1957,1.);
#1957=DIRECTION('',(0.,0.,1.));
#1958=CARTESIAN_POINT('',(3.7851077025535,1.27,1.57));
#1959=VECTOR('',#1960,1.);
#1960=DIRECTION('',(0.,0.,1.));
#1961=CARTESIAN_POINT('',(3.925,1.57,1.57));
#1962=VECTOR('',#1963,1.);
#1963=DIRECTION('',(0.,0.,1.));
#1964=CARTESIAN_POINT('',(0.,-0.1275,-2.75));
#1965=AXIS2_PLACEMENT_3D('',#1966,#1967,#1968);
#1966=CARTESIAN_POINT('',(0.,0.,-2.75));
#1967=DIRECTION('',(-0.,-0.,-1.));
#1968=DIRECTION('',(0.,-1.,0.));
#1969=CARTESIAN_POINT('',(0.,-0.255,-2.6225));
#1970=AXIS2_PLACEMENT_3D('',#1971,#1972,#1973);
#1971=CARTESIAN_POINT('',(0.,0.,-2.6225));
#1972=DIRECTION('',(-0.,-0.,-1.));
#1973=DIRECTION('',(0.,-1.,0.));
#1974=CARTESIAN_POINT('',(0.,-0.255,-1.56142466891288E-017));
#1975=AXIS2_PLACEMENT_3D('',#1976,#1977,#1978);
#1976=CARTESIAN_POINT('',(0.,0.,0.));
#1977=DIRECTION('',(-0.,-0.,-1.));
#1978=DIRECTION('',(0.,-1.,0.));
#1979=CARTESIAN_POINT('',(0.,-0.66,0.283584053511925));
#1980=AXIS2_PLACEMENT_3D('',#1981,#1982,#1983);
#1981=CARTESIAN_POINT('',(0.,0.,0.283584053511925));
#1982=DIRECTION('',(-0.,-0.,-1.));
#1983=DIRECTION('',(0.,-1.,0.));
#1984=CARTESIAN_POINT('',(0.,-0.66,1.79287838708181));
#1985=AXIS2_PLACEMENT_3D('',#1986,#1987,#1988);
#1986=CARTESIAN_POINT('',(0.,0.,1.79287838708181));
#1987=DIRECTION('',(-0.,-0.,-1.));
#1988=DIRECTION('',(0.,-1.,0.));
#1989=CARTESIAN_POINT('',(0.,-0.810000000000001,2.205));
#1990=AXIS2_PLACEMENT_3D('',#1991,#1992,#1993);
#1991=CARTESIAN_POINT('',(0.,0.,2.205));
#1992=DIRECTION('',(-0.,-0.,-1.));
#1993=DIRECTION('',(0.,-1.,0.));
#1994=CARTESIAN_POINT('',(0.,-0.659999999999999,2.205));
#1995=AXIS2_PLACEMENT_3D('',#1996,#1997,#1998);
#1996=CARTESIAN_POINT('',(0.,0.,2.205));
#1997=DIRECTION('',(-0.,-0.,-1.));
#1998=DIRECTION('',(0.,-1.,0.));
#1999=CARTESIAN_POINT('',(0.,-0.66,2.84));
#2000=AXIS2_PLACEMENT_3D('',#2001,#2002,#2003);
#2001=CARTESIAN_POINT('',(0.,0.,2.84));
#2002=DIRECTION('',(-0.,-0.,-1.));
#2003=DIRECTION('',(0.,-1.,0.));
#2004=CARTESIAN_POINT('',(0.,-0.915,2.84));
#2005=AXIS2_PLACEMENT_3D('',#2006,#2007,#2008);
#2006=CARTESIAN_POINT('',(0.,0.,2.84));
#2007=DIRECTION('',(-0.,-0.,-1.));
#2008=DIRECTION('',(0.,-1.,0.));
#2009=CARTESIAN_POINT('',(0.,-0.915,3.35));
#2010=AXIS2_PLACEMENT_3D('',#2011,#2012,#2013);
#2011=CARTESIAN_POINT('',(0.,0.,3.35));
#2012=DIRECTION('',(-0.,-0.,-1.));
#2013=DIRECTION('',(0.,-1.,0.));
#2014=CARTESIAN_POINT('',(0.,-0.609191070866214,3.35));
#2015=AXIS2_PLACEMENT_3D('',#2016,#2017,#2018);
#2016=CARTESIAN_POINT('',(0.,0.,3.35));
#2017=DIRECTION('',(-0.,-0.,-1.));
#2018=DIRECTION('',(0.,-1.,0.));
#2019=CARTESIAN_POINT('',(0.,-0.5,3.05));
#2020=AXIS2_PLACEMENT_3D('',#2021,#2022,#2023);
#2021=CARTESIAN_POINT('',(0.,0.,3.05));
#2022=DIRECTION('',(0.,-0.,-1.));
#2023=DIRECTION('',(0.,-1.,0.));
#2024=CARTESIAN_POINT('',(0.,-0.5,2.85));
#2025=AXIS2_PLACEMENT_3D('',#2026,#2027,#2028);
#2026=CARTESIAN_POINT('',(0.,0.,2.85));
#2027=DIRECTION('',(0.,-0.,-1.));
#2028=DIRECTION('',(0.,-1.,0.));
#2029=CARTESIAN_POINT('',(0.,-0.225,1.65));
#2030=AXIS2_PLACEMENT_3D('',#2031,#2032,#2033);
#2031=CARTESIAN_POINT('',(0.,0.,1.65));
#2032=DIRECTION('',(-0.,-0.,-1.));
#2033=DIRECTION('',(0.,-1.,0.));
#2034=CARTESIAN_POINT('',(0.,-0.5,1.65));
#2035=AXIS2_PLACEMENT_3D('',#2036,#2037,#2038);
#2036=CARTESIAN_POINT('',(0.,0.,1.65));
#2037=DIRECTION('',(-0.,-0.,-1.));
#2038=DIRECTION('',(0.,-1.,0.));
#2039=CARTESIAN_POINT('',(0.,-0.5,0.45));
#2040=AXIS2_PLACEMENT_3D('',#2041,#2042,#2043);
#2041=CARTESIAN_POINT('',(0.,0.,0.45));
#2042=DIRECTION('',(0.,-0.,-1.));
#2043=DIRECTION('',(0.,-1.,0.));
#2044=CARTESIAN_POINT('',(0.,-0.03,0.120902457041437));
#2045=AXIS2_PLACEMENT_3D('',#2046,#2047,#2048);
#2046=CARTESIAN_POINT('',(0.,0.,0.120902457041437));
#2047=DIRECTION('',(-0.,-0.,-1.));
#2048=DIRECTION('',(0.,-1.,0.));
ENDSEC;
END-ISO-10303-21;
