ISO-10303-21;
HEADER;
FILE_DESCRIPTION(('STEP AP214'),
    '1');
FILE_NAME('SL-105-TT-11',
    '2020-03-30T23:14:59',
    ('AF'),
    (''),
    'UNSPECIFIED',
    'UNSPECIFIED',
    '');
/*Based on Samtec Inc. SL, SDL series datasheet*/
FILE_SCHEMA(('AUTOMOTIVE_DESIGN { 1 0 10303 214 3 1 1}'));
ENDSEC;

DATA;
#1=SHAPE_REPRESENTATION('NONE',(#2,#58,#121),#6);
#2=AXIS2_PLACEMENT_3D('',#3,#4,#5);
#3=CARTESIAN_POINT('',(0.,0.,0.));
#4=DIRECTION('',(0.,0.,1.));
#5=DIRECTION('',(1.,0.,0.));
#6=(GEOMETRIC_REPRESENTATION_CONTEXT(3)GLOBAL_UNCERTAINTY_ASSIGNED_CONTEXT((#8))
GLOBAL_UNIT_ASSIGNED_CONTEXT((#7,#9,#10))REPRESENTATION_CONTEXT('NONE','NONE'));
#7=(LENGTH_UNIT()NAMED_UNIT(*)SI_UNIT(.MILLI.,.METRE.));
#8=UNCERTAINTY_MEASURE_WITH_UNIT(LENGTH_MEASURE(1.E-005),#7,'NONE','NONE');
#9=(NAMED_UNIT(*)PLANE_ANGLE_UNIT()SI_UNIT($,.RADIAN.));
#10=(NAMED_UNIT(*)SI_UNIT($,.STERADIAN.)SOLID_ANGLE_UNIT());
#11=SHAPE_DEFINITION_REPRESENTATION(#12,#1);
#12=PRODUCT_DEFINITION_SHAPE('NONE','NONE',#13);
#13=PRODUCT_DEFINITION('','UNSPECIFIED',#14,#22);
#14=PRODUCT_DEFINITION_FORMATION_WITH_SPECIFIED_SOURCE('ANY','UNSPECIFIED',#15,.NOT_KNOWN.);
#15=PRODUCT('','SDL-101-TT-11','Based on Samtec Inc. SL, SDL series datasheet',(
#25));
#16=PERSON('UNSPECIFIED','AF','UNSPECIFIED',('UNSPECIFIED'),('UNSPECIFIED'),
('UNSPECIFIED'));
#17=ORGANIZATION('UNSPECIFIED','UNSPECIFIED','UNSPECIFIED');
#18=PERSON_AND_ORGANIZATION(#16,#17);
#19=PERSON_AND_ORGANIZATION_ROLE('design_owner');
#20=CC_DESIGN_PERSON_AND_ORGANIZATION_ASSIGNMENT(#18,#19,(#15));
#21=PRODUCT_RELATED_PRODUCT_CATEGORY('assembly','',(#15));
#22=DESIGN_CONTEXT('detailed design',#23,'design');
#23=APPLICATION_CONTEXT('configuration controlled 3d designs of mechanical parts and assemblies');
#24=APPLICATION_PROTOCOL_DEFINITION('international standard','automotive_design',
2011,#23);
#25=PRODUCT_CONTEXT('NONE',#23,'mechanical');
#26=CC_DESIGN_DATE_AND_TIME_ASSIGNMENT(#27,#31,(#13));
#27=DATE_AND_TIME(#28,#29);
#28=CALENDAR_DATE(0,1,1);
#29=LOCAL_TIME(0,0,0.,#30);
#30=COORDINATED_UNIVERSAL_TIME_OFFSET(0,0,.AHEAD.);
#31=DATE_TIME_ROLE('creation_date');
#32=CC_DESIGN_APPROVAL(#33,(#13));
#33=APPROVAL(#34,'UNSPECIFIED');
#34=APPROVAL_STATUS('not_yet_approved');
#35=APPROVAL_DATE_TIME(#36,#33);
#36=DATE_AND_TIME(#37,#38);
#37=CALENDAR_DATE(0,1,1);
#38=LOCAL_TIME(0,0,0.,#39);
#39=COORDINATED_UNIVERSAL_TIME_OFFSET(0,0,.AHEAD.);
#40=DERIVED_UNIT((#44,#41));
#41=DERIVED_UNIT_ELEMENT(#42,-1.);
#42=VOLUME_UNIT(#43);
#43=DIMENSIONAL_EXPONENTS(3.,0.,0.,0.,0.,0.,0.);
#44=(DERIVED_UNIT_ELEMENT($,-1.)NAMED_UNIT($)MASS_UNIT()SI_UNIT($,.GRAM.));
#45=MANIFOLD_SOLID_BREP('',#46);
#46=CLOSED_SHELL('',(#147,#156,#165,#174,#183,#192,#201,#210,#219,#228,#237,#246,
#255,#264,#273,#282,#291,#300));
#47=COLOUR_RGB($,0.156862745098039,0.156862745098039,0.156862745098039);
#48=FILL_AREA_STYLE_COLOUR($,#47);
#49=FILL_AREA_STYLE($,(#48));
#50=SURFACE_STYLE_FILL_AREA(#49);
#51=SURFACE_SIDE_STYLE('',(#50));
#52=SURFACE_STYLE_USAGE(.BOTH.,#51);
#53=PRESENTATION_STYLE_ASSIGNMENT((#52));
#54=MECHANICAL_DESIGN_GEOMETRIC_PRESENTATION_REPRESENTATION('NONE',(#55,#96,#155,
#164,#173,#182,#191,#200,#209,#218,#227,#236,#245,#254,#263,#272,#281,#290,#299,
#308,#317,#326,#335,#344,#353,#362,#371,#380,#389,#398,#407,#416,#425,#434,#443,
#452,#461,#470),#6);
#55=STYLED_ITEM('',(#53),#45);
#56=ADVANCED_BREP_SHAPE_REPRESENTATION('NONE',(#45),#6);
#57=SHAPE_REPRESENTATION_RELATIONSHIP('','',#1,#56);
#58=AXIS2_PLACEMENT_3D('',#59,#60,#61);
#59=CARTESIAN_POINT('',(0.,0.,0.));
#60=DIRECTION('',(0.,0.,1.));
#61=DIRECTION('',(1.,0.,0.));
#62=SHAPE_REPRESENTATION('NONE',(#2),#6);
#63=SHAPE_DEFINITION_REPRESENTATION(#64,#62);
#64=PRODUCT_DEFINITION_SHAPE('NONE','NONE',#65);
#65=PRODUCT_DEFINITION('','UNSPECIFIED',#66,#69);
#66=PRODUCT_DEFINITION_FORMATION_WITH_SPECIFIED_SOURCE('ANY','UNSPECIFIED',#67,.NOT_KNOWN.);
#67=PRODUCT('','SxL-1xx-TT-11-pin','Based on Samtec Inc. SL, SDL series datasheet',
(#72));
#68=PRODUCT_RELATED_PRODUCT_CATEGORY('detail','',(#67));
#69=DESIGN_CONTEXT('detailed design',#70,'design');
#70=APPLICATION_CONTEXT('configuration controlled 3d designs of mechanical parts and assemblies');
#71=APPLICATION_PROTOCOL_DEFINITION('international standard','automotive_design',
2011,#70);
#72=PRODUCT_CONTEXT('NONE',#70,'mechanical');
#73=CC_DESIGN_DATE_AND_TIME_ASSIGNMENT(#74,#78,(#65));
#74=DATE_AND_TIME(#75,#76);
#75=CALENDAR_DATE(0,1,1);
#76=LOCAL_TIME(0,0,0.,#77);
#77=COORDINATED_UNIVERSAL_TIME_OFFSET(0,0,.AHEAD.);
#78=DATE_TIME_ROLE('creation_date');
#79=CC_DESIGN_APPROVAL(#80,(#65));
#80=APPROVAL(#81,'UNSPECIFIED');
#81=APPROVAL_STATUS('not_yet_approved');
#82=APPROVAL_DATE_TIME(#83,#80);
#83=DATE_AND_TIME(#84,#85);
#84=CALENDAR_DATE(0,1,1);
#85=LOCAL_TIME(0,0,0.,#86);
#86=COORDINATED_UNIVERSAL_TIME_OFFSET(0,0,.AHEAD.);
#87=MANIFOLD_SOLID_BREP('',#88);
#88=CLOSED_SHELL('',(#309,#318,#327,#336,#345,#354,#363,#372,#381,#390,#399,#408,
#417,#426,#435,#444,#453,#462));
#89=COLOUR_RGB($,0.827450980392157,0.831372549019608,0.835294117647059);
#90=FILL_AREA_STYLE_COLOUR($,#89);
#91=FILL_AREA_STYLE($,(#90));
#92=SURFACE_STYLE_FILL_AREA(#91);
#93=SURFACE_SIDE_STYLE('',(#92));
#94=SURFACE_STYLE_USAGE(.BOTH.,#93);
#95=PRESENTATION_STYLE_ASSIGNMENT((#94));
#96=STYLED_ITEM('',(#95),#87);
#97=ADVANCED_BREP_SHAPE_REPRESENTATION('NONE',(#87),#6);
#98=SHAPE_REPRESENTATION_RELATIONSHIP('','',#62,#97);
#99=ITEM_DEFINED_TRANSFORMATION('','',#2,#58);
#100=(REPRESENTATION_RELATIONSHIP('','',#62,#1)REPRESENTATION_RELATIONSHIP_WITH_TRANSFORMATION(
#99)SHAPE_REPRESENTATION_RELATIONSHIP());
#101=NEXT_ASSEMBLY_USAGE_OCCURRENCE('1','','',#13,#65,$);
#102=CC_DESIGN_SECURITY_CLASSIFICATION(#103,(#101));
#103=SECURITY_CLASSIFICATION('','',#104);
#104=SECURITY_CLASSIFICATION_LEVEL('unclassified');
#105=CC_DESIGN_DATE_AND_TIME_ASSIGNMENT(#106,#110,(#103));
#106=DATE_AND_TIME(#107,#108);
#107=CALENDAR_DATE(0,1,1);
#108=LOCAL_TIME(0,0,0.,#109);
#109=COORDINATED_UNIVERSAL_TIME_OFFSET(0,0,.AHEAD.);
#110=DATE_TIME_ROLE('classification_date');
#111=CC_DESIGN_APPROVAL(#112,(#103));
#112=APPROVAL(#113,'UNSPECIFIED');
#113=APPROVAL_STATUS('not_yet_approved');
#114=APPROVAL_DATE_TIME(#115,#112);
#115=DATE_AND_TIME(#116,#117);
#116=CALENDAR_DATE(0,1,1);
#117=LOCAL_TIME(0,0,0.,#118);
#118=COORDINATED_UNIVERSAL_TIME_OFFSET(0,0,.AHEAD.);
#119=PRODUCT_DEFINITION_SHAPE('NONE','NONE',#101);
#120=CONTEXT_DEPENDENT_SHAPE_REPRESENTATION(#100,#119);
#121=AXIS2_PLACEMENT_3D('',#122,#123,#124);
#122=CARTESIAN_POINT('',(1.55530143491714E-016,2.54,0.));
#123=DIRECTION('',(0.,0.,1.));
#124=DIRECTION('',(1.,0.,0.));
#125=ITEM_DEFINED_TRANSFORMATION('','',#2,#121);
#126=(REPRESENTATION_RELATIONSHIP('','',#62,#1)REPRESENTATION_RELATIONSHIP_WITH_TRANSFORMATION(
#125)SHAPE_REPRESENTATION_RELATIONSHIP());
#127=NEXT_ASSEMBLY_USAGE_OCCURRENCE('2','','',#13,#65,$);
#128=CC_DESIGN_SECURITY_CLASSIFICATION(#129,(#127));
#129=SECURITY_CLASSIFICATION('','',#130);
#130=SECURITY_CLASSIFICATION_LEVEL('unclassified');
#131=CC_DESIGN_DATE_AND_TIME_ASSIGNMENT(#132,#136,(#129));
#132=DATE_AND_TIME(#133,#134);
#133=CALENDAR_DATE(0,1,1);
#134=LOCAL_TIME(0,0,0.,#135);
#135=COORDINATED_UNIVERSAL_TIME_OFFSET(0,0,.AHEAD.);
#136=DATE_TIME_ROLE('classification_date');
#137=CC_DESIGN_APPROVAL(#138,(#129));
#138=APPROVAL(#139,'UNSPECIFIED');
#139=APPROVAL_STATUS('not_yet_approved');
#140=APPROVAL_DATE_TIME(#141,#138);
#141=DATE_AND_TIME(#142,#143);
#142=CALENDAR_DATE(0,1,1);
#143=LOCAL_TIME(0,0,0.,#144);
#144=COORDINATED_UNIVERSAL_TIME_OFFSET(0,0,.AHEAD.);
#145=PRODUCT_DEFINITION_SHAPE('NONE','NONE',#127);
#146=CONTEXT_DEPENDENT_SHAPE_REPRESENTATION(#126,#145);
#147=ADVANCED_FACE('',(#471,#473,#475),#477,.T.);
#148=COLOUR_RGB($,0.156862745098039,0.156862745098039,0.156862745098039);
#149=FILL_AREA_STYLE_COLOUR($,#148);
#150=FILL_AREA_STYLE($,(#149));
#151=SURFACE_STYLE_FILL_AREA(#150);
#152=SURFACE_SIDE_STYLE('',(#151));
#153=SURFACE_STYLE_USAGE(.BOTH.,#152);
#154=PRESENTATION_STYLE_ASSIGNMENT((#153));
#155=STYLED_ITEM('',(#154),#147);
#156=ADVANCED_FACE('',(#482,#484,#486),#488,.F.);
#157=COLOUR_RGB($,0.156862745098039,0.156862745098039,0.156862745098039);
#158=FILL_AREA_STYLE_COLOUR($,#157);
#159=FILL_AREA_STYLE($,(#158));
#160=SURFACE_STYLE_FILL_AREA(#159);
#161=SURFACE_SIDE_STYLE('',(#160));
#162=SURFACE_STYLE_USAGE(.BOTH.,#161);
#163=PRESENTATION_STYLE_ASSIGNMENT((#162));
#164=STYLED_ITEM('',(#163),#156);
#165=ADVANCED_FACE('',(#493,#495),#497,.F.);
#166=COLOUR_RGB($,0.156862745098039,0.156862745098039,0.156862745098039);
#167=FILL_AREA_STYLE_COLOUR($,#166);
#168=FILL_AREA_STYLE($,(#167));
#169=SURFACE_STYLE_FILL_AREA(#168);
#170=SURFACE_SIDE_STYLE('',(#169));
#171=SURFACE_STYLE_USAGE(.BOTH.,#170);
#172=PRESENTATION_STYLE_ASSIGNMENT((#171));
#173=STYLED_ITEM('',(#172),#165);
#174=ADVANCED_FACE('',(#502),#504,.T.);
#175=COLOUR_RGB($,0.156862745098039,0.156862745098039,0.156862745098039);
#176=FILL_AREA_STYLE_COLOUR($,#175);
#177=FILL_AREA_STYLE($,(#176));
#178=SURFACE_STYLE_FILL_AREA(#177);
#179=SURFACE_SIDE_STYLE('',(#178));
#180=SURFACE_STYLE_USAGE(.BOTH.,#179);
#181=PRESENTATION_STYLE_ASSIGNMENT((#180));
#182=STYLED_ITEM('',(#181),#174);
#183=ADVANCED_FACE('',(#509),#511,.T.);
#184=COLOUR_RGB($,0.156862745098039,0.156862745098039,0.156862745098039);
#185=FILL_AREA_STYLE_COLOUR($,#184);
#186=FILL_AREA_STYLE($,(#185));
#187=SURFACE_STYLE_FILL_AREA(#186);
#188=SURFACE_SIDE_STYLE('',(#187));
#189=SURFACE_STYLE_USAGE(.BOTH.,#188);
#190=PRESENTATION_STYLE_ASSIGNMENT((#189));
#191=STYLED_ITEM('',(#190),#183);
#192=ADVANCED_FACE('',(#516),#518,.T.);
#193=COLOUR_RGB($,0.156862745098039,0.156862745098039,0.156862745098039);
#194=FILL_AREA_STYLE_COLOUR($,#193);
#195=FILL_AREA_STYLE($,(#194));
#196=SURFACE_STYLE_FILL_AREA(#195);
#197=SURFACE_SIDE_STYLE('',(#196));
#198=SURFACE_STYLE_USAGE(.BOTH.,#197);
#199=PRESENTATION_STYLE_ASSIGNMENT((#198));
#200=STYLED_ITEM('',(#199),#192);
#201=ADVANCED_FACE('',(#523),#525,.T.);
#202=COLOUR_RGB($,0.156862745098039,0.156862745098039,0.156862745098039);
#203=FILL_AREA_STYLE_COLOUR($,#202);
#204=FILL_AREA_STYLE($,(#203));
#205=SURFACE_STYLE_FILL_AREA(#204);
#206=SURFACE_SIDE_STYLE('',(#205));
#207=SURFACE_STYLE_USAGE(.BOTH.,#206);
#208=PRESENTATION_STYLE_ASSIGNMENT((#207));
#209=STYLED_ITEM('',(#208),#201);
#210=ADVANCED_FACE('',(#530),#532,.T.);
#211=COLOUR_RGB($,0.156862745098039,0.156862745098039,0.156862745098039);
#212=FILL_AREA_STYLE_COLOUR($,#211);
#213=FILL_AREA_STYLE($,(#212));
#214=SURFACE_STYLE_FILL_AREA(#213);
#215=SURFACE_SIDE_STYLE('',(#214));
#216=SURFACE_STYLE_USAGE(.BOTH.,#215);
#217=PRESENTATION_STYLE_ASSIGNMENT((#216));
#218=STYLED_ITEM('',(#217),#210);
#219=ADVANCED_FACE('',(#537),#539,.T.);
#220=COLOUR_RGB($,0.156862745098039,0.156862745098039,0.156862745098039);
#221=FILL_AREA_STYLE_COLOUR($,#220);
#222=FILL_AREA_STYLE($,(#221));
#223=SURFACE_STYLE_FILL_AREA(#222);
#224=SURFACE_SIDE_STYLE('',(#223));
#225=SURFACE_STYLE_USAGE(.BOTH.,#224);
#226=PRESENTATION_STYLE_ASSIGNMENT((#225));
#227=STYLED_ITEM('',(#226),#219);
#228=ADVANCED_FACE('',(#544),#546,.T.);
#229=COLOUR_RGB($,0.156862745098039,0.156862745098039,0.156862745098039);
#230=FILL_AREA_STYLE_COLOUR($,#229);
#231=FILL_AREA_STYLE($,(#230));
#232=SURFACE_STYLE_FILL_AREA(#231);
#233=SURFACE_SIDE_STYLE('',(#232));
#234=SURFACE_STYLE_USAGE(.BOTH.,#233);
#235=PRESENTATION_STYLE_ASSIGNMENT((#234));
#236=STYLED_ITEM('',(#235),#228);
#237=ADVANCED_FACE('',(#551),#553,.T.);
#238=COLOUR_RGB($,0.156862745098039,0.156862745098039,0.156862745098039);
#239=FILL_AREA_STYLE_COLOUR($,#238);
#240=FILL_AREA_STYLE($,(#239));
#241=SURFACE_STYLE_FILL_AREA(#240);
#242=SURFACE_SIDE_STYLE('',(#241));
#243=SURFACE_STYLE_USAGE(.BOTH.,#242);
#244=PRESENTATION_STYLE_ASSIGNMENT((#243));
#245=STYLED_ITEM('',(#244),#237);
#246=ADVANCED_FACE('',(#558),#560,.T.);
#247=COLOUR_RGB($,0.156862745098039,0.156862745098039,0.156862745098039);
#248=FILL_AREA_STYLE_COLOUR($,#247);
#249=FILL_AREA_STYLE($,(#248));
#250=SURFACE_STYLE_FILL_AREA(#249);
#251=SURFACE_SIDE_STYLE('',(#250));
#252=SURFACE_STYLE_USAGE(.BOTH.,#251);
#253=PRESENTATION_STYLE_ASSIGNMENT((#252));
#254=STYLED_ITEM('',(#253),#246);
#255=ADVANCED_FACE('',(#565),#567,.T.);
#256=COLOUR_RGB($,0.156862745098039,0.156862745098039,0.156862745098039);
#257=FILL_AREA_STYLE_COLOUR($,#256);
#258=FILL_AREA_STYLE($,(#257));
#259=SURFACE_STYLE_FILL_AREA(#258);
#260=SURFACE_SIDE_STYLE('',(#259));
#261=SURFACE_STYLE_USAGE(.BOTH.,#260);
#262=PRESENTATION_STYLE_ASSIGNMENT((#261));
#263=STYLED_ITEM('',(#262),#255);
#264=ADVANCED_FACE('',(#572),#574,.T.);
#265=COLOUR_RGB($,0.156862745098039,0.156862745098039,0.156862745098039);
#266=FILL_AREA_STYLE_COLOUR($,#265);
#267=FILL_AREA_STYLE($,(#266));
#268=SURFACE_STYLE_FILL_AREA(#267);
#269=SURFACE_SIDE_STYLE('',(#268));
#270=SURFACE_STYLE_USAGE(.BOTH.,#269);
#271=PRESENTATION_STYLE_ASSIGNMENT((#270));
#272=STYLED_ITEM('',(#271),#264);
#273=ADVANCED_FACE('',(#579),#581,.T.);
#274=COLOUR_RGB($,0.156862745098039,0.156862745098039,0.156862745098039);
#275=FILL_AREA_STYLE_COLOUR($,#274);
#276=FILL_AREA_STYLE($,(#275));
#277=SURFACE_STYLE_FILL_AREA(#276);
#278=SURFACE_SIDE_STYLE('',(#277));
#279=SURFACE_STYLE_USAGE(.BOTH.,#278);
#280=PRESENTATION_STYLE_ASSIGNMENT((#279));
#281=STYLED_ITEM('',(#280),#273);
#282=ADVANCED_FACE('',(#586),#588,.T.);
#283=COLOUR_RGB($,0.156862745098039,0.156862745098039,0.156862745098039);
#284=FILL_AREA_STYLE_COLOUR($,#283);
#285=FILL_AREA_STYLE($,(#284));
#286=SURFACE_STYLE_FILL_AREA(#285);
#287=SURFACE_SIDE_STYLE('',(#286));
#288=SURFACE_STYLE_USAGE(.BOTH.,#287);
#289=PRESENTATION_STYLE_ASSIGNMENT((#288));
#290=STYLED_ITEM('',(#289),#282);
#291=ADVANCED_FACE('',(#593),#595,.T.);
#292=COLOUR_RGB($,0.156862745098039,0.156862745098039,0.156862745098039);
#293=FILL_AREA_STYLE_COLOUR($,#292);
#294=FILL_AREA_STYLE($,(#293));
#295=SURFACE_STYLE_FILL_AREA(#294);
#296=SURFACE_SIDE_STYLE('',(#295));
#297=SURFACE_STYLE_USAGE(.BOTH.,#296);
#298=PRESENTATION_STYLE_ASSIGNMENT((#297));
#299=STYLED_ITEM('',(#298),#291);
#300=ADVANCED_FACE('',(#600,#602),#604,.F.);
#301=COLOUR_RGB($,0.156862745098039,0.156862745098039,0.156862745098039);
#302=FILL_AREA_STYLE_COLOUR($,#301);
#303=FILL_AREA_STYLE($,(#302));
#304=SURFACE_STYLE_FILL_AREA(#303);
#305=SURFACE_SIDE_STYLE('',(#304));
#306=SURFACE_STYLE_USAGE(.BOTH.,#305);
#307=PRESENTATION_STYLE_ASSIGNMENT((#306));
#308=STYLED_ITEM('',(#307),#300);
#309=ADVANCED_FACE('',(#609),#611,.T.);
#310=COLOUR_RGB($,0.827450980392157,0.831372549019608,0.835294117647059);
#311=FILL_AREA_STYLE_COLOUR($,#310);
#312=FILL_AREA_STYLE($,(#311));
#313=SURFACE_STYLE_FILL_AREA(#312);
#314=SURFACE_SIDE_STYLE('',(#313));
#315=SURFACE_STYLE_USAGE(.BOTH.,#314);
#316=PRESENTATION_STYLE_ASSIGNMENT((#315));
#317=STYLED_ITEM('',(#316),#309);
#318=ADVANCED_FACE('',(#616,#618),#620,.T.);
#319=COLOUR_RGB($,0.827450980392157,0.831372549019608,0.835294117647059);
#320=FILL_AREA_STYLE_COLOUR($,#319);
#321=FILL_AREA_STYLE($,(#320));
#322=SURFACE_STYLE_FILL_AREA(#321);
#323=SURFACE_SIDE_STYLE('',(#322));
#324=SURFACE_STYLE_USAGE(.BOTH.,#323);
#325=PRESENTATION_STYLE_ASSIGNMENT((#324));
#326=STYLED_ITEM('',(#325),#318);
#327=ADVANCED_FACE('',(#625,#627),#629,.T.);
#328=COLOUR_RGB($,0.827450980392157,0.831372549019608,0.835294117647059);
#329=FILL_AREA_STYLE_COLOUR($,#328);
#330=FILL_AREA_STYLE($,(#329));
#331=SURFACE_STYLE_FILL_AREA(#330);
#332=SURFACE_SIDE_STYLE('',(#331));
#333=SURFACE_STYLE_USAGE(.BOTH.,#332);
#334=PRESENTATION_STYLE_ASSIGNMENT((#333));
#335=STYLED_ITEM('',(#334),#327);
#336=ADVANCED_FACE('',(#634,#636),#638,.T.);
#337=COLOUR_RGB($,0.827450980392157,0.831372549019608,0.835294117647059);
#338=FILL_AREA_STYLE_COLOUR($,#337);
#339=FILL_AREA_STYLE($,(#338));
#340=SURFACE_STYLE_FILL_AREA(#339);
#341=SURFACE_SIDE_STYLE('',(#340));
#342=SURFACE_STYLE_USAGE(.BOTH.,#341);
#343=PRESENTATION_STYLE_ASSIGNMENT((#342));
#344=STYLED_ITEM('',(#343),#336);
#345=ADVANCED_FACE('',(#643,#645),#647,.T.);
#346=COLOUR_RGB($,0.827450980392157,0.831372549019608,0.835294117647059);
#347=FILL_AREA_STYLE_COLOUR($,#346);
#348=FILL_AREA_STYLE($,(#347));
#349=SURFACE_STYLE_FILL_AREA(#348);
#350=SURFACE_SIDE_STYLE('',(#349));
#351=SURFACE_STYLE_USAGE(.BOTH.,#350);
#352=PRESENTATION_STYLE_ASSIGNMENT((#351));
#353=STYLED_ITEM('',(#352),#345);
#354=ADVANCED_FACE('',(#652,#654),#656,.T.);
#355=COLOUR_RGB($,0.827450980392157,0.831372549019608,0.835294117647059);
#356=FILL_AREA_STYLE_COLOUR($,#355);
#357=FILL_AREA_STYLE($,(#356));
#358=SURFACE_STYLE_FILL_AREA(#357);
#359=SURFACE_SIDE_STYLE('',(#358));
#360=SURFACE_STYLE_USAGE(.BOTH.,#359);
#361=PRESENTATION_STYLE_ASSIGNMENT((#360));
#362=STYLED_ITEM('',(#361),#354);
#363=ADVANCED_FACE('',(#661,#663),#665,.T.);
#364=COLOUR_RGB($,0.827450980392157,0.831372549019608,0.835294117647059);
#365=FILL_AREA_STYLE_COLOUR($,#364);
#366=FILL_AREA_STYLE($,(#365));
#367=SURFACE_STYLE_FILL_AREA(#366);
#368=SURFACE_SIDE_STYLE('',(#367));
#369=SURFACE_STYLE_USAGE(.BOTH.,#368);
#370=PRESENTATION_STYLE_ASSIGNMENT((#369));
#371=STYLED_ITEM('',(#370),#363);
#372=ADVANCED_FACE('',(#670,#672),#674,.T.);
#373=COLOUR_RGB($,0.827450980392157,0.831372549019608,0.835294117647059);
#374=FILL_AREA_STYLE_COLOUR($,#373);
#375=FILL_AREA_STYLE($,(#374));
#376=SURFACE_STYLE_FILL_AREA(#375);
#377=SURFACE_SIDE_STYLE('',(#376));
#378=SURFACE_STYLE_USAGE(.BOTH.,#377);
#379=PRESENTATION_STYLE_ASSIGNMENT((#378));
#380=STYLED_ITEM('',(#379),#372);
#381=ADVANCED_FACE('',(#679,#681),#683,.T.);
#382=COLOUR_RGB($,0.827450980392157,0.831372549019608,0.835294117647059);
#383=FILL_AREA_STYLE_COLOUR($,#382);
#384=FILL_AREA_STYLE($,(#383));
#385=SURFACE_STYLE_FILL_AREA(#384);
#386=SURFACE_SIDE_STYLE('',(#385));
#387=SURFACE_STYLE_USAGE(.BOTH.,#386);
#388=PRESENTATION_STYLE_ASSIGNMENT((#387));
#389=STYLED_ITEM('',(#388),#381);
#390=ADVANCED_FACE('',(#688,#690),#692,.T.);
#391=COLOUR_RGB($,0.827450980392157,0.831372549019608,0.835294117647059);
#392=FILL_AREA_STYLE_COLOUR($,#391);
#393=FILL_AREA_STYLE($,(#392));
#394=SURFACE_STYLE_FILL_AREA(#393);
#395=SURFACE_SIDE_STYLE('',(#394));
#396=SURFACE_STYLE_USAGE(.BOTH.,#395);
#397=PRESENTATION_STYLE_ASSIGNMENT((#396));
#398=STYLED_ITEM('',(#397),#390);
#399=ADVANCED_FACE('',(#697,#699),#701,.T.);
#400=COLOUR_RGB($,0.827450980392157,0.831372549019608,0.835294117647059);
#401=FILL_AREA_STYLE_COLOUR($,#400);
#402=FILL_AREA_STYLE($,(#401));
#403=SURFACE_STYLE_FILL_AREA(#402);
#404=SURFACE_SIDE_STYLE('',(#403));
#405=SURFACE_STYLE_USAGE(.BOTH.,#404);
#406=PRESENTATION_STYLE_ASSIGNMENT((#405));
#407=STYLED_ITEM('',(#406),#399);
#408=ADVANCED_FACE('',(#706,#708),#710,.F.);
#409=COLOUR_RGB($,0.827450980392157,0.831372549019608,0.835294117647059);
#410=FILL_AREA_STYLE_COLOUR($,#409);
#411=FILL_AREA_STYLE($,(#410));
#412=SURFACE_STYLE_FILL_AREA(#411);
#413=SURFACE_SIDE_STYLE('',(#412));
#414=SURFACE_STYLE_USAGE(.BOTH.,#413);
#415=PRESENTATION_STYLE_ASSIGNMENT((#414));
#416=STYLED_ITEM('',(#415),#408);
#417=ADVANCED_FACE('',(#715,#717),#719,.F.);
#418=COLOUR_RGB($,0.827450980392157,0.831372549019608,0.835294117647059);
#419=FILL_AREA_STYLE_COLOUR($,#418);
#420=FILL_AREA_STYLE($,(#419));
#421=SURFACE_STYLE_FILL_AREA(#420);
#422=SURFACE_SIDE_STYLE('',(#421));
#423=SURFACE_STYLE_USAGE(.BOTH.,#422);
#424=PRESENTATION_STYLE_ASSIGNMENT((#423));
#425=STYLED_ITEM('',(#424),#417);
#426=ADVANCED_FACE('',(#724,#726),#728,.F.);
#427=COLOUR_RGB($,0.827450980392157,0.831372549019608,0.835294117647059);
#428=FILL_AREA_STYLE_COLOUR($,#427);
#429=FILL_AREA_STYLE($,(#428));
#430=SURFACE_STYLE_FILL_AREA(#429);
#431=SURFACE_SIDE_STYLE('',(#430));
#432=SURFACE_STYLE_USAGE(.BOTH.,#431);
#433=PRESENTATION_STYLE_ASSIGNMENT((#432));
#434=STYLED_ITEM('',(#433),#426);
#435=ADVANCED_FACE('',(#733,#735),#737,.T.);
#436=COLOUR_RGB($,0.827450980392157,0.831372549019608,0.835294117647059);
#437=FILL_AREA_STYLE_COLOUR($,#436);
#438=FILL_AREA_STYLE($,(#437));
#439=SURFACE_STYLE_FILL_AREA(#438);
#440=SURFACE_SIDE_STYLE('',(#439));
#441=SURFACE_STYLE_USAGE(.BOTH.,#440);
#442=PRESENTATION_STYLE_ASSIGNMENT((#441));
#443=STYLED_ITEM('',(#442),#435);
#444=ADVANCED_FACE('',(#742,#744),#746,.F.);
#445=COLOUR_RGB($,0.827450980392157,0.831372549019608,0.835294117647059);
#446=FILL_AREA_STYLE_COLOUR($,#445);
#447=FILL_AREA_STYLE($,(#446));
#448=SURFACE_STYLE_FILL_AREA(#447);
#449=SURFACE_SIDE_STYLE('',(#448));
#450=SURFACE_STYLE_USAGE(.BOTH.,#449);
#451=PRESENTATION_STYLE_ASSIGNMENT((#450));
#452=STYLED_ITEM('',(#451),#444);
#453=ADVANCED_FACE('',(#751,#753),#755,.F.);
#454=COLOUR_RGB($,0.827450980392157,0.831372549019608,0.835294117647059);
#455=FILL_AREA_STYLE_COLOUR($,#454);
#456=FILL_AREA_STYLE($,(#455));
#457=SURFACE_STYLE_FILL_AREA(#456);
#458=SURFACE_SIDE_STYLE('',(#457));
#459=SURFACE_STYLE_USAGE(.BOTH.,#458);
#460=PRESENTATION_STYLE_ASSIGNMENT((#459));
#461=STYLED_ITEM('',(#460),#453);
#462=ADVANCED_FACE('',(#760),#762,.T.);
#463=COLOUR_RGB($,0.827450980392157,0.831372549019608,0.835294117647059);
#464=FILL_AREA_STYLE_COLOUR($,#463);
#465=FILL_AREA_STYLE($,(#464));
#466=SURFACE_STYLE_FILL_AREA(#465);
#467=SURFACE_SIDE_STYLE('',(#466));
#468=SURFACE_STYLE_USAGE(.BOTH.,#467);
#469=PRESENTATION_STYLE_ASSIGNMENT((#468));
#470=STYLED_ITEM('',(#469),#462);
#471=FACE_BOUND('',#472,.T.);
#472=EDGE_LOOP('',(#767,#768,#769,#770,#771,#772,#773,#774,#775,#776,#777,#778,#779,
#780));
#473=FACE_BOUND('',#474,.T.);
#474=EDGE_LOOP('',(#781));
#475=FACE_BOUND('',#476,.T.);
#476=EDGE_LOOP('',(#782));
#477=PLANE('',#478);
#478=AXIS2_PLACEMENT_3D('',#479,#480,#481);
#479=CARTESIAN_POINT('',(0.,0.,2.84));
#480=DIRECTION('',(0.,0.,1.));
#481=DIRECTION('',(1.,0.,0.));
#482=FACE_BOUND('',#483,.T.);
#483=EDGE_LOOP('',(#783,#784,#785,#786,#787,#788,#789,#790,#791,#792,#793,#794,#795,
#796));
#484=FACE_BOUND('',#485,.T.);
#485=EDGE_LOOP('',(#797));
#486=FACE_BOUND('',#487,.T.);
#487=EDGE_LOOP('',(#798));
#488=PLANE('',#489);
#489=AXIS2_PLACEMENT_3D('',#490,#491,#492);
#490=CARTESIAN_POINT('',(0.,0.,1.57));
#491=DIRECTION('',(0.,0.,1.));
#492=DIRECTION('',(1.,0.,0.));
#493=FACE_OUTER_BOUND('',#494,.T.);
#494=EDGE_LOOP('',(#799));
#495=FACE_OUTER_BOUND('',#496,.T.);
#496=EDGE_LOOP('',(#800));
#497=CYLINDRICAL_SURFACE('',#498,0.66);
#498=AXIS2_PLACEMENT_3D('',#499,#500,#501);
#499=CARTESIAN_POINT('',(1.55530143491714E-016,2.54,0.));
#500=DIRECTION('',(0.,0.,1.));
#501=DIRECTION('',(1.,0.,0.));
#502=FACE_BOUND('',#503,.T.);
#503=EDGE_LOOP('',(#801,#802,#803,#804));
#504=PLANE('',#505);
#505=AXIS2_PLACEMENT_3D('',#506,#507,#508);
#506=CARTESIAN_POINT('',(1.2451077025535,-1.27,1.57));
#507=DIRECTION('',(0.906307787036646,-0.422618261740708,0.));
#508=DIRECTION('',(0.422618261740708,0.906307787036646,0.));
#509=FACE_BOUND('',#510,.T.);
#510=EDGE_LOOP('',(#805,#806,#807,#808));
#511=PLANE('',#512);
#512=AXIS2_PLACEMENT_3D('',#513,#514,#515);
#513=CARTESIAN_POINT('',(1.385,-0.969999999999997,1.57));
#514=DIRECTION('',(1.,-3.66259142144383E-015,0.));
#515=DIRECTION('',(3.66259142144383E-015,1.,0.));
#516=FACE_BOUND('',#517,.T.);
#517=EDGE_LOOP('',(#809,#810,#811,#812));
#518=PLANE('',#519);
#519=AXIS2_PLACEMENT_3D('',#520,#521,#522);
#520=CARTESIAN_POINT('',(1.38500000000001,0.969999999999994,1.57));
#521=DIRECTION('',(0.906307787036643,0.422618261740713,-0.));
#522=DIRECTION('',(-0.422618261740714,0.906307787036644,0.));
#523=FACE_BOUND('',#524,.T.);
#524=EDGE_LOOP('',(#813,#814,#815,#816));
#525=PLANE('',#526);
#526=AXIS2_PLACEMENT_3D('',#527,#528,#529);
#527=CARTESIAN_POINT('',(1.2451077025535,1.27,1.57));
#528=DIRECTION('',(0.906307787036646,-0.422618261740708,0.));
#529=DIRECTION('',(0.422618261740708,0.906307787036646,0.));
#530=FACE_BOUND('',#531,.T.);
#531=EDGE_LOOP('',(#817,#818,#819,#820));
#532=PLANE('',#533);
#533=AXIS2_PLACEMENT_3D('',#534,#535,#536);
#534=CARTESIAN_POINT('',(1.385,1.57,1.57));
#535=DIRECTION('',(1.,-3.66259142144383E-015,0.));
#536=DIRECTION('',(3.66259142144383E-015,1.,0.));
#537=FACE_BOUND('',#538,.T.);
#538=EDGE_LOOP('',(#821,#822,#823,#824));
#539=PLANE('',#540);
#540=AXIS2_PLACEMENT_3D('',#541,#542,#543);
#541=CARTESIAN_POINT('',(1.38500000000001,3.50999999999999,1.57));
#542=DIRECTION('',(0.906307787036643,0.422618261740713,-0.));
#543=DIRECTION('',(-0.422618261740714,0.906307787036644,0.));
#544=FACE_BOUND('',#545,.T.);
#545=EDGE_LOOP('',(#825,#826,#827,#828));
#546=PLANE('',#547);
#547=AXIS2_PLACEMENT_3D('',#548,#549,#550);
#548=CARTESIAN_POINT('',(1.2451077025535,3.81,1.57));
#549=DIRECTION('',(0.,1.,-0.));
#550=DIRECTION('',(-1.,0.,0.));
#551=FACE_BOUND('',#552,.T.);
#552=EDGE_LOOP('',(#829,#830,#831,#832));
#553=PLANE('',#554);
#554=AXIS2_PLACEMENT_3D('',#555,#556,#557);
#555=CARTESIAN_POINT('',(-1.2451077025535,3.81,1.57));
#556=DIRECTION('',(-0.90630778703665,0.422618261740699,0.));
#557=DIRECTION('',(-0.4226182617407,-0.90630778703665,0.));
#558=FACE_BOUND('',#559,.T.);
#559=EDGE_LOOP('',(#833,#834,#835,#836));
#560=PLANE('',#561);
#561=AXIS2_PLACEMENT_3D('',#562,#563,#564);
#562=CARTESIAN_POINT('',(-1.385,3.51,1.57));
#563=DIRECTION('',(-1.,2.28911963840238E-016,0.));
#564=DIRECTION('',(-2.28911963840238E-016,-1.,0.));
#565=FACE_BOUND('',#566,.T.);
#566=EDGE_LOOP('',(#837,#838,#839,#840));
#567=PLANE('',#568);
#568=AXIS2_PLACEMENT_3D('',#569,#570,#571);
#569=CARTESIAN_POINT('',(-1.385,1.57,1.57));
#570=DIRECTION('',(-0.90630778703665,-0.422618261740699,0.));
#571=DIRECTION('',(0.422618261740699,-0.90630778703665,0.));
#572=FACE_BOUND('',#573,.T.);
#573=EDGE_LOOP('',(#841,#842,#843,#844));
#574=PLANE('',#575);
#575=AXIS2_PLACEMENT_3D('',#576,#577,#578);
#576=CARTESIAN_POINT('',(-1.2451077025535,1.27,1.57));
#577=DIRECTION('',(-0.90630778703665,0.422618261740699,0.));
#578=DIRECTION('',(-0.4226182617407,-0.90630778703665,0.));
#579=FACE_BOUND('',#580,.T.);
#580=EDGE_LOOP('',(#845,#846,#847,#848));
#581=PLANE('',#582);
#582=AXIS2_PLACEMENT_3D('',#583,#584,#585);
#583=CARTESIAN_POINT('',(-1.385,0.970000000000001,1.57));
#584=DIRECTION('',(-1.,2.28911963840238E-016,0.));
#585=DIRECTION('',(-2.28911963840238E-016,-1.,0.));
#586=FACE_BOUND('',#587,.T.);
#587=EDGE_LOOP('',(#849,#850,#851,#852));
#588=PLANE('',#589);
#589=AXIS2_PLACEMENT_3D('',#590,#591,#592);
#590=CARTESIAN_POINT('',(-1.385,-0.97,1.57));
#591=DIRECTION('',(-0.90630778703665,-0.422618261740699,0.));
#592=DIRECTION('',(0.422618261740699,-0.90630778703665,0.));
#593=FACE_BOUND('',#594,.T.);
#594=EDGE_LOOP('',(#853,#854,#855,#856));
#595=PLANE('',#596);
#596=AXIS2_PLACEMENT_3D('',#597,#598,#599);
#597=CARTESIAN_POINT('',(-1.2451077025535,-1.27,1.57));
#598=DIRECTION('',(0.,-1.,0.));
#599=DIRECTION('',(1.,0.,0.));
#600=FACE_OUTER_BOUND('',#601,.T.);
#601=EDGE_LOOP('',(#857));
#602=FACE_OUTER_BOUND('',#603,.T.);
#603=EDGE_LOOP('',(#858));
#604=CYLINDRICAL_SURFACE('',#605,0.66);
#605=AXIS2_PLACEMENT_3D('',#606,#607,#608);
#606=CARTESIAN_POINT('',(0.,0.,0.));
#607=DIRECTION('',(0.,0.,1.));
#608=DIRECTION('',(1.,0.,0.));
#609=FACE_BOUND('',#610,.T.);
#610=EDGE_LOOP('',(#859));
#611=PLANE('',#612);
#612=AXIS2_PLACEMENT_3D('',#613,#614,#615);
#613=CARTESIAN_POINT('',(0.,0.,-2.75));
#614=DIRECTION('',(-0.,-0.,-1.));
#615=DIRECTION('',(0.,-1.,0.));
#616=FACE_OUTER_BOUND('',#617,.T.);
#617=EDGE_LOOP('',(#860));
#618=FACE_OUTER_BOUND('',#619,.T.);
#619=EDGE_LOOP('',(#861));
#620=CONICAL_SURFACE('',#621,0.19125,0.785398163397449);
#621=AXIS2_PLACEMENT_3D('',#622,#623,#624);
#622=CARTESIAN_POINT('',(0.,0.,-2.68625));
#623=DIRECTION('',(0.,0.,1.));
#624=DIRECTION('',(-0.,1.,-0.));
#625=FACE_OUTER_BOUND('',#626,.T.);
#626=EDGE_LOOP('',(#862));
#627=FACE_OUTER_BOUND('',#628,.T.);
#628=EDGE_LOOP('',(#863));
#629=CYLINDRICAL_SURFACE('',#630,0.255);
#630=AXIS2_PLACEMENT_3D('',#631,#632,#633);
#631=CARTESIAN_POINT('',(0.,0.,0.));
#632=DIRECTION('',(-0.,-0.,-1.));
#633=DIRECTION('',(0.,-1.,0.));
#634=FACE_OUTER_BOUND('',#635,.T.);
#635=EDGE_LOOP('',(#864));
#636=FACE_OUTER_BOUND('',#637,.T.);
#637=EDGE_LOOP('',(#865));
#638=CONICAL_SURFACE('',#639,0.4575,0.959931087707183);
#639=AXIS2_PLACEMENT_3D('',#640,#641,#642);
#640=CARTESIAN_POINT('',(0.,0.,0.141792026755963));
#641=DIRECTION('',(0.,0.,1.));
#642=DIRECTION('',(-0.,1.,-0.));
#643=FACE_OUTER_BOUND('',#644,.T.);
#644=EDGE_LOOP('',(#866));
#645=FACE_OUTER_BOUND('',#646,.T.);
#646=EDGE_LOOP('',(#867));
#647=CYLINDRICAL_SURFACE('',#648,0.66);
#648=AXIS2_PLACEMENT_3D('',#649,#650,#651);
#649=CARTESIAN_POINT('',(0.,0.,1.79287838708181));
#650=DIRECTION('',(-0.,-0.,-1.));
#651=DIRECTION('',(0.,-1.,0.));
#652=FACE_OUTER_BOUND('',#653,.T.);
#653=EDGE_LOOP('',(#868));
#654=FACE_OUTER_BOUND('',#655,.T.);
#655=EDGE_LOOP('',(#869));
#656=CONICAL_SURFACE('',#657,0.735,0.349065850398867);
#657=AXIS2_PLACEMENT_3D('',#658,#659,#660);
#658=CARTESIAN_POINT('',(0.,0.,1.9989391935409));
#659=DIRECTION('',(0.,0.,1.));
#660=DIRECTION('',(-0.,1.,-0.));
#661=FACE_BOUND('',#662,.T.);
#662=EDGE_LOOP('',(#870));
#663=FACE_BOUND('',#664,.T.);
#664=EDGE_LOOP('',(#871));
#665=PLANE('',#666);
#666=AXIS2_PLACEMENT_3D('',#667,#668,#669);
#667=CARTESIAN_POINT('',(0.,0.,2.205));
#668=DIRECTION('',(0.,0.,1.));
#669=DIRECTION('',(0.,-1.,0.));
#670=FACE_OUTER_BOUND('',#671,.T.);
#671=EDGE_LOOP('',(#872));
#672=FACE_OUTER_BOUND('',#673,.T.);
#673=EDGE_LOOP('',(#873));
#674=CYLINDRICAL_SURFACE('',#675,0.66);
#675=AXIS2_PLACEMENT_3D('',#676,#677,#678);
#676=CARTESIAN_POINT('',(0.,0.,2.84));
#677=DIRECTION('',(-0.,-0.,-1.));
#678=DIRECTION('',(0.,-1.,0.));
#679=FACE_BOUND('',#680,.T.);
#680=EDGE_LOOP('',(#874));
#681=FACE_BOUND('',#682,.T.);
#682=EDGE_LOOP('',(#875));
#683=PLANE('',#684);
#684=AXIS2_PLACEMENT_3D('',#685,#686,#687);
#685=CARTESIAN_POINT('',(0.,0.,2.84));
#686=DIRECTION('',(-0.,-0.,-1.));
#687=DIRECTION('',(0.,-1.,0.));
#688=FACE_OUTER_BOUND('',#689,.T.);
#689=EDGE_LOOP('',(#876));
#690=FACE_OUTER_BOUND('',#691,.T.);
#691=EDGE_LOOP('',(#877));
#692=CYLINDRICAL_SURFACE('',#693,0.915);
#693=AXIS2_PLACEMENT_3D('',#694,#695,#696);
#694=CARTESIAN_POINT('',(0.,0.,3.35));
#695=DIRECTION('',(-0.,-0.,-1.));
#696=DIRECTION('',(0.,-1.,0.));
#697=FACE_BOUND('',#698,.T.);
#698=EDGE_LOOP('',(#878));
#699=FACE_BOUND('',#700,.T.);
#700=EDGE_LOOP('',(#879));
#701=PLANE('',#702);
#702=AXIS2_PLACEMENT_3D('',#703,#704,#705);
#703=CARTESIAN_POINT('',(0.,0.,3.35));
#704=DIRECTION('',(0.,0.,1.));
#705=DIRECTION('',(0.,-1.,0.));
#706=FACE_OUTER_BOUND('',#707,.T.);
#707=EDGE_LOOP('',(#880));
#708=FACE_OUTER_BOUND('',#709,.T.);
#709=EDGE_LOOP('',(#881));
#710=CONICAL_SURFACE('',#711,0.554595535433107,0.349065852124744);
#711=AXIS2_PLACEMENT_3D('',#712,#713,#714);
#712=CARTESIAN_POINT('',(0.,0.,3.2));
#713=DIRECTION('',(0.,0.,1.));
#714=DIRECTION('',(-0.,1.,-0.));
#715=FACE_OUTER_BOUND('',#716,.T.);
#716=EDGE_LOOP('',(#882));
#717=FACE_OUTER_BOUND('',#718,.T.);
#718=EDGE_LOOP('',(#883));
#719=CYLINDRICAL_SURFACE('',#720,0.5);
#720=AXIS2_PLACEMENT_3D('',#721,#722,#723);
#721=CARTESIAN_POINT('',(0.,0.,2.85));
#722=DIRECTION('',(-0.,-0.,-1.));
#723=DIRECTION('',(0.,-1.,0.));
#724=FACE_OUTER_BOUND('',#725,.T.);
#725=EDGE_LOOP('',(#884));
#726=FACE_OUTER_BOUND('',#727,.T.);
#727=EDGE_LOOP('',(#885));
#728=CONICAL_SURFACE('',#729,0.3625,0.225276779214055);
#729=AXIS2_PLACEMENT_3D('',#730,#731,#732);
#730=CARTESIAN_POINT('',(0.,0.,2.25));
#731=DIRECTION('',(0.,0.,1.));
#732=DIRECTION('',(-0.,1.,-0.));
#733=FACE_BOUND('',#734,.T.);
#734=EDGE_LOOP('',(#886));
#735=FACE_BOUND('',#736,.T.);
#736=EDGE_LOOP('',(#887));
#737=PLANE('',#738);
#738=AXIS2_PLACEMENT_3D('',#739,#740,#741);
#739=CARTESIAN_POINT('',(0.,0.,1.65));
#740=DIRECTION('',(-0.,-0.,-1.));
#741=DIRECTION('',(0.,-1.,0.));
#742=FACE_OUTER_BOUND('',#743,.T.);
#743=EDGE_LOOP('',(#888));
#744=FACE_OUTER_BOUND('',#745,.T.);
#745=EDGE_LOOP('',(#889));
#746=CYLINDRICAL_SURFACE('',#747,0.5);
#747=AXIS2_PLACEMENT_3D('',#748,#749,#750);
#748=CARTESIAN_POINT('',(0.,0.,0.45));
#749=DIRECTION('',(-0.,-0.,-1.));
#750=DIRECTION('',(0.,-1.,0.));
#751=FACE_OUTER_BOUND('',#752,.T.);
#752=EDGE_LOOP('',(#890));
#753=FACE_OUTER_BOUND('',#754,.T.);
#754=EDGE_LOOP('',(#891));
#755=CONICAL_SURFACE('',#756,0.265,0.959931088596881);
#756=AXIS2_PLACEMENT_3D('',#757,#758,#759);
#757=CARTESIAN_POINT('',(0.,0.,0.285451228520718));
#758=DIRECTION('',(0.,0.,1.));
#759=DIRECTION('',(-0.,1.,-0.));
#760=FACE_BOUND('',#761,.T.);
#761=EDGE_LOOP('',(#892));
#762=PLANE('',#763);
#763=AXIS2_PLACEMENT_3D('',#764,#765,#766);
#764=CARTESIAN_POINT('',(0.,0.,0.120902457041437));
#765=DIRECTION('',(0.,0.,1.));
#766=DIRECTION('',(0.,-1.,0.));
#767=ORIENTED_EDGE('',*,*,#893,.T.);
#768=ORIENTED_EDGE('',*,*,#894,.T.);
#769=ORIENTED_EDGE('',*,*,#895,.T.);
#770=ORIENTED_EDGE('',*,*,#896,.T.);
#771=ORIENTED_EDGE('',*,*,#897,.T.);
#772=ORIENTED_EDGE('',*,*,#898,.T.);
#773=ORIENTED_EDGE('',*,*,#899,.T.);
#774=ORIENTED_EDGE('',*,*,#900,.T.);
#775=ORIENTED_EDGE('',*,*,#901,.T.);
#776=ORIENTED_EDGE('',*,*,#902,.T.);
#777=ORIENTED_EDGE('',*,*,#903,.T.);
#778=ORIENTED_EDGE('',*,*,#904,.T.);
#779=ORIENTED_EDGE('',*,*,#905,.T.);
#780=ORIENTED_EDGE('',*,*,#906,.T.);
#781=ORIENTED_EDGE('',*,*,#907,.T.);
#782=ORIENTED_EDGE('',*,*,#908,.T.);
#783=ORIENTED_EDGE('',*,*,#909,.F.);
#784=ORIENTED_EDGE('',*,*,#910,.F.);
#785=ORIENTED_EDGE('',*,*,#911,.F.);
#786=ORIENTED_EDGE('',*,*,#912,.F.);
#787=ORIENTED_EDGE('',*,*,#913,.F.);
#788=ORIENTED_EDGE('',*,*,#914,.F.);
#789=ORIENTED_EDGE('',*,*,#915,.F.);
#790=ORIENTED_EDGE('',*,*,#916,.F.);
#791=ORIENTED_EDGE('',*,*,#917,.F.);
#792=ORIENTED_EDGE('',*,*,#918,.F.);
#793=ORIENTED_EDGE('',*,*,#919,.F.);
#794=ORIENTED_EDGE('',*,*,#920,.F.);
#795=ORIENTED_EDGE('',*,*,#921,.F.);
#796=ORIENTED_EDGE('',*,*,#922,.F.);
#797=ORIENTED_EDGE('',*,*,#923,.T.);
#798=ORIENTED_EDGE('',*,*,#924,.T.);
#799=ORIENTED_EDGE('',*,*,#907,.F.);
#800=ORIENTED_EDGE('',*,*,#923,.F.);
#801=ORIENTED_EDGE('',*,*,#922,.T.);
#802=ORIENTED_EDGE('',*,*,#925,.T.);
#803=ORIENTED_EDGE('',*,*,#893,.F.);
#804=ORIENTED_EDGE('',*,*,#926,.F.);
#805=ORIENTED_EDGE('',*,*,#921,.T.);
#806=ORIENTED_EDGE('',*,*,#927,.T.);
#807=ORIENTED_EDGE('',*,*,#894,.F.);
#808=ORIENTED_EDGE('',*,*,#925,.F.);
#809=ORIENTED_EDGE('',*,*,#928,.F.);
#810=ORIENTED_EDGE('',*,*,#895,.F.);
#811=ORIENTED_EDGE('',*,*,#927,.F.);
#812=ORIENTED_EDGE('',*,*,#920,.T.);
#813=ORIENTED_EDGE('',*,*,#928,.T.);
#814=ORIENTED_EDGE('',*,*,#919,.T.);
#815=ORIENTED_EDGE('',*,*,#929,.T.);
#816=ORIENTED_EDGE('',*,*,#896,.F.);
#817=ORIENTED_EDGE('',*,*,#918,.T.);
#818=ORIENTED_EDGE('',*,*,#930,.T.);
#819=ORIENTED_EDGE('',*,*,#897,.F.);
#820=ORIENTED_EDGE('',*,*,#929,.F.);
#821=ORIENTED_EDGE('',*,*,#917,.T.);
#822=ORIENTED_EDGE('',*,*,#931,.T.);
#823=ORIENTED_EDGE('',*,*,#898,.F.);
#824=ORIENTED_EDGE('',*,*,#930,.F.);
#825=ORIENTED_EDGE('',*,*,#916,.T.);
#826=ORIENTED_EDGE('',*,*,#932,.T.);
#827=ORIENTED_EDGE('',*,*,#899,.F.);
#828=ORIENTED_EDGE('',*,*,#931,.F.);
#829=ORIENTED_EDGE('',*,*,#915,.T.);
#830=ORIENTED_EDGE('',*,*,#933,.T.);
#831=ORIENTED_EDGE('',*,*,#900,.F.);
#832=ORIENTED_EDGE('',*,*,#932,.F.);
#833=ORIENTED_EDGE('',*,*,#914,.T.);
#834=ORIENTED_EDGE('',*,*,#934,.T.);
#835=ORIENTED_EDGE('',*,*,#901,.F.);
#836=ORIENTED_EDGE('',*,*,#933,.F.);
#837=ORIENTED_EDGE('',*,*,#935,.T.);
#838=ORIENTED_EDGE('',*,*,#902,.F.);
#839=ORIENTED_EDGE('',*,*,#934,.F.);
#840=ORIENTED_EDGE('',*,*,#913,.T.);
#841=ORIENTED_EDGE('',*,*,#935,.F.);
#842=ORIENTED_EDGE('',*,*,#912,.T.);
#843=ORIENTED_EDGE('',*,*,#936,.T.);
#844=ORIENTED_EDGE('',*,*,#903,.F.);
#845=ORIENTED_EDGE('',*,*,#911,.T.);
#846=ORIENTED_EDGE('',*,*,#937,.T.);
#847=ORIENTED_EDGE('',*,*,#904,.F.);
#848=ORIENTED_EDGE('',*,*,#936,.F.);
#849=ORIENTED_EDGE('',*,*,#910,.T.);
#850=ORIENTED_EDGE('',*,*,#938,.T.);
#851=ORIENTED_EDGE('',*,*,#905,.F.);
#852=ORIENTED_EDGE('',*,*,#937,.F.);
#853=ORIENTED_EDGE('',*,*,#909,.T.);
#854=ORIENTED_EDGE('',*,*,#926,.T.);
#855=ORIENTED_EDGE('',*,*,#906,.F.);
#856=ORIENTED_EDGE('',*,*,#938,.F.);
#857=ORIENTED_EDGE('',*,*,#908,.F.);
#858=ORIENTED_EDGE('',*,*,#924,.F.);
#859=ORIENTED_EDGE('',*,*,#939,.T.);
#860=ORIENTED_EDGE('',*,*,#939,.F.);
#861=ORIENTED_EDGE('',*,*,#940,.T.);
#862=ORIENTED_EDGE('',*,*,#941,.T.);
#863=ORIENTED_EDGE('',*,*,#940,.F.);
#864=ORIENTED_EDGE('',*,*,#941,.F.);
#865=ORIENTED_EDGE('',*,*,#942,.T.);
#866=ORIENTED_EDGE('',*,*,#943,.T.);
#867=ORIENTED_EDGE('',*,*,#942,.F.);
#868=ORIENTED_EDGE('',*,*,#943,.F.);
#869=ORIENTED_EDGE('',*,*,#944,.T.);
#870=ORIENTED_EDGE('',*,*,#944,.F.);
#871=ORIENTED_EDGE('',*,*,#945,.T.);
#872=ORIENTED_EDGE('',*,*,#946,.T.);
#873=ORIENTED_EDGE('',*,*,#945,.F.);
#874=ORIENTED_EDGE('',*,*,#947,.T.);
#875=ORIENTED_EDGE('',*,*,#946,.F.);
#876=ORIENTED_EDGE('',*,*,#948,.T.);
#877=ORIENTED_EDGE('',*,*,#947,.F.);
#878=ORIENTED_EDGE('',*,*,#948,.F.);
#879=ORIENTED_EDGE('',*,*,#949,.T.);
#880=ORIENTED_EDGE('',*,*,#950,.T.);
#881=ORIENTED_EDGE('',*,*,#949,.F.);
#882=ORIENTED_EDGE('',*,*,#950,.F.);
#883=ORIENTED_EDGE('',*,*,#951,.T.);
#884=ORIENTED_EDGE('',*,*,#952,.T.);
#885=ORIENTED_EDGE('',*,*,#951,.F.);
#886=ORIENTED_EDGE('',*,*,#953,.T.);
#887=ORIENTED_EDGE('',*,*,#952,.F.);
#888=ORIENTED_EDGE('',*,*,#953,.F.);
#889=ORIENTED_EDGE('',*,*,#954,.T.);
#890=ORIENTED_EDGE('',*,*,#955,.T.);
#891=ORIENTED_EDGE('',*,*,#954,.F.);
#892=ORIENTED_EDGE('',*,*,#955,.F.);
#893=EDGE_CURVE('',#956,#957,#958,.T.);
#894=EDGE_CURVE('',#957,#959,#960,.T.);
#895=EDGE_CURVE('',#959,#961,#962,.T.);
#896=EDGE_CURVE('',#961,#963,#964,.T.);
#897=EDGE_CURVE('',#963,#965,#966,.T.);
#898=EDGE_CURVE('',#965,#967,#968,.T.);
#899=EDGE_CURVE('',#967,#969,#970,.T.);
#900=EDGE_CURVE('',#969,#971,#972,.T.);
#901=EDGE_CURVE('',#971,#973,#974,.T.);
#902=EDGE_CURVE('',#973,#975,#976,.T.);
#903=EDGE_CURVE('',#975,#977,#978,.T.);
#904=EDGE_CURVE('',#977,#979,#980,.T.);
#905=EDGE_CURVE('',#979,#981,#982,.T.);
#906=EDGE_CURVE('',#981,#956,#983,.T.);
#907=EDGE_CURVE('',#984,#984,#985,.F.);
#908=EDGE_CURVE('',#986,#986,#987,.F.);
#909=EDGE_CURVE('',#988,#989,#990,.T.);
#910=EDGE_CURVE('',#991,#988,#992,.T.);
#911=EDGE_CURVE('',#993,#991,#994,.T.);
#912=EDGE_CURVE('',#995,#993,#996,.T.);
#913=EDGE_CURVE('',#997,#995,#998,.T.);
#914=EDGE_CURVE('',#999,#997,#1000,.T.);
#915=EDGE_CURVE('',#1001,#999,#1002,.T.);
#916=EDGE_CURVE('',#1003,#1001,#1004,.T.);
#917=EDGE_CURVE('',#1005,#1003,#1006,.T.);
#918=EDGE_CURVE('',#1007,#1005,#1008,.T.);
#919=EDGE_CURVE('',#1009,#1007,#1010,.T.);
#920=EDGE_CURVE('',#1011,#1009,#1012,.T.);
#921=EDGE_CURVE('',#1013,#1011,#1014,.T.);
#922=EDGE_CURVE('',#989,#1013,#1015,.T.);
#923=EDGE_CURVE('',#1016,#1016,#1017,.T.);
#924=EDGE_CURVE('',#1018,#1018,#1019,.T.);
#925=EDGE_CURVE('',#1013,#957,#1020,.T.);
#926=EDGE_CURVE('',#989,#956,#1021,.T.);
#927=EDGE_CURVE('',#1011,#959,#1022,.T.);
#928=EDGE_CURVE('',#961,#1009,#1023,.F.);
#929=EDGE_CURVE('',#1007,#963,#1024,.T.);
#930=EDGE_CURVE('',#1005,#965,#1025,.T.);
#931=EDGE_CURVE('',#1003,#967,#1026,.T.);
#932=EDGE_CURVE('',#1001,#969,#1027,.T.);
#933=EDGE_CURVE('',#999,#971,#1028,.T.);
#934=EDGE_CURVE('',#997,#973,#1029,.T.);
#935=EDGE_CURVE('',#995,#975,#1030,.T.);
#936=EDGE_CURVE('',#993,#977,#1031,.T.);
#937=EDGE_CURVE('',#991,#979,#1032,.T.);
#938=EDGE_CURVE('',#988,#981,#1033,.T.);
#939=EDGE_CURVE('',#1034,#1034,#1035,.T.);
#940=EDGE_CURVE('',#1036,#1036,#1037,.T.);
#941=EDGE_CURVE('',#1038,#1038,#1039,.T.);
#942=EDGE_CURVE('',#1040,#1040,#1041,.T.);
#943=EDGE_CURVE('',#1042,#1042,#1043,.T.);
#944=EDGE_CURVE('',#1044,#1044,#1045,.T.);
#945=EDGE_CURVE('',#1046,#1046,#1047,.T.);
#946=EDGE_CURVE('',#1048,#1048,#1049,.T.);
#947=EDGE_CURVE('',#1050,#1050,#1051,.T.);
#948=EDGE_CURVE('',#1052,#1052,#1053,.T.);
#949=EDGE_CURVE('',#1054,#1054,#1055,.T.);
#950=EDGE_CURVE('',#1056,#1056,#1057,.T.);
#951=EDGE_CURVE('',#1058,#1058,#1059,.T.);
#952=EDGE_CURVE('',#1060,#1060,#1061,.T.);
#953=EDGE_CURVE('',#1062,#1062,#1063,.T.);
#954=EDGE_CURVE('',#1064,#1064,#1065,.T.);
#955=EDGE_CURVE('',#1066,#1066,#1067,.T.);
#956=VERTEX_POINT('',#1068);
#957=VERTEX_POINT('',#1069);
#958=LINE('',#1070,#1071);
#959=VERTEX_POINT('',#1073);
#960=LINE('',#1074,#1075);
#961=VERTEX_POINT('',#1077);
#962=LINE('',#1078,#1079);
#963=VERTEX_POINT('',#1081);
#964=LINE('',#1082,#1083);
#965=VERTEX_POINT('',#1085);
#966=LINE('',#1086,#1087);
#967=VERTEX_POINT('',#1089);
#968=LINE('',#1090,#1091);
#969=VERTEX_POINT('',#1093);
#970=LINE('',#1094,#1095);
#971=VERTEX_POINT('',#1097);
#972=LINE('',#1098,#1099);
#973=VERTEX_POINT('',#1101);
#974=LINE('',#1102,#1103);
#975=VERTEX_POINT('',#1105);
#976=LINE('',#1106,#1107);
#977=VERTEX_POINT('',#1109);
#978=LINE('',#1110,#1111);
#979=VERTEX_POINT('',#1113);
#980=LINE('',#1114,#1115);
#981=VERTEX_POINT('',#1117);
#982=LINE('',#1118,#1119);
#983=LINE('',#1121,#1122);
#984=VERTEX_POINT('',#1124);
#985=CIRCLE('',#1125,0.66);
#986=VERTEX_POINT('',#1129);
#987=CIRCLE('',#1130,0.66);
#988=VERTEX_POINT('',#1134);
#989=VERTEX_POINT('',#1135);
#990=LINE('',#1136,#1137);
#991=VERTEX_POINT('',#1139);
#992=LINE('',#1140,#1141);
#993=VERTEX_POINT('',#1143);
#994=LINE('',#1144,#1145);
#995=VERTEX_POINT('',#1147);
#996=LINE('',#1148,#1149);
#997=VERTEX_POINT('',#1151);
#998=LINE('',#1152,#1153);
#999=VERTEX_POINT('',#1155);
#1000=LINE('',#1156,#1157);
#1001=VERTEX_POINT('',#1159);
#1002=LINE('',#1160,#1161);
#1003=VERTEX_POINT('',#1163);
#1004=LINE('',#1164,#1165);
#1005=VERTEX_POINT('',#1167);
#1006=LINE('',#1168,#1169);
#1007=VERTEX_POINT('',#1171);
#1008=LINE('',#1172,#1173);
#1009=VERTEX_POINT('',#1175);
#1010=LINE('',#1176,#1177);
#1011=VERTEX_POINT('',#1179);
#1012=LINE('',#1180,#1181);
#1013=VERTEX_POINT('',#1183);
#1014=LINE('',#1184,#1185);
#1015=LINE('',#1187,#1188);
#1016=VERTEX_POINT('',#1190);
#1017=CIRCLE('',#1191,0.66);
#1018=VERTEX_POINT('',#1195);
#1019=CIRCLE('',#1196,0.66);
#1020=LINE('',#1200,#1201);
#1021=LINE('',#1203,#1204);
#1022=LINE('',#1206,#1207);
#1023=LINE('',#1209,#1210);
#1024=LINE('',#1212,#1213);
#1025=LINE('',#1215,#1216);
#1026=LINE('',#1218,#1219);
#1027=LINE('',#1221,#1222);
#1028=LINE('',#1224,#1225);
#1029=LINE('',#1227,#1228);
#1030=LINE('',#1230,#1231);
#1031=LINE('',#1233,#1234);
#1032=LINE('',#1236,#1237);
#1033=LINE('',#1239,#1240);
#1034=VERTEX_POINT('',#1242);
#1035=CIRCLE('',#1243,0.1275);
#1036=VERTEX_POINT('',#1247);
#1037=CIRCLE('',#1248,0.255);
#1038=VERTEX_POINT('',#1252);
#1039=CIRCLE('',#1253,0.255);
#1040=VERTEX_POINT('',#1257);
#1041=CIRCLE('',#1258,0.66);
#1042=VERTEX_POINT('',#1262);
#1043=CIRCLE('',#1263,0.66);
#1044=VERTEX_POINT('',#1267);
#1045=CIRCLE('',#1268,0.810000000000001);
#1046=VERTEX_POINT('',#1272);
#1047=CIRCLE('',#1273,0.659999999999999);
#1048=VERTEX_POINT('',#1277);
#1049=CIRCLE('',#1278,0.66);
#1050=VERTEX_POINT('',#1282);
#1051=CIRCLE('',#1283,0.915);
#1052=VERTEX_POINT('',#1287);
#1053=CIRCLE('',#1288,0.915);
#1054=VERTEX_POINT('',#1292);
#1055=CIRCLE('',#1293,0.609191070866214);
#1056=VERTEX_POINT('',#1297);
#1057=CIRCLE('',#1298,0.5);
#1058=VERTEX_POINT('',#1302);
#1059=CIRCLE('',#1303,0.5);
#1060=VERTEX_POINT('',#1307);
#1061=CIRCLE('',#1308,0.225);
#1062=VERTEX_POINT('',#1312);
#1063=CIRCLE('',#1313,0.5);
#1064=VERTEX_POINT('',#1317);
#1065=CIRCLE('',#1318,0.5);
#1066=VERTEX_POINT('',#1322);
#1067=CIRCLE('',#1323,0.03);
#1068=CARTESIAN_POINT('',(1.2451077025535,-1.27,2.84));
#1069=CARTESIAN_POINT('',(1.385,-0.969999999999997,2.84));
#1070=CARTESIAN_POINT('',(1.2451077025535,-1.27,2.84));
#1071=VECTOR('',#1072,1.);
#1072=DIRECTION('',(0.422618261740708,0.906307787036646,0.));
#1073=CARTESIAN_POINT('',(1.38500000000001,0.969999999999994,2.84));
#1074=CARTESIAN_POINT('',(1.385,-0.969999999999997,2.84));
#1075=VECTOR('',#1076,1.);
#1076=DIRECTION('',(3.66259142144383E-015,1.,0.));
#1077=CARTESIAN_POINT('',(1.2451077025535,1.27,2.84));
#1078=CARTESIAN_POINT('',(1.38500000000001,0.969999999999994,2.84));
#1079=VECTOR('',#1080,1.);
#1080=DIRECTION('',(-0.422618261740714,0.906307787036644,0.));
#1081=CARTESIAN_POINT('',(1.385,1.57,2.84));
#1082=CARTESIAN_POINT('',(1.2451077025535,1.27,2.84));
#1083=VECTOR('',#1084,1.);
#1084=DIRECTION('',(0.422618261740708,0.906307787036646,0.));
#1085=CARTESIAN_POINT('',(1.38500000000001,3.50999999999999,2.84));
#1086=CARTESIAN_POINT('',(1.385,1.57,2.84));
#1087=VECTOR('',#1088,1.);
#1088=DIRECTION('',(3.66259142144383E-015,1.,0.));
#1089=CARTESIAN_POINT('',(1.2451077025535,3.81,2.84));
#1090=CARTESIAN_POINT('',(1.38500000000001,3.50999999999999,2.84));
#1091=VECTOR('',#1092,1.);
#1092=DIRECTION('',(-0.422618261740713,0.906307787036644,0.));
#1093=CARTESIAN_POINT('',(-1.2451077025535,3.81,2.84));
#1094=CARTESIAN_POINT('',(1.2451077025535,3.81,2.84));
#1095=VECTOR('',#1096,1.);
#1096=DIRECTION('',(-1.,0.,0.));
#1097=CARTESIAN_POINT('',(-1.385,3.51,2.84));
#1098=CARTESIAN_POINT('',(-1.2451077025535,3.81,2.84));
#1099=VECTOR('',#1100,1.);
#1100=DIRECTION('',(-0.4226182617407,-0.90630778703665,0.));
#1101=CARTESIAN_POINT('',(-1.385,1.57,2.84));
#1102=CARTESIAN_POINT('',(-1.385,3.51,2.84));
#1103=VECTOR('',#1104,1.);
#1104=DIRECTION('',(-2.28911963840238E-016,-1.,0.));
#1105=CARTESIAN_POINT('',(-1.2451077025535,1.27,2.84));
#1106=CARTESIAN_POINT('',(-1.385,1.57,2.84));
#1107=VECTOR('',#1108,1.);
#1108=DIRECTION('',(0.422618261740699,-0.90630778703665,0.));
#1109=CARTESIAN_POINT('',(-1.385,0.970000000000001,2.84));
#1110=CARTESIAN_POINT('',(-1.2451077025535,1.27,2.84));
#1111=VECTOR('',#1112,1.);
#1112=DIRECTION('',(-0.4226182617407,-0.90630778703665,0.));
#1113=CARTESIAN_POINT('',(-1.385,-0.97,2.84));
#1114=CARTESIAN_POINT('',(-1.385,0.970000000000001,2.84));
#1115=VECTOR('',#1116,1.);
#1116=DIRECTION('',(-2.28911963840238E-016,-1.,0.));
#1117=CARTESIAN_POINT('',(-1.2451077025535,-1.27,2.84));
#1118=CARTESIAN_POINT('',(-1.385,-0.97,2.84));
#1119=VECTOR('',#1120,1.);
#1120=DIRECTION('',(0.422618261740699,-0.90630778703665,0.));
#1121=CARTESIAN_POINT('',(-1.2451077025535,-1.27,2.84));
#1122=VECTOR('',#1123,1.);
#1123=DIRECTION('',(1.,0.,0.));
#1124=CARTESIAN_POINT('',(0.66,2.54,2.84));
#1125=AXIS2_PLACEMENT_3D('',#1126,#1127,#1128);
#1126=CARTESIAN_POINT('',(1.55530143491714E-016,2.54,2.84));
#1127=DIRECTION('',(0.,0.,1.));
#1128=DIRECTION('',(1.,0.,0.));
#1129=CARTESIAN_POINT('',(0.66,-8.08266887437253E-017,2.84));
#1130=AXIS2_PLACEMENT_3D('',#1131,#1132,#1133);
#1131=CARTESIAN_POINT('',(0.,0.,2.84));
#1132=DIRECTION('',(0.,0.,1.));
#1133=DIRECTION('',(1.,0.,0.));
#1134=CARTESIAN_POINT('',(-1.2451077025535,-1.27,1.57));
#1135=CARTESIAN_POINT('',(1.2451077025535,-1.27,1.57));
#1136=CARTESIAN_POINT('',(-1.2451077025535,-1.27,1.57));
#1137=VECTOR('',#1138,1.);
#1138=DIRECTION('',(1.,0.,0.));
#1139=CARTESIAN_POINT('',(-1.385,-0.97,1.57));
#1140=CARTESIAN_POINT('',(-1.385,-0.97,1.57));
#1141=VECTOR('',#1142,1.);
#1142=DIRECTION('',(0.422618261740699,-0.90630778703665,0.));
#1143=CARTESIAN_POINT('',(-1.385,0.970000000000001,1.57));
#1144=CARTESIAN_POINT('',(-1.385,0.970000000000001,1.57));
#1145=VECTOR('',#1146,1.);
#1146=DIRECTION('',(-2.28911963840238E-016,-1.,0.));
#1147=CARTESIAN_POINT('',(-1.2451077025535,1.27,1.57));
#1148=CARTESIAN_POINT('',(-1.2451077025535,1.27,1.57));
#1149=VECTOR('',#1150,1.);
#1150=DIRECTION('',(-0.4226182617407,-0.90630778703665,0.));
#1151=CARTESIAN_POINT('',(-1.385,1.57,1.57));
#1152=CARTESIAN_POINT('',(-1.385,1.57,1.57));
#1153=VECTOR('',#1154,1.);
#1154=DIRECTION('',(0.422618261740699,-0.90630778703665,0.));
#1155=CARTESIAN_POINT('',(-1.385,3.51,1.57));
#1156=CARTESIAN_POINT('',(-1.385,3.51,1.57));
#1157=VECTOR('',#1158,1.);
#1158=DIRECTION('',(-2.28911963840238E-016,-1.,0.));
#1159=CARTESIAN_POINT('',(-1.2451077025535,3.81,1.57));
#1160=CARTESIAN_POINT('',(-1.2451077025535,3.81,1.57));
#1161=VECTOR('',#1162,1.);
#1162=DIRECTION('',(-0.4226182617407,-0.90630778703665,0.));
#1163=CARTESIAN_POINT('',(1.2451077025535,3.81,1.57));
#1164=CARTESIAN_POINT('',(1.2451077025535,3.81,1.57));
#1165=VECTOR('',#1166,1.);
#1166=DIRECTION('',(-1.,0.,0.));
#1167=CARTESIAN_POINT('',(1.38500000000001,3.50999999999999,1.57));
#1168=CARTESIAN_POINT('',(1.38500000000001,3.50999999999999,1.57));
#1169=VECTOR('',#1170,1.);
#1170=DIRECTION('',(-0.422618261740713,0.906307787036644,0.));
#1171=CARTESIAN_POINT('',(1.385,1.57,1.57));
#1172=CARTESIAN_POINT('',(1.385,1.57,1.57));
#1173=VECTOR('',#1174,1.);
#1174=DIRECTION('',(3.66259142144383E-015,1.,0.));
#1175=CARTESIAN_POINT('',(1.2451077025535,1.27,1.57));
#1176=CARTESIAN_POINT('',(1.2451077025535,1.27,1.57));
#1177=VECTOR('',#1178,1.);
#1178=DIRECTION('',(0.422618261740708,0.906307787036646,0.));
#1179=CARTESIAN_POINT('',(1.38500000000001,0.969999999999994,1.57));
#1180=CARTESIAN_POINT('',(1.38500000000001,0.969999999999994,1.57));
#1181=VECTOR('',#1182,1.);
#1182=DIRECTION('',(-0.422618261740714,0.906307787036644,0.));
#1183=CARTESIAN_POINT('',(1.385,-0.969999999999997,1.57));
#1184=CARTESIAN_POINT('',(1.385,-0.969999999999997,1.57));
#1185=VECTOR('',#1186,1.);
#1186=DIRECTION('',(3.66259142144383E-015,1.,0.));
#1187=CARTESIAN_POINT('',(1.2451077025535,-1.27,1.57));
#1188=VECTOR('',#1189,1.);
#1189=DIRECTION('',(0.422618261740708,0.906307787036646,0.));
#1190=CARTESIAN_POINT('',(0.66,2.54,1.57));
#1191=AXIS2_PLACEMENT_3D('',#1192,#1193,#1194);
#1192=CARTESIAN_POINT('',(1.55530143491714E-016,2.54,1.57));
#1193=DIRECTION('',(0.,0.,1.));
#1194=DIRECTION('',(1.,0.,0.));
#1195=CARTESIAN_POINT('',(0.66,-8.08266887437253E-017,1.57));
#1196=AXIS2_PLACEMENT_3D('',#1197,#1198,#1199);
#1197=CARTESIAN_POINT('',(0.,0.,1.57));
#1198=DIRECTION('',(0.,0.,1.));
#1199=DIRECTION('',(1.,0.,0.));
#1200=CARTESIAN_POINT('',(1.385,-0.969999999999997,1.57));
#1201=VECTOR('',#1202,1.);
#1202=DIRECTION('',(0.,0.,1.));
#1203=CARTESIAN_POINT('',(1.2451077025535,-1.27,1.57));
#1204=VECTOR('',#1205,1.);
#1205=DIRECTION('',(0.,0.,1.));
#1206=CARTESIAN_POINT('',(1.38500000000001,0.969999999999994,1.57));
#1207=VECTOR('',#1208,1.);
#1208=DIRECTION('',(0.,0.,1.));
#1209=CARTESIAN_POINT('',(1.2451077025535,1.27,1.57));
#1210=VECTOR('',#1211,1.);
#1211=DIRECTION('',(0.,0.,1.));
#1212=CARTESIAN_POINT('',(1.385,1.57,1.57));
#1213=VECTOR('',#1214,1.);
#1214=DIRECTION('',(0.,0.,1.));
#1215=CARTESIAN_POINT('',(1.38500000000001,3.50999999999999,1.57));
#1216=VECTOR('',#1217,1.);
#1217=DIRECTION('',(0.,0.,1.));
#1218=CARTESIAN_POINT('',(1.2451077025535,3.81,1.57));
#1219=VECTOR('',#1220,1.);
#1220=DIRECTION('',(0.,0.,1.));
#1221=CARTESIAN_POINT('',(-1.2451077025535,3.81,1.57));
#1222=VECTOR('',#1223,1.);
#1223=DIRECTION('',(0.,0.,1.));
#1224=CARTESIAN_POINT('',(-1.385,3.51,1.57));
#1225=VECTOR('',#1226,1.);
#1226=DIRECTION('',(0.,0.,1.));
#1227=CARTESIAN_POINT('',(-1.385,1.57,1.57));
#1228=VECTOR('',#1229,1.);
#1229=DIRECTION('',(0.,0.,1.));
#1230=CARTESIAN_POINT('',(-1.2451077025535,1.27,1.57));
#1231=VECTOR('',#1232,1.);
#1232=DIRECTION('',(0.,0.,1.));
#1233=CARTESIAN_POINT('',(-1.385,0.970000000000001,1.57));
#1234=VECTOR('',#1235,1.);
#1235=DIRECTION('',(0.,0.,1.));
#1236=CARTESIAN_POINT('',(-1.385,-0.97,1.57));
#1237=VECTOR('',#1238,1.);
#1238=DIRECTION('',(0.,0.,1.));
#1239=CARTESIAN_POINT('',(-1.2451077025535,-1.27,1.57));
#1240=VECTOR('',#1241,1.);
#1241=DIRECTION('',(0.,0.,1.));
#1242=CARTESIAN_POINT('',(0.,-0.1275,-2.75));
#1243=AXIS2_PLACEMENT_3D('',#1244,#1245,#1246);
#1244=CARTESIAN_POINT('',(0.,0.,-2.75));
#1245=DIRECTION('',(-0.,-0.,-1.));
#1246=DIRECTION('',(0.,-1.,0.));
#1247=CARTESIAN_POINT('',(0.,-0.255,-2.6225));
#1248=AXIS2_PLACEMENT_3D('',#1249,#1250,#1251);
#1249=CARTESIAN_POINT('',(0.,0.,-2.6225));
#1250=DIRECTION('',(-0.,-0.,-1.));
#1251=DIRECTION('',(0.,-1.,0.));
#1252=CARTESIAN_POINT('',(0.,-0.255,-1.56142466891288E-017));
#1253=AXIS2_PLACEMENT_3D('',#1254,#1255,#1256);
#1254=CARTESIAN_POINT('',(0.,0.,0.));
#1255=DIRECTION('',(-0.,-0.,-1.));
#1256=DIRECTION('',(0.,-1.,0.));
#1257=CARTESIAN_POINT('',(0.,-0.66,0.283584053511925));
#1258=AXIS2_PLACEMENT_3D('',#1259,#1260,#1261);
#1259=CARTESIAN_POINT('',(0.,0.,0.283584053511925));
#1260=DIRECTION('',(-0.,-0.,-1.));
#1261=DIRECTION('',(0.,-1.,0.));
#1262=CARTESIAN_POINT('',(0.,-0.66,1.79287838708181));
#1263=AXIS2_PLACEMENT_3D('',#1264,#1265,#1266);
#1264=CARTESIAN_POINT('',(0.,0.,1.79287838708181));
#1265=DIRECTION('',(-0.,-0.,-1.));
#1266=DIRECTION('',(0.,-1.,0.));
#1267=CARTESIAN_POINT('',(0.,-0.810000000000001,2.205));
#1268=AXIS2_PLACEMENT_3D('',#1269,#1270,#1271);
#1269=CARTESIAN_POINT('',(0.,0.,2.205));
#1270=DIRECTION('',(-0.,-0.,-1.));
#1271=DIRECTION('',(0.,-1.,0.));
#1272=CARTESIAN_POINT('',(0.,-0.659999999999999,2.205));
#1273=AXIS2_PLACEMENT_3D('',#1274,#1275,#1276);
#1274=CARTESIAN_POINT('',(0.,0.,2.205));
#1275=DIRECTION('',(-0.,-0.,-1.));
#1276=DIRECTION('',(0.,-1.,0.));
#1277=CARTESIAN_POINT('',(0.,-0.66,2.84));
#1278=AXIS2_PLACEMENT_3D('',#1279,#1280,#1281);
#1279=CARTESIAN_POINT('',(0.,0.,2.84));
#1280=DIRECTION('',(-0.,-0.,-1.));
#1281=DIRECTION('',(0.,-1.,0.));
#1282=CARTESIAN_POINT('',(0.,-0.915,2.84));
#1283=AXIS2_PLACEMENT_3D('',#1284,#1285,#1286);
#1284=CARTESIAN_POINT('',(0.,0.,2.84));
#1285=DIRECTION('',(-0.,-0.,-1.));
#1286=DIRECTION('',(0.,-1.,0.));
#1287=CARTESIAN_POINT('',(0.,-0.915,3.35));
#1288=AXIS2_PLACEMENT_3D('',#1289,#1290,#1291);
#1289=CARTESIAN_POINT('',(0.,0.,3.35));
#1290=DIRECTION('',(-0.,-0.,-1.));
#1291=DIRECTION('',(0.,-1.,0.));
#1292=CARTESIAN_POINT('',(0.,-0.609191070866214,3.35));
#1293=AXIS2_PLACEMENT_3D('',#1294,#1295,#1296);
#1294=CARTESIAN_POINT('',(0.,0.,3.35));
#1295=DIRECTION('',(-0.,-0.,-1.));
#1296=DIRECTION('',(0.,-1.,0.));
#1297=CARTESIAN_POINT('',(0.,-0.5,3.05));
#1298=AXIS2_PLACEMENT_3D('',#1299,#1300,#1301);
#1299=CARTESIAN_POINT('',(0.,0.,3.05));
#1300=DIRECTION('',(0.,-0.,-1.));
#1301=DIRECTION('',(0.,-1.,0.));
#1302=CARTESIAN_POINT('',(0.,-0.5,2.85));
#1303=AXIS2_PLACEMENT_3D('',#1304,#1305,#1306);
#1304=CARTESIAN_POINT('',(0.,0.,2.85));
#1305=DIRECTION('',(0.,-0.,-1.));
#1306=DIRECTION('',(0.,-1.,0.));
#1307=CARTESIAN_POINT('',(0.,-0.225,1.65));
#1308=AXIS2_PLACEMENT_3D('',#1309,#1310,#1311);
#1309=CARTESIAN_POINT('',(0.,0.,1.65));
#1310=DIRECTION('',(-0.,-0.,-1.));
#1311=DIRECTION('',(0.,-1.,0.));
#1312=CARTESIAN_POINT('',(0.,-0.5,1.65));
#1313=AXIS2_PLACEMENT_3D('',#1314,#1315,#1316);
#1314=CARTESIAN_POINT('',(0.,0.,1.65));
#1315=DIRECTION('',(-0.,-0.,-1.));
#1316=DIRECTION('',(0.,-1.,0.));
#1317=CARTESIAN_POINT('',(0.,-0.5,0.45));
#1318=AXIS2_PLACEMENT_3D('',#1319,#1320,#1321);
#1319=CARTESIAN_POINT('',(0.,0.,0.45));
#1320=DIRECTION('',(0.,-0.,-1.));
#1321=DIRECTION('',(0.,-1.,0.));
#1322=CARTESIAN_POINT('',(0.,-0.03,0.120902457041437));
#1323=AXIS2_PLACEMENT_3D('',#1324,#1325,#1326);
#1324=CARTESIAN_POINT('',(0.,0.,0.120902457041437));
#1325=DIRECTION('',(-0.,-0.,-1.));
#1326=DIRECTION('',(0.,-1.,0.));
ENDSEC;
END-ISO-10303-21;
