ISO-10303-21;
HEADER;
FILE_DESCRIPTION(('STEP AP214'),
    '1');
FILE_NAME('SL-105-TT-10',
    '2020-03-30T23:14:12',
    ('AF'),
    (''),
    'UNSPECIFIED',
    'UNSPECIFIED',
    '');
/*Based on Samtec Inc. SL, SDL series datasheet*/
FILE_SCHEMA(('AUTOMOTIVE_DESIGN { 1 0 10303 214 3 1 1}'));
ENDSEC;

DATA;
#1=SHAPE_REPRESENTATION('NONE',(#2,#58,#121,#147,#173),#6);
#2=AXIS2_PLACEMENT_3D('',#3,#4,#5);
#3=CARTESIAN_POINT('',(0.,0.,0.));
#4=DIRECTION('',(0.,0.,1.));
#5=DIRECTION('',(1.,0.,0.));
#6=(GEOMETRIC_REPRESENTATION_CONTEXT(3)GLOBAL_UNCERTAINTY_ASSIGNED_CONTEXT((#8))
GLOBAL_UNIT_ASSIGNED_CONTEXT((#7,#9,#10))REPRESENTATION_CONTEXT('NONE','NONE'));
#7=(LENGTH_UNIT()NAMED_UNIT(*)SI_UNIT(.MILLI.,.METRE.));
#8=UNCERTAINTY_MEASURE_WITH_UNIT(LENGTH_MEASURE(1.E-005),#7,'NONE','NONE');
#9=(NAMED_UNIT(*)PLANE_ANGLE_UNIT()SI_UNIT($,.RADIAN.));
#10=(NAMED_UNIT(*)SI_UNIT($,.STERADIAN.)SOLID_ANGLE_UNIT());
#11=SHAPE_DEFINITION_REPRESENTATION(#12,#1);
#12=PRODUCT_DEFINITION_SHAPE('NONE','NONE',#13);
#13=PRODUCT_DEFINITION('','UNSPECIFIED',#14,#22);
#14=PRODUCT_DEFINITION_FORMATION_WITH_SPECIFIED_SOURCE('ANY','UNSPECIFIED',#15,.NOT_KNOWN.);
#15=PRODUCT('','SL-104-TT-10','Based on Samtec Inc. SL, SDL series datasheet',(#25));
#16=PERSON('UNSPECIFIED','AF','UNSPECIFIED',('UNSPECIFIED'),('UNSPECIFIED'),
('UNSPECIFIED'));
#17=ORGANIZATION('UNSPECIFIED','UNSPECIFIED','UNSPECIFIED');
#18=PERSON_AND_ORGANIZATION(#16,#17);
#19=PERSON_AND_ORGANIZATION_ROLE('design_owner');
#20=CC_DESIGN_PERSON_AND_ORGANIZATION_ASSIGNMENT(#18,#19,(#15));
#21=PRODUCT_RELATED_PRODUCT_CATEGORY('assembly','',(#15));
#22=DESIGN_CONTEXT('detailed design',#23,'design');
#23=APPLICATION_CONTEXT('configuration controlled 3d designs of mechanical parts and assemblies');
#24=APPLICATION_PROTOCOL_DEFINITION('international standard','automotive_design',
2011,#23);
#25=PRODUCT_CONTEXT('NONE',#23,'mechanical');
#26=CC_DESIGN_DATE_AND_TIME_ASSIGNMENT(#27,#31,(#13));
#27=DATE_AND_TIME(#28,#29);
#28=CALENDAR_DATE(0,1,1);
#29=LOCAL_TIME(0,0,0.,#30);
#30=COORDINATED_UNIVERSAL_TIME_OFFSET(0,0,.AHEAD.);
#31=DATE_TIME_ROLE('creation_date');
#32=CC_DESIGN_APPROVAL(#33,(#13));
#33=APPROVAL(#34,'UNSPECIFIED');
#34=APPROVAL_STATUS('not_yet_approved');
#35=APPROVAL_DATE_TIME(#36,#33);
#36=DATE_AND_TIME(#37,#38);
#37=CALENDAR_DATE(0,1,1);
#38=LOCAL_TIME(0,0,0.,#39);
#39=COORDINATED_UNIVERSAL_TIME_OFFSET(0,0,.AHEAD.);
#40=DERIVED_UNIT((#44,#41));
#41=DERIVED_UNIT_ELEMENT(#42,-1.);
#42=VOLUME_UNIT(#43);
#43=DIMENSIONAL_EXPONENTS(3.,0.,0.,0.,0.,0.,0.);
#44=(DERIVED_UNIT_ELEMENT($,-1.)NAMED_UNIT($)MASS_UNIT()SI_UNIT($,.GRAM.));
#45=MANIFOLD_SOLID_BREP('',#46);
#46=CLOSED_SHELL('',(#199,#208,#217,#226,#235,#244,#253,#262,#271,#280,#289,#298,
#307,#316,#325,#334,#343,#352,#361,#370,#379,#388,#397,#406,#415,#424,#433,#442,
#451,#460,#469,#478,#487,#496,#505,#514,#523,#532));
#47=COLOUR_RGB($,0.156862745098039,0.156862745098039,0.156862745098039);
#48=FILL_AREA_STYLE_COLOUR($,#47);
#49=FILL_AREA_STYLE($,(#48));
#50=SURFACE_STYLE_FILL_AREA(#49);
#51=SURFACE_SIDE_STYLE('',(#50));
#52=SURFACE_STYLE_USAGE(.BOTH.,#51);
#53=PRESENTATION_STYLE_ASSIGNMENT((#52));
#54=MECHANICAL_DESIGN_GEOMETRIC_PRESENTATION_REPRESENTATION('NONE',(#55,#96,#207,
#216,#225,#234,#243,#252,#261,#270,#279,#288,#297,#306,#315,#324,#333,#342,#351,
#360,#369,#378,#387,#396,#405,#414,#423,#432,#441,#450,#459,#468,#477,#486,#495,
#504,#513,#522,#531,#540,#549,#558,#567,#576,#585,#594,#603,#612,#621,#630,#639,
#648,#657,#666,#675,#684,#693,#702,#711,#720),#6);
#55=STYLED_ITEM('',(#53),#45);
#56=ADVANCED_BREP_SHAPE_REPRESENTATION('NONE',(#45),#6);
#57=SHAPE_REPRESENTATION_RELATIONSHIP('','',#1,#56);
#58=AXIS2_PLACEMENT_3D('',#59,#60,#61);
#59=CARTESIAN_POINT('',(0.,0.,0.));
#60=DIRECTION('',(0.,0.,1.));
#61=DIRECTION('',(1.,0.,0.));
#62=SHAPE_REPRESENTATION('NONE',(#2),#6);
#63=SHAPE_DEFINITION_REPRESENTATION(#64,#62);
#64=PRODUCT_DEFINITION_SHAPE('NONE','NONE',#65);
#65=PRODUCT_DEFINITION('','UNSPECIFIED',#66,#69);
#66=PRODUCT_DEFINITION_FORMATION_WITH_SPECIFIED_SOURCE('ANY','UNSPECIFIED',#67,.NOT_KNOWN.);
#67=PRODUCT('','SxL-1xx-TT-10-pin','Based on Samtec Inc. SL, SDL series datasheet',
(#72));
#68=PRODUCT_RELATED_PRODUCT_CATEGORY('detail','',(#67));
#69=DESIGN_CONTEXT('detailed design',#70,'design');
#70=APPLICATION_CONTEXT('configuration controlled 3d designs of mechanical parts and assemblies');
#71=APPLICATION_PROTOCOL_DEFINITION('international standard','automotive_design',
2011,#70);
#72=PRODUCT_CONTEXT('NONE',#70,'mechanical');
#73=CC_DESIGN_DATE_AND_TIME_ASSIGNMENT(#74,#78,(#65));
#74=DATE_AND_TIME(#75,#76);
#75=CALENDAR_DATE(0,1,1);
#76=LOCAL_TIME(0,0,0.,#77);
#77=COORDINATED_UNIVERSAL_TIME_OFFSET(0,0,.AHEAD.);
#78=DATE_TIME_ROLE('creation_date');
#79=CC_DESIGN_APPROVAL(#80,(#65));
#80=APPROVAL(#81,'UNSPECIFIED');
#81=APPROVAL_STATUS('not_yet_approved');
#82=APPROVAL_DATE_TIME(#83,#80);
#83=DATE_AND_TIME(#84,#85);
#84=CALENDAR_DATE(0,1,1);
#85=LOCAL_TIME(0,0,0.,#86);
#86=COORDINATED_UNIVERSAL_TIME_OFFSET(0,0,.AHEAD.);
#87=MANIFOLD_SOLID_BREP('',#88);
#88=CLOSED_SHELL('',(#541,#550,#559,#568,#577,#586,#595,#604,#613,#622,#631,#640,
#649,#658,#667,#676,#685,#694,#703,#712));
#89=COLOUR_RGB($,0.827450980392157,0.831372549019608,0.835294117647059);
#90=FILL_AREA_STYLE_COLOUR($,#89);
#91=FILL_AREA_STYLE($,(#90));
#92=SURFACE_STYLE_FILL_AREA(#91);
#93=SURFACE_SIDE_STYLE('',(#92));
#94=SURFACE_STYLE_USAGE(.BOTH.,#93);
#95=PRESENTATION_STYLE_ASSIGNMENT((#94));
#96=STYLED_ITEM('',(#95),#87);
#97=ADVANCED_BREP_SHAPE_REPRESENTATION('NONE',(#87),#6);
#98=SHAPE_REPRESENTATION_RELATIONSHIP('','',#62,#97);
#99=ITEM_DEFINED_TRANSFORMATION('','',#2,#58);
#100=(REPRESENTATION_RELATIONSHIP('','',#62,#1)REPRESENTATION_RELATIONSHIP_WITH_TRANSFORMATION(
#99)SHAPE_REPRESENTATION_RELATIONSHIP());
#101=NEXT_ASSEMBLY_USAGE_OCCURRENCE('1','','',#13,#65,$);
#102=CC_DESIGN_SECURITY_CLASSIFICATION(#103,(#101));
#103=SECURITY_CLASSIFICATION('','',#104);
#104=SECURITY_CLASSIFICATION_LEVEL('unclassified');
#105=CC_DESIGN_DATE_AND_TIME_ASSIGNMENT(#106,#110,(#103));
#106=DATE_AND_TIME(#107,#108);
#107=CALENDAR_DATE(0,1,1);
#108=LOCAL_TIME(0,0,0.,#109);
#109=COORDINATED_UNIVERSAL_TIME_OFFSET(0,0,.AHEAD.);
#110=DATE_TIME_ROLE('classification_date');
#111=CC_DESIGN_APPROVAL(#112,(#103));
#112=APPROVAL(#113,'UNSPECIFIED');
#113=APPROVAL_STATUS('not_yet_approved');
#114=APPROVAL_DATE_TIME(#115,#112);
#115=DATE_AND_TIME(#116,#117);
#116=CALENDAR_DATE(0,1,1);
#117=LOCAL_TIME(0,0,0.,#118);
#118=COORDINATED_UNIVERSAL_TIME_OFFSET(0,0,.AHEAD.);
#119=PRODUCT_DEFINITION_SHAPE('NONE','NONE',#101);
#120=CONTEXT_DEPENDENT_SHAPE_REPRESENTATION(#100,#119);
#121=AXIS2_PLACEMENT_3D('',#122,#123,#124);
#122=CARTESIAN_POINT('',(2.54,0.,0.));
#123=DIRECTION('',(0.,0.,1.));
#124=DIRECTION('',(1.,0.,0.));
#125=ITEM_DEFINED_TRANSFORMATION('','',#2,#121);
#126=(REPRESENTATION_RELATIONSHIP('','',#62,#1)REPRESENTATION_RELATIONSHIP_WITH_TRANSFORMATION(
#125)SHAPE_REPRESENTATION_RELATIONSHIP());
#127=NEXT_ASSEMBLY_USAGE_OCCURRENCE('2','','',#13,#65,$);
#128=CC_DESIGN_SECURITY_CLASSIFICATION(#129,(#127));
#129=SECURITY_CLASSIFICATION('','',#130);
#130=SECURITY_CLASSIFICATION_LEVEL('unclassified');
#131=CC_DESIGN_DATE_AND_TIME_ASSIGNMENT(#132,#136,(#129));
#132=DATE_AND_TIME(#133,#134);
#133=CALENDAR_DATE(0,1,1);
#134=LOCAL_TIME(0,0,0.,#135);
#135=COORDINATED_UNIVERSAL_TIME_OFFSET(0,0,.AHEAD.);
#136=DATE_TIME_ROLE('classification_date');
#137=CC_DESIGN_APPROVAL(#138,(#129));
#138=APPROVAL(#139,'UNSPECIFIED');
#139=APPROVAL_STATUS('not_yet_approved');
#140=APPROVAL_DATE_TIME(#141,#138);
#141=DATE_AND_TIME(#142,#143);
#142=CALENDAR_DATE(0,1,1);
#143=LOCAL_TIME(0,0,0.,#144);
#144=COORDINATED_UNIVERSAL_TIME_OFFSET(0,0,.AHEAD.);
#145=PRODUCT_DEFINITION_SHAPE('NONE','NONE',#127);
#146=CONTEXT_DEPENDENT_SHAPE_REPRESENTATION(#126,#145);
#147=AXIS2_PLACEMENT_3D('',#148,#149,#150);
#148=CARTESIAN_POINT('',(5.08,0.,0.));
#149=DIRECTION('',(0.,0.,1.));
#150=DIRECTION('',(1.,0.,0.));
#151=ITEM_DEFINED_TRANSFORMATION('','',#2,#147);
#152=(REPRESENTATION_RELATIONSHIP('','',#62,#1)REPRESENTATION_RELATIONSHIP_WITH_TRANSFORMATION(
#151)SHAPE_REPRESENTATION_RELATIONSHIP());
#153=NEXT_ASSEMBLY_USAGE_OCCURRENCE('3','','',#13,#65,$);
#154=CC_DESIGN_SECURITY_CLASSIFICATION(#155,(#153));
#155=SECURITY_CLASSIFICATION('','',#156);
#156=SECURITY_CLASSIFICATION_LEVEL('unclassified');
#157=CC_DESIGN_DATE_AND_TIME_ASSIGNMENT(#158,#162,(#155));
#158=DATE_AND_TIME(#159,#160);
#159=CALENDAR_DATE(0,1,1);
#160=LOCAL_TIME(0,0,0.,#161);
#161=COORDINATED_UNIVERSAL_TIME_OFFSET(0,0,.AHEAD.);
#162=DATE_TIME_ROLE('classification_date');
#163=CC_DESIGN_APPROVAL(#164,(#155));
#164=APPROVAL(#165,'UNSPECIFIED');
#165=APPROVAL_STATUS('not_yet_approved');
#166=APPROVAL_DATE_TIME(#167,#164);
#167=DATE_AND_TIME(#168,#169);
#168=CALENDAR_DATE(0,1,1);
#169=LOCAL_TIME(0,0,0.,#170);
#170=COORDINATED_UNIVERSAL_TIME_OFFSET(0,0,.AHEAD.);
#171=PRODUCT_DEFINITION_SHAPE('NONE','NONE',#153);
#172=CONTEXT_DEPENDENT_SHAPE_REPRESENTATION(#152,#171);
#173=AXIS2_PLACEMENT_3D('',#174,#175,#176);
#174=CARTESIAN_POINT('',(7.62,0.,0.));
#175=DIRECTION('',(0.,0.,1.));
#176=DIRECTION('',(1.,0.,0.));
#177=ITEM_DEFINED_TRANSFORMATION('','',#2,#173);
#178=(REPRESENTATION_RELATIONSHIP('','',#62,#1)REPRESENTATION_RELATIONSHIP_WITH_TRANSFORMATION(
#177)SHAPE_REPRESENTATION_RELATIONSHIP());
#179=NEXT_ASSEMBLY_USAGE_OCCURRENCE('4','','',#13,#65,$);
#180=CC_DESIGN_SECURITY_CLASSIFICATION(#181,(#179));
#181=SECURITY_CLASSIFICATION('','',#182);
#182=SECURITY_CLASSIFICATION_LEVEL('unclassified');
#183=CC_DESIGN_DATE_AND_TIME_ASSIGNMENT(#184,#188,(#181));
#184=DATE_AND_TIME(#185,#186);
#185=CALENDAR_DATE(0,1,1);
#186=LOCAL_TIME(0,0,0.,#187);
#187=COORDINATED_UNIVERSAL_TIME_OFFSET(0,0,.AHEAD.);
#188=DATE_TIME_ROLE('classification_date');
#189=CC_DESIGN_APPROVAL(#190,(#181));
#190=APPROVAL(#191,'UNSPECIFIED');
#191=APPROVAL_STATUS('not_yet_approved');
#192=APPROVAL_DATE_TIME(#193,#190);
#193=DATE_AND_TIME(#194,#195);
#194=CALENDAR_DATE(0,1,1);
#195=LOCAL_TIME(0,0,0.,#196);
#196=COORDINATED_UNIVERSAL_TIME_OFFSET(0,0,.AHEAD.);
#197=PRODUCT_DEFINITION_SHAPE('NONE','NONE',#179);
#198=CONTEXT_DEPENDENT_SHAPE_REPRESENTATION(#178,#197);
#199=ADVANCED_FACE('',(#721),#723,.T.);
#200=COLOUR_RGB($,0.156862745098039,0.156862745098039,0.156862745098039);
#201=FILL_AREA_STYLE_COLOUR($,#200);
#202=FILL_AREA_STYLE($,(#201));
#203=SURFACE_STYLE_FILL_AREA(#202);
#204=SURFACE_SIDE_STYLE('',(#203));
#205=SURFACE_STYLE_USAGE(.BOTH.,#204);
#206=PRESENTATION_STYLE_ASSIGNMENT((#205));
#207=STYLED_ITEM('',(#206),#199);
#208=ADVANCED_FACE('',(#728),#730,.T.);
#209=COLOUR_RGB($,0.156862745098039,0.156862745098039,0.156862745098039);
#210=FILL_AREA_STYLE_COLOUR($,#209);
#211=FILL_AREA_STYLE($,(#210));
#212=SURFACE_STYLE_FILL_AREA(#211);
#213=SURFACE_SIDE_STYLE('',(#212));
#214=SURFACE_STYLE_USAGE(.BOTH.,#213);
#215=PRESENTATION_STYLE_ASSIGNMENT((#214));
#216=STYLED_ITEM('',(#215),#208);
#217=ADVANCED_FACE('',(#735),#737,.T.);
#218=COLOUR_RGB($,0.156862745098039,0.156862745098039,0.156862745098039);
#219=FILL_AREA_STYLE_COLOUR($,#218);
#220=FILL_AREA_STYLE($,(#219));
#221=SURFACE_STYLE_FILL_AREA(#220);
#222=SURFACE_SIDE_STYLE('',(#221));
#223=SURFACE_STYLE_USAGE(.BOTH.,#222);
#224=PRESENTATION_STYLE_ASSIGNMENT((#223));
#225=STYLED_ITEM('',(#224),#217);
#226=ADVANCED_FACE('',(#742),#744,.T.);
#227=COLOUR_RGB($,0.156862745098039,0.156862745098039,0.156862745098039);
#228=FILL_AREA_STYLE_COLOUR($,#227);
#229=FILL_AREA_STYLE($,(#228));
#230=SURFACE_STYLE_FILL_AREA(#229);
#231=SURFACE_SIDE_STYLE('',(#230));
#232=SURFACE_STYLE_USAGE(.BOTH.,#231);
#233=PRESENTATION_STYLE_ASSIGNMENT((#232));
#234=STYLED_ITEM('',(#233),#226);
#235=ADVANCED_FACE('',(#749),#751,.T.);
#236=COLOUR_RGB($,0.156862745098039,0.156862745098039,0.156862745098039);
#237=FILL_AREA_STYLE_COLOUR($,#236);
#238=FILL_AREA_STYLE($,(#237));
#239=SURFACE_STYLE_FILL_AREA(#238);
#240=SURFACE_SIDE_STYLE('',(#239));
#241=SURFACE_STYLE_USAGE(.BOTH.,#240);
#242=PRESENTATION_STYLE_ASSIGNMENT((#241));
#243=STYLED_ITEM('',(#242),#235);
#244=ADVANCED_FACE('',(#756),#758,.T.);
#245=COLOUR_RGB($,0.156862745098039,0.156862745098039,0.156862745098039);
#246=FILL_AREA_STYLE_COLOUR($,#245);
#247=FILL_AREA_STYLE($,(#246));
#248=SURFACE_STYLE_FILL_AREA(#247);
#249=SURFACE_SIDE_STYLE('',(#248));
#250=SURFACE_STYLE_USAGE(.BOTH.,#249);
#251=PRESENTATION_STYLE_ASSIGNMENT((#250));
#252=STYLED_ITEM('',(#251),#244);
#253=ADVANCED_FACE('',(#763,#765,#767,#769,#771),#773,.T.);
#254=COLOUR_RGB($,0.156862745098039,0.156862745098039,0.156862745098039);
#255=FILL_AREA_STYLE_COLOUR($,#254);
#256=FILL_AREA_STYLE($,(#255));
#257=SURFACE_STYLE_FILL_AREA(#256);
#258=SURFACE_SIDE_STYLE('',(#257));
#259=SURFACE_STYLE_USAGE(.BOTH.,#258);
#260=PRESENTATION_STYLE_ASSIGNMENT((#259));
#261=STYLED_ITEM('',(#260),#253);
#262=ADVANCED_FACE('',(#778,#780,#782,#784,#786),#788,.F.);
#263=COLOUR_RGB($,0.156862745098039,0.156862745098039,0.156862745098039);
#264=FILL_AREA_STYLE_COLOUR($,#263);
#265=FILL_AREA_STYLE($,(#264));
#266=SURFACE_STYLE_FILL_AREA(#265);
#267=SURFACE_SIDE_STYLE('',(#266));
#268=SURFACE_STYLE_USAGE(.BOTH.,#267);
#269=PRESENTATION_STYLE_ASSIGNMENT((#268));
#270=STYLED_ITEM('',(#269),#262);
#271=ADVANCED_FACE('',(#793),#795,.F.);
#272=COLOUR_RGB($,0.156862745098039,0.156862745098039,0.156862745098039);
#273=FILL_AREA_STYLE_COLOUR($,#272);
#274=FILL_AREA_STYLE($,(#273));
#275=SURFACE_STYLE_FILL_AREA(#274);
#276=SURFACE_SIDE_STYLE('',(#275));
#277=SURFACE_STYLE_USAGE(.BOTH.,#276);
#278=PRESENTATION_STYLE_ASSIGNMENT((#277));
#279=STYLED_ITEM('',(#278),#271);
#280=ADVANCED_FACE('',(#800),#802,.F.);
#281=COLOUR_RGB($,0.156862745098039,0.156862745098039,0.156862745098039);
#282=FILL_AREA_STYLE_COLOUR($,#281);
#283=FILL_AREA_STYLE($,(#282));
#284=SURFACE_STYLE_FILL_AREA(#283);
#285=SURFACE_SIDE_STYLE('',(#284));
#286=SURFACE_STYLE_USAGE(.BOTH.,#285);
#287=PRESENTATION_STYLE_ASSIGNMENT((#286));
#288=STYLED_ITEM('',(#287),#280);
#289=ADVANCED_FACE('',(#807),#809,.F.);
#290=COLOUR_RGB($,0.156862745098039,0.156862745098039,0.156862745098039);
#291=FILL_AREA_STYLE_COLOUR($,#290);
#292=FILL_AREA_STYLE($,(#291));
#293=SURFACE_STYLE_FILL_AREA(#292);
#294=SURFACE_SIDE_STYLE('',(#293));
#295=SURFACE_STYLE_USAGE(.BOTH.,#294);
#296=PRESENTATION_STYLE_ASSIGNMENT((#295));
#297=STYLED_ITEM('',(#296),#289);
#298=ADVANCED_FACE('',(#814),#816,.F.);
#299=COLOUR_RGB($,0.156862745098039,0.156862745098039,0.156862745098039);
#300=FILL_AREA_STYLE_COLOUR($,#299);
#301=FILL_AREA_STYLE($,(#300));
#302=SURFACE_STYLE_FILL_AREA(#301);
#303=SURFACE_SIDE_STYLE('',(#302));
#304=SURFACE_STYLE_USAGE(.BOTH.,#303);
#305=PRESENTATION_STYLE_ASSIGNMENT((#304));
#306=STYLED_ITEM('',(#305),#298);
#307=ADVANCED_FACE('',(#821),#823,.F.);
#308=COLOUR_RGB($,0.156862745098039,0.156862745098039,0.156862745098039);
#309=FILL_AREA_STYLE_COLOUR($,#308);
#310=FILL_AREA_STYLE($,(#309));
#311=SURFACE_STYLE_FILL_AREA(#310);
#312=SURFACE_SIDE_STYLE('',(#311));
#313=SURFACE_STYLE_USAGE(.BOTH.,#312);
#314=PRESENTATION_STYLE_ASSIGNMENT((#313));
#315=STYLED_ITEM('',(#314),#307);
#316=ADVANCED_FACE('',(#828),#830,.F.);
#317=COLOUR_RGB($,0.156862745098039,0.156862745098039,0.156862745098039);
#318=FILL_AREA_STYLE_COLOUR($,#317);
#319=FILL_AREA_STYLE($,(#318));
#320=SURFACE_STYLE_FILL_AREA(#319);
#321=SURFACE_SIDE_STYLE('',(#320));
#322=SURFACE_STYLE_USAGE(.BOTH.,#321);
#323=PRESENTATION_STYLE_ASSIGNMENT((#322));
#324=STYLED_ITEM('',(#323),#316);
#325=ADVANCED_FACE('',(#835),#837,.F.);
#326=COLOUR_RGB($,0.156862745098039,0.156862745098039,0.156862745098039);
#327=FILL_AREA_STYLE_COLOUR($,#326);
#328=FILL_AREA_STYLE($,(#327));
#329=SURFACE_STYLE_FILL_AREA(#328);
#330=SURFACE_SIDE_STYLE('',(#329));
#331=SURFACE_STYLE_USAGE(.BOTH.,#330);
#332=PRESENTATION_STYLE_ASSIGNMENT((#331));
#333=STYLED_ITEM('',(#332),#325);
#334=ADVANCED_FACE('',(#842),#844,.F.);
#335=COLOUR_RGB($,0.156862745098039,0.156862745098039,0.156862745098039);
#336=FILL_AREA_STYLE_COLOUR($,#335);
#337=FILL_AREA_STYLE($,(#336));
#338=SURFACE_STYLE_FILL_AREA(#337);
#339=SURFACE_SIDE_STYLE('',(#338));
#340=SURFACE_STYLE_USAGE(.BOTH.,#339);
#341=PRESENTATION_STYLE_ASSIGNMENT((#340));
#342=STYLED_ITEM('',(#341),#334);
#343=ADVANCED_FACE('',(#849),#851,.F.);
#344=COLOUR_RGB($,0.156862745098039,0.156862745098039,0.156862745098039);
#345=FILL_AREA_STYLE_COLOUR($,#344);
#346=FILL_AREA_STYLE($,(#345));
#347=SURFACE_STYLE_FILL_AREA(#346);
#348=SURFACE_SIDE_STYLE('',(#347));
#349=SURFACE_STYLE_USAGE(.BOTH.,#348);
#350=PRESENTATION_STYLE_ASSIGNMENT((#349));
#351=STYLED_ITEM('',(#350),#343);
#352=ADVANCED_FACE('',(#856),#858,.F.);
#353=COLOUR_RGB($,0.156862745098039,0.156862745098039,0.156862745098039);
#354=FILL_AREA_STYLE_COLOUR($,#353);
#355=FILL_AREA_STYLE($,(#354));
#356=SURFACE_STYLE_FILL_AREA(#355);
#357=SURFACE_SIDE_STYLE('',(#356));
#358=SURFACE_STYLE_USAGE(.BOTH.,#357);
#359=PRESENTATION_STYLE_ASSIGNMENT((#358));
#360=STYLED_ITEM('',(#359),#352);
#361=ADVANCED_FACE('',(#863),#865,.F.);
#362=COLOUR_RGB($,0.156862745098039,0.156862745098039,0.156862745098039);
#363=FILL_AREA_STYLE_COLOUR($,#362);
#364=FILL_AREA_STYLE($,(#363));
#365=SURFACE_STYLE_FILL_AREA(#364);
#366=SURFACE_SIDE_STYLE('',(#365));
#367=SURFACE_STYLE_USAGE(.BOTH.,#366);
#368=PRESENTATION_STYLE_ASSIGNMENT((#367));
#369=STYLED_ITEM('',(#368),#361);
#370=ADVANCED_FACE('',(#870),#872,.F.);
#371=COLOUR_RGB($,0.156862745098039,0.156862745098039,0.156862745098039);
#372=FILL_AREA_STYLE_COLOUR($,#371);
#373=FILL_AREA_STYLE($,(#372));
#374=SURFACE_STYLE_FILL_AREA(#373);
#375=SURFACE_SIDE_STYLE('',(#374));
#376=SURFACE_STYLE_USAGE(.BOTH.,#375);
#377=PRESENTATION_STYLE_ASSIGNMENT((#376));
#378=STYLED_ITEM('',(#377),#370);
#379=ADVANCED_FACE('',(#877),#879,.F.);
#380=COLOUR_RGB($,0.156862745098039,0.156862745098039,0.156862745098039);
#381=FILL_AREA_STYLE_COLOUR($,#380);
#382=FILL_AREA_STYLE($,(#381));
#383=SURFACE_STYLE_FILL_AREA(#382);
#384=SURFACE_SIDE_STYLE('',(#383));
#385=SURFACE_STYLE_USAGE(.BOTH.,#384);
#386=PRESENTATION_STYLE_ASSIGNMENT((#385));
#387=STYLED_ITEM('',(#386),#379);
#388=ADVANCED_FACE('',(#884),#886,.T.);
#389=COLOUR_RGB($,0.156862745098039,0.156862745098039,0.156862745098039);
#390=FILL_AREA_STYLE_COLOUR($,#389);
#391=FILL_AREA_STYLE($,(#390));
#392=SURFACE_STYLE_FILL_AREA(#391);
#393=SURFACE_SIDE_STYLE('',(#392));
#394=SURFACE_STYLE_USAGE(.BOTH.,#393);
#395=PRESENTATION_STYLE_ASSIGNMENT((#394));
#396=STYLED_ITEM('',(#395),#388);
#397=ADVANCED_FACE('',(#891),#893,.F.);
#398=COLOUR_RGB($,0.156862745098039,0.156862745098039,0.156862745098039);
#399=FILL_AREA_STYLE_COLOUR($,#398);
#400=FILL_AREA_STYLE($,(#399));
#401=SURFACE_STYLE_FILL_AREA(#400);
#402=SURFACE_SIDE_STYLE('',(#401));
#403=SURFACE_STYLE_USAGE(.BOTH.,#402);
#404=PRESENTATION_STYLE_ASSIGNMENT((#403));
#405=STYLED_ITEM('',(#404),#397);
#406=ADVANCED_FACE('',(#898),#900,.T.);
#407=COLOUR_RGB($,0.156862745098039,0.156862745098039,0.156862745098039);
#408=FILL_AREA_STYLE_COLOUR($,#407);
#409=FILL_AREA_STYLE($,(#408));
#410=SURFACE_STYLE_FILL_AREA(#409);
#411=SURFACE_SIDE_STYLE('',(#410));
#412=SURFACE_STYLE_USAGE(.BOTH.,#411);
#413=PRESENTATION_STYLE_ASSIGNMENT((#412));
#414=STYLED_ITEM('',(#413),#406);
#415=ADVANCED_FACE('',(#905),#907,.F.);
#416=COLOUR_RGB($,0.156862745098039,0.156862745098039,0.156862745098039);
#417=FILL_AREA_STYLE_COLOUR($,#416);
#418=FILL_AREA_STYLE($,(#417));
#419=SURFACE_STYLE_FILL_AREA(#418);
#420=SURFACE_SIDE_STYLE('',(#419));
#421=SURFACE_STYLE_USAGE(.BOTH.,#420);
#422=PRESENTATION_STYLE_ASSIGNMENT((#421));
#423=STYLED_ITEM('',(#422),#415);
#424=ADVANCED_FACE('',(#912),#914,.F.);
#425=COLOUR_RGB($,0.156862745098039,0.156862745098039,0.156862745098039);
#426=FILL_AREA_STYLE_COLOUR($,#425);
#427=FILL_AREA_STYLE($,(#426));
#428=SURFACE_STYLE_FILL_AREA(#427);
#429=SURFACE_SIDE_STYLE('',(#428));
#430=SURFACE_STYLE_USAGE(.BOTH.,#429);
#431=PRESENTATION_STYLE_ASSIGNMENT((#430));
#432=STYLED_ITEM('',(#431),#424);
#433=ADVANCED_FACE('',(#919),#921,.T.);
#434=COLOUR_RGB($,0.156862745098039,0.156862745098039,0.156862745098039);
#435=FILL_AREA_STYLE_COLOUR($,#434);
#436=FILL_AREA_STYLE($,(#435));
#437=SURFACE_STYLE_FILL_AREA(#436);
#438=SURFACE_SIDE_STYLE('',(#437));
#439=SURFACE_STYLE_USAGE(.BOTH.,#438);
#440=PRESENTATION_STYLE_ASSIGNMENT((#439));
#441=STYLED_ITEM('',(#440),#433);
#442=ADVANCED_FACE('',(#926),#928,.T.);
#443=COLOUR_RGB($,0.156862745098039,0.156862745098039,0.156862745098039);
#444=FILL_AREA_STYLE_COLOUR($,#443);
#445=FILL_AREA_STYLE($,(#444));
#446=SURFACE_STYLE_FILL_AREA(#445);
#447=SURFACE_SIDE_STYLE('',(#446));
#448=SURFACE_STYLE_USAGE(.BOTH.,#447);
#449=PRESENTATION_STYLE_ASSIGNMENT((#448));
#450=STYLED_ITEM('',(#449),#442);
#451=ADVANCED_FACE('',(#933),#935,.T.);
#452=COLOUR_RGB($,0.156862745098039,0.156862745098039,0.156862745098039);
#453=FILL_AREA_STYLE_COLOUR($,#452);
#454=FILL_AREA_STYLE($,(#453));
#455=SURFACE_STYLE_FILL_AREA(#454);
#456=SURFACE_SIDE_STYLE('',(#455));
#457=SURFACE_STYLE_USAGE(.BOTH.,#456);
#458=PRESENTATION_STYLE_ASSIGNMENT((#457));
#459=STYLED_ITEM('',(#458),#451);
#460=ADVANCED_FACE('',(#940),#942,.T.);
#461=COLOUR_RGB($,0.156862745098039,0.156862745098039,0.156862745098039);
#462=FILL_AREA_STYLE_COLOUR($,#461);
#463=FILL_AREA_STYLE($,(#462));
#464=SURFACE_STYLE_FILL_AREA(#463);
#465=SURFACE_SIDE_STYLE('',(#464));
#466=SURFACE_STYLE_USAGE(.BOTH.,#465);
#467=PRESENTATION_STYLE_ASSIGNMENT((#466));
#468=STYLED_ITEM('',(#467),#460);
#469=ADVANCED_FACE('',(#947),#949,.T.);
#470=COLOUR_RGB($,0.156862745098039,0.156862745098039,0.156862745098039);
#471=FILL_AREA_STYLE_COLOUR($,#470);
#472=FILL_AREA_STYLE($,(#471));
#473=SURFACE_STYLE_FILL_AREA(#472);
#474=SURFACE_SIDE_STYLE('',(#473));
#475=SURFACE_STYLE_USAGE(.BOTH.,#474);
#476=PRESENTATION_STYLE_ASSIGNMENT((#475));
#477=STYLED_ITEM('',(#476),#469);
#478=ADVANCED_FACE('',(#954),#956,.F.);
#479=COLOUR_RGB($,0.156862745098039,0.156862745098039,0.156862745098039);
#480=FILL_AREA_STYLE_COLOUR($,#479);
#481=FILL_AREA_STYLE($,(#480));
#482=SURFACE_STYLE_FILL_AREA(#481);
#483=SURFACE_SIDE_STYLE('',(#482));
#484=SURFACE_STYLE_USAGE(.BOTH.,#483);
#485=PRESENTATION_STYLE_ASSIGNMENT((#484));
#486=STYLED_ITEM('',(#485),#478);
#487=ADVANCED_FACE('',(#961),#963,.F.);
#488=COLOUR_RGB($,0.156862745098039,0.156862745098039,0.156862745098039);
#489=FILL_AREA_STYLE_COLOUR($,#488);
#490=FILL_AREA_STYLE($,(#489));
#491=SURFACE_STYLE_FILL_AREA(#490);
#492=SURFACE_SIDE_STYLE('',(#491));
#493=SURFACE_STYLE_USAGE(.BOTH.,#492);
#494=PRESENTATION_STYLE_ASSIGNMENT((#493));
#495=STYLED_ITEM('',(#494),#487);
#496=ADVANCED_FACE('',(#968),#970,.T.);
#497=COLOUR_RGB($,0.156862745098039,0.156862745098039,0.156862745098039);
#498=FILL_AREA_STYLE_COLOUR($,#497);
#499=FILL_AREA_STYLE($,(#498));
#500=SURFACE_STYLE_FILL_AREA(#499);
#501=SURFACE_SIDE_STYLE('',(#500));
#502=SURFACE_STYLE_USAGE(.BOTH.,#501);
#503=PRESENTATION_STYLE_ASSIGNMENT((#502));
#504=STYLED_ITEM('',(#503),#496);
#505=ADVANCED_FACE('',(#975,#977),#979,.F.);
#506=COLOUR_RGB($,0.156862745098039,0.156862745098039,0.156862745098039);
#507=FILL_AREA_STYLE_COLOUR($,#506);
#508=FILL_AREA_STYLE($,(#507));
#509=SURFACE_STYLE_FILL_AREA(#508);
#510=SURFACE_SIDE_STYLE('',(#509));
#511=SURFACE_STYLE_USAGE(.BOTH.,#510);
#512=PRESENTATION_STYLE_ASSIGNMENT((#511));
#513=STYLED_ITEM('',(#512),#505);
#514=ADVANCED_FACE('',(#984,#986),#988,.F.);
#515=COLOUR_RGB($,0.156862745098039,0.156862745098039,0.156862745098039);
#516=FILL_AREA_STYLE_COLOUR($,#515);
#517=FILL_AREA_STYLE($,(#516));
#518=SURFACE_STYLE_FILL_AREA(#517);
#519=SURFACE_SIDE_STYLE('',(#518));
#520=SURFACE_STYLE_USAGE(.BOTH.,#519);
#521=PRESENTATION_STYLE_ASSIGNMENT((#520));
#522=STYLED_ITEM('',(#521),#514);
#523=ADVANCED_FACE('',(#993,#995),#997,.F.);
#524=COLOUR_RGB($,0.156862745098039,0.156862745098039,0.156862745098039);
#525=FILL_AREA_STYLE_COLOUR($,#524);
#526=FILL_AREA_STYLE($,(#525));
#527=SURFACE_STYLE_FILL_AREA(#526);
#528=SURFACE_SIDE_STYLE('',(#527));
#529=SURFACE_STYLE_USAGE(.BOTH.,#528);
#530=PRESENTATION_STYLE_ASSIGNMENT((#529));
#531=STYLED_ITEM('',(#530),#523);
#532=ADVANCED_FACE('',(#1002,#1004),#1006,.F.);
#533=COLOUR_RGB($,0.156862745098039,0.156862745098039,0.156862745098039);
#534=FILL_AREA_STYLE_COLOUR($,#533);
#535=FILL_AREA_STYLE($,(#534));
#536=SURFACE_STYLE_FILL_AREA(#535);
#537=SURFACE_SIDE_STYLE('',(#536));
#538=SURFACE_STYLE_USAGE(.BOTH.,#537);
#539=PRESENTATION_STYLE_ASSIGNMENT((#538));
#540=STYLED_ITEM('',(#539),#532);
#541=ADVANCED_FACE('',(#1011),#1013,.T.);
#542=COLOUR_RGB($,0.827450980392157,0.831372549019608,0.835294117647059);
#543=FILL_AREA_STYLE_COLOUR($,#542);
#544=FILL_AREA_STYLE($,(#543));
#545=SURFACE_STYLE_FILL_AREA(#544);
#546=SURFACE_SIDE_STYLE('',(#545));
#547=SURFACE_STYLE_USAGE(.BOTH.,#546);
#548=PRESENTATION_STYLE_ASSIGNMENT((#547));
#549=STYLED_ITEM('',(#548),#541);
#550=ADVANCED_FACE('',(#1018,#1020),#1022,.T.);
#551=COLOUR_RGB($,0.827450980392157,0.831372549019608,0.835294117647059);
#552=FILL_AREA_STYLE_COLOUR($,#551);
#553=FILL_AREA_STYLE($,(#552));
#554=SURFACE_STYLE_FILL_AREA(#553);
#555=SURFACE_SIDE_STYLE('',(#554));
#556=SURFACE_STYLE_USAGE(.BOTH.,#555);
#557=PRESENTATION_STYLE_ASSIGNMENT((#556));
#558=STYLED_ITEM('',(#557),#550);
#559=ADVANCED_FACE('',(#1027,#1029),#1031,.T.);
#560=COLOUR_RGB($,0.827450980392157,0.831372549019608,0.835294117647059);
#561=FILL_AREA_STYLE_COLOUR($,#560);
#562=FILL_AREA_STYLE($,(#561));
#563=SURFACE_STYLE_FILL_AREA(#562);
#564=SURFACE_SIDE_STYLE('',(#563));
#565=SURFACE_STYLE_USAGE(.BOTH.,#564);
#566=PRESENTATION_STYLE_ASSIGNMENT((#565));
#567=STYLED_ITEM('',(#566),#559);
#568=ADVANCED_FACE('',(#1036,#1038),#1040,.T.);
#569=COLOUR_RGB($,0.827450980392157,0.831372549019608,0.835294117647059);
#570=FILL_AREA_STYLE_COLOUR($,#569);
#571=FILL_AREA_STYLE($,(#570));
#572=SURFACE_STYLE_FILL_AREA(#571);
#573=SURFACE_SIDE_STYLE('',(#572));
#574=SURFACE_STYLE_USAGE(.BOTH.,#573);
#575=PRESENTATION_STYLE_ASSIGNMENT((#574));
#576=STYLED_ITEM('',(#575),#568);
#577=ADVANCED_FACE('',(#1045,#1047),#1049,.T.);
#578=COLOUR_RGB($,0.827450980392157,0.831372549019608,0.835294117647059);
#579=FILL_AREA_STYLE_COLOUR($,#578);
#580=FILL_AREA_STYLE($,(#579));
#581=SURFACE_STYLE_FILL_AREA(#580);
#582=SURFACE_SIDE_STYLE('',(#581));
#583=SURFACE_STYLE_USAGE(.BOTH.,#582);
#584=PRESENTATION_STYLE_ASSIGNMENT((#583));
#585=STYLED_ITEM('',(#584),#577);
#586=ADVANCED_FACE('',(#1054,#1056),#1058,.T.);
#587=COLOUR_RGB($,0.827450980392157,0.831372549019608,0.835294117647059);
#588=FILL_AREA_STYLE_COLOUR($,#587);
#589=FILL_AREA_STYLE($,(#588));
#590=SURFACE_STYLE_FILL_AREA(#589);
#591=SURFACE_SIDE_STYLE('',(#590));
#592=SURFACE_STYLE_USAGE(.BOTH.,#591);
#593=PRESENTATION_STYLE_ASSIGNMENT((#592));
#594=STYLED_ITEM('',(#593),#586);
#595=ADVANCED_FACE('',(#1063,#1065),#1067,.T.);
#596=COLOUR_RGB($,0.827450980392157,0.831372549019608,0.835294117647059);
#597=FILL_AREA_STYLE_COLOUR($,#596);
#598=FILL_AREA_STYLE($,(#597));
#599=SURFACE_STYLE_FILL_AREA(#598);
#600=SURFACE_SIDE_STYLE('',(#599));
#601=SURFACE_STYLE_USAGE(.BOTH.,#600);
#602=PRESENTATION_STYLE_ASSIGNMENT((#601));
#603=STYLED_ITEM('',(#602),#595);
#604=ADVANCED_FACE('',(#1072,#1074),#1076,.T.);
#605=COLOUR_RGB($,0.827450980392157,0.831372549019608,0.835294117647059);
#606=FILL_AREA_STYLE_COLOUR($,#605);
#607=FILL_AREA_STYLE($,(#606));
#608=SURFACE_STYLE_FILL_AREA(#607);
#609=SURFACE_SIDE_STYLE('',(#608));
#610=SURFACE_STYLE_USAGE(.BOTH.,#609);
#611=PRESENTATION_STYLE_ASSIGNMENT((#610));
#612=STYLED_ITEM('',(#611),#604);
#613=ADVANCED_FACE('',(#1081,#1083),#1085,.T.);
#614=COLOUR_RGB($,0.827450980392157,0.831372549019608,0.835294117647059);
#615=FILL_AREA_STYLE_COLOUR($,#614);
#616=FILL_AREA_STYLE($,(#615));
#617=SURFACE_STYLE_FILL_AREA(#616);
#618=SURFACE_SIDE_STYLE('',(#617));
#619=SURFACE_STYLE_USAGE(.BOTH.,#618);
#620=PRESENTATION_STYLE_ASSIGNMENT((#619));
#621=STYLED_ITEM('',(#620),#613);
#622=ADVANCED_FACE('',(#1090,#1092),#1094,.T.);
#623=COLOUR_RGB($,0.827450980392157,0.831372549019608,0.835294117647059);
#624=FILL_AREA_STYLE_COLOUR($,#623);
#625=FILL_AREA_STYLE($,(#624));
#626=SURFACE_STYLE_FILL_AREA(#625);
#627=SURFACE_SIDE_STYLE('',(#626));
#628=SURFACE_STYLE_USAGE(.BOTH.,#627);
#629=PRESENTATION_STYLE_ASSIGNMENT((#628));
#630=STYLED_ITEM('',(#629),#622);
#631=ADVANCED_FACE('',(#1099,#1101),#1103,.T.);
#632=COLOUR_RGB($,0.827450980392157,0.831372549019608,0.835294117647059);
#633=FILL_AREA_STYLE_COLOUR($,#632);
#634=FILL_AREA_STYLE($,(#633));
#635=SURFACE_STYLE_FILL_AREA(#634);
#636=SURFACE_SIDE_STYLE('',(#635));
#637=SURFACE_STYLE_USAGE(.BOTH.,#636);
#638=PRESENTATION_STYLE_ASSIGNMENT((#637));
#639=STYLED_ITEM('',(#638),#631);
#640=ADVANCED_FACE('',(#1108,#1110),#1112,.F.);
#641=COLOUR_RGB($,0.827450980392157,0.831372549019608,0.835294117647059);
#642=FILL_AREA_STYLE_COLOUR($,#641);
#643=FILL_AREA_STYLE($,(#642));
#644=SURFACE_STYLE_FILL_AREA(#643);
#645=SURFACE_SIDE_STYLE('',(#644));
#646=SURFACE_STYLE_USAGE(.BOTH.,#645);
#647=PRESENTATION_STYLE_ASSIGNMENT((#646));
#648=STYLED_ITEM('',(#647),#640);
#649=ADVANCED_FACE('',(#1117,#1119),#1121,.F.);
#650=COLOUR_RGB($,0.827450980392157,0.831372549019608,0.835294117647059);
#651=FILL_AREA_STYLE_COLOUR($,#650);
#652=FILL_AREA_STYLE($,(#651));
#653=SURFACE_STYLE_FILL_AREA(#652);
#654=SURFACE_SIDE_STYLE('',(#653));
#655=SURFACE_STYLE_USAGE(.BOTH.,#654);
#656=PRESENTATION_STYLE_ASSIGNMENT((#655));
#657=STYLED_ITEM('',(#656),#649);
#658=ADVANCED_FACE('',(#1126,#1128),#1130,.F.);
#659=COLOUR_RGB($,0.827450980392157,0.831372549019608,0.835294117647059);
#660=FILL_AREA_STYLE_COLOUR($,#659);
#661=FILL_AREA_STYLE($,(#660));
#662=SURFACE_STYLE_FILL_AREA(#661);
#663=SURFACE_SIDE_STYLE('',(#662));
#664=SURFACE_STYLE_USAGE(.BOTH.,#663);
#665=PRESENTATION_STYLE_ASSIGNMENT((#664));
#666=STYLED_ITEM('',(#665),#658);
#667=ADVANCED_FACE('',(#1135,#1137),#1139,.T.);
#668=COLOUR_RGB($,0.827450980392157,0.831372549019608,0.835294117647059);
#669=FILL_AREA_STYLE_COLOUR($,#668);
#670=FILL_AREA_STYLE($,(#669));
#671=SURFACE_STYLE_FILL_AREA(#670);
#672=SURFACE_SIDE_STYLE('',(#671));
#673=SURFACE_STYLE_USAGE(.BOTH.,#672);
#674=PRESENTATION_STYLE_ASSIGNMENT((#673));
#675=STYLED_ITEM('',(#674),#667);
#676=ADVANCED_FACE('',(#1144,#1146),#1148,.F.);
#677=COLOUR_RGB($,0.827450980392157,0.831372549019608,0.835294117647059);
#678=FILL_AREA_STYLE_COLOUR($,#677);
#679=FILL_AREA_STYLE($,(#678));
#680=SURFACE_STYLE_FILL_AREA(#679);
#681=SURFACE_SIDE_STYLE('',(#680));
#682=SURFACE_STYLE_USAGE(.BOTH.,#681);
#683=PRESENTATION_STYLE_ASSIGNMENT((#682));
#684=STYLED_ITEM('',(#683),#676);
#685=ADVANCED_FACE('',(#1153,#1155),#1157,.F.);
#686=COLOUR_RGB($,0.827450980392157,0.831372549019608,0.835294117647059);
#687=FILL_AREA_STYLE_COLOUR($,#686);
#688=FILL_AREA_STYLE($,(#687));
#689=SURFACE_STYLE_FILL_AREA(#688);
#690=SURFACE_SIDE_STYLE('',(#689));
#691=SURFACE_STYLE_USAGE(.BOTH.,#690);
#692=PRESENTATION_STYLE_ASSIGNMENT((#691));
#693=STYLED_ITEM('',(#692),#685);
#694=ADVANCED_FACE('',(#1162,#1164),#1166,.F.);
#695=COLOUR_RGB($,0.827450980392157,0.831372549019608,0.835294117647059);
#696=FILL_AREA_STYLE_COLOUR($,#695);
#697=FILL_AREA_STYLE($,(#696));
#698=SURFACE_STYLE_FILL_AREA(#697);
#699=SURFACE_SIDE_STYLE('',(#698));
#700=SURFACE_STYLE_USAGE(.BOTH.,#699);
#701=PRESENTATION_STYLE_ASSIGNMENT((#700));
#702=STYLED_ITEM('',(#701),#694);
#703=ADVANCED_FACE('',(#1171,#1173),#1175,.F.);
#704=COLOUR_RGB($,0.827450980392157,0.831372549019608,0.835294117647059);
#705=FILL_AREA_STYLE_COLOUR($,#704);
#706=FILL_AREA_STYLE($,(#705));
#707=SURFACE_STYLE_FILL_AREA(#706);
#708=SURFACE_SIDE_STYLE('',(#707));
#709=SURFACE_STYLE_USAGE(.BOTH.,#708);
#710=PRESENTATION_STYLE_ASSIGNMENT((#709));
#711=STYLED_ITEM('',(#710),#703);
#712=ADVANCED_FACE('',(#1180),#1182,.T.);
#713=COLOUR_RGB($,0.827450980392157,0.831372549019608,0.835294117647059);
#714=FILL_AREA_STYLE_COLOUR($,#713);
#715=FILL_AREA_STYLE($,(#714));
#716=SURFACE_STYLE_FILL_AREA(#715);
#717=SURFACE_SIDE_STYLE('',(#716));
#718=SURFACE_STYLE_USAGE(.BOTH.,#717);
#719=PRESENTATION_STYLE_ASSIGNMENT((#718));
#720=STYLED_ITEM('',(#719),#712);
#721=FACE_BOUND('',#722,.T.);
#722=EDGE_LOOP('',(#1187,#1188,#1189,#1190));
#723=PLANE('',#724);
#724=AXIS2_PLACEMENT_3D('',#725,#726,#727);
#725=CARTESIAN_POINT('',(-1.2451077025535,-1.27,1.07));
#726=DIRECTION('',(0.,-1.,0.));
#727=DIRECTION('',(1.,0.,0.));
#728=FACE_BOUND('',#729,.T.);
#729=EDGE_LOOP('',(#1191,#1192,#1193,#1194));
#730=PLANE('',#731);
#731=AXIS2_PLACEMENT_3D('',#732,#733,#734);
#732=CARTESIAN_POINT('',(-1.2451077025535,-1.27,1.07));
#733=DIRECTION('',(0.,-1.,0.));
#734=DIRECTION('',(1.,0.,0.));
#735=FACE_BOUND('',#736,.T.);
#736=EDGE_LOOP('',(#1195,#1196,#1197,#1198));
#737=PLANE('',#738);
#738=AXIS2_PLACEMENT_3D('',#739,#740,#741);
#739=CARTESIAN_POINT('',(-1.2451077025535,-1.27,1.07));
#740=DIRECTION('',(0.,-1.,0.));
#741=DIRECTION('',(1.,0.,0.));
#742=FACE_BOUND('',#743,.T.);
#743=EDGE_LOOP('',(#1199,#1200,#1201,#1202));
#744=PLANE('',#745);
#745=AXIS2_PLACEMENT_3D('',#746,#747,#748);
#746=CARTESIAN_POINT('',(8.8651077025535,1.27,1.07));
#747=DIRECTION('',(0.,1.,-0.));
#748=DIRECTION('',(-1.,0.,0.));
#749=FACE_BOUND('',#750,.T.);
#750=EDGE_LOOP('',(#1203,#1204,#1205,#1206));
#751=PLANE('',#752);
#752=AXIS2_PLACEMENT_3D('',#753,#754,#755);
#753=CARTESIAN_POINT('',(8.8651077025535,1.27,1.07));
#754=DIRECTION('',(0.,1.,-0.));
#755=DIRECTION('',(-1.,0.,0.));
#756=FACE_BOUND('',#757,.T.);
#757=EDGE_LOOP('',(#1207,#1208,#1209,#1210));
#758=PLANE('',#759);
#759=AXIS2_PLACEMENT_3D('',#760,#761,#762);
#760=CARTESIAN_POINT('',(8.8651077025535,1.27,1.07));
#761=DIRECTION('',(0.,1.,-0.));
#762=DIRECTION('',(-1.,0.,0.));
#763=FACE_BOUND('',#764,.T.);
#764=EDGE_LOOP('',(#1211,#1212,#1213,#1214,#1215,#1216,#1217,#1218,#1219,#1220,#1221,
#1222,#1223,#1224,#1225,#1226,#1227,#1228,#1229,#1230,#1231,#1232,#1233,#1234,#1235,
#1236,#1237,#1238,#1239,#1240,#1241,#1242));
#765=FACE_BOUND('',#766,.T.);
#766=EDGE_LOOP('',(#1243));
#767=FACE_BOUND('',#768,.T.);
#768=EDGE_LOOP('',(#1244));
#769=FACE_BOUND('',#770,.T.);
#770=EDGE_LOOP('',(#1245));
#771=FACE_BOUND('',#772,.T.);
#772=EDGE_LOOP('',(#1246));
#773=PLANE('',#774);
#774=AXIS2_PLACEMENT_3D('',#775,#776,#777);
#775=CARTESIAN_POINT('',(0.,0.,2.34));
#776=DIRECTION('',(0.,0.,1.));
#777=DIRECTION('',(1.,0.,0.));
#778=FACE_BOUND('',#779,.T.);
#779=EDGE_LOOP('',(#1247,#1248,#1249,#1250,#1251,#1252,#1253,#1254,#1255,#1256,#1257,
#1258,#1259,#1260,#1261,#1262,#1263,#1264,#1265,#1266,#1267,#1268,#1269,#1270,#1271,
#1272,#1273,#1274,#1275,#1276,#1277,#1278));
#780=FACE_BOUND('',#781,.T.);
#781=EDGE_LOOP('',(#1279));
#782=FACE_BOUND('',#783,.T.);
#783=EDGE_LOOP('',(#1280));
#784=FACE_BOUND('',#785,.T.);
#785=EDGE_LOOP('',(#1281));
#786=FACE_BOUND('',#787,.T.);
#787=EDGE_LOOP('',(#1282));
#788=PLANE('',#789);
#789=AXIS2_PLACEMENT_3D('',#790,#791,#792);
#790=CARTESIAN_POINT('',(0.,0.,1.07));
#791=DIRECTION('',(0.,0.,1.));
#792=DIRECTION('',(1.,0.,0.));
#793=FACE_BOUND('',#794,.T.);
#794=EDGE_LOOP('',(#1283,#1284,#1285,#1286));
#795=PLANE('',#796);
#796=AXIS2_PLACEMENT_3D('',#797,#798,#799);
#797=CARTESIAN_POINT('',(6.50900440526804,-1.27,1.07));
#798=DIRECTION('',(0.906307787039943,0.422618261733638,-0.));
#799=DIRECTION('',(-0.422618261733638,0.906307787039943,0.));
#800=FACE_BOUND('',#801,.T.);
#801=EDGE_LOOP('',(#1287,#1288,#1289,#1290));
#802=PLANE('',#803);
#803=AXIS2_PLACEMENT_3D('',#804,#805,#806);
#804=CARTESIAN_POINT('',(6.32281076638794,-0.987321452149846,1.07));
#805=DIRECTION('',(-0.906307787039943,0.422618261733637,0.));
#806=DIRECTION('',(-0.422618261733637,-0.906307787039943,0.));
#807=FACE_BOUND('',#808,.T.);
#808=EDGE_LOOP('',(#1291,#1292,#1293,#1294));
#809=CYLINDRICAL_SURFACE('',#810,0.03);
#810=AXIS2_PLACEMENT_3D('',#811,#812,#813);
#811=CARTESIAN_POINT('',(6.35,-1.,1.07));
#812=DIRECTION('',(0.,0.,1.));
#813=DIRECTION('',(0.906307786970437,0.422618261882694,0.));
#814=FACE_BOUND('',#815,.T.);
#815=EDGE_LOOP('',(#1295,#1296,#1297,#1298));
#816=CYLINDRICAL_SURFACE('',#817,0.03);
#817=AXIS2_PLACEMENT_3D('',#818,#819,#820);
#818=CARTESIAN_POINT('',(6.35,1.,1.07));
#819=DIRECTION('',(0.,0.,1.));
#820=DIRECTION('',(-0.906307787035285,-0.422618261743626,0.));
#821=FACE_BOUND('',#822,.T.);
#822=EDGE_LOOP('',(#1299,#1300,#1301,#1302));
#823=PLANE('',#824);
#824=AXIS2_PLACEMENT_3D('',#825,#826,#827);
#825=CARTESIAN_POINT('',(6.19099559472815,1.27,1.07));
#826=DIRECTION('',(-0.906307787035266,-0.422618261743666,0.));
#827=DIRECTION('',(0.422618261743666,-0.906307787035267,0.));
#828=FACE_BOUND('',#829,.T.);
#829=EDGE_LOOP('',(#1303,#1304,#1305,#1306));
#830=PLANE('',#831);
#831=AXIS2_PLACEMENT_3D('',#832,#833,#834);
#832=CARTESIAN_POINT('',(6.37718923361106,0.987321452147693,1.07));
#833=DIRECTION('',(0.906307787035268,-0.422618261743663,0.));
#834=DIRECTION('',(0.422618261743663,0.906307787035268,0.));
#835=FACE_BOUND('',#836,.T.);
#836=EDGE_LOOP('',(#1307,#1308,#1309,#1310));
#837=PLANE('',#838);
#838=AXIS2_PLACEMENT_3D('',#839,#840,#841);
#839=CARTESIAN_POINT('',(3.96900440526804,-1.27,1.07));
#840=DIRECTION('',(0.906307787039943,0.422618261733638,-0.));
#841=DIRECTION('',(-0.422618261733638,0.906307787039943,0.));
#842=FACE_BOUND('',#843,.T.);
#843=EDGE_LOOP('',(#1311,#1312,#1313,#1314));
#844=PLANE('',#845);
#845=AXIS2_PLACEMENT_3D('',#846,#847,#848);
#846=CARTESIAN_POINT('',(3.78281076638794,-0.987321452149846,1.07));
#847=DIRECTION('',(-0.906307787039943,0.422618261733637,0.));
#848=DIRECTION('',(-0.422618261733637,-0.906307787039943,0.));
#849=FACE_BOUND('',#850,.T.);
#850=EDGE_LOOP('',(#1315,#1316,#1317,#1318));
#851=CYLINDRICAL_SURFACE('',#852,0.03);
#852=AXIS2_PLACEMENT_3D('',#853,#854,#855);
#853=CARTESIAN_POINT('',(3.81,-1.,1.07));
#854=DIRECTION('',(0.,0.,1.));
#855=DIRECTION('',(0.906307786970437,0.422618261882694,0.));
#856=FACE_BOUND('',#857,.T.);
#857=EDGE_LOOP('',(#1319,#1320,#1321,#1322));
#858=CYLINDRICAL_SURFACE('',#859,0.03);
#859=AXIS2_PLACEMENT_3D('',#860,#861,#862);
#860=CARTESIAN_POINT('',(3.81,1.,1.07));
#861=DIRECTION('',(0.,0.,1.));
#862=DIRECTION('',(-0.906307787035285,-0.422618261743626,0.));
#863=FACE_BOUND('',#864,.T.);
#864=EDGE_LOOP('',(#1323,#1324,#1325,#1326));
#865=PLANE('',#866);
#866=AXIS2_PLACEMENT_3D('',#867,#868,#869);
#867=CARTESIAN_POINT('',(3.65099559472815,1.27,1.07));
#868=DIRECTION('',(-0.906307787035266,-0.422618261743666,0.));
#869=DIRECTION('',(0.422618261743666,-0.906307787035267,0.));
#870=FACE_BOUND('',#871,.T.);
#871=EDGE_LOOP('',(#1327,#1328,#1329,#1330));
#872=PLANE('',#873);
#873=AXIS2_PLACEMENT_3D('',#874,#875,#876);
#874=CARTESIAN_POINT('',(3.83718923361106,0.987321452147693,1.07));
#875=DIRECTION('',(0.906307787035268,-0.422618261743663,0.));
#876=DIRECTION('',(0.422618261743663,0.906307787035268,0.));
#877=FACE_BOUND('',#878,.T.);
#878=EDGE_LOOP('',(#1331,#1332,#1333,#1334));
#879=PLANE('',#880);
#880=AXIS2_PLACEMENT_3D('',#881,#882,#883);
#881=CARTESIAN_POINT('',(1.42900440526804,-1.27,1.07));
#882=DIRECTION('',(0.906307787039943,0.422618261733638,-0.));
#883=DIRECTION('',(-0.422618261733638,0.906307787039943,0.));
#884=FACE_BOUND('',#885,.T.);
#885=EDGE_LOOP('',(#1335,#1336,#1337,#1338));
#886=PLANE('',#887);
#887=AXIS2_PLACEMENT_3D('',#888,#889,#890);
#888=CARTESIAN_POINT('',(8.8651077025535,-1.27,1.07));
#889=DIRECTION('',(0.906307787036652,-0.422618261740694,0.));
#890=DIRECTION('',(0.422618261740694,0.906307787036652,0.));
#891=FACE_BOUND('',#892,.T.);
#892=EDGE_LOOP('',(#1339,#1340,#1341,#1342));
#893=PLANE('',#894);
#894=AXIS2_PLACEMENT_3D('',#895,#896,#897);
#895=CARTESIAN_POINT('',(1.29718923361106,0.987321452147693,1.07));
#896=DIRECTION('',(0.906307787035268,-0.422618261743663,0.));
#897=DIRECTION('',(0.422618261743663,0.906307787035268,0.));
#898=FACE_BOUND('',#899,.T.);
#899=EDGE_LOOP('',(#1343,#1344,#1345,#1346));
#900=PLANE('',#901);
#901=AXIS2_PLACEMENT_3D('',#902,#903,#904);
#902=CARTESIAN_POINT('',(9.005,0.97,1.07));
#903=DIRECTION('',(0.90630778703665,0.422618261740698,-0.));
#904=DIRECTION('',(-0.422618261740698,0.906307787036651,0.));
#905=FACE_BOUND('',#906,.T.);
#906=EDGE_LOOP('',(#1347,#1348,#1349,#1350));
#907=CYLINDRICAL_SURFACE('',#908,0.03);
#908=AXIS2_PLACEMENT_3D('',#909,#910,#911);
#909=CARTESIAN_POINT('',(1.27,1.,1.07));
#910=DIRECTION('',(0.,0.,1.));
#911=DIRECTION('',(-0.906307787035285,-0.422618261743626,0.));
#912=FACE_BOUND('',#913,.T.);
#913=EDGE_LOOP('',(#1351,#1352,#1353,#1354));
#914=PLANE('',#915);
#915=AXIS2_PLACEMENT_3D('',#916,#917,#918);
#916=CARTESIAN_POINT('',(1.11099559472815,1.27,1.07));
#917=DIRECTION('',(-0.906307787035266,-0.422618261743666,0.));
#918=DIRECTION('',(0.422618261743666,-0.906307787035267,0.));
#919=FACE_BOUND('',#920,.T.);
#920=EDGE_LOOP('',(#1355,#1356,#1357,#1358));
#921=PLANE('',#922);
#922=AXIS2_PLACEMENT_3D('',#923,#924,#925);
#923=CARTESIAN_POINT('',(8.8651077025535,1.27,1.07));
#924=DIRECTION('',(0.,1.,-0.));
#925=DIRECTION('',(-1.,0.,0.));
#926=FACE_BOUND('',#927,.T.);
#927=EDGE_LOOP('',(#1359,#1360,#1361,#1362));
#928=PLANE('',#929);
#929=AXIS2_PLACEMENT_3D('',#930,#931,#932);
#930=CARTESIAN_POINT('',(-1.2451077025535,1.27,1.07));
#931=DIRECTION('',(-0.90630778703665,0.422618261740699,0.));
#932=DIRECTION('',(-0.4226182617407,-0.90630778703665,0.));
#933=FACE_BOUND('',#934,.T.);
#934=EDGE_LOOP('',(#1363,#1364,#1365,#1366));
#935=PLANE('',#936);
#936=AXIS2_PLACEMENT_3D('',#937,#938,#939);
#937=CARTESIAN_POINT('',(-1.385,0.970000000000001,1.07));
#938=DIRECTION('',(-1.,2.28911963840238E-016,0.));
#939=DIRECTION('',(-2.28911963840238E-016,-1.,0.));
#940=FACE_BOUND('',#941,.T.);
#941=EDGE_LOOP('',(#1367,#1368,#1369,#1370));
#942=PLANE('',#943);
#943=AXIS2_PLACEMENT_3D('',#944,#945,#946);
#944=CARTESIAN_POINT('',(-1.385,-0.97,1.07));
#945=DIRECTION('',(-0.90630778703665,-0.422618261740699,0.));
#946=DIRECTION('',(0.422618261740699,-0.90630778703665,0.));
#947=FACE_BOUND('',#948,.T.);
#948=EDGE_LOOP('',(#1371,#1372,#1373,#1374));
#949=PLANE('',#950);
#950=AXIS2_PLACEMENT_3D('',#951,#952,#953);
#951=CARTESIAN_POINT('',(-1.2451077025535,-1.27,1.07));
#952=DIRECTION('',(0.,-1.,0.));
#953=DIRECTION('',(1.,0.,0.));
#954=FACE_BOUND('',#955,.T.);
#955=EDGE_LOOP('',(#1375,#1376,#1377,#1378));
#956=PLANE('',#957);
#957=AXIS2_PLACEMENT_3D('',#958,#959,#960);
#958=CARTESIAN_POINT('',(1.24281076638794,-0.987321452149846,1.07));
#959=DIRECTION('',(-0.906307787039943,0.422618261733637,0.));
#960=DIRECTION('',(-0.422618261733637,-0.906307787039943,0.));
#961=FACE_BOUND('',#962,.T.);
#962=EDGE_LOOP('',(#1379,#1380,#1381,#1382));
#963=CYLINDRICAL_SURFACE('',#964,0.03);
#964=AXIS2_PLACEMENT_3D('',#965,#966,#967);
#965=CARTESIAN_POINT('',(1.27,-1.,1.07));
#966=DIRECTION('',(0.,0.,1.));
#967=DIRECTION('',(0.906307786970437,0.422618261882694,0.));
#968=FACE_BOUND('',#969,.T.);
#969=EDGE_LOOP('',(#1383,#1384,#1385,#1386));
#970=PLANE('',#971);
#971=AXIS2_PLACEMENT_3D('',#972,#973,#974);
#972=CARTESIAN_POINT('',(9.005,-0.97,1.07));
#973=DIRECTION('',(1.,-9.15647855360954E-016,0.));
#974=DIRECTION('',(9.15647855360954E-016,1.,0.));
#975=FACE_OUTER_BOUND('',#976,.T.);
#976=EDGE_LOOP('',(#1387));
#977=FACE_OUTER_BOUND('',#978,.T.);
#978=EDGE_LOOP('',(#1388));
#979=CYLINDRICAL_SURFACE('',#980,0.66);
#980=AXIS2_PLACEMENT_3D('',#981,#982,#983);
#981=CARTESIAN_POINT('',(0.,0.,0.));
#982=DIRECTION('',(0.,0.,1.));
#983=DIRECTION('',(1.,0.,0.));
#984=FACE_OUTER_BOUND('',#985,.T.);
#985=EDGE_LOOP('',(#1389));
#986=FACE_OUTER_BOUND('',#987,.T.);
#987=EDGE_LOOP('',(#1390));
#988=CYLINDRICAL_SURFACE('',#989,0.66);
#989=AXIS2_PLACEMENT_3D('',#990,#991,#992);
#990=CARTESIAN_POINT('',(7.62,0.,0.));
#991=DIRECTION('',(0.,0.,1.));
#992=DIRECTION('',(1.,0.,0.));
#993=FACE_OUTER_BOUND('',#994,.T.);
#994=EDGE_LOOP('',(#1391));
#995=FACE_OUTER_BOUND('',#996,.T.);
#996=EDGE_LOOP('',(#1392));
#997=CYLINDRICAL_SURFACE('',#998,0.66);
#998=AXIS2_PLACEMENT_3D('',#999,#1000,#1001);
#999=CARTESIAN_POINT('',(5.08,0.,0.));
#1000=DIRECTION('',(0.,0.,1.));
#1001=DIRECTION('',(1.,0.,0.));
#1002=FACE_OUTER_BOUND('',#1003,.T.);
#1003=EDGE_LOOP('',(#1393));
#1004=FACE_OUTER_BOUND('',#1005,.T.);
#1005=EDGE_LOOP('',(#1394));
#1006=CYLINDRICAL_SURFACE('',#1007,0.66);
#1007=AXIS2_PLACEMENT_3D('',#1008,#1009,#1010);
#1008=CARTESIAN_POINT('',(2.54,0.,0.));
#1009=DIRECTION('',(0.,0.,1.));
#1010=DIRECTION('',(1.,0.,0.));
#1011=FACE_BOUND('',#1012,.T.);
#1012=EDGE_LOOP('',(#1395));
#1013=PLANE('',#1014);
#1014=AXIS2_PLACEMENT_3D('',#1015,#1016,#1017);
#1015=CARTESIAN_POINT('',(0.,0.,-2.74));
#1016=DIRECTION('',(-0.,-0.,-1.));
#1017=DIRECTION('',(0.,-1.,0.));
#1018=FACE_OUTER_BOUND('',#1019,.T.);
#1019=EDGE_LOOP('',(#1396));
#1020=FACE_OUTER_BOUND('',#1021,.T.);
#1021=EDGE_LOOP('',(#1397));
#1022=CONICAL_SURFACE('',#1023,0.285,0.785398163397449);
#1023=AXIS2_PLACEMENT_3D('',#1024,#1025,#1026);
#1024=CARTESIAN_POINT('',(0.,0.,-2.645));
#1025=DIRECTION('',(0.,0.,1.));
#1026=DIRECTION('',(-0.,1.,-0.));
#1027=FACE_OUTER_BOUND('',#1028,.T.);
#1028=EDGE_LOOP('',(#1398));
#1029=FACE_OUTER_BOUND('',#1030,.T.);
#1030=EDGE_LOOP('',(#1399));
#1031=CYLINDRICAL_SURFACE('',#1032,0.38);
#1032=AXIS2_PLACEMENT_3D('',#1033,#1034,#1035);
#1033=CARTESIAN_POINT('',(0.,0.,0.));
#1034=DIRECTION('',(-0.,-0.,-1.));
#1035=DIRECTION('',(0.,-1.,0.));
#1036=FACE_OUTER_BOUND('',#1037,.T.);
#1037=EDGE_LOOP('',(#1400));
#1038=FACE_OUTER_BOUND('',#1039,.T.);
#1039=EDGE_LOOP('',(#1401));
#1040=CONICAL_SURFACE('',#1041,0.52,0.785398163397449);
#1041=AXIS2_PLACEMENT_3D('',#1042,#1043,#1044);
#1042=CARTESIAN_POINT('',(0.,0.,0.14));
#1043=DIRECTION('',(0.,0.,1.));
#1044=DIRECTION('',(-0.,1.,-0.));
#1045=FACE_OUTER_BOUND('',#1046,.T.);
#1046=EDGE_LOOP('',(#1402));
#1047=FACE_OUTER_BOUND('',#1048,.T.);
#1048=EDGE_LOOP('',(#1403));
#1049=CYLINDRICAL_SURFACE('',#1050,0.66);
#1050=AXIS2_PLACEMENT_3D('',#1051,#1052,#1053);
#1051=CARTESIAN_POINT('',(0.,0.,1.29287838708185));
#1052=DIRECTION('',(-0.,-0.,-1.));
#1053=DIRECTION('',(0.,-1.,0.));
#1054=FACE_OUTER_BOUND('',#1055,.T.);
#1055=EDGE_LOOP('',(#1404));
#1056=FACE_OUTER_BOUND('',#1057,.T.);
#1057=EDGE_LOOP('',(#1405));
#1058=CONICAL_SURFACE('',#1059,0.735,0.349065850398866);
#1059=AXIS2_PLACEMENT_3D('',#1060,#1061,#1062);
#1060=CARTESIAN_POINT('',(0.,0.,1.49893919354094));
#1061=DIRECTION('',(0.,0.,1.));
#1062=DIRECTION('',(-0.,1.,-0.));
#1063=FACE_BOUND('',#1064,.T.);
#1064=EDGE_LOOP('',(#1406));
#1065=FACE_BOUND('',#1066,.T.);
#1066=EDGE_LOOP('',(#1407));
#1067=PLANE('',#1068);
#1068=AXIS2_PLACEMENT_3D('',#1069,#1070,#1071);
#1069=CARTESIAN_POINT('',(0.,0.,1.70500000000004));
#1070=DIRECTION('',(0.,0.,1.));
#1071=DIRECTION('',(0.,-1.,0.));
#1072=FACE_OUTER_BOUND('',#1073,.T.);
#1073=EDGE_LOOP('',(#1408));
#1074=FACE_OUTER_BOUND('',#1075,.T.);
#1075=EDGE_LOOP('',(#1409));
#1076=CYLINDRICAL_SURFACE('',#1077,0.66);
#1077=AXIS2_PLACEMENT_3D('',#1078,#1079,#1080);
#1078=CARTESIAN_POINT('',(0.,0.,2.2400000000001));
#1079=DIRECTION('',(-0.,-0.,-1.));
#1080=DIRECTION('',(0.,-1.,0.));
#1081=FACE_BOUND('',#1082,.T.);
#1082=EDGE_LOOP('',(#1410));
#1083=FACE_BOUND('',#1084,.T.);
#1084=EDGE_LOOP('',(#1411));
#1085=PLANE('',#1086);
#1086=AXIS2_PLACEMENT_3D('',#1087,#1088,#1089);
#1087=CARTESIAN_POINT('',(0.,0.,2.2400000000001));
#1088=DIRECTION('',(-0.,-0.,-1.));
#1089=DIRECTION('',(0.,-1.,0.));
#1090=FACE_OUTER_BOUND('',#1091,.T.);
#1091=EDGE_LOOP('',(#1412));
#1092=FACE_OUTER_BOUND('',#1093,.T.);
#1093=EDGE_LOOP('',(#1413));
#1094=CYLINDRICAL_SURFACE('',#1095,0.915);
#1095=AXIS2_PLACEMENT_3D('',#1096,#1097,#1098);
#1096=CARTESIAN_POINT('',(0.,0.,3.1));
#1097=DIRECTION('',(-0.,-0.,-1.));
#1098=DIRECTION('',(0.,-1.,0.));
#1099=FACE_BOUND('',#1100,.T.);
#1100=EDGE_LOOP('',(#1414));
#1101=FACE_BOUND('',#1102,.T.);
#1102=EDGE_LOOP('',(#1415));
#1103=PLANE('',#1104);
#1104=AXIS2_PLACEMENT_3D('',#1105,#1106,#1107);
#1105=CARTESIAN_POINT('',(0.,0.,3.1));
#1106=DIRECTION('',(0.,0.,1.));
#1107=DIRECTION('',(0.,-1.,0.));
#1108=FACE_OUTER_BOUND('',#1109,.T.);
#1109=EDGE_LOOP('',(#1416));
#1110=FACE_OUTER_BOUND('',#1111,.T.);
#1111=EDGE_LOOP('',(#1417));
#1112=CONICAL_SURFACE('',#1113,0.57959553513995,0.349065850398866);
#1113=AXIS2_PLACEMENT_3D('',#1114,#1115,#1116);
#1114=CARTESIAN_POINT('',(0.,0.,2.95000000000005));
#1115=DIRECTION('',(0.,0.,1.));
#1116=DIRECTION('',(-0.,1.,-0.));
#1117=FACE_OUTER_BOUND('',#1118,.T.);
#1118=EDGE_LOOP('',(#1418));
#1119=FACE_OUTER_BOUND('',#1120,.T.);
#1120=EDGE_LOOP('',(#1419));
#1121=CYLINDRICAL_SURFACE('',#1122,0.525);
#1122=AXIS2_PLACEMENT_3D('',#1123,#1124,#1125);
#1123=CARTESIAN_POINT('',(0.,0.,2.3));
#1124=DIRECTION('',(-0.,-0.,-1.));
#1125=DIRECTION('',(0.,-1.,0.));
#1126=FACE_OUTER_BOUND('',#1127,.T.);
#1127=EDGE_LOOP('',(#1420));
#1128=FACE_OUTER_BOUND('',#1129,.T.);
#1129=EDGE_LOOP('',(#1421));
#1130=CONICAL_SURFACE('',#1131,0.375,0.185347949995695);
#1131=AXIS2_PLACEMENT_3D('',#1132,#1133,#1134);
#1132=CARTESIAN_POINT('',(0.,0.,1.5));
#1133=DIRECTION('',(0.,0.,1.));
#1134=DIRECTION('',(-0.,1.,-0.));
#1135=FACE_BOUND('',#1136,.T.);
#1136=EDGE_LOOP('',(#1422));
#1137=FACE_BOUND('',#1138,.T.);
#1138=EDGE_LOOP('',(#1423));
#1139=PLANE('',#1140);
#1140=AXIS2_PLACEMENT_3D('',#1141,#1142,#1143);
#1141=CARTESIAN_POINT('',(0.,0.,0.7));
#1142=DIRECTION('',(-0.,-0.,-1.));
#1143=DIRECTION('',(0.,-1.,0.));
#1144=FACE_OUTER_BOUND('',#1145,.T.);
#1145=EDGE_LOOP('',(#1424));
#1146=FACE_OUTER_BOUND('',#1147,.T.);
#1147=EDGE_LOOP('',(#1425));
#1148=CYLINDRICAL_SURFACE('',#1149,0.525);
#1149=AXIS2_PLACEMENT_3D('',#1150,#1151,#1152);
#1150=CARTESIAN_POINT('',(0.,0.,0.45021515475689));
#1151=DIRECTION('',(-0.,-0.,-1.));
#1152=DIRECTION('',(0.,-1.,0.));
#1153=FACE_OUTER_BOUND('',#1154,.T.);
#1154=EDGE_LOOP('',(#1426));
#1155=FACE_OUTER_BOUND('',#1156,.T.);
#1156=EDGE_LOOP('',(#1427));
#1157=CONICAL_SURFACE('',#1158,0.4,1.02974425866379);
#1158=AXIS2_PLACEMENT_3D('',#1159,#1160,#1161);
#1159=CARTESIAN_POINT('',(0.,0.,0.375107577380634));
#1160=DIRECTION('',(0.,0.,1.));
#1161=DIRECTION('',(-0.,1.,-0.));
#1162=FACE_OUTER_BOUND('',#1163,.T.);
#1163=EDGE_LOOP('',(#1428));
#1164=FACE_OUTER_BOUND('',#1165,.T.);
#1165=EDGE_LOOP('',(#1429));
#1166=CYLINDRICAL_SURFACE('',#1167,0.275);
#1167=AXIS2_PLACEMENT_3D('',#1168,#1169,#1170);
#1168=CARTESIAN_POINT('',(0.,0.,-1.6));
#1169=DIRECTION('',(-0.,-0.,-1.));
#1170=DIRECTION('',(0.,-1.,0.));
#1171=FACE_OUTER_BOUND('',#1172,.T.);
#1172=EDGE_LOOP('',(#1430));
#1173=FACE_OUTER_BOUND('',#1174,.T.);
#1174=EDGE_LOOP('',(#1431));
#1175=CONICAL_SURFACE('',#1176,0.1525,1.02974425867665);
#1176=AXIS2_PLACEMENT_3D('',#1177,#1178,#1179);
#1177=CARTESIAN_POINT('',(0.,0.,-1.67360542583088));
#1178=DIRECTION('',(0.,0.,1.));
#1179=DIRECTION('',(-0.,1.,-0.));
#1180=FACE_BOUND('',#1181,.T.);
#1181=EDGE_LOOP('',(#1432));
#1182=PLANE('',#1183);
#1183=AXIS2_PLACEMENT_3D('',#1184,#1185,#1186);
#1184=CARTESIAN_POINT('',(0.,0.,-1.74721085166175));
#1185=DIRECTION('',(0.,0.,1.));
#1186=DIRECTION('',(0.,-1.,0.));
#1187=ORIENTED_EDGE('',*,*,#1433,.T.);
#1188=ORIENTED_EDGE('',*,*,#1434,.F.);
#1189=ORIENTED_EDGE('',*,*,#1435,.T.);
#1190=ORIENTED_EDGE('',*,*,#1436,.T.);
#1191=ORIENTED_EDGE('',*,*,#1437,.T.);
#1192=ORIENTED_EDGE('',*,*,#1438,.T.);
#1193=ORIENTED_EDGE('',*,*,#1439,.T.);
#1194=ORIENTED_EDGE('',*,*,#1440,.F.);
#1195=ORIENTED_EDGE('',*,*,#1441,.T.);
#1196=ORIENTED_EDGE('',*,*,#1442,.T.);
#1197=ORIENTED_EDGE('',*,*,#1443,.T.);
#1198=ORIENTED_EDGE('',*,*,#1444,.F.);
#1199=ORIENTED_EDGE('',*,*,#1445,.T.);
#1200=ORIENTED_EDGE('',*,*,#1446,.F.);
#1201=ORIENTED_EDGE('',*,*,#1447,.T.);
#1202=ORIENTED_EDGE('',*,*,#1448,.T.);
#1203=ORIENTED_EDGE('',*,*,#1449,.T.);
#1204=ORIENTED_EDGE('',*,*,#1450,.T.);
#1205=ORIENTED_EDGE('',*,*,#1451,.T.);
#1206=ORIENTED_EDGE('',*,*,#1452,.F.);
#1207=ORIENTED_EDGE('',*,*,#1453,.T.);
#1208=ORIENTED_EDGE('',*,*,#1454,.F.);
#1209=ORIENTED_EDGE('',*,*,#1455,.F.);
#1210=ORIENTED_EDGE('',*,*,#1456,.T.);
#1211=ORIENTED_EDGE('',*,*,#1457,.T.);
#1212=ORIENTED_EDGE('',*,*,#1458,.T.);
#1213=ORIENTED_EDGE('',*,*,#1459,.T.);
#1214=ORIENTED_EDGE('',*,*,#1452,.T.);
#1215=ORIENTED_EDGE('',*,*,#1460,.T.);
#1216=ORIENTED_EDGE('',*,*,#1461,.T.);
#1217=ORIENTED_EDGE('',*,*,#1462,.T.);
#1218=ORIENTED_EDGE('',*,*,#1463,.T.);
#1219=ORIENTED_EDGE('',*,*,#1464,.T.);
#1220=ORIENTED_EDGE('',*,*,#1465,.T.);
#1221=ORIENTED_EDGE('',*,*,#1466,.T.);
#1222=ORIENTED_EDGE('',*,*,#1467,.T.);
#1223=ORIENTED_EDGE('',*,*,#1468,.T.);
#1224=ORIENTED_EDGE('',*,*,#1469,.T.);
#1225=ORIENTED_EDGE('',*,*,#1470,.T.);
#1226=ORIENTED_EDGE('',*,*,#1434,.T.);
#1227=ORIENTED_EDGE('',*,*,#1471,.T.);
#1228=ORIENTED_EDGE('',*,*,#1472,.T.);
#1229=ORIENTED_EDGE('',*,*,#1473,.T.);
#1230=ORIENTED_EDGE('',*,*,#1440,.T.);
#1231=ORIENTED_EDGE('',*,*,#1474,.T.);
#1232=ORIENTED_EDGE('',*,*,#1475,.T.);
#1233=ORIENTED_EDGE('',*,*,#1476,.T.);
#1234=ORIENTED_EDGE('',*,*,#1444,.T.);
#1235=ORIENTED_EDGE('',*,*,#1477,.T.);
#1236=ORIENTED_EDGE('',*,*,#1478,.T.);
#1237=ORIENTED_EDGE('',*,*,#1479,.T.);
#1238=ORIENTED_EDGE('',*,*,#1454,.T.);
#1239=ORIENTED_EDGE('',*,*,#1480,.T.);
#1240=ORIENTED_EDGE('',*,*,#1481,.T.);
#1241=ORIENTED_EDGE('',*,*,#1482,.T.);
#1242=ORIENTED_EDGE('',*,*,#1446,.T.);
#1243=ORIENTED_EDGE('',*,*,#1483,.T.);
#1244=ORIENTED_EDGE('',*,*,#1484,.T.);
#1245=ORIENTED_EDGE('',*,*,#1485,.T.);
#1246=ORIENTED_EDGE('',*,*,#1486,.T.);
#1247=ORIENTED_EDGE('',*,*,#1487,.T.);
#1248=ORIENTED_EDGE('',*,*,#1448,.F.);
#1249=ORIENTED_EDGE('',*,*,#1488,.T.);
#1250=ORIENTED_EDGE('',*,*,#1489,.T.);
#1251=ORIENTED_EDGE('',*,*,#1490,.T.);
#1252=ORIENTED_EDGE('',*,*,#1456,.F.);
#1253=ORIENTED_EDGE('',*,*,#1491,.F.);
#1254=ORIENTED_EDGE('',*,*,#1492,.F.);
#1255=ORIENTED_EDGE('',*,*,#1493,.F.);
#1256=ORIENTED_EDGE('',*,*,#1442,.F.);
#1257=ORIENTED_EDGE('',*,*,#1494,.T.);
#1258=ORIENTED_EDGE('',*,*,#1495,.T.);
#1259=ORIENTED_EDGE('',*,*,#1496,.T.);
#1260=ORIENTED_EDGE('',*,*,#1438,.F.);
#1261=ORIENTED_EDGE('',*,*,#1497,.T.);
#1262=ORIENTED_EDGE('',*,*,#1498,.T.);
#1263=ORIENTED_EDGE('',*,*,#1499,.T.);
#1264=ORIENTED_EDGE('',*,*,#1436,.F.);
#1265=ORIENTED_EDGE('',*,*,#1500,.T.);
#1266=ORIENTED_EDGE('',*,*,#1501,.T.);
#1267=ORIENTED_EDGE('',*,*,#1502,.T.);
#1268=ORIENTED_EDGE('',*,*,#1503,.F.);
#1269=ORIENTED_EDGE('',*,*,#1504,.F.);
#1270=ORIENTED_EDGE('',*,*,#1505,.F.);
#1271=ORIENTED_EDGE('',*,*,#1506,.F.);
#1272=ORIENTED_EDGE('',*,*,#1507,.F.);
#1273=ORIENTED_EDGE('',*,*,#1508,.T.);
#1274=ORIENTED_EDGE('',*,*,#1509,.T.);
#1275=ORIENTED_EDGE('',*,*,#1510,.T.);
#1276=ORIENTED_EDGE('',*,*,#1450,.F.);
#1277=ORIENTED_EDGE('',*,*,#1511,.T.);
#1278=ORIENTED_EDGE('',*,*,#1512,.T.);
#1279=ORIENTED_EDGE('',*,*,#1513,.T.);
#1280=ORIENTED_EDGE('',*,*,#1514,.T.);
#1281=ORIENTED_EDGE('',*,*,#1515,.T.);
#1282=ORIENTED_EDGE('',*,*,#1516,.T.);
#1283=ORIENTED_EDGE('',*,*,#1494,.F.);
#1284=ORIENTED_EDGE('',*,*,#1441,.F.);
#1285=ORIENTED_EDGE('',*,*,#1476,.F.);
#1286=ORIENTED_EDGE('',*,*,#1517,.F.);
#1287=ORIENTED_EDGE('',*,*,#1496,.F.);
#1288=ORIENTED_EDGE('',*,*,#1518,.T.);
#1289=ORIENTED_EDGE('',*,*,#1474,.F.);
#1290=ORIENTED_EDGE('',*,*,#1439,.F.);
#1291=ORIENTED_EDGE('',*,*,#1495,.F.);
#1292=ORIENTED_EDGE('',*,*,#1517,.T.);
#1293=ORIENTED_EDGE('',*,*,#1475,.F.);
#1294=ORIENTED_EDGE('',*,*,#1518,.F.);
#1295=ORIENTED_EDGE('',*,*,#1489,.F.);
#1296=ORIENTED_EDGE('',*,*,#1519,.T.);
#1297=ORIENTED_EDGE('',*,*,#1481,.F.);
#1298=ORIENTED_EDGE('',*,*,#1520,.F.);
#1299=ORIENTED_EDGE('',*,*,#1488,.F.);
#1300=ORIENTED_EDGE('',*,*,#1447,.F.);
#1301=ORIENTED_EDGE('',*,*,#1482,.F.);
#1302=ORIENTED_EDGE('',*,*,#1519,.F.);
#1303=ORIENTED_EDGE('',*,*,#1490,.F.);
#1304=ORIENTED_EDGE('',*,*,#1520,.T.);
#1305=ORIENTED_EDGE('',*,*,#1480,.F.);
#1306=ORIENTED_EDGE('',*,*,#1453,.F.);
#1307=ORIENTED_EDGE('',*,*,#1497,.F.);
#1308=ORIENTED_EDGE('',*,*,#1437,.F.);
#1309=ORIENTED_EDGE('',*,*,#1473,.F.);
#1310=ORIENTED_EDGE('',*,*,#1521,.F.);
#1311=ORIENTED_EDGE('',*,*,#1499,.F.);
#1312=ORIENTED_EDGE('',*,*,#1522,.T.);
#1313=ORIENTED_EDGE('',*,*,#1471,.F.);
#1314=ORIENTED_EDGE('',*,*,#1433,.F.);
#1315=ORIENTED_EDGE('',*,*,#1498,.F.);
#1316=ORIENTED_EDGE('',*,*,#1521,.T.);
#1317=ORIENTED_EDGE('',*,*,#1472,.F.);
#1318=ORIENTED_EDGE('',*,*,#1522,.F.);
#1319=ORIENTED_EDGE('',*,*,#1512,.F.);
#1320=ORIENTED_EDGE('',*,*,#1523,.T.);
#1321=ORIENTED_EDGE('',*,*,#1458,.F.);
#1322=ORIENTED_EDGE('',*,*,#1524,.F.);
#1323=ORIENTED_EDGE('',*,*,#1511,.F.);
#1324=ORIENTED_EDGE('',*,*,#1449,.F.);
#1325=ORIENTED_EDGE('',*,*,#1459,.F.);
#1326=ORIENTED_EDGE('',*,*,#1523,.F.);
#1327=ORIENTED_EDGE('',*,*,#1487,.F.);
#1328=ORIENTED_EDGE('',*,*,#1524,.T.);
#1329=ORIENTED_EDGE('',*,*,#1457,.F.);
#1330=ORIENTED_EDGE('',*,*,#1445,.F.);
#1331=ORIENTED_EDGE('',*,*,#1500,.F.);
#1332=ORIENTED_EDGE('',*,*,#1435,.F.);
#1333=ORIENTED_EDGE('',*,*,#1470,.F.);
#1334=ORIENTED_EDGE('',*,*,#1525,.F.);
#1335=ORIENTED_EDGE('',*,*,#1493,.T.);
#1336=ORIENTED_EDGE('',*,*,#1526,.T.);
#1337=ORIENTED_EDGE('',*,*,#1477,.F.);
#1338=ORIENTED_EDGE('',*,*,#1443,.F.);
#1339=ORIENTED_EDGE('',*,*,#1510,.F.);
#1340=ORIENTED_EDGE('',*,*,#1527,.T.);
#1341=ORIENTED_EDGE('',*,*,#1460,.F.);
#1342=ORIENTED_EDGE('',*,*,#1451,.F.);
#1343=ORIENTED_EDGE('',*,*,#1491,.T.);
#1344=ORIENTED_EDGE('',*,*,#1455,.T.);
#1345=ORIENTED_EDGE('',*,*,#1479,.F.);
#1346=ORIENTED_EDGE('',*,*,#1528,.F.);
#1347=ORIENTED_EDGE('',*,*,#1509,.F.);
#1348=ORIENTED_EDGE('',*,*,#1529,.T.);
#1349=ORIENTED_EDGE('',*,*,#1461,.F.);
#1350=ORIENTED_EDGE('',*,*,#1527,.F.);
#1351=ORIENTED_EDGE('',*,*,#1508,.F.);
#1352=ORIENTED_EDGE('',*,*,#1530,.F.);
#1353=ORIENTED_EDGE('',*,*,#1462,.F.);
#1354=ORIENTED_EDGE('',*,*,#1529,.F.);
#1355=ORIENTED_EDGE('',*,*,#1530,.T.);
#1356=ORIENTED_EDGE('',*,*,#1507,.T.);
#1357=ORIENTED_EDGE('',*,*,#1531,.T.);
#1358=ORIENTED_EDGE('',*,*,#1463,.F.);
#1359=ORIENTED_EDGE('',*,*,#1506,.T.);
#1360=ORIENTED_EDGE('',*,*,#1532,.T.);
#1361=ORIENTED_EDGE('',*,*,#1464,.F.);
#1362=ORIENTED_EDGE('',*,*,#1531,.F.);
#1363=ORIENTED_EDGE('',*,*,#1505,.T.);
#1364=ORIENTED_EDGE('',*,*,#1533,.T.);
#1365=ORIENTED_EDGE('',*,*,#1465,.F.);
#1366=ORIENTED_EDGE('',*,*,#1532,.F.);
#1367=ORIENTED_EDGE('',*,*,#1504,.T.);
#1368=ORIENTED_EDGE('',*,*,#1534,.T.);
#1369=ORIENTED_EDGE('',*,*,#1466,.F.);
#1370=ORIENTED_EDGE('',*,*,#1533,.F.);
#1371=ORIENTED_EDGE('',*,*,#1535,.T.);
#1372=ORIENTED_EDGE('',*,*,#1467,.F.);
#1373=ORIENTED_EDGE('',*,*,#1534,.F.);
#1374=ORIENTED_EDGE('',*,*,#1503,.T.);
#1375=ORIENTED_EDGE('',*,*,#1502,.F.);
#1376=ORIENTED_EDGE('',*,*,#1536,.T.);
#1377=ORIENTED_EDGE('',*,*,#1468,.F.);
#1378=ORIENTED_EDGE('',*,*,#1535,.F.);
#1379=ORIENTED_EDGE('',*,*,#1501,.F.);
#1380=ORIENTED_EDGE('',*,*,#1525,.T.);
#1381=ORIENTED_EDGE('',*,*,#1469,.F.);
#1382=ORIENTED_EDGE('',*,*,#1536,.F.);
#1383=ORIENTED_EDGE('',*,*,#1492,.T.);
#1384=ORIENTED_EDGE('',*,*,#1528,.T.);
#1385=ORIENTED_EDGE('',*,*,#1478,.F.);
#1386=ORIENTED_EDGE('',*,*,#1526,.F.);
#1387=ORIENTED_EDGE('',*,*,#1483,.F.);
#1388=ORIENTED_EDGE('',*,*,#1513,.F.);
#1389=ORIENTED_EDGE('',*,*,#1484,.F.);
#1390=ORIENTED_EDGE('',*,*,#1514,.F.);
#1391=ORIENTED_EDGE('',*,*,#1485,.F.);
#1392=ORIENTED_EDGE('',*,*,#1515,.F.);
#1393=ORIENTED_EDGE('',*,*,#1486,.F.);
#1394=ORIENTED_EDGE('',*,*,#1516,.F.);
#1395=ORIENTED_EDGE('',*,*,#1537,.T.);
#1396=ORIENTED_EDGE('',*,*,#1537,.F.);
#1397=ORIENTED_EDGE('',*,*,#1538,.T.);
#1398=ORIENTED_EDGE('',*,*,#1539,.T.);
#1399=ORIENTED_EDGE('',*,*,#1538,.F.);
#1400=ORIENTED_EDGE('',*,*,#1539,.F.);
#1401=ORIENTED_EDGE('',*,*,#1540,.T.);
#1402=ORIENTED_EDGE('',*,*,#1541,.T.);
#1403=ORIENTED_EDGE('',*,*,#1540,.F.);
#1404=ORIENTED_EDGE('',*,*,#1541,.F.);
#1405=ORIENTED_EDGE('',*,*,#1542,.T.);
#1406=ORIENTED_EDGE('',*,*,#1542,.F.);
#1407=ORIENTED_EDGE('',*,*,#1543,.T.);
#1408=ORIENTED_EDGE('',*,*,#1544,.T.);
#1409=ORIENTED_EDGE('',*,*,#1543,.F.);
#1410=ORIENTED_EDGE('',*,*,#1545,.T.);
#1411=ORIENTED_EDGE('',*,*,#1544,.F.);
#1412=ORIENTED_EDGE('',*,*,#1546,.T.);
#1413=ORIENTED_EDGE('',*,*,#1545,.F.);
#1414=ORIENTED_EDGE('',*,*,#1546,.F.);
#1415=ORIENTED_EDGE('',*,*,#1547,.T.);
#1416=ORIENTED_EDGE('',*,*,#1548,.T.);
#1417=ORIENTED_EDGE('',*,*,#1547,.F.);
#1418=ORIENTED_EDGE('',*,*,#1548,.F.);
#1419=ORIENTED_EDGE('',*,*,#1549,.T.);
#1420=ORIENTED_EDGE('',*,*,#1550,.T.);
#1421=ORIENTED_EDGE('',*,*,#1549,.F.);
#1422=ORIENTED_EDGE('',*,*,#1551,.T.);
#1423=ORIENTED_EDGE('',*,*,#1550,.F.);
#1424=ORIENTED_EDGE('',*,*,#1551,.F.);
#1425=ORIENTED_EDGE('',*,*,#1552,.T.);
#1426=ORIENTED_EDGE('',*,*,#1553,.T.);
#1427=ORIENTED_EDGE('',*,*,#1552,.F.);
#1428=ORIENTED_EDGE('',*,*,#1553,.F.);
#1429=ORIENTED_EDGE('',*,*,#1554,.T.);
#1430=ORIENTED_EDGE('',*,*,#1555,.T.);
#1431=ORIENTED_EDGE('',*,*,#1554,.F.);
#1432=ORIENTED_EDGE('',*,*,#1555,.F.);
#1433=EDGE_CURVE('',#1556,#1557,#1558,.F.);
#1434=EDGE_CURVE('',#1559,#1557,#1560,.T.);
#1435=EDGE_CURVE('',#1559,#1561,#1562,.F.);
#1436=EDGE_CURVE('',#1561,#1556,#1563,.T.);
#1437=EDGE_CURVE('',#1564,#1565,#1566,.F.);
#1438=EDGE_CURVE('',#1565,#1567,#1568,.T.);
#1439=EDGE_CURVE('',#1567,#1569,#1570,.F.);
#1440=EDGE_CURVE('',#1564,#1569,#1571,.T.);
#1441=EDGE_CURVE('',#1572,#1573,#1574,.F.);
#1442=EDGE_CURVE('',#1573,#1575,#1576,.T.);
#1443=EDGE_CURVE('',#1575,#1577,#1578,.T.);
#1444=EDGE_CURVE('',#1572,#1577,#1579,.T.);
#1445=EDGE_CURVE('',#1580,#1581,#1582,.F.);
#1446=EDGE_CURVE('',#1583,#1581,#1584,.T.);
#1447=EDGE_CURVE('',#1583,#1585,#1586,.F.);
#1448=EDGE_CURVE('',#1585,#1580,#1587,.T.);
#1449=EDGE_CURVE('',#1588,#1589,#1590,.F.);
#1450=EDGE_CURVE('',#1589,#1591,#1592,.T.);
#1451=EDGE_CURVE('',#1591,#1593,#1594,.F.);
#1452=EDGE_CURVE('',#1588,#1593,#1595,.T.);
#1453=EDGE_CURVE('',#1596,#1597,#1598,.F.);
#1454=EDGE_CURVE('',#1599,#1597,#1600,.T.);
#1455=EDGE_CURVE('',#1601,#1599,#1602,.T.);
#1456=EDGE_CURVE('',#1601,#1596,#1603,.T.);
#1457=EDGE_CURVE('',#1581,#1604,#1605,.F.);
#1458=EDGE_CURVE('',#1604,#1606,#1607,.F.);
#1459=EDGE_CURVE('',#1606,#1588,#1608,.F.);
#1460=EDGE_CURVE('',#1593,#1609,#1610,.F.);
#1461=EDGE_CURVE('',#1609,#1611,#1612,.F.);
#1462=EDGE_CURVE('',#1611,#1613,#1614,.F.);
#1463=EDGE_CURVE('',#1613,#1615,#1616,.T.);
#1464=EDGE_CURVE('',#1615,#1617,#1618,.T.);
#1465=EDGE_CURVE('',#1617,#1619,#1620,.T.);
#1466=EDGE_CURVE('',#1619,#1621,#1622,.T.);
#1467=EDGE_CURVE('',#1621,#1623,#1624,.T.);
#1468=EDGE_CURVE('',#1623,#1625,#1626,.F.);
#1469=EDGE_CURVE('',#1625,#1627,#1628,.F.);
#1470=EDGE_CURVE('',#1627,#1559,#1629,.F.);
#1471=EDGE_CURVE('',#1557,#1630,#1631,.F.);
#1472=EDGE_CURVE('',#1630,#1632,#1633,.F.);
#1473=EDGE_CURVE('',#1632,#1564,#1634,.F.);
#1474=EDGE_CURVE('',#1569,#1635,#1636,.F.);
#1475=EDGE_CURVE('',#1635,#1637,#1638,.F.);
#1476=EDGE_CURVE('',#1637,#1572,#1639,.F.);
#1477=EDGE_CURVE('',#1577,#1640,#1641,.T.);
#1478=EDGE_CURVE('',#1640,#1642,#1643,.T.);
#1479=EDGE_CURVE('',#1642,#1599,#1644,.T.);
#1480=EDGE_CURVE('',#1597,#1645,#1646,.F.);
#1481=EDGE_CURVE('',#1645,#1647,#1648,.F.);
#1482=EDGE_CURVE('',#1647,#1583,#1649,.F.);
#1483=EDGE_CURVE('',#1650,#1650,#1651,.F.);
#1484=EDGE_CURVE('',#1652,#1652,#1653,.F.);
#1485=EDGE_CURVE('',#1654,#1654,#1655,.F.);
#1486=EDGE_CURVE('',#1656,#1656,#1657,.F.);
#1487=EDGE_CURVE('',#1658,#1580,#1659,.T.);
#1488=EDGE_CURVE('',#1585,#1660,#1661,.T.);
#1489=EDGE_CURVE('',#1660,#1662,#1663,.T.);
#1490=EDGE_CURVE('',#1662,#1596,#1664,.T.);
#1491=EDGE_CURVE('',#1665,#1601,#1666,.T.);
#1492=EDGE_CURVE('',#1667,#1665,#1668,.T.);
#1493=EDGE_CURVE('',#1575,#1667,#1669,.T.);
#1494=EDGE_CURVE('',#1573,#1670,#1671,.T.);
#1495=EDGE_CURVE('',#1670,#1672,#1673,.T.);
#1496=EDGE_CURVE('',#1672,#1567,#1674,.T.);
#1497=EDGE_CURVE('',#1565,#1675,#1676,.T.);
#1498=EDGE_CURVE('',#1675,#1677,#1678,.T.);
#1499=EDGE_CURVE('',#1677,#1556,#1679,.T.);
#1500=EDGE_CURVE('',#1561,#1680,#1681,.T.);
#1501=EDGE_CURVE('',#1680,#1682,#1683,.T.);
#1502=EDGE_CURVE('',#1682,#1684,#1685,.T.);
#1503=EDGE_CURVE('',#1686,#1684,#1687,.T.);
#1504=EDGE_CURVE('',#1688,#1686,#1689,.T.);
#1505=EDGE_CURVE('',#1690,#1688,#1691,.T.);
#1506=EDGE_CURVE('',#1692,#1690,#1693,.T.);
#1507=EDGE_CURVE('',#1694,#1692,#1695,.T.);
#1508=EDGE_CURVE('',#1694,#1696,#1697,.T.);
#1509=EDGE_CURVE('',#1696,#1698,#1699,.T.);
#1510=EDGE_CURVE('',#1698,#1591,#1700,.T.);
#1511=EDGE_CURVE('',#1589,#1701,#1702,.T.);
#1512=EDGE_CURVE('',#1701,#1658,#1703,.T.);
#1513=EDGE_CURVE('',#1704,#1704,#1705,.T.);
#1514=EDGE_CURVE('',#1706,#1706,#1707,.T.);
#1515=EDGE_CURVE('',#1708,#1708,#1709,.T.);
#1516=EDGE_CURVE('',#1710,#1710,#1711,.T.);
#1517=EDGE_CURVE('',#1670,#1637,#1712,.T.);
#1518=EDGE_CURVE('',#1672,#1635,#1713,.T.);
#1519=EDGE_CURVE('',#1660,#1647,#1714,.T.);
#1520=EDGE_CURVE('',#1662,#1645,#1715,.T.);
#1521=EDGE_CURVE('',#1675,#1632,#1716,.T.);
#1522=EDGE_CURVE('',#1677,#1630,#1717,.T.);
#1523=EDGE_CURVE('',#1701,#1606,#1718,.T.);
#1524=EDGE_CURVE('',#1658,#1604,#1719,.T.);
#1525=EDGE_CURVE('',#1680,#1627,#1720,.T.);
#1526=EDGE_CURVE('',#1667,#1640,#1721,.T.);
#1527=EDGE_CURVE('',#1698,#1609,#1722,.T.);
#1528=EDGE_CURVE('',#1665,#1642,#1723,.T.);
#1529=EDGE_CURVE('',#1696,#1611,#1724,.T.);
#1530=EDGE_CURVE('',#1613,#1694,#1725,.F.);
#1531=EDGE_CURVE('',#1692,#1615,#1726,.T.);
#1532=EDGE_CURVE('',#1690,#1617,#1727,.T.);
#1533=EDGE_CURVE('',#1688,#1619,#1728,.T.);
#1534=EDGE_CURVE('',#1686,#1621,#1729,.T.);
#1535=EDGE_CURVE('',#1684,#1623,#1730,.F.);
#1536=EDGE_CURVE('',#1682,#1625,#1731,.T.);
#1537=EDGE_CURVE('',#1732,#1732,#1733,.T.);
#1538=EDGE_CURVE('',#1734,#1734,#1735,.T.);
#1539=EDGE_CURVE('',#1736,#1736,#1737,.T.);
#1540=EDGE_CURVE('',#1738,#1738,#1739,.T.);
#1541=EDGE_CURVE('',#1740,#1740,#1741,.T.);
#1542=EDGE_CURVE('',#1742,#1742,#1743,.T.);
#1543=EDGE_CURVE('',#1744,#1744,#1745,.T.);
#1544=EDGE_CURVE('',#1746,#1746,#1747,.T.);
#1545=EDGE_CURVE('',#1748,#1748,#1749,.T.);
#1546=EDGE_CURVE('',#1750,#1750,#1751,.T.);
#1547=EDGE_CURVE('',#1752,#1752,#1753,.T.);
#1548=EDGE_CURVE('',#1754,#1754,#1755,.T.);
#1549=EDGE_CURVE('',#1756,#1756,#1757,.T.);
#1550=EDGE_CURVE('',#1758,#1758,#1759,.T.);
#1551=EDGE_CURVE('',#1760,#1760,#1761,.T.);
#1552=EDGE_CURVE('',#1762,#1762,#1763,.T.);
#1553=EDGE_CURVE('',#1764,#1764,#1765,.T.);
#1554=EDGE_CURVE('',#1766,#1766,#1767,.T.);
#1555=EDGE_CURVE('',#1768,#1768,#1769,.T.);
#1556=VERTEX_POINT('',#1770);
#1557=VERTEX_POINT('',#1771);
#1558=LINE('',#1772,#1773);
#1559=VERTEX_POINT('',#1775);
#1560=LINE('',#1776,#1777);
#1561=VERTEX_POINT('',#1779);
#1562=LINE('',#1780,#1781);
#1563=LINE('',#1783,#1784);
#1564=VERTEX_POINT('',#1786);
#1565=VERTEX_POINT('',#1787);
#1566=LINE('',#1788,#1789);
#1567=VERTEX_POINT('',#1791);
#1568=LINE('',#1792,#1793);
#1569=VERTEX_POINT('',#1795);
#1570=LINE('',#1796,#1797);
#1571=LINE('',#1799,#1800);
#1572=VERTEX_POINT('',#1802);
#1573=VERTEX_POINT('',#1803);
#1574=LINE('',#1804,#1805);
#1575=VERTEX_POINT('',#1807);
#1576=LINE('',#1808,#1809);
#1577=VERTEX_POINT('',#1811);
#1578=LINE('',#1812,#1813);
#1579=LINE('',#1815,#1816);
#1580=VERTEX_POINT('',#1818);
#1581=VERTEX_POINT('',#1819);
#1582=LINE('',#1820,#1821);
#1583=VERTEX_POINT('',#1823);
#1584=LINE('',#1824,#1825);
#1585=VERTEX_POINT('',#1827);
#1586=LINE('',#1828,#1829);
#1587=LINE('',#1831,#1832);
#1588=VERTEX_POINT('',#1834);
#1589=VERTEX_POINT('',#1835);
#1590=LINE('',#1836,#1837);
#1591=VERTEX_POINT('',#1839);
#1592=LINE('',#1840,#1841);
#1593=VERTEX_POINT('',#1843);
#1594=LINE('',#1844,#1845);
#1595=LINE('',#1847,#1848);
#1596=VERTEX_POINT('',#1850);
#1597=VERTEX_POINT('',#1851);
#1598=LINE('',#1852,#1853);
#1599=VERTEX_POINT('',#1855);
#1600=LINE('',#1856,#1857);
#1601=VERTEX_POINT('',#1859);
#1602=LINE('',#1860,#1861);
#1603=LINE('',#1863,#1864);
#1604=VERTEX_POINT('',#1866);
#1605=LINE('',#1867,#1868);
#1606=VERTEX_POINT('',#1870);
#1607=CIRCLE('',#1871,0.03);
#1608=LINE('',#1875,#1876);
#1609=VERTEX_POINT('',#1878);
#1610=LINE('',#1879,#1880);
#1611=VERTEX_POINT('',#1882);
#1612=CIRCLE('',#1883,0.03);
#1613=VERTEX_POINT('',#1887);
#1614=LINE('',#1888,#1889);
#1615=VERTEX_POINT('',#1891);
#1616=LINE('',#1892,#1893);
#1617=VERTEX_POINT('',#1895);
#1618=LINE('',#1896,#1897);
#1619=VERTEX_POINT('',#1899);
#1620=LINE('',#1900,#1901);
#1621=VERTEX_POINT('',#1903);
#1622=LINE('',#1904,#1905);
#1623=VERTEX_POINT('',#1907);
#1624=LINE('',#1908,#1909);
#1625=VERTEX_POINT('',#1911);
#1626=LINE('',#1912,#1913);
#1627=VERTEX_POINT('',#1915);
#1628=CIRCLE('',#1916,0.03);
#1629=LINE('',#1920,#1921);
#1630=VERTEX_POINT('',#1923);
#1631=LINE('',#1924,#1925);
#1632=VERTEX_POINT('',#1927);
#1633=CIRCLE('',#1928,0.03);
#1634=LINE('',#1932,#1933);
#1635=VERTEX_POINT('',#1935);
#1636=LINE('',#1936,#1937);
#1637=VERTEX_POINT('',#1939);
#1638=CIRCLE('',#1940,0.03);
#1639=LINE('',#1944,#1945);
#1640=VERTEX_POINT('',#1947);
#1641=LINE('',#1948,#1949);
#1642=VERTEX_POINT('',#1951);
#1643=LINE('',#1952,#1953);
#1644=LINE('',#1955,#1956);
#1645=VERTEX_POINT('',#1958);
#1646=LINE('',#1959,#1960);
#1647=VERTEX_POINT('',#1962);
#1648=CIRCLE('',#1963,0.03);
#1649=LINE('',#1967,#1968);
#1650=VERTEX_POINT('',#1970);
#1651=CIRCLE('',#1971,0.66);
#1652=VERTEX_POINT('',#1975);
#1653=CIRCLE('',#1976,0.66);
#1654=VERTEX_POINT('',#1980);
#1655=CIRCLE('',#1981,0.66);
#1656=VERTEX_POINT('',#1985);
#1657=CIRCLE('',#1986,0.66);
#1658=VERTEX_POINT('',#1990);
#1659=LINE('',#1991,#1992);
#1660=VERTEX_POINT('',#1994);
#1661=LINE('',#1995,#1996);
#1662=VERTEX_POINT('',#1998);
#1663=CIRCLE('',#1999,0.03);
#1664=LINE('',#2003,#2004);
#1665=VERTEX_POINT('',#2006);
#1666=LINE('',#2007,#2008);
#1667=VERTEX_POINT('',#2010);
#1668=LINE('',#2011,#2012);
#1669=LINE('',#2014,#2015);
#1670=VERTEX_POINT('',#2017);
#1671=LINE('',#2018,#2019);
#1672=VERTEX_POINT('',#2021);
#1673=CIRCLE('',#2022,0.03);
#1674=LINE('',#2026,#2027);
#1675=VERTEX_POINT('',#2029);
#1676=LINE('',#2030,#2031);
#1677=VERTEX_POINT('',#2033);
#1678=CIRCLE('',#2034,0.03);
#1679=LINE('',#2038,#2039);
#1680=VERTEX_POINT('',#2041);
#1681=LINE('',#2042,#2043);
#1682=VERTEX_POINT('',#2045);
#1683=CIRCLE('',#2046,0.03);
#1684=VERTEX_POINT('',#2050);
#1685=LINE('',#2051,#2052);
#1686=VERTEX_POINT('',#2054);
#1687=LINE('',#2055,#2056);
#1688=VERTEX_POINT('',#2058);
#1689=LINE('',#2059,#2060);
#1690=VERTEX_POINT('',#2062);
#1691=LINE('',#2063,#2064);
#1692=VERTEX_POINT('',#2066);
#1693=LINE('',#2067,#2068);
#1694=VERTEX_POINT('',#2070);
#1695=LINE('',#2071,#2072);
#1696=VERTEX_POINT('',#2074);
#1697=LINE('',#2075,#2076);
#1698=VERTEX_POINT('',#2078);
#1699=CIRCLE('',#2079,0.03);
#1700=LINE('',#2083,#2084);
#1701=VERTEX_POINT('',#2086);
#1702=LINE('',#2087,#2088);
#1703=CIRCLE('',#2090,0.03);
#1704=VERTEX_POINT('',#2094);
#1705=CIRCLE('',#2095,0.66);
#1706=VERTEX_POINT('',#2099);
#1707=CIRCLE('',#2100,0.66);
#1708=VERTEX_POINT('',#2104);
#1709=CIRCLE('',#2105,0.66);
#1710=VERTEX_POINT('',#2109);
#1711=CIRCLE('',#2110,0.66);
#1712=LINE('',#2114,#2115);
#1713=LINE('',#2117,#2118);
#1714=LINE('',#2120,#2121);
#1715=LINE('',#2123,#2124);
#1716=LINE('',#2126,#2127);
#1717=LINE('',#2129,#2130);
#1718=LINE('',#2132,#2133);
#1719=LINE('',#2135,#2136);
#1720=LINE('',#2138,#2139);
#1721=LINE('',#2141,#2142);
#1722=LINE('',#2144,#2145);
#1723=LINE('',#2147,#2148);
#1724=LINE('',#2150,#2151);
#1725=LINE('',#2153,#2154);
#1726=LINE('',#2156,#2157);
#1727=LINE('',#2159,#2160);
#1728=LINE('',#2162,#2163);
#1729=LINE('',#2165,#2166);
#1730=LINE('',#2168,#2169);
#1731=LINE('',#2171,#2172);
#1732=VERTEX_POINT('',#2174);
#1733=CIRCLE('',#2175,0.19);
#1734=VERTEX_POINT('',#2179);
#1735=CIRCLE('',#2180,0.38);
#1736=VERTEX_POINT('',#2184);
#1737=CIRCLE('',#2185,0.38);
#1738=VERTEX_POINT('',#2189);
#1739=CIRCLE('',#2190,0.66);
#1740=VERTEX_POINT('',#2194);
#1741=CIRCLE('',#2195,0.66);
#1742=VERTEX_POINT('',#2199);
#1743=CIRCLE('',#2200,0.81);
#1744=VERTEX_POINT('',#2204);
#1745=CIRCLE('',#2205,0.66);
#1746=VERTEX_POINT('',#2209);
#1747=CIRCLE('',#2210,0.66);
#1748=VERTEX_POINT('',#2214);
#1749=CIRCLE('',#2215,0.915);
#1750=VERTEX_POINT('',#2219);
#1751=CIRCLE('',#2220,0.915);
#1752=VERTEX_POINT('',#2224);
#1753=CIRCLE('',#2225,0.634191070279899);
#1754=VERTEX_POINT('',#2229);
#1755=CIRCLE('',#2230,0.525);
#1756=VERTEX_POINT('',#2234);
#1757=CIRCLE('',#2235,0.525);
#1758=VERTEX_POINT('',#2239);
#1759=CIRCLE('',#2240,0.225);
#1760=VERTEX_POINT('',#2244);
#1761=CIRCLE('',#2245,0.525);
#1762=VERTEX_POINT('',#2249);
#1763=CIRCLE('',#2250,0.525);
#1764=VERTEX_POINT('',#2254);
#1765=CIRCLE('',#2255,0.275);
#1766=VERTEX_POINT('',#2259);
#1767=CIRCLE('',#2260,0.275);
#1768=VERTEX_POINT('',#2264);
#1769=CIRCLE('',#2265,0.03);
#1770=CARTESIAN_POINT('',(3.65099559473196,-1.27,1.07));
#1771=CARTESIAN_POINT('',(3.65099559473196,-1.27,2.34));
#1772=CARTESIAN_POINT('',(3.65099559473196,-1.27,2.34));
#1773=VECTOR('',#1774,1.);
#1774=DIRECTION('',(0.,0.,-1.));
#1775=CARTESIAN_POINT('',(1.42900440526804,-1.27,2.34));
#1776=CARTESIAN_POINT('',(1.42900440526804,-1.27,2.34));
#1777=VECTOR('',#1778,1.);
#1778=DIRECTION('',(1.,0.,0.));
#1779=CARTESIAN_POINT('',(1.42900440526804,-1.27,1.07));
#1780=CARTESIAN_POINT('',(1.42900440526804,-1.27,1.07));
#1781=VECTOR('',#1782,1.);
#1782=DIRECTION('',(0.,0.,1.));
#1783=CARTESIAN_POINT('',(1.42900440526804,-1.27,1.07));
#1784=VECTOR('',#1785,1.);
#1785=DIRECTION('',(1.,0.,0.));
#1786=CARTESIAN_POINT('',(3.96900440526804,-1.27,2.34));
#1787=CARTESIAN_POINT('',(3.96900440526804,-1.27,1.07));
#1788=CARTESIAN_POINT('',(3.96900440526804,-1.27,1.07));
#1789=VECTOR('',#1790,1.);
#1790=DIRECTION('',(0.,0.,1.));
#1791=CARTESIAN_POINT('',(6.19099559473196,-1.27,1.07));
#1792=CARTESIAN_POINT('',(3.96900440526804,-1.27,1.07));
#1793=VECTOR('',#1794,1.);
#1794=DIRECTION('',(1.,0.,0.));
#1795=CARTESIAN_POINT('',(6.19099559473196,-1.27,2.34));
#1796=CARTESIAN_POINT('',(6.19099559473196,-1.27,2.34));
#1797=VECTOR('',#1798,1.);
#1798=DIRECTION('',(0.,0.,-1.));
#1799=CARTESIAN_POINT('',(3.96900440526804,-1.27,2.34));
#1800=VECTOR('',#1801,1.);
#1801=DIRECTION('',(1.,0.,0.));
#1802=CARTESIAN_POINT('',(6.50900440526804,-1.27,2.34));
#1803=CARTESIAN_POINT('',(6.50900440526804,-1.27,1.07));
#1804=CARTESIAN_POINT('',(6.50900440526804,-1.27,1.07));
#1805=VECTOR('',#1806,1.);
#1806=DIRECTION('',(0.,0.,1.));
#1807=CARTESIAN_POINT('',(8.8651077025535,-1.27,1.07));
#1808=CARTESIAN_POINT('',(6.50900440526804,-1.27,1.07));
#1809=VECTOR('',#1810,1.);
#1810=DIRECTION('',(1.,0.,0.));
#1811=CARTESIAN_POINT('',(8.8651077025535,-1.27,2.34));
#1812=CARTESIAN_POINT('',(8.8651077025535,-1.27,1.07));
#1813=VECTOR('',#1814,1.);
#1814=DIRECTION('',(0.,0.,1.));
#1815=CARTESIAN_POINT('',(6.50900440526804,-1.27,2.34));
#1816=VECTOR('',#1817,1.);
#1817=DIRECTION('',(1.,0.,-1.88484609465855E-016));
#1818=CARTESIAN_POINT('',(3.96900440527185,1.27,1.07));
#1819=CARTESIAN_POINT('',(3.96900440527185,1.27,2.34));
#1820=CARTESIAN_POINT('',(3.96900440527185,1.27,2.34));
#1821=VECTOR('',#1822,1.);
#1822=DIRECTION('',(0.,0.,-1.));
#1823=CARTESIAN_POINT('',(6.19099559472815,1.27,2.34));
#1824=CARTESIAN_POINT('',(6.19099559472815,1.27,2.34));
#1825=VECTOR('',#1826,1.);
#1826=DIRECTION('',(-1.,0.,-1.99860922922348E-016));
#1827=CARTESIAN_POINT('',(6.19099559472815,1.27,1.07));
#1828=CARTESIAN_POINT('',(6.19099559472815,1.27,1.07));
#1829=VECTOR('',#1830,1.);
#1830=DIRECTION('',(0.,0.,1.));
#1831=CARTESIAN_POINT('',(6.19099559472815,1.27,1.07));
#1832=VECTOR('',#1833,1.);
#1833=DIRECTION('',(-1.,0.,0.));
#1834=CARTESIAN_POINT('',(3.65099559472815,1.27,2.34));
#1835=CARTESIAN_POINT('',(3.65099559472815,1.27,1.07));
#1836=CARTESIAN_POINT('',(3.65099559472815,1.27,1.07));
#1837=VECTOR('',#1838,1.);
#1838=DIRECTION('',(0.,0.,1.));
#1839=CARTESIAN_POINT('',(1.42900440527185,1.27,1.07));
#1840=CARTESIAN_POINT('',(3.65099559472815,1.27,1.07));
#1841=VECTOR('',#1842,1.);
#1842=DIRECTION('',(-1.,0.,0.));
#1843=CARTESIAN_POINT('',(1.42900440527185,1.27,2.34));
#1844=CARTESIAN_POINT('',(1.42900440527185,1.27,2.34));
#1845=VECTOR('',#1846,1.);
#1846=DIRECTION('',(0.,0.,-1.));
#1847=CARTESIAN_POINT('',(3.65099559472815,1.27,2.34));
#1848=VECTOR('',#1849,1.);
#1849=DIRECTION('',(-1.,0.,-1.99860922922348E-016));
#1850=CARTESIAN_POINT('',(6.50900440527185,1.27,1.07));
#1851=CARTESIAN_POINT('',(6.50900440527185,1.27,2.34));
#1852=CARTESIAN_POINT('',(6.50900440527185,1.27,2.34));
#1853=VECTOR('',#1854,1.);
#1854=DIRECTION('',(0.,0.,-1.));
#1855=CARTESIAN_POINT('',(8.8651077025535,1.27,2.34));
#1856=CARTESIAN_POINT('',(8.8651077025535,1.27,2.34));
#1857=VECTOR('',#1858,1.);
#1858=DIRECTION('',(-1.,0.,1.88484609466159E-016));
#1859=CARTESIAN_POINT('',(8.8651077025535,1.27,1.07));
#1860=CARTESIAN_POINT('',(8.8651077025535,1.27,1.07));
#1861=VECTOR('',#1862,1.);
#1862=DIRECTION('',(0.,0.,1.));
#1863=CARTESIAN_POINT('',(8.8651077025535,1.27,1.07));
#1864=VECTOR('',#1865,1.);
#1865=DIRECTION('',(-1.,0.,0.));
#1866=CARTESIAN_POINT('',(3.83718923361106,0.987321452147693,2.34));
#1867=CARTESIAN_POINT('',(3.83718923361106,0.987321452147693,2.34));
#1868=VECTOR('',#1869,1.);
#1869=DIRECTION('',(0.422618261743663,0.906307787035268,0.));
#1870=CARTESIAN_POINT('',(3.78281076638894,0.987321452147693,2.34));
#1871=AXIS2_PLACEMENT_3D('',#1872,#1873,#1874);
#1872=CARTESIAN_POINT('',(3.81,1.,2.34));
#1873=DIRECTION('',(-0.,0.,1.));
#1874=DIRECTION('',(-0.906307787035284,-0.422618261743629,0.));
#1875=CARTESIAN_POINT('',(3.65099559472815,1.27,2.34));
#1876=VECTOR('',#1877,1.);
#1877=DIRECTION('',(0.422618261743666,-0.906307787035267,0.));
#1878=CARTESIAN_POINT('',(1.29718923361106,0.987321452147693,2.34));
#1879=CARTESIAN_POINT('',(1.29718923361106,0.987321452147693,2.34));
#1880=VECTOR('',#1881,1.);
#1881=DIRECTION('',(0.422618261743663,0.906307787035268,0.));
#1882=CARTESIAN_POINT('',(1.24281076638894,0.987321452147693,2.34));
#1883=AXIS2_PLACEMENT_3D('',#1884,#1885,#1886);
#1884=CARTESIAN_POINT('',(1.27,1.,2.34));
#1885=DIRECTION('',(-0.,0.,1.));
#1886=DIRECTION('',(-0.906307787035285,-0.422618261743626,0.));
#1887=CARTESIAN_POINT('',(1.11099559472815,1.27,2.34));
#1888=CARTESIAN_POINT('',(1.11099559472815,1.27,2.34));
#1889=VECTOR('',#1890,1.);
#1890=DIRECTION('',(0.422618261743666,-0.906307787035267,0.));
#1891=CARTESIAN_POINT('',(-1.2451077025535,1.27,2.34));
#1892=CARTESIAN_POINT('',(1.11099559472815,1.27,2.34));
#1893=VECTOR('',#1894,1.);
#1894=DIRECTION('',(-1.,0.,0.));
#1895=CARTESIAN_POINT('',(-1.385,0.970000000000001,2.34));
#1896=CARTESIAN_POINT('',(-1.2451077025535,1.27,2.34));
#1897=VECTOR('',#1898,1.);
#1898=DIRECTION('',(-0.4226182617407,-0.90630778703665,0.));
#1899=CARTESIAN_POINT('',(-1.385,-0.97,2.34));
#1900=CARTESIAN_POINT('',(-1.385,0.970000000000001,2.34));
#1901=VECTOR('',#1902,1.);
#1902=DIRECTION('',(-2.28911963840238E-016,-1.,0.));
#1903=CARTESIAN_POINT('',(-1.2451077025535,-1.27,2.34));
#1904=CARTESIAN_POINT('',(-1.385,-0.97,2.34));
#1905=VECTOR('',#1906,1.);
#1906=DIRECTION('',(0.422618261740699,-0.90630778703665,0.));
#1907=CARTESIAN_POINT('',(1.11099559473196,-1.27,2.34));
#1908=CARTESIAN_POINT('',(-1.2451077025535,-1.27,2.34));
#1909=VECTOR('',#1910,1.);
#1910=DIRECTION('',(1.,0.,1.88484609465855E-016));
#1911=CARTESIAN_POINT('',(1.24281076638794,-0.987321452149846,2.34));
#1912=CARTESIAN_POINT('',(1.24281076638794,-0.987321452149846,2.34));
#1913=VECTOR('',#1914,1.);
#1914=DIRECTION('',(-0.422618261733637,-0.906307787039943,0.));
#1915=CARTESIAN_POINT('',(1.29718923360911,-0.987321452143519,2.34));
#1916=AXIS2_PLACEMENT_3D('',#1917,#1918,#1919);
#1917=CARTESIAN_POINT('',(1.27,-1.,2.34));
#1918=DIRECTION('',(0.,-0.,1.));
#1919=DIRECTION('',(0.906307786970437,0.422618261882694,0.));
#1920=CARTESIAN_POINT('',(1.42900440526804,-1.27,2.34));
#1921=VECTOR('',#1922,1.);
#1922=DIRECTION('',(-0.422618261733638,0.906307787039943,0.));
#1923=CARTESIAN_POINT('',(3.78281076638794,-0.987321452149846,2.34));
#1924=CARTESIAN_POINT('',(3.78281076638794,-0.987321452149846,2.34));
#1925=VECTOR('',#1926,1.);
#1926=DIRECTION('',(-0.422618261733636,-0.906307787039944,0.));
#1927=CARTESIAN_POINT('',(3.83718923360911,-0.987321452143519,2.34));
#1928=AXIS2_PLACEMENT_3D('',#1929,#1930,#1931);
#1929=CARTESIAN_POINT('',(3.81,-1.,2.34));
#1930=DIRECTION('',(0.,-0.,1.));
#1931=DIRECTION('',(0.906307786970438,0.422618261882691,0.));
#1932=CARTESIAN_POINT('',(3.96900440526804,-1.27,2.34));
#1933=VECTOR('',#1934,1.);
#1934=DIRECTION('',(-0.422618261733638,0.906307787039943,0.));
#1935=CARTESIAN_POINT('',(6.32281076638794,-0.987321452149846,2.34));
#1936=CARTESIAN_POINT('',(6.32281076638794,-0.987321452149846,2.34));
#1937=VECTOR('',#1938,1.);
#1938=DIRECTION('',(-0.422618261733638,-0.906307787039943,0.));
#1939=CARTESIAN_POINT('',(6.37718923360911,-0.987321452143519,2.34));
#1940=AXIS2_PLACEMENT_3D('',#1941,#1942,#1943);
#1941=CARTESIAN_POINT('',(6.35,-1.,2.34));
#1942=DIRECTION('',(0.,-0.,1.));
#1943=DIRECTION('',(0.906307786970438,0.422618261882691,0.));
#1944=CARTESIAN_POINT('',(6.50900440526804,-1.27,2.34));
#1945=VECTOR('',#1946,1.);
#1946=DIRECTION('',(-0.422618261733636,0.906307787039943,0.));
#1947=CARTESIAN_POINT('',(9.005,-0.97,2.34));
#1948=CARTESIAN_POINT('',(8.8651077025535,-1.27,2.34));
#1949=VECTOR('',#1950,1.);
#1950=DIRECTION('',(0.422618261740694,0.906307787036653,0.));
#1951=CARTESIAN_POINT('',(9.005,0.97,2.34));
#1952=CARTESIAN_POINT('',(9.005,-0.97,2.34));
#1953=VECTOR('',#1954,1.);
#1954=DIRECTION('',(9.15647855360954E-016,1.,0.));
#1955=CARTESIAN_POINT('',(9.005,0.97,2.34));
#1956=VECTOR('',#1957,1.);
#1957=DIRECTION('',(-0.422618261740698,0.906307787036651,0.));
#1958=CARTESIAN_POINT('',(6.37718923361106,0.987321452147693,2.34));
#1959=CARTESIAN_POINT('',(6.37718923361106,0.987321452147693,2.34));
#1960=VECTOR('',#1961,1.);
#1961=DIRECTION('',(0.422618261743664,0.906307787035268,0.));
#1962=CARTESIAN_POINT('',(6.32281076638894,0.987321452147693,2.34));
#1963=AXIS2_PLACEMENT_3D('',#1964,#1965,#1966);
#1964=CARTESIAN_POINT('',(6.35,1.,2.34));
#1965=DIRECTION('',(-0.,0.,1.));
#1966=DIRECTION('',(-0.906307787035284,-0.422618261743629,0.));
#1967=CARTESIAN_POINT('',(6.19099559472815,1.27,2.34));
#1968=VECTOR('',#1969,1.);
#1969=DIRECTION('',(0.422618261743667,-0.906307787035266,0.));
#1970=CARTESIAN_POINT('',(0.66,-8.08266887437253E-017,2.34));
#1971=AXIS2_PLACEMENT_3D('',#1972,#1973,#1974);
#1972=CARTESIAN_POINT('',(0.,0.,2.34));
#1973=DIRECTION('',(0.,0.,1.));
#1974=DIRECTION('',(1.,0.,0.));
#1975=CARTESIAN_POINT('',(8.28,-8.08266887437253E-017,2.34));
#1976=AXIS2_PLACEMENT_3D('',#1977,#1978,#1979);
#1977=CARTESIAN_POINT('',(7.62,0.,2.34));
#1978=DIRECTION('',(0.,0.,1.));
#1979=DIRECTION('',(1.,0.,0.));
#1980=CARTESIAN_POINT('',(5.74,-8.08266887437253E-017,2.34));
#1981=AXIS2_PLACEMENT_3D('',#1982,#1983,#1984);
#1982=CARTESIAN_POINT('',(5.08,0.,2.34));
#1983=DIRECTION('',(0.,0.,1.));
#1984=DIRECTION('',(1.,0.,0.));
#1985=CARTESIAN_POINT('',(3.2,-8.08266887437253E-017,2.34));
#1986=AXIS2_PLACEMENT_3D('',#1987,#1988,#1989);
#1987=CARTESIAN_POINT('',(2.54,0.,2.34));
#1988=DIRECTION('',(0.,0.,1.));
#1989=DIRECTION('',(1.,0.,0.));
#1990=CARTESIAN_POINT('',(3.83718923361106,0.987321452147693,1.07));
#1991=CARTESIAN_POINT('',(3.83718923361106,0.987321452147693,1.07));
#1992=VECTOR('',#1993,1.);
#1993=DIRECTION('',(0.422618261743663,0.906307787035268,0.));
#1994=CARTESIAN_POINT('',(6.32281076638894,0.987321452147693,1.07));
#1995=CARTESIAN_POINT('',(6.19099559472815,1.27,1.07));
#1996=VECTOR('',#1997,1.);
#1997=DIRECTION('',(0.422618261743667,-0.906307787035266,0.));
#1998=CARTESIAN_POINT('',(6.37718923361106,0.987321452147693,1.07));
#1999=AXIS2_PLACEMENT_3D('',#2000,#2001,#2002);
#2000=CARTESIAN_POINT('',(6.35,1.,1.07));
#2001=DIRECTION('',(-0.,0.,1.));
#2002=DIRECTION('',(-0.906307787035284,-0.422618261743629,0.));
#2003=CARTESIAN_POINT('',(6.37718923361106,0.987321452147693,1.07));
#2004=VECTOR('',#2005,1.);
#2005=DIRECTION('',(0.422618261743664,0.906307787035268,0.));
#2006=CARTESIAN_POINT('',(9.005,0.97,1.07));
#2007=CARTESIAN_POINT('',(9.005,0.97,1.07));
#2008=VECTOR('',#2009,1.);
#2009=DIRECTION('',(-0.422618261740698,0.906307787036651,0.));
#2010=CARTESIAN_POINT('',(9.005,-0.97,1.07));
#2011=CARTESIAN_POINT('',(9.005,-0.97,1.07));
#2012=VECTOR('',#2013,1.);
#2013=DIRECTION('',(9.15647855360954E-016,1.,0.));
#2014=CARTESIAN_POINT('',(8.8651077025535,-1.27,1.07));
#2015=VECTOR('',#2016,1.);
#2016=DIRECTION('',(0.422618261740694,0.906307787036653,0.));
#2017=CARTESIAN_POINT('',(6.37718923360911,-0.987321452143519,1.07));
#2018=CARTESIAN_POINT('',(6.50900440526804,-1.27,1.07));
#2019=VECTOR('',#2020,1.);
#2020=DIRECTION('',(-0.422618261733636,0.906307787039943,0.));
#2021=CARTESIAN_POINT('',(6.32281076638794,-0.987321452149846,1.07));
#2022=AXIS2_PLACEMENT_3D('',#2023,#2024,#2025);
#2023=CARTESIAN_POINT('',(6.35,-1.,1.07));
#2024=DIRECTION('',(0.,-0.,1.));
#2025=DIRECTION('',(0.906307786970438,0.422618261882691,0.));
#2026=CARTESIAN_POINT('',(6.32281076638794,-0.987321452149846,1.07));
#2027=VECTOR('',#2028,1.);
#2028=DIRECTION('',(-0.422618261733638,-0.906307787039943,0.));
#2029=CARTESIAN_POINT('',(3.83718923360911,-0.987321452143519,1.07));
#2030=CARTESIAN_POINT('',(3.96900440526804,-1.27,1.07));
#2031=VECTOR('',#2032,1.);
#2032=DIRECTION('',(-0.422618261733638,0.906307787039943,0.));
#2033=CARTESIAN_POINT('',(3.78281076638794,-0.987321452149846,1.07));
#2034=AXIS2_PLACEMENT_3D('',#2035,#2036,#2037);
#2035=CARTESIAN_POINT('',(3.81,-1.,1.07));
#2036=DIRECTION('',(0.,-0.,1.));
#2037=DIRECTION('',(0.906307786970438,0.422618261882691,0.));
#2038=CARTESIAN_POINT('',(3.78281076638794,-0.987321452149846,1.07));
#2039=VECTOR('',#2040,1.);
#2040=DIRECTION('',(-0.422618261733636,-0.906307787039944,0.));
#2041=CARTESIAN_POINT('',(1.29718923360911,-0.987321452143519,1.07));
#2042=CARTESIAN_POINT('',(1.42900440526804,-1.27,1.07));
#2043=VECTOR('',#2044,1.);
#2044=DIRECTION('',(-0.422618261733638,0.906307787039943,0.));
#2045=CARTESIAN_POINT('',(1.24281076638794,-0.987321452149846,1.07));
#2046=AXIS2_PLACEMENT_3D('',#2047,#2048,#2049);
#2047=CARTESIAN_POINT('',(1.27,-1.,1.07));
#2048=DIRECTION('',(0.,-0.,1.));
#2049=DIRECTION('',(0.906307786970437,0.422618261882694,0.));
#2050=CARTESIAN_POINT('',(1.11099559473196,-1.27,1.07));
#2051=CARTESIAN_POINT('',(1.24281076638794,-0.987321452149846,1.07));
#2052=VECTOR('',#2053,1.);
#2053=DIRECTION('',(-0.422618261733637,-0.906307787039943,0.));
#2054=CARTESIAN_POINT('',(-1.2451077025535,-1.27,1.07));
#2055=CARTESIAN_POINT('',(-1.2451077025535,-1.27,1.07));
#2056=VECTOR('',#2057,1.);
#2057=DIRECTION('',(1.,0.,0.));
#2058=CARTESIAN_POINT('',(-1.385,-0.97,1.07));
#2059=CARTESIAN_POINT('',(-1.385,-0.97,1.07));
#2060=VECTOR('',#2061,1.);
#2061=DIRECTION('',(0.422618261740699,-0.90630778703665,0.));
#2062=CARTESIAN_POINT('',(-1.385,0.970000000000001,1.07));
#2063=CARTESIAN_POINT('',(-1.385,0.970000000000001,1.07));
#2064=VECTOR('',#2065,1.);
#2065=DIRECTION('',(-2.28911963840238E-016,-1.,0.));
#2066=CARTESIAN_POINT('',(-1.2451077025535,1.27,1.07));
#2067=CARTESIAN_POINT('',(-1.2451077025535,1.27,1.07));
#2068=VECTOR('',#2069,1.);
#2069=DIRECTION('',(-0.4226182617407,-0.90630778703665,0.));
#2070=CARTESIAN_POINT('',(1.11099559472815,1.27,1.07));
#2071=CARTESIAN_POINT('',(1.11099559472815,1.27,1.07));
#2072=VECTOR('',#2073,1.);
#2073=DIRECTION('',(-1.,0.,0.));
#2074=CARTESIAN_POINT('',(1.24281076638894,0.987321452147693,1.07));
#2075=CARTESIAN_POINT('',(1.11099559472815,1.27,1.07));
#2076=VECTOR('',#2077,1.);
#2077=DIRECTION('',(0.422618261743666,-0.906307787035267,0.));
#2078=CARTESIAN_POINT('',(1.29718923361106,0.987321452147693,1.07));
#2079=AXIS2_PLACEMENT_3D('',#2080,#2081,#2082);
#2080=CARTESIAN_POINT('',(1.27,1.,1.07));
#2081=DIRECTION('',(-0.,0.,1.));
#2082=DIRECTION('',(-0.906307787035285,-0.422618261743626,0.));
#2083=CARTESIAN_POINT('',(1.29718923361106,0.987321452147693,1.07));
#2084=VECTOR('',#2085,1.);
#2085=DIRECTION('',(0.422618261743663,0.906307787035268,0.));
#2086=CARTESIAN_POINT('',(3.78281076638894,0.987321452147693,1.07));
#2087=CARTESIAN_POINT('',(3.65099559472815,1.27,1.07));
#2088=VECTOR('',#2089,1.);
#2089=DIRECTION('',(0.422618261743666,-0.906307787035267,0.));
#2090=AXIS2_PLACEMENT_3D('',#2091,#2092,#2093);
#2091=CARTESIAN_POINT('',(3.81,1.,1.07));
#2092=DIRECTION('',(-0.,0.,1.));
#2093=DIRECTION('',(-0.906307787035284,-0.422618261743629,0.));
#2094=CARTESIAN_POINT('',(0.66,-8.08266887437253E-017,1.07));
#2095=AXIS2_PLACEMENT_3D('',#2096,#2097,#2098);
#2096=CARTESIAN_POINT('',(0.,0.,1.07));
#2097=DIRECTION('',(0.,0.,1.));
#2098=DIRECTION('',(1.,0.,0.));
#2099=CARTESIAN_POINT('',(8.28,-8.08266887437253E-017,1.07));
#2100=AXIS2_PLACEMENT_3D('',#2101,#2102,#2103);
#2101=CARTESIAN_POINT('',(7.62,0.,1.07));
#2102=DIRECTION('',(0.,0.,1.));
#2103=DIRECTION('',(1.,0.,0.));
#2104=CARTESIAN_POINT('',(5.74,-8.08266887437253E-017,1.07));
#2105=AXIS2_PLACEMENT_3D('',#2106,#2107,#2108);
#2106=CARTESIAN_POINT('',(5.08,0.,1.07));
#2107=DIRECTION('',(0.,0.,1.));
#2108=DIRECTION('',(1.,0.,0.));
#2109=CARTESIAN_POINT('',(3.2,-8.08266887437253E-017,1.07));
#2110=AXIS2_PLACEMENT_3D('',#2111,#2112,#2113);
#2111=CARTESIAN_POINT('',(2.54,0.,1.07));
#2112=DIRECTION('',(0.,0.,1.));
#2113=DIRECTION('',(1.,0.,0.));
#2114=CARTESIAN_POINT('',(6.37718923360911,-0.987321452143519,1.07));
#2115=VECTOR('',#2116,1.);
#2116=DIRECTION('',(0.,0.,1.));
#2117=CARTESIAN_POINT('',(6.32281076638794,-0.987321452149846,1.07));
#2118=VECTOR('',#2119,1.);
#2119=DIRECTION('',(0.,0.,1.));
#2120=CARTESIAN_POINT('',(6.32281076638894,0.987321452147694,1.07));
#2121=VECTOR('',#2122,1.);
#2122=DIRECTION('',(0.,0.,1.));
#2123=CARTESIAN_POINT('',(6.37718923361106,0.987321452147693,1.07));
#2124=VECTOR('',#2125,1.);
#2125=DIRECTION('',(0.,0.,1.));
#2126=CARTESIAN_POINT('',(3.83718923360911,-0.987321452143519,1.07));
#2127=VECTOR('',#2128,1.);
#2128=DIRECTION('',(0.,0.,1.));
#2129=CARTESIAN_POINT('',(3.78281076638794,-0.987321452149846,1.07));
#2130=VECTOR('',#2131,1.);
#2131=DIRECTION('',(0.,0.,1.));
#2132=CARTESIAN_POINT('',(3.78281076638894,0.987321452147694,1.07));
#2133=VECTOR('',#2134,1.);
#2134=DIRECTION('',(0.,0.,1.));
#2135=CARTESIAN_POINT('',(3.83718923361106,0.987321452147693,1.07));
#2136=VECTOR('',#2137,1.);
#2137=DIRECTION('',(0.,0.,1.));
#2138=CARTESIAN_POINT('',(1.29718923360911,-0.987321452143519,1.07));
#2139=VECTOR('',#2140,1.);
#2140=DIRECTION('',(0.,0.,1.));
#2141=CARTESIAN_POINT('',(9.005,-0.97,1.07));
#2142=VECTOR('',#2143,1.);
#2143=DIRECTION('',(0.,0.,1.));
#2144=CARTESIAN_POINT('',(1.29718923361106,0.987321452147693,1.07));
#2145=VECTOR('',#2146,1.);
#2146=DIRECTION('',(0.,0.,1.));
#2147=CARTESIAN_POINT('',(9.005,0.97,1.07));
#2148=VECTOR('',#2149,1.);
#2149=DIRECTION('',(0.,0.,1.));
#2150=CARTESIAN_POINT('',(1.24281076638894,0.987321452147694,1.07));
#2151=VECTOR('',#2152,1.);
#2152=DIRECTION('',(0.,0.,1.));
#2153=CARTESIAN_POINT('',(1.11099559472815,1.27,1.07));
#2154=VECTOR('',#2155,1.);
#2155=DIRECTION('',(0.,0.,1.));
#2156=CARTESIAN_POINT('',(-1.2451077025535,1.27,1.07));
#2157=VECTOR('',#2158,1.);
#2158=DIRECTION('',(0.,0.,1.));
#2159=CARTESIAN_POINT('',(-1.385,0.970000000000001,1.07));
#2160=VECTOR('',#2161,1.);
#2161=DIRECTION('',(0.,0.,1.));
#2162=CARTESIAN_POINT('',(-1.385,-0.97,1.07));
#2163=VECTOR('',#2164,1.);
#2164=DIRECTION('',(0.,0.,1.));
#2165=CARTESIAN_POINT('',(-1.2451077025535,-1.27,1.07));
#2166=VECTOR('',#2167,1.);
#2167=DIRECTION('',(0.,0.,1.));
#2168=CARTESIAN_POINT('',(1.11099559473196,-1.27,2.34));
#2169=VECTOR('',#2170,1.);
#2170=DIRECTION('',(0.,0.,-1.));
#2171=CARTESIAN_POINT('',(1.24281076638794,-0.987321452149846,1.07));
#2172=VECTOR('',#2173,1.);
#2173=DIRECTION('',(0.,0.,1.));
#2174=CARTESIAN_POINT('',(0.,-0.19,-2.74));
#2175=AXIS2_PLACEMENT_3D('',#2176,#2177,#2178);
#2176=CARTESIAN_POINT('',(0.,0.,-2.74));
#2177=DIRECTION('',(-0.,-0.,-1.));
#2178=DIRECTION('',(0.,-1.,0.));
#2179=CARTESIAN_POINT('',(0.,-0.38,-2.55));
#2180=AXIS2_PLACEMENT_3D('',#2181,#2182,#2183);
#2181=CARTESIAN_POINT('',(0.,0.,-2.55));
#2182=DIRECTION('',(-0.,-0.,-1.));
#2183=DIRECTION('',(0.,-1.,0.));
#2184=CARTESIAN_POINT('',(0.,-0.38,0.));
#2185=AXIS2_PLACEMENT_3D('',#2186,#2187,#2188);
#2186=CARTESIAN_POINT('',(0.,0.,0.));
#2187=DIRECTION('',(-0.,-0.,-1.));
#2188=DIRECTION('',(0.,-1.,0.));
#2189=CARTESIAN_POINT('',(0.,-0.66,0.28));
#2190=AXIS2_PLACEMENT_3D('',#2191,#2192,#2193);
#2191=CARTESIAN_POINT('',(0.,0.,0.28));
#2192=DIRECTION('',(-0.,-0.,-1.));
#2193=DIRECTION('',(0.,-1.,0.));
#2194=CARTESIAN_POINT('',(0.,-0.66,1.29287838708185));
#2195=AXIS2_PLACEMENT_3D('',#2196,#2197,#2198);
#2196=CARTESIAN_POINT('',(0.,0.,1.29287838708185));
#2197=DIRECTION('',(-0.,-0.,-1.));
#2198=DIRECTION('',(0.,-1.,0.));
#2199=CARTESIAN_POINT('',(0.,-0.81,1.70500000000004));
#2200=AXIS2_PLACEMENT_3D('',#2201,#2202,#2203);
#2201=CARTESIAN_POINT('',(0.,0.,1.70500000000004));
#2202=DIRECTION('',(-0.,-0.,-1.));
#2203=DIRECTION('',(0.,-1.,0.));
#2204=CARTESIAN_POINT('',(0.,-0.66,1.7050000000001));
#2205=AXIS2_PLACEMENT_3D('',#2206,#2207,#2208);
#2206=CARTESIAN_POINT('',(0.,0.,1.70500000000004));
#2207=DIRECTION('',(-0.,-0.,-1.));
#2208=DIRECTION('',(0.,-1.,0.));
#2209=CARTESIAN_POINT('',(0.,-0.66,2.2400000000001));
#2210=AXIS2_PLACEMENT_3D('',#2211,#2212,#2213);
#2211=CARTESIAN_POINT('',(0.,0.,2.2400000000001));
#2212=DIRECTION('',(-0.,-0.,-1.));
#2213=DIRECTION('',(0.,-1.,0.));
#2214=CARTESIAN_POINT('',(0.,-0.915,2.24));
#2215=AXIS2_PLACEMENT_3D('',#2216,#2217,#2218);
#2216=CARTESIAN_POINT('',(0.,0.,2.2400000000001));
#2217=DIRECTION('',(-0.,-0.,-1.));
#2218=DIRECTION('',(0.,-1.,0.));
#2219=CARTESIAN_POINT('',(0.,-0.915,3.1));
#2220=AXIS2_PLACEMENT_3D('',#2221,#2222,#2223);
#2221=CARTESIAN_POINT('',(0.,0.,3.1));
#2222=DIRECTION('',(-0.,-0.,-1.));
#2223=DIRECTION('',(0.,-1.,0.));
#2224=CARTESIAN_POINT('',(0.,-0.634191070279899,3.10000000000011));
#2225=AXIS2_PLACEMENT_3D('',#2226,#2227,#2228);
#2226=CARTESIAN_POINT('',(0.,0.,3.1));
#2227=DIRECTION('',(-0.,-0.,-1.));
#2228=DIRECTION('',(0.,-1.,0.));
#2229=CARTESIAN_POINT('',(0.,-0.525,2.8));
#2230=AXIS2_PLACEMENT_3D('',#2231,#2232,#2233);
#2231=CARTESIAN_POINT('',(0.,0.,2.8));
#2232=DIRECTION('',(0.,-0.,-1.));
#2233=DIRECTION('',(0.,-1.,0.));
#2234=CARTESIAN_POINT('',(0.,-0.525,2.3));
#2235=AXIS2_PLACEMENT_3D('',#2236,#2237,#2238);
#2236=CARTESIAN_POINT('',(0.,0.,2.3));
#2237=DIRECTION('',(0.,-0.,-1.));
#2238=DIRECTION('',(0.,-1.,0.));
#2239=CARTESIAN_POINT('',(0.,-0.225,0.7));
#2240=AXIS2_PLACEMENT_3D('',#2241,#2242,#2243);
#2241=CARTESIAN_POINT('',(0.,0.,0.7));
#2242=DIRECTION('',(-0.,-0.,-1.));
#2243=DIRECTION('',(0.,-1.,0.));
#2244=CARTESIAN_POINT('',(0.,-0.525,0.7));
#2245=AXIS2_PLACEMENT_3D('',#2246,#2247,#2248);
#2246=CARTESIAN_POINT('',(0.,0.,0.7));
#2247=DIRECTION('',(-0.,-0.,-1.));
#2248=DIRECTION('',(0.,-1.,0.));
#2249=CARTESIAN_POINT('',(0.,-0.525,0.450215154761267));
#2250=AXIS2_PLACEMENT_3D('',#2251,#2252,#2253);
#2251=CARTESIAN_POINT('',(0.,0.,0.45021515475689));
#2252=DIRECTION('',(0.,-0.,-1.));
#2253=DIRECTION('',(0.,-1.,0.));
#2254=CARTESIAN_POINT('',(0.,-0.275,0.3));
#2255=AXIS2_PLACEMENT_3D('',#2256,#2257,#2258);
#2256=CARTESIAN_POINT('',(0.,0.,0.3));
#2257=DIRECTION('',(0.,-0.,-1.));
#2258=DIRECTION('',(0.,-1.,0.));
#2259=CARTESIAN_POINT('',(0.,-0.275,-1.6));
#2260=AXIS2_PLACEMENT_3D('',#2261,#2262,#2263);
#2261=CARTESIAN_POINT('',(0.,0.,-1.6));
#2262=DIRECTION('',(0.,-0.,-1.));
#2263=DIRECTION('',(0.,-1.,0.));
#2264=CARTESIAN_POINT('',(0.,-0.03,-1.74721085166175));
#2265=AXIS2_PLACEMENT_3D('',#2266,#2267,#2268);
#2266=CARTESIAN_POINT('',(0.,0.,-1.74721085166175));
#2267=DIRECTION('',(-0.,-0.,-1.));
#2268=DIRECTION('',(0.,-1.,0.));
ENDSEC;
END-ISO-10303-21;
