ISO-10303-21;
HEADER;
FILE_DESCRIPTION(('STEP AP214'),
    '1');
FILE_NAME('SL-105-TT-10',
    '2020-03-30T23:14:12',
    ('AF'),
    (''),
    'UNSPECIFIED',
    'UNSPECIFIED',
    '');
/*Based on Samtec Inc. SL, SDL series datasheet*/
FILE_SCHEMA(('AUTOMOTIVE_DESIGN { 1 0 10303 214 3 1 1}'));
ENDSEC;

DATA;
#1=SHAPE_REPRESENTATION('NONE',(#2,#58,#121,#147),#6);
#2=AXIS2_PLACEMENT_3D('',#3,#4,#5);
#3=CARTESIAN_POINT('',(0.,0.,0.));
#4=DIRECTION('',(0.,0.,1.));
#5=DIRECTION('',(1.,0.,0.));
#6=(GEOMETRIC_REPRESENTATION_CONTEXT(3)GLOBAL_UNCERTAINTY_ASSIGNED_CONTEXT((#8))
GLOBAL_UNIT_ASSIGNED_CONTEXT((#7,#9,#10))REPRESENTATION_CONTEXT('NONE','NONE'));
#7=(LENGTH_UNIT()NAMED_UNIT(*)SI_UNIT(.MILLI.,.METRE.));
#8=UNCERTAINTY_MEASURE_WITH_UNIT(LENGTH_MEASURE(1.E-005),#7,'NONE','NONE');
#9=(NAMED_UNIT(*)PLANE_ANGLE_UNIT()SI_UNIT($,.RADIAN.));
#10=(NAMED_UNIT(*)SI_UNIT($,.STERADIAN.)SOLID_ANGLE_UNIT());
#11=SHAPE_DEFINITION_REPRESENTATION(#12,#1);
#12=PRODUCT_DEFINITION_SHAPE('NONE','NONE',#13);
#13=PRODUCT_DEFINITION('','UNSPECIFIED',#14,#22);
#14=PRODUCT_DEFINITION_FORMATION_WITH_SPECIFIED_SOURCE('ANY','UNSPECIFIED',#15,.NOT_KNOWN.);
#15=PRODUCT('','SL-103-TT-10','Based on Samtec Inc. SL, SDL series datasheet',(#25));
#16=PERSON('UNSPECIFIED','AF','UNSPECIFIED',('UNSPECIFIED'),('UNSPECIFIED'),
('UNSPECIFIED'));
#17=ORGANIZATION('UNSPECIFIED','UNSPECIFIED','UNSPECIFIED');
#18=PERSON_AND_ORGANIZATION(#16,#17);
#19=PERSON_AND_ORGANIZATION_ROLE('design_owner');
#20=CC_DESIGN_PERSON_AND_ORGANIZATION_ASSIGNMENT(#18,#19,(#15));
#21=PRODUCT_RELATED_PRODUCT_CATEGORY('assembly','',(#15));
#22=DESIGN_CONTEXT('detailed design',#23,'design');
#23=APPLICATION_CONTEXT('configuration controlled 3d designs of mechanical parts and assemblies');
#24=APPLICATION_PROTOCOL_DEFINITION('international standard','automotive_design',
2011,#23);
#25=PRODUCT_CONTEXT('NONE',#23,'mechanical');
#26=CC_DESIGN_DATE_AND_TIME_ASSIGNMENT(#27,#31,(#13));
#27=DATE_AND_TIME(#28,#29);
#28=CALENDAR_DATE(0,1,1);
#29=LOCAL_TIME(0,0,0.,#30);
#30=COORDINATED_UNIVERSAL_TIME_OFFSET(0,0,.AHEAD.);
#31=DATE_TIME_ROLE('creation_date');
#32=CC_DESIGN_APPROVAL(#33,(#13));
#33=APPROVAL(#34,'UNSPECIFIED');
#34=APPROVAL_STATUS('not_yet_approved');
#35=APPROVAL_DATE_TIME(#36,#33);
#36=DATE_AND_TIME(#37,#38);
#37=CALENDAR_DATE(0,1,1);
#38=LOCAL_TIME(0,0,0.,#39);
#39=COORDINATED_UNIVERSAL_TIME_OFFSET(0,0,.AHEAD.);
#40=DERIVED_UNIT((#44,#41));
#41=DERIVED_UNIT_ELEMENT(#42,-1.);
#42=VOLUME_UNIT(#43);
#43=DIMENSIONAL_EXPONENTS(3.,0.,0.,0.,0.,0.,0.);
#44=(DERIVED_UNIT_ELEMENT($,-1.)NAMED_UNIT($)MASS_UNIT()SI_UNIT($,.GRAM.));
#45=MANIFOLD_SOLID_BREP('',#46);
#46=CLOSED_SHELL('',(#173,#182,#191,#200,#209,#218,#227,#236,#245,#254,#263,#272,
#281,#290,#299,#308,#317,#326,#335,#344,#353,#362,#371,#380,#389,#398,#407,#416,
#425));
#47=COLOUR_RGB($,0.156862745098039,0.156862745098039,0.156862745098039);
#48=FILL_AREA_STYLE_COLOUR($,#47);
#49=FILL_AREA_STYLE($,(#48));
#50=SURFACE_STYLE_FILL_AREA(#49);
#51=SURFACE_SIDE_STYLE('',(#50));
#52=SURFACE_STYLE_USAGE(.BOTH.,#51);
#53=PRESENTATION_STYLE_ASSIGNMENT((#52));
#54=MECHANICAL_DESIGN_GEOMETRIC_PRESENTATION_REPRESENTATION('NONE',(#55,#96,#181,
#190,#199,#208,#217,#226,#235,#244,#253,#262,#271,#280,#289,#298,#307,#316,#325,
#334,#343,#352,#361,#370,#379,#388,#397,#406,#415,#424,#433,#442,#451,#460,#469,
#478,#487,#496,#505,#514,#523,#532,#541,#550,#559,#568,#577,#586,#595,#604,#613),
#6);
#55=STYLED_ITEM('',(#53),#45);
#56=ADVANCED_BREP_SHAPE_REPRESENTATION('NONE',(#45),#6);
#57=SHAPE_REPRESENTATION_RELATIONSHIP('','',#1,#56);
#58=AXIS2_PLACEMENT_3D('',#59,#60,#61);
#59=CARTESIAN_POINT('',(0.,0.,0.));
#60=DIRECTION('',(0.,0.,1.));
#61=DIRECTION('',(1.,0.,0.));
#62=SHAPE_REPRESENTATION('NONE',(#2),#6);
#63=SHAPE_DEFINITION_REPRESENTATION(#64,#62);
#64=PRODUCT_DEFINITION_SHAPE('NONE','NONE',#65);
#65=PRODUCT_DEFINITION('','UNSPECIFIED',#66,#69);
#66=PRODUCT_DEFINITION_FORMATION_WITH_SPECIFIED_SOURCE('ANY','UNSPECIFIED',#67,.NOT_KNOWN.);
#67=PRODUCT('','SxL-1xx-TT-10-pin','Based on Samtec Inc. SL, SDL series datasheet',
(#72));
#68=PRODUCT_RELATED_PRODUCT_CATEGORY('detail','',(#67));
#69=DESIGN_CONTEXT('detailed design',#70,'design');
#70=APPLICATION_CONTEXT('configuration controlled 3d designs of mechanical parts and assemblies');
#71=APPLICATION_PROTOCOL_DEFINITION('international standard','automotive_design',
2011,#70);
#72=PRODUCT_CONTEXT('NONE',#70,'mechanical');
#73=CC_DESIGN_DATE_AND_TIME_ASSIGNMENT(#74,#78,(#65));
#74=DATE_AND_TIME(#75,#76);
#75=CALENDAR_DATE(0,1,1);
#76=LOCAL_TIME(0,0,0.,#77);
#77=COORDINATED_UNIVERSAL_TIME_OFFSET(0,0,.AHEAD.);
#78=DATE_TIME_ROLE('creation_date');
#79=CC_DESIGN_APPROVAL(#80,(#65));
#80=APPROVAL(#81,'UNSPECIFIED');
#81=APPROVAL_STATUS('not_yet_approved');
#82=APPROVAL_DATE_TIME(#83,#80);
#83=DATE_AND_TIME(#84,#85);
#84=CALENDAR_DATE(0,1,1);
#85=LOCAL_TIME(0,0,0.,#86);
#86=COORDINATED_UNIVERSAL_TIME_OFFSET(0,0,.AHEAD.);
#87=MANIFOLD_SOLID_BREP('',#88);
#88=CLOSED_SHELL('',(#434,#443,#452,#461,#470,#479,#488,#497,#506,#515,#524,#533,
#542,#551,#560,#569,#578,#587,#596,#605));
#89=COLOUR_RGB($,0.827450980392157,0.831372549019608,0.835294117647059);
#90=FILL_AREA_STYLE_COLOUR($,#89);
#91=FILL_AREA_STYLE($,(#90));
#92=SURFACE_STYLE_FILL_AREA(#91);
#93=SURFACE_SIDE_STYLE('',(#92));
#94=SURFACE_STYLE_USAGE(.BOTH.,#93);
#95=PRESENTATION_STYLE_ASSIGNMENT((#94));
#96=STYLED_ITEM('',(#95),#87);
#97=ADVANCED_BREP_SHAPE_REPRESENTATION('NONE',(#87),#6);
#98=SHAPE_REPRESENTATION_RELATIONSHIP('','',#62,#97);
#99=ITEM_DEFINED_TRANSFORMATION('','',#2,#58);
#100=(REPRESENTATION_RELATIONSHIP('','',#62,#1)REPRESENTATION_RELATIONSHIP_WITH_TRANSFORMATION(
#99)SHAPE_REPRESENTATION_RELATIONSHIP());
#101=NEXT_ASSEMBLY_USAGE_OCCURRENCE('1','','',#13,#65,$);
#102=CC_DESIGN_SECURITY_CLASSIFICATION(#103,(#101));
#103=SECURITY_CLASSIFICATION('','',#104);
#104=SECURITY_CLASSIFICATION_LEVEL('unclassified');
#105=CC_DESIGN_DATE_AND_TIME_ASSIGNMENT(#106,#110,(#103));
#106=DATE_AND_TIME(#107,#108);
#107=CALENDAR_DATE(0,1,1);
#108=LOCAL_TIME(0,0,0.,#109);
#109=COORDINATED_UNIVERSAL_TIME_OFFSET(0,0,.AHEAD.);
#110=DATE_TIME_ROLE('classification_date');
#111=CC_DESIGN_APPROVAL(#112,(#103));
#112=APPROVAL(#113,'UNSPECIFIED');
#113=APPROVAL_STATUS('not_yet_approved');
#114=APPROVAL_DATE_TIME(#115,#112);
#115=DATE_AND_TIME(#116,#117);
#116=CALENDAR_DATE(0,1,1);
#117=LOCAL_TIME(0,0,0.,#118);
#118=COORDINATED_UNIVERSAL_TIME_OFFSET(0,0,.AHEAD.);
#119=PRODUCT_DEFINITION_SHAPE('NONE','NONE',#101);
#120=CONTEXT_DEPENDENT_SHAPE_REPRESENTATION(#100,#119);
#121=AXIS2_PLACEMENT_3D('',#122,#123,#124);
#122=CARTESIAN_POINT('',(2.54,0.,0.));
#123=DIRECTION('',(0.,0.,1.));
#124=DIRECTION('',(1.,0.,0.));
#125=ITEM_DEFINED_TRANSFORMATION('','',#2,#121);
#126=(REPRESENTATION_RELATIONSHIP('','',#62,#1)REPRESENTATION_RELATIONSHIP_WITH_TRANSFORMATION(
#125)SHAPE_REPRESENTATION_RELATIONSHIP());
#127=NEXT_ASSEMBLY_USAGE_OCCURRENCE('2','','',#13,#65,$);
#128=CC_DESIGN_SECURITY_CLASSIFICATION(#129,(#127));
#129=SECURITY_CLASSIFICATION('','',#130);
#130=SECURITY_CLASSIFICATION_LEVEL('unclassified');
#131=CC_DESIGN_DATE_AND_TIME_ASSIGNMENT(#132,#136,(#129));
#132=DATE_AND_TIME(#133,#134);
#133=CALENDAR_DATE(0,1,1);
#134=LOCAL_TIME(0,0,0.,#135);
#135=COORDINATED_UNIVERSAL_TIME_OFFSET(0,0,.AHEAD.);
#136=DATE_TIME_ROLE('classification_date');
#137=CC_DESIGN_APPROVAL(#138,(#129));
#138=APPROVAL(#139,'UNSPECIFIED');
#139=APPROVAL_STATUS('not_yet_approved');
#140=APPROVAL_DATE_TIME(#141,#138);
#141=DATE_AND_TIME(#142,#143);
#142=CALENDAR_DATE(0,1,1);
#143=LOCAL_TIME(0,0,0.,#144);
#144=COORDINATED_UNIVERSAL_TIME_OFFSET(0,0,.AHEAD.);
#145=PRODUCT_DEFINITION_SHAPE('NONE','NONE',#127);
#146=CONTEXT_DEPENDENT_SHAPE_REPRESENTATION(#126,#145);
#147=AXIS2_PLACEMENT_3D('',#148,#149,#150);
#148=CARTESIAN_POINT('',(5.08,0.,0.));
#149=DIRECTION('',(0.,0.,1.));
#150=DIRECTION('',(1.,0.,0.));
#151=ITEM_DEFINED_TRANSFORMATION('','',#2,#147);
#152=(REPRESENTATION_RELATIONSHIP('','',#62,#1)REPRESENTATION_RELATIONSHIP_WITH_TRANSFORMATION(
#151)SHAPE_REPRESENTATION_RELATIONSHIP());
#153=NEXT_ASSEMBLY_USAGE_OCCURRENCE('3','','',#13,#65,$);
#154=CC_DESIGN_SECURITY_CLASSIFICATION(#155,(#153));
#155=SECURITY_CLASSIFICATION('','',#156);
#156=SECURITY_CLASSIFICATION_LEVEL('unclassified');
#157=CC_DESIGN_DATE_AND_TIME_ASSIGNMENT(#158,#162,(#155));
#158=DATE_AND_TIME(#159,#160);
#159=CALENDAR_DATE(0,1,1);
#160=LOCAL_TIME(0,0,0.,#161);
#161=COORDINATED_UNIVERSAL_TIME_OFFSET(0,0,.AHEAD.);
#162=DATE_TIME_ROLE('classification_date');
#163=CC_DESIGN_APPROVAL(#164,(#155));
#164=APPROVAL(#165,'UNSPECIFIED');
#165=APPROVAL_STATUS('not_yet_approved');
#166=APPROVAL_DATE_TIME(#167,#164);
#167=DATE_AND_TIME(#168,#169);
#168=CALENDAR_DATE(0,1,1);
#169=LOCAL_TIME(0,0,0.,#170);
#170=COORDINATED_UNIVERSAL_TIME_OFFSET(0,0,.AHEAD.);
#171=PRODUCT_DEFINITION_SHAPE('NONE','NONE',#153);
#172=CONTEXT_DEPENDENT_SHAPE_REPRESENTATION(#152,#171);
#173=ADVANCED_FACE('',(#614),#616,.T.);
#174=COLOUR_RGB($,0.156862745098039,0.156862745098039,0.156862745098039);
#175=FILL_AREA_STYLE_COLOUR($,#174);
#176=FILL_AREA_STYLE($,(#175));
#177=SURFACE_STYLE_FILL_AREA(#176);
#178=SURFACE_SIDE_STYLE('',(#177));
#179=SURFACE_STYLE_USAGE(.BOTH.,#178);
#180=PRESENTATION_STYLE_ASSIGNMENT((#179));
#181=STYLED_ITEM('',(#180),#173);
#182=ADVANCED_FACE('',(#621),#623,.T.);
#183=COLOUR_RGB($,0.156862745098039,0.156862745098039,0.156862745098039);
#184=FILL_AREA_STYLE_COLOUR($,#183);
#185=FILL_AREA_STYLE($,(#184));
#186=SURFACE_STYLE_FILL_AREA(#185);
#187=SURFACE_SIDE_STYLE('',(#186));
#188=SURFACE_STYLE_USAGE(.BOTH.,#187);
#189=PRESENTATION_STYLE_ASSIGNMENT((#188));
#190=STYLED_ITEM('',(#189),#182);
#191=ADVANCED_FACE('',(#628),#630,.T.);
#192=COLOUR_RGB($,0.156862745098039,0.156862745098039,0.156862745098039);
#193=FILL_AREA_STYLE_COLOUR($,#192);
#194=FILL_AREA_STYLE($,(#193));
#195=SURFACE_STYLE_FILL_AREA(#194);
#196=SURFACE_SIDE_STYLE('',(#195));
#197=SURFACE_STYLE_USAGE(.BOTH.,#196);
#198=PRESENTATION_STYLE_ASSIGNMENT((#197));
#199=STYLED_ITEM('',(#198),#191);
#200=ADVANCED_FACE('',(#635),#637,.T.);
#201=COLOUR_RGB($,0.156862745098039,0.156862745098039,0.156862745098039);
#202=FILL_AREA_STYLE_COLOUR($,#201);
#203=FILL_AREA_STYLE($,(#202));
#204=SURFACE_STYLE_FILL_AREA(#203);
#205=SURFACE_SIDE_STYLE('',(#204));
#206=SURFACE_STYLE_USAGE(.BOTH.,#205);
#207=PRESENTATION_STYLE_ASSIGNMENT((#206));
#208=STYLED_ITEM('',(#207),#200);
#209=ADVANCED_FACE('',(#642,#644,#646,#648),#650,.T.);
#210=COLOUR_RGB($,0.156862745098039,0.156862745098039,0.156862745098039);
#211=FILL_AREA_STYLE_COLOUR($,#210);
#212=FILL_AREA_STYLE($,(#211));
#213=SURFACE_STYLE_FILL_AREA(#212);
#214=SURFACE_SIDE_STYLE('',(#213));
#215=SURFACE_STYLE_USAGE(.BOTH.,#214);
#216=PRESENTATION_STYLE_ASSIGNMENT((#215));
#217=STYLED_ITEM('',(#216),#209);
#218=ADVANCED_FACE('',(#655,#657,#659,#661),#663,.F.);
#219=COLOUR_RGB($,0.156862745098039,0.156862745098039,0.156862745098039);
#220=FILL_AREA_STYLE_COLOUR($,#219);
#221=FILL_AREA_STYLE($,(#220));
#222=SURFACE_STYLE_FILL_AREA(#221);
#223=SURFACE_SIDE_STYLE('',(#222));
#224=SURFACE_STYLE_USAGE(.BOTH.,#223);
#225=PRESENTATION_STYLE_ASSIGNMENT((#224));
#226=STYLED_ITEM('',(#225),#218);
#227=ADVANCED_FACE('',(#668),#670,.F.);
#228=COLOUR_RGB($,0.156862745098039,0.156862745098039,0.156862745098039);
#229=FILL_AREA_STYLE_COLOUR($,#228);
#230=FILL_AREA_STYLE($,(#229));
#231=SURFACE_STYLE_FILL_AREA(#230);
#232=SURFACE_SIDE_STYLE('',(#231));
#233=SURFACE_STYLE_USAGE(.BOTH.,#232);
#234=PRESENTATION_STYLE_ASSIGNMENT((#233));
#235=STYLED_ITEM('',(#234),#227);
#236=ADVANCED_FACE('',(#675),#677,.F.);
#237=COLOUR_RGB($,0.156862745098039,0.156862745098039,0.156862745098039);
#238=FILL_AREA_STYLE_COLOUR($,#237);
#239=FILL_AREA_STYLE($,(#238));
#240=SURFACE_STYLE_FILL_AREA(#239);
#241=SURFACE_SIDE_STYLE('',(#240));
#242=SURFACE_STYLE_USAGE(.BOTH.,#241);
#243=PRESENTATION_STYLE_ASSIGNMENT((#242));
#244=STYLED_ITEM('',(#243),#236);
#245=ADVANCED_FACE('',(#682),#684,.F.);
#246=COLOUR_RGB($,0.156862745098039,0.156862745098039,0.156862745098039);
#247=FILL_AREA_STYLE_COLOUR($,#246);
#248=FILL_AREA_STYLE($,(#247));
#249=SURFACE_STYLE_FILL_AREA(#248);
#250=SURFACE_SIDE_STYLE('',(#249));
#251=SURFACE_STYLE_USAGE(.BOTH.,#250);
#252=PRESENTATION_STYLE_ASSIGNMENT((#251));
#253=STYLED_ITEM('',(#252),#245);
#254=ADVANCED_FACE('',(#689),#691,.F.);
#255=COLOUR_RGB($,0.156862745098039,0.156862745098039,0.156862745098039);
#256=FILL_AREA_STYLE_COLOUR($,#255);
#257=FILL_AREA_STYLE($,(#256));
#258=SURFACE_STYLE_FILL_AREA(#257);
#259=SURFACE_SIDE_STYLE('',(#258));
#260=SURFACE_STYLE_USAGE(.BOTH.,#259);
#261=PRESENTATION_STYLE_ASSIGNMENT((#260));
#262=STYLED_ITEM('',(#261),#254);
#263=ADVANCED_FACE('',(#696),#698,.F.);
#264=COLOUR_RGB($,0.156862745098039,0.156862745098039,0.156862745098039);
#265=FILL_AREA_STYLE_COLOUR($,#264);
#266=FILL_AREA_STYLE($,(#265));
#267=SURFACE_STYLE_FILL_AREA(#266);
#268=SURFACE_SIDE_STYLE('',(#267));
#269=SURFACE_STYLE_USAGE(.BOTH.,#268);
#270=PRESENTATION_STYLE_ASSIGNMENT((#269));
#271=STYLED_ITEM('',(#270),#263);
#272=ADVANCED_FACE('',(#703),#705,.F.);
#273=COLOUR_RGB($,0.156862745098039,0.156862745098039,0.156862745098039);
#274=FILL_AREA_STYLE_COLOUR($,#273);
#275=FILL_AREA_STYLE($,(#274));
#276=SURFACE_STYLE_FILL_AREA(#275);
#277=SURFACE_SIDE_STYLE('',(#276));
#278=SURFACE_STYLE_USAGE(.BOTH.,#277);
#279=PRESENTATION_STYLE_ASSIGNMENT((#278));
#280=STYLED_ITEM('',(#279),#272);
#281=ADVANCED_FACE('',(#710),#712,.F.);
#282=COLOUR_RGB($,0.156862745098039,0.156862745098039,0.156862745098039);
#283=FILL_AREA_STYLE_COLOUR($,#282);
#284=FILL_AREA_STYLE($,(#283));
#285=SURFACE_STYLE_FILL_AREA(#284);
#286=SURFACE_SIDE_STYLE('',(#285));
#287=SURFACE_STYLE_USAGE(.BOTH.,#286);
#288=PRESENTATION_STYLE_ASSIGNMENT((#287));
#289=STYLED_ITEM('',(#288),#281);
#290=ADVANCED_FACE('',(#717),#719,.T.);
#291=COLOUR_RGB($,0.156862745098039,0.156862745098039,0.156862745098039);
#292=FILL_AREA_STYLE_COLOUR($,#291);
#293=FILL_AREA_STYLE($,(#292));
#294=SURFACE_STYLE_FILL_AREA(#293);
#295=SURFACE_SIDE_STYLE('',(#294));
#296=SURFACE_STYLE_USAGE(.BOTH.,#295);
#297=PRESENTATION_STYLE_ASSIGNMENT((#296));
#298=STYLED_ITEM('',(#297),#290);
#299=ADVANCED_FACE('',(#724),#726,.T.);
#300=COLOUR_RGB($,0.156862745098039,0.156862745098039,0.156862745098039);
#301=FILL_AREA_STYLE_COLOUR($,#300);
#302=FILL_AREA_STYLE($,(#301));
#303=SURFACE_STYLE_FILL_AREA(#302);
#304=SURFACE_SIDE_STYLE('',(#303));
#305=SURFACE_STYLE_USAGE(.BOTH.,#304);
#306=PRESENTATION_STYLE_ASSIGNMENT((#305));
#307=STYLED_ITEM('',(#306),#299);
#308=ADVANCED_FACE('',(#731),#733,.F.);
#309=COLOUR_RGB($,0.156862745098039,0.156862745098039,0.156862745098039);
#310=FILL_AREA_STYLE_COLOUR($,#309);
#311=FILL_AREA_STYLE($,(#310));
#312=SURFACE_STYLE_FILL_AREA(#311);
#313=SURFACE_SIDE_STYLE('',(#312));
#314=SURFACE_STYLE_USAGE(.BOTH.,#313);
#315=PRESENTATION_STYLE_ASSIGNMENT((#314));
#316=STYLED_ITEM('',(#315),#308);
#317=ADVANCED_FACE('',(#738),#740,.F.);
#318=COLOUR_RGB($,0.156862745098039,0.156862745098039,0.156862745098039);
#319=FILL_AREA_STYLE_COLOUR($,#318);
#320=FILL_AREA_STYLE($,(#319));
#321=SURFACE_STYLE_FILL_AREA(#320);
#322=SURFACE_SIDE_STYLE('',(#321));
#323=SURFACE_STYLE_USAGE(.BOTH.,#322);
#324=PRESENTATION_STYLE_ASSIGNMENT((#323));
#325=STYLED_ITEM('',(#324),#317);
#326=ADVANCED_FACE('',(#745),#747,.F.);
#327=COLOUR_RGB($,0.156862745098039,0.156862745098039,0.156862745098039);
#328=FILL_AREA_STYLE_COLOUR($,#327);
#329=FILL_AREA_STYLE($,(#328));
#330=SURFACE_STYLE_FILL_AREA(#329);
#331=SURFACE_SIDE_STYLE('',(#330));
#332=SURFACE_STYLE_USAGE(.BOTH.,#331);
#333=PRESENTATION_STYLE_ASSIGNMENT((#332));
#334=STYLED_ITEM('',(#333),#326);
#335=ADVANCED_FACE('',(#752),#754,.T.);
#336=COLOUR_RGB($,0.156862745098039,0.156862745098039,0.156862745098039);
#337=FILL_AREA_STYLE_COLOUR($,#336);
#338=FILL_AREA_STYLE($,(#337));
#339=SURFACE_STYLE_FILL_AREA(#338);
#340=SURFACE_SIDE_STYLE('',(#339));
#341=SURFACE_STYLE_USAGE(.BOTH.,#340);
#342=PRESENTATION_STYLE_ASSIGNMENT((#341));
#343=STYLED_ITEM('',(#342),#335);
#344=ADVANCED_FACE('',(#759),#761,.T.);
#345=COLOUR_RGB($,0.156862745098039,0.156862745098039,0.156862745098039);
#346=FILL_AREA_STYLE_COLOUR($,#345);
#347=FILL_AREA_STYLE($,(#346));
#348=SURFACE_STYLE_FILL_AREA(#347);
#349=SURFACE_SIDE_STYLE('',(#348));
#350=SURFACE_STYLE_USAGE(.BOTH.,#349);
#351=PRESENTATION_STYLE_ASSIGNMENT((#350));
#352=STYLED_ITEM('',(#351),#344);
#353=ADVANCED_FACE('',(#766),#768,.T.);
#354=COLOUR_RGB($,0.156862745098039,0.156862745098039,0.156862745098039);
#355=FILL_AREA_STYLE_COLOUR($,#354);
#356=FILL_AREA_STYLE($,(#355));
#357=SURFACE_STYLE_FILL_AREA(#356);
#358=SURFACE_SIDE_STYLE('',(#357));
#359=SURFACE_STYLE_USAGE(.BOTH.,#358);
#360=PRESENTATION_STYLE_ASSIGNMENT((#359));
#361=STYLED_ITEM('',(#360),#353);
#362=ADVANCED_FACE('',(#773),#775,.T.);
#363=COLOUR_RGB($,0.156862745098039,0.156862745098039,0.156862745098039);
#364=FILL_AREA_STYLE_COLOUR($,#363);
#365=FILL_AREA_STYLE($,(#364));
#366=SURFACE_STYLE_FILL_AREA(#365);
#367=SURFACE_SIDE_STYLE('',(#366));
#368=SURFACE_STYLE_USAGE(.BOTH.,#367);
#369=PRESENTATION_STYLE_ASSIGNMENT((#368));
#370=STYLED_ITEM('',(#369),#362);
#371=ADVANCED_FACE('',(#780),#782,.T.);
#372=COLOUR_RGB($,0.156862745098039,0.156862745098039,0.156862745098039);
#373=FILL_AREA_STYLE_COLOUR($,#372);
#374=FILL_AREA_STYLE($,(#373));
#375=SURFACE_STYLE_FILL_AREA(#374);
#376=SURFACE_SIDE_STYLE('',(#375));
#377=SURFACE_STYLE_USAGE(.BOTH.,#376);
#378=PRESENTATION_STYLE_ASSIGNMENT((#377));
#379=STYLED_ITEM('',(#378),#371);
#380=ADVANCED_FACE('',(#787),#789,.F.);
#381=COLOUR_RGB($,0.156862745098039,0.156862745098039,0.156862745098039);
#382=FILL_AREA_STYLE_COLOUR($,#381);
#383=FILL_AREA_STYLE($,(#382));
#384=SURFACE_STYLE_FILL_AREA(#383);
#385=SURFACE_SIDE_STYLE('',(#384));
#386=SURFACE_STYLE_USAGE(.BOTH.,#385);
#387=PRESENTATION_STYLE_ASSIGNMENT((#386));
#388=STYLED_ITEM('',(#387),#380);
#389=ADVANCED_FACE('',(#794),#796,.F.);
#390=COLOUR_RGB($,0.156862745098039,0.156862745098039,0.156862745098039);
#391=FILL_AREA_STYLE_COLOUR($,#390);
#392=FILL_AREA_STYLE($,(#391));
#393=SURFACE_STYLE_FILL_AREA(#392);
#394=SURFACE_SIDE_STYLE('',(#393));
#395=SURFACE_STYLE_USAGE(.BOTH.,#394);
#396=PRESENTATION_STYLE_ASSIGNMENT((#395));
#397=STYLED_ITEM('',(#396),#389);
#398=ADVANCED_FACE('',(#801),#803,.T.);
#399=COLOUR_RGB($,0.156862745098039,0.156862745098039,0.156862745098039);
#400=FILL_AREA_STYLE_COLOUR($,#399);
#401=FILL_AREA_STYLE($,(#400));
#402=SURFACE_STYLE_FILL_AREA(#401);
#403=SURFACE_SIDE_STYLE('',(#402));
#404=SURFACE_STYLE_USAGE(.BOTH.,#403);
#405=PRESENTATION_STYLE_ASSIGNMENT((#404));
#406=STYLED_ITEM('',(#405),#398);
#407=ADVANCED_FACE('',(#808,#810),#812,.F.);
#408=COLOUR_RGB($,0.156862745098039,0.156862745098039,0.156862745098039);
#409=FILL_AREA_STYLE_COLOUR($,#408);
#410=FILL_AREA_STYLE($,(#409));
#411=SURFACE_STYLE_FILL_AREA(#410);
#412=SURFACE_SIDE_STYLE('',(#411));
#413=SURFACE_STYLE_USAGE(.BOTH.,#412);
#414=PRESENTATION_STYLE_ASSIGNMENT((#413));
#415=STYLED_ITEM('',(#414),#407);
#416=ADVANCED_FACE('',(#817,#819),#821,.F.);
#417=COLOUR_RGB($,0.156862745098039,0.156862745098039,0.156862745098039);
#418=FILL_AREA_STYLE_COLOUR($,#417);
#419=FILL_AREA_STYLE($,(#418));
#420=SURFACE_STYLE_FILL_AREA(#419);
#421=SURFACE_SIDE_STYLE('',(#420));
#422=SURFACE_STYLE_USAGE(.BOTH.,#421);
#423=PRESENTATION_STYLE_ASSIGNMENT((#422));
#424=STYLED_ITEM('',(#423),#416);
#425=ADVANCED_FACE('',(#826,#828),#830,.F.);
#426=COLOUR_RGB($,0.156862745098039,0.156862745098039,0.156862745098039);
#427=FILL_AREA_STYLE_COLOUR($,#426);
#428=FILL_AREA_STYLE($,(#427));
#429=SURFACE_STYLE_FILL_AREA(#428);
#430=SURFACE_SIDE_STYLE('',(#429));
#431=SURFACE_STYLE_USAGE(.BOTH.,#430);
#432=PRESENTATION_STYLE_ASSIGNMENT((#431));
#433=STYLED_ITEM('',(#432),#425);
#434=ADVANCED_FACE('',(#835),#837,.T.);
#435=COLOUR_RGB($,0.827450980392157,0.831372549019608,0.835294117647059);
#436=FILL_AREA_STYLE_COLOUR($,#435);
#437=FILL_AREA_STYLE($,(#436));
#438=SURFACE_STYLE_FILL_AREA(#437);
#439=SURFACE_SIDE_STYLE('',(#438));
#440=SURFACE_STYLE_USAGE(.BOTH.,#439);
#441=PRESENTATION_STYLE_ASSIGNMENT((#440));
#442=STYLED_ITEM('',(#441),#434);
#443=ADVANCED_FACE('',(#842,#844),#846,.T.);
#444=COLOUR_RGB($,0.827450980392157,0.831372549019608,0.835294117647059);
#445=FILL_AREA_STYLE_COLOUR($,#444);
#446=FILL_AREA_STYLE($,(#445));
#447=SURFACE_STYLE_FILL_AREA(#446);
#448=SURFACE_SIDE_STYLE('',(#447));
#449=SURFACE_STYLE_USAGE(.BOTH.,#448);
#450=PRESENTATION_STYLE_ASSIGNMENT((#449));
#451=STYLED_ITEM('',(#450),#443);
#452=ADVANCED_FACE('',(#851,#853),#855,.T.);
#453=COLOUR_RGB($,0.827450980392157,0.831372549019608,0.835294117647059);
#454=FILL_AREA_STYLE_COLOUR($,#453);
#455=FILL_AREA_STYLE($,(#454));
#456=SURFACE_STYLE_FILL_AREA(#455);
#457=SURFACE_SIDE_STYLE('',(#456));
#458=SURFACE_STYLE_USAGE(.BOTH.,#457);
#459=PRESENTATION_STYLE_ASSIGNMENT((#458));
#460=STYLED_ITEM('',(#459),#452);
#461=ADVANCED_FACE('',(#860,#862),#864,.T.);
#462=COLOUR_RGB($,0.827450980392157,0.831372549019608,0.835294117647059);
#463=FILL_AREA_STYLE_COLOUR($,#462);
#464=FILL_AREA_STYLE($,(#463));
#465=SURFACE_STYLE_FILL_AREA(#464);
#466=SURFACE_SIDE_STYLE('',(#465));
#467=SURFACE_STYLE_USAGE(.BOTH.,#466);
#468=PRESENTATION_STYLE_ASSIGNMENT((#467));
#469=STYLED_ITEM('',(#468),#461);
#470=ADVANCED_FACE('',(#869,#871),#873,.T.);
#471=COLOUR_RGB($,0.827450980392157,0.831372549019608,0.835294117647059);
#472=FILL_AREA_STYLE_COLOUR($,#471);
#473=FILL_AREA_STYLE($,(#472));
#474=SURFACE_STYLE_FILL_AREA(#473);
#475=SURFACE_SIDE_STYLE('',(#474));
#476=SURFACE_STYLE_USAGE(.BOTH.,#475);
#477=PRESENTATION_STYLE_ASSIGNMENT((#476));
#478=STYLED_ITEM('',(#477),#470);
#479=ADVANCED_FACE('',(#878,#880),#882,.T.);
#480=COLOUR_RGB($,0.827450980392157,0.831372549019608,0.835294117647059);
#481=FILL_AREA_STYLE_COLOUR($,#480);
#482=FILL_AREA_STYLE($,(#481));
#483=SURFACE_STYLE_FILL_AREA(#482);
#484=SURFACE_SIDE_STYLE('',(#483));
#485=SURFACE_STYLE_USAGE(.BOTH.,#484);
#486=PRESENTATION_STYLE_ASSIGNMENT((#485));
#487=STYLED_ITEM('',(#486),#479);
#488=ADVANCED_FACE('',(#887,#889),#891,.T.);
#489=COLOUR_RGB($,0.827450980392157,0.831372549019608,0.835294117647059);
#490=FILL_AREA_STYLE_COLOUR($,#489);
#491=FILL_AREA_STYLE($,(#490));
#492=SURFACE_STYLE_FILL_AREA(#491);
#493=SURFACE_SIDE_STYLE('',(#492));
#494=SURFACE_STYLE_USAGE(.BOTH.,#493);
#495=PRESENTATION_STYLE_ASSIGNMENT((#494));
#496=STYLED_ITEM('',(#495),#488);
#497=ADVANCED_FACE('',(#896,#898),#900,.T.);
#498=COLOUR_RGB($,0.827450980392157,0.831372549019608,0.835294117647059);
#499=FILL_AREA_STYLE_COLOUR($,#498);
#500=FILL_AREA_STYLE($,(#499));
#501=SURFACE_STYLE_FILL_AREA(#500);
#502=SURFACE_SIDE_STYLE('',(#501));
#503=SURFACE_STYLE_USAGE(.BOTH.,#502);
#504=PRESENTATION_STYLE_ASSIGNMENT((#503));
#505=STYLED_ITEM('',(#504),#497);
#506=ADVANCED_FACE('',(#905,#907),#909,.T.);
#507=COLOUR_RGB($,0.827450980392157,0.831372549019608,0.835294117647059);
#508=FILL_AREA_STYLE_COLOUR($,#507);
#509=FILL_AREA_STYLE($,(#508));
#510=SURFACE_STYLE_FILL_AREA(#509);
#511=SURFACE_SIDE_STYLE('',(#510));
#512=SURFACE_STYLE_USAGE(.BOTH.,#511);
#513=PRESENTATION_STYLE_ASSIGNMENT((#512));
#514=STYLED_ITEM('',(#513),#506);
#515=ADVANCED_FACE('',(#914,#916),#918,.T.);
#516=COLOUR_RGB($,0.827450980392157,0.831372549019608,0.835294117647059);
#517=FILL_AREA_STYLE_COLOUR($,#516);
#518=FILL_AREA_STYLE($,(#517));
#519=SURFACE_STYLE_FILL_AREA(#518);
#520=SURFACE_SIDE_STYLE('',(#519));
#521=SURFACE_STYLE_USAGE(.BOTH.,#520);
#522=PRESENTATION_STYLE_ASSIGNMENT((#521));
#523=STYLED_ITEM('',(#522),#515);
#524=ADVANCED_FACE('',(#923,#925),#927,.T.);
#525=COLOUR_RGB($,0.827450980392157,0.831372549019608,0.835294117647059);
#526=FILL_AREA_STYLE_COLOUR($,#525);
#527=FILL_AREA_STYLE($,(#526));
#528=SURFACE_STYLE_FILL_AREA(#527);
#529=SURFACE_SIDE_STYLE('',(#528));
#530=SURFACE_STYLE_USAGE(.BOTH.,#529);
#531=PRESENTATION_STYLE_ASSIGNMENT((#530));
#532=STYLED_ITEM('',(#531),#524);
#533=ADVANCED_FACE('',(#932,#934),#936,.F.);
#534=COLOUR_RGB($,0.827450980392157,0.831372549019608,0.835294117647059);
#535=FILL_AREA_STYLE_COLOUR($,#534);
#536=FILL_AREA_STYLE($,(#535));
#537=SURFACE_STYLE_FILL_AREA(#536);
#538=SURFACE_SIDE_STYLE('',(#537));
#539=SURFACE_STYLE_USAGE(.BOTH.,#538);
#540=PRESENTATION_STYLE_ASSIGNMENT((#539));
#541=STYLED_ITEM('',(#540),#533);
#542=ADVANCED_FACE('',(#941,#943),#945,.F.);
#543=COLOUR_RGB($,0.827450980392157,0.831372549019608,0.835294117647059);
#544=FILL_AREA_STYLE_COLOUR($,#543);
#545=FILL_AREA_STYLE($,(#544));
#546=SURFACE_STYLE_FILL_AREA(#545);
#547=SURFACE_SIDE_STYLE('',(#546));
#548=SURFACE_STYLE_USAGE(.BOTH.,#547);
#549=PRESENTATION_STYLE_ASSIGNMENT((#548));
#550=STYLED_ITEM('',(#549),#542);
#551=ADVANCED_FACE('',(#950,#952),#954,.F.);
#552=COLOUR_RGB($,0.827450980392157,0.831372549019608,0.835294117647059);
#553=FILL_AREA_STYLE_COLOUR($,#552);
#554=FILL_AREA_STYLE($,(#553));
#555=SURFACE_STYLE_FILL_AREA(#554);
#556=SURFACE_SIDE_STYLE('',(#555));
#557=SURFACE_STYLE_USAGE(.BOTH.,#556);
#558=PRESENTATION_STYLE_ASSIGNMENT((#557));
#559=STYLED_ITEM('',(#558),#551);
#560=ADVANCED_FACE('',(#959,#961),#963,.T.);
#561=COLOUR_RGB($,0.827450980392157,0.831372549019608,0.835294117647059);
#562=FILL_AREA_STYLE_COLOUR($,#561);
#563=FILL_AREA_STYLE($,(#562));
#564=SURFACE_STYLE_FILL_AREA(#563);
#565=SURFACE_SIDE_STYLE('',(#564));
#566=SURFACE_STYLE_USAGE(.BOTH.,#565);
#567=PRESENTATION_STYLE_ASSIGNMENT((#566));
#568=STYLED_ITEM('',(#567),#560);
#569=ADVANCED_FACE('',(#968,#970),#972,.F.);
#570=COLOUR_RGB($,0.827450980392157,0.831372549019608,0.835294117647059);
#571=FILL_AREA_STYLE_COLOUR($,#570);
#572=FILL_AREA_STYLE($,(#571));
#573=SURFACE_STYLE_FILL_AREA(#572);
#574=SURFACE_SIDE_STYLE('',(#573));
#575=SURFACE_STYLE_USAGE(.BOTH.,#574);
#576=PRESENTATION_STYLE_ASSIGNMENT((#575));
#577=STYLED_ITEM('',(#576),#569);
#578=ADVANCED_FACE('',(#977,#979),#981,.F.);
#579=COLOUR_RGB($,0.827450980392157,0.831372549019608,0.835294117647059);
#580=FILL_AREA_STYLE_COLOUR($,#579);
#581=FILL_AREA_STYLE($,(#580));
#582=SURFACE_STYLE_FILL_AREA(#581);
#583=SURFACE_SIDE_STYLE('',(#582));
#584=SURFACE_STYLE_USAGE(.BOTH.,#583);
#585=PRESENTATION_STYLE_ASSIGNMENT((#584));
#586=STYLED_ITEM('',(#585),#578);
#587=ADVANCED_FACE('',(#986,#988),#990,.F.);
#588=COLOUR_RGB($,0.827450980392157,0.831372549019608,0.835294117647059);
#589=FILL_AREA_STYLE_COLOUR($,#588);
#590=FILL_AREA_STYLE($,(#589));
#591=SURFACE_STYLE_FILL_AREA(#590);
#592=SURFACE_SIDE_STYLE('',(#591));
#593=SURFACE_STYLE_USAGE(.BOTH.,#592);
#594=PRESENTATION_STYLE_ASSIGNMENT((#593));
#595=STYLED_ITEM('',(#594),#587);
#596=ADVANCED_FACE('',(#995,#997),#999,.F.);
#597=COLOUR_RGB($,0.827450980392157,0.831372549019608,0.835294117647059);
#598=FILL_AREA_STYLE_COLOUR($,#597);
#599=FILL_AREA_STYLE($,(#598));
#600=SURFACE_STYLE_FILL_AREA(#599);
#601=SURFACE_SIDE_STYLE('',(#600));
#602=SURFACE_STYLE_USAGE(.BOTH.,#601);
#603=PRESENTATION_STYLE_ASSIGNMENT((#602));
#604=STYLED_ITEM('',(#603),#596);
#605=ADVANCED_FACE('',(#1004),#1006,.T.);
#606=COLOUR_RGB($,0.827450980392157,0.831372549019608,0.835294117647059);
#607=FILL_AREA_STYLE_COLOUR($,#606);
#608=FILL_AREA_STYLE($,(#607));
#609=SURFACE_STYLE_FILL_AREA(#608);
#610=SURFACE_SIDE_STYLE('',(#609));
#611=SURFACE_STYLE_USAGE(.BOTH.,#610);
#612=PRESENTATION_STYLE_ASSIGNMENT((#611));
#613=STYLED_ITEM('',(#612),#605);
#614=FACE_BOUND('',#615,.T.);
#615=EDGE_LOOP('',(#1011,#1012,#1013,#1014));
#616=PLANE('',#617);
#617=AXIS2_PLACEMENT_3D('',#618,#619,#620);
#618=CARTESIAN_POINT('',(-1.2451077025535,-1.27,1.07));
#619=DIRECTION('',(0.,-1.,0.));
#620=DIRECTION('',(1.,0.,0.));
#621=FACE_BOUND('',#622,.T.);
#622=EDGE_LOOP('',(#1015,#1016,#1017,#1018));
#623=PLANE('',#624);
#624=AXIS2_PLACEMENT_3D('',#625,#626,#627);
#625=CARTESIAN_POINT('',(-1.2451077025535,-1.27,1.07));
#626=DIRECTION('',(0.,-1.,0.));
#627=DIRECTION('',(1.,0.,0.));
#628=FACE_BOUND('',#629,.T.);
#629=EDGE_LOOP('',(#1019,#1020,#1021,#1022));
#630=PLANE('',#631);
#631=AXIS2_PLACEMENT_3D('',#632,#633,#634);
#632=CARTESIAN_POINT('',(6.3251077025535,1.27,1.07));
#633=DIRECTION('',(0.,1.,-0.));
#634=DIRECTION('',(-1.,0.,0.));
#635=FACE_BOUND('',#636,.T.);
#636=EDGE_LOOP('',(#1023,#1024,#1025,#1026));
#637=PLANE('',#638);
#638=AXIS2_PLACEMENT_3D('',#639,#640,#641);
#639=CARTESIAN_POINT('',(6.3251077025535,1.27,1.07));
#640=DIRECTION('',(0.,1.,-0.));
#641=DIRECTION('',(-1.,0.,0.));
#642=FACE_BOUND('',#643,.T.);
#643=EDGE_LOOP('',(#1027,#1028,#1029,#1030,#1031,#1032,#1033,#1034,#1035,#1036,#1037,
#1038,#1039,#1040,#1041,#1042,#1043,#1044,#1045,#1046,#1047,#1048,#1049,#1050));
#644=FACE_BOUND('',#645,.T.);
#645=EDGE_LOOP('',(#1051));
#646=FACE_BOUND('',#647,.T.);
#647=EDGE_LOOP('',(#1052));
#648=FACE_BOUND('',#649,.T.);
#649=EDGE_LOOP('',(#1053));
#650=PLANE('',#651);
#651=AXIS2_PLACEMENT_3D('',#652,#653,#654);
#652=CARTESIAN_POINT('',(0.,0.,2.34));
#653=DIRECTION('',(0.,0.,1.));
#654=DIRECTION('',(1.,0.,0.));
#655=FACE_BOUND('',#656,.T.);
#656=EDGE_LOOP('',(#1054,#1055,#1056,#1057,#1058,#1059,#1060,#1061,#1062,#1063,#1064,
#1065,#1066,#1067,#1068,#1069,#1070,#1071,#1072,#1073,#1074,#1075,#1076,#1077));
#657=FACE_BOUND('',#658,.T.);
#658=EDGE_LOOP('',(#1078));
#659=FACE_BOUND('',#660,.T.);
#660=EDGE_LOOP('',(#1079));
#661=FACE_BOUND('',#662,.T.);
#662=EDGE_LOOP('',(#1080));
#663=PLANE('',#664);
#664=AXIS2_PLACEMENT_3D('',#665,#666,#667);
#665=CARTESIAN_POINT('',(0.,0.,1.07));
#666=DIRECTION('',(0.,0.,1.));
#667=DIRECTION('',(1.,0.,0.));
#668=FACE_BOUND('',#669,.T.);
#669=EDGE_LOOP('',(#1081,#1082,#1083,#1084));
#670=PLANE('',#671);
#671=AXIS2_PLACEMENT_3D('',#672,#673,#674);
#672=CARTESIAN_POINT('',(3.96900440526804,-1.27,1.07));
#673=DIRECTION('',(0.906307787039943,0.422618261733638,-0.));
#674=DIRECTION('',(-0.422618261733638,0.906307787039943,0.));
#675=FACE_BOUND('',#676,.T.);
#676=EDGE_LOOP('',(#1085,#1086,#1087,#1088));
#677=PLANE('',#678);
#678=AXIS2_PLACEMENT_3D('',#679,#680,#681);
#679=CARTESIAN_POINT('',(3.78281076638794,-0.987321452149846,1.07));
#680=DIRECTION('',(-0.906307787039943,0.422618261733637,0.));
#681=DIRECTION('',(-0.422618261733637,-0.906307787039943,0.));
#682=FACE_BOUND('',#683,.T.);
#683=EDGE_LOOP('',(#1089,#1090,#1091,#1092));
#684=CYLINDRICAL_SURFACE('',#685,0.03);
#685=AXIS2_PLACEMENT_3D('',#686,#687,#688);
#686=CARTESIAN_POINT('',(3.81,-1.,1.07));
#687=DIRECTION('',(0.,0.,1.));
#688=DIRECTION('',(0.906307786970437,0.422618261882694,0.));
#689=FACE_BOUND('',#690,.T.);
#690=EDGE_LOOP('',(#1093,#1094,#1095,#1096));
#691=CYLINDRICAL_SURFACE('',#692,0.03);
#692=AXIS2_PLACEMENT_3D('',#693,#694,#695);
#693=CARTESIAN_POINT('',(3.81,1.,1.07));
#694=DIRECTION('',(0.,0.,1.));
#695=DIRECTION('',(-0.906307787035285,-0.422618261743626,0.));
#696=FACE_BOUND('',#697,.T.);
#697=EDGE_LOOP('',(#1097,#1098,#1099,#1100));
#698=PLANE('',#699);
#699=AXIS2_PLACEMENT_3D('',#700,#701,#702);
#700=CARTESIAN_POINT('',(3.65099559472815,1.27,1.07));
#701=DIRECTION('',(-0.906307787035266,-0.422618261743666,0.));
#702=DIRECTION('',(0.422618261743666,-0.906307787035267,0.));
#703=FACE_BOUND('',#704,.T.);
#704=EDGE_LOOP('',(#1101,#1102,#1103,#1104));
#705=PLANE('',#706);
#706=AXIS2_PLACEMENT_3D('',#707,#708,#709);
#707=CARTESIAN_POINT('',(3.83718923361106,0.987321452147693,1.07));
#708=DIRECTION('',(0.906307787035268,-0.422618261743663,0.));
#709=DIRECTION('',(0.422618261743663,0.906307787035268,0.));
#710=FACE_BOUND('',#711,.T.);
#711=EDGE_LOOP('',(#1105,#1106,#1107,#1108));
#712=PLANE('',#713);
#713=AXIS2_PLACEMENT_3D('',#714,#715,#716);
#714=CARTESIAN_POINT('',(1.42900440526804,-1.27,1.07));
#715=DIRECTION('',(0.906307787039943,0.422618261733638,-0.));
#716=DIRECTION('',(-0.422618261733638,0.906307787039943,0.));
#717=FACE_BOUND('',#718,.T.);
#718=EDGE_LOOP('',(#1109,#1110,#1111,#1112));
#719=PLANE('',#720);
#720=AXIS2_PLACEMENT_3D('',#721,#722,#723);
#721=CARTESIAN_POINT('',(6.3251077025535,-1.27,1.07));
#722=DIRECTION('',(0.90630778703665,-0.4226182617407,0.));
#723=DIRECTION('',(0.4226182617407,0.90630778703665,0.));
#724=FACE_BOUND('',#725,.T.);
#725=EDGE_LOOP('',(#1113,#1114,#1115,#1116));
#726=PLANE('',#727);
#727=AXIS2_PLACEMENT_3D('',#728,#729,#730);
#728=CARTESIAN_POINT('',(6.465,0.97,1.07));
#729=DIRECTION('',(0.906307787036649,0.422618261740701,-0.));
#730=DIRECTION('',(-0.422618261740701,0.906307787036649,0.));
#731=FACE_BOUND('',#732,.T.);
#732=EDGE_LOOP('',(#1117,#1118,#1119,#1120));
#733=PLANE('',#734);
#734=AXIS2_PLACEMENT_3D('',#735,#736,#737);
#735=CARTESIAN_POINT('',(1.29718923361106,0.987321452147693,1.07));
#736=DIRECTION('',(0.906307787035268,-0.422618261743663,0.));
#737=DIRECTION('',(0.422618261743663,0.906307787035268,0.));
#738=FACE_BOUND('',#739,.T.);
#739=EDGE_LOOP('',(#1121,#1122,#1123,#1124));
#740=CYLINDRICAL_SURFACE('',#741,0.03);
#741=AXIS2_PLACEMENT_3D('',#742,#743,#744);
#742=CARTESIAN_POINT('',(1.27,1.,1.07));
#743=DIRECTION('',(0.,0.,1.));
#744=DIRECTION('',(-0.906307787035285,-0.422618261743626,0.));
#745=FACE_BOUND('',#746,.T.);
#746=EDGE_LOOP('',(#1125,#1126,#1127,#1128));
#747=PLANE('',#748);
#748=AXIS2_PLACEMENT_3D('',#749,#750,#751);
#749=CARTESIAN_POINT('',(1.11099559472815,1.27,1.07));
#750=DIRECTION('',(-0.906307787035266,-0.422618261743666,0.));
#751=DIRECTION('',(0.422618261743666,-0.906307787035267,0.));
#752=FACE_BOUND('',#753,.T.);
#753=EDGE_LOOP('',(#1129,#1130,#1131,#1132));
#754=PLANE('',#755);
#755=AXIS2_PLACEMENT_3D('',#756,#757,#758);
#756=CARTESIAN_POINT('',(6.3251077025535,1.27,1.07));
#757=DIRECTION('',(0.,1.,-0.));
#758=DIRECTION('',(-1.,0.,0.));
#759=FACE_BOUND('',#760,.T.);
#760=EDGE_LOOP('',(#1133,#1134,#1135,#1136));
#761=PLANE('',#762);
#762=AXIS2_PLACEMENT_3D('',#763,#764,#765);
#763=CARTESIAN_POINT('',(-1.2451077025535,1.27,1.07));
#764=DIRECTION('',(-0.90630778703665,0.422618261740699,0.));
#765=DIRECTION('',(-0.4226182617407,-0.90630778703665,0.));
#766=FACE_BOUND('',#767,.T.);
#767=EDGE_LOOP('',(#1137,#1138,#1139,#1140));
#768=PLANE('',#769);
#769=AXIS2_PLACEMENT_3D('',#770,#771,#772);
#770=CARTESIAN_POINT('',(-1.385,0.970000000000001,1.07));
#771=DIRECTION('',(-1.,2.28911963840238E-016,0.));
#772=DIRECTION('',(-2.28911963840238E-016,-1.,0.));
#773=FACE_BOUND('',#774,.T.);
#774=EDGE_LOOP('',(#1141,#1142,#1143,#1144));
#775=PLANE('',#776);
#776=AXIS2_PLACEMENT_3D('',#777,#778,#779);
#777=CARTESIAN_POINT('',(-1.385,-0.97,1.07));
#778=DIRECTION('',(-0.90630778703665,-0.422618261740699,0.));
#779=DIRECTION('',(0.422618261740699,-0.90630778703665,0.));
#780=FACE_BOUND('',#781,.T.);
#781=EDGE_LOOP('',(#1145,#1146,#1147,#1148));
#782=PLANE('',#783);
#783=AXIS2_PLACEMENT_3D('',#784,#785,#786);
#784=CARTESIAN_POINT('',(-1.2451077025535,-1.27,1.07));
#785=DIRECTION('',(0.,-1.,0.));
#786=DIRECTION('',(1.,0.,0.));
#787=FACE_BOUND('',#788,.T.);
#788=EDGE_LOOP('',(#1149,#1150,#1151,#1152));
#789=PLANE('',#790);
#790=AXIS2_PLACEMENT_3D('',#791,#792,#793);
#791=CARTESIAN_POINT('',(1.24281076638794,-0.987321452149846,1.07));
#792=DIRECTION('',(-0.906307787039943,0.422618261733637,0.));
#793=DIRECTION('',(-0.422618261733637,-0.906307787039943,0.));
#794=FACE_BOUND('',#795,.T.);
#795=EDGE_LOOP('',(#1153,#1154,#1155,#1156));
#796=CYLINDRICAL_SURFACE('',#797,0.03);
#797=AXIS2_PLACEMENT_3D('',#798,#799,#800);
#798=CARTESIAN_POINT('',(1.27,-1.,1.07));
#799=DIRECTION('',(0.,0.,1.));
#800=DIRECTION('',(0.906307786970437,0.422618261882694,0.));
#801=FACE_BOUND('',#802,.T.);
#802=EDGE_LOOP('',(#1157,#1158,#1159,#1160));
#803=PLANE('',#804);
#804=AXIS2_PLACEMENT_3D('',#805,#806,#807);
#805=CARTESIAN_POINT('',(6.465,-0.97,1.07));
#806=DIRECTION('',(1.,0.,0.));
#807=DIRECTION('',(0.,1.,0.));
#808=FACE_OUTER_BOUND('',#809,.T.);
#809=EDGE_LOOP('',(#1161));
#810=FACE_OUTER_BOUND('',#811,.T.);
#811=EDGE_LOOP('',(#1162));
#812=CYLINDRICAL_SURFACE('',#813,0.66);
#813=AXIS2_PLACEMENT_3D('',#814,#815,#816);
#814=CARTESIAN_POINT('',(0.,0.,0.));
#815=DIRECTION('',(0.,0.,1.));
#816=DIRECTION('',(1.,0.,0.));
#817=FACE_OUTER_BOUND('',#818,.T.);
#818=EDGE_LOOP('',(#1163));
#819=FACE_OUTER_BOUND('',#820,.T.);
#820=EDGE_LOOP('',(#1164));
#821=CYLINDRICAL_SURFACE('',#822,0.66);
#822=AXIS2_PLACEMENT_3D('',#823,#824,#825);
#823=CARTESIAN_POINT('',(5.08,0.,0.));
#824=DIRECTION('',(0.,0.,1.));
#825=DIRECTION('',(1.,0.,0.));
#826=FACE_OUTER_BOUND('',#827,.T.);
#827=EDGE_LOOP('',(#1165));
#828=FACE_OUTER_BOUND('',#829,.T.);
#829=EDGE_LOOP('',(#1166));
#830=CYLINDRICAL_SURFACE('',#831,0.66);
#831=AXIS2_PLACEMENT_3D('',#832,#833,#834);
#832=CARTESIAN_POINT('',(2.54,0.,0.));
#833=DIRECTION('',(0.,0.,1.));
#834=DIRECTION('',(1.,0.,0.));
#835=FACE_BOUND('',#836,.T.);
#836=EDGE_LOOP('',(#1167));
#837=PLANE('',#838);
#838=AXIS2_PLACEMENT_3D('',#839,#840,#841);
#839=CARTESIAN_POINT('',(0.,0.,-2.74));
#840=DIRECTION('',(-0.,-0.,-1.));
#841=DIRECTION('',(0.,-1.,0.));
#842=FACE_OUTER_BOUND('',#843,.T.);
#843=EDGE_LOOP('',(#1168));
#844=FACE_OUTER_BOUND('',#845,.T.);
#845=EDGE_LOOP('',(#1169));
#846=CONICAL_SURFACE('',#847,0.285,0.785398163397449);
#847=AXIS2_PLACEMENT_3D('',#848,#849,#850);
#848=CARTESIAN_POINT('',(0.,0.,-2.645));
#849=DIRECTION('',(0.,0.,1.));
#850=DIRECTION('',(-0.,1.,-0.));
#851=FACE_OUTER_BOUND('',#852,.T.);
#852=EDGE_LOOP('',(#1170));
#853=FACE_OUTER_BOUND('',#854,.T.);
#854=EDGE_LOOP('',(#1171));
#855=CYLINDRICAL_SURFACE('',#856,0.38);
#856=AXIS2_PLACEMENT_3D('',#857,#858,#859);
#857=CARTESIAN_POINT('',(0.,0.,0.));
#858=DIRECTION('',(-0.,-0.,-1.));
#859=DIRECTION('',(0.,-1.,0.));
#860=FACE_OUTER_BOUND('',#861,.T.);
#861=EDGE_LOOP('',(#1172));
#862=FACE_OUTER_BOUND('',#863,.T.);
#863=EDGE_LOOP('',(#1173));
#864=CONICAL_SURFACE('',#865,0.52,0.785398163397449);
#865=AXIS2_PLACEMENT_3D('',#866,#867,#868);
#866=CARTESIAN_POINT('',(0.,0.,0.14));
#867=DIRECTION('',(0.,0.,1.));
#868=DIRECTION('',(-0.,1.,-0.));
#869=FACE_OUTER_BOUND('',#870,.T.);
#870=EDGE_LOOP('',(#1174));
#871=FACE_OUTER_BOUND('',#872,.T.);
#872=EDGE_LOOP('',(#1175));
#873=CYLINDRICAL_SURFACE('',#874,0.66);
#874=AXIS2_PLACEMENT_3D('',#875,#876,#877);
#875=CARTESIAN_POINT('',(0.,0.,1.29287838708185));
#876=DIRECTION('',(-0.,-0.,-1.));
#877=DIRECTION('',(0.,-1.,0.));
#878=FACE_OUTER_BOUND('',#879,.T.);
#879=EDGE_LOOP('',(#1176));
#880=FACE_OUTER_BOUND('',#881,.T.);
#881=EDGE_LOOP('',(#1177));
#882=CONICAL_SURFACE('',#883,0.735,0.349065850398866);
#883=AXIS2_PLACEMENT_3D('',#884,#885,#886);
#884=CARTESIAN_POINT('',(0.,0.,1.49893919354094));
#885=DIRECTION('',(0.,0.,1.));
#886=DIRECTION('',(-0.,1.,-0.));
#887=FACE_BOUND('',#888,.T.);
#888=EDGE_LOOP('',(#1178));
#889=FACE_BOUND('',#890,.T.);
#890=EDGE_LOOP('',(#1179));
#891=PLANE('',#892);
#892=AXIS2_PLACEMENT_3D('',#893,#894,#895);
#893=CARTESIAN_POINT('',(0.,0.,1.70500000000004));
#894=DIRECTION('',(0.,0.,1.));
#895=DIRECTION('',(0.,-1.,0.));
#896=FACE_OUTER_BOUND('',#897,.T.);
#897=EDGE_LOOP('',(#1180));
#898=FACE_OUTER_BOUND('',#899,.T.);
#899=EDGE_LOOP('',(#1181));
#900=CYLINDRICAL_SURFACE('',#901,0.66);
#901=AXIS2_PLACEMENT_3D('',#902,#903,#904);
#902=CARTESIAN_POINT('',(0.,0.,2.2400000000001));
#903=DIRECTION('',(-0.,-0.,-1.));
#904=DIRECTION('',(0.,-1.,0.));
#905=FACE_BOUND('',#906,.T.);
#906=EDGE_LOOP('',(#1182));
#907=FACE_BOUND('',#908,.T.);
#908=EDGE_LOOP('',(#1183));
#909=PLANE('',#910);
#910=AXIS2_PLACEMENT_3D('',#911,#912,#913);
#911=CARTESIAN_POINT('',(0.,0.,2.2400000000001));
#912=DIRECTION('',(-0.,-0.,-1.));
#913=DIRECTION('',(0.,-1.,0.));
#914=FACE_OUTER_BOUND('',#915,.T.);
#915=EDGE_LOOP('',(#1184));
#916=FACE_OUTER_BOUND('',#917,.T.);
#917=EDGE_LOOP('',(#1185));
#918=CYLINDRICAL_SURFACE('',#919,0.915);
#919=AXIS2_PLACEMENT_3D('',#920,#921,#922);
#920=CARTESIAN_POINT('',(0.,0.,3.1));
#921=DIRECTION('',(-0.,-0.,-1.));
#922=DIRECTION('',(0.,-1.,0.));
#923=FACE_BOUND('',#924,.T.);
#924=EDGE_LOOP('',(#1186));
#925=FACE_BOUND('',#926,.T.);
#926=EDGE_LOOP('',(#1187));
#927=PLANE('',#928);
#928=AXIS2_PLACEMENT_3D('',#929,#930,#931);
#929=CARTESIAN_POINT('',(0.,0.,3.1));
#930=DIRECTION('',(0.,0.,1.));
#931=DIRECTION('',(0.,-1.,0.));
#932=FACE_OUTER_BOUND('',#933,.T.);
#933=EDGE_LOOP('',(#1188));
#934=FACE_OUTER_BOUND('',#935,.T.);
#935=EDGE_LOOP('',(#1189));
#936=CONICAL_SURFACE('',#937,0.57959553513995,0.349065850398866);
#937=AXIS2_PLACEMENT_3D('',#938,#939,#940);
#938=CARTESIAN_POINT('',(0.,0.,2.95000000000005));
#939=DIRECTION('',(0.,0.,1.));
#940=DIRECTION('',(-0.,1.,-0.));
#941=FACE_OUTER_BOUND('',#942,.T.);
#942=EDGE_LOOP('',(#1190));
#943=FACE_OUTER_BOUND('',#944,.T.);
#944=EDGE_LOOP('',(#1191));
#945=CYLINDRICAL_SURFACE('',#946,0.525);
#946=AXIS2_PLACEMENT_3D('',#947,#948,#949);
#947=CARTESIAN_POINT('',(0.,0.,2.3));
#948=DIRECTION('',(-0.,-0.,-1.));
#949=DIRECTION('',(0.,-1.,0.));
#950=FACE_OUTER_BOUND('',#951,.T.);
#951=EDGE_LOOP('',(#1192));
#952=FACE_OUTER_BOUND('',#953,.T.);
#953=EDGE_LOOP('',(#1193));
#954=CONICAL_SURFACE('',#955,0.375,0.185347949995695);
#955=AXIS2_PLACEMENT_3D('',#956,#957,#958);
#956=CARTESIAN_POINT('',(0.,0.,1.5));
#957=DIRECTION('',(0.,0.,1.));
#958=DIRECTION('',(-0.,1.,-0.));
#959=FACE_BOUND('',#960,.T.);
#960=EDGE_LOOP('',(#1194));
#961=FACE_BOUND('',#962,.T.);
#962=EDGE_LOOP('',(#1195));
#963=PLANE('',#964);
#964=AXIS2_PLACEMENT_3D('',#965,#966,#967);
#965=CARTESIAN_POINT('',(0.,0.,0.7));
#966=DIRECTION('',(-0.,-0.,-1.));
#967=DIRECTION('',(0.,-1.,0.));
#968=FACE_OUTER_BOUND('',#969,.T.);
#969=EDGE_LOOP('',(#1196));
#970=FACE_OUTER_BOUND('',#971,.T.);
#971=EDGE_LOOP('',(#1197));
#972=CYLINDRICAL_SURFACE('',#973,0.525);
#973=AXIS2_PLACEMENT_3D('',#974,#975,#976);
#974=CARTESIAN_POINT('',(0.,0.,0.45021515475689));
#975=DIRECTION('',(-0.,-0.,-1.));
#976=DIRECTION('',(0.,-1.,0.));
#977=FACE_OUTER_BOUND('',#978,.T.);
#978=EDGE_LOOP('',(#1198));
#979=FACE_OUTER_BOUND('',#980,.T.);
#980=EDGE_LOOP('',(#1199));
#981=CONICAL_SURFACE('',#982,0.4,1.02974425866379);
#982=AXIS2_PLACEMENT_3D('',#983,#984,#985);
#983=CARTESIAN_POINT('',(0.,0.,0.375107577380634));
#984=DIRECTION('',(0.,0.,1.));
#985=DIRECTION('',(-0.,1.,-0.));
#986=FACE_OUTER_BOUND('',#987,.T.);
#987=EDGE_LOOP('',(#1200));
#988=FACE_OUTER_BOUND('',#989,.T.);
#989=EDGE_LOOP('',(#1201));
#990=CYLINDRICAL_SURFACE('',#991,0.275);
#991=AXIS2_PLACEMENT_3D('',#992,#993,#994);
#992=CARTESIAN_POINT('',(0.,0.,-1.6));
#993=DIRECTION('',(-0.,-0.,-1.));
#994=DIRECTION('',(0.,-1.,0.));
#995=FACE_OUTER_BOUND('',#996,.T.);
#996=EDGE_LOOP('',(#1202));
#997=FACE_OUTER_BOUND('',#998,.T.);
#998=EDGE_LOOP('',(#1203));
#999=CONICAL_SURFACE('',#1000,0.1525,1.02974425867665);
#1000=AXIS2_PLACEMENT_3D('',#1001,#1002,#1003);
#1001=CARTESIAN_POINT('',(0.,0.,-1.67360542583088));
#1002=DIRECTION('',(0.,0.,1.));
#1003=DIRECTION('',(-0.,1.,-0.));
#1004=FACE_BOUND('',#1005,.T.);
#1005=EDGE_LOOP('',(#1204));
#1006=PLANE('',#1007);
#1007=AXIS2_PLACEMENT_3D('',#1008,#1009,#1010);
#1008=CARTESIAN_POINT('',(0.,0.,-1.74721085166175));
#1009=DIRECTION('',(0.,0.,1.));
#1010=DIRECTION('',(0.,-1.,0.));
#1011=ORIENTED_EDGE('',*,*,#1205,.T.);
#1012=ORIENTED_EDGE('',*,*,#1206,.F.);
#1013=ORIENTED_EDGE('',*,*,#1207,.T.);
#1014=ORIENTED_EDGE('',*,*,#1208,.T.);
#1015=ORIENTED_EDGE('',*,*,#1209,.T.);
#1016=ORIENTED_EDGE('',*,*,#1210,.T.);
#1017=ORIENTED_EDGE('',*,*,#1211,.T.);
#1018=ORIENTED_EDGE('',*,*,#1212,.F.);
#1019=ORIENTED_EDGE('',*,*,#1213,.T.);
#1020=ORIENTED_EDGE('',*,*,#1214,.F.);
#1021=ORIENTED_EDGE('',*,*,#1215,.F.);
#1022=ORIENTED_EDGE('',*,*,#1216,.T.);
#1023=ORIENTED_EDGE('',*,*,#1217,.T.);
#1024=ORIENTED_EDGE('',*,*,#1218,.T.);
#1025=ORIENTED_EDGE('',*,*,#1219,.T.);
#1026=ORIENTED_EDGE('',*,*,#1220,.F.);
#1027=ORIENTED_EDGE('',*,*,#1221,.T.);
#1028=ORIENTED_EDGE('',*,*,#1222,.T.);
#1029=ORIENTED_EDGE('',*,*,#1223,.T.);
#1030=ORIENTED_EDGE('',*,*,#1220,.T.);
#1031=ORIENTED_EDGE('',*,*,#1224,.T.);
#1032=ORIENTED_EDGE('',*,*,#1225,.T.);
#1033=ORIENTED_EDGE('',*,*,#1226,.T.);
#1034=ORIENTED_EDGE('',*,*,#1227,.T.);
#1035=ORIENTED_EDGE('',*,*,#1228,.T.);
#1036=ORIENTED_EDGE('',*,*,#1229,.T.);
#1037=ORIENTED_EDGE('',*,*,#1230,.T.);
#1038=ORIENTED_EDGE('',*,*,#1231,.T.);
#1039=ORIENTED_EDGE('',*,*,#1232,.T.);
#1040=ORIENTED_EDGE('',*,*,#1233,.T.);
#1041=ORIENTED_EDGE('',*,*,#1234,.T.);
#1042=ORIENTED_EDGE('',*,*,#1206,.T.);
#1043=ORIENTED_EDGE('',*,*,#1235,.T.);
#1044=ORIENTED_EDGE('',*,*,#1236,.T.);
#1045=ORIENTED_EDGE('',*,*,#1237,.T.);
#1046=ORIENTED_EDGE('',*,*,#1212,.T.);
#1047=ORIENTED_EDGE('',*,*,#1238,.T.);
#1048=ORIENTED_EDGE('',*,*,#1239,.T.);
#1049=ORIENTED_EDGE('',*,*,#1240,.T.);
#1050=ORIENTED_EDGE('',*,*,#1214,.T.);
#1051=ORIENTED_EDGE('',*,*,#1241,.T.);
#1052=ORIENTED_EDGE('',*,*,#1242,.T.);
#1053=ORIENTED_EDGE('',*,*,#1243,.T.);
#1054=ORIENTED_EDGE('',*,*,#1244,.T.);
#1055=ORIENTED_EDGE('',*,*,#1216,.F.);
#1056=ORIENTED_EDGE('',*,*,#1245,.F.);
#1057=ORIENTED_EDGE('',*,*,#1246,.F.);
#1058=ORIENTED_EDGE('',*,*,#1247,.F.);
#1059=ORIENTED_EDGE('',*,*,#1210,.F.);
#1060=ORIENTED_EDGE('',*,*,#1248,.T.);
#1061=ORIENTED_EDGE('',*,*,#1249,.T.);
#1062=ORIENTED_EDGE('',*,*,#1250,.T.);
#1063=ORIENTED_EDGE('',*,*,#1208,.F.);
#1064=ORIENTED_EDGE('',*,*,#1251,.T.);
#1065=ORIENTED_EDGE('',*,*,#1252,.T.);
#1066=ORIENTED_EDGE('',*,*,#1253,.T.);
#1067=ORIENTED_EDGE('',*,*,#1254,.F.);
#1068=ORIENTED_EDGE('',*,*,#1255,.F.);
#1069=ORIENTED_EDGE('',*,*,#1256,.F.);
#1070=ORIENTED_EDGE('',*,*,#1257,.F.);
#1071=ORIENTED_EDGE('',*,*,#1258,.F.);
#1072=ORIENTED_EDGE('',*,*,#1259,.T.);
#1073=ORIENTED_EDGE('',*,*,#1260,.T.);
#1074=ORIENTED_EDGE('',*,*,#1261,.T.);
#1075=ORIENTED_EDGE('',*,*,#1218,.F.);
#1076=ORIENTED_EDGE('',*,*,#1262,.T.);
#1077=ORIENTED_EDGE('',*,*,#1263,.T.);
#1078=ORIENTED_EDGE('',*,*,#1264,.T.);
#1079=ORIENTED_EDGE('',*,*,#1265,.T.);
#1080=ORIENTED_EDGE('',*,*,#1266,.T.);
#1081=ORIENTED_EDGE('',*,*,#1248,.F.);
#1082=ORIENTED_EDGE('',*,*,#1209,.F.);
#1083=ORIENTED_EDGE('',*,*,#1237,.F.);
#1084=ORIENTED_EDGE('',*,*,#1267,.F.);
#1085=ORIENTED_EDGE('',*,*,#1250,.F.);
#1086=ORIENTED_EDGE('',*,*,#1268,.T.);
#1087=ORIENTED_EDGE('',*,*,#1235,.F.);
#1088=ORIENTED_EDGE('',*,*,#1205,.F.);
#1089=ORIENTED_EDGE('',*,*,#1249,.F.);
#1090=ORIENTED_EDGE('',*,*,#1267,.T.);
#1091=ORIENTED_EDGE('',*,*,#1236,.F.);
#1092=ORIENTED_EDGE('',*,*,#1268,.F.);
#1093=ORIENTED_EDGE('',*,*,#1263,.F.);
#1094=ORIENTED_EDGE('',*,*,#1269,.T.);
#1095=ORIENTED_EDGE('',*,*,#1222,.F.);
#1096=ORIENTED_EDGE('',*,*,#1270,.F.);
#1097=ORIENTED_EDGE('',*,*,#1262,.F.);
#1098=ORIENTED_EDGE('',*,*,#1217,.F.);
#1099=ORIENTED_EDGE('',*,*,#1223,.F.);
#1100=ORIENTED_EDGE('',*,*,#1269,.F.);
#1101=ORIENTED_EDGE('',*,*,#1244,.F.);
#1102=ORIENTED_EDGE('',*,*,#1270,.T.);
#1103=ORIENTED_EDGE('',*,*,#1221,.F.);
#1104=ORIENTED_EDGE('',*,*,#1213,.F.);
#1105=ORIENTED_EDGE('',*,*,#1251,.F.);
#1106=ORIENTED_EDGE('',*,*,#1207,.F.);
#1107=ORIENTED_EDGE('',*,*,#1234,.F.);
#1108=ORIENTED_EDGE('',*,*,#1271,.F.);
#1109=ORIENTED_EDGE('',*,*,#1247,.T.);
#1110=ORIENTED_EDGE('',*,*,#1272,.T.);
#1111=ORIENTED_EDGE('',*,*,#1238,.F.);
#1112=ORIENTED_EDGE('',*,*,#1211,.F.);
#1113=ORIENTED_EDGE('',*,*,#1245,.T.);
#1114=ORIENTED_EDGE('',*,*,#1215,.T.);
#1115=ORIENTED_EDGE('',*,*,#1240,.F.);
#1116=ORIENTED_EDGE('',*,*,#1273,.F.);
#1117=ORIENTED_EDGE('',*,*,#1261,.F.);
#1118=ORIENTED_EDGE('',*,*,#1274,.T.);
#1119=ORIENTED_EDGE('',*,*,#1224,.F.);
#1120=ORIENTED_EDGE('',*,*,#1219,.F.);
#1121=ORIENTED_EDGE('',*,*,#1260,.F.);
#1122=ORIENTED_EDGE('',*,*,#1275,.T.);
#1123=ORIENTED_EDGE('',*,*,#1225,.F.);
#1124=ORIENTED_EDGE('',*,*,#1274,.F.);
#1125=ORIENTED_EDGE('',*,*,#1259,.F.);
#1126=ORIENTED_EDGE('',*,*,#1276,.F.);
#1127=ORIENTED_EDGE('',*,*,#1226,.F.);
#1128=ORIENTED_EDGE('',*,*,#1275,.F.);
#1129=ORIENTED_EDGE('',*,*,#1276,.T.);
#1130=ORIENTED_EDGE('',*,*,#1258,.T.);
#1131=ORIENTED_EDGE('',*,*,#1277,.T.);
#1132=ORIENTED_EDGE('',*,*,#1227,.F.);
#1133=ORIENTED_EDGE('',*,*,#1257,.T.);
#1134=ORIENTED_EDGE('',*,*,#1278,.T.);
#1135=ORIENTED_EDGE('',*,*,#1228,.F.);
#1136=ORIENTED_EDGE('',*,*,#1277,.F.);
#1137=ORIENTED_EDGE('',*,*,#1256,.T.);
#1138=ORIENTED_EDGE('',*,*,#1279,.T.);
#1139=ORIENTED_EDGE('',*,*,#1229,.F.);
#1140=ORIENTED_EDGE('',*,*,#1278,.F.);
#1141=ORIENTED_EDGE('',*,*,#1255,.T.);
#1142=ORIENTED_EDGE('',*,*,#1280,.T.);
#1143=ORIENTED_EDGE('',*,*,#1230,.F.);
#1144=ORIENTED_EDGE('',*,*,#1279,.F.);
#1145=ORIENTED_EDGE('',*,*,#1281,.T.);
#1146=ORIENTED_EDGE('',*,*,#1231,.F.);
#1147=ORIENTED_EDGE('',*,*,#1280,.F.);
#1148=ORIENTED_EDGE('',*,*,#1254,.T.);
#1149=ORIENTED_EDGE('',*,*,#1253,.F.);
#1150=ORIENTED_EDGE('',*,*,#1282,.T.);
#1151=ORIENTED_EDGE('',*,*,#1232,.F.);
#1152=ORIENTED_EDGE('',*,*,#1281,.F.);
#1153=ORIENTED_EDGE('',*,*,#1252,.F.);
#1154=ORIENTED_EDGE('',*,*,#1271,.T.);
#1155=ORIENTED_EDGE('',*,*,#1233,.F.);
#1156=ORIENTED_EDGE('',*,*,#1282,.F.);
#1157=ORIENTED_EDGE('',*,*,#1246,.T.);
#1158=ORIENTED_EDGE('',*,*,#1273,.T.);
#1159=ORIENTED_EDGE('',*,*,#1239,.F.);
#1160=ORIENTED_EDGE('',*,*,#1272,.F.);
#1161=ORIENTED_EDGE('',*,*,#1241,.F.);
#1162=ORIENTED_EDGE('',*,*,#1264,.F.);
#1163=ORIENTED_EDGE('',*,*,#1242,.F.);
#1164=ORIENTED_EDGE('',*,*,#1265,.F.);
#1165=ORIENTED_EDGE('',*,*,#1243,.F.);
#1166=ORIENTED_EDGE('',*,*,#1266,.F.);
#1167=ORIENTED_EDGE('',*,*,#1283,.T.);
#1168=ORIENTED_EDGE('',*,*,#1283,.F.);
#1169=ORIENTED_EDGE('',*,*,#1284,.T.);
#1170=ORIENTED_EDGE('',*,*,#1285,.T.);
#1171=ORIENTED_EDGE('',*,*,#1284,.F.);
#1172=ORIENTED_EDGE('',*,*,#1285,.F.);
#1173=ORIENTED_EDGE('',*,*,#1286,.T.);
#1174=ORIENTED_EDGE('',*,*,#1287,.T.);
#1175=ORIENTED_EDGE('',*,*,#1286,.F.);
#1176=ORIENTED_EDGE('',*,*,#1287,.F.);
#1177=ORIENTED_EDGE('',*,*,#1288,.T.);
#1178=ORIENTED_EDGE('',*,*,#1288,.F.);
#1179=ORIENTED_EDGE('',*,*,#1289,.T.);
#1180=ORIENTED_EDGE('',*,*,#1290,.T.);
#1181=ORIENTED_EDGE('',*,*,#1289,.F.);
#1182=ORIENTED_EDGE('',*,*,#1291,.T.);
#1183=ORIENTED_EDGE('',*,*,#1290,.F.);
#1184=ORIENTED_EDGE('',*,*,#1292,.T.);
#1185=ORIENTED_EDGE('',*,*,#1291,.F.);
#1186=ORIENTED_EDGE('',*,*,#1292,.F.);
#1187=ORIENTED_EDGE('',*,*,#1293,.T.);
#1188=ORIENTED_EDGE('',*,*,#1294,.T.);
#1189=ORIENTED_EDGE('',*,*,#1293,.F.);
#1190=ORIENTED_EDGE('',*,*,#1294,.F.);
#1191=ORIENTED_EDGE('',*,*,#1295,.T.);
#1192=ORIENTED_EDGE('',*,*,#1296,.T.);
#1193=ORIENTED_EDGE('',*,*,#1295,.F.);
#1194=ORIENTED_EDGE('',*,*,#1297,.T.);
#1195=ORIENTED_EDGE('',*,*,#1296,.F.);
#1196=ORIENTED_EDGE('',*,*,#1297,.F.);
#1197=ORIENTED_EDGE('',*,*,#1298,.T.);
#1198=ORIENTED_EDGE('',*,*,#1299,.T.);
#1199=ORIENTED_EDGE('',*,*,#1298,.F.);
#1200=ORIENTED_EDGE('',*,*,#1299,.F.);
#1201=ORIENTED_EDGE('',*,*,#1300,.T.);
#1202=ORIENTED_EDGE('',*,*,#1301,.T.);
#1203=ORIENTED_EDGE('',*,*,#1300,.F.);
#1204=ORIENTED_EDGE('',*,*,#1301,.F.);
#1205=EDGE_CURVE('',#1302,#1303,#1304,.F.);
#1206=EDGE_CURVE('',#1305,#1303,#1306,.T.);
#1207=EDGE_CURVE('',#1305,#1307,#1308,.F.);
#1208=EDGE_CURVE('',#1307,#1302,#1309,.T.);
#1209=EDGE_CURVE('',#1310,#1311,#1312,.F.);
#1210=EDGE_CURVE('',#1311,#1313,#1314,.T.);
#1211=EDGE_CURVE('',#1313,#1315,#1316,.T.);
#1212=EDGE_CURVE('',#1310,#1315,#1317,.T.);
#1213=EDGE_CURVE('',#1318,#1319,#1320,.F.);
#1214=EDGE_CURVE('',#1321,#1319,#1322,.T.);
#1215=EDGE_CURVE('',#1323,#1321,#1324,.T.);
#1216=EDGE_CURVE('',#1323,#1318,#1325,.T.);
#1217=EDGE_CURVE('',#1326,#1327,#1328,.F.);
#1218=EDGE_CURVE('',#1327,#1329,#1330,.T.);
#1219=EDGE_CURVE('',#1329,#1331,#1332,.F.);
#1220=EDGE_CURVE('',#1326,#1331,#1333,.T.);
#1221=EDGE_CURVE('',#1319,#1334,#1335,.F.);
#1222=EDGE_CURVE('',#1334,#1336,#1337,.F.);
#1223=EDGE_CURVE('',#1336,#1326,#1338,.F.);
#1224=EDGE_CURVE('',#1331,#1339,#1340,.F.);
#1225=EDGE_CURVE('',#1339,#1341,#1342,.F.);
#1226=EDGE_CURVE('',#1341,#1343,#1344,.F.);
#1227=EDGE_CURVE('',#1343,#1345,#1346,.T.);
#1228=EDGE_CURVE('',#1345,#1347,#1348,.T.);
#1229=EDGE_CURVE('',#1347,#1349,#1350,.T.);
#1230=EDGE_CURVE('',#1349,#1351,#1352,.T.);
#1231=EDGE_CURVE('',#1351,#1353,#1354,.T.);
#1232=EDGE_CURVE('',#1353,#1355,#1356,.F.);
#1233=EDGE_CURVE('',#1355,#1357,#1358,.F.);
#1234=EDGE_CURVE('',#1357,#1305,#1359,.F.);
#1235=EDGE_CURVE('',#1303,#1360,#1361,.F.);
#1236=EDGE_CURVE('',#1360,#1362,#1363,.F.);
#1237=EDGE_CURVE('',#1362,#1310,#1364,.F.);
#1238=EDGE_CURVE('',#1315,#1365,#1366,.T.);
#1239=EDGE_CURVE('',#1365,#1367,#1368,.T.);
#1240=EDGE_CURVE('',#1367,#1321,#1369,.T.);
#1241=EDGE_CURVE('',#1370,#1370,#1371,.F.);
#1242=EDGE_CURVE('',#1372,#1372,#1373,.F.);
#1243=EDGE_CURVE('',#1374,#1374,#1375,.F.);
#1244=EDGE_CURVE('',#1376,#1318,#1377,.T.);
#1245=EDGE_CURVE('',#1378,#1323,#1379,.T.);
#1246=EDGE_CURVE('',#1380,#1378,#1381,.T.);
#1247=EDGE_CURVE('',#1313,#1380,#1382,.T.);
#1248=EDGE_CURVE('',#1311,#1383,#1384,.T.);
#1249=EDGE_CURVE('',#1383,#1385,#1386,.T.);
#1250=EDGE_CURVE('',#1385,#1302,#1387,.T.);
#1251=EDGE_CURVE('',#1307,#1388,#1389,.T.);
#1252=EDGE_CURVE('',#1388,#1390,#1391,.T.);
#1253=EDGE_CURVE('',#1390,#1392,#1393,.T.);
#1254=EDGE_CURVE('',#1394,#1392,#1395,.T.);
#1255=EDGE_CURVE('',#1396,#1394,#1397,.T.);
#1256=EDGE_CURVE('',#1398,#1396,#1399,.T.);
#1257=EDGE_CURVE('',#1400,#1398,#1401,.T.);
#1258=EDGE_CURVE('',#1402,#1400,#1403,.T.);
#1259=EDGE_CURVE('',#1402,#1404,#1405,.T.);
#1260=EDGE_CURVE('',#1404,#1406,#1407,.T.);
#1261=EDGE_CURVE('',#1406,#1329,#1408,.T.);
#1262=EDGE_CURVE('',#1327,#1409,#1410,.T.);
#1263=EDGE_CURVE('',#1409,#1376,#1411,.T.);
#1264=EDGE_CURVE('',#1412,#1412,#1413,.T.);
#1265=EDGE_CURVE('',#1414,#1414,#1415,.T.);
#1266=EDGE_CURVE('',#1416,#1416,#1417,.T.);
#1267=EDGE_CURVE('',#1383,#1362,#1418,.T.);
#1268=EDGE_CURVE('',#1385,#1360,#1419,.T.);
#1269=EDGE_CURVE('',#1409,#1336,#1420,.T.);
#1270=EDGE_CURVE('',#1376,#1334,#1421,.T.);
#1271=EDGE_CURVE('',#1388,#1357,#1422,.T.);
#1272=EDGE_CURVE('',#1380,#1365,#1423,.T.);
#1273=EDGE_CURVE('',#1378,#1367,#1424,.T.);
#1274=EDGE_CURVE('',#1406,#1339,#1425,.T.);
#1275=EDGE_CURVE('',#1404,#1341,#1426,.T.);
#1276=EDGE_CURVE('',#1343,#1402,#1427,.F.);
#1277=EDGE_CURVE('',#1400,#1345,#1428,.T.);
#1278=EDGE_CURVE('',#1398,#1347,#1429,.T.);
#1279=EDGE_CURVE('',#1396,#1349,#1430,.T.);
#1280=EDGE_CURVE('',#1394,#1351,#1431,.T.);
#1281=EDGE_CURVE('',#1392,#1353,#1432,.F.);
#1282=EDGE_CURVE('',#1390,#1355,#1433,.T.);
#1283=EDGE_CURVE('',#1434,#1434,#1435,.T.);
#1284=EDGE_CURVE('',#1436,#1436,#1437,.T.);
#1285=EDGE_CURVE('',#1438,#1438,#1439,.T.);
#1286=EDGE_CURVE('',#1440,#1440,#1441,.T.);
#1287=EDGE_CURVE('',#1442,#1442,#1443,.T.);
#1288=EDGE_CURVE('',#1444,#1444,#1445,.T.);
#1289=EDGE_CURVE('',#1446,#1446,#1447,.T.);
#1290=EDGE_CURVE('',#1448,#1448,#1449,.T.);
#1291=EDGE_CURVE('',#1450,#1450,#1451,.T.);
#1292=EDGE_CURVE('',#1452,#1452,#1453,.T.);
#1293=EDGE_CURVE('',#1454,#1454,#1455,.T.);
#1294=EDGE_CURVE('',#1456,#1456,#1457,.T.);
#1295=EDGE_CURVE('',#1458,#1458,#1459,.T.);
#1296=EDGE_CURVE('',#1460,#1460,#1461,.T.);
#1297=EDGE_CURVE('',#1462,#1462,#1463,.T.);
#1298=EDGE_CURVE('',#1464,#1464,#1465,.T.);
#1299=EDGE_CURVE('',#1466,#1466,#1467,.T.);
#1300=EDGE_CURVE('',#1468,#1468,#1469,.T.);
#1301=EDGE_CURVE('',#1470,#1470,#1471,.T.);
#1302=VERTEX_POINT('',#1472);
#1303=VERTEX_POINT('',#1473);
#1304=LINE('',#1474,#1475);
#1305=VERTEX_POINT('',#1477);
#1306=LINE('',#1478,#1479);
#1307=VERTEX_POINT('',#1481);
#1308=LINE('',#1482,#1483);
#1309=LINE('',#1485,#1486);
#1310=VERTEX_POINT('',#1488);
#1311=VERTEX_POINT('',#1489);
#1312=LINE('',#1490,#1491);
#1313=VERTEX_POINT('',#1493);
#1314=LINE('',#1494,#1495);
#1315=VERTEX_POINT('',#1497);
#1316=LINE('',#1498,#1499);
#1317=LINE('',#1501,#1502);
#1318=VERTEX_POINT('',#1504);
#1319=VERTEX_POINT('',#1505);
#1320=LINE('',#1506,#1507);
#1321=VERTEX_POINT('',#1509);
#1322=LINE('',#1510,#1511);
#1323=VERTEX_POINT('',#1513);
#1324=LINE('',#1514,#1515);
#1325=LINE('',#1517,#1518);
#1326=VERTEX_POINT('',#1520);
#1327=VERTEX_POINT('',#1521);
#1328=LINE('',#1522,#1523);
#1329=VERTEX_POINT('',#1525);
#1330=LINE('',#1526,#1527);
#1331=VERTEX_POINT('',#1529);
#1332=LINE('',#1530,#1531);
#1333=LINE('',#1533,#1534);
#1334=VERTEX_POINT('',#1536);
#1335=LINE('',#1537,#1538);
#1336=VERTEX_POINT('',#1540);
#1337=CIRCLE('',#1541,0.03);
#1338=LINE('',#1545,#1546);
#1339=VERTEX_POINT('',#1548);
#1340=LINE('',#1549,#1550);
#1341=VERTEX_POINT('',#1552);
#1342=CIRCLE('',#1553,0.03);
#1343=VERTEX_POINT('',#1557);
#1344=LINE('',#1558,#1559);
#1345=VERTEX_POINT('',#1561);
#1346=LINE('',#1562,#1563);
#1347=VERTEX_POINT('',#1565);
#1348=LINE('',#1566,#1567);
#1349=VERTEX_POINT('',#1569);
#1350=LINE('',#1570,#1571);
#1351=VERTEX_POINT('',#1573);
#1352=LINE('',#1574,#1575);
#1353=VERTEX_POINT('',#1577);
#1354=LINE('',#1578,#1579);
#1355=VERTEX_POINT('',#1581);
#1356=LINE('',#1582,#1583);
#1357=VERTEX_POINT('',#1585);
#1358=CIRCLE('',#1586,0.03);
#1359=LINE('',#1590,#1591);
#1360=VERTEX_POINT('',#1593);
#1361=LINE('',#1594,#1595);
#1362=VERTEX_POINT('',#1597);
#1363=CIRCLE('',#1598,0.03);
#1364=LINE('',#1602,#1603);
#1365=VERTEX_POINT('',#1605);
#1366=LINE('',#1606,#1607);
#1367=VERTEX_POINT('',#1609);
#1368=LINE('',#1610,#1611);
#1369=LINE('',#1613,#1614);
#1370=VERTEX_POINT('',#1616);
#1371=CIRCLE('',#1617,0.66);
#1372=VERTEX_POINT('',#1621);
#1373=CIRCLE('',#1622,0.66);
#1374=VERTEX_POINT('',#1626);
#1375=CIRCLE('',#1627,0.66);
#1376=VERTEX_POINT('',#1631);
#1377=LINE('',#1632,#1633);
#1378=VERTEX_POINT('',#1635);
#1379=LINE('',#1636,#1637);
#1380=VERTEX_POINT('',#1639);
#1381=LINE('',#1640,#1641);
#1382=LINE('',#1643,#1644);
#1383=VERTEX_POINT('',#1646);
#1384=LINE('',#1647,#1648);
#1385=VERTEX_POINT('',#1650);
#1386=CIRCLE('',#1651,0.03);
#1387=LINE('',#1655,#1656);
#1388=VERTEX_POINT('',#1658);
#1389=LINE('',#1659,#1660);
#1390=VERTEX_POINT('',#1662);
#1391=CIRCLE('',#1663,0.03);
#1392=VERTEX_POINT('',#1667);
#1393=LINE('',#1668,#1669);
#1394=VERTEX_POINT('',#1671);
#1395=LINE('',#1672,#1673);
#1396=VERTEX_POINT('',#1675);
#1397=LINE('',#1676,#1677);
#1398=VERTEX_POINT('',#1679);
#1399=LINE('',#1680,#1681);
#1400=VERTEX_POINT('',#1683);
#1401=LINE('',#1684,#1685);
#1402=VERTEX_POINT('',#1687);
#1403=LINE('',#1688,#1689);
#1404=VERTEX_POINT('',#1691);
#1405=LINE('',#1692,#1693);
#1406=VERTEX_POINT('',#1695);
#1407=CIRCLE('',#1696,0.03);
#1408=LINE('',#1700,#1701);
#1409=VERTEX_POINT('',#1703);
#1410=LINE('',#1704,#1705);
#1411=CIRCLE('',#1707,0.03);
#1412=VERTEX_POINT('',#1711);
#1413=CIRCLE('',#1712,0.66);
#1414=VERTEX_POINT('',#1716);
#1415=CIRCLE('',#1717,0.66);
#1416=VERTEX_POINT('',#1721);
#1417=CIRCLE('',#1722,0.66);
#1418=LINE('',#1726,#1727);
#1419=LINE('',#1729,#1730);
#1420=LINE('',#1732,#1733);
#1421=LINE('',#1735,#1736);
#1422=LINE('',#1738,#1739);
#1423=LINE('',#1741,#1742);
#1424=LINE('',#1744,#1745);
#1425=LINE('',#1747,#1748);
#1426=LINE('',#1750,#1751);
#1427=LINE('',#1753,#1754);
#1428=LINE('',#1756,#1757);
#1429=LINE('',#1759,#1760);
#1430=LINE('',#1762,#1763);
#1431=LINE('',#1765,#1766);
#1432=LINE('',#1768,#1769);
#1433=LINE('',#1771,#1772);
#1434=VERTEX_POINT('',#1774);
#1435=CIRCLE('',#1775,0.19);
#1436=VERTEX_POINT('',#1779);
#1437=CIRCLE('',#1780,0.38);
#1438=VERTEX_POINT('',#1784);
#1439=CIRCLE('',#1785,0.38);
#1440=VERTEX_POINT('',#1789);
#1441=CIRCLE('',#1790,0.66);
#1442=VERTEX_POINT('',#1794);
#1443=CIRCLE('',#1795,0.66);
#1444=VERTEX_POINT('',#1799);
#1445=CIRCLE('',#1800,0.81);
#1446=VERTEX_POINT('',#1804);
#1447=CIRCLE('',#1805,0.66);
#1448=VERTEX_POINT('',#1809);
#1449=CIRCLE('',#1810,0.66);
#1450=VERTEX_POINT('',#1814);
#1451=CIRCLE('',#1815,0.915);
#1452=VERTEX_POINT('',#1819);
#1453=CIRCLE('',#1820,0.915);
#1454=VERTEX_POINT('',#1824);
#1455=CIRCLE('',#1825,0.634191070279899);
#1456=VERTEX_POINT('',#1829);
#1457=CIRCLE('',#1830,0.525);
#1458=VERTEX_POINT('',#1834);
#1459=CIRCLE('',#1835,0.525);
#1460=VERTEX_POINT('',#1839);
#1461=CIRCLE('',#1840,0.225);
#1462=VERTEX_POINT('',#1844);
#1463=CIRCLE('',#1845,0.525);
#1464=VERTEX_POINT('',#1849);
#1465=CIRCLE('',#1850,0.525);
#1466=VERTEX_POINT('',#1854);
#1467=CIRCLE('',#1855,0.275);
#1468=VERTEX_POINT('',#1859);
#1469=CIRCLE('',#1860,0.275);
#1470=VERTEX_POINT('',#1864);
#1471=CIRCLE('',#1865,0.03);
#1472=CARTESIAN_POINT('',(3.65099559473196,-1.27,1.07));
#1473=CARTESIAN_POINT('',(3.65099559473196,-1.27,2.34));
#1474=CARTESIAN_POINT('',(3.65099559473196,-1.27,2.34));
#1475=VECTOR('',#1476,1.);
#1476=DIRECTION('',(0.,0.,-1.));
#1477=CARTESIAN_POINT('',(1.42900440526804,-1.27,2.34));
#1478=CARTESIAN_POINT('',(1.42900440526804,-1.27,2.34));
#1479=VECTOR('',#1480,1.);
#1480=DIRECTION('',(1.,0.,0.));
#1481=CARTESIAN_POINT('',(1.42900440526804,-1.27,1.07));
#1482=CARTESIAN_POINT('',(1.42900440526804,-1.27,1.07));
#1483=VECTOR('',#1484,1.);
#1484=DIRECTION('',(0.,0.,1.));
#1485=CARTESIAN_POINT('',(1.42900440526804,-1.27,1.07));
#1486=VECTOR('',#1487,1.);
#1487=DIRECTION('',(1.,0.,0.));
#1488=CARTESIAN_POINT('',(3.96900440526804,-1.27,2.34));
#1489=CARTESIAN_POINT('',(3.96900440526804,-1.27,1.07));
#1490=CARTESIAN_POINT('',(3.96900440526804,-1.27,1.07));
#1491=VECTOR('',#1492,1.);
#1492=DIRECTION('',(0.,0.,1.));
#1493=CARTESIAN_POINT('',(6.3251077025535,-1.27,1.07));
#1494=CARTESIAN_POINT('',(3.96900440526804,-1.27,1.07));
#1495=VECTOR('',#1496,1.);
#1496=DIRECTION('',(1.,0.,0.));
#1497=CARTESIAN_POINT('',(6.3251077025535,-1.27,2.34));
#1498=CARTESIAN_POINT('',(6.3251077025535,-1.27,1.07));
#1499=VECTOR('',#1500,1.);
#1500=DIRECTION('',(0.,0.,1.));
#1501=CARTESIAN_POINT('',(3.96900440526804,-1.27,2.34));
#1502=VECTOR('',#1503,1.);
#1503=DIRECTION('',(1.,0.,-1.88484609465855E-016));
#1504=CARTESIAN_POINT('',(3.96900440527185,1.27,1.07));
#1505=CARTESIAN_POINT('',(3.96900440527185,1.27,2.34));
#1506=CARTESIAN_POINT('',(3.96900440527185,1.27,2.34));
#1507=VECTOR('',#1508,1.);
#1508=DIRECTION('',(0.,0.,-1.));
#1509=CARTESIAN_POINT('',(6.3251077025535,1.27,2.34));
#1510=CARTESIAN_POINT('',(6.3251077025535,1.27,2.34));
#1511=VECTOR('',#1512,1.);
#1512=DIRECTION('',(-1.,0.,1.8848460946616E-016));
#1513=CARTESIAN_POINT('',(6.3251077025535,1.27,1.07));
#1514=CARTESIAN_POINT('',(6.3251077025535,1.27,1.07));
#1515=VECTOR('',#1516,1.);
#1516=DIRECTION('',(0.,0.,1.));
#1517=CARTESIAN_POINT('',(6.3251077025535,1.27,1.07));
#1518=VECTOR('',#1519,1.);
#1519=DIRECTION('',(-1.,0.,0.));
#1520=CARTESIAN_POINT('',(3.65099559472815,1.27,2.34));
#1521=CARTESIAN_POINT('',(3.65099559472815,1.27,1.07));
#1522=CARTESIAN_POINT('',(3.65099559472815,1.27,1.07));
#1523=VECTOR('',#1524,1.);
#1524=DIRECTION('',(0.,0.,1.));
#1525=CARTESIAN_POINT('',(1.42900440527185,1.27,1.07));
#1526=CARTESIAN_POINT('',(3.65099559472815,1.27,1.07));
#1527=VECTOR('',#1528,1.);
#1528=DIRECTION('',(-1.,0.,0.));
#1529=CARTESIAN_POINT('',(1.42900440527185,1.27,2.34));
#1530=CARTESIAN_POINT('',(1.42900440527185,1.27,2.34));
#1531=VECTOR('',#1532,1.);
#1532=DIRECTION('',(0.,0.,-1.));
#1533=CARTESIAN_POINT('',(3.65099559472815,1.27,2.34));
#1534=VECTOR('',#1535,1.);
#1535=DIRECTION('',(-1.,0.,-1.99860922922348E-016));
#1536=CARTESIAN_POINT('',(3.83718923361106,0.987321452147693,2.34));
#1537=CARTESIAN_POINT('',(3.83718923361106,0.987321452147693,2.34));
#1538=VECTOR('',#1539,1.);
#1539=DIRECTION('',(0.422618261743663,0.906307787035268,0.));
#1540=CARTESIAN_POINT('',(3.78281076638894,0.987321452147693,2.34));
#1541=AXIS2_PLACEMENT_3D('',#1542,#1543,#1544);
#1542=CARTESIAN_POINT('',(3.81,1.,2.34));
#1543=DIRECTION('',(-0.,0.,1.));
#1544=DIRECTION('',(-0.906307787035284,-0.422618261743629,0.));
#1545=CARTESIAN_POINT('',(3.65099559472815,1.27,2.34));
#1546=VECTOR('',#1547,1.);
#1547=DIRECTION('',(0.422618261743666,-0.906307787035267,0.));
#1548=CARTESIAN_POINT('',(1.29718923361106,0.987321452147693,2.34));
#1549=CARTESIAN_POINT('',(1.29718923361106,0.987321452147693,2.34));
#1550=VECTOR('',#1551,1.);
#1551=DIRECTION('',(0.422618261743663,0.906307787035268,0.));
#1552=CARTESIAN_POINT('',(1.24281076638894,0.987321452147693,2.34));
#1553=AXIS2_PLACEMENT_3D('',#1554,#1555,#1556);
#1554=CARTESIAN_POINT('',(1.27,1.,2.34));
#1555=DIRECTION('',(-0.,0.,1.));
#1556=DIRECTION('',(-0.906307787035285,-0.422618261743626,0.));
#1557=CARTESIAN_POINT('',(1.11099559472815,1.27,2.34));
#1558=CARTESIAN_POINT('',(1.11099559472815,1.27,2.34));
#1559=VECTOR('',#1560,1.);
#1560=DIRECTION('',(0.422618261743666,-0.906307787035267,0.));
#1561=CARTESIAN_POINT('',(-1.2451077025535,1.27,2.34));
#1562=CARTESIAN_POINT('',(1.11099559472815,1.27,2.34));
#1563=VECTOR('',#1564,1.);
#1564=DIRECTION('',(-1.,0.,0.));
#1565=CARTESIAN_POINT('',(-1.385,0.970000000000001,2.34));
#1566=CARTESIAN_POINT('',(-1.2451077025535,1.27,2.34));
#1567=VECTOR('',#1568,1.);
#1568=DIRECTION('',(-0.4226182617407,-0.90630778703665,0.));
#1569=CARTESIAN_POINT('',(-1.385,-0.97,2.34));
#1570=CARTESIAN_POINT('',(-1.385,0.970000000000001,2.34));
#1571=VECTOR('',#1572,1.);
#1572=DIRECTION('',(-2.28911963840238E-016,-1.,0.));
#1573=CARTESIAN_POINT('',(-1.2451077025535,-1.27,2.34));
#1574=CARTESIAN_POINT('',(-1.385,-0.97,2.34));
#1575=VECTOR('',#1576,1.);
#1576=DIRECTION('',(0.422618261740699,-0.90630778703665,0.));
#1577=CARTESIAN_POINT('',(1.11099559473196,-1.27,2.34));
#1578=CARTESIAN_POINT('',(-1.2451077025535,-1.27,2.34));
#1579=VECTOR('',#1580,1.);
#1580=DIRECTION('',(1.,0.,0.));
#1581=CARTESIAN_POINT('',(1.24281076638794,-0.987321452149846,2.34));
#1582=CARTESIAN_POINT('',(1.24281076638794,-0.987321452149846,2.34));
#1583=VECTOR('',#1584,1.);
#1584=DIRECTION('',(-0.422618261733637,-0.906307787039943,0.));
#1585=CARTESIAN_POINT('',(1.29718923360911,-0.987321452143519,2.34));
#1586=AXIS2_PLACEMENT_3D('',#1587,#1588,#1589);
#1587=CARTESIAN_POINT('',(1.27,-1.,2.34));
#1588=DIRECTION('',(0.,-0.,1.));
#1589=DIRECTION('',(0.906307786970437,0.422618261882694,0.));
#1590=CARTESIAN_POINT('',(1.42900440526804,-1.27,2.34));
#1591=VECTOR('',#1592,1.);
#1592=DIRECTION('',(-0.422618261733638,0.906307787039943,0.));
#1593=CARTESIAN_POINT('',(3.78281076638794,-0.987321452149846,2.34));
#1594=CARTESIAN_POINT('',(3.78281076638794,-0.987321452149846,2.34));
#1595=VECTOR('',#1596,1.);
#1596=DIRECTION('',(-0.422618261733638,-0.906307787039943,0.));
#1597=CARTESIAN_POINT('',(3.83718923360911,-0.987321452143519,2.34));
#1598=AXIS2_PLACEMENT_3D('',#1599,#1600,#1601);
#1599=CARTESIAN_POINT('',(3.81,-1.,2.34));
#1600=DIRECTION('',(0.,-0.,1.));
#1601=DIRECTION('',(0.906307786970438,0.422618261882691,0.));
#1602=CARTESIAN_POINT('',(3.96900440526804,-1.27,2.34));
#1603=VECTOR('',#1604,1.);
#1604=DIRECTION('',(-0.422618261733638,0.906307787039943,0.));
#1605=CARTESIAN_POINT('',(6.465,-0.97,2.34));
#1606=CARTESIAN_POINT('',(6.3251077025535,-1.27,2.34));
#1607=VECTOR('',#1608,1.);
#1608=DIRECTION('',(0.4226182617407,0.90630778703665,0.));
#1609=CARTESIAN_POINT('',(6.465,0.97,2.34));
#1610=CARTESIAN_POINT('',(6.465,-0.97,2.34));
#1611=VECTOR('',#1612,1.);
#1612=DIRECTION('',(0.,1.,0.));
#1613=CARTESIAN_POINT('',(6.465,0.97,2.34));
#1614=VECTOR('',#1615,1.);
#1615=DIRECTION('',(-0.422618261740701,0.906307787036649,0.));
#1616=CARTESIAN_POINT('',(0.66,-8.08266887437253E-017,2.34));
#1617=AXIS2_PLACEMENT_3D('',#1618,#1619,#1620);
#1618=CARTESIAN_POINT('',(0.,0.,2.34));
#1619=DIRECTION('',(0.,0.,1.));
#1620=DIRECTION('',(1.,0.,0.));
#1621=CARTESIAN_POINT('',(5.74,-8.08266887437253E-017,2.34));
#1622=AXIS2_PLACEMENT_3D('',#1623,#1624,#1625);
#1623=CARTESIAN_POINT('',(5.08,0.,2.34));
#1624=DIRECTION('',(0.,0.,1.));
#1625=DIRECTION('',(1.,0.,0.));
#1626=CARTESIAN_POINT('',(3.2,-8.08266887437253E-017,2.34));
#1627=AXIS2_PLACEMENT_3D('',#1628,#1629,#1630);
#1628=CARTESIAN_POINT('',(2.54,0.,2.34));
#1629=DIRECTION('',(0.,0.,1.));
#1630=DIRECTION('',(1.,0.,0.));
#1631=CARTESIAN_POINT('',(3.83718923361106,0.987321452147693,1.07));
#1632=CARTESIAN_POINT('',(3.83718923361106,0.987321452147693,1.07));
#1633=VECTOR('',#1634,1.);
#1634=DIRECTION('',(0.422618261743663,0.906307787035268,0.));
#1635=CARTESIAN_POINT('',(6.465,0.97,1.07));
#1636=CARTESIAN_POINT('',(6.465,0.97,1.07));
#1637=VECTOR('',#1638,1.);
#1638=DIRECTION('',(-0.422618261740701,0.906307787036649,0.));
#1639=CARTESIAN_POINT('',(6.465,-0.97,1.07));
#1640=CARTESIAN_POINT('',(6.465,-0.97,1.07));
#1641=VECTOR('',#1642,1.);
#1642=DIRECTION('',(0.,1.,0.));
#1643=CARTESIAN_POINT('',(6.3251077025535,-1.27,1.07));
#1644=VECTOR('',#1645,1.);
#1645=DIRECTION('',(0.4226182617407,0.90630778703665,0.));
#1646=CARTESIAN_POINT('',(3.83718923360911,-0.987321452143519,1.07));
#1647=CARTESIAN_POINT('',(3.96900440526804,-1.27,1.07));
#1648=VECTOR('',#1649,1.);
#1649=DIRECTION('',(-0.422618261733638,0.906307787039943,0.));
#1650=CARTESIAN_POINT('',(3.78281076638794,-0.987321452149846,1.07));
#1651=AXIS2_PLACEMENT_3D('',#1652,#1653,#1654);
#1652=CARTESIAN_POINT('',(3.81,-1.,1.07));
#1653=DIRECTION('',(0.,-0.,1.));
#1654=DIRECTION('',(0.906307786970438,0.422618261882691,0.));
#1655=CARTESIAN_POINT('',(3.78281076638794,-0.987321452149846,1.07));
#1656=VECTOR('',#1657,1.);
#1657=DIRECTION('',(-0.422618261733638,-0.906307787039943,0.));
#1658=CARTESIAN_POINT('',(1.29718923360911,-0.987321452143519,1.07));
#1659=CARTESIAN_POINT('',(1.42900440526804,-1.27,1.07));
#1660=VECTOR('',#1661,1.);
#1661=DIRECTION('',(-0.422618261733638,0.906307787039943,0.));
#1662=CARTESIAN_POINT('',(1.24281076638794,-0.987321452149846,1.07));
#1663=AXIS2_PLACEMENT_3D('',#1664,#1665,#1666);
#1664=CARTESIAN_POINT('',(1.27,-1.,1.07));
#1665=DIRECTION('',(0.,-0.,1.));
#1666=DIRECTION('',(0.906307786970437,0.422618261882694,0.));
#1667=CARTESIAN_POINT('',(1.11099559473196,-1.27,1.07));
#1668=CARTESIAN_POINT('',(1.24281076638794,-0.987321452149846,1.07));
#1669=VECTOR('',#1670,1.);
#1670=DIRECTION('',(-0.422618261733637,-0.906307787039943,0.));
#1671=CARTESIAN_POINT('',(-1.2451077025535,-1.27,1.07));
#1672=CARTESIAN_POINT('',(-1.2451077025535,-1.27,1.07));
#1673=VECTOR('',#1674,1.);
#1674=DIRECTION('',(1.,0.,0.));
#1675=CARTESIAN_POINT('',(-1.385,-0.97,1.07));
#1676=CARTESIAN_POINT('',(-1.385,-0.97,1.07));
#1677=VECTOR('',#1678,1.);
#1678=DIRECTION('',(0.422618261740699,-0.90630778703665,0.));
#1679=CARTESIAN_POINT('',(-1.385,0.970000000000001,1.07));
#1680=CARTESIAN_POINT('',(-1.385,0.970000000000001,1.07));
#1681=VECTOR('',#1682,1.);
#1682=DIRECTION('',(-2.28911963840238E-016,-1.,0.));
#1683=CARTESIAN_POINT('',(-1.2451077025535,1.27,1.07));
#1684=CARTESIAN_POINT('',(-1.2451077025535,1.27,1.07));
#1685=VECTOR('',#1686,1.);
#1686=DIRECTION('',(-0.4226182617407,-0.90630778703665,0.));
#1687=CARTESIAN_POINT('',(1.11099559472815,1.27,1.07));
#1688=CARTESIAN_POINT('',(1.11099559472815,1.27,1.07));
#1689=VECTOR('',#1690,1.);
#1690=DIRECTION('',(-1.,0.,0.));
#1691=CARTESIAN_POINT('',(1.24281076638894,0.987321452147693,1.07));
#1692=CARTESIAN_POINT('',(1.11099559472815,1.27,1.07));
#1693=VECTOR('',#1694,1.);
#1694=DIRECTION('',(0.422618261743666,-0.906307787035267,0.));
#1695=CARTESIAN_POINT('',(1.29718923361106,0.987321452147693,1.07));
#1696=AXIS2_PLACEMENT_3D('',#1697,#1698,#1699);
#1697=CARTESIAN_POINT('',(1.27,1.,1.07));
#1698=DIRECTION('',(-0.,0.,1.));
#1699=DIRECTION('',(-0.906307787035285,-0.422618261743626,0.));
#1700=CARTESIAN_POINT('',(1.29718923361106,0.987321452147693,1.07));
#1701=VECTOR('',#1702,1.);
#1702=DIRECTION('',(0.422618261743663,0.906307787035268,0.));
#1703=CARTESIAN_POINT('',(3.78281076638894,0.987321452147693,1.07));
#1704=CARTESIAN_POINT('',(3.65099559472815,1.27,1.07));
#1705=VECTOR('',#1706,1.);
#1706=DIRECTION('',(0.422618261743666,-0.906307787035267,0.));
#1707=AXIS2_PLACEMENT_3D('',#1708,#1709,#1710);
#1708=CARTESIAN_POINT('',(3.81,1.,1.07));
#1709=DIRECTION('',(-0.,0.,1.));
#1710=DIRECTION('',(-0.906307787035284,-0.422618261743629,0.));
#1711=CARTESIAN_POINT('',(0.66,-8.08266887437253E-017,1.07));
#1712=AXIS2_PLACEMENT_3D('',#1713,#1714,#1715);
#1713=CARTESIAN_POINT('',(0.,0.,1.07));
#1714=DIRECTION('',(0.,0.,1.));
#1715=DIRECTION('',(1.,0.,0.));
#1716=CARTESIAN_POINT('',(5.74,-8.08266887437253E-017,1.07));
#1717=AXIS2_PLACEMENT_3D('',#1718,#1719,#1720);
#1718=CARTESIAN_POINT('',(5.08,0.,1.07));
#1719=DIRECTION('',(0.,0.,1.));
#1720=DIRECTION('',(1.,0.,0.));
#1721=CARTESIAN_POINT('',(3.2,-8.08266887437253E-017,1.07));
#1722=AXIS2_PLACEMENT_3D('',#1723,#1724,#1725);
#1723=CARTESIAN_POINT('',(2.54,0.,1.07));
#1724=DIRECTION('',(0.,0.,1.));
#1725=DIRECTION('',(1.,0.,0.));
#1726=CARTESIAN_POINT('',(3.83718923360911,-0.987321452143519,1.07));
#1727=VECTOR('',#1728,1.);
#1728=DIRECTION('',(0.,0.,1.));
#1729=CARTESIAN_POINT('',(3.78281076638794,-0.987321452149846,1.07));
#1730=VECTOR('',#1731,1.);
#1731=DIRECTION('',(0.,0.,1.));
#1732=CARTESIAN_POINT('',(3.78281076638894,0.987321452147694,1.07));
#1733=VECTOR('',#1734,1.);
#1734=DIRECTION('',(0.,0.,1.));
#1735=CARTESIAN_POINT('',(3.83718923361106,0.987321452147693,1.07));
#1736=VECTOR('',#1737,1.);
#1737=DIRECTION('',(0.,0.,1.));
#1738=CARTESIAN_POINT('',(1.29718923360911,-0.987321452143519,1.07));
#1739=VECTOR('',#1740,1.);
#1740=DIRECTION('',(0.,0.,1.));
#1741=CARTESIAN_POINT('',(6.465,-0.97,1.07));
#1742=VECTOR('',#1743,1.);
#1743=DIRECTION('',(0.,0.,1.));
#1744=CARTESIAN_POINT('',(6.465,0.97,1.07));
#1745=VECTOR('',#1746,1.);
#1746=DIRECTION('',(0.,0.,1.));
#1747=CARTESIAN_POINT('',(1.29718923361106,0.987321452147693,1.07));
#1748=VECTOR('',#1749,1.);
#1749=DIRECTION('',(0.,0.,1.));
#1750=CARTESIAN_POINT('',(1.24281076638894,0.987321452147694,1.07));
#1751=VECTOR('',#1752,1.);
#1752=DIRECTION('',(0.,0.,1.));
#1753=CARTESIAN_POINT('',(1.11099559472815,1.27,1.07));
#1754=VECTOR('',#1755,1.);
#1755=DIRECTION('',(0.,0.,1.));
#1756=CARTESIAN_POINT('',(-1.2451077025535,1.27,1.07));
#1757=VECTOR('',#1758,1.);
#1758=DIRECTION('',(0.,0.,1.));
#1759=CARTESIAN_POINT('',(-1.385,0.970000000000001,1.07));
#1760=VECTOR('',#1761,1.);
#1761=DIRECTION('',(0.,0.,1.));
#1762=CARTESIAN_POINT('',(-1.385,-0.97,1.07));
#1763=VECTOR('',#1764,1.);
#1764=DIRECTION('',(0.,0.,1.));
#1765=CARTESIAN_POINT('',(-1.2451077025535,-1.27,1.07));
#1766=VECTOR('',#1767,1.);
#1767=DIRECTION('',(0.,0.,1.));
#1768=CARTESIAN_POINT('',(1.11099559473196,-1.27,2.34));
#1769=VECTOR('',#1770,1.);
#1770=DIRECTION('',(0.,0.,-1.));
#1771=CARTESIAN_POINT('',(1.24281076638794,-0.987321452149846,1.07));
#1772=VECTOR('',#1773,1.);
#1773=DIRECTION('',(0.,0.,1.));
#1774=CARTESIAN_POINT('',(0.,-0.19,-2.74));
#1775=AXIS2_PLACEMENT_3D('',#1776,#1777,#1778);
#1776=CARTESIAN_POINT('',(0.,0.,-2.74));
#1777=DIRECTION('',(-0.,-0.,-1.));
#1778=DIRECTION('',(0.,-1.,0.));
#1779=CARTESIAN_POINT('',(0.,-0.38,-2.55));
#1780=AXIS2_PLACEMENT_3D('',#1781,#1782,#1783);
#1781=CARTESIAN_POINT('',(0.,0.,-2.55));
#1782=DIRECTION('',(-0.,-0.,-1.));
#1783=DIRECTION('',(0.,-1.,0.));
#1784=CARTESIAN_POINT('',(0.,-0.38,0.));
#1785=AXIS2_PLACEMENT_3D('',#1786,#1787,#1788);
#1786=CARTESIAN_POINT('',(0.,0.,0.));
#1787=DIRECTION('',(-0.,-0.,-1.));
#1788=DIRECTION('',(0.,-1.,0.));
#1789=CARTESIAN_POINT('',(0.,-0.66,0.28));
#1790=AXIS2_PLACEMENT_3D('',#1791,#1792,#1793);
#1791=CARTESIAN_POINT('',(0.,0.,0.28));
#1792=DIRECTION('',(-0.,-0.,-1.));
#1793=DIRECTION('',(0.,-1.,0.));
#1794=CARTESIAN_POINT('',(0.,-0.66,1.29287838708185));
#1795=AXIS2_PLACEMENT_3D('',#1796,#1797,#1798);
#1796=CARTESIAN_POINT('',(0.,0.,1.29287838708185));
#1797=DIRECTION('',(-0.,-0.,-1.));
#1798=DIRECTION('',(0.,-1.,0.));
#1799=CARTESIAN_POINT('',(0.,-0.81,1.70500000000004));
#1800=AXIS2_PLACEMENT_3D('',#1801,#1802,#1803);
#1801=CARTESIAN_POINT('',(0.,0.,1.70500000000004));
#1802=DIRECTION('',(-0.,-0.,-1.));
#1803=DIRECTION('',(0.,-1.,0.));
#1804=CARTESIAN_POINT('',(0.,-0.66,1.7050000000001));
#1805=AXIS2_PLACEMENT_3D('',#1806,#1807,#1808);
#1806=CARTESIAN_POINT('',(0.,0.,1.70500000000004));
#1807=DIRECTION('',(-0.,-0.,-1.));
#1808=DIRECTION('',(0.,-1.,0.));
#1809=CARTESIAN_POINT('',(0.,-0.66,2.2400000000001));
#1810=AXIS2_PLACEMENT_3D('',#1811,#1812,#1813);
#1811=CARTESIAN_POINT('',(0.,0.,2.2400000000001));
#1812=DIRECTION('',(-0.,-0.,-1.));
#1813=DIRECTION('',(0.,-1.,0.));
#1814=CARTESIAN_POINT('',(0.,-0.915,2.24));
#1815=AXIS2_PLACEMENT_3D('',#1816,#1817,#1818);
#1816=CARTESIAN_POINT('',(0.,0.,2.2400000000001));
#1817=DIRECTION('',(-0.,-0.,-1.));
#1818=DIRECTION('',(0.,-1.,0.));
#1819=CARTESIAN_POINT('',(0.,-0.915,3.1));
#1820=AXIS2_PLACEMENT_3D('',#1821,#1822,#1823);
#1821=CARTESIAN_POINT('',(0.,0.,3.1));
#1822=DIRECTION('',(-0.,-0.,-1.));
#1823=DIRECTION('',(0.,-1.,0.));
#1824=CARTESIAN_POINT('',(0.,-0.634191070279899,3.10000000000011));
#1825=AXIS2_PLACEMENT_3D('',#1826,#1827,#1828);
#1826=CARTESIAN_POINT('',(0.,0.,3.1));
#1827=DIRECTION('',(-0.,-0.,-1.));
#1828=DIRECTION('',(0.,-1.,0.));
#1829=CARTESIAN_POINT('',(0.,-0.525,2.8));
#1830=AXIS2_PLACEMENT_3D('',#1831,#1832,#1833);
#1831=CARTESIAN_POINT('',(0.,0.,2.8));
#1832=DIRECTION('',(0.,-0.,-1.));
#1833=DIRECTION('',(0.,-1.,0.));
#1834=CARTESIAN_POINT('',(0.,-0.525,2.3));
#1835=AXIS2_PLACEMENT_3D('',#1836,#1837,#1838);
#1836=CARTESIAN_POINT('',(0.,0.,2.3));
#1837=DIRECTION('',(0.,-0.,-1.));
#1838=DIRECTION('',(0.,-1.,0.));
#1839=CARTESIAN_POINT('',(0.,-0.225,0.7));
#1840=AXIS2_PLACEMENT_3D('',#1841,#1842,#1843);
#1841=CARTESIAN_POINT('',(0.,0.,0.7));
#1842=DIRECTION('',(-0.,-0.,-1.));
#1843=DIRECTION('',(0.,-1.,0.));
#1844=CARTESIAN_POINT('',(0.,-0.525,0.7));
#1845=AXIS2_PLACEMENT_3D('',#1846,#1847,#1848);
#1846=CARTESIAN_POINT('',(0.,0.,0.7));
#1847=DIRECTION('',(-0.,-0.,-1.));
#1848=DIRECTION('',(0.,-1.,0.));
#1849=CARTESIAN_POINT('',(0.,-0.525,0.450215154761267));
#1850=AXIS2_PLACEMENT_3D('',#1851,#1852,#1853);
#1851=CARTESIAN_POINT('',(0.,0.,0.45021515475689));
#1852=DIRECTION('',(0.,-0.,-1.));
#1853=DIRECTION('',(0.,-1.,0.));
#1854=CARTESIAN_POINT('',(0.,-0.275,0.3));
#1855=AXIS2_PLACEMENT_3D('',#1856,#1857,#1858);
#1856=CARTESIAN_POINT('',(0.,0.,0.3));
#1857=DIRECTION('',(0.,-0.,-1.));
#1858=DIRECTION('',(0.,-1.,0.));
#1859=CARTESIAN_POINT('',(0.,-0.275,-1.6));
#1860=AXIS2_PLACEMENT_3D('',#1861,#1862,#1863);
#1861=CARTESIAN_POINT('',(0.,0.,-1.6));
#1862=DIRECTION('',(0.,-0.,-1.));
#1863=DIRECTION('',(0.,-1.,0.));
#1864=CARTESIAN_POINT('',(0.,-0.03,-1.74721085166175));
#1865=AXIS2_PLACEMENT_3D('',#1866,#1867,#1868);
#1866=CARTESIAN_POINT('',(0.,0.,-1.74721085166175));
#1867=DIRECTION('',(-0.,-0.,-1.));
#1868=DIRECTION('',(0.,-1.,0.));
ENDSEC;
END-ISO-10303-21;
