ISO-10303-21;
HEADER;
FILE_DESCRIPTION(('STEP AP214'),
    '1');
FILE_NAME('SL-105-TT-11',
    '2020-03-30T23:14:58',
    ('AF'),
    (''),
    'UNSPECIFIED',
    'UNSPECIFIED',
    '');
/*Based on Samtec Inc. SL, SDL series datasheet*/
FILE_SCHEMA(('AUTOMOTIVE_DESIGN { 1 0 10303 214 3 1 1}'));
ENDSEC;

DATA;
#1=SHAPE_REPRESENTATION('NONE',(#2,#58,#121,#147),#6);
#2=AXIS2_PLACEMENT_3D('',#3,#4,#5);
#3=CARTESIAN_POINT('',(0.,0.,0.));
#4=DIRECTION('',(0.,0.,1.));
#5=DIRECTION('',(1.,0.,0.));
#6=(GEOMETRIC_REPRESENTATION_CONTEXT(3)GLOBAL_UNCERTAINTY_ASSIGNED_CONTEXT((#8))
GLOBAL_UNIT_ASSIGNED_CONTEXT((#7,#9,#10))REPRESENTATION_CONTEXT('NONE','NONE'));
#7=(LENGTH_UNIT()NAMED_UNIT(*)SI_UNIT(.MILLI.,.METRE.));
#8=UNCERTAINTY_MEASURE_WITH_UNIT(LENGTH_MEASURE(1.E-005),#7,'NONE','NONE');
#9=(NAMED_UNIT(*)PLANE_ANGLE_UNIT()SI_UNIT($,.RADIAN.));
#10=(NAMED_UNIT(*)SI_UNIT($,.STERADIAN.)SOLID_ANGLE_UNIT());
#11=SHAPE_DEFINITION_REPRESENTATION(#12,#1);
#12=PRODUCT_DEFINITION_SHAPE('NONE','NONE',#13);
#13=PRODUCT_DEFINITION('','UNSPECIFIED',#14,#22);
#14=PRODUCT_DEFINITION_FORMATION_WITH_SPECIFIED_SOURCE('ANY','UNSPECIFIED',#15,.NOT_KNOWN.);
#15=PRODUCT('','SL-103-TT-11','Based on Samtec Inc. SL, SDL series datasheet',(#25));
#16=PERSON('UNSPECIFIED','AF','UNSPECIFIED',('UNSPECIFIED'),('UNSPECIFIED'),
('UNSPECIFIED'));
#17=ORGANIZATION('UNSPECIFIED','UNSPECIFIED','UNSPECIFIED');
#18=PERSON_AND_ORGANIZATION(#16,#17);
#19=PERSON_AND_ORGANIZATION_ROLE('design_owner');
#20=CC_DESIGN_PERSON_AND_ORGANIZATION_ASSIGNMENT(#18,#19,(#15));
#21=PRODUCT_RELATED_PRODUCT_CATEGORY('assembly','',(#15));
#22=DESIGN_CONTEXT('detailed design',#23,'design');
#23=APPLICATION_CONTEXT('configuration controlled 3d designs of mechanical parts and assemblies');
#24=APPLICATION_PROTOCOL_DEFINITION('international standard','automotive_design',
2011,#23);
#25=PRODUCT_CONTEXT('NONE',#23,'mechanical');
#26=CC_DESIGN_DATE_AND_TIME_ASSIGNMENT(#27,#31,(#13));
#27=DATE_AND_TIME(#28,#29);
#28=CALENDAR_DATE(0,1,1);
#29=LOCAL_TIME(0,0,0.,#30);
#30=COORDINATED_UNIVERSAL_TIME_OFFSET(0,0,.AHEAD.);
#31=DATE_TIME_ROLE('creation_date');
#32=CC_DESIGN_APPROVAL(#33,(#13));
#33=APPROVAL(#34,'UNSPECIFIED');
#34=APPROVAL_STATUS('not_yet_approved');
#35=APPROVAL_DATE_TIME(#36,#33);
#36=DATE_AND_TIME(#37,#38);
#37=CALENDAR_DATE(0,1,1);
#38=LOCAL_TIME(0,0,0.,#39);
#39=COORDINATED_UNIVERSAL_TIME_OFFSET(0,0,.AHEAD.);
#40=DERIVED_UNIT((#44,#41));
#41=DERIVED_UNIT_ELEMENT(#42,-1.);
#42=VOLUME_UNIT(#43);
#43=DIMENSIONAL_EXPONENTS(3.,0.,0.,0.,0.,0.,0.);
#44=(DERIVED_UNIT_ELEMENT($,-1.)NAMED_UNIT($)MASS_UNIT()SI_UNIT($,.GRAM.));
#45=MANIFOLD_SOLID_BREP('',#46);
#46=CLOSED_SHELL('',(#173,#182,#191,#200,#209,#218,#227,#236,#245,#254,#263,#272,
#281,#290,#299,#308,#317,#326,#335,#344,#353,#362,#371,#380,#389,#398,#407,#416,
#425));
#47=COLOUR_RGB($,0.156862745098039,0.156862745098039,0.156862745098039);
#48=FILL_AREA_STYLE_COLOUR($,#47);
#49=FILL_AREA_STYLE($,(#48));
#50=SURFACE_STYLE_FILL_AREA(#49);
#51=SURFACE_SIDE_STYLE('',(#50));
#52=SURFACE_STYLE_USAGE(.BOTH.,#51);
#53=PRESENTATION_STYLE_ASSIGNMENT((#52));
#54=MECHANICAL_DESIGN_GEOMETRIC_PRESENTATION_REPRESENTATION('NONE',(#55,#96,#181,
#190,#199,#208,#217,#226,#235,#244,#253,#262,#271,#280,#289,#298,#307,#316,#325,
#334,#343,#352,#361,#370,#379,#388,#397,#406,#415,#424,#433,#442,#451,#460,#469,
#478,#487,#496,#505,#514,#523,#532,#541,#550,#559,#568,#577,#586,#595),#6);
#55=STYLED_ITEM('',(#53),#45);
#56=ADVANCED_BREP_SHAPE_REPRESENTATION('NONE',(#45),#6);
#57=SHAPE_REPRESENTATION_RELATIONSHIP('','',#1,#56);
#58=AXIS2_PLACEMENT_3D('',#59,#60,#61);
#59=CARTESIAN_POINT('',(0.,0.,0.));
#60=DIRECTION('',(0.,0.,1.));
#61=DIRECTION('',(1.,0.,0.));
#62=SHAPE_REPRESENTATION('NONE',(#2),#6);
#63=SHAPE_DEFINITION_REPRESENTATION(#64,#62);
#64=PRODUCT_DEFINITION_SHAPE('NONE','NONE',#65);
#65=PRODUCT_DEFINITION('','UNSPECIFIED',#66,#69);
#66=PRODUCT_DEFINITION_FORMATION_WITH_SPECIFIED_SOURCE('ANY','UNSPECIFIED',#67,.NOT_KNOWN.);
#67=PRODUCT('','SxL-1xx-TT-11-pin','Based on Samtec Inc. SL, SDL series datasheet',
(#72));
#68=PRODUCT_RELATED_PRODUCT_CATEGORY('detail','',(#67));
#69=DESIGN_CONTEXT('detailed design',#70,'design');
#70=APPLICATION_CONTEXT('configuration controlled 3d designs of mechanical parts and assemblies');
#71=APPLICATION_PROTOCOL_DEFINITION('international standard','automotive_design',
2011,#70);
#72=PRODUCT_CONTEXT('NONE',#70,'mechanical');
#73=CC_DESIGN_DATE_AND_TIME_ASSIGNMENT(#74,#78,(#65));
#74=DATE_AND_TIME(#75,#76);
#75=CALENDAR_DATE(0,1,1);
#76=LOCAL_TIME(0,0,0.,#77);
#77=COORDINATED_UNIVERSAL_TIME_OFFSET(0,0,.AHEAD.);
#78=DATE_TIME_ROLE('creation_date');
#79=CC_DESIGN_APPROVAL(#80,(#65));
#80=APPROVAL(#81,'UNSPECIFIED');
#81=APPROVAL_STATUS('not_yet_approved');
#82=APPROVAL_DATE_TIME(#83,#80);
#83=DATE_AND_TIME(#84,#85);
#84=CALENDAR_DATE(0,1,1);
#85=LOCAL_TIME(0,0,0.,#86);
#86=COORDINATED_UNIVERSAL_TIME_OFFSET(0,0,.AHEAD.);
#87=MANIFOLD_SOLID_BREP('',#88);
#88=CLOSED_SHELL('',(#434,#443,#452,#461,#470,#479,#488,#497,#506,#515,#524,#533,
#542,#551,#560,#569,#578,#587));
#89=COLOUR_RGB($,0.827450980392157,0.831372549019608,0.835294117647059);
#90=FILL_AREA_STYLE_COLOUR($,#89);
#91=FILL_AREA_STYLE($,(#90));
#92=SURFACE_STYLE_FILL_AREA(#91);
#93=SURFACE_SIDE_STYLE('',(#92));
#94=SURFACE_STYLE_USAGE(.BOTH.,#93);
#95=PRESENTATION_STYLE_ASSIGNMENT((#94));
#96=STYLED_ITEM('',(#95),#87);
#97=ADVANCED_BREP_SHAPE_REPRESENTATION('NONE',(#87),#6);
#98=SHAPE_REPRESENTATION_RELATIONSHIP('','',#62,#97);
#99=ITEM_DEFINED_TRANSFORMATION('','',#2,#58);
#100=(REPRESENTATION_RELATIONSHIP('','',#62,#1)REPRESENTATION_RELATIONSHIP_WITH_TRANSFORMATION(
#99)SHAPE_REPRESENTATION_RELATIONSHIP());
#101=NEXT_ASSEMBLY_USAGE_OCCURRENCE('1','','',#13,#65,$);
#102=CC_DESIGN_SECURITY_CLASSIFICATION(#103,(#101));
#103=SECURITY_CLASSIFICATION('','',#104);
#104=SECURITY_CLASSIFICATION_LEVEL('unclassified');
#105=CC_DESIGN_DATE_AND_TIME_ASSIGNMENT(#106,#110,(#103));
#106=DATE_AND_TIME(#107,#108);
#107=CALENDAR_DATE(0,1,1);
#108=LOCAL_TIME(0,0,0.,#109);
#109=COORDINATED_UNIVERSAL_TIME_OFFSET(0,0,.AHEAD.);
#110=DATE_TIME_ROLE('classification_date');
#111=CC_DESIGN_APPROVAL(#112,(#103));
#112=APPROVAL(#113,'UNSPECIFIED');
#113=APPROVAL_STATUS('not_yet_approved');
#114=APPROVAL_DATE_TIME(#115,#112);
#115=DATE_AND_TIME(#116,#117);
#116=CALENDAR_DATE(0,1,1);
#117=LOCAL_TIME(0,0,0.,#118);
#118=COORDINATED_UNIVERSAL_TIME_OFFSET(0,0,.AHEAD.);
#119=PRODUCT_DEFINITION_SHAPE('NONE','NONE',#101);
#120=CONTEXT_DEPENDENT_SHAPE_REPRESENTATION(#100,#119);
#121=AXIS2_PLACEMENT_3D('',#122,#123,#124);
#122=CARTESIAN_POINT('',(2.54,0.,0.));
#123=DIRECTION('',(0.,0.,1.));
#124=DIRECTION('',(1.,0.,0.));
#125=ITEM_DEFINED_TRANSFORMATION('','',#2,#121);
#126=(REPRESENTATION_RELATIONSHIP('','',#62,#1)REPRESENTATION_RELATIONSHIP_WITH_TRANSFORMATION(
#125)SHAPE_REPRESENTATION_RELATIONSHIP());
#127=NEXT_ASSEMBLY_USAGE_OCCURRENCE('2','','',#13,#65,$);
#128=CC_DESIGN_SECURITY_CLASSIFICATION(#129,(#127));
#129=SECURITY_CLASSIFICATION('','',#130);
#130=SECURITY_CLASSIFICATION_LEVEL('unclassified');
#131=CC_DESIGN_DATE_AND_TIME_ASSIGNMENT(#132,#136,(#129));
#132=DATE_AND_TIME(#133,#134);
#133=CALENDAR_DATE(0,1,1);
#134=LOCAL_TIME(0,0,0.,#135);
#135=COORDINATED_UNIVERSAL_TIME_OFFSET(0,0,.AHEAD.);
#136=DATE_TIME_ROLE('classification_date');
#137=CC_DESIGN_APPROVAL(#138,(#129));
#138=APPROVAL(#139,'UNSPECIFIED');
#139=APPROVAL_STATUS('not_yet_approved');
#140=APPROVAL_DATE_TIME(#141,#138);
#141=DATE_AND_TIME(#142,#143);
#142=CALENDAR_DATE(0,1,1);
#143=LOCAL_TIME(0,0,0.,#144);
#144=COORDINATED_UNIVERSAL_TIME_OFFSET(0,0,.AHEAD.);
#145=PRODUCT_DEFINITION_SHAPE('NONE','NONE',#127);
#146=CONTEXT_DEPENDENT_SHAPE_REPRESENTATION(#126,#145);
#147=AXIS2_PLACEMENT_3D('',#148,#149,#150);
#148=CARTESIAN_POINT('',(5.08,0.,0.));
#149=DIRECTION('',(0.,0.,1.));
#150=DIRECTION('',(1.,0.,0.));
#151=ITEM_DEFINED_TRANSFORMATION('','',#2,#147);
#152=(REPRESENTATION_RELATIONSHIP('','',#62,#1)REPRESENTATION_RELATIONSHIP_WITH_TRANSFORMATION(
#151)SHAPE_REPRESENTATION_RELATIONSHIP());
#153=NEXT_ASSEMBLY_USAGE_OCCURRENCE('3','','',#13,#65,$);
#154=CC_DESIGN_SECURITY_CLASSIFICATION(#155,(#153));
#155=SECURITY_CLASSIFICATION('','',#156);
#156=SECURITY_CLASSIFICATION_LEVEL('unclassified');
#157=CC_DESIGN_DATE_AND_TIME_ASSIGNMENT(#158,#162,(#155));
#158=DATE_AND_TIME(#159,#160);
#159=CALENDAR_DATE(0,1,1);
#160=LOCAL_TIME(0,0,0.,#161);
#161=COORDINATED_UNIVERSAL_TIME_OFFSET(0,0,.AHEAD.);
#162=DATE_TIME_ROLE('classification_date');
#163=CC_DESIGN_APPROVAL(#164,(#155));
#164=APPROVAL(#165,'UNSPECIFIED');
#165=APPROVAL_STATUS('not_yet_approved');
#166=APPROVAL_DATE_TIME(#167,#164);
#167=DATE_AND_TIME(#168,#169);
#168=CALENDAR_DATE(0,1,1);
#169=LOCAL_TIME(0,0,0.,#170);
#170=COORDINATED_UNIVERSAL_TIME_OFFSET(0,0,.AHEAD.);
#171=PRODUCT_DEFINITION_SHAPE('NONE','NONE',#153);
#172=CONTEXT_DEPENDENT_SHAPE_REPRESENTATION(#152,#171);
#173=ADVANCED_FACE('',(#596),#598,.T.);
#174=COLOUR_RGB($,0.156862745098039,0.156862745098039,0.156862745098039);
#175=FILL_AREA_STYLE_COLOUR($,#174);
#176=FILL_AREA_STYLE($,(#175));
#177=SURFACE_STYLE_FILL_AREA(#176);
#178=SURFACE_SIDE_STYLE('',(#177));
#179=SURFACE_STYLE_USAGE(.BOTH.,#178);
#180=PRESENTATION_STYLE_ASSIGNMENT((#179));
#181=STYLED_ITEM('',(#180),#173);
#182=ADVANCED_FACE('',(#603),#605,.T.);
#183=COLOUR_RGB($,0.156862745098039,0.156862745098039,0.156862745098039);
#184=FILL_AREA_STYLE_COLOUR($,#183);
#185=FILL_AREA_STYLE($,(#184));
#186=SURFACE_STYLE_FILL_AREA(#185);
#187=SURFACE_SIDE_STYLE('',(#186));
#188=SURFACE_STYLE_USAGE(.BOTH.,#187);
#189=PRESENTATION_STYLE_ASSIGNMENT((#188));
#190=STYLED_ITEM('',(#189),#182);
#191=ADVANCED_FACE('',(#610),#612,.T.);
#192=COLOUR_RGB($,0.156862745098039,0.156862745098039,0.156862745098039);
#193=FILL_AREA_STYLE_COLOUR($,#192);
#194=FILL_AREA_STYLE($,(#193));
#195=SURFACE_STYLE_FILL_AREA(#194);
#196=SURFACE_SIDE_STYLE('',(#195));
#197=SURFACE_STYLE_USAGE(.BOTH.,#196);
#198=PRESENTATION_STYLE_ASSIGNMENT((#197));
#199=STYLED_ITEM('',(#198),#191);
#200=ADVANCED_FACE('',(#617),#619,.T.);
#201=COLOUR_RGB($,0.156862745098039,0.156862745098039,0.156862745098039);
#202=FILL_AREA_STYLE_COLOUR($,#201);
#203=FILL_AREA_STYLE($,(#202));
#204=SURFACE_STYLE_FILL_AREA(#203);
#205=SURFACE_SIDE_STYLE('',(#204));
#206=SURFACE_STYLE_USAGE(.BOTH.,#205);
#207=PRESENTATION_STYLE_ASSIGNMENT((#206));
#208=STYLED_ITEM('',(#207),#200);
#209=ADVANCED_FACE('',(#624,#626,#628,#630),#632,.T.);
#210=COLOUR_RGB($,0.156862745098039,0.156862745098039,0.156862745098039);
#211=FILL_AREA_STYLE_COLOUR($,#210);
#212=FILL_AREA_STYLE($,(#211));
#213=SURFACE_STYLE_FILL_AREA(#212);
#214=SURFACE_SIDE_STYLE('',(#213));
#215=SURFACE_STYLE_USAGE(.BOTH.,#214);
#216=PRESENTATION_STYLE_ASSIGNMENT((#215));
#217=STYLED_ITEM('',(#216),#209);
#218=ADVANCED_FACE('',(#637,#639,#641,#643),#645,.F.);
#219=COLOUR_RGB($,0.156862745098039,0.156862745098039,0.156862745098039);
#220=FILL_AREA_STYLE_COLOUR($,#219);
#221=FILL_AREA_STYLE($,(#220));
#222=SURFACE_STYLE_FILL_AREA(#221);
#223=SURFACE_SIDE_STYLE('',(#222));
#224=SURFACE_STYLE_USAGE(.BOTH.,#223);
#225=PRESENTATION_STYLE_ASSIGNMENT((#224));
#226=STYLED_ITEM('',(#225),#218);
#227=ADVANCED_FACE('',(#650),#652,.F.);
#228=COLOUR_RGB($,0.156862745098039,0.156862745098039,0.156862745098039);
#229=FILL_AREA_STYLE_COLOUR($,#228);
#230=FILL_AREA_STYLE($,(#229));
#231=SURFACE_STYLE_FILL_AREA(#230);
#232=SURFACE_SIDE_STYLE('',(#231));
#233=SURFACE_STYLE_USAGE(.BOTH.,#232);
#234=PRESENTATION_STYLE_ASSIGNMENT((#233));
#235=STYLED_ITEM('',(#234),#227);
#236=ADVANCED_FACE('',(#657),#659,.F.);
#237=COLOUR_RGB($,0.156862745098039,0.156862745098039,0.156862745098039);
#238=FILL_AREA_STYLE_COLOUR($,#237);
#239=FILL_AREA_STYLE($,(#238));
#240=SURFACE_STYLE_FILL_AREA(#239);
#241=SURFACE_SIDE_STYLE('',(#240));
#242=SURFACE_STYLE_USAGE(.BOTH.,#241);
#243=PRESENTATION_STYLE_ASSIGNMENT((#242));
#244=STYLED_ITEM('',(#243),#236);
#245=ADVANCED_FACE('',(#664),#666,.F.);
#246=COLOUR_RGB($,0.156862745098039,0.156862745098039,0.156862745098039);
#247=FILL_AREA_STYLE_COLOUR($,#246);
#248=FILL_AREA_STYLE($,(#247));
#249=SURFACE_STYLE_FILL_AREA(#248);
#250=SURFACE_SIDE_STYLE('',(#249));
#251=SURFACE_STYLE_USAGE(.BOTH.,#250);
#252=PRESENTATION_STYLE_ASSIGNMENT((#251));
#253=STYLED_ITEM('',(#252),#245);
#254=ADVANCED_FACE('',(#671),#673,.F.);
#255=COLOUR_RGB($,0.156862745098039,0.156862745098039,0.156862745098039);
#256=FILL_AREA_STYLE_COLOUR($,#255);
#257=FILL_AREA_STYLE($,(#256));
#258=SURFACE_STYLE_FILL_AREA(#257);
#259=SURFACE_SIDE_STYLE('',(#258));
#260=SURFACE_STYLE_USAGE(.BOTH.,#259);
#261=PRESENTATION_STYLE_ASSIGNMENT((#260));
#262=STYLED_ITEM('',(#261),#254);
#263=ADVANCED_FACE('',(#678),#680,.F.);
#264=COLOUR_RGB($,0.156862745098039,0.156862745098039,0.156862745098039);
#265=FILL_AREA_STYLE_COLOUR($,#264);
#266=FILL_AREA_STYLE($,(#265));
#267=SURFACE_STYLE_FILL_AREA(#266);
#268=SURFACE_SIDE_STYLE('',(#267));
#269=SURFACE_STYLE_USAGE(.BOTH.,#268);
#270=PRESENTATION_STYLE_ASSIGNMENT((#269));
#271=STYLED_ITEM('',(#270),#263);
#272=ADVANCED_FACE('',(#685),#687,.F.);
#273=COLOUR_RGB($,0.156862745098039,0.156862745098039,0.156862745098039);
#274=FILL_AREA_STYLE_COLOUR($,#273);
#275=FILL_AREA_STYLE($,(#274));
#276=SURFACE_STYLE_FILL_AREA(#275);
#277=SURFACE_SIDE_STYLE('',(#276));
#278=SURFACE_STYLE_USAGE(.BOTH.,#277);
#279=PRESENTATION_STYLE_ASSIGNMENT((#278));
#280=STYLED_ITEM('',(#279),#272);
#281=ADVANCED_FACE('',(#692),#694,.F.);
#282=COLOUR_RGB($,0.156862745098039,0.156862745098039,0.156862745098039);
#283=FILL_AREA_STYLE_COLOUR($,#282);
#284=FILL_AREA_STYLE($,(#283));
#285=SURFACE_STYLE_FILL_AREA(#284);
#286=SURFACE_SIDE_STYLE('',(#285));
#287=SURFACE_STYLE_USAGE(.BOTH.,#286);
#288=PRESENTATION_STYLE_ASSIGNMENT((#287));
#289=STYLED_ITEM('',(#288),#281);
#290=ADVANCED_FACE('',(#699),#701,.T.);
#291=COLOUR_RGB($,0.156862745098039,0.156862745098039,0.156862745098039);
#292=FILL_AREA_STYLE_COLOUR($,#291);
#293=FILL_AREA_STYLE($,(#292));
#294=SURFACE_STYLE_FILL_AREA(#293);
#295=SURFACE_SIDE_STYLE('',(#294));
#296=SURFACE_STYLE_USAGE(.BOTH.,#295);
#297=PRESENTATION_STYLE_ASSIGNMENT((#296));
#298=STYLED_ITEM('',(#297),#290);
#299=ADVANCED_FACE('',(#706),#708,.T.);
#300=COLOUR_RGB($,0.156862745098039,0.156862745098039,0.156862745098039);
#301=FILL_AREA_STYLE_COLOUR($,#300);
#302=FILL_AREA_STYLE($,(#301));
#303=SURFACE_STYLE_FILL_AREA(#302);
#304=SURFACE_SIDE_STYLE('',(#303));
#305=SURFACE_STYLE_USAGE(.BOTH.,#304);
#306=PRESENTATION_STYLE_ASSIGNMENT((#305));
#307=STYLED_ITEM('',(#306),#299);
#308=ADVANCED_FACE('',(#713),#715,.F.);
#309=COLOUR_RGB($,0.156862745098039,0.156862745098039,0.156862745098039);
#310=FILL_AREA_STYLE_COLOUR($,#309);
#311=FILL_AREA_STYLE($,(#310));
#312=SURFACE_STYLE_FILL_AREA(#311);
#313=SURFACE_SIDE_STYLE('',(#312));
#314=SURFACE_STYLE_USAGE(.BOTH.,#313);
#315=PRESENTATION_STYLE_ASSIGNMENT((#314));
#316=STYLED_ITEM('',(#315),#308);
#317=ADVANCED_FACE('',(#720),#722,.F.);
#318=COLOUR_RGB($,0.156862745098039,0.156862745098039,0.156862745098039);
#319=FILL_AREA_STYLE_COLOUR($,#318);
#320=FILL_AREA_STYLE($,(#319));
#321=SURFACE_STYLE_FILL_AREA(#320);
#322=SURFACE_SIDE_STYLE('',(#321));
#323=SURFACE_STYLE_USAGE(.BOTH.,#322);
#324=PRESENTATION_STYLE_ASSIGNMENT((#323));
#325=STYLED_ITEM('',(#324),#317);
#326=ADVANCED_FACE('',(#727),#729,.F.);
#327=COLOUR_RGB($,0.156862745098039,0.156862745098039,0.156862745098039);
#328=FILL_AREA_STYLE_COLOUR($,#327);
#329=FILL_AREA_STYLE($,(#328));
#330=SURFACE_STYLE_FILL_AREA(#329);
#331=SURFACE_SIDE_STYLE('',(#330));
#332=SURFACE_STYLE_USAGE(.BOTH.,#331);
#333=PRESENTATION_STYLE_ASSIGNMENT((#332));
#334=STYLED_ITEM('',(#333),#326);
#335=ADVANCED_FACE('',(#734),#736,.T.);
#336=COLOUR_RGB($,0.156862745098039,0.156862745098039,0.156862745098039);
#337=FILL_AREA_STYLE_COLOUR($,#336);
#338=FILL_AREA_STYLE($,(#337));
#339=SURFACE_STYLE_FILL_AREA(#338);
#340=SURFACE_SIDE_STYLE('',(#339));
#341=SURFACE_STYLE_USAGE(.BOTH.,#340);
#342=PRESENTATION_STYLE_ASSIGNMENT((#341));
#343=STYLED_ITEM('',(#342),#335);
#344=ADVANCED_FACE('',(#741),#743,.T.);
#345=COLOUR_RGB($,0.156862745098039,0.156862745098039,0.156862745098039);
#346=FILL_AREA_STYLE_COLOUR($,#345);
#347=FILL_AREA_STYLE($,(#346));
#348=SURFACE_STYLE_FILL_AREA(#347);
#349=SURFACE_SIDE_STYLE('',(#348));
#350=SURFACE_STYLE_USAGE(.BOTH.,#349);
#351=PRESENTATION_STYLE_ASSIGNMENT((#350));
#352=STYLED_ITEM('',(#351),#344);
#353=ADVANCED_FACE('',(#748),#750,.T.);
#354=COLOUR_RGB($,0.156862745098039,0.156862745098039,0.156862745098039);
#355=FILL_AREA_STYLE_COLOUR($,#354);
#356=FILL_AREA_STYLE($,(#355));
#357=SURFACE_STYLE_FILL_AREA(#356);
#358=SURFACE_SIDE_STYLE('',(#357));
#359=SURFACE_STYLE_USAGE(.BOTH.,#358);
#360=PRESENTATION_STYLE_ASSIGNMENT((#359));
#361=STYLED_ITEM('',(#360),#353);
#362=ADVANCED_FACE('',(#755),#757,.T.);
#363=COLOUR_RGB($,0.156862745098039,0.156862745098039,0.156862745098039);
#364=FILL_AREA_STYLE_COLOUR($,#363);
#365=FILL_AREA_STYLE($,(#364));
#366=SURFACE_STYLE_FILL_AREA(#365);
#367=SURFACE_SIDE_STYLE('',(#366));
#368=SURFACE_STYLE_USAGE(.BOTH.,#367);
#369=PRESENTATION_STYLE_ASSIGNMENT((#368));
#370=STYLED_ITEM('',(#369),#362);
#371=ADVANCED_FACE('',(#762),#764,.T.);
#372=COLOUR_RGB($,0.156862745098039,0.156862745098039,0.156862745098039);
#373=FILL_AREA_STYLE_COLOUR($,#372);
#374=FILL_AREA_STYLE($,(#373));
#375=SURFACE_STYLE_FILL_AREA(#374);
#376=SURFACE_SIDE_STYLE('',(#375));
#377=SURFACE_STYLE_USAGE(.BOTH.,#376);
#378=PRESENTATION_STYLE_ASSIGNMENT((#377));
#379=STYLED_ITEM('',(#378),#371);
#380=ADVANCED_FACE('',(#769),#771,.F.);
#381=COLOUR_RGB($,0.156862745098039,0.156862745098039,0.156862745098039);
#382=FILL_AREA_STYLE_COLOUR($,#381);
#383=FILL_AREA_STYLE($,(#382));
#384=SURFACE_STYLE_FILL_AREA(#383);
#385=SURFACE_SIDE_STYLE('',(#384));
#386=SURFACE_STYLE_USAGE(.BOTH.,#385);
#387=PRESENTATION_STYLE_ASSIGNMENT((#386));
#388=STYLED_ITEM('',(#387),#380);
#389=ADVANCED_FACE('',(#776),#778,.F.);
#390=COLOUR_RGB($,0.156862745098039,0.156862745098039,0.156862745098039);
#391=FILL_AREA_STYLE_COLOUR($,#390);
#392=FILL_AREA_STYLE($,(#391));
#393=SURFACE_STYLE_FILL_AREA(#392);
#394=SURFACE_SIDE_STYLE('',(#393));
#395=SURFACE_STYLE_USAGE(.BOTH.,#394);
#396=PRESENTATION_STYLE_ASSIGNMENT((#395));
#397=STYLED_ITEM('',(#396),#389);
#398=ADVANCED_FACE('',(#783),#785,.T.);
#399=COLOUR_RGB($,0.156862745098039,0.156862745098039,0.156862745098039);
#400=FILL_AREA_STYLE_COLOUR($,#399);
#401=FILL_AREA_STYLE($,(#400));
#402=SURFACE_STYLE_FILL_AREA(#401);
#403=SURFACE_SIDE_STYLE('',(#402));
#404=SURFACE_STYLE_USAGE(.BOTH.,#403);
#405=PRESENTATION_STYLE_ASSIGNMENT((#404));
#406=STYLED_ITEM('',(#405),#398);
#407=ADVANCED_FACE('',(#790,#792),#794,.F.);
#408=COLOUR_RGB($,0.156862745098039,0.156862745098039,0.156862745098039);
#409=FILL_AREA_STYLE_COLOUR($,#408);
#410=FILL_AREA_STYLE($,(#409));
#411=SURFACE_STYLE_FILL_AREA(#410);
#412=SURFACE_SIDE_STYLE('',(#411));
#413=SURFACE_STYLE_USAGE(.BOTH.,#412);
#414=PRESENTATION_STYLE_ASSIGNMENT((#413));
#415=STYLED_ITEM('',(#414),#407);
#416=ADVANCED_FACE('',(#799,#801),#803,.F.);
#417=COLOUR_RGB($,0.156862745098039,0.156862745098039,0.156862745098039);
#418=FILL_AREA_STYLE_COLOUR($,#417);
#419=FILL_AREA_STYLE($,(#418));
#420=SURFACE_STYLE_FILL_AREA(#419);
#421=SURFACE_SIDE_STYLE('',(#420));
#422=SURFACE_STYLE_USAGE(.BOTH.,#421);
#423=PRESENTATION_STYLE_ASSIGNMENT((#422));
#424=STYLED_ITEM('',(#423),#416);
#425=ADVANCED_FACE('',(#808,#810),#812,.F.);
#426=COLOUR_RGB($,0.156862745098039,0.156862745098039,0.156862745098039);
#427=FILL_AREA_STYLE_COLOUR($,#426);
#428=FILL_AREA_STYLE($,(#427));
#429=SURFACE_STYLE_FILL_AREA(#428);
#430=SURFACE_SIDE_STYLE('',(#429));
#431=SURFACE_STYLE_USAGE(.BOTH.,#430);
#432=PRESENTATION_STYLE_ASSIGNMENT((#431));
#433=STYLED_ITEM('',(#432),#425);
#434=ADVANCED_FACE('',(#817),#819,.T.);
#435=COLOUR_RGB($,0.827450980392157,0.831372549019608,0.835294117647059);
#436=FILL_AREA_STYLE_COLOUR($,#435);
#437=FILL_AREA_STYLE($,(#436));
#438=SURFACE_STYLE_FILL_AREA(#437);
#439=SURFACE_SIDE_STYLE('',(#438));
#440=SURFACE_STYLE_USAGE(.BOTH.,#439);
#441=PRESENTATION_STYLE_ASSIGNMENT((#440));
#442=STYLED_ITEM('',(#441),#434);
#443=ADVANCED_FACE('',(#824,#826),#828,.T.);
#444=COLOUR_RGB($,0.827450980392157,0.831372549019608,0.835294117647059);
#445=FILL_AREA_STYLE_COLOUR($,#444);
#446=FILL_AREA_STYLE($,(#445));
#447=SURFACE_STYLE_FILL_AREA(#446);
#448=SURFACE_SIDE_STYLE('',(#447));
#449=SURFACE_STYLE_USAGE(.BOTH.,#448);
#450=PRESENTATION_STYLE_ASSIGNMENT((#449));
#451=STYLED_ITEM('',(#450),#443);
#452=ADVANCED_FACE('',(#833,#835),#837,.T.);
#453=COLOUR_RGB($,0.827450980392157,0.831372549019608,0.835294117647059);
#454=FILL_AREA_STYLE_COLOUR($,#453);
#455=FILL_AREA_STYLE($,(#454));
#456=SURFACE_STYLE_FILL_AREA(#455);
#457=SURFACE_SIDE_STYLE('',(#456));
#458=SURFACE_STYLE_USAGE(.BOTH.,#457);
#459=PRESENTATION_STYLE_ASSIGNMENT((#458));
#460=STYLED_ITEM('',(#459),#452);
#461=ADVANCED_FACE('',(#842,#844),#846,.T.);
#462=COLOUR_RGB($,0.827450980392157,0.831372549019608,0.835294117647059);
#463=FILL_AREA_STYLE_COLOUR($,#462);
#464=FILL_AREA_STYLE($,(#463));
#465=SURFACE_STYLE_FILL_AREA(#464);
#466=SURFACE_SIDE_STYLE('',(#465));
#467=SURFACE_STYLE_USAGE(.BOTH.,#466);
#468=PRESENTATION_STYLE_ASSIGNMENT((#467));
#469=STYLED_ITEM('',(#468),#461);
#470=ADVANCED_FACE('',(#851,#853),#855,.T.);
#471=COLOUR_RGB($,0.827450980392157,0.831372549019608,0.835294117647059);
#472=FILL_AREA_STYLE_COLOUR($,#471);
#473=FILL_AREA_STYLE($,(#472));
#474=SURFACE_STYLE_FILL_AREA(#473);
#475=SURFACE_SIDE_STYLE('',(#474));
#476=SURFACE_STYLE_USAGE(.BOTH.,#475);
#477=PRESENTATION_STYLE_ASSIGNMENT((#476));
#478=STYLED_ITEM('',(#477),#470);
#479=ADVANCED_FACE('',(#860,#862),#864,.T.);
#480=COLOUR_RGB($,0.827450980392157,0.831372549019608,0.835294117647059);
#481=FILL_AREA_STYLE_COLOUR($,#480);
#482=FILL_AREA_STYLE($,(#481));
#483=SURFACE_STYLE_FILL_AREA(#482);
#484=SURFACE_SIDE_STYLE('',(#483));
#485=SURFACE_STYLE_USAGE(.BOTH.,#484);
#486=PRESENTATION_STYLE_ASSIGNMENT((#485));
#487=STYLED_ITEM('',(#486),#479);
#488=ADVANCED_FACE('',(#869,#871),#873,.T.);
#489=COLOUR_RGB($,0.827450980392157,0.831372549019608,0.835294117647059);
#490=FILL_AREA_STYLE_COLOUR($,#489);
#491=FILL_AREA_STYLE($,(#490));
#492=SURFACE_STYLE_FILL_AREA(#491);
#493=SURFACE_SIDE_STYLE('',(#492));
#494=SURFACE_STYLE_USAGE(.BOTH.,#493);
#495=PRESENTATION_STYLE_ASSIGNMENT((#494));
#496=STYLED_ITEM('',(#495),#488);
#497=ADVANCED_FACE('',(#878,#880),#882,.T.);
#498=COLOUR_RGB($,0.827450980392157,0.831372549019608,0.835294117647059);
#499=FILL_AREA_STYLE_COLOUR($,#498);
#500=FILL_AREA_STYLE($,(#499));
#501=SURFACE_STYLE_FILL_AREA(#500);
#502=SURFACE_SIDE_STYLE('',(#501));
#503=SURFACE_STYLE_USAGE(.BOTH.,#502);
#504=PRESENTATION_STYLE_ASSIGNMENT((#503));
#505=STYLED_ITEM('',(#504),#497);
#506=ADVANCED_FACE('',(#887,#889),#891,.T.);
#507=COLOUR_RGB($,0.827450980392157,0.831372549019608,0.835294117647059);
#508=FILL_AREA_STYLE_COLOUR($,#507);
#509=FILL_AREA_STYLE($,(#508));
#510=SURFACE_STYLE_FILL_AREA(#509);
#511=SURFACE_SIDE_STYLE('',(#510));
#512=SURFACE_STYLE_USAGE(.BOTH.,#511);
#513=PRESENTATION_STYLE_ASSIGNMENT((#512));
#514=STYLED_ITEM('',(#513),#506);
#515=ADVANCED_FACE('',(#896,#898),#900,.T.);
#516=COLOUR_RGB($,0.827450980392157,0.831372549019608,0.835294117647059);
#517=FILL_AREA_STYLE_COLOUR($,#516);
#518=FILL_AREA_STYLE($,(#517));
#519=SURFACE_STYLE_FILL_AREA(#518);
#520=SURFACE_SIDE_STYLE('',(#519));
#521=SURFACE_STYLE_USAGE(.BOTH.,#520);
#522=PRESENTATION_STYLE_ASSIGNMENT((#521));
#523=STYLED_ITEM('',(#522),#515);
#524=ADVANCED_FACE('',(#905,#907),#909,.T.);
#525=COLOUR_RGB($,0.827450980392157,0.831372549019608,0.835294117647059);
#526=FILL_AREA_STYLE_COLOUR($,#525);
#527=FILL_AREA_STYLE($,(#526));
#528=SURFACE_STYLE_FILL_AREA(#527);
#529=SURFACE_SIDE_STYLE('',(#528));
#530=SURFACE_STYLE_USAGE(.BOTH.,#529);
#531=PRESENTATION_STYLE_ASSIGNMENT((#530));
#532=STYLED_ITEM('',(#531),#524);
#533=ADVANCED_FACE('',(#914,#916),#918,.F.);
#534=COLOUR_RGB($,0.827450980392157,0.831372549019608,0.835294117647059);
#535=FILL_AREA_STYLE_COLOUR($,#534);
#536=FILL_AREA_STYLE($,(#535));
#537=SURFACE_STYLE_FILL_AREA(#536);
#538=SURFACE_SIDE_STYLE('',(#537));
#539=SURFACE_STYLE_USAGE(.BOTH.,#538);
#540=PRESENTATION_STYLE_ASSIGNMENT((#539));
#541=STYLED_ITEM('',(#540),#533);
#542=ADVANCED_FACE('',(#923,#925),#927,.F.);
#543=COLOUR_RGB($,0.827450980392157,0.831372549019608,0.835294117647059);
#544=FILL_AREA_STYLE_COLOUR($,#543);
#545=FILL_AREA_STYLE($,(#544));
#546=SURFACE_STYLE_FILL_AREA(#545);
#547=SURFACE_SIDE_STYLE('',(#546));
#548=SURFACE_STYLE_USAGE(.BOTH.,#547);
#549=PRESENTATION_STYLE_ASSIGNMENT((#548));
#550=STYLED_ITEM('',(#549),#542);
#551=ADVANCED_FACE('',(#932,#934),#936,.F.);
#552=COLOUR_RGB($,0.827450980392157,0.831372549019608,0.835294117647059);
#553=FILL_AREA_STYLE_COLOUR($,#552);
#554=FILL_AREA_STYLE($,(#553));
#555=SURFACE_STYLE_FILL_AREA(#554);
#556=SURFACE_SIDE_STYLE('',(#555));
#557=SURFACE_STYLE_USAGE(.BOTH.,#556);
#558=PRESENTATION_STYLE_ASSIGNMENT((#557));
#559=STYLED_ITEM('',(#558),#551);
#560=ADVANCED_FACE('',(#941,#943),#945,.T.);
#561=COLOUR_RGB($,0.827450980392157,0.831372549019608,0.835294117647059);
#562=FILL_AREA_STYLE_COLOUR($,#561);
#563=FILL_AREA_STYLE($,(#562));
#564=SURFACE_STYLE_FILL_AREA(#563);
#565=SURFACE_SIDE_STYLE('',(#564));
#566=SURFACE_STYLE_USAGE(.BOTH.,#565);
#567=PRESENTATION_STYLE_ASSIGNMENT((#566));
#568=STYLED_ITEM('',(#567),#560);
#569=ADVANCED_FACE('',(#950,#952),#954,.F.);
#570=COLOUR_RGB($,0.827450980392157,0.831372549019608,0.835294117647059);
#571=FILL_AREA_STYLE_COLOUR($,#570);
#572=FILL_AREA_STYLE($,(#571));
#573=SURFACE_STYLE_FILL_AREA(#572);
#574=SURFACE_SIDE_STYLE('',(#573));
#575=SURFACE_STYLE_USAGE(.BOTH.,#574);
#576=PRESENTATION_STYLE_ASSIGNMENT((#575));
#577=STYLED_ITEM('',(#576),#569);
#578=ADVANCED_FACE('',(#959,#961),#963,.F.);
#579=COLOUR_RGB($,0.827450980392157,0.831372549019608,0.835294117647059);
#580=FILL_AREA_STYLE_COLOUR($,#579);
#581=FILL_AREA_STYLE($,(#580));
#582=SURFACE_STYLE_FILL_AREA(#581);
#583=SURFACE_SIDE_STYLE('',(#582));
#584=SURFACE_STYLE_USAGE(.BOTH.,#583);
#585=PRESENTATION_STYLE_ASSIGNMENT((#584));
#586=STYLED_ITEM('',(#585),#578);
#587=ADVANCED_FACE('',(#968),#970,.T.);
#588=COLOUR_RGB($,0.827450980392157,0.831372549019608,0.835294117647059);
#589=FILL_AREA_STYLE_COLOUR($,#588);
#590=FILL_AREA_STYLE($,(#589));
#591=SURFACE_STYLE_FILL_AREA(#590);
#592=SURFACE_SIDE_STYLE('',(#591));
#593=SURFACE_STYLE_USAGE(.BOTH.,#592);
#594=PRESENTATION_STYLE_ASSIGNMENT((#593));
#595=STYLED_ITEM('',(#594),#587);
#596=FACE_BOUND('',#597,.T.);
#597=EDGE_LOOP('',(#975,#976,#977,#978));
#598=PLANE('',#599);
#599=AXIS2_PLACEMENT_3D('',#600,#601,#602);
#600=CARTESIAN_POINT('',(-1.2451077025535,-1.27,1.57));
#601=DIRECTION('',(0.,-1.,0.));
#602=DIRECTION('',(1.,0.,0.));
#603=FACE_BOUND('',#604,.T.);
#604=EDGE_LOOP('',(#979,#980,#981,#982));
#605=PLANE('',#606);
#606=AXIS2_PLACEMENT_3D('',#607,#608,#609);
#607=CARTESIAN_POINT('',(-1.2451077025535,-1.27,1.57));
#608=DIRECTION('',(0.,-1.,0.));
#609=DIRECTION('',(1.,0.,0.));
#610=FACE_BOUND('',#611,.T.);
#611=EDGE_LOOP('',(#983,#984,#985,#986));
#612=PLANE('',#613);
#613=AXIS2_PLACEMENT_3D('',#614,#615,#616);
#614=CARTESIAN_POINT('',(6.3251077025535,1.27,1.57));
#615=DIRECTION('',(0.,1.,-0.));
#616=DIRECTION('',(-1.,0.,0.));
#617=FACE_BOUND('',#618,.T.);
#618=EDGE_LOOP('',(#987,#988,#989,#990));
#619=PLANE('',#620);
#620=AXIS2_PLACEMENT_3D('',#621,#622,#623);
#621=CARTESIAN_POINT('',(6.3251077025535,1.27,1.57));
#622=DIRECTION('',(0.,1.,-0.));
#623=DIRECTION('',(-1.,0.,0.));
#624=FACE_BOUND('',#625,.T.);
#625=EDGE_LOOP('',(#991,#992,#993,#994,#995,#996,#997,#998,#999,#1000,#1001,#1002,
#1003,#1004,#1005,#1006,#1007,#1008,#1009,#1010,#1011,#1012,#1013,#1014));
#626=FACE_BOUND('',#627,.T.);
#627=EDGE_LOOP('',(#1015));
#628=FACE_BOUND('',#629,.T.);
#629=EDGE_LOOP('',(#1016));
#630=FACE_BOUND('',#631,.T.);
#631=EDGE_LOOP('',(#1017));
#632=PLANE('',#633);
#633=AXIS2_PLACEMENT_3D('',#634,#635,#636);
#634=CARTESIAN_POINT('',(0.,0.,2.84));
#635=DIRECTION('',(0.,0.,1.));
#636=DIRECTION('',(1.,0.,0.));
#637=FACE_BOUND('',#638,.T.);
#638=EDGE_LOOP('',(#1018,#1019,#1020,#1021,#1022,#1023,#1024,#1025,#1026,#1027,#1028,
#1029,#1030,#1031,#1032,#1033,#1034,#1035,#1036,#1037,#1038,#1039,#1040,#1041));
#639=FACE_BOUND('',#640,.T.);
#640=EDGE_LOOP('',(#1042));
#641=FACE_BOUND('',#642,.T.);
#642=EDGE_LOOP('',(#1043));
#643=FACE_BOUND('',#644,.T.);
#644=EDGE_LOOP('',(#1044));
#645=PLANE('',#646);
#646=AXIS2_PLACEMENT_3D('',#647,#648,#649);
#647=CARTESIAN_POINT('',(0.,0.,1.57));
#648=DIRECTION('',(0.,0.,1.));
#649=DIRECTION('',(1.,0.,0.));
#650=FACE_BOUND('',#651,.T.);
#651=EDGE_LOOP('',(#1045,#1046,#1047,#1048));
#652=PLANE('',#653);
#653=AXIS2_PLACEMENT_3D('',#654,#655,#656);
#654=CARTESIAN_POINT('',(3.96900440526804,-1.27,1.57));
#655=DIRECTION('',(0.906307787039943,0.422618261733638,-0.));
#656=DIRECTION('',(-0.422618261733638,0.906307787039943,0.));
#657=FACE_BOUND('',#658,.T.);
#658=EDGE_LOOP('',(#1049,#1050,#1051,#1052));
#659=PLANE('',#660);
#660=AXIS2_PLACEMENT_3D('',#661,#662,#663);
#661=CARTESIAN_POINT('',(3.78281076638794,-0.987321452149846,1.57));
#662=DIRECTION('',(-0.906307787039943,0.422618261733637,0.));
#663=DIRECTION('',(-0.422618261733637,-0.906307787039943,0.));
#664=FACE_BOUND('',#665,.T.);
#665=EDGE_LOOP('',(#1053,#1054,#1055,#1056));
#666=CYLINDRICAL_SURFACE('',#667,0.03);
#667=AXIS2_PLACEMENT_3D('',#668,#669,#670);
#668=CARTESIAN_POINT('',(3.81,-1.,1.57));
#669=DIRECTION('',(0.,0.,1.));
#670=DIRECTION('',(0.906307786970437,0.422618261882694,0.));
#671=FACE_BOUND('',#672,.T.);
#672=EDGE_LOOP('',(#1057,#1058,#1059,#1060));
#673=CYLINDRICAL_SURFACE('',#674,0.03);
#674=AXIS2_PLACEMENT_3D('',#675,#676,#677);
#675=CARTESIAN_POINT('',(3.81,1.,1.57));
#676=DIRECTION('',(0.,0.,1.));
#677=DIRECTION('',(-0.906307787035285,-0.422618261743626,0.));
#678=FACE_BOUND('',#679,.T.);
#679=EDGE_LOOP('',(#1061,#1062,#1063,#1064));
#680=PLANE('',#681);
#681=AXIS2_PLACEMENT_3D('',#682,#683,#684);
#682=CARTESIAN_POINT('',(3.65099559472815,1.27,1.57));
#683=DIRECTION('',(-0.906307787035266,-0.422618261743666,0.));
#684=DIRECTION('',(0.422618261743666,-0.906307787035267,0.));
#685=FACE_BOUND('',#686,.T.);
#686=EDGE_LOOP('',(#1065,#1066,#1067,#1068));
#687=PLANE('',#688);
#688=AXIS2_PLACEMENT_3D('',#689,#690,#691);
#689=CARTESIAN_POINT('',(3.83718923361106,0.987321452147693,1.57));
#690=DIRECTION('',(0.906307787035268,-0.422618261743663,0.));
#691=DIRECTION('',(0.422618261743663,0.906307787035268,0.));
#692=FACE_BOUND('',#693,.T.);
#693=EDGE_LOOP('',(#1069,#1070,#1071,#1072));
#694=PLANE('',#695);
#695=AXIS2_PLACEMENT_3D('',#696,#697,#698);
#696=CARTESIAN_POINT('',(1.42900440526804,-1.27,1.57));
#697=DIRECTION('',(0.906307787039943,0.422618261733638,-0.));
#698=DIRECTION('',(-0.422618261733638,0.906307787039943,0.));
#699=FACE_BOUND('',#700,.T.);
#700=EDGE_LOOP('',(#1073,#1074,#1075,#1076));
#701=PLANE('',#702);
#702=AXIS2_PLACEMENT_3D('',#703,#704,#705);
#703=CARTESIAN_POINT('',(6.3251077025535,-1.27,1.57));
#704=DIRECTION('',(0.906307787036649,-0.4226182617407,0.));
#705=DIRECTION('',(0.422618261740701,0.90630778703665,0.));
#706=FACE_BOUND('',#707,.T.);
#707=EDGE_LOOP('',(#1077,#1078,#1079,#1080));
#708=PLANE('',#709);
#709=AXIS2_PLACEMENT_3D('',#710,#711,#712);
#710=CARTESIAN_POINT('',(6.465,0.97,1.57));
#711=DIRECTION('',(0.90630778703665,0.422618261740698,-0.));
#712=DIRECTION('',(-0.422618261740699,0.90630778703665,0.));
#713=FACE_BOUND('',#714,.T.);
#714=EDGE_LOOP('',(#1081,#1082,#1083,#1084));
#715=PLANE('',#716);
#716=AXIS2_PLACEMENT_3D('',#717,#718,#719);
#717=CARTESIAN_POINT('',(1.29718923361106,0.987321452147693,1.57));
#718=DIRECTION('',(0.906307787035268,-0.422618261743663,0.));
#719=DIRECTION('',(0.422618261743663,0.906307787035268,0.));
#720=FACE_BOUND('',#721,.T.);
#721=EDGE_LOOP('',(#1085,#1086,#1087,#1088));
#722=CYLINDRICAL_SURFACE('',#723,0.03);
#723=AXIS2_PLACEMENT_3D('',#724,#725,#726);
#724=CARTESIAN_POINT('',(1.27,1.,1.57));
#725=DIRECTION('',(0.,0.,1.));
#726=DIRECTION('',(-0.906307787035285,-0.422618261743626,0.));
#727=FACE_BOUND('',#728,.T.);
#728=EDGE_LOOP('',(#1089,#1090,#1091,#1092));
#729=PLANE('',#730);
#730=AXIS2_PLACEMENT_3D('',#731,#732,#733);
#731=CARTESIAN_POINT('',(1.11099559472815,1.27,1.57));
#732=DIRECTION('',(-0.906307787035266,-0.422618261743666,0.));
#733=DIRECTION('',(0.422618261743666,-0.906307787035267,0.));
#734=FACE_BOUND('',#735,.T.);
#735=EDGE_LOOP('',(#1093,#1094,#1095,#1096));
#736=PLANE('',#737);
#737=AXIS2_PLACEMENT_3D('',#738,#739,#740);
#738=CARTESIAN_POINT('',(6.3251077025535,1.27,1.57));
#739=DIRECTION('',(0.,1.,-0.));
#740=DIRECTION('',(-1.,0.,0.));
#741=FACE_BOUND('',#742,.T.);
#742=EDGE_LOOP('',(#1097,#1098,#1099,#1100));
#743=PLANE('',#744);
#744=AXIS2_PLACEMENT_3D('',#745,#746,#747);
#745=CARTESIAN_POINT('',(-1.2451077025535,1.27,1.57));
#746=DIRECTION('',(-0.90630778703665,0.422618261740699,0.));
#747=DIRECTION('',(-0.4226182617407,-0.90630778703665,0.));
#748=FACE_BOUND('',#749,.T.);
#749=EDGE_LOOP('',(#1101,#1102,#1103,#1104));
#750=PLANE('',#751);
#751=AXIS2_PLACEMENT_3D('',#752,#753,#754);
#752=CARTESIAN_POINT('',(-1.385,0.970000000000001,1.57));
#753=DIRECTION('',(-1.,2.28911963840238E-016,0.));
#754=DIRECTION('',(-2.28911963840238E-016,-1.,0.));
#755=FACE_BOUND('',#756,.T.);
#756=EDGE_LOOP('',(#1105,#1106,#1107,#1108));
#757=PLANE('',#758);
#758=AXIS2_PLACEMENT_3D('',#759,#760,#761);
#759=CARTESIAN_POINT('',(-1.385,-0.97,1.57));
#760=DIRECTION('',(-0.90630778703665,-0.422618261740699,0.));
#761=DIRECTION('',(0.422618261740699,-0.90630778703665,0.));
#762=FACE_BOUND('',#763,.T.);
#763=EDGE_LOOP('',(#1109,#1110,#1111,#1112));
#764=PLANE('',#765);
#765=AXIS2_PLACEMENT_3D('',#766,#767,#768);
#766=CARTESIAN_POINT('',(-1.2451077025535,-1.27,1.57));
#767=DIRECTION('',(0.,-1.,0.));
#768=DIRECTION('',(1.,0.,0.));
#769=FACE_BOUND('',#770,.T.);
#770=EDGE_LOOP('',(#1113,#1114,#1115,#1116));
#771=PLANE('',#772);
#772=AXIS2_PLACEMENT_3D('',#773,#774,#775);
#773=CARTESIAN_POINT('',(1.24281076638794,-0.987321452149846,1.57));
#774=DIRECTION('',(-0.906307787039943,0.422618261733637,0.));
#775=DIRECTION('',(-0.422618261733637,-0.906307787039943,0.));
#776=FACE_BOUND('',#777,.T.);
#777=EDGE_LOOP('',(#1117,#1118,#1119,#1120));
#778=CYLINDRICAL_SURFACE('',#779,0.03);
#779=AXIS2_PLACEMENT_3D('',#780,#781,#782);
#780=CARTESIAN_POINT('',(1.27,-1.,1.57));
#781=DIRECTION('',(0.,0.,1.));
#782=DIRECTION('',(0.906307786970437,0.422618261882694,0.));
#783=FACE_BOUND('',#784,.T.);
#784=EDGE_LOOP('',(#1121,#1122,#1123,#1124));
#785=PLANE('',#786);
#786=AXIS2_PLACEMENT_3D('',#787,#788,#789);
#787=CARTESIAN_POINT('',(6.465,-0.97,1.57));
#788=DIRECTION('',(1.,9.15647855360954E-016,-0.));
#789=DIRECTION('',(-9.15647855360954E-016,1.,0.));
#790=FACE_OUTER_BOUND('',#791,.T.);
#791=EDGE_LOOP('',(#1125));
#792=FACE_OUTER_BOUND('',#793,.T.);
#793=EDGE_LOOP('',(#1126));
#794=CYLINDRICAL_SURFACE('',#795,0.66);
#795=AXIS2_PLACEMENT_3D('',#796,#797,#798);
#796=CARTESIAN_POINT('',(0.,0.,0.));
#797=DIRECTION('',(0.,0.,1.));
#798=DIRECTION('',(1.,0.,0.));
#799=FACE_OUTER_BOUND('',#800,.T.);
#800=EDGE_LOOP('',(#1127));
#801=FACE_OUTER_BOUND('',#802,.T.);
#802=EDGE_LOOP('',(#1128));
#803=CYLINDRICAL_SURFACE('',#804,0.66);
#804=AXIS2_PLACEMENT_3D('',#805,#806,#807);
#805=CARTESIAN_POINT('',(5.08,0.,0.));
#806=DIRECTION('',(0.,0.,1.));
#807=DIRECTION('',(1.,0.,0.));
#808=FACE_OUTER_BOUND('',#809,.T.);
#809=EDGE_LOOP('',(#1129));
#810=FACE_OUTER_BOUND('',#811,.T.);
#811=EDGE_LOOP('',(#1130));
#812=CYLINDRICAL_SURFACE('',#813,0.66);
#813=AXIS2_PLACEMENT_3D('',#814,#815,#816);
#814=CARTESIAN_POINT('',(2.54,0.,0.));
#815=DIRECTION('',(0.,0.,1.));
#816=DIRECTION('',(1.,0.,0.));
#817=FACE_BOUND('',#818,.T.);
#818=EDGE_LOOP('',(#1131));
#819=PLANE('',#820);
#820=AXIS2_PLACEMENT_3D('',#821,#822,#823);
#821=CARTESIAN_POINT('',(0.,0.,-2.75));
#822=DIRECTION('',(-0.,-0.,-1.));
#823=DIRECTION('',(0.,-1.,0.));
#824=FACE_OUTER_BOUND('',#825,.T.);
#825=EDGE_LOOP('',(#1132));
#826=FACE_OUTER_BOUND('',#827,.T.);
#827=EDGE_LOOP('',(#1133));
#828=CONICAL_SURFACE('',#829,0.19125,0.785398163397449);
#829=AXIS2_PLACEMENT_3D('',#830,#831,#832);
#830=CARTESIAN_POINT('',(0.,0.,-2.68625));
#831=DIRECTION('',(0.,0.,1.));
#832=DIRECTION('',(-0.,1.,-0.));
#833=FACE_OUTER_BOUND('',#834,.T.);
#834=EDGE_LOOP('',(#1134));
#835=FACE_OUTER_BOUND('',#836,.T.);
#836=EDGE_LOOP('',(#1135));
#837=CYLINDRICAL_SURFACE('',#838,0.255);
#838=AXIS2_PLACEMENT_3D('',#839,#840,#841);
#839=CARTESIAN_POINT('',(0.,0.,0.));
#840=DIRECTION('',(-0.,-0.,-1.));
#841=DIRECTION('',(0.,-1.,0.));
#842=FACE_OUTER_BOUND('',#843,.T.);
#843=EDGE_LOOP('',(#1136));
#844=FACE_OUTER_BOUND('',#845,.T.);
#845=EDGE_LOOP('',(#1137));
#846=CONICAL_SURFACE('',#847,0.4575,0.959931087707183);
#847=AXIS2_PLACEMENT_3D('',#848,#849,#850);
#848=CARTESIAN_POINT('',(0.,0.,0.141792026755963));
#849=DIRECTION('',(0.,0.,1.));
#850=DIRECTION('',(-0.,1.,-0.));
#851=FACE_OUTER_BOUND('',#852,.T.);
#852=EDGE_LOOP('',(#1138));
#853=FACE_OUTER_BOUND('',#854,.T.);
#854=EDGE_LOOP('',(#1139));
#855=CYLINDRICAL_SURFACE('',#856,0.66);
#856=AXIS2_PLACEMENT_3D('',#857,#858,#859);
#857=CARTESIAN_POINT('',(0.,0.,1.79287838708181));
#858=DIRECTION('',(-0.,-0.,-1.));
#859=DIRECTION('',(0.,-1.,0.));
#860=FACE_OUTER_BOUND('',#861,.T.);
#861=EDGE_LOOP('',(#1140));
#862=FACE_OUTER_BOUND('',#863,.T.);
#863=EDGE_LOOP('',(#1141));
#864=CONICAL_SURFACE('',#865,0.735,0.349065850398867);
#865=AXIS2_PLACEMENT_3D('',#866,#867,#868);
#866=CARTESIAN_POINT('',(0.,0.,1.9989391935409));
#867=DIRECTION('',(0.,0.,1.));
#868=DIRECTION('',(-0.,1.,-0.));
#869=FACE_BOUND('',#870,.T.);
#870=EDGE_LOOP('',(#1142));
#871=FACE_BOUND('',#872,.T.);
#872=EDGE_LOOP('',(#1143));
#873=PLANE('',#874);
#874=AXIS2_PLACEMENT_3D('',#875,#876,#877);
#875=CARTESIAN_POINT('',(0.,0.,2.205));
#876=DIRECTION('',(0.,0.,1.));
#877=DIRECTION('',(0.,-1.,0.));
#878=FACE_OUTER_BOUND('',#879,.T.);
#879=EDGE_LOOP('',(#1144));
#880=FACE_OUTER_BOUND('',#881,.T.);
#881=EDGE_LOOP('',(#1145));
#882=CYLINDRICAL_SURFACE('',#883,0.66);
#883=AXIS2_PLACEMENT_3D('',#884,#885,#886);
#884=CARTESIAN_POINT('',(0.,0.,2.84));
#885=DIRECTION('',(-0.,-0.,-1.));
#886=DIRECTION('',(0.,-1.,0.));
#887=FACE_BOUND('',#888,.T.);
#888=EDGE_LOOP('',(#1146));
#889=FACE_BOUND('',#890,.T.);
#890=EDGE_LOOP('',(#1147));
#891=PLANE('',#892);
#892=AXIS2_PLACEMENT_3D('',#893,#894,#895);
#893=CARTESIAN_POINT('',(0.,0.,2.84));
#894=DIRECTION('',(-0.,-0.,-1.));
#895=DIRECTION('',(0.,-1.,0.));
#896=FACE_OUTER_BOUND('',#897,.T.);
#897=EDGE_LOOP('',(#1148));
#898=FACE_OUTER_BOUND('',#899,.T.);
#899=EDGE_LOOP('',(#1149));
#900=CYLINDRICAL_SURFACE('',#901,0.915);
#901=AXIS2_PLACEMENT_3D('',#902,#903,#904);
#902=CARTESIAN_POINT('',(0.,0.,3.35));
#903=DIRECTION('',(-0.,-0.,-1.));
#904=DIRECTION('',(0.,-1.,0.));
#905=FACE_BOUND('',#906,.T.);
#906=EDGE_LOOP('',(#1150));
#907=FACE_BOUND('',#908,.T.);
#908=EDGE_LOOP('',(#1151));
#909=PLANE('',#910);
#910=AXIS2_PLACEMENT_3D('',#911,#912,#913);
#911=CARTESIAN_POINT('',(0.,0.,3.35));
#912=DIRECTION('',(0.,0.,1.));
#913=DIRECTION('',(0.,-1.,0.));
#914=FACE_OUTER_BOUND('',#915,.T.);
#915=EDGE_LOOP('',(#1152));
#916=FACE_OUTER_BOUND('',#917,.T.);
#917=EDGE_LOOP('',(#1153));
#918=CONICAL_SURFACE('',#919,0.554595535433107,0.349065852124744);
#919=AXIS2_PLACEMENT_3D('',#920,#921,#922);
#920=CARTESIAN_POINT('',(0.,0.,3.2));
#921=DIRECTION('',(0.,0.,1.));
#922=DIRECTION('',(-0.,1.,-0.));
#923=FACE_OUTER_BOUND('',#924,.T.);
#924=EDGE_LOOP('',(#1154));
#925=FACE_OUTER_BOUND('',#926,.T.);
#926=EDGE_LOOP('',(#1155));
#927=CYLINDRICAL_SURFACE('',#928,0.5);
#928=AXIS2_PLACEMENT_3D('',#929,#930,#931);
#929=CARTESIAN_POINT('',(0.,0.,2.85));
#930=DIRECTION('',(-0.,-0.,-1.));
#931=DIRECTION('',(0.,-1.,0.));
#932=FACE_OUTER_BOUND('',#933,.T.);
#933=EDGE_LOOP('',(#1156));
#934=FACE_OUTER_BOUND('',#935,.T.);
#935=EDGE_LOOP('',(#1157));
#936=CONICAL_SURFACE('',#937,0.3625,0.225276779214055);
#937=AXIS2_PLACEMENT_3D('',#938,#939,#940);
#938=CARTESIAN_POINT('',(0.,0.,2.25));
#939=DIRECTION('',(0.,0.,1.));
#940=DIRECTION('',(-0.,1.,-0.));
#941=FACE_BOUND('',#942,.T.);
#942=EDGE_LOOP('',(#1158));
#943=FACE_BOUND('',#944,.T.);
#944=EDGE_LOOP('',(#1159));
#945=PLANE('',#946);
#946=AXIS2_PLACEMENT_3D('',#947,#948,#949);
#947=CARTESIAN_POINT('',(0.,0.,1.65));
#948=DIRECTION('',(-0.,-0.,-1.));
#949=DIRECTION('',(0.,-1.,0.));
#950=FACE_OUTER_BOUND('',#951,.T.);
#951=EDGE_LOOP('',(#1160));
#952=FACE_OUTER_BOUND('',#953,.T.);
#953=EDGE_LOOP('',(#1161));
#954=CYLINDRICAL_SURFACE('',#955,0.5);
#955=AXIS2_PLACEMENT_3D('',#956,#957,#958);
#956=CARTESIAN_POINT('',(0.,0.,0.45));
#957=DIRECTION('',(-0.,-0.,-1.));
#958=DIRECTION('',(0.,-1.,0.));
#959=FACE_OUTER_BOUND('',#960,.T.);
#960=EDGE_LOOP('',(#1162));
#961=FACE_OUTER_BOUND('',#962,.T.);
#962=EDGE_LOOP('',(#1163));
#963=CONICAL_SURFACE('',#964,0.265,0.959931088596881);
#964=AXIS2_PLACEMENT_3D('',#965,#966,#967);
#965=CARTESIAN_POINT('',(0.,0.,0.285451228520718));
#966=DIRECTION('',(0.,0.,1.));
#967=DIRECTION('',(-0.,1.,-0.));
#968=FACE_BOUND('',#969,.T.);
#969=EDGE_LOOP('',(#1164));
#970=PLANE('',#971);
#971=AXIS2_PLACEMENT_3D('',#972,#973,#974);
#972=CARTESIAN_POINT('',(0.,0.,0.120902457041437));
#973=DIRECTION('',(0.,0.,1.));
#974=DIRECTION('',(0.,-1.,0.));
#975=ORIENTED_EDGE('',*,*,#1165,.T.);
#976=ORIENTED_EDGE('',*,*,#1166,.F.);
#977=ORIENTED_EDGE('',*,*,#1167,.T.);
#978=ORIENTED_EDGE('',*,*,#1168,.T.);
#979=ORIENTED_EDGE('',*,*,#1169,.T.);
#980=ORIENTED_EDGE('',*,*,#1170,.T.);
#981=ORIENTED_EDGE('',*,*,#1171,.T.);
#982=ORIENTED_EDGE('',*,*,#1172,.F.);
#983=ORIENTED_EDGE('',*,*,#1173,.T.);
#984=ORIENTED_EDGE('',*,*,#1174,.F.);
#985=ORIENTED_EDGE('',*,*,#1175,.F.);
#986=ORIENTED_EDGE('',*,*,#1176,.T.);
#987=ORIENTED_EDGE('',*,*,#1177,.T.);
#988=ORIENTED_EDGE('',*,*,#1178,.T.);
#989=ORIENTED_EDGE('',*,*,#1179,.T.);
#990=ORIENTED_EDGE('',*,*,#1180,.F.);
#991=ORIENTED_EDGE('',*,*,#1181,.T.);
#992=ORIENTED_EDGE('',*,*,#1182,.T.);
#993=ORIENTED_EDGE('',*,*,#1183,.T.);
#994=ORIENTED_EDGE('',*,*,#1180,.T.);
#995=ORIENTED_EDGE('',*,*,#1184,.T.);
#996=ORIENTED_EDGE('',*,*,#1185,.T.);
#997=ORIENTED_EDGE('',*,*,#1186,.T.);
#998=ORIENTED_EDGE('',*,*,#1187,.T.);
#999=ORIENTED_EDGE('',*,*,#1188,.T.);
#1000=ORIENTED_EDGE('',*,*,#1189,.T.);
#1001=ORIENTED_EDGE('',*,*,#1190,.T.);
#1002=ORIENTED_EDGE('',*,*,#1191,.T.);
#1003=ORIENTED_EDGE('',*,*,#1192,.T.);
#1004=ORIENTED_EDGE('',*,*,#1193,.T.);
#1005=ORIENTED_EDGE('',*,*,#1194,.T.);
#1006=ORIENTED_EDGE('',*,*,#1166,.T.);
#1007=ORIENTED_EDGE('',*,*,#1195,.T.);
#1008=ORIENTED_EDGE('',*,*,#1196,.T.);
#1009=ORIENTED_EDGE('',*,*,#1197,.T.);
#1010=ORIENTED_EDGE('',*,*,#1172,.T.);
#1011=ORIENTED_EDGE('',*,*,#1198,.T.);
#1012=ORIENTED_EDGE('',*,*,#1199,.T.);
#1013=ORIENTED_EDGE('',*,*,#1200,.T.);
#1014=ORIENTED_EDGE('',*,*,#1174,.T.);
#1015=ORIENTED_EDGE('',*,*,#1201,.T.);
#1016=ORIENTED_EDGE('',*,*,#1202,.T.);
#1017=ORIENTED_EDGE('',*,*,#1203,.T.);
#1018=ORIENTED_EDGE('',*,*,#1204,.T.);
#1019=ORIENTED_EDGE('',*,*,#1176,.F.);
#1020=ORIENTED_EDGE('',*,*,#1205,.F.);
#1021=ORIENTED_EDGE('',*,*,#1206,.F.);
#1022=ORIENTED_EDGE('',*,*,#1207,.F.);
#1023=ORIENTED_EDGE('',*,*,#1170,.F.);
#1024=ORIENTED_EDGE('',*,*,#1208,.T.);
#1025=ORIENTED_EDGE('',*,*,#1209,.T.);
#1026=ORIENTED_EDGE('',*,*,#1210,.T.);
#1027=ORIENTED_EDGE('',*,*,#1168,.F.);
#1028=ORIENTED_EDGE('',*,*,#1211,.T.);
#1029=ORIENTED_EDGE('',*,*,#1212,.T.);
#1030=ORIENTED_EDGE('',*,*,#1213,.T.);
#1031=ORIENTED_EDGE('',*,*,#1214,.F.);
#1032=ORIENTED_EDGE('',*,*,#1215,.F.);
#1033=ORIENTED_EDGE('',*,*,#1216,.F.);
#1034=ORIENTED_EDGE('',*,*,#1217,.F.);
#1035=ORIENTED_EDGE('',*,*,#1218,.F.);
#1036=ORIENTED_EDGE('',*,*,#1219,.T.);
#1037=ORIENTED_EDGE('',*,*,#1220,.T.);
#1038=ORIENTED_EDGE('',*,*,#1221,.T.);
#1039=ORIENTED_EDGE('',*,*,#1178,.F.);
#1040=ORIENTED_EDGE('',*,*,#1222,.T.);
#1041=ORIENTED_EDGE('',*,*,#1223,.T.);
#1042=ORIENTED_EDGE('',*,*,#1224,.T.);
#1043=ORIENTED_EDGE('',*,*,#1225,.T.);
#1044=ORIENTED_EDGE('',*,*,#1226,.T.);
#1045=ORIENTED_EDGE('',*,*,#1208,.F.);
#1046=ORIENTED_EDGE('',*,*,#1169,.F.);
#1047=ORIENTED_EDGE('',*,*,#1197,.F.);
#1048=ORIENTED_EDGE('',*,*,#1227,.F.);
#1049=ORIENTED_EDGE('',*,*,#1210,.F.);
#1050=ORIENTED_EDGE('',*,*,#1228,.T.);
#1051=ORIENTED_EDGE('',*,*,#1195,.F.);
#1052=ORIENTED_EDGE('',*,*,#1165,.F.);
#1053=ORIENTED_EDGE('',*,*,#1209,.F.);
#1054=ORIENTED_EDGE('',*,*,#1227,.T.);
#1055=ORIENTED_EDGE('',*,*,#1196,.F.);
#1056=ORIENTED_EDGE('',*,*,#1228,.F.);
#1057=ORIENTED_EDGE('',*,*,#1223,.F.);
#1058=ORIENTED_EDGE('',*,*,#1229,.T.);
#1059=ORIENTED_EDGE('',*,*,#1182,.F.);
#1060=ORIENTED_EDGE('',*,*,#1230,.F.);
#1061=ORIENTED_EDGE('',*,*,#1222,.F.);
#1062=ORIENTED_EDGE('',*,*,#1177,.F.);
#1063=ORIENTED_EDGE('',*,*,#1183,.F.);
#1064=ORIENTED_EDGE('',*,*,#1229,.F.);
#1065=ORIENTED_EDGE('',*,*,#1204,.F.);
#1066=ORIENTED_EDGE('',*,*,#1230,.T.);
#1067=ORIENTED_EDGE('',*,*,#1181,.F.);
#1068=ORIENTED_EDGE('',*,*,#1173,.F.);
#1069=ORIENTED_EDGE('',*,*,#1211,.F.);
#1070=ORIENTED_EDGE('',*,*,#1167,.F.);
#1071=ORIENTED_EDGE('',*,*,#1194,.F.);
#1072=ORIENTED_EDGE('',*,*,#1231,.F.);
#1073=ORIENTED_EDGE('',*,*,#1207,.T.);
#1074=ORIENTED_EDGE('',*,*,#1232,.T.);
#1075=ORIENTED_EDGE('',*,*,#1198,.F.);
#1076=ORIENTED_EDGE('',*,*,#1171,.F.);
#1077=ORIENTED_EDGE('',*,*,#1205,.T.);
#1078=ORIENTED_EDGE('',*,*,#1175,.T.);
#1079=ORIENTED_EDGE('',*,*,#1200,.F.);
#1080=ORIENTED_EDGE('',*,*,#1233,.F.);
#1081=ORIENTED_EDGE('',*,*,#1221,.F.);
#1082=ORIENTED_EDGE('',*,*,#1234,.T.);
#1083=ORIENTED_EDGE('',*,*,#1184,.F.);
#1084=ORIENTED_EDGE('',*,*,#1179,.F.);
#1085=ORIENTED_EDGE('',*,*,#1220,.F.);
#1086=ORIENTED_EDGE('',*,*,#1235,.T.);
#1087=ORIENTED_EDGE('',*,*,#1185,.F.);
#1088=ORIENTED_EDGE('',*,*,#1234,.F.);
#1089=ORIENTED_EDGE('',*,*,#1219,.F.);
#1090=ORIENTED_EDGE('',*,*,#1236,.F.);
#1091=ORIENTED_EDGE('',*,*,#1186,.F.);
#1092=ORIENTED_EDGE('',*,*,#1235,.F.);
#1093=ORIENTED_EDGE('',*,*,#1236,.T.);
#1094=ORIENTED_EDGE('',*,*,#1218,.T.);
#1095=ORIENTED_EDGE('',*,*,#1237,.T.);
#1096=ORIENTED_EDGE('',*,*,#1187,.F.);
#1097=ORIENTED_EDGE('',*,*,#1217,.T.);
#1098=ORIENTED_EDGE('',*,*,#1238,.T.);
#1099=ORIENTED_EDGE('',*,*,#1188,.F.);
#1100=ORIENTED_EDGE('',*,*,#1237,.F.);
#1101=ORIENTED_EDGE('',*,*,#1216,.T.);
#1102=ORIENTED_EDGE('',*,*,#1239,.T.);
#1103=ORIENTED_EDGE('',*,*,#1189,.F.);
#1104=ORIENTED_EDGE('',*,*,#1238,.F.);
#1105=ORIENTED_EDGE('',*,*,#1215,.T.);
#1106=ORIENTED_EDGE('',*,*,#1240,.T.);
#1107=ORIENTED_EDGE('',*,*,#1190,.F.);
#1108=ORIENTED_EDGE('',*,*,#1239,.F.);
#1109=ORIENTED_EDGE('',*,*,#1241,.T.);
#1110=ORIENTED_EDGE('',*,*,#1191,.F.);
#1111=ORIENTED_EDGE('',*,*,#1240,.F.);
#1112=ORIENTED_EDGE('',*,*,#1214,.T.);
#1113=ORIENTED_EDGE('',*,*,#1213,.F.);
#1114=ORIENTED_EDGE('',*,*,#1242,.T.);
#1115=ORIENTED_EDGE('',*,*,#1192,.F.);
#1116=ORIENTED_EDGE('',*,*,#1241,.F.);
#1117=ORIENTED_EDGE('',*,*,#1212,.F.);
#1118=ORIENTED_EDGE('',*,*,#1231,.T.);
#1119=ORIENTED_EDGE('',*,*,#1193,.F.);
#1120=ORIENTED_EDGE('',*,*,#1242,.F.);
#1121=ORIENTED_EDGE('',*,*,#1206,.T.);
#1122=ORIENTED_EDGE('',*,*,#1233,.T.);
#1123=ORIENTED_EDGE('',*,*,#1199,.F.);
#1124=ORIENTED_EDGE('',*,*,#1232,.F.);
#1125=ORIENTED_EDGE('',*,*,#1201,.F.);
#1126=ORIENTED_EDGE('',*,*,#1224,.F.);
#1127=ORIENTED_EDGE('',*,*,#1202,.F.);
#1128=ORIENTED_EDGE('',*,*,#1225,.F.);
#1129=ORIENTED_EDGE('',*,*,#1203,.F.);
#1130=ORIENTED_EDGE('',*,*,#1226,.F.);
#1131=ORIENTED_EDGE('',*,*,#1243,.T.);
#1132=ORIENTED_EDGE('',*,*,#1243,.F.);
#1133=ORIENTED_EDGE('',*,*,#1244,.T.);
#1134=ORIENTED_EDGE('',*,*,#1245,.T.);
#1135=ORIENTED_EDGE('',*,*,#1244,.F.);
#1136=ORIENTED_EDGE('',*,*,#1245,.F.);
#1137=ORIENTED_EDGE('',*,*,#1246,.T.);
#1138=ORIENTED_EDGE('',*,*,#1247,.T.);
#1139=ORIENTED_EDGE('',*,*,#1246,.F.);
#1140=ORIENTED_EDGE('',*,*,#1247,.F.);
#1141=ORIENTED_EDGE('',*,*,#1248,.T.);
#1142=ORIENTED_EDGE('',*,*,#1248,.F.);
#1143=ORIENTED_EDGE('',*,*,#1249,.T.);
#1144=ORIENTED_EDGE('',*,*,#1250,.T.);
#1145=ORIENTED_EDGE('',*,*,#1249,.F.);
#1146=ORIENTED_EDGE('',*,*,#1251,.T.);
#1147=ORIENTED_EDGE('',*,*,#1250,.F.);
#1148=ORIENTED_EDGE('',*,*,#1252,.T.);
#1149=ORIENTED_EDGE('',*,*,#1251,.F.);
#1150=ORIENTED_EDGE('',*,*,#1252,.F.);
#1151=ORIENTED_EDGE('',*,*,#1253,.T.);
#1152=ORIENTED_EDGE('',*,*,#1254,.T.);
#1153=ORIENTED_EDGE('',*,*,#1253,.F.);
#1154=ORIENTED_EDGE('',*,*,#1254,.F.);
#1155=ORIENTED_EDGE('',*,*,#1255,.T.);
#1156=ORIENTED_EDGE('',*,*,#1256,.T.);
#1157=ORIENTED_EDGE('',*,*,#1255,.F.);
#1158=ORIENTED_EDGE('',*,*,#1257,.T.);
#1159=ORIENTED_EDGE('',*,*,#1256,.F.);
#1160=ORIENTED_EDGE('',*,*,#1257,.F.);
#1161=ORIENTED_EDGE('',*,*,#1258,.T.);
#1162=ORIENTED_EDGE('',*,*,#1259,.T.);
#1163=ORIENTED_EDGE('',*,*,#1258,.F.);
#1164=ORIENTED_EDGE('',*,*,#1259,.F.);
#1165=EDGE_CURVE('',#1260,#1261,#1262,.F.);
#1166=EDGE_CURVE('',#1263,#1261,#1264,.T.);
#1167=EDGE_CURVE('',#1263,#1265,#1266,.F.);
#1168=EDGE_CURVE('',#1265,#1260,#1267,.T.);
#1169=EDGE_CURVE('',#1268,#1269,#1270,.F.);
#1170=EDGE_CURVE('',#1269,#1271,#1272,.T.);
#1171=EDGE_CURVE('',#1271,#1273,#1274,.T.);
#1172=EDGE_CURVE('',#1268,#1273,#1275,.T.);
#1173=EDGE_CURVE('',#1276,#1277,#1278,.F.);
#1174=EDGE_CURVE('',#1279,#1277,#1280,.T.);
#1175=EDGE_CURVE('',#1281,#1279,#1282,.T.);
#1176=EDGE_CURVE('',#1281,#1276,#1283,.T.);
#1177=EDGE_CURVE('',#1284,#1285,#1286,.F.);
#1178=EDGE_CURVE('',#1285,#1287,#1288,.T.);
#1179=EDGE_CURVE('',#1287,#1289,#1290,.F.);
#1180=EDGE_CURVE('',#1284,#1289,#1291,.T.);
#1181=EDGE_CURVE('',#1277,#1292,#1293,.F.);
#1182=EDGE_CURVE('',#1292,#1294,#1295,.F.);
#1183=EDGE_CURVE('',#1294,#1284,#1296,.F.);
#1184=EDGE_CURVE('',#1289,#1297,#1298,.F.);
#1185=EDGE_CURVE('',#1297,#1299,#1300,.F.);
#1186=EDGE_CURVE('',#1299,#1301,#1302,.F.);
#1187=EDGE_CURVE('',#1301,#1303,#1304,.T.);
#1188=EDGE_CURVE('',#1303,#1305,#1306,.T.);
#1189=EDGE_CURVE('',#1305,#1307,#1308,.T.);
#1190=EDGE_CURVE('',#1307,#1309,#1310,.T.);
#1191=EDGE_CURVE('',#1309,#1311,#1312,.T.);
#1192=EDGE_CURVE('',#1311,#1313,#1314,.F.);
#1193=EDGE_CURVE('',#1313,#1315,#1316,.F.);
#1194=EDGE_CURVE('',#1315,#1263,#1317,.F.);
#1195=EDGE_CURVE('',#1261,#1318,#1319,.F.);
#1196=EDGE_CURVE('',#1318,#1320,#1321,.F.);
#1197=EDGE_CURVE('',#1320,#1268,#1322,.F.);
#1198=EDGE_CURVE('',#1273,#1323,#1324,.T.);
#1199=EDGE_CURVE('',#1323,#1325,#1326,.T.);
#1200=EDGE_CURVE('',#1325,#1279,#1327,.T.);
#1201=EDGE_CURVE('',#1328,#1328,#1329,.F.);
#1202=EDGE_CURVE('',#1330,#1330,#1331,.F.);
#1203=EDGE_CURVE('',#1332,#1332,#1333,.F.);
#1204=EDGE_CURVE('',#1334,#1276,#1335,.T.);
#1205=EDGE_CURVE('',#1336,#1281,#1337,.T.);
#1206=EDGE_CURVE('',#1338,#1336,#1339,.T.);
#1207=EDGE_CURVE('',#1271,#1338,#1340,.T.);
#1208=EDGE_CURVE('',#1269,#1341,#1342,.T.);
#1209=EDGE_CURVE('',#1341,#1343,#1344,.T.);
#1210=EDGE_CURVE('',#1343,#1260,#1345,.T.);
#1211=EDGE_CURVE('',#1265,#1346,#1347,.T.);
#1212=EDGE_CURVE('',#1346,#1348,#1349,.T.);
#1213=EDGE_CURVE('',#1348,#1350,#1351,.T.);
#1214=EDGE_CURVE('',#1352,#1350,#1353,.T.);
#1215=EDGE_CURVE('',#1354,#1352,#1355,.T.);
#1216=EDGE_CURVE('',#1356,#1354,#1357,.T.);
#1217=EDGE_CURVE('',#1358,#1356,#1359,.T.);
#1218=EDGE_CURVE('',#1360,#1358,#1361,.T.);
#1219=EDGE_CURVE('',#1360,#1362,#1363,.T.);
#1220=EDGE_CURVE('',#1362,#1364,#1365,.T.);
#1221=EDGE_CURVE('',#1364,#1287,#1366,.T.);
#1222=EDGE_CURVE('',#1285,#1367,#1368,.T.);
#1223=EDGE_CURVE('',#1367,#1334,#1369,.T.);
#1224=EDGE_CURVE('',#1370,#1370,#1371,.T.);
#1225=EDGE_CURVE('',#1372,#1372,#1373,.T.);
#1226=EDGE_CURVE('',#1374,#1374,#1375,.T.);
#1227=EDGE_CURVE('',#1341,#1320,#1376,.T.);
#1228=EDGE_CURVE('',#1343,#1318,#1377,.T.);
#1229=EDGE_CURVE('',#1367,#1294,#1378,.T.);
#1230=EDGE_CURVE('',#1334,#1292,#1379,.T.);
#1231=EDGE_CURVE('',#1346,#1315,#1380,.T.);
#1232=EDGE_CURVE('',#1338,#1323,#1381,.T.);
#1233=EDGE_CURVE('',#1336,#1325,#1382,.T.);
#1234=EDGE_CURVE('',#1364,#1297,#1383,.T.);
#1235=EDGE_CURVE('',#1362,#1299,#1384,.T.);
#1236=EDGE_CURVE('',#1301,#1360,#1385,.F.);
#1237=EDGE_CURVE('',#1358,#1303,#1386,.T.);
#1238=EDGE_CURVE('',#1356,#1305,#1387,.T.);
#1239=EDGE_CURVE('',#1354,#1307,#1388,.T.);
#1240=EDGE_CURVE('',#1352,#1309,#1389,.T.);
#1241=EDGE_CURVE('',#1350,#1311,#1390,.F.);
#1242=EDGE_CURVE('',#1348,#1313,#1391,.T.);
#1243=EDGE_CURVE('',#1392,#1392,#1393,.T.);
#1244=EDGE_CURVE('',#1394,#1394,#1395,.T.);
#1245=EDGE_CURVE('',#1396,#1396,#1397,.T.);
#1246=EDGE_CURVE('',#1398,#1398,#1399,.T.);
#1247=EDGE_CURVE('',#1400,#1400,#1401,.T.);
#1248=EDGE_CURVE('',#1402,#1402,#1403,.T.);
#1249=EDGE_CURVE('',#1404,#1404,#1405,.T.);
#1250=EDGE_CURVE('',#1406,#1406,#1407,.T.);
#1251=EDGE_CURVE('',#1408,#1408,#1409,.T.);
#1252=EDGE_CURVE('',#1410,#1410,#1411,.T.);
#1253=EDGE_CURVE('',#1412,#1412,#1413,.T.);
#1254=EDGE_CURVE('',#1414,#1414,#1415,.T.);
#1255=EDGE_CURVE('',#1416,#1416,#1417,.T.);
#1256=EDGE_CURVE('',#1418,#1418,#1419,.T.);
#1257=EDGE_CURVE('',#1420,#1420,#1421,.T.);
#1258=EDGE_CURVE('',#1422,#1422,#1423,.T.);
#1259=EDGE_CURVE('',#1424,#1424,#1425,.T.);
#1260=VERTEX_POINT('',#1426);
#1261=VERTEX_POINT('',#1427);
#1262=LINE('',#1428,#1429);
#1263=VERTEX_POINT('',#1431);
#1264=LINE('',#1432,#1433);
#1265=VERTEX_POINT('',#1435);
#1266=LINE('',#1436,#1437);
#1267=LINE('',#1439,#1440);
#1268=VERTEX_POINT('',#1442);
#1269=VERTEX_POINT('',#1443);
#1270=LINE('',#1444,#1445);
#1271=VERTEX_POINT('',#1447);
#1272=LINE('',#1448,#1449);
#1273=VERTEX_POINT('',#1451);
#1274=LINE('',#1452,#1453);
#1275=LINE('',#1455,#1456);
#1276=VERTEX_POINT('',#1458);
#1277=VERTEX_POINT('',#1459);
#1278=LINE('',#1460,#1461);
#1279=VERTEX_POINT('',#1463);
#1280=LINE('',#1464,#1465);
#1281=VERTEX_POINT('',#1467);
#1282=LINE('',#1468,#1469);
#1283=LINE('',#1471,#1472);
#1284=VERTEX_POINT('',#1474);
#1285=VERTEX_POINT('',#1475);
#1286=LINE('',#1476,#1477);
#1287=VERTEX_POINT('',#1479);
#1288=LINE('',#1480,#1481);
#1289=VERTEX_POINT('',#1483);
#1290=LINE('',#1484,#1485);
#1291=LINE('',#1487,#1488);
#1292=VERTEX_POINT('',#1490);
#1293=LINE('',#1491,#1492);
#1294=VERTEX_POINT('',#1494);
#1295=CIRCLE('',#1495,0.03);
#1296=LINE('',#1499,#1500);
#1297=VERTEX_POINT('',#1502);
#1298=LINE('',#1503,#1504);
#1299=VERTEX_POINT('',#1506);
#1300=CIRCLE('',#1507,0.03);
#1301=VERTEX_POINT('',#1511);
#1302=LINE('',#1512,#1513);
#1303=VERTEX_POINT('',#1515);
#1304=LINE('',#1516,#1517);
#1305=VERTEX_POINT('',#1519);
#1306=LINE('',#1520,#1521);
#1307=VERTEX_POINT('',#1523);
#1308=LINE('',#1524,#1525);
#1309=VERTEX_POINT('',#1527);
#1310=LINE('',#1528,#1529);
#1311=VERTEX_POINT('',#1531);
#1312=LINE('',#1532,#1533);
#1313=VERTEX_POINT('',#1535);
#1314=LINE('',#1536,#1537);
#1315=VERTEX_POINT('',#1539);
#1316=CIRCLE('',#1540,0.03);
#1317=LINE('',#1544,#1545);
#1318=VERTEX_POINT('',#1547);
#1319=LINE('',#1548,#1549);
#1320=VERTEX_POINT('',#1551);
#1321=CIRCLE('',#1552,0.03);
#1322=LINE('',#1556,#1557);
#1323=VERTEX_POINT('',#1559);
#1324=LINE('',#1560,#1561);
#1325=VERTEX_POINT('',#1563);
#1326=LINE('',#1564,#1565);
#1327=LINE('',#1567,#1568);
#1328=VERTEX_POINT('',#1570);
#1329=CIRCLE('',#1571,0.66);
#1330=VERTEX_POINT('',#1575);
#1331=CIRCLE('',#1576,0.66);
#1332=VERTEX_POINT('',#1580);
#1333=CIRCLE('',#1581,0.66);
#1334=VERTEX_POINT('',#1585);
#1335=LINE('',#1586,#1587);
#1336=VERTEX_POINT('',#1589);
#1337=LINE('',#1590,#1591);
#1338=VERTEX_POINT('',#1593);
#1339=LINE('',#1594,#1595);
#1340=LINE('',#1597,#1598);
#1341=VERTEX_POINT('',#1600);
#1342=LINE('',#1601,#1602);
#1343=VERTEX_POINT('',#1604);
#1344=CIRCLE('',#1605,0.03);
#1345=LINE('',#1609,#1610);
#1346=VERTEX_POINT('',#1612);
#1347=LINE('',#1613,#1614);
#1348=VERTEX_POINT('',#1616);
#1349=CIRCLE('',#1617,0.03);
#1350=VERTEX_POINT('',#1621);
#1351=LINE('',#1622,#1623);
#1352=VERTEX_POINT('',#1625);
#1353=LINE('',#1626,#1627);
#1354=VERTEX_POINT('',#1629);
#1355=LINE('',#1630,#1631);
#1356=VERTEX_POINT('',#1633);
#1357=LINE('',#1634,#1635);
#1358=VERTEX_POINT('',#1637);
#1359=LINE('',#1638,#1639);
#1360=VERTEX_POINT('',#1641);
#1361=LINE('',#1642,#1643);
#1362=VERTEX_POINT('',#1645);
#1363=LINE('',#1646,#1647);
#1364=VERTEX_POINT('',#1649);
#1365=CIRCLE('',#1650,0.03);
#1366=LINE('',#1654,#1655);
#1367=VERTEX_POINT('',#1657);
#1368=LINE('',#1658,#1659);
#1369=CIRCLE('',#1661,0.03);
#1370=VERTEX_POINT('',#1665);
#1371=CIRCLE('',#1666,0.66);
#1372=VERTEX_POINT('',#1670);
#1373=CIRCLE('',#1671,0.66);
#1374=VERTEX_POINT('',#1675);
#1375=CIRCLE('',#1676,0.66);
#1376=LINE('',#1680,#1681);
#1377=LINE('',#1683,#1684);
#1378=LINE('',#1686,#1687);
#1379=LINE('',#1689,#1690);
#1380=LINE('',#1692,#1693);
#1381=LINE('',#1695,#1696);
#1382=LINE('',#1698,#1699);
#1383=LINE('',#1701,#1702);
#1384=LINE('',#1704,#1705);
#1385=LINE('',#1707,#1708);
#1386=LINE('',#1710,#1711);
#1387=LINE('',#1713,#1714);
#1388=LINE('',#1716,#1717);
#1389=LINE('',#1719,#1720);
#1390=LINE('',#1722,#1723);
#1391=LINE('',#1725,#1726);
#1392=VERTEX_POINT('',#1728);
#1393=CIRCLE('',#1729,0.1275);
#1394=VERTEX_POINT('',#1733);
#1395=CIRCLE('',#1734,0.255);
#1396=VERTEX_POINT('',#1738);
#1397=CIRCLE('',#1739,0.255);
#1398=VERTEX_POINT('',#1743);
#1399=CIRCLE('',#1744,0.66);
#1400=VERTEX_POINT('',#1748);
#1401=CIRCLE('',#1749,0.66);
#1402=VERTEX_POINT('',#1753);
#1403=CIRCLE('',#1754,0.810000000000001);
#1404=VERTEX_POINT('',#1758);
#1405=CIRCLE('',#1759,0.659999999999999);
#1406=VERTEX_POINT('',#1763);
#1407=CIRCLE('',#1764,0.66);
#1408=VERTEX_POINT('',#1768);
#1409=CIRCLE('',#1769,0.915);
#1410=VERTEX_POINT('',#1773);
#1411=CIRCLE('',#1774,0.915);
#1412=VERTEX_POINT('',#1778);
#1413=CIRCLE('',#1779,0.609191070866214);
#1414=VERTEX_POINT('',#1783);
#1415=CIRCLE('',#1784,0.5);
#1416=VERTEX_POINT('',#1788);
#1417=CIRCLE('',#1789,0.5);
#1418=VERTEX_POINT('',#1793);
#1419=CIRCLE('',#1794,0.225);
#1420=VERTEX_POINT('',#1798);
#1421=CIRCLE('',#1799,0.5);
#1422=VERTEX_POINT('',#1803);
#1423=CIRCLE('',#1804,0.5);
#1424=VERTEX_POINT('',#1808);
#1425=CIRCLE('',#1809,0.03);
#1426=CARTESIAN_POINT('',(3.65099559473196,-1.27,1.57));
#1427=CARTESIAN_POINT('',(3.65099559473196,-1.27,2.84));
#1428=CARTESIAN_POINT('',(3.65099559473196,-1.27,2.84));
#1429=VECTOR('',#1430,1.);
#1430=DIRECTION('',(0.,0.,-1.));
#1431=CARTESIAN_POINT('',(1.42900440526804,-1.27,2.84));
#1432=CARTESIAN_POINT('',(1.42900440526804,-1.27,2.84));
#1433=VECTOR('',#1434,1.);
#1434=DIRECTION('',(1.,0.,0.));
#1435=CARTESIAN_POINT('',(1.42900440526804,-1.27,1.57));
#1436=CARTESIAN_POINT('',(1.42900440526804,-1.27,1.57));
#1437=VECTOR('',#1438,1.);
#1438=DIRECTION('',(0.,0.,1.));
#1439=CARTESIAN_POINT('',(1.42900440526804,-1.27,1.57));
#1440=VECTOR('',#1441,1.);
#1441=DIRECTION('',(1.,0.,0.));
#1442=CARTESIAN_POINT('',(3.96900440526804,-1.27,2.84));
#1443=CARTESIAN_POINT('',(3.96900440526804,-1.27,1.57));
#1444=CARTESIAN_POINT('',(3.96900440526804,-1.27,1.57));
#1445=VECTOR('',#1446,1.);
#1446=DIRECTION('',(0.,0.,1.));
#1447=CARTESIAN_POINT('',(6.3251077025535,-1.27,1.57));
#1448=CARTESIAN_POINT('',(3.96900440526804,-1.27,1.57));
#1449=VECTOR('',#1450,1.);
#1450=DIRECTION('',(1.,0.,0.));
#1451=CARTESIAN_POINT('',(6.3251077025535,-1.27,2.84));
#1452=CARTESIAN_POINT('',(6.3251077025535,-1.27,1.57));
#1453=VECTOR('',#1454,1.);
#1454=DIRECTION('',(0.,0.,1.));
#1455=CARTESIAN_POINT('',(3.96900440526804,-1.27,2.84));
#1456=VECTOR('',#1457,1.);
#1457=DIRECTION('',(1.,0.,-1.88484609465855E-016));
#1458=CARTESIAN_POINT('',(3.96900440527185,1.27,1.57));
#1459=CARTESIAN_POINT('',(3.96900440527185,1.27,2.84));
#1460=CARTESIAN_POINT('',(3.96900440527185,1.27,2.84));
#1461=VECTOR('',#1462,1.);
#1462=DIRECTION('',(0.,0.,-1.));
#1463=CARTESIAN_POINT('',(6.3251077025535,1.27,2.84));
#1464=CARTESIAN_POINT('',(6.3251077025535,1.27,2.84));
#1465=VECTOR('',#1466,1.);
#1466=DIRECTION('',(-1.,0.,1.8848460946616E-016));
#1467=CARTESIAN_POINT('',(6.3251077025535,1.27,1.57));
#1468=CARTESIAN_POINT('',(6.3251077025535,1.27,1.57));
#1469=VECTOR('',#1470,1.);
#1470=DIRECTION('',(0.,0.,1.));
#1471=CARTESIAN_POINT('',(6.3251077025535,1.27,1.57));
#1472=VECTOR('',#1473,1.);
#1473=DIRECTION('',(-1.,0.,0.));
#1474=CARTESIAN_POINT('',(3.65099559472815,1.27,2.84));
#1475=CARTESIAN_POINT('',(3.65099559472815,1.27,1.57));
#1476=CARTESIAN_POINT('',(3.65099559472815,1.27,1.57));
#1477=VECTOR('',#1478,1.);
#1478=DIRECTION('',(0.,0.,1.));
#1479=CARTESIAN_POINT('',(1.42900440527185,1.27,1.57));
#1480=CARTESIAN_POINT('',(3.65099559472815,1.27,1.57));
#1481=VECTOR('',#1482,1.);
#1482=DIRECTION('',(-1.,0.,0.));
#1483=CARTESIAN_POINT('',(1.42900440527185,1.27,2.84));
#1484=CARTESIAN_POINT('',(1.42900440527185,1.27,2.84));
#1485=VECTOR('',#1486,1.);
#1486=DIRECTION('',(0.,0.,-1.));
#1487=CARTESIAN_POINT('',(3.65099559472815,1.27,2.84));
#1488=VECTOR('',#1489,1.);
#1489=DIRECTION('',(-1.,0.,-1.99860922922348E-016));
#1490=CARTESIAN_POINT('',(3.83718923361106,0.987321452147693,2.84));
#1491=CARTESIAN_POINT('',(3.83718923361106,0.987321452147693,2.84));
#1492=VECTOR('',#1493,1.);
#1493=DIRECTION('',(0.422618261743663,0.906307787035268,0.));
#1494=CARTESIAN_POINT('',(3.78281076638894,0.987321452147693,2.84));
#1495=AXIS2_PLACEMENT_3D('',#1496,#1497,#1498);
#1496=CARTESIAN_POINT('',(3.81,1.,2.84));
#1497=DIRECTION('',(-0.,0.,1.));
#1498=DIRECTION('',(-0.906307787035284,-0.422618261743629,0.));
#1499=CARTESIAN_POINT('',(3.65099559472815,1.27,2.84));
#1500=VECTOR('',#1501,1.);
#1501=DIRECTION('',(0.422618261743666,-0.906307787035267,0.));
#1502=CARTESIAN_POINT('',(1.29718923361106,0.987321452147693,2.84));
#1503=CARTESIAN_POINT('',(1.29718923361106,0.987321452147693,2.84));
#1504=VECTOR('',#1505,1.);
#1505=DIRECTION('',(0.422618261743663,0.906307787035268,0.));
#1506=CARTESIAN_POINT('',(1.24281076638894,0.987321452147693,2.84));
#1507=AXIS2_PLACEMENT_3D('',#1508,#1509,#1510);
#1508=CARTESIAN_POINT('',(1.27,1.,2.84));
#1509=DIRECTION('',(-0.,0.,1.));
#1510=DIRECTION('',(-0.906307787035285,-0.422618261743626,0.));
#1511=CARTESIAN_POINT('',(1.11099559472815,1.27,2.84));
#1512=CARTESIAN_POINT('',(1.11099559472815,1.27,2.84));
#1513=VECTOR('',#1514,1.);
#1514=DIRECTION('',(0.422618261743666,-0.906307787035267,0.));
#1515=CARTESIAN_POINT('',(-1.2451077025535,1.27,2.84));
#1516=CARTESIAN_POINT('',(1.11099559472815,1.27,2.84));
#1517=VECTOR('',#1518,1.);
#1518=DIRECTION('',(-1.,0.,0.));
#1519=CARTESIAN_POINT('',(-1.385,0.970000000000001,2.84));
#1520=CARTESIAN_POINT('',(-1.2451077025535,1.27,2.84));
#1521=VECTOR('',#1522,1.);
#1522=DIRECTION('',(-0.4226182617407,-0.90630778703665,0.));
#1523=CARTESIAN_POINT('',(-1.385,-0.97,2.84));
#1524=CARTESIAN_POINT('',(-1.385,0.970000000000001,2.84));
#1525=VECTOR('',#1526,1.);
#1526=DIRECTION('',(-2.28911963840238E-016,-1.,0.));
#1527=CARTESIAN_POINT('',(-1.2451077025535,-1.27,2.84));
#1528=CARTESIAN_POINT('',(-1.385,-0.97,2.84));
#1529=VECTOR('',#1530,1.);
#1530=DIRECTION('',(0.422618261740699,-0.90630778703665,0.));
#1531=CARTESIAN_POINT('',(1.11099559473196,-1.27,2.84));
#1532=CARTESIAN_POINT('',(-1.2451077025535,-1.27,2.84));
#1533=VECTOR('',#1534,1.);
#1534=DIRECTION('',(1.,0.,0.));
#1535=CARTESIAN_POINT('',(1.24281076638794,-0.987321452149846,2.84));
#1536=CARTESIAN_POINT('',(1.24281076638794,-0.987321452149846,2.84));
#1537=VECTOR('',#1538,1.);
#1538=DIRECTION('',(-0.422618261733637,-0.906307787039943,0.));
#1539=CARTESIAN_POINT('',(1.29718923360911,-0.987321452143519,2.84));
#1540=AXIS2_PLACEMENT_3D('',#1541,#1542,#1543);
#1541=CARTESIAN_POINT('',(1.27,-1.,2.84));
#1542=DIRECTION('',(0.,-0.,1.));
#1543=DIRECTION('',(0.906307786970437,0.422618261882694,0.));
#1544=CARTESIAN_POINT('',(1.42900440526804,-1.27,2.84));
#1545=VECTOR('',#1546,1.);
#1546=DIRECTION('',(-0.422618261733638,0.906307787039943,0.));
#1547=CARTESIAN_POINT('',(3.78281076638794,-0.987321452149846,2.84));
#1548=CARTESIAN_POINT('',(3.78281076638794,-0.987321452149846,2.84));
#1549=VECTOR('',#1550,1.);
#1550=DIRECTION('',(-0.422618261733638,-0.906307787039943,0.));
#1551=CARTESIAN_POINT('',(3.83718923360911,-0.987321452143519,2.84));
#1552=AXIS2_PLACEMENT_3D('',#1553,#1554,#1555);
#1553=CARTESIAN_POINT('',(3.81,-1.,2.84));
#1554=DIRECTION('',(0.,-0.,1.));
#1555=DIRECTION('',(0.906307786970438,0.422618261882691,0.));
#1556=CARTESIAN_POINT('',(3.96900440526804,-1.27,2.84));
#1557=VECTOR('',#1558,1.);
#1558=DIRECTION('',(-0.422618261733638,0.906307787039943,0.));
#1559=CARTESIAN_POINT('',(6.465,-0.97,2.84));
#1560=CARTESIAN_POINT('',(6.3251077025535,-1.27,2.84));
#1561=VECTOR('',#1562,1.);
#1562=DIRECTION('',(0.4226182617407,0.906307787036649,0.));
#1563=CARTESIAN_POINT('',(6.465,0.97,2.84));
#1564=CARTESIAN_POINT('',(6.465,-0.97,2.84));
#1565=VECTOR('',#1566,1.);
#1566=DIRECTION('',(-9.15647855360954E-016,1.,0.));
#1567=CARTESIAN_POINT('',(6.465,0.97,2.84));
#1568=VECTOR('',#1569,1.);
#1569=DIRECTION('',(-0.422618261740699,0.90630778703665,0.));
#1570=CARTESIAN_POINT('',(0.66,-8.08266887437253E-017,2.84));
#1571=AXIS2_PLACEMENT_3D('',#1572,#1573,#1574);
#1572=CARTESIAN_POINT('',(0.,0.,2.84));
#1573=DIRECTION('',(0.,0.,1.));
#1574=DIRECTION('',(1.,0.,0.));
#1575=CARTESIAN_POINT('',(5.74,-8.08266887437253E-017,2.84));
#1576=AXIS2_PLACEMENT_3D('',#1577,#1578,#1579);
#1577=CARTESIAN_POINT('',(5.08,0.,2.84));
#1578=DIRECTION('',(0.,0.,1.));
#1579=DIRECTION('',(1.,0.,0.));
#1580=CARTESIAN_POINT('',(3.2,-8.08266887437253E-017,2.84));
#1581=AXIS2_PLACEMENT_3D('',#1582,#1583,#1584);
#1582=CARTESIAN_POINT('',(2.54,0.,2.84));
#1583=DIRECTION('',(0.,0.,1.));
#1584=DIRECTION('',(1.,0.,0.));
#1585=CARTESIAN_POINT('',(3.83718923361106,0.987321452147693,1.57));
#1586=CARTESIAN_POINT('',(3.83718923361106,0.987321452147693,1.57));
#1587=VECTOR('',#1588,1.);
#1588=DIRECTION('',(0.422618261743663,0.906307787035268,0.));
#1589=CARTESIAN_POINT('',(6.465,0.97,1.57));
#1590=CARTESIAN_POINT('',(6.465,0.97,1.57));
#1591=VECTOR('',#1592,1.);
#1592=DIRECTION('',(-0.422618261740699,0.90630778703665,0.));
#1593=CARTESIAN_POINT('',(6.465,-0.97,1.57));
#1594=CARTESIAN_POINT('',(6.465,-0.97,1.57));
#1595=VECTOR('',#1596,1.);
#1596=DIRECTION('',(-9.15647855360954E-016,1.,0.));
#1597=CARTESIAN_POINT('',(6.3251077025535,-1.27,1.57));
#1598=VECTOR('',#1599,1.);
#1599=DIRECTION('',(0.4226182617407,0.906307787036649,0.));
#1600=CARTESIAN_POINT('',(3.83718923360911,-0.987321452143519,1.57));
#1601=CARTESIAN_POINT('',(3.96900440526804,-1.27,1.57));
#1602=VECTOR('',#1603,1.);
#1603=DIRECTION('',(-0.422618261733638,0.906307787039943,0.));
#1604=CARTESIAN_POINT('',(3.78281076638794,-0.987321452149846,1.57));
#1605=AXIS2_PLACEMENT_3D('',#1606,#1607,#1608);
#1606=CARTESIAN_POINT('',(3.81,-1.,1.57));
#1607=DIRECTION('',(0.,-0.,1.));
#1608=DIRECTION('',(0.906307786970438,0.422618261882691,0.));
#1609=CARTESIAN_POINT('',(3.78281076638794,-0.987321452149846,1.57));
#1610=VECTOR('',#1611,1.);
#1611=DIRECTION('',(-0.422618261733638,-0.906307787039943,0.));
#1612=CARTESIAN_POINT('',(1.29718923360911,-0.987321452143519,1.57));
#1613=CARTESIAN_POINT('',(1.42900440526804,-1.27,1.57));
#1614=VECTOR('',#1615,1.);
#1615=DIRECTION('',(-0.422618261733638,0.906307787039943,0.));
#1616=CARTESIAN_POINT('',(1.24281076638794,-0.987321452149846,1.57));
#1617=AXIS2_PLACEMENT_3D('',#1618,#1619,#1620);
#1618=CARTESIAN_POINT('',(1.27,-1.,1.57));
#1619=DIRECTION('',(0.,-0.,1.));
#1620=DIRECTION('',(0.906307786970437,0.422618261882694,0.));
#1621=CARTESIAN_POINT('',(1.11099559473196,-1.27,1.57));
#1622=CARTESIAN_POINT('',(1.24281076638794,-0.987321452149846,1.57));
#1623=VECTOR('',#1624,1.);
#1624=DIRECTION('',(-0.422618261733637,-0.906307787039943,0.));
#1625=CARTESIAN_POINT('',(-1.2451077025535,-1.27,1.57));
#1626=CARTESIAN_POINT('',(-1.2451077025535,-1.27,1.57));
#1627=VECTOR('',#1628,1.);
#1628=DIRECTION('',(1.,0.,0.));
#1629=CARTESIAN_POINT('',(-1.385,-0.97,1.57));
#1630=CARTESIAN_POINT('',(-1.385,-0.97,1.57));
#1631=VECTOR('',#1632,1.);
#1632=DIRECTION('',(0.422618261740699,-0.90630778703665,0.));
#1633=CARTESIAN_POINT('',(-1.385,0.970000000000001,1.57));
#1634=CARTESIAN_POINT('',(-1.385,0.970000000000001,1.57));
#1635=VECTOR('',#1636,1.);
#1636=DIRECTION('',(-2.28911963840238E-016,-1.,0.));
#1637=CARTESIAN_POINT('',(-1.2451077025535,1.27,1.57));
#1638=CARTESIAN_POINT('',(-1.2451077025535,1.27,1.57));
#1639=VECTOR('',#1640,1.);
#1640=DIRECTION('',(-0.4226182617407,-0.90630778703665,0.));
#1641=CARTESIAN_POINT('',(1.11099559472815,1.27,1.57));
#1642=CARTESIAN_POINT('',(1.11099559472815,1.27,1.57));
#1643=VECTOR('',#1644,1.);
#1644=DIRECTION('',(-1.,0.,0.));
#1645=CARTESIAN_POINT('',(1.24281076638894,0.987321452147693,1.57));
#1646=CARTESIAN_POINT('',(1.11099559472815,1.27,1.57));
#1647=VECTOR('',#1648,1.);
#1648=DIRECTION('',(0.422618261743666,-0.906307787035267,0.));
#1649=CARTESIAN_POINT('',(1.29718923361106,0.987321452147693,1.57));
#1650=AXIS2_PLACEMENT_3D('',#1651,#1652,#1653);
#1651=CARTESIAN_POINT('',(1.27,1.,1.57));
#1652=DIRECTION('',(-0.,0.,1.));
#1653=DIRECTION('',(-0.906307787035285,-0.422618261743626,0.));
#1654=CARTESIAN_POINT('',(1.29718923361106,0.987321452147693,1.57));
#1655=VECTOR('',#1656,1.);
#1656=DIRECTION('',(0.422618261743663,0.906307787035268,0.));
#1657=CARTESIAN_POINT('',(3.78281076638894,0.987321452147693,1.57));
#1658=CARTESIAN_POINT('',(3.65099559472815,1.27,1.57));
#1659=VECTOR('',#1660,1.);
#1660=DIRECTION('',(0.422618261743666,-0.906307787035267,0.));
#1661=AXIS2_PLACEMENT_3D('',#1662,#1663,#1664);
#1662=CARTESIAN_POINT('',(3.81,1.,1.57));
#1663=DIRECTION('',(-0.,0.,1.));
#1664=DIRECTION('',(-0.906307787035284,-0.422618261743629,0.));
#1665=CARTESIAN_POINT('',(0.66,-8.08266887437253E-017,1.57));
#1666=AXIS2_PLACEMENT_3D('',#1667,#1668,#1669);
#1667=CARTESIAN_POINT('',(0.,0.,1.57));
#1668=DIRECTION('',(0.,0.,1.));
#1669=DIRECTION('',(1.,0.,0.));
#1670=CARTESIAN_POINT('',(5.74,-8.08266887437253E-017,1.57));
#1671=AXIS2_PLACEMENT_3D('',#1672,#1673,#1674);
#1672=CARTESIAN_POINT('',(5.08,0.,1.57));
#1673=DIRECTION('',(0.,0.,1.));
#1674=DIRECTION('',(1.,0.,0.));
#1675=CARTESIAN_POINT('',(3.2,-8.08266887437253E-017,1.57));
#1676=AXIS2_PLACEMENT_3D('',#1677,#1678,#1679);
#1677=CARTESIAN_POINT('',(2.54,0.,1.57));
#1678=DIRECTION('',(0.,0.,1.));
#1679=DIRECTION('',(1.,0.,0.));
#1680=CARTESIAN_POINT('',(3.83718923360911,-0.987321452143519,1.57));
#1681=VECTOR('',#1682,1.);
#1682=DIRECTION('',(0.,0.,1.));
#1683=CARTESIAN_POINT('',(3.78281076638794,-0.987321452149846,1.57));
#1684=VECTOR('',#1685,1.);
#1685=DIRECTION('',(0.,0.,1.));
#1686=CARTESIAN_POINT('',(3.78281076638894,0.987321452147694,1.57));
#1687=VECTOR('',#1688,1.);
#1688=DIRECTION('',(0.,0.,1.));
#1689=CARTESIAN_POINT('',(3.83718923361106,0.987321452147693,1.57));
#1690=VECTOR('',#1691,1.);
#1691=DIRECTION('',(0.,0.,1.));
#1692=CARTESIAN_POINT('',(1.29718923360911,-0.987321452143519,1.57));
#1693=VECTOR('',#1694,1.);
#1694=DIRECTION('',(0.,0.,1.));
#1695=CARTESIAN_POINT('',(6.465,-0.97,1.57));
#1696=VECTOR('',#1697,1.);
#1697=DIRECTION('',(0.,0.,1.));
#1698=CARTESIAN_POINT('',(6.465,0.97,1.57));
#1699=VECTOR('',#1700,1.);
#1700=DIRECTION('',(0.,0.,1.));
#1701=CARTESIAN_POINT('',(1.29718923361106,0.987321452147693,1.57));
#1702=VECTOR('',#1703,1.);
#1703=DIRECTION('',(0.,0.,1.));
#1704=CARTESIAN_POINT('',(1.24281076638894,0.987321452147694,1.57));
#1705=VECTOR('',#1706,1.);
#1706=DIRECTION('',(0.,0.,1.));
#1707=CARTESIAN_POINT('',(1.11099559472815,1.27,1.57));
#1708=VECTOR('',#1709,1.);
#1709=DIRECTION('',(0.,0.,1.));
#1710=CARTESIAN_POINT('',(-1.2451077025535,1.27,1.57));
#1711=VECTOR('',#1712,1.);
#1712=DIRECTION('',(0.,0.,1.));
#1713=CARTESIAN_POINT('',(-1.385,0.970000000000001,1.57));
#1714=VECTOR('',#1715,1.);
#1715=DIRECTION('',(0.,0.,1.));
#1716=CARTESIAN_POINT('',(-1.385,-0.97,1.57));
#1717=VECTOR('',#1718,1.);
#1718=DIRECTION('',(0.,0.,1.));
#1719=CARTESIAN_POINT('',(-1.2451077025535,-1.27,1.57));
#1720=VECTOR('',#1721,1.);
#1721=DIRECTION('',(0.,0.,1.));
#1722=CARTESIAN_POINT('',(1.11099559473196,-1.27,2.84));
#1723=VECTOR('',#1724,1.);
#1724=DIRECTION('',(0.,0.,-1.));
#1725=CARTESIAN_POINT('',(1.24281076638794,-0.987321452149846,1.57));
#1726=VECTOR('',#1727,1.);
#1727=DIRECTION('',(0.,0.,1.));
#1728=CARTESIAN_POINT('',(0.,-0.1275,-2.75));
#1729=AXIS2_PLACEMENT_3D('',#1730,#1731,#1732);
#1730=CARTESIAN_POINT('',(0.,0.,-2.75));
#1731=DIRECTION('',(-0.,-0.,-1.));
#1732=DIRECTION('',(0.,-1.,0.));
#1733=CARTESIAN_POINT('',(0.,-0.255,-2.6225));
#1734=AXIS2_PLACEMENT_3D('',#1735,#1736,#1737);
#1735=CARTESIAN_POINT('',(0.,0.,-2.6225));
#1736=DIRECTION('',(-0.,-0.,-1.));
#1737=DIRECTION('',(0.,-1.,0.));
#1738=CARTESIAN_POINT('',(0.,-0.255,-1.56142466891288E-017));
#1739=AXIS2_PLACEMENT_3D('',#1740,#1741,#1742);
#1740=CARTESIAN_POINT('',(0.,0.,0.));
#1741=DIRECTION('',(-0.,-0.,-1.));
#1742=DIRECTION('',(0.,-1.,0.));
#1743=CARTESIAN_POINT('',(0.,-0.66,0.283584053511925));
#1744=AXIS2_PLACEMENT_3D('',#1745,#1746,#1747);
#1745=CARTESIAN_POINT('',(0.,0.,0.283584053511925));
#1746=DIRECTION('',(-0.,-0.,-1.));
#1747=DIRECTION('',(0.,-1.,0.));
#1748=CARTESIAN_POINT('',(0.,-0.66,1.79287838708181));
#1749=AXIS2_PLACEMENT_3D('',#1750,#1751,#1752);
#1750=CARTESIAN_POINT('',(0.,0.,1.79287838708181));
#1751=DIRECTION('',(-0.,-0.,-1.));
#1752=DIRECTION('',(0.,-1.,0.));
#1753=CARTESIAN_POINT('',(0.,-0.810000000000001,2.205));
#1754=AXIS2_PLACEMENT_3D('',#1755,#1756,#1757);
#1755=CARTESIAN_POINT('',(0.,0.,2.205));
#1756=DIRECTION('',(-0.,-0.,-1.));
#1757=DIRECTION('',(0.,-1.,0.));
#1758=CARTESIAN_POINT('',(0.,-0.659999999999999,2.205));
#1759=AXIS2_PLACEMENT_3D('',#1760,#1761,#1762);
#1760=CARTESIAN_POINT('',(0.,0.,2.205));
#1761=DIRECTION('',(-0.,-0.,-1.));
#1762=DIRECTION('',(0.,-1.,0.));
#1763=CARTESIAN_POINT('',(0.,-0.66,2.84));
#1764=AXIS2_PLACEMENT_3D('',#1765,#1766,#1767);
#1765=CARTESIAN_POINT('',(0.,0.,2.84));
#1766=DIRECTION('',(-0.,-0.,-1.));
#1767=DIRECTION('',(0.,-1.,0.));
#1768=CARTESIAN_POINT('',(0.,-0.915,2.84));
#1769=AXIS2_PLACEMENT_3D('',#1770,#1771,#1772);
#1770=CARTESIAN_POINT('',(0.,0.,2.84));
#1771=DIRECTION('',(-0.,-0.,-1.));
#1772=DIRECTION('',(0.,-1.,0.));
#1773=CARTESIAN_POINT('',(0.,-0.915,3.35));
#1774=AXIS2_PLACEMENT_3D('',#1775,#1776,#1777);
#1775=CARTESIAN_POINT('',(0.,0.,3.35));
#1776=DIRECTION('',(-0.,-0.,-1.));
#1777=DIRECTION('',(0.,-1.,0.));
#1778=CARTESIAN_POINT('',(0.,-0.609191070866214,3.35));
#1779=AXIS2_PLACEMENT_3D('',#1780,#1781,#1782);
#1780=CARTESIAN_POINT('',(0.,0.,3.35));
#1781=DIRECTION('',(-0.,-0.,-1.));
#1782=DIRECTION('',(0.,-1.,0.));
#1783=CARTESIAN_POINT('',(0.,-0.5,3.05));
#1784=AXIS2_PLACEMENT_3D('',#1785,#1786,#1787);
#1785=CARTESIAN_POINT('',(0.,0.,3.05));
#1786=DIRECTION('',(0.,-0.,-1.));
#1787=DIRECTION('',(0.,-1.,0.));
#1788=CARTESIAN_POINT('',(0.,-0.5,2.85));
#1789=AXIS2_PLACEMENT_3D('',#1790,#1791,#1792);
#1790=CARTESIAN_POINT('',(0.,0.,2.85));
#1791=DIRECTION('',(0.,-0.,-1.));
#1792=DIRECTION('',(0.,-1.,0.));
#1793=CARTESIAN_POINT('',(0.,-0.225,1.65));
#1794=AXIS2_PLACEMENT_3D('',#1795,#1796,#1797);
#1795=CARTESIAN_POINT('',(0.,0.,1.65));
#1796=DIRECTION('',(-0.,-0.,-1.));
#1797=DIRECTION('',(0.,-1.,0.));
#1798=CARTESIAN_POINT('',(0.,-0.5,1.65));
#1799=AXIS2_PLACEMENT_3D('',#1800,#1801,#1802);
#1800=CARTESIAN_POINT('',(0.,0.,1.65));
#1801=DIRECTION('',(-0.,-0.,-1.));
#1802=DIRECTION('',(0.,-1.,0.));
#1803=CARTESIAN_POINT('',(0.,-0.5,0.45));
#1804=AXIS2_PLACEMENT_3D('',#1805,#1806,#1807);
#1805=CARTESIAN_POINT('',(0.,0.,0.45));
#1806=DIRECTION('',(0.,-0.,-1.));
#1807=DIRECTION('',(0.,-1.,0.));
#1808=CARTESIAN_POINT('',(0.,-0.03,0.120902457041437));
#1809=AXIS2_PLACEMENT_3D('',#1810,#1811,#1812);
#1810=CARTESIAN_POINT('',(0.,0.,0.120902457041437));
#1811=DIRECTION('',(-0.,-0.,-1.));
#1812=DIRECTION('',(0.,-1.,0.));
ENDSEC;
END-ISO-10303-21;
