ISO-10303-21;
HEADER;
FILE_DESCRIPTION(('STEP AP214'),
    '1');
FILE_NAME('SL-105-TT-12',
    '2020-03-30T23:14:41',
    ('AF'),
    (''),
    'UNSPECIFIED',
    'UNSPECIFIED',
    '');
/*Based on Samtec Inc. SL, SDL series datasheet*/
FILE_SCHEMA(('AUTOMOTIVE_DESIGN { 1 0 10303 214 3 1 1}'));
ENDSEC;

DATA;
#1=SHAPE_REPRESENTATION('NONE',(#2,#58),#6);
#2=AXIS2_PLACEMENT_3D('',#3,#4,#5);
#3=CARTESIAN_POINT('',(0.,0.,0.));
#4=DIRECTION('',(0.,0.,1.));
#5=DIRECTION('',(1.,0.,0.));
#6=(GEOMETRIC_REPRESENTATION_CONTEXT(3)GLOBAL_UNCERTAINTY_ASSIGNED_CONTEXT((#8))
GLOBAL_UNIT_ASSIGNED_CONTEXT((#7,#9,#10))REPRESENTATION_CONTEXT('NONE','NONE'));
#7=(LENGTH_UNIT()NAMED_UNIT(*)SI_UNIT(.MILLI.,.METRE.));
#8=UNCERTAINTY_MEASURE_WITH_UNIT(LENGTH_MEASURE(1.E-005),#7,'NONE','NONE');
#9=(NAMED_UNIT(*)PLANE_ANGLE_UNIT()SI_UNIT($,.RADIAN.));
#10=(NAMED_UNIT(*)SI_UNIT($,.STERADIAN.)SOLID_ANGLE_UNIT());
#11=SHAPE_DEFINITION_REPRESENTATION(#12,#1);
#12=PRODUCT_DEFINITION_SHAPE('NONE','NONE',#13);
#13=PRODUCT_DEFINITION('','UNSPECIFIED',#14,#22);
#14=PRODUCT_DEFINITION_FORMATION_WITH_SPECIFIED_SOURCE('ANY','UNSPECIFIED',#15,.NOT_KNOWN.);
#15=PRODUCT('','SL-101-TT-12','Based on Samtec Inc. SL, SDL series datasheet',(#25));
#16=PERSON('UNSPECIFIED','AF','UNSPECIFIED',('UNSPECIFIED'),('UNSPECIFIED'),
('UNSPECIFIED'));
#17=ORGANIZATION('UNSPECIFIED','UNSPECIFIED','UNSPECIFIED');
#18=PERSON_AND_ORGANIZATION(#16,#17);
#19=PERSON_AND_ORGANIZATION_ROLE('design_owner');
#20=CC_DESIGN_PERSON_AND_ORGANIZATION_ASSIGNMENT(#18,#19,(#15));
#21=PRODUCT_RELATED_PRODUCT_CATEGORY('assembly','',(#15));
#22=DESIGN_CONTEXT('detailed design',#23,'design');
#23=APPLICATION_CONTEXT('configuration controlled 3d designs of mechanical parts and assemblies');
#24=APPLICATION_PROTOCOL_DEFINITION('international standard','automotive_design',
2011,#23);
#25=PRODUCT_CONTEXT('NONE',#23,'mechanical');
#26=CC_DESIGN_DATE_AND_TIME_ASSIGNMENT(#27,#31,(#13));
#27=DATE_AND_TIME(#28,#29);
#28=CALENDAR_DATE(0,1,1);
#29=LOCAL_TIME(0,0,0.,#30);
#30=COORDINATED_UNIVERSAL_TIME_OFFSET(0,0,.AHEAD.);
#31=DATE_TIME_ROLE('creation_date');
#32=CC_DESIGN_APPROVAL(#33,(#13));
#33=APPROVAL(#34,'UNSPECIFIED');
#34=APPROVAL_STATUS('not_yet_approved');
#35=APPROVAL_DATE_TIME(#36,#33);
#36=DATE_AND_TIME(#37,#38);
#37=CALENDAR_DATE(0,1,1);
#38=LOCAL_TIME(0,0,0.,#39);
#39=COORDINATED_UNIVERSAL_TIME_OFFSET(0,0,.AHEAD.);
#40=DERIVED_UNIT((#44,#41));
#41=DERIVED_UNIT_ELEMENT(#42,-1.);
#42=VOLUME_UNIT(#43);
#43=DIMENSIONAL_EXPONENTS(3.,0.,0.,0.,0.,0.,0.);
#44=(DERIVED_UNIT_ELEMENT($,-1.)NAMED_UNIT($)MASS_UNIT()SI_UNIT($,.GRAM.));
#45=MANIFOLD_SOLID_BREP('',#46);
#46=CLOSED_SHELL('',(#121,#130,#139,#148,#157,#166,#175,#184,#193,#202,#211));
#47=COLOUR_RGB($,0.156862745098039,0.156862745098039,0.156862745098039);
#48=FILL_AREA_STYLE_COLOUR($,#47);
#49=FILL_AREA_STYLE($,(#48));
#50=SURFACE_STYLE_FILL_AREA(#49);
#51=SURFACE_SIDE_STYLE('',(#50));
#52=SURFACE_STYLE_USAGE(.BOTH.,#51);
#53=PRESENTATION_STYLE_ASSIGNMENT((#52));
#54=MECHANICAL_DESIGN_GEOMETRIC_PRESENTATION_REPRESENTATION('NONE',(#55,#96,#129,
#138,#147,#156,#165,#174,#183,#192,#201,#210,#219,#228,#237,#246,#255,#264,#273,
#282,#291,#300,#309,#318,#327,#336,#345,#354,#363,#372,#381,#390,#399),#6);
#55=STYLED_ITEM('',(#53),#45);
#56=ADVANCED_BREP_SHAPE_REPRESENTATION('NONE',(#45),#6);
#57=SHAPE_REPRESENTATION_RELATIONSHIP('','',#1,#56);
#58=AXIS2_PLACEMENT_3D('',#59,#60,#61);
#59=CARTESIAN_POINT('',(0.,0.,0.));
#60=DIRECTION('',(0.,0.,1.));
#61=DIRECTION('',(1.,0.,0.));
#62=SHAPE_REPRESENTATION('NONE',(#2),#6);
#63=SHAPE_DEFINITION_REPRESENTATION(#64,#62);
#64=PRODUCT_DEFINITION_SHAPE('NONE','NONE',#65);
#65=PRODUCT_DEFINITION('','UNSPECIFIED',#66,#69);
#66=PRODUCT_DEFINITION_FORMATION_WITH_SPECIFIED_SOURCE('ANY','UNSPECIFIED',#67,.NOT_KNOWN.);
#67=PRODUCT('','SxL-1xx-TT-12-pin','Based on Samtec Inc. SL, SDL series datasheet',
(#72));
#68=PRODUCT_RELATED_PRODUCT_CATEGORY('detail','',(#67));
#69=DESIGN_CONTEXT('detailed design',#70,'design');
#70=APPLICATION_CONTEXT('configuration controlled 3d designs of mechanical parts and assemblies');
#71=APPLICATION_PROTOCOL_DEFINITION('international standard','automotive_design',
2011,#70);
#72=PRODUCT_CONTEXT('NONE',#70,'mechanical');
#73=CC_DESIGN_DATE_AND_TIME_ASSIGNMENT(#74,#78,(#65));
#74=DATE_AND_TIME(#75,#76);
#75=CALENDAR_DATE(0,1,1);
#76=LOCAL_TIME(0,0,0.,#77);
#77=COORDINATED_UNIVERSAL_TIME_OFFSET(0,0,.AHEAD.);
#78=DATE_TIME_ROLE('creation_date');
#79=CC_DESIGN_APPROVAL(#80,(#65));
#80=APPROVAL(#81,'UNSPECIFIED');
#81=APPROVAL_STATUS('not_yet_approved');
#82=APPROVAL_DATE_TIME(#83,#80);
#83=DATE_AND_TIME(#84,#85);
#84=CALENDAR_DATE(0,1,1);
#85=LOCAL_TIME(0,0,0.,#86);
#86=COORDINATED_UNIVERSAL_TIME_OFFSET(0,0,.AHEAD.);
#87=MANIFOLD_SOLID_BREP('',#88);
#88=CLOSED_SHELL('',(#220,#229,#238,#247,#256,#265,#274,#283,#292,#301,#310,#319,
#328,#337,#346,#355,#364,#373,#382,#391));
#89=COLOUR_RGB($,0.827450980392157,0.831372549019608,0.835294117647059);
#90=FILL_AREA_STYLE_COLOUR($,#89);
#91=FILL_AREA_STYLE($,(#90));
#92=SURFACE_STYLE_FILL_AREA(#91);
#93=SURFACE_SIDE_STYLE('',(#92));
#94=SURFACE_STYLE_USAGE(.BOTH.,#93);
#95=PRESENTATION_STYLE_ASSIGNMENT((#94));
#96=STYLED_ITEM('',(#95),#87);
#97=ADVANCED_BREP_SHAPE_REPRESENTATION('NONE',(#87),#6);
#98=SHAPE_REPRESENTATION_RELATIONSHIP('','',#62,#97);
#99=ITEM_DEFINED_TRANSFORMATION('','',#2,#58);
#100=(REPRESENTATION_RELATIONSHIP('','',#62,#1)REPRESENTATION_RELATIONSHIP_WITH_TRANSFORMATION(
#99)SHAPE_REPRESENTATION_RELATIONSHIP());
#101=NEXT_ASSEMBLY_USAGE_OCCURRENCE('1','','',#13,#65,$);
#102=CC_DESIGN_SECURITY_CLASSIFICATION(#103,(#101));
#103=SECURITY_CLASSIFICATION('','',#104);
#104=SECURITY_CLASSIFICATION_LEVEL('unclassified');
#105=CC_DESIGN_DATE_AND_TIME_ASSIGNMENT(#106,#110,(#103));
#106=DATE_AND_TIME(#107,#108);
#107=CALENDAR_DATE(0,1,1);
#108=LOCAL_TIME(0,0,0.,#109);
#109=COORDINATED_UNIVERSAL_TIME_OFFSET(0,0,.AHEAD.);
#110=DATE_TIME_ROLE('classification_date');
#111=CC_DESIGN_APPROVAL(#112,(#103));
#112=APPROVAL(#113,'UNSPECIFIED');
#113=APPROVAL_STATUS('not_yet_approved');
#114=APPROVAL_DATE_TIME(#115,#112);
#115=DATE_AND_TIME(#116,#117);
#116=CALENDAR_DATE(0,1,1);
#117=LOCAL_TIME(0,0,0.,#118);
#118=COORDINATED_UNIVERSAL_TIME_OFFSET(0,0,.AHEAD.);
#119=PRODUCT_DEFINITION_SHAPE('NONE','NONE',#101);
#120=CONTEXT_DEPENDENT_SHAPE_REPRESENTATION(#100,#119);
#121=ADVANCED_FACE('',(#400,#402),#404,.F.);
#122=COLOUR_RGB($,0.156862745098039,0.156862745098039,0.156862745098039);
#123=FILL_AREA_STYLE_COLOUR($,#122);
#124=FILL_AREA_STYLE($,(#123));
#125=SURFACE_STYLE_FILL_AREA(#124);
#126=SURFACE_SIDE_STYLE('',(#125));
#127=SURFACE_STYLE_USAGE(.BOTH.,#126);
#128=PRESENTATION_STYLE_ASSIGNMENT((#127));
#129=STYLED_ITEM('',(#128),#121);
#130=ADVANCED_FACE('',(#409,#411),#413,.T.);
#131=COLOUR_RGB($,0.156862745098039,0.156862745098039,0.156862745098039);
#132=FILL_AREA_STYLE_COLOUR($,#131);
#133=FILL_AREA_STYLE($,(#132));
#134=SURFACE_STYLE_FILL_AREA(#133);
#135=SURFACE_SIDE_STYLE('',(#134));
#136=SURFACE_STYLE_USAGE(.BOTH.,#135);
#137=PRESENTATION_STYLE_ASSIGNMENT((#136));
#138=STYLED_ITEM('',(#137),#130);
#139=ADVANCED_FACE('',(#418,#420),#422,.F.);
#140=COLOUR_RGB($,0.156862745098039,0.156862745098039,0.156862745098039);
#141=FILL_AREA_STYLE_COLOUR($,#140);
#142=FILL_AREA_STYLE($,(#141));
#143=SURFACE_STYLE_FILL_AREA(#142);
#144=SURFACE_SIDE_STYLE('',(#143));
#145=SURFACE_STYLE_USAGE(.BOTH.,#144);
#146=PRESENTATION_STYLE_ASSIGNMENT((#145));
#147=STYLED_ITEM('',(#146),#139);
#148=ADVANCED_FACE('',(#427),#429,.T.);
#149=COLOUR_RGB($,0.156862745098039,0.156862745098039,0.156862745098039);
#150=FILL_AREA_STYLE_COLOUR($,#149);
#151=FILL_AREA_STYLE($,(#150));
#152=SURFACE_STYLE_FILL_AREA(#151);
#153=SURFACE_SIDE_STYLE('',(#152));
#154=SURFACE_STYLE_USAGE(.BOTH.,#153);
#155=PRESENTATION_STYLE_ASSIGNMENT((#154));
#156=STYLED_ITEM('',(#155),#148);
#157=ADVANCED_FACE('',(#434),#436,.T.);
#158=COLOUR_RGB($,0.156862745098039,0.156862745098039,0.156862745098039);
#159=FILL_AREA_STYLE_COLOUR($,#158);
#160=FILL_AREA_STYLE($,(#159));
#161=SURFACE_STYLE_FILL_AREA(#160);
#162=SURFACE_SIDE_STYLE('',(#161));
#163=SURFACE_STYLE_USAGE(.BOTH.,#162);
#164=PRESENTATION_STYLE_ASSIGNMENT((#163));
#165=STYLED_ITEM('',(#164),#157);
#166=ADVANCED_FACE('',(#441),#443,.T.);
#167=COLOUR_RGB($,0.156862745098039,0.156862745098039,0.156862745098039);
#168=FILL_AREA_STYLE_COLOUR($,#167);
#169=FILL_AREA_STYLE($,(#168));
#170=SURFACE_STYLE_FILL_AREA(#169);
#171=SURFACE_SIDE_STYLE('',(#170));
#172=SURFACE_STYLE_USAGE(.BOTH.,#171);
#173=PRESENTATION_STYLE_ASSIGNMENT((#172));
#174=STYLED_ITEM('',(#173),#166);
#175=ADVANCED_FACE('',(#448),#450,.T.);
#176=COLOUR_RGB($,0.156862745098039,0.156862745098039,0.156862745098039);
#177=FILL_AREA_STYLE_COLOUR($,#176);
#178=FILL_AREA_STYLE($,(#177));
#179=SURFACE_STYLE_FILL_AREA(#178);
#180=SURFACE_SIDE_STYLE('',(#179));
#181=SURFACE_STYLE_USAGE(.BOTH.,#180);
#182=PRESENTATION_STYLE_ASSIGNMENT((#181));
#183=STYLED_ITEM('',(#182),#175);
#184=ADVANCED_FACE('',(#455),#457,.T.);
#185=COLOUR_RGB($,0.156862745098039,0.156862745098039,0.156862745098039);
#186=FILL_AREA_STYLE_COLOUR($,#185);
#187=FILL_AREA_STYLE($,(#186));
#188=SURFACE_STYLE_FILL_AREA(#187);
#189=SURFACE_SIDE_STYLE('',(#188));
#190=SURFACE_STYLE_USAGE(.BOTH.,#189);
#191=PRESENTATION_STYLE_ASSIGNMENT((#190));
#192=STYLED_ITEM('',(#191),#184);
#193=ADVANCED_FACE('',(#462),#464,.T.);
#194=COLOUR_RGB($,0.156862745098039,0.156862745098039,0.156862745098039);
#195=FILL_AREA_STYLE_COLOUR($,#194);
#196=FILL_AREA_STYLE($,(#195));
#197=SURFACE_STYLE_FILL_AREA(#196);
#198=SURFACE_SIDE_STYLE('',(#197));
#199=SURFACE_STYLE_USAGE(.BOTH.,#198);
#200=PRESENTATION_STYLE_ASSIGNMENT((#199));
#201=STYLED_ITEM('',(#200),#193);
#202=ADVANCED_FACE('',(#469),#471,.T.);
#203=COLOUR_RGB($,0.156862745098039,0.156862745098039,0.156862745098039);
#204=FILL_AREA_STYLE_COLOUR($,#203);
#205=FILL_AREA_STYLE($,(#204));
#206=SURFACE_STYLE_FILL_AREA(#205);
#207=SURFACE_SIDE_STYLE('',(#206));
#208=SURFACE_STYLE_USAGE(.BOTH.,#207);
#209=PRESENTATION_STYLE_ASSIGNMENT((#208));
#210=STYLED_ITEM('',(#209),#202);
#211=ADVANCED_FACE('',(#476),#478,.T.);
#212=COLOUR_RGB($,0.156862745098039,0.156862745098039,0.156862745098039);
#213=FILL_AREA_STYLE_COLOUR($,#212);
#214=FILL_AREA_STYLE($,(#213));
#215=SURFACE_STYLE_FILL_AREA(#214);
#216=SURFACE_SIDE_STYLE('',(#215));
#217=SURFACE_STYLE_USAGE(.BOTH.,#216);
#218=PRESENTATION_STYLE_ASSIGNMENT((#217));
#219=STYLED_ITEM('',(#218),#211);
#220=ADVANCED_FACE('',(#483),#485,.T.);
#221=COLOUR_RGB($,0.827450980392157,0.831372549019608,0.835294117647059);
#222=FILL_AREA_STYLE_COLOUR($,#221);
#223=FILL_AREA_STYLE($,(#222));
#224=SURFACE_STYLE_FILL_AREA(#223);
#225=SURFACE_SIDE_STYLE('',(#224));
#226=SURFACE_STYLE_USAGE(.BOTH.,#225);
#227=PRESENTATION_STYLE_ASSIGNMENT((#226));
#228=STYLED_ITEM('',(#227),#220);
#229=ADVANCED_FACE('',(#490,#492),#494,.T.);
#230=COLOUR_RGB($,0.827450980392157,0.831372549019608,0.835294117647059);
#231=FILL_AREA_STYLE_COLOUR($,#230);
#232=FILL_AREA_STYLE($,(#231));
#233=SURFACE_STYLE_FILL_AREA(#232);
#234=SURFACE_SIDE_STYLE('',(#233));
#235=SURFACE_STYLE_USAGE(.BOTH.,#234);
#236=PRESENTATION_STYLE_ASSIGNMENT((#235));
#237=STYLED_ITEM('',(#236),#229);
#238=ADVANCED_FACE('',(#499,#501),#503,.T.);
#239=COLOUR_RGB($,0.827450980392157,0.831372549019608,0.835294117647059);
#240=FILL_AREA_STYLE_COLOUR($,#239);
#241=FILL_AREA_STYLE($,(#240));
#242=SURFACE_STYLE_FILL_AREA(#241);
#243=SURFACE_SIDE_STYLE('',(#242));
#244=SURFACE_STYLE_USAGE(.BOTH.,#243);
#245=PRESENTATION_STYLE_ASSIGNMENT((#244));
#246=STYLED_ITEM('',(#245),#238);
#247=ADVANCED_FACE('',(#508,#510),#512,.T.);
#248=COLOUR_RGB($,0.827450980392157,0.831372549019608,0.835294117647059);
#249=FILL_AREA_STYLE_COLOUR($,#248);
#250=FILL_AREA_STYLE($,(#249));
#251=SURFACE_STYLE_FILL_AREA(#250);
#252=SURFACE_SIDE_STYLE('',(#251));
#253=SURFACE_STYLE_USAGE(.BOTH.,#252);
#254=PRESENTATION_STYLE_ASSIGNMENT((#253));
#255=STYLED_ITEM('',(#254),#247);
#256=ADVANCED_FACE('',(#517,#519),#521,.T.);
#257=COLOUR_RGB($,0.827450980392157,0.831372549019608,0.835294117647059);
#258=FILL_AREA_STYLE_COLOUR($,#257);
#259=FILL_AREA_STYLE($,(#258));
#260=SURFACE_STYLE_FILL_AREA(#259);
#261=SURFACE_SIDE_STYLE('',(#260));
#262=SURFACE_STYLE_USAGE(.BOTH.,#261);
#263=PRESENTATION_STYLE_ASSIGNMENT((#262));
#264=STYLED_ITEM('',(#263),#256);
#265=ADVANCED_FACE('',(#526,#528),#530,.T.);
#266=COLOUR_RGB($,0.827450980392157,0.831372549019608,0.835294117647059);
#267=FILL_AREA_STYLE_COLOUR($,#266);
#268=FILL_AREA_STYLE($,(#267));
#269=SURFACE_STYLE_FILL_AREA(#268);
#270=SURFACE_SIDE_STYLE('',(#269));
#271=SURFACE_STYLE_USAGE(.BOTH.,#270);
#272=PRESENTATION_STYLE_ASSIGNMENT((#271));
#273=STYLED_ITEM('',(#272),#265);
#274=ADVANCED_FACE('',(#535,#537),#539,.T.);
#275=COLOUR_RGB($,0.827450980392157,0.831372549019608,0.835294117647059);
#276=FILL_AREA_STYLE_COLOUR($,#275);
#277=FILL_AREA_STYLE($,(#276));
#278=SURFACE_STYLE_FILL_AREA(#277);
#279=SURFACE_SIDE_STYLE('',(#278));
#280=SURFACE_STYLE_USAGE(.BOTH.,#279);
#281=PRESENTATION_STYLE_ASSIGNMENT((#280));
#282=STYLED_ITEM('',(#281),#274);
#283=ADVANCED_FACE('',(#544,#546),#548,.T.);
#284=COLOUR_RGB($,0.827450980392157,0.831372549019608,0.835294117647059);
#285=FILL_AREA_STYLE_COLOUR($,#284);
#286=FILL_AREA_STYLE($,(#285));
#287=SURFACE_STYLE_FILL_AREA(#286);
#288=SURFACE_SIDE_STYLE('',(#287));
#289=SURFACE_STYLE_USAGE(.BOTH.,#288);
#290=PRESENTATION_STYLE_ASSIGNMENT((#289));
#291=STYLED_ITEM('',(#290),#283);
#292=ADVANCED_FACE('',(#553,#555),#557,.T.);
#293=COLOUR_RGB($,0.827450980392157,0.831372549019608,0.835294117647059);
#294=FILL_AREA_STYLE_COLOUR($,#293);
#295=FILL_AREA_STYLE($,(#294));
#296=SURFACE_STYLE_FILL_AREA(#295);
#297=SURFACE_SIDE_STYLE('',(#296));
#298=SURFACE_STYLE_USAGE(.BOTH.,#297);
#299=PRESENTATION_STYLE_ASSIGNMENT((#298));
#300=STYLED_ITEM('',(#299),#292);
#301=ADVANCED_FACE('',(#562,#564),#566,.T.);
#302=COLOUR_RGB($,0.827450980392157,0.831372549019608,0.835294117647059);
#303=FILL_AREA_STYLE_COLOUR($,#302);
#304=FILL_AREA_STYLE($,(#303));
#305=SURFACE_STYLE_FILL_AREA(#304);
#306=SURFACE_SIDE_STYLE('',(#305));
#307=SURFACE_STYLE_USAGE(.BOTH.,#306);
#308=PRESENTATION_STYLE_ASSIGNMENT((#307));
#309=STYLED_ITEM('',(#308),#301);
#310=ADVANCED_FACE('',(#571,#573),#575,.T.);
#311=COLOUR_RGB($,0.827450980392157,0.831372549019608,0.835294117647059);
#312=FILL_AREA_STYLE_COLOUR($,#311);
#313=FILL_AREA_STYLE($,(#312));
#314=SURFACE_STYLE_FILL_AREA(#313);
#315=SURFACE_SIDE_STYLE('',(#314));
#316=SURFACE_STYLE_USAGE(.BOTH.,#315);
#317=PRESENTATION_STYLE_ASSIGNMENT((#316));
#318=STYLED_ITEM('',(#317),#310);
#319=ADVANCED_FACE('',(#580,#582),#584,.F.);
#320=COLOUR_RGB($,0.827450980392157,0.831372549019608,0.835294117647059);
#321=FILL_AREA_STYLE_COLOUR($,#320);
#322=FILL_AREA_STYLE($,(#321));
#323=SURFACE_STYLE_FILL_AREA(#322);
#324=SURFACE_SIDE_STYLE('',(#323));
#325=SURFACE_STYLE_USAGE(.BOTH.,#324);
#326=PRESENTATION_STYLE_ASSIGNMENT((#325));
#327=STYLED_ITEM('',(#326),#319);
#328=ADVANCED_FACE('',(#589,#591),#593,.F.);
#329=COLOUR_RGB($,0.827450980392157,0.831372549019608,0.835294117647059);
#330=FILL_AREA_STYLE_COLOUR($,#329);
#331=FILL_AREA_STYLE($,(#330));
#332=SURFACE_STYLE_FILL_AREA(#331);
#333=SURFACE_SIDE_STYLE('',(#332));
#334=SURFACE_STYLE_USAGE(.BOTH.,#333);
#335=PRESENTATION_STYLE_ASSIGNMENT((#334));
#336=STYLED_ITEM('',(#335),#328);
#337=ADVANCED_FACE('',(#598,#600),#602,.F.);
#338=COLOUR_RGB($,0.827450980392157,0.831372549019608,0.835294117647059);
#339=FILL_AREA_STYLE_COLOUR($,#338);
#340=FILL_AREA_STYLE($,(#339));
#341=SURFACE_STYLE_FILL_AREA(#340);
#342=SURFACE_SIDE_STYLE('',(#341));
#343=SURFACE_STYLE_USAGE(.BOTH.,#342);
#344=PRESENTATION_STYLE_ASSIGNMENT((#343));
#345=STYLED_ITEM('',(#344),#337);
#346=ADVANCED_FACE('',(#607,#609),#611,.T.);
#347=COLOUR_RGB($,0.827450980392157,0.831372549019608,0.835294117647059);
#348=FILL_AREA_STYLE_COLOUR($,#347);
#349=FILL_AREA_STYLE($,(#348));
#350=SURFACE_STYLE_FILL_AREA(#349);
#351=SURFACE_SIDE_STYLE('',(#350));
#352=SURFACE_STYLE_USAGE(.BOTH.,#351);
#353=PRESENTATION_STYLE_ASSIGNMENT((#352));
#354=STYLED_ITEM('',(#353),#346);
#355=ADVANCED_FACE('',(#616,#618),#620,.F.);
#356=COLOUR_RGB($,0.827450980392157,0.831372549019608,0.835294117647059);
#357=FILL_AREA_STYLE_COLOUR($,#356);
#358=FILL_AREA_STYLE($,(#357));
#359=SURFACE_STYLE_FILL_AREA(#358);
#360=SURFACE_SIDE_STYLE('',(#359));
#361=SURFACE_STYLE_USAGE(.BOTH.,#360);
#362=PRESENTATION_STYLE_ASSIGNMENT((#361));
#363=STYLED_ITEM('',(#362),#355);
#364=ADVANCED_FACE('',(#625,#627),#629,.F.);
#365=COLOUR_RGB($,0.827450980392157,0.831372549019608,0.835294117647059);
#366=FILL_AREA_STYLE_COLOUR($,#365);
#367=FILL_AREA_STYLE($,(#366));
#368=SURFACE_STYLE_FILL_AREA(#367);
#369=SURFACE_SIDE_STYLE('',(#368));
#370=SURFACE_STYLE_USAGE(.BOTH.,#369);
#371=PRESENTATION_STYLE_ASSIGNMENT((#370));
#372=STYLED_ITEM('',(#371),#364);
#373=ADVANCED_FACE('',(#634,#636),#638,.F.);
#374=COLOUR_RGB($,0.827450980392157,0.831372549019608,0.835294117647059);
#375=FILL_AREA_STYLE_COLOUR($,#374);
#376=FILL_AREA_STYLE($,(#375));
#377=SURFACE_STYLE_FILL_AREA(#376);
#378=SURFACE_SIDE_STYLE('',(#377));
#379=SURFACE_STYLE_USAGE(.BOTH.,#378);
#380=PRESENTATION_STYLE_ASSIGNMENT((#379));
#381=STYLED_ITEM('',(#380),#373);
#382=ADVANCED_FACE('',(#643,#645),#647,.F.);
#383=COLOUR_RGB($,0.827450980392157,0.831372549019608,0.835294117647059);
#384=FILL_AREA_STYLE_COLOUR($,#383);
#385=FILL_AREA_STYLE($,(#384));
#386=SURFACE_STYLE_FILL_AREA(#385);
#387=SURFACE_SIDE_STYLE('',(#386));
#388=SURFACE_STYLE_USAGE(.BOTH.,#387);
#389=PRESENTATION_STYLE_ASSIGNMENT((#388));
#390=STYLED_ITEM('',(#389),#382);
#391=ADVANCED_FACE('',(#652),#654,.T.);
#392=COLOUR_RGB($,0.827450980392157,0.831372549019608,0.835294117647059);
#393=FILL_AREA_STYLE_COLOUR($,#392);
#394=FILL_AREA_STYLE($,(#393));
#395=SURFACE_STYLE_FILL_AREA(#394);
#396=SURFACE_SIDE_STYLE('',(#395));
#397=SURFACE_STYLE_USAGE(.BOTH.,#396);
#398=PRESENTATION_STYLE_ASSIGNMENT((#397));
#399=STYLED_ITEM('',(#398),#391);
#400=FACE_BOUND('',#401,.T.);
#401=EDGE_LOOP('',(#659,#660,#661,#662,#663,#664,#665,#666));
#402=FACE_BOUND('',#403,.T.);
#403=EDGE_LOOP('',(#667));
#404=PLANE('',#405);
#405=AXIS2_PLACEMENT_3D('',#406,#407,#408);
#406=CARTESIAN_POINT('',(0.,0.,0.63));
#407=DIRECTION('',(0.,0.,1.));
#408=DIRECTION('',(1.,0.,0.));
#409=FACE_BOUND('',#410,.T.);
#410=EDGE_LOOP('',(#668,#669,#670,#671,#672,#673,#674,#675));
#411=FACE_BOUND('',#412,.T.);
#412=EDGE_LOOP('',(#676));
#413=PLANE('',#414);
#414=AXIS2_PLACEMENT_3D('',#415,#416,#417);
#415=CARTESIAN_POINT('',(0.,0.,1.9));
#416=DIRECTION('',(0.,0.,1.));
#417=DIRECTION('',(1.,0.,0.));
#418=FACE_OUTER_BOUND('',#419,.T.);
#419=EDGE_LOOP('',(#677));
#420=FACE_OUTER_BOUND('',#421,.T.);
#421=EDGE_LOOP('',(#678));
#422=CYLINDRICAL_SURFACE('',#423,0.66);
#423=AXIS2_PLACEMENT_3D('',#424,#425,#426);
#424=CARTESIAN_POINT('',(0.,0.,0.));
#425=DIRECTION('',(0.,0.,1.));
#426=DIRECTION('',(1.,0.,0.));
#427=FACE_BOUND('',#428,.T.);
#428=EDGE_LOOP('',(#679,#680,#681,#682));
#429=PLANE('',#430);
#430=AXIS2_PLACEMENT_3D('',#431,#432,#433);
#431=CARTESIAN_POINT('',(-1.2451077025535,-1.27,0.63));
#432=DIRECTION('',(0.,-1.,0.));
#433=DIRECTION('',(1.,0.,0.));
#434=FACE_BOUND('',#435,.T.);
#435=EDGE_LOOP('',(#683,#684,#685,#686));
#436=PLANE('',#437);
#437=AXIS2_PLACEMENT_3D('',#438,#439,#440);
#438=CARTESIAN_POINT('',(-1.385,-0.97,0.63));
#439=DIRECTION('',(-0.90630778703665,-0.422618261740699,0.));
#440=DIRECTION('',(0.422618261740699,-0.90630778703665,0.));
#441=FACE_BOUND('',#442,.T.);
#442=EDGE_LOOP('',(#687,#688,#689,#690));
#443=PLANE('',#444);
#444=AXIS2_PLACEMENT_3D('',#445,#446,#447);
#445=CARTESIAN_POINT('',(-1.385,0.970000000000001,0.63));
#446=DIRECTION('',(-1.,2.28911963840238E-016,0.));
#447=DIRECTION('',(-2.28911963840238E-016,-1.,0.));
#448=FACE_BOUND('',#449,.T.);
#449=EDGE_LOOP('',(#691,#692,#693,#694));
#450=PLANE('',#451);
#451=AXIS2_PLACEMENT_3D('',#452,#453,#454);
#452=CARTESIAN_POINT('',(-1.2451077025535,1.27,0.63));
#453=DIRECTION('',(-0.90630778703665,0.422618261740699,0.));
#454=DIRECTION('',(-0.4226182617407,-0.90630778703665,0.));
#455=FACE_BOUND('',#456,.T.);
#456=EDGE_LOOP('',(#695,#696,#697,#698));
#457=PLANE('',#458);
#458=AXIS2_PLACEMENT_3D('',#459,#460,#461);
#459=CARTESIAN_POINT('',(1.2451077025535,1.27,0.63));
#460=DIRECTION('',(0.,1.,-0.));
#461=DIRECTION('',(-1.,0.,0.));
#462=FACE_BOUND('',#463,.T.);
#463=EDGE_LOOP('',(#699,#700,#701,#702));
#464=PLANE('',#465);
#465=AXIS2_PLACEMENT_3D('',#466,#467,#468);
#466=CARTESIAN_POINT('',(1.385,0.970000000000001,0.63));
#467=DIRECTION('',(0.90630778703665,0.422618261740699,-0.));
#468=DIRECTION('',(-0.422618261740699,0.90630778703665,0.));
#469=FACE_BOUND('',#470,.T.);
#470=EDGE_LOOP('',(#703,#704,#705,#706));
#471=PLANE('',#472);
#472=AXIS2_PLACEMENT_3D('',#473,#474,#475);
#473=CARTESIAN_POINT('',(1.385,-0.969999999999999,0.63));
#474=DIRECTION('',(1.,0.,0.));
#475=DIRECTION('',(0.,1.,0.));
#476=FACE_BOUND('',#477,.T.);
#477=EDGE_LOOP('',(#707,#708,#709,#710));
#478=PLANE('',#479);
#479=AXIS2_PLACEMENT_3D('',#480,#481,#482);
#480=CARTESIAN_POINT('',(1.2451077025535,-1.27,0.63));
#481=DIRECTION('',(0.906307787036649,-0.422618261740701,0.));
#482=DIRECTION('',(0.422618261740701,0.906307787036649,0.));
#483=FACE_BOUND('',#484,.T.);
#484=EDGE_LOOP('',(#711));
#485=PLANE('',#486);
#486=AXIS2_PLACEMENT_3D('',#487,#488,#489);
#487=CARTESIAN_POINT('',(0.,0.,-2.42));
#488=DIRECTION('',(-0.,-0.,-1.));
#489=DIRECTION('',(0.,-1.,0.));
#490=FACE_OUTER_BOUND('',#491,.T.);
#491=EDGE_LOOP('',(#712));
#492=FACE_OUTER_BOUND('',#493,.T.);
#493=EDGE_LOOP('',(#713));
#494=CONICAL_SURFACE('',#495,0.285,0.785398163397449);
#495=AXIS2_PLACEMENT_3D('',#496,#497,#498);
#496=CARTESIAN_POINT('',(0.,0.,-2.325));
#497=DIRECTION('',(0.,0.,1.));
#498=DIRECTION('',(-0.,1.,-0.));
#499=FACE_OUTER_BOUND('',#500,.T.);
#500=EDGE_LOOP('',(#714));
#501=FACE_OUTER_BOUND('',#502,.T.);
#502=EDGE_LOOP('',(#715));
#503=CYLINDRICAL_SURFACE('',#504,0.38);
#504=AXIS2_PLACEMENT_3D('',#505,#506,#507);
#505=CARTESIAN_POINT('',(0.,0.,0.));
#506=DIRECTION('',(-0.,-0.,-1.));
#507=DIRECTION('',(0.,-1.,0.));
#508=FACE_OUTER_BOUND('',#509,.T.);
#509=EDGE_LOOP('',(#716));
#510=FACE_OUTER_BOUND('',#511,.T.);
#511=EDGE_LOOP('',(#717));
#512=CONICAL_SURFACE('',#513,0.52,0.785398163397449);
#513=AXIS2_PLACEMENT_3D('',#514,#515,#516);
#514=CARTESIAN_POINT('',(0.,0.,0.14));
#515=DIRECTION('',(0.,0.,1.));
#516=DIRECTION('',(-0.,1.,-0.));
#517=FACE_OUTER_BOUND('',#518,.T.);
#518=EDGE_LOOP('',(#718));
#519=FACE_OUTER_BOUND('',#520,.T.);
#520=EDGE_LOOP('',(#719));
#521=CYLINDRICAL_SURFACE('',#522,0.66);
#522=AXIS2_PLACEMENT_3D('',#523,#524,#525);
#523=CARTESIAN_POINT('',(0.,0.,0.852878387081807));
#524=DIRECTION('',(-0.,-0.,-1.));
#525=DIRECTION('',(0.,-1.,0.));
#526=FACE_OUTER_BOUND('',#527,.T.);
#527=EDGE_LOOP('',(#720));
#528=FACE_OUTER_BOUND('',#529,.T.);
#529=EDGE_LOOP('',(#721));
#530=CONICAL_SURFACE('',#531,0.735,0.349065850398866);
#531=AXIS2_PLACEMENT_3D('',#532,#533,#534);
#532=CARTESIAN_POINT('',(0.,0.,1.0589391935409));
#533=DIRECTION('',(0.,0.,1.));
#534=DIRECTION('',(-0.,1.,-0.));
#535=FACE_BOUND('',#536,.T.);
#536=EDGE_LOOP('',(#722));
#537=FACE_BOUND('',#538,.T.);
#538=EDGE_LOOP('',(#723));
#539=PLANE('',#540);
#540=AXIS2_PLACEMENT_3D('',#541,#542,#543);
#541=CARTESIAN_POINT('',(0.,0.,1.265));
#542=DIRECTION('',(0.,0.,1.));
#543=DIRECTION('',(0.,-1.,0.));
#544=FACE_OUTER_BOUND('',#545,.T.);
#545=EDGE_LOOP('',(#724));
#546=FACE_OUTER_BOUND('',#547,.T.);
#547=EDGE_LOOP('',(#725));
#548=CYLINDRICAL_SURFACE('',#549,0.66);
#549=AXIS2_PLACEMENT_3D('',#550,#551,#552);
#550=CARTESIAN_POINT('',(0.,0.,1.9));
#551=DIRECTION('',(-0.,-0.,-1.));
#552=DIRECTION('',(0.,-1.,0.));
#553=FACE_BOUND('',#554,.T.);
#554=EDGE_LOOP('',(#726));
#555=FACE_BOUND('',#556,.T.);
#556=EDGE_LOOP('',(#727));
#557=PLANE('',#558);
#558=AXIS2_PLACEMENT_3D('',#559,#560,#561);
#559=CARTESIAN_POINT('',(0.,0.,1.9));
#560=DIRECTION('',(-0.,-0.,-1.));
#561=DIRECTION('',(0.,-1.,0.));
#562=FACE_OUTER_BOUND('',#563,.T.);
#563=EDGE_LOOP('',(#728));
#564=FACE_OUTER_BOUND('',#565,.T.);
#565=EDGE_LOOP('',(#729));
#566=CYLINDRICAL_SURFACE('',#567,0.915);
#567=AXIS2_PLACEMENT_3D('',#568,#569,#570);
#568=CARTESIAN_POINT('',(0.,0.,2.41));
#569=DIRECTION('',(-0.,-0.,-1.));
#570=DIRECTION('',(0.,-1.,0.));
#571=FACE_BOUND('',#572,.T.);
#572=EDGE_LOOP('',(#730));
#573=FACE_BOUND('',#574,.T.);
#574=EDGE_LOOP('',(#731));
#575=PLANE('',#576);
#576=AXIS2_PLACEMENT_3D('',#577,#578,#579);
#577=CARTESIAN_POINT('',(0.,0.,2.41));
#578=DIRECTION('',(0.,0.,1.));
#579=DIRECTION('',(0.,-1.,0.));
#580=FACE_OUTER_BOUND('',#581,.T.);
#581=EDGE_LOOP('',(#732));
#582=FACE_OUTER_BOUND('',#583,.T.);
#583=EDGE_LOOP('',(#733));
#584=CONICAL_SURFACE('',#585,0.583909963260681,0.69813170163661);
#585=AXIS2_PLACEMENT_3D('',#586,#587,#588);
#586=CARTESIAN_POINT('',(0.,0.,2.31));
#587=DIRECTION('',(0.,0.,1.));
#588=DIRECTION('',(-0.,1.,-0.));
#589=FACE_OUTER_BOUND('',#590,.T.);
#590=EDGE_LOOP('',(#734));
#591=FACE_OUTER_BOUND('',#592,.T.);
#592=EDGE_LOOP('',(#735));
#593=CYLINDRICAL_SURFACE('',#594,0.5);
#594=AXIS2_PLACEMENT_3D('',#595,#596,#597);
#595=CARTESIAN_POINT('',(0.,0.,1.71));
#596=DIRECTION('',(-0.,-0.,-1.));
#597=DIRECTION('',(0.,-1.,0.));
#598=FACE_OUTER_BOUND('',#599,.T.);
#599=EDGE_LOOP('',(#736));
#600=FACE_OUTER_BOUND('',#601,.T.);
#601=EDGE_LOOP('',(#737));
#602=CONICAL_SURFACE('',#603,0.3625,0.268366210905907);
#603=AXIS2_PLACEMENT_3D('',#604,#605,#606);
#604=CARTESIAN_POINT('',(0.,0.,1.21));
#605=DIRECTION('',(0.,0.,1.));
#606=DIRECTION('',(-0.,1.,-0.));
#607=FACE_BOUND('',#608,.T.);
#608=EDGE_LOOP('',(#738));
#609=FACE_BOUND('',#610,.T.);
#610=EDGE_LOOP('',(#739));
#611=PLANE('',#612);
#612=AXIS2_PLACEMENT_3D('',#613,#614,#615);
#613=CARTESIAN_POINT('',(0.,0.,0.71));
#614=DIRECTION('',(-0.,-0.,-1.));
#615=DIRECTION('',(0.,-1.,0.));
#616=FACE_OUTER_BOUND('',#617,.T.);
#617=EDGE_LOOP('',(#740));
#618=FACE_OUTER_BOUND('',#619,.T.);
#619=EDGE_LOOP('',(#741));
#620=CYLINDRICAL_SURFACE('',#621,0.5);
#621=AXIS2_PLACEMENT_3D('',#622,#623,#624);
#622=CARTESIAN_POINT('',(0.,0.,0.435193639281201));
#623=DIRECTION('',(-0.,-0.,-1.));
#624=DIRECTION('',(0.,-1.,0.));
#625=FACE_OUTER_BOUND('',#626,.T.);
#626=EDGE_LOOP('',(#742));
#627=FACE_OUTER_BOUND('',#628,.T.);
#628=EDGE_LOOP('',(#743));
#629=CONICAL_SURFACE('',#630,0.3875,1.02974425867665);
#630=AXIS2_PLACEMENT_3D('',#631,#632,#633);
#631=CARTESIAN_POINT('',(0.,0.,0.3675968196406));
#632=DIRECTION('',(0.,0.,1.));
#633=DIRECTION('',(-0.,1.,-0.));
#634=FACE_OUTER_BOUND('',#635,.T.);
#635=EDGE_LOOP('',(#744));
#636=FACE_OUTER_BOUND('',#637,.T.);
#637=EDGE_LOOP('',(#745));
#638=CYLINDRICAL_SURFACE('',#639,0.275);
#639=AXIS2_PLACEMENT_3D('',#640,#641,#642);
#640=CARTESIAN_POINT('',(0.,0.,-1.49));
#641=DIRECTION('',(-0.,-0.,-1.));
#642=DIRECTION('',(0.,-1.,0.));
#643=FACE_OUTER_BOUND('',#644,.T.);
#644=EDGE_LOOP('',(#746));
#645=FACE_OUTER_BOUND('',#646,.T.);
#646=EDGE_LOOP('',(#747));
#647=CONICAL_SURFACE('',#648,0.152499999986858,1.02974425867665);
#648=AXIS2_PLACEMENT_3D('',#649,#650,#651);
#649=CARTESIAN_POINT('',(0.,0.,-1.56360542583877));
#650=DIRECTION('',(0.,0.,1.));
#651=DIRECTION('',(-0.,1.,-0.));
#652=FACE_BOUND('',#653,.T.);
#653=EDGE_LOOP('',(#748));
#654=PLANE('',#655);
#655=AXIS2_PLACEMENT_3D('',#656,#657,#658);
#656=CARTESIAN_POINT('',(0.,0.,-1.63721085167755));
#657=DIRECTION('',(0.,0.,1.));
#658=DIRECTION('',(0.,-1.,0.));
#659=ORIENTED_EDGE('',*,*,#749,.F.);
#660=ORIENTED_EDGE('',*,*,#750,.F.);
#661=ORIENTED_EDGE('',*,*,#751,.F.);
#662=ORIENTED_EDGE('',*,*,#752,.F.);
#663=ORIENTED_EDGE('',*,*,#753,.F.);
#664=ORIENTED_EDGE('',*,*,#754,.F.);
#665=ORIENTED_EDGE('',*,*,#755,.F.);
#666=ORIENTED_EDGE('',*,*,#756,.F.);
#667=ORIENTED_EDGE('',*,*,#757,.T.);
#668=ORIENTED_EDGE('',*,*,#758,.T.);
#669=ORIENTED_EDGE('',*,*,#759,.T.);
#670=ORIENTED_EDGE('',*,*,#760,.T.);
#671=ORIENTED_EDGE('',*,*,#761,.T.);
#672=ORIENTED_EDGE('',*,*,#762,.T.);
#673=ORIENTED_EDGE('',*,*,#763,.T.);
#674=ORIENTED_EDGE('',*,*,#764,.T.);
#675=ORIENTED_EDGE('',*,*,#765,.T.);
#676=ORIENTED_EDGE('',*,*,#766,.T.);
#677=ORIENTED_EDGE('',*,*,#766,.F.);
#678=ORIENTED_EDGE('',*,*,#757,.F.);
#679=ORIENTED_EDGE('',*,*,#749,.T.);
#680=ORIENTED_EDGE('',*,*,#767,.T.);
#681=ORIENTED_EDGE('',*,*,#765,.F.);
#682=ORIENTED_EDGE('',*,*,#768,.F.);
#683=ORIENTED_EDGE('',*,*,#750,.T.);
#684=ORIENTED_EDGE('',*,*,#768,.T.);
#685=ORIENTED_EDGE('',*,*,#764,.F.);
#686=ORIENTED_EDGE('',*,*,#769,.F.);
#687=ORIENTED_EDGE('',*,*,#751,.T.);
#688=ORIENTED_EDGE('',*,*,#769,.T.);
#689=ORIENTED_EDGE('',*,*,#763,.F.);
#690=ORIENTED_EDGE('',*,*,#770,.F.);
#691=ORIENTED_EDGE('',*,*,#752,.T.);
#692=ORIENTED_EDGE('',*,*,#770,.T.);
#693=ORIENTED_EDGE('',*,*,#762,.F.);
#694=ORIENTED_EDGE('',*,*,#771,.F.);
#695=ORIENTED_EDGE('',*,*,#753,.T.);
#696=ORIENTED_EDGE('',*,*,#771,.T.);
#697=ORIENTED_EDGE('',*,*,#761,.F.);
#698=ORIENTED_EDGE('',*,*,#772,.F.);
#699=ORIENTED_EDGE('',*,*,#754,.T.);
#700=ORIENTED_EDGE('',*,*,#772,.T.);
#701=ORIENTED_EDGE('',*,*,#760,.F.);
#702=ORIENTED_EDGE('',*,*,#773,.F.);
#703=ORIENTED_EDGE('',*,*,#755,.T.);
#704=ORIENTED_EDGE('',*,*,#773,.T.);
#705=ORIENTED_EDGE('',*,*,#759,.F.);
#706=ORIENTED_EDGE('',*,*,#774,.F.);
#707=ORIENTED_EDGE('',*,*,#756,.T.);
#708=ORIENTED_EDGE('',*,*,#774,.T.);
#709=ORIENTED_EDGE('',*,*,#758,.F.);
#710=ORIENTED_EDGE('',*,*,#767,.F.);
#711=ORIENTED_EDGE('',*,*,#775,.T.);
#712=ORIENTED_EDGE('',*,*,#775,.F.);
#713=ORIENTED_EDGE('',*,*,#776,.T.);
#714=ORIENTED_EDGE('',*,*,#777,.T.);
#715=ORIENTED_EDGE('',*,*,#776,.F.);
#716=ORIENTED_EDGE('',*,*,#777,.F.);
#717=ORIENTED_EDGE('',*,*,#778,.T.);
#718=ORIENTED_EDGE('',*,*,#779,.T.);
#719=ORIENTED_EDGE('',*,*,#778,.F.);
#720=ORIENTED_EDGE('',*,*,#779,.F.);
#721=ORIENTED_EDGE('',*,*,#780,.T.);
#722=ORIENTED_EDGE('',*,*,#780,.F.);
#723=ORIENTED_EDGE('',*,*,#781,.T.);
#724=ORIENTED_EDGE('',*,*,#782,.T.);
#725=ORIENTED_EDGE('',*,*,#781,.F.);
#726=ORIENTED_EDGE('',*,*,#783,.T.);
#727=ORIENTED_EDGE('',*,*,#782,.F.);
#728=ORIENTED_EDGE('',*,*,#784,.T.);
#729=ORIENTED_EDGE('',*,*,#783,.F.);
#730=ORIENTED_EDGE('',*,*,#784,.F.);
#731=ORIENTED_EDGE('',*,*,#785,.T.);
#732=ORIENTED_EDGE('',*,*,#786,.T.);
#733=ORIENTED_EDGE('',*,*,#785,.F.);
#734=ORIENTED_EDGE('',*,*,#786,.F.);
#735=ORIENTED_EDGE('',*,*,#787,.T.);
#736=ORIENTED_EDGE('',*,*,#788,.T.);
#737=ORIENTED_EDGE('',*,*,#787,.F.);
#738=ORIENTED_EDGE('',*,*,#789,.T.);
#739=ORIENTED_EDGE('',*,*,#788,.F.);
#740=ORIENTED_EDGE('',*,*,#789,.F.);
#741=ORIENTED_EDGE('',*,*,#790,.T.);
#742=ORIENTED_EDGE('',*,*,#791,.T.);
#743=ORIENTED_EDGE('',*,*,#790,.F.);
#744=ORIENTED_EDGE('',*,*,#791,.F.);
#745=ORIENTED_EDGE('',*,*,#792,.T.);
#746=ORIENTED_EDGE('',*,*,#793,.T.);
#747=ORIENTED_EDGE('',*,*,#792,.F.);
#748=ORIENTED_EDGE('',*,*,#793,.F.);
#749=EDGE_CURVE('',#794,#795,#796,.T.);
#750=EDGE_CURVE('',#797,#794,#798,.T.);
#751=EDGE_CURVE('',#799,#797,#800,.T.);
#752=EDGE_CURVE('',#801,#799,#802,.T.);
#753=EDGE_CURVE('',#803,#801,#804,.T.);
#754=EDGE_CURVE('',#805,#803,#806,.T.);
#755=EDGE_CURVE('',#807,#805,#808,.T.);
#756=EDGE_CURVE('',#795,#807,#809,.T.);
#757=EDGE_CURVE('',#810,#810,#811,.T.);
#758=EDGE_CURVE('',#812,#813,#814,.T.);
#759=EDGE_CURVE('',#813,#815,#816,.T.);
#760=EDGE_CURVE('',#815,#817,#818,.T.);
#761=EDGE_CURVE('',#817,#819,#820,.T.);
#762=EDGE_CURVE('',#819,#821,#822,.T.);
#763=EDGE_CURVE('',#821,#823,#824,.T.);
#764=EDGE_CURVE('',#823,#825,#826,.T.);
#765=EDGE_CURVE('',#825,#812,#827,.T.);
#766=EDGE_CURVE('',#828,#828,#829,.F.);
#767=EDGE_CURVE('',#795,#812,#830,.T.);
#768=EDGE_CURVE('',#794,#825,#831,.T.);
#769=EDGE_CURVE('',#797,#823,#832,.T.);
#770=EDGE_CURVE('',#799,#821,#833,.T.);
#771=EDGE_CURVE('',#801,#819,#834,.T.);
#772=EDGE_CURVE('',#803,#817,#835,.T.);
#773=EDGE_CURVE('',#805,#815,#836,.T.);
#774=EDGE_CURVE('',#807,#813,#837,.T.);
#775=EDGE_CURVE('',#838,#838,#839,.T.);
#776=EDGE_CURVE('',#840,#840,#841,.T.);
#777=EDGE_CURVE('',#842,#842,#843,.T.);
#778=EDGE_CURVE('',#844,#844,#845,.T.);
#779=EDGE_CURVE('',#846,#846,#847,.T.);
#780=EDGE_CURVE('',#848,#848,#849,.T.);
#781=EDGE_CURVE('',#850,#850,#851,.T.);
#782=EDGE_CURVE('',#852,#852,#853,.T.);
#783=EDGE_CURVE('',#854,#854,#855,.T.);
#784=EDGE_CURVE('',#856,#856,#857,.T.);
#785=EDGE_CURVE('',#858,#858,#859,.T.);
#786=EDGE_CURVE('',#860,#860,#861,.T.);
#787=EDGE_CURVE('',#862,#862,#863,.T.);
#788=EDGE_CURVE('',#864,#864,#865,.T.);
#789=EDGE_CURVE('',#866,#866,#867,.T.);
#790=EDGE_CURVE('',#868,#868,#869,.T.);
#791=EDGE_CURVE('',#870,#870,#871,.T.);
#792=EDGE_CURVE('',#872,#872,#873,.T.);
#793=EDGE_CURVE('',#874,#874,#875,.T.);
#794=VERTEX_POINT('',#876);
#795=VERTEX_POINT('',#877);
#796=LINE('',#878,#879);
#797=VERTEX_POINT('',#881);
#798=LINE('',#882,#883);
#799=VERTEX_POINT('',#885);
#800=LINE('',#886,#887);
#801=VERTEX_POINT('',#889);
#802=LINE('',#890,#891);
#803=VERTEX_POINT('',#893);
#804=LINE('',#894,#895);
#805=VERTEX_POINT('',#897);
#806=LINE('',#898,#899);
#807=VERTEX_POINT('',#901);
#808=LINE('',#902,#903);
#809=LINE('',#905,#906);
#810=VERTEX_POINT('',#908);
#811=CIRCLE('',#909,0.66);
#812=VERTEX_POINT('',#913);
#813=VERTEX_POINT('',#914);
#814=LINE('',#915,#916);
#815=VERTEX_POINT('',#918);
#816=LINE('',#919,#920);
#817=VERTEX_POINT('',#922);
#818=LINE('',#923,#924);
#819=VERTEX_POINT('',#926);
#820=LINE('',#927,#928);
#821=VERTEX_POINT('',#930);
#822=LINE('',#931,#932);
#823=VERTEX_POINT('',#934);
#824=LINE('',#935,#936);
#825=VERTEX_POINT('',#938);
#826=LINE('',#939,#940);
#827=LINE('',#942,#943);
#828=VERTEX_POINT('',#945);
#829=CIRCLE('',#946,0.66);
#830=LINE('',#950,#951);
#831=LINE('',#953,#954);
#832=LINE('',#956,#957);
#833=LINE('',#959,#960);
#834=LINE('',#962,#963);
#835=LINE('',#965,#966);
#836=LINE('',#968,#969);
#837=LINE('',#971,#972);
#838=VERTEX_POINT('',#974);
#839=CIRCLE('',#975,0.19);
#840=VERTEX_POINT('',#979);
#841=CIRCLE('',#980,0.38);
#842=VERTEX_POINT('',#984);
#843=CIRCLE('',#985,0.38);
#844=VERTEX_POINT('',#989);
#845=CIRCLE('',#990,0.66);
#846=VERTEX_POINT('',#994);
#847=CIRCLE('',#995,0.66);
#848=VERTEX_POINT('',#999);
#849=CIRCLE('',#1000,0.81);
#850=VERTEX_POINT('',#1004);
#851=CIRCLE('',#1005,0.66);
#852=VERTEX_POINT('',#1009);
#853=CIRCLE('',#1010,0.66);
#854=VERTEX_POINT('',#1014);
#855=CIRCLE('',#1015,0.915);
#856=VERTEX_POINT('',#1019);
#857=CIRCLE('',#1020,0.915);
#858=VERTEX_POINT('',#1024);
#859=CIRCLE('',#1025,0.667819926521361);
#860=VERTEX_POINT('',#1029);
#861=CIRCLE('',#1030,0.5);
#862=VERTEX_POINT('',#1034);
#863=CIRCLE('',#1035,0.5);
#864=VERTEX_POINT('',#1039);
#865=CIRCLE('',#1040,0.225);
#866=VERTEX_POINT('',#1044);
#867=CIRCLE('',#1045,0.5);
#868=VERTEX_POINT('',#1049);
#869=CIRCLE('',#1050,0.5);
#870=VERTEX_POINT('',#1054);
#871=CIRCLE('',#1055,0.275);
#872=VERTEX_POINT('',#1059);
#873=CIRCLE('',#1060,0.275);
#874=VERTEX_POINT('',#1064);
#875=CIRCLE('',#1065,0.0299999999737154);
#876=CARTESIAN_POINT('',(-1.2451077025535,-1.27,0.63));
#877=CARTESIAN_POINT('',(1.2451077025535,-1.27,0.63));
#878=CARTESIAN_POINT('',(-1.2451077025535,-1.27,0.63));
#879=VECTOR('',#880,1.);
#880=DIRECTION('',(1.,0.,0.));
#881=CARTESIAN_POINT('',(-1.385,-0.97,0.63));
#882=CARTESIAN_POINT('',(-1.385,-0.97,0.63));
#883=VECTOR('',#884,1.);
#884=DIRECTION('',(0.422618261740699,-0.90630778703665,0.));
#885=CARTESIAN_POINT('',(-1.385,0.970000000000001,0.63));
#886=CARTESIAN_POINT('',(-1.385,0.970000000000001,0.63));
#887=VECTOR('',#888,1.);
#888=DIRECTION('',(-2.28911963840238E-016,-1.,0.));
#889=CARTESIAN_POINT('',(-1.2451077025535,1.27,0.63));
#890=CARTESIAN_POINT('',(-1.2451077025535,1.27,0.63));
#891=VECTOR('',#892,1.);
#892=DIRECTION('',(-0.4226182617407,-0.90630778703665,0.));
#893=CARTESIAN_POINT('',(1.2451077025535,1.27,0.63));
#894=CARTESIAN_POINT('',(1.2451077025535,1.27,0.63));
#895=VECTOR('',#896,1.);
#896=DIRECTION('',(-1.,0.,0.));
#897=CARTESIAN_POINT('',(1.385,0.970000000000001,0.63));
#898=CARTESIAN_POINT('',(1.385,0.970000000000001,0.63));
#899=VECTOR('',#900,1.);
#900=DIRECTION('',(-0.422618261740699,0.90630778703665,0.));
#901=CARTESIAN_POINT('',(1.385,-0.969999999999999,0.63));
#902=CARTESIAN_POINT('',(1.385,-0.969999999999999,0.63));
#903=VECTOR('',#904,1.);
#904=DIRECTION('',(0.,1.,0.));
#905=CARTESIAN_POINT('',(1.2451077025535,-1.27,0.63));
#906=VECTOR('',#907,1.);
#907=DIRECTION('',(0.422618261740701,0.906307787036649,0.));
#908=CARTESIAN_POINT('',(0.66,-8.08266887437253E-017,0.63));
#909=AXIS2_PLACEMENT_3D('',#910,#911,#912);
#910=CARTESIAN_POINT('',(0.,0.,0.63));
#911=DIRECTION('',(0.,0.,1.));
#912=DIRECTION('',(1.,0.,0.));
#913=CARTESIAN_POINT('',(1.2451077025535,-1.27,1.9));
#914=CARTESIAN_POINT('',(1.385,-0.969999999999999,1.9));
#915=CARTESIAN_POINT('',(1.2451077025535,-1.27,1.9));
#916=VECTOR('',#917,1.);
#917=DIRECTION('',(0.422618261740701,0.906307787036649,0.));
#918=CARTESIAN_POINT('',(1.385,0.970000000000001,1.9));
#919=CARTESIAN_POINT('',(1.385,-0.969999999999999,1.9));
#920=VECTOR('',#921,1.);
#921=DIRECTION('',(0.,1.,0.));
#922=CARTESIAN_POINT('',(1.2451077025535,1.27,1.9));
#923=CARTESIAN_POINT('',(1.385,0.970000000000001,1.9));
#924=VECTOR('',#925,1.);
#925=DIRECTION('',(-0.422618261740699,0.90630778703665,0.));
#926=CARTESIAN_POINT('',(-1.2451077025535,1.27,1.9));
#927=CARTESIAN_POINT('',(1.2451077025535,1.27,1.9));
#928=VECTOR('',#929,1.);
#929=DIRECTION('',(-1.,0.,0.));
#930=CARTESIAN_POINT('',(-1.385,0.970000000000001,1.9));
#931=CARTESIAN_POINT('',(-1.2451077025535,1.27,1.9));
#932=VECTOR('',#933,1.);
#933=DIRECTION('',(-0.4226182617407,-0.90630778703665,0.));
#934=CARTESIAN_POINT('',(-1.385,-0.97,1.9));
#935=CARTESIAN_POINT('',(-1.385,0.970000000000001,1.9));
#936=VECTOR('',#937,1.);
#937=DIRECTION('',(-2.28911963840238E-016,-1.,0.));
#938=CARTESIAN_POINT('',(-1.2451077025535,-1.27,1.9));
#939=CARTESIAN_POINT('',(-1.385,-0.97,1.9));
#940=VECTOR('',#941,1.);
#941=DIRECTION('',(0.422618261740699,-0.90630778703665,0.));
#942=CARTESIAN_POINT('',(-1.2451077025535,-1.27,1.9));
#943=VECTOR('',#944,1.);
#944=DIRECTION('',(1.,0.,0.));
#945=CARTESIAN_POINT('',(0.66,-8.08266887437253E-017,1.9));
#946=AXIS2_PLACEMENT_3D('',#947,#948,#949);
#947=CARTESIAN_POINT('',(0.,0.,1.9));
#948=DIRECTION('',(0.,0.,1.));
#949=DIRECTION('',(1.,0.,0.));
#950=CARTESIAN_POINT('',(1.2451077025535,-1.27,0.63));
#951=VECTOR('',#952,1.);
#952=DIRECTION('',(0.,0.,1.));
#953=CARTESIAN_POINT('',(-1.2451077025535,-1.27,0.63));
#954=VECTOR('',#955,1.);
#955=DIRECTION('',(0.,0.,1.));
#956=CARTESIAN_POINT('',(-1.385,-0.97,0.63));
#957=VECTOR('',#958,1.);
#958=DIRECTION('',(0.,0.,1.));
#959=CARTESIAN_POINT('',(-1.385,0.970000000000001,0.63));
#960=VECTOR('',#961,1.);
#961=DIRECTION('',(0.,0.,1.));
#962=CARTESIAN_POINT('',(-1.2451077025535,1.27,0.63));
#963=VECTOR('',#964,1.);
#964=DIRECTION('',(0.,0.,1.));
#965=CARTESIAN_POINT('',(1.2451077025535,1.27,0.63));
#966=VECTOR('',#967,1.);
#967=DIRECTION('',(0.,0.,1.));
#968=CARTESIAN_POINT('',(1.385,0.970000000000001,0.63));
#969=VECTOR('',#970,1.);
#970=DIRECTION('',(0.,0.,1.));
#971=CARTESIAN_POINT('',(1.385,-0.969999999999999,0.63));
#972=VECTOR('',#973,1.);
#973=DIRECTION('',(0.,0.,1.));
#974=CARTESIAN_POINT('',(0.,-0.19,-2.42));
#975=AXIS2_PLACEMENT_3D('',#976,#977,#978);
#976=CARTESIAN_POINT('',(0.,0.,-2.42));
#977=DIRECTION('',(-0.,-0.,-1.));
#978=DIRECTION('',(0.,-1.,0.));
#979=CARTESIAN_POINT('',(0.,-0.38,-2.23));
#980=AXIS2_PLACEMENT_3D('',#981,#982,#983);
#981=CARTESIAN_POINT('',(0.,0.,-2.23));
#982=DIRECTION('',(-0.,-0.,-1.));
#983=DIRECTION('',(0.,-1.,0.));
#984=CARTESIAN_POINT('',(0.,-0.38,0.));
#985=AXIS2_PLACEMENT_3D('',#986,#987,#988);
#986=CARTESIAN_POINT('',(0.,0.,0.));
#987=DIRECTION('',(-0.,-0.,-1.));
#988=DIRECTION('',(0.,-1.,0.));
#989=CARTESIAN_POINT('',(0.,-0.66,0.28));
#990=AXIS2_PLACEMENT_3D('',#991,#992,#993);
#991=CARTESIAN_POINT('',(0.,0.,0.28));
#992=DIRECTION('',(-0.,-0.,-1.));
#993=DIRECTION('',(0.,-1.,0.));
#994=CARTESIAN_POINT('',(0.,-0.66,0.852878387081807));
#995=AXIS2_PLACEMENT_3D('',#996,#997,#998);
#996=CARTESIAN_POINT('',(0.,0.,0.852878387081807));
#997=DIRECTION('',(-0.,-0.,-1.));
#998=DIRECTION('',(0.,-1.,0.));
#999=CARTESIAN_POINT('',(0.,-0.81,1.265));
#1000=AXIS2_PLACEMENT_3D('',#1001,#1002,#1003);
#1001=CARTESIAN_POINT('',(0.,0.,1.265));
#1002=DIRECTION('',(-0.,-0.,-1.));
#1003=DIRECTION('',(0.,-1.,0.));
#1004=CARTESIAN_POINT('',(0.,-0.66,1.265));
#1005=AXIS2_PLACEMENT_3D('',#1006,#1007,#1008);
#1006=CARTESIAN_POINT('',(0.,0.,1.265));
#1007=DIRECTION('',(-0.,-0.,-1.));
#1008=DIRECTION('',(0.,-1.,0.));
#1009=CARTESIAN_POINT('',(0.,-0.66,1.9));
#1010=AXIS2_PLACEMENT_3D('',#1011,#1012,#1013);
#1011=CARTESIAN_POINT('',(0.,0.,1.9));
#1012=DIRECTION('',(-0.,-0.,-1.));
#1013=DIRECTION('',(0.,-1.,0.));
#1014=CARTESIAN_POINT('',(0.,-0.915,1.9));
#1015=AXIS2_PLACEMENT_3D('',#1016,#1017,#1018);
#1016=CARTESIAN_POINT('',(0.,0.,1.9));
#1017=DIRECTION('',(-0.,-0.,-1.));
#1018=DIRECTION('',(0.,-1.,0.));
#1019=CARTESIAN_POINT('',(0.,-0.915,2.41));
#1020=AXIS2_PLACEMENT_3D('',#1021,#1022,#1023);
#1021=CARTESIAN_POINT('',(0.,0.,2.41));
#1022=DIRECTION('',(-0.,-0.,-1.));
#1023=DIRECTION('',(0.,-1.,0.));
#1024=CARTESIAN_POINT('',(0.,-0.667819926521361,2.41));
#1025=AXIS2_PLACEMENT_3D('',#1026,#1027,#1028);
#1026=CARTESIAN_POINT('',(0.,0.,2.41));
#1027=DIRECTION('',(-0.,-0.,-1.));
#1028=DIRECTION('',(0.,-1.,0.));
#1029=CARTESIAN_POINT('',(0.,-0.5,2.21));
#1030=AXIS2_PLACEMENT_3D('',#1031,#1032,#1033);
#1031=CARTESIAN_POINT('',(0.,0.,2.21));
#1032=DIRECTION('',(0.,-0.,-1.));
#1033=DIRECTION('',(0.,-1.,0.));
#1034=CARTESIAN_POINT('',(0.,-0.5,1.71));
#1035=AXIS2_PLACEMENT_3D('',#1036,#1037,#1038);
#1036=CARTESIAN_POINT('',(0.,0.,1.71));
#1037=DIRECTION('',(0.,-0.,-1.));
#1038=DIRECTION('',(0.,-1.,0.));
#1039=CARTESIAN_POINT('',(0.,-0.225,0.71));
#1040=AXIS2_PLACEMENT_3D('',#1041,#1042,#1043);
#1041=CARTESIAN_POINT('',(0.,0.,0.71));
#1042=DIRECTION('',(-0.,-0.,-1.));
#1043=DIRECTION('',(0.,-1.,0.));
#1044=CARTESIAN_POINT('',(0.,-0.5,0.71));
#1045=AXIS2_PLACEMENT_3D('',#1046,#1047,#1048);
#1046=CARTESIAN_POINT('',(0.,0.,0.71));
#1047=DIRECTION('',(-0.,-0.,-1.));
#1048=DIRECTION('',(0.,-1.,0.));
#1049=CARTESIAN_POINT('',(0.,-0.5,0.435193639281201));
#1050=AXIS2_PLACEMENT_3D('',#1051,#1052,#1053);
#1051=CARTESIAN_POINT('',(0.,0.,0.435193639281201));
#1052=DIRECTION('',(0.,-0.,-1.));
#1053=DIRECTION('',(0.,-1.,0.));
#1054=CARTESIAN_POINT('',(0.,-0.275,0.3));
#1055=AXIS2_PLACEMENT_3D('',#1056,#1057,#1058);
#1056=CARTESIAN_POINT('',(0.,0.,0.3));
#1057=DIRECTION('',(0.,-0.,-1.));
#1058=DIRECTION('',(0.,-1.,0.));
#1059=CARTESIAN_POINT('',(0.,-0.275,-1.49));
#1060=AXIS2_PLACEMENT_3D('',#1061,#1062,#1063);
#1061=CARTESIAN_POINT('',(0.,0.,-1.49));
#1062=DIRECTION('',(0.,-0.,-1.));
#1063=DIRECTION('',(0.,-1.,0.));
#1064=CARTESIAN_POINT('',(0.,-0.0299999999737154,-1.63721085167755));
#1065=AXIS2_PLACEMENT_3D('',#1066,#1067,#1068);
#1066=CARTESIAN_POINT('',(0.,0.,-1.63721085167755));
#1067=DIRECTION('',(-0.,-0.,-1.));
#1068=DIRECTION('',(0.,-1.,0.));
ENDSEC;
END-ISO-10303-21;
