ISO-10303-21;
HEADER;
FILE_DESCRIPTION(('STEP AP214'),
    '1');
FILE_NAME('SL-105-TT-11',
    '2020-03-30T23:14:58',
    ('AF'),
    (''),
    'UNSPECIFIED',
    'UNSPECIFIED',
    '');
/*Based on Samtec Inc. SL, SDL series datasheet*/
FILE_SCHEMA(('AUTOMOTIVE_DESIGN { 1 0 10303 214 3 1 1}'));
ENDSEC;

DATA;
#1=SHAPE_REPRESENTATION('NONE',(#2,#58,#121,#147,#173),#6);
#2=AXIS2_PLACEMENT_3D('',#3,#4,#5);
#3=CARTESIAN_POINT('',(0.,0.,0.));
#4=DIRECTION('',(0.,0.,1.));
#5=DIRECTION('',(1.,0.,0.));
#6=(GEOMETRIC_REPRESENTATION_CONTEXT(3)GLOBAL_UNCERTAINTY_ASSIGNED_CONTEXT((#8))
GLOBAL_UNIT_ASSIGNED_CONTEXT((#7,#9,#10))REPRESENTATION_CONTEXT('NONE','NONE'));
#7=(LENGTH_UNIT()NAMED_UNIT(*)SI_UNIT(.MILLI.,.METRE.));
#8=UNCERTAINTY_MEASURE_WITH_UNIT(LENGTH_MEASURE(1.E-005),#7,'NONE','NONE');
#9=(NAMED_UNIT(*)PLANE_ANGLE_UNIT()SI_UNIT($,.RADIAN.));
#10=(NAMED_UNIT(*)SI_UNIT($,.STERADIAN.)SOLID_ANGLE_UNIT());
#11=SHAPE_DEFINITION_REPRESENTATION(#12,#1);
#12=PRODUCT_DEFINITION_SHAPE('NONE','NONE',#13);
#13=PRODUCT_DEFINITION('','UNSPECIFIED',#14,#22);
#14=PRODUCT_DEFINITION_FORMATION_WITH_SPECIFIED_SOURCE('ANY','UNSPECIFIED',#15,.NOT_KNOWN.);
#15=PRODUCT('','SL-104-TT-11','Based on Samtec Inc. SL, SDL series datasheet',(#25));
#16=PERSON('UNSPECIFIED','AF','UNSPECIFIED',('UNSPECIFIED'),('UNSPECIFIED'),
('UNSPECIFIED'));
#17=ORGANIZATION('UNSPECIFIED','UNSPECIFIED','UNSPECIFIED');
#18=PERSON_AND_ORGANIZATION(#16,#17);
#19=PERSON_AND_ORGANIZATION_ROLE('design_owner');
#20=CC_DESIGN_PERSON_AND_ORGANIZATION_ASSIGNMENT(#18,#19,(#15));
#21=PRODUCT_RELATED_PRODUCT_CATEGORY('assembly','',(#15));
#22=DESIGN_CONTEXT('detailed design',#23,'design');
#23=APPLICATION_CONTEXT('configuration controlled 3d designs of mechanical parts and assemblies');
#24=APPLICATION_PROTOCOL_DEFINITION('international standard','automotive_design',
2011,#23);
#25=PRODUCT_CONTEXT('NONE',#23,'mechanical');
#26=CC_DESIGN_DATE_AND_TIME_ASSIGNMENT(#27,#31,(#13));
#27=DATE_AND_TIME(#28,#29);
#28=CALENDAR_DATE(0,1,1);
#29=LOCAL_TIME(0,0,0.,#30);
#30=COORDINATED_UNIVERSAL_TIME_OFFSET(0,0,.AHEAD.);
#31=DATE_TIME_ROLE('creation_date');
#32=CC_DESIGN_APPROVAL(#33,(#13));
#33=APPROVAL(#34,'UNSPECIFIED');
#34=APPROVAL_STATUS('not_yet_approved');
#35=APPROVAL_DATE_TIME(#36,#33);
#36=DATE_AND_TIME(#37,#38);
#37=CALENDAR_DATE(0,1,1);
#38=LOCAL_TIME(0,0,0.,#39);
#39=COORDINATED_UNIVERSAL_TIME_OFFSET(0,0,.AHEAD.);
#40=DERIVED_UNIT((#44,#41));
#41=DERIVED_UNIT_ELEMENT(#42,-1.);
#42=VOLUME_UNIT(#43);
#43=DIMENSIONAL_EXPONENTS(3.,0.,0.,0.,0.,0.,0.);
#44=(DERIVED_UNIT_ELEMENT($,-1.)NAMED_UNIT($)MASS_UNIT()SI_UNIT($,.GRAM.));
#45=MANIFOLD_SOLID_BREP('',#46);
#46=CLOSED_SHELL('',(#199,#208,#217,#226,#235,#244,#253,#262,#271,#280,#289,#298,
#307,#316,#325,#334,#343,#352,#361,#370,#379,#388,#397,#406,#415,#424,#433,#442,
#451,#460,#469,#478,#487,#496,#505,#514,#523,#532));
#47=COLOUR_RGB($,0.156862745098039,0.156862745098039,0.156862745098039);
#48=FILL_AREA_STYLE_COLOUR($,#47);
#49=FILL_AREA_STYLE($,(#48));
#50=SURFACE_STYLE_FILL_AREA(#49);
#51=SURFACE_SIDE_STYLE('',(#50));
#52=SURFACE_STYLE_USAGE(.BOTH.,#51);
#53=PRESENTATION_STYLE_ASSIGNMENT((#52));
#54=MECHANICAL_DESIGN_GEOMETRIC_PRESENTATION_REPRESENTATION('NONE',(#55,#96,#207,
#216,#225,#234,#243,#252,#261,#270,#279,#288,#297,#306,#315,#324,#333,#342,#351,
#360,#369,#378,#387,#396,#405,#414,#423,#432,#441,#450,#459,#468,#477,#486,#495,
#504,#513,#522,#531,#540,#549,#558,#567,#576,#585,#594,#603,#612,#621,#630,#639,
#648,#657,#666,#675,#684,#693,#702),#6);
#55=STYLED_ITEM('',(#53),#45);
#56=ADVANCED_BREP_SHAPE_REPRESENTATION('NONE',(#45),#6);
#57=SHAPE_REPRESENTATION_RELATIONSHIP('','',#1,#56);
#58=AXIS2_PLACEMENT_3D('',#59,#60,#61);
#59=CARTESIAN_POINT('',(0.,0.,0.));
#60=DIRECTION('',(0.,0.,1.));
#61=DIRECTION('',(1.,0.,0.));
#62=SHAPE_REPRESENTATION('NONE',(#2),#6);
#63=SHAPE_DEFINITION_REPRESENTATION(#64,#62);
#64=PRODUCT_DEFINITION_SHAPE('NONE','NONE',#65);
#65=PRODUCT_DEFINITION('','UNSPECIFIED',#66,#69);
#66=PRODUCT_DEFINITION_FORMATION_WITH_SPECIFIED_SOURCE('ANY','UNSPECIFIED',#67,.NOT_KNOWN.);
#67=PRODUCT('','SxL-1xx-TT-11-pin','Based on Samtec Inc. SL, SDL series datasheet',
(#72));
#68=PRODUCT_RELATED_PRODUCT_CATEGORY('detail','',(#67));
#69=DESIGN_CONTEXT('detailed design',#70,'design');
#70=APPLICATION_CONTEXT('configuration controlled 3d designs of mechanical parts and assemblies');
#71=APPLICATION_PROTOCOL_DEFINITION('international standard','automotive_design',
2011,#70);
#72=PRODUCT_CONTEXT('NONE',#70,'mechanical');
#73=CC_DESIGN_DATE_AND_TIME_ASSIGNMENT(#74,#78,(#65));
#74=DATE_AND_TIME(#75,#76);
#75=CALENDAR_DATE(0,1,1);
#76=LOCAL_TIME(0,0,0.,#77);
#77=COORDINATED_UNIVERSAL_TIME_OFFSET(0,0,.AHEAD.);
#78=DATE_TIME_ROLE('creation_date');
#79=CC_DESIGN_APPROVAL(#80,(#65));
#80=APPROVAL(#81,'UNSPECIFIED');
#81=APPROVAL_STATUS('not_yet_approved');
#82=APPROVAL_DATE_TIME(#83,#80);
#83=DATE_AND_TIME(#84,#85);
#84=CALENDAR_DATE(0,1,1);
#85=LOCAL_TIME(0,0,0.,#86);
#86=COORDINATED_UNIVERSAL_TIME_OFFSET(0,0,.AHEAD.);
#87=MANIFOLD_SOLID_BREP('',#88);
#88=CLOSED_SHELL('',(#541,#550,#559,#568,#577,#586,#595,#604,#613,#622,#631,#640,
#649,#658,#667,#676,#685,#694));
#89=COLOUR_RGB($,0.827450980392157,0.831372549019608,0.835294117647059);
#90=FILL_AREA_STYLE_COLOUR($,#89);
#91=FILL_AREA_STYLE($,(#90));
#92=SURFACE_STYLE_FILL_AREA(#91);
#93=SURFACE_SIDE_STYLE('',(#92));
#94=SURFACE_STYLE_USAGE(.BOTH.,#93);
#95=PRESENTATION_STYLE_ASSIGNMENT((#94));
#96=STYLED_ITEM('',(#95),#87);
#97=ADVANCED_BREP_SHAPE_REPRESENTATION('NONE',(#87),#6);
#98=SHAPE_REPRESENTATION_RELATIONSHIP('','',#62,#97);
#99=ITEM_DEFINED_TRANSFORMATION('','',#2,#58);
#100=(REPRESENTATION_RELATIONSHIP('','',#62,#1)REPRESENTATION_RELATIONSHIP_WITH_TRANSFORMATION(
#99)SHAPE_REPRESENTATION_RELATIONSHIP());
#101=NEXT_ASSEMBLY_USAGE_OCCURRENCE('1','','',#13,#65,$);
#102=CC_DESIGN_SECURITY_CLASSIFICATION(#103,(#101));
#103=SECURITY_CLASSIFICATION('','',#104);
#104=SECURITY_CLASSIFICATION_LEVEL('unclassified');
#105=CC_DESIGN_DATE_AND_TIME_ASSIGNMENT(#106,#110,(#103));
#106=DATE_AND_TIME(#107,#108);
#107=CALENDAR_DATE(0,1,1);
#108=LOCAL_TIME(0,0,0.,#109);
#109=COORDINATED_UNIVERSAL_TIME_OFFSET(0,0,.AHEAD.);
#110=DATE_TIME_ROLE('classification_date');
#111=CC_DESIGN_APPROVAL(#112,(#103));
#112=APPROVAL(#113,'UNSPECIFIED');
#113=APPROVAL_STATUS('not_yet_approved');
#114=APPROVAL_DATE_TIME(#115,#112);
#115=DATE_AND_TIME(#116,#117);
#116=CALENDAR_DATE(0,1,1);
#117=LOCAL_TIME(0,0,0.,#118);
#118=COORDINATED_UNIVERSAL_TIME_OFFSET(0,0,.AHEAD.);
#119=PRODUCT_DEFINITION_SHAPE('NONE','NONE',#101);
#120=CONTEXT_DEPENDENT_SHAPE_REPRESENTATION(#100,#119);
#121=AXIS2_PLACEMENT_3D('',#122,#123,#124);
#122=CARTESIAN_POINT('',(2.54,0.,0.));
#123=DIRECTION('',(0.,0.,1.));
#124=DIRECTION('',(1.,0.,0.));
#125=ITEM_DEFINED_TRANSFORMATION('','',#2,#121);
#126=(REPRESENTATION_RELATIONSHIP('','',#62,#1)REPRESENTATION_RELATIONSHIP_WITH_TRANSFORMATION(
#125)SHAPE_REPRESENTATION_RELATIONSHIP());
#127=NEXT_ASSEMBLY_USAGE_OCCURRENCE('2','','',#13,#65,$);
#128=CC_DESIGN_SECURITY_CLASSIFICATION(#129,(#127));
#129=SECURITY_CLASSIFICATION('','',#130);
#130=SECURITY_CLASSIFICATION_LEVEL('unclassified');
#131=CC_DESIGN_DATE_AND_TIME_ASSIGNMENT(#132,#136,(#129));
#132=DATE_AND_TIME(#133,#134);
#133=CALENDAR_DATE(0,1,1);
#134=LOCAL_TIME(0,0,0.,#135);
#135=COORDINATED_UNIVERSAL_TIME_OFFSET(0,0,.AHEAD.);
#136=DATE_TIME_ROLE('classification_date');
#137=CC_DESIGN_APPROVAL(#138,(#129));
#138=APPROVAL(#139,'UNSPECIFIED');
#139=APPROVAL_STATUS('not_yet_approved');
#140=APPROVAL_DATE_TIME(#141,#138);
#141=DATE_AND_TIME(#142,#143);
#142=CALENDAR_DATE(0,1,1);
#143=LOCAL_TIME(0,0,0.,#144);
#144=COORDINATED_UNIVERSAL_TIME_OFFSET(0,0,.AHEAD.);
#145=PRODUCT_DEFINITION_SHAPE('NONE','NONE',#127);
#146=CONTEXT_DEPENDENT_SHAPE_REPRESENTATION(#126,#145);
#147=AXIS2_PLACEMENT_3D('',#148,#149,#150);
#148=CARTESIAN_POINT('',(5.08,0.,0.));
#149=DIRECTION('',(0.,0.,1.));
#150=DIRECTION('',(1.,0.,0.));
#151=ITEM_DEFINED_TRANSFORMATION('','',#2,#147);
#152=(REPRESENTATION_RELATIONSHIP('','',#62,#1)REPRESENTATION_RELATIONSHIP_WITH_TRANSFORMATION(
#151)SHAPE_REPRESENTATION_RELATIONSHIP());
#153=NEXT_ASSEMBLY_USAGE_OCCURRENCE('3','','',#13,#65,$);
#154=CC_DESIGN_SECURITY_CLASSIFICATION(#155,(#153));
#155=SECURITY_CLASSIFICATION('','',#156);
#156=SECURITY_CLASSIFICATION_LEVEL('unclassified');
#157=CC_DESIGN_DATE_AND_TIME_ASSIGNMENT(#158,#162,(#155));
#158=DATE_AND_TIME(#159,#160);
#159=CALENDAR_DATE(0,1,1);
#160=LOCAL_TIME(0,0,0.,#161);
#161=COORDINATED_UNIVERSAL_TIME_OFFSET(0,0,.AHEAD.);
#162=DATE_TIME_ROLE('classification_date');
#163=CC_DESIGN_APPROVAL(#164,(#155));
#164=APPROVAL(#165,'UNSPECIFIED');
#165=APPROVAL_STATUS('not_yet_approved');
#166=APPROVAL_DATE_TIME(#167,#164);
#167=DATE_AND_TIME(#168,#169);
#168=CALENDAR_DATE(0,1,1);
#169=LOCAL_TIME(0,0,0.,#170);
#170=COORDINATED_UNIVERSAL_TIME_OFFSET(0,0,.AHEAD.);
#171=PRODUCT_DEFINITION_SHAPE('NONE','NONE',#153);
#172=CONTEXT_DEPENDENT_SHAPE_REPRESENTATION(#152,#171);
#173=AXIS2_PLACEMENT_3D('',#174,#175,#176);
#174=CARTESIAN_POINT('',(7.62,0.,0.));
#175=DIRECTION('',(0.,0.,1.));
#176=DIRECTION('',(1.,0.,0.));
#177=ITEM_DEFINED_TRANSFORMATION('','',#2,#173);
#178=(REPRESENTATION_RELATIONSHIP('','',#62,#1)REPRESENTATION_RELATIONSHIP_WITH_TRANSFORMATION(
#177)SHAPE_REPRESENTATION_RELATIONSHIP());
#179=NEXT_ASSEMBLY_USAGE_OCCURRENCE('4','','',#13,#65,$);
#180=CC_DESIGN_SECURITY_CLASSIFICATION(#181,(#179));
#181=SECURITY_CLASSIFICATION('','',#182);
#182=SECURITY_CLASSIFICATION_LEVEL('unclassified');
#183=CC_DESIGN_DATE_AND_TIME_ASSIGNMENT(#184,#188,(#181));
#184=DATE_AND_TIME(#185,#186);
#185=CALENDAR_DATE(0,1,1);
#186=LOCAL_TIME(0,0,0.,#187);
#187=COORDINATED_UNIVERSAL_TIME_OFFSET(0,0,.AHEAD.);
#188=DATE_TIME_ROLE('classification_date');
#189=CC_DESIGN_APPROVAL(#190,(#181));
#190=APPROVAL(#191,'UNSPECIFIED');
#191=APPROVAL_STATUS('not_yet_approved');
#192=APPROVAL_DATE_TIME(#193,#190);
#193=DATE_AND_TIME(#194,#195);
#194=CALENDAR_DATE(0,1,1);
#195=LOCAL_TIME(0,0,0.,#196);
#196=COORDINATED_UNIVERSAL_TIME_OFFSET(0,0,.AHEAD.);
#197=PRODUCT_DEFINITION_SHAPE('NONE','NONE',#179);
#198=CONTEXT_DEPENDENT_SHAPE_REPRESENTATION(#178,#197);
#199=ADVANCED_FACE('',(#703),#705,.T.);
#200=COLOUR_RGB($,0.156862745098039,0.156862745098039,0.156862745098039);
#201=FILL_AREA_STYLE_COLOUR($,#200);
#202=FILL_AREA_STYLE($,(#201));
#203=SURFACE_STYLE_FILL_AREA(#202);
#204=SURFACE_SIDE_STYLE('',(#203));
#205=SURFACE_STYLE_USAGE(.BOTH.,#204);
#206=PRESENTATION_STYLE_ASSIGNMENT((#205));
#207=STYLED_ITEM('',(#206),#199);
#208=ADVANCED_FACE('',(#710),#712,.T.);
#209=COLOUR_RGB($,0.156862745098039,0.156862745098039,0.156862745098039);
#210=FILL_AREA_STYLE_COLOUR($,#209);
#211=FILL_AREA_STYLE($,(#210));
#212=SURFACE_STYLE_FILL_AREA(#211);
#213=SURFACE_SIDE_STYLE('',(#212));
#214=SURFACE_STYLE_USAGE(.BOTH.,#213);
#215=PRESENTATION_STYLE_ASSIGNMENT((#214));
#216=STYLED_ITEM('',(#215),#208);
#217=ADVANCED_FACE('',(#717),#719,.T.);
#218=COLOUR_RGB($,0.156862745098039,0.156862745098039,0.156862745098039);
#219=FILL_AREA_STYLE_COLOUR($,#218);
#220=FILL_AREA_STYLE($,(#219));
#221=SURFACE_STYLE_FILL_AREA(#220);
#222=SURFACE_SIDE_STYLE('',(#221));
#223=SURFACE_STYLE_USAGE(.BOTH.,#222);
#224=PRESENTATION_STYLE_ASSIGNMENT((#223));
#225=STYLED_ITEM('',(#224),#217);
#226=ADVANCED_FACE('',(#724),#726,.T.);
#227=COLOUR_RGB($,0.156862745098039,0.156862745098039,0.156862745098039);
#228=FILL_AREA_STYLE_COLOUR($,#227);
#229=FILL_AREA_STYLE($,(#228));
#230=SURFACE_STYLE_FILL_AREA(#229);
#231=SURFACE_SIDE_STYLE('',(#230));
#232=SURFACE_STYLE_USAGE(.BOTH.,#231);
#233=PRESENTATION_STYLE_ASSIGNMENT((#232));
#234=STYLED_ITEM('',(#233),#226);
#235=ADVANCED_FACE('',(#731),#733,.T.);
#236=COLOUR_RGB($,0.156862745098039,0.156862745098039,0.156862745098039);
#237=FILL_AREA_STYLE_COLOUR($,#236);
#238=FILL_AREA_STYLE($,(#237));
#239=SURFACE_STYLE_FILL_AREA(#238);
#240=SURFACE_SIDE_STYLE('',(#239));
#241=SURFACE_STYLE_USAGE(.BOTH.,#240);
#242=PRESENTATION_STYLE_ASSIGNMENT((#241));
#243=STYLED_ITEM('',(#242),#235);
#244=ADVANCED_FACE('',(#738),#740,.T.);
#245=COLOUR_RGB($,0.156862745098039,0.156862745098039,0.156862745098039);
#246=FILL_AREA_STYLE_COLOUR($,#245);
#247=FILL_AREA_STYLE($,(#246));
#248=SURFACE_STYLE_FILL_AREA(#247);
#249=SURFACE_SIDE_STYLE('',(#248));
#250=SURFACE_STYLE_USAGE(.BOTH.,#249);
#251=PRESENTATION_STYLE_ASSIGNMENT((#250));
#252=STYLED_ITEM('',(#251),#244);
#253=ADVANCED_FACE('',(#745,#747,#749,#751,#753),#755,.T.);
#254=COLOUR_RGB($,0.156862745098039,0.156862745098039,0.156862745098039);
#255=FILL_AREA_STYLE_COLOUR($,#254);
#256=FILL_AREA_STYLE($,(#255));
#257=SURFACE_STYLE_FILL_AREA(#256);
#258=SURFACE_SIDE_STYLE('',(#257));
#259=SURFACE_STYLE_USAGE(.BOTH.,#258);
#260=PRESENTATION_STYLE_ASSIGNMENT((#259));
#261=STYLED_ITEM('',(#260),#253);
#262=ADVANCED_FACE('',(#760,#762,#764,#766,#768),#770,.F.);
#263=COLOUR_RGB($,0.156862745098039,0.156862745098039,0.156862745098039);
#264=FILL_AREA_STYLE_COLOUR($,#263);
#265=FILL_AREA_STYLE($,(#264));
#266=SURFACE_STYLE_FILL_AREA(#265);
#267=SURFACE_SIDE_STYLE('',(#266));
#268=SURFACE_STYLE_USAGE(.BOTH.,#267);
#269=PRESENTATION_STYLE_ASSIGNMENT((#268));
#270=STYLED_ITEM('',(#269),#262);
#271=ADVANCED_FACE('',(#775),#777,.F.);
#272=COLOUR_RGB($,0.156862745098039,0.156862745098039,0.156862745098039);
#273=FILL_AREA_STYLE_COLOUR($,#272);
#274=FILL_AREA_STYLE($,(#273));
#275=SURFACE_STYLE_FILL_AREA(#274);
#276=SURFACE_SIDE_STYLE('',(#275));
#277=SURFACE_STYLE_USAGE(.BOTH.,#276);
#278=PRESENTATION_STYLE_ASSIGNMENT((#277));
#279=STYLED_ITEM('',(#278),#271);
#280=ADVANCED_FACE('',(#782),#784,.F.);
#281=COLOUR_RGB($,0.156862745098039,0.156862745098039,0.156862745098039);
#282=FILL_AREA_STYLE_COLOUR($,#281);
#283=FILL_AREA_STYLE($,(#282));
#284=SURFACE_STYLE_FILL_AREA(#283);
#285=SURFACE_SIDE_STYLE('',(#284));
#286=SURFACE_STYLE_USAGE(.BOTH.,#285);
#287=PRESENTATION_STYLE_ASSIGNMENT((#286));
#288=STYLED_ITEM('',(#287),#280);
#289=ADVANCED_FACE('',(#789),#791,.F.);
#290=COLOUR_RGB($,0.156862745098039,0.156862745098039,0.156862745098039);
#291=FILL_AREA_STYLE_COLOUR($,#290);
#292=FILL_AREA_STYLE($,(#291));
#293=SURFACE_STYLE_FILL_AREA(#292);
#294=SURFACE_SIDE_STYLE('',(#293));
#295=SURFACE_STYLE_USAGE(.BOTH.,#294);
#296=PRESENTATION_STYLE_ASSIGNMENT((#295));
#297=STYLED_ITEM('',(#296),#289);
#298=ADVANCED_FACE('',(#796),#798,.F.);
#299=COLOUR_RGB($,0.156862745098039,0.156862745098039,0.156862745098039);
#300=FILL_AREA_STYLE_COLOUR($,#299);
#301=FILL_AREA_STYLE($,(#300));
#302=SURFACE_STYLE_FILL_AREA(#301);
#303=SURFACE_SIDE_STYLE('',(#302));
#304=SURFACE_STYLE_USAGE(.BOTH.,#303);
#305=PRESENTATION_STYLE_ASSIGNMENT((#304));
#306=STYLED_ITEM('',(#305),#298);
#307=ADVANCED_FACE('',(#803),#805,.F.);
#308=COLOUR_RGB($,0.156862745098039,0.156862745098039,0.156862745098039);
#309=FILL_AREA_STYLE_COLOUR($,#308);
#310=FILL_AREA_STYLE($,(#309));
#311=SURFACE_STYLE_FILL_AREA(#310);
#312=SURFACE_SIDE_STYLE('',(#311));
#313=SURFACE_STYLE_USAGE(.BOTH.,#312);
#314=PRESENTATION_STYLE_ASSIGNMENT((#313));
#315=STYLED_ITEM('',(#314),#307);
#316=ADVANCED_FACE('',(#810),#812,.F.);
#317=COLOUR_RGB($,0.156862745098039,0.156862745098039,0.156862745098039);
#318=FILL_AREA_STYLE_COLOUR($,#317);
#319=FILL_AREA_STYLE($,(#318));
#320=SURFACE_STYLE_FILL_AREA(#319);
#321=SURFACE_SIDE_STYLE('',(#320));
#322=SURFACE_STYLE_USAGE(.BOTH.,#321);
#323=PRESENTATION_STYLE_ASSIGNMENT((#322));
#324=STYLED_ITEM('',(#323),#316);
#325=ADVANCED_FACE('',(#817),#819,.F.);
#326=COLOUR_RGB($,0.156862745098039,0.156862745098039,0.156862745098039);
#327=FILL_AREA_STYLE_COLOUR($,#326);
#328=FILL_AREA_STYLE($,(#327));
#329=SURFACE_STYLE_FILL_AREA(#328);
#330=SURFACE_SIDE_STYLE('',(#329));
#331=SURFACE_STYLE_USAGE(.BOTH.,#330);
#332=PRESENTATION_STYLE_ASSIGNMENT((#331));
#333=STYLED_ITEM('',(#332),#325);
#334=ADVANCED_FACE('',(#824),#826,.F.);
#335=COLOUR_RGB($,0.156862745098039,0.156862745098039,0.156862745098039);
#336=FILL_AREA_STYLE_COLOUR($,#335);
#337=FILL_AREA_STYLE($,(#336));
#338=SURFACE_STYLE_FILL_AREA(#337);
#339=SURFACE_SIDE_STYLE('',(#338));
#340=SURFACE_STYLE_USAGE(.BOTH.,#339);
#341=PRESENTATION_STYLE_ASSIGNMENT((#340));
#342=STYLED_ITEM('',(#341),#334);
#343=ADVANCED_FACE('',(#831),#833,.F.);
#344=COLOUR_RGB($,0.156862745098039,0.156862745098039,0.156862745098039);
#345=FILL_AREA_STYLE_COLOUR($,#344);
#346=FILL_AREA_STYLE($,(#345));
#347=SURFACE_STYLE_FILL_AREA(#346);
#348=SURFACE_SIDE_STYLE('',(#347));
#349=SURFACE_STYLE_USAGE(.BOTH.,#348);
#350=PRESENTATION_STYLE_ASSIGNMENT((#349));
#351=STYLED_ITEM('',(#350),#343);
#352=ADVANCED_FACE('',(#838),#840,.F.);
#353=COLOUR_RGB($,0.156862745098039,0.156862745098039,0.156862745098039);
#354=FILL_AREA_STYLE_COLOUR($,#353);
#355=FILL_AREA_STYLE($,(#354));
#356=SURFACE_STYLE_FILL_AREA(#355);
#357=SURFACE_SIDE_STYLE('',(#356));
#358=SURFACE_STYLE_USAGE(.BOTH.,#357);
#359=PRESENTATION_STYLE_ASSIGNMENT((#358));
#360=STYLED_ITEM('',(#359),#352);
#361=ADVANCED_FACE('',(#845),#847,.F.);
#362=COLOUR_RGB($,0.156862745098039,0.156862745098039,0.156862745098039);
#363=FILL_AREA_STYLE_COLOUR($,#362);
#364=FILL_AREA_STYLE($,(#363));
#365=SURFACE_STYLE_FILL_AREA(#364);
#366=SURFACE_SIDE_STYLE('',(#365));
#367=SURFACE_STYLE_USAGE(.BOTH.,#366);
#368=PRESENTATION_STYLE_ASSIGNMENT((#367));
#369=STYLED_ITEM('',(#368),#361);
#370=ADVANCED_FACE('',(#852),#854,.F.);
#371=COLOUR_RGB($,0.156862745098039,0.156862745098039,0.156862745098039);
#372=FILL_AREA_STYLE_COLOUR($,#371);
#373=FILL_AREA_STYLE($,(#372));
#374=SURFACE_STYLE_FILL_AREA(#373);
#375=SURFACE_SIDE_STYLE('',(#374));
#376=SURFACE_STYLE_USAGE(.BOTH.,#375);
#377=PRESENTATION_STYLE_ASSIGNMENT((#376));
#378=STYLED_ITEM('',(#377),#370);
#379=ADVANCED_FACE('',(#859),#861,.F.);
#380=COLOUR_RGB($,0.156862745098039,0.156862745098039,0.156862745098039);
#381=FILL_AREA_STYLE_COLOUR($,#380);
#382=FILL_AREA_STYLE($,(#381));
#383=SURFACE_STYLE_FILL_AREA(#382);
#384=SURFACE_SIDE_STYLE('',(#383));
#385=SURFACE_STYLE_USAGE(.BOTH.,#384);
#386=PRESENTATION_STYLE_ASSIGNMENT((#385));
#387=STYLED_ITEM('',(#386),#379);
#388=ADVANCED_FACE('',(#866),#868,.T.);
#389=COLOUR_RGB($,0.156862745098039,0.156862745098039,0.156862745098039);
#390=FILL_AREA_STYLE_COLOUR($,#389);
#391=FILL_AREA_STYLE($,(#390));
#392=SURFACE_STYLE_FILL_AREA(#391);
#393=SURFACE_SIDE_STYLE('',(#392));
#394=SURFACE_STYLE_USAGE(.BOTH.,#393);
#395=PRESENTATION_STYLE_ASSIGNMENT((#394));
#396=STYLED_ITEM('',(#395),#388);
#397=ADVANCED_FACE('',(#873),#875,.F.);
#398=COLOUR_RGB($,0.156862745098039,0.156862745098039,0.156862745098039);
#399=FILL_AREA_STYLE_COLOUR($,#398);
#400=FILL_AREA_STYLE($,(#399));
#401=SURFACE_STYLE_FILL_AREA(#400);
#402=SURFACE_SIDE_STYLE('',(#401));
#403=SURFACE_STYLE_USAGE(.BOTH.,#402);
#404=PRESENTATION_STYLE_ASSIGNMENT((#403));
#405=STYLED_ITEM('',(#404),#397);
#406=ADVANCED_FACE('',(#880),#882,.T.);
#407=COLOUR_RGB($,0.156862745098039,0.156862745098039,0.156862745098039);
#408=FILL_AREA_STYLE_COLOUR($,#407);
#409=FILL_AREA_STYLE($,(#408));
#410=SURFACE_STYLE_FILL_AREA(#409);
#411=SURFACE_SIDE_STYLE('',(#410));
#412=SURFACE_STYLE_USAGE(.BOTH.,#411);
#413=PRESENTATION_STYLE_ASSIGNMENT((#412));
#414=STYLED_ITEM('',(#413),#406);
#415=ADVANCED_FACE('',(#887),#889,.F.);
#416=COLOUR_RGB($,0.156862745098039,0.156862745098039,0.156862745098039);
#417=FILL_AREA_STYLE_COLOUR($,#416);
#418=FILL_AREA_STYLE($,(#417));
#419=SURFACE_STYLE_FILL_AREA(#418);
#420=SURFACE_SIDE_STYLE('',(#419));
#421=SURFACE_STYLE_USAGE(.BOTH.,#420);
#422=PRESENTATION_STYLE_ASSIGNMENT((#421));
#423=STYLED_ITEM('',(#422),#415);
#424=ADVANCED_FACE('',(#894),#896,.F.);
#425=COLOUR_RGB($,0.156862745098039,0.156862745098039,0.156862745098039);
#426=FILL_AREA_STYLE_COLOUR($,#425);
#427=FILL_AREA_STYLE($,(#426));
#428=SURFACE_STYLE_FILL_AREA(#427);
#429=SURFACE_SIDE_STYLE('',(#428));
#430=SURFACE_STYLE_USAGE(.BOTH.,#429);
#431=PRESENTATION_STYLE_ASSIGNMENT((#430));
#432=STYLED_ITEM('',(#431),#424);
#433=ADVANCED_FACE('',(#901),#903,.T.);
#434=COLOUR_RGB($,0.156862745098039,0.156862745098039,0.156862745098039);
#435=FILL_AREA_STYLE_COLOUR($,#434);
#436=FILL_AREA_STYLE($,(#435));
#437=SURFACE_STYLE_FILL_AREA(#436);
#438=SURFACE_SIDE_STYLE('',(#437));
#439=SURFACE_STYLE_USAGE(.BOTH.,#438);
#440=PRESENTATION_STYLE_ASSIGNMENT((#439));
#441=STYLED_ITEM('',(#440),#433);
#442=ADVANCED_FACE('',(#908),#910,.T.);
#443=COLOUR_RGB($,0.156862745098039,0.156862745098039,0.156862745098039);
#444=FILL_AREA_STYLE_COLOUR($,#443);
#445=FILL_AREA_STYLE($,(#444));
#446=SURFACE_STYLE_FILL_AREA(#445);
#447=SURFACE_SIDE_STYLE('',(#446));
#448=SURFACE_STYLE_USAGE(.BOTH.,#447);
#449=PRESENTATION_STYLE_ASSIGNMENT((#448));
#450=STYLED_ITEM('',(#449),#442);
#451=ADVANCED_FACE('',(#915),#917,.T.);
#452=COLOUR_RGB($,0.156862745098039,0.156862745098039,0.156862745098039);
#453=FILL_AREA_STYLE_COLOUR($,#452);
#454=FILL_AREA_STYLE($,(#453));
#455=SURFACE_STYLE_FILL_AREA(#454);
#456=SURFACE_SIDE_STYLE('',(#455));
#457=SURFACE_STYLE_USAGE(.BOTH.,#456);
#458=PRESENTATION_STYLE_ASSIGNMENT((#457));
#459=STYLED_ITEM('',(#458),#451);
#460=ADVANCED_FACE('',(#922),#924,.T.);
#461=COLOUR_RGB($,0.156862745098039,0.156862745098039,0.156862745098039);
#462=FILL_AREA_STYLE_COLOUR($,#461);
#463=FILL_AREA_STYLE($,(#462));
#464=SURFACE_STYLE_FILL_AREA(#463);
#465=SURFACE_SIDE_STYLE('',(#464));
#466=SURFACE_STYLE_USAGE(.BOTH.,#465);
#467=PRESENTATION_STYLE_ASSIGNMENT((#466));
#468=STYLED_ITEM('',(#467),#460);
#469=ADVANCED_FACE('',(#929),#931,.T.);
#470=COLOUR_RGB($,0.156862745098039,0.156862745098039,0.156862745098039);
#471=FILL_AREA_STYLE_COLOUR($,#470);
#472=FILL_AREA_STYLE($,(#471));
#473=SURFACE_STYLE_FILL_AREA(#472);
#474=SURFACE_SIDE_STYLE('',(#473));
#475=SURFACE_STYLE_USAGE(.BOTH.,#474);
#476=PRESENTATION_STYLE_ASSIGNMENT((#475));
#477=STYLED_ITEM('',(#476),#469);
#478=ADVANCED_FACE('',(#936),#938,.F.);
#479=COLOUR_RGB($,0.156862745098039,0.156862745098039,0.156862745098039);
#480=FILL_AREA_STYLE_COLOUR($,#479);
#481=FILL_AREA_STYLE($,(#480));
#482=SURFACE_STYLE_FILL_AREA(#481);
#483=SURFACE_SIDE_STYLE('',(#482));
#484=SURFACE_STYLE_USAGE(.BOTH.,#483);
#485=PRESENTATION_STYLE_ASSIGNMENT((#484));
#486=STYLED_ITEM('',(#485),#478);
#487=ADVANCED_FACE('',(#943),#945,.F.);
#488=COLOUR_RGB($,0.156862745098039,0.156862745098039,0.156862745098039);
#489=FILL_AREA_STYLE_COLOUR($,#488);
#490=FILL_AREA_STYLE($,(#489));
#491=SURFACE_STYLE_FILL_AREA(#490);
#492=SURFACE_SIDE_STYLE('',(#491));
#493=SURFACE_STYLE_USAGE(.BOTH.,#492);
#494=PRESENTATION_STYLE_ASSIGNMENT((#493));
#495=STYLED_ITEM('',(#494),#487);
#496=ADVANCED_FACE('',(#950),#952,.T.);
#497=COLOUR_RGB($,0.156862745098039,0.156862745098039,0.156862745098039);
#498=FILL_AREA_STYLE_COLOUR($,#497);
#499=FILL_AREA_STYLE($,(#498));
#500=SURFACE_STYLE_FILL_AREA(#499);
#501=SURFACE_SIDE_STYLE('',(#500));
#502=SURFACE_STYLE_USAGE(.BOTH.,#501);
#503=PRESENTATION_STYLE_ASSIGNMENT((#502));
#504=STYLED_ITEM('',(#503),#496);
#505=ADVANCED_FACE('',(#957,#959),#961,.F.);
#506=COLOUR_RGB($,0.156862745098039,0.156862745098039,0.156862745098039);
#507=FILL_AREA_STYLE_COLOUR($,#506);
#508=FILL_AREA_STYLE($,(#507));
#509=SURFACE_STYLE_FILL_AREA(#508);
#510=SURFACE_SIDE_STYLE('',(#509));
#511=SURFACE_STYLE_USAGE(.BOTH.,#510);
#512=PRESENTATION_STYLE_ASSIGNMENT((#511));
#513=STYLED_ITEM('',(#512),#505);
#514=ADVANCED_FACE('',(#966,#968),#970,.F.);
#515=COLOUR_RGB($,0.156862745098039,0.156862745098039,0.156862745098039);
#516=FILL_AREA_STYLE_COLOUR($,#515);
#517=FILL_AREA_STYLE($,(#516));
#518=SURFACE_STYLE_FILL_AREA(#517);
#519=SURFACE_SIDE_STYLE('',(#518));
#520=SURFACE_STYLE_USAGE(.BOTH.,#519);
#521=PRESENTATION_STYLE_ASSIGNMENT((#520));
#522=STYLED_ITEM('',(#521),#514);
#523=ADVANCED_FACE('',(#975,#977),#979,.F.);
#524=COLOUR_RGB($,0.156862745098039,0.156862745098039,0.156862745098039);
#525=FILL_AREA_STYLE_COLOUR($,#524);
#526=FILL_AREA_STYLE($,(#525));
#527=SURFACE_STYLE_FILL_AREA(#526);
#528=SURFACE_SIDE_STYLE('',(#527));
#529=SURFACE_STYLE_USAGE(.BOTH.,#528);
#530=PRESENTATION_STYLE_ASSIGNMENT((#529));
#531=STYLED_ITEM('',(#530),#523);
#532=ADVANCED_FACE('',(#984,#986),#988,.F.);
#533=COLOUR_RGB($,0.156862745098039,0.156862745098039,0.156862745098039);
#534=FILL_AREA_STYLE_COLOUR($,#533);
#535=FILL_AREA_STYLE($,(#534));
#536=SURFACE_STYLE_FILL_AREA(#535);
#537=SURFACE_SIDE_STYLE('',(#536));
#538=SURFACE_STYLE_USAGE(.BOTH.,#537);
#539=PRESENTATION_STYLE_ASSIGNMENT((#538));
#540=STYLED_ITEM('',(#539),#532);
#541=ADVANCED_FACE('',(#993),#995,.T.);
#542=COLOUR_RGB($,0.827450980392157,0.831372549019608,0.835294117647059);
#543=FILL_AREA_STYLE_COLOUR($,#542);
#544=FILL_AREA_STYLE($,(#543));
#545=SURFACE_STYLE_FILL_AREA(#544);
#546=SURFACE_SIDE_STYLE('',(#545));
#547=SURFACE_STYLE_USAGE(.BOTH.,#546);
#548=PRESENTATION_STYLE_ASSIGNMENT((#547));
#549=STYLED_ITEM('',(#548),#541);
#550=ADVANCED_FACE('',(#1000,#1002),#1004,.T.);
#551=COLOUR_RGB($,0.827450980392157,0.831372549019608,0.835294117647059);
#552=FILL_AREA_STYLE_COLOUR($,#551);
#553=FILL_AREA_STYLE($,(#552));
#554=SURFACE_STYLE_FILL_AREA(#553);
#555=SURFACE_SIDE_STYLE('',(#554));
#556=SURFACE_STYLE_USAGE(.BOTH.,#555);
#557=PRESENTATION_STYLE_ASSIGNMENT((#556));
#558=STYLED_ITEM('',(#557),#550);
#559=ADVANCED_FACE('',(#1009,#1011),#1013,.T.);
#560=COLOUR_RGB($,0.827450980392157,0.831372549019608,0.835294117647059);
#561=FILL_AREA_STYLE_COLOUR($,#560);
#562=FILL_AREA_STYLE($,(#561));
#563=SURFACE_STYLE_FILL_AREA(#562);
#564=SURFACE_SIDE_STYLE('',(#563));
#565=SURFACE_STYLE_USAGE(.BOTH.,#564);
#566=PRESENTATION_STYLE_ASSIGNMENT((#565));
#567=STYLED_ITEM('',(#566),#559);
#568=ADVANCED_FACE('',(#1018,#1020),#1022,.T.);
#569=COLOUR_RGB($,0.827450980392157,0.831372549019608,0.835294117647059);
#570=FILL_AREA_STYLE_COLOUR($,#569);
#571=FILL_AREA_STYLE($,(#570));
#572=SURFACE_STYLE_FILL_AREA(#571);
#573=SURFACE_SIDE_STYLE('',(#572));
#574=SURFACE_STYLE_USAGE(.BOTH.,#573);
#575=PRESENTATION_STYLE_ASSIGNMENT((#574));
#576=STYLED_ITEM('',(#575),#568);
#577=ADVANCED_FACE('',(#1027,#1029),#1031,.T.);
#578=COLOUR_RGB($,0.827450980392157,0.831372549019608,0.835294117647059);
#579=FILL_AREA_STYLE_COLOUR($,#578);
#580=FILL_AREA_STYLE($,(#579));
#581=SURFACE_STYLE_FILL_AREA(#580);
#582=SURFACE_SIDE_STYLE('',(#581));
#583=SURFACE_STYLE_USAGE(.BOTH.,#582);
#584=PRESENTATION_STYLE_ASSIGNMENT((#583));
#585=STYLED_ITEM('',(#584),#577);
#586=ADVANCED_FACE('',(#1036,#1038),#1040,.T.);
#587=COLOUR_RGB($,0.827450980392157,0.831372549019608,0.835294117647059);
#588=FILL_AREA_STYLE_COLOUR($,#587);
#589=FILL_AREA_STYLE($,(#588));
#590=SURFACE_STYLE_FILL_AREA(#589);
#591=SURFACE_SIDE_STYLE('',(#590));
#592=SURFACE_STYLE_USAGE(.BOTH.,#591);
#593=PRESENTATION_STYLE_ASSIGNMENT((#592));
#594=STYLED_ITEM('',(#593),#586);
#595=ADVANCED_FACE('',(#1045,#1047),#1049,.T.);
#596=COLOUR_RGB($,0.827450980392157,0.831372549019608,0.835294117647059);
#597=FILL_AREA_STYLE_COLOUR($,#596);
#598=FILL_AREA_STYLE($,(#597));
#599=SURFACE_STYLE_FILL_AREA(#598);
#600=SURFACE_SIDE_STYLE('',(#599));
#601=SURFACE_STYLE_USAGE(.BOTH.,#600);
#602=PRESENTATION_STYLE_ASSIGNMENT((#601));
#603=STYLED_ITEM('',(#602),#595);
#604=ADVANCED_FACE('',(#1054,#1056),#1058,.T.);
#605=COLOUR_RGB($,0.827450980392157,0.831372549019608,0.835294117647059);
#606=FILL_AREA_STYLE_COLOUR($,#605);
#607=FILL_AREA_STYLE($,(#606));
#608=SURFACE_STYLE_FILL_AREA(#607);
#609=SURFACE_SIDE_STYLE('',(#608));
#610=SURFACE_STYLE_USAGE(.BOTH.,#609);
#611=PRESENTATION_STYLE_ASSIGNMENT((#610));
#612=STYLED_ITEM('',(#611),#604);
#613=ADVANCED_FACE('',(#1063,#1065),#1067,.T.);
#614=COLOUR_RGB($,0.827450980392157,0.831372549019608,0.835294117647059);
#615=FILL_AREA_STYLE_COLOUR($,#614);
#616=FILL_AREA_STYLE($,(#615));
#617=SURFACE_STYLE_FILL_AREA(#616);
#618=SURFACE_SIDE_STYLE('',(#617));
#619=SURFACE_STYLE_USAGE(.BOTH.,#618);
#620=PRESENTATION_STYLE_ASSIGNMENT((#619));
#621=STYLED_ITEM('',(#620),#613);
#622=ADVANCED_FACE('',(#1072,#1074),#1076,.T.);
#623=COLOUR_RGB($,0.827450980392157,0.831372549019608,0.835294117647059);
#624=FILL_AREA_STYLE_COLOUR($,#623);
#625=FILL_AREA_STYLE($,(#624));
#626=SURFACE_STYLE_FILL_AREA(#625);
#627=SURFACE_SIDE_STYLE('',(#626));
#628=SURFACE_STYLE_USAGE(.BOTH.,#627);
#629=PRESENTATION_STYLE_ASSIGNMENT((#628));
#630=STYLED_ITEM('',(#629),#622);
#631=ADVANCED_FACE('',(#1081,#1083),#1085,.T.);
#632=COLOUR_RGB($,0.827450980392157,0.831372549019608,0.835294117647059);
#633=FILL_AREA_STYLE_COLOUR($,#632);
#634=FILL_AREA_STYLE($,(#633));
#635=SURFACE_STYLE_FILL_AREA(#634);
#636=SURFACE_SIDE_STYLE('',(#635));
#637=SURFACE_STYLE_USAGE(.BOTH.,#636);
#638=PRESENTATION_STYLE_ASSIGNMENT((#637));
#639=STYLED_ITEM('',(#638),#631);
#640=ADVANCED_FACE('',(#1090,#1092),#1094,.F.);
#641=COLOUR_RGB($,0.827450980392157,0.831372549019608,0.835294117647059);
#642=FILL_AREA_STYLE_COLOUR($,#641);
#643=FILL_AREA_STYLE($,(#642));
#644=SURFACE_STYLE_FILL_AREA(#643);
#645=SURFACE_SIDE_STYLE('',(#644));
#646=SURFACE_STYLE_USAGE(.BOTH.,#645);
#647=PRESENTATION_STYLE_ASSIGNMENT((#646));
#648=STYLED_ITEM('',(#647),#640);
#649=ADVANCED_FACE('',(#1099,#1101),#1103,.F.);
#650=COLOUR_RGB($,0.827450980392157,0.831372549019608,0.835294117647059);
#651=FILL_AREA_STYLE_COLOUR($,#650);
#652=FILL_AREA_STYLE($,(#651));
#653=SURFACE_STYLE_FILL_AREA(#652);
#654=SURFACE_SIDE_STYLE('',(#653));
#655=SURFACE_STYLE_USAGE(.BOTH.,#654);
#656=PRESENTATION_STYLE_ASSIGNMENT((#655));
#657=STYLED_ITEM('',(#656),#649);
#658=ADVANCED_FACE('',(#1108,#1110),#1112,.F.);
#659=COLOUR_RGB($,0.827450980392157,0.831372549019608,0.835294117647059);
#660=FILL_AREA_STYLE_COLOUR($,#659);
#661=FILL_AREA_STYLE($,(#660));
#662=SURFACE_STYLE_FILL_AREA(#661);
#663=SURFACE_SIDE_STYLE('',(#662));
#664=SURFACE_STYLE_USAGE(.BOTH.,#663);
#665=PRESENTATION_STYLE_ASSIGNMENT((#664));
#666=STYLED_ITEM('',(#665),#658);
#667=ADVANCED_FACE('',(#1117,#1119),#1121,.T.);
#668=COLOUR_RGB($,0.827450980392157,0.831372549019608,0.835294117647059);
#669=FILL_AREA_STYLE_COLOUR($,#668);
#670=FILL_AREA_STYLE($,(#669));
#671=SURFACE_STYLE_FILL_AREA(#670);
#672=SURFACE_SIDE_STYLE('',(#671));
#673=SURFACE_STYLE_USAGE(.BOTH.,#672);
#674=PRESENTATION_STYLE_ASSIGNMENT((#673));
#675=STYLED_ITEM('',(#674),#667);
#676=ADVANCED_FACE('',(#1126,#1128),#1130,.F.);
#677=COLOUR_RGB($,0.827450980392157,0.831372549019608,0.835294117647059);
#678=FILL_AREA_STYLE_COLOUR($,#677);
#679=FILL_AREA_STYLE($,(#678));
#680=SURFACE_STYLE_FILL_AREA(#679);
#681=SURFACE_SIDE_STYLE('',(#680));
#682=SURFACE_STYLE_USAGE(.BOTH.,#681);
#683=PRESENTATION_STYLE_ASSIGNMENT((#682));
#684=STYLED_ITEM('',(#683),#676);
#685=ADVANCED_FACE('',(#1135,#1137),#1139,.F.);
#686=COLOUR_RGB($,0.827450980392157,0.831372549019608,0.835294117647059);
#687=FILL_AREA_STYLE_COLOUR($,#686);
#688=FILL_AREA_STYLE($,(#687));
#689=SURFACE_STYLE_FILL_AREA(#688);
#690=SURFACE_SIDE_STYLE('',(#689));
#691=SURFACE_STYLE_USAGE(.BOTH.,#690);
#692=PRESENTATION_STYLE_ASSIGNMENT((#691));
#693=STYLED_ITEM('',(#692),#685);
#694=ADVANCED_FACE('',(#1144),#1146,.T.);
#695=COLOUR_RGB($,0.827450980392157,0.831372549019608,0.835294117647059);
#696=FILL_AREA_STYLE_COLOUR($,#695);
#697=FILL_AREA_STYLE($,(#696));
#698=SURFACE_STYLE_FILL_AREA(#697);
#699=SURFACE_SIDE_STYLE('',(#698));
#700=SURFACE_STYLE_USAGE(.BOTH.,#699);
#701=PRESENTATION_STYLE_ASSIGNMENT((#700));
#702=STYLED_ITEM('',(#701),#694);
#703=FACE_BOUND('',#704,.T.);
#704=EDGE_LOOP('',(#1151,#1152,#1153,#1154));
#705=PLANE('',#706);
#706=AXIS2_PLACEMENT_3D('',#707,#708,#709);
#707=CARTESIAN_POINT('',(-1.2451077025535,-1.27,1.57));
#708=DIRECTION('',(0.,-1.,0.));
#709=DIRECTION('',(1.,0.,0.));
#710=FACE_BOUND('',#711,.T.);
#711=EDGE_LOOP('',(#1155,#1156,#1157,#1158));
#712=PLANE('',#713);
#713=AXIS2_PLACEMENT_3D('',#714,#715,#716);
#714=CARTESIAN_POINT('',(-1.2451077025535,-1.27,1.57));
#715=DIRECTION('',(0.,-1.,0.));
#716=DIRECTION('',(1.,0.,0.));
#717=FACE_BOUND('',#718,.T.);
#718=EDGE_LOOP('',(#1159,#1160,#1161,#1162));
#719=PLANE('',#720);
#720=AXIS2_PLACEMENT_3D('',#721,#722,#723);
#721=CARTESIAN_POINT('',(-1.2451077025535,-1.27,1.57));
#722=DIRECTION('',(0.,-1.,0.));
#723=DIRECTION('',(1.,0.,0.));
#724=FACE_BOUND('',#725,.T.);
#725=EDGE_LOOP('',(#1163,#1164,#1165,#1166));
#726=PLANE('',#727);
#727=AXIS2_PLACEMENT_3D('',#728,#729,#730);
#728=CARTESIAN_POINT('',(8.8651077025535,1.27,1.57));
#729=DIRECTION('',(0.,1.,-0.));
#730=DIRECTION('',(-1.,0.,0.));
#731=FACE_BOUND('',#732,.T.);
#732=EDGE_LOOP('',(#1167,#1168,#1169,#1170));
#733=PLANE('',#734);
#734=AXIS2_PLACEMENT_3D('',#735,#736,#737);
#735=CARTESIAN_POINT('',(8.8651077025535,1.27,1.57));
#736=DIRECTION('',(0.,1.,-0.));
#737=DIRECTION('',(-1.,0.,0.));
#738=FACE_BOUND('',#739,.T.);
#739=EDGE_LOOP('',(#1171,#1172,#1173,#1174));
#740=PLANE('',#741);
#741=AXIS2_PLACEMENT_3D('',#742,#743,#744);
#742=CARTESIAN_POINT('',(8.8651077025535,1.27,1.57));
#743=DIRECTION('',(0.,1.,-0.));
#744=DIRECTION('',(-1.,0.,0.));
#745=FACE_BOUND('',#746,.T.);
#746=EDGE_LOOP('',(#1175,#1176,#1177,#1178,#1179,#1180,#1181,#1182,#1183,#1184,#1185,
#1186,#1187,#1188,#1189,#1190,#1191,#1192,#1193,#1194,#1195,#1196,#1197,#1198,#1199,
#1200,#1201,#1202,#1203,#1204,#1205,#1206));
#747=FACE_BOUND('',#748,.T.);
#748=EDGE_LOOP('',(#1207));
#749=FACE_BOUND('',#750,.T.);
#750=EDGE_LOOP('',(#1208));
#751=FACE_BOUND('',#752,.T.);
#752=EDGE_LOOP('',(#1209));
#753=FACE_BOUND('',#754,.T.);
#754=EDGE_LOOP('',(#1210));
#755=PLANE('',#756);
#756=AXIS2_PLACEMENT_3D('',#757,#758,#759);
#757=CARTESIAN_POINT('',(0.,0.,2.84));
#758=DIRECTION('',(0.,0.,1.));
#759=DIRECTION('',(1.,0.,0.));
#760=FACE_BOUND('',#761,.T.);
#761=EDGE_LOOP('',(#1211,#1212,#1213,#1214,#1215,#1216,#1217,#1218,#1219,#1220,#1221,
#1222,#1223,#1224,#1225,#1226,#1227,#1228,#1229,#1230,#1231,#1232,#1233,#1234,#1235,
#1236,#1237,#1238,#1239,#1240,#1241,#1242));
#762=FACE_BOUND('',#763,.T.);
#763=EDGE_LOOP('',(#1243));
#764=FACE_BOUND('',#765,.T.);
#765=EDGE_LOOP('',(#1244));
#766=FACE_BOUND('',#767,.T.);
#767=EDGE_LOOP('',(#1245));
#768=FACE_BOUND('',#769,.T.);
#769=EDGE_LOOP('',(#1246));
#770=PLANE('',#771);
#771=AXIS2_PLACEMENT_3D('',#772,#773,#774);
#772=CARTESIAN_POINT('',(0.,0.,1.57));
#773=DIRECTION('',(0.,0.,1.));
#774=DIRECTION('',(1.,0.,0.));
#775=FACE_BOUND('',#776,.T.);
#776=EDGE_LOOP('',(#1247,#1248,#1249,#1250));
#777=PLANE('',#778);
#778=AXIS2_PLACEMENT_3D('',#779,#780,#781);
#779=CARTESIAN_POINT('',(6.50900440526804,-1.27,1.57));
#780=DIRECTION('',(0.906307787039943,0.422618261733638,-0.));
#781=DIRECTION('',(-0.422618261733638,0.906307787039943,0.));
#782=FACE_BOUND('',#783,.T.);
#783=EDGE_LOOP('',(#1251,#1252,#1253,#1254));
#784=PLANE('',#785);
#785=AXIS2_PLACEMENT_3D('',#786,#787,#788);
#786=CARTESIAN_POINT('',(6.32281076638794,-0.987321452149846,1.57));
#787=DIRECTION('',(-0.906307787039943,0.422618261733637,0.));
#788=DIRECTION('',(-0.422618261733637,-0.906307787039943,0.));
#789=FACE_BOUND('',#790,.T.);
#790=EDGE_LOOP('',(#1255,#1256,#1257,#1258));
#791=CYLINDRICAL_SURFACE('',#792,0.03);
#792=AXIS2_PLACEMENT_3D('',#793,#794,#795);
#793=CARTESIAN_POINT('',(6.35,-1.,1.57));
#794=DIRECTION('',(0.,0.,1.));
#795=DIRECTION('',(0.906307786970437,0.422618261882694,0.));
#796=FACE_BOUND('',#797,.T.);
#797=EDGE_LOOP('',(#1259,#1260,#1261,#1262));
#798=CYLINDRICAL_SURFACE('',#799,0.03);
#799=AXIS2_PLACEMENT_3D('',#800,#801,#802);
#800=CARTESIAN_POINT('',(6.35,1.,1.57));
#801=DIRECTION('',(0.,0.,1.));
#802=DIRECTION('',(-0.906307787035285,-0.422618261743626,0.));
#803=FACE_BOUND('',#804,.T.);
#804=EDGE_LOOP('',(#1263,#1264,#1265,#1266));
#805=PLANE('',#806);
#806=AXIS2_PLACEMENT_3D('',#807,#808,#809);
#807=CARTESIAN_POINT('',(6.19099559472815,1.27,1.57));
#808=DIRECTION('',(-0.906307787035266,-0.422618261743666,0.));
#809=DIRECTION('',(0.422618261743666,-0.906307787035267,0.));
#810=FACE_BOUND('',#811,.T.);
#811=EDGE_LOOP('',(#1267,#1268,#1269,#1270));
#812=PLANE('',#813);
#813=AXIS2_PLACEMENT_3D('',#814,#815,#816);
#814=CARTESIAN_POINT('',(6.37718923361106,0.987321452147693,1.57));
#815=DIRECTION('',(0.906307787035268,-0.422618261743663,0.));
#816=DIRECTION('',(0.422618261743663,0.906307787035268,0.));
#817=FACE_BOUND('',#818,.T.);
#818=EDGE_LOOP('',(#1271,#1272,#1273,#1274));
#819=PLANE('',#820);
#820=AXIS2_PLACEMENT_3D('',#821,#822,#823);
#821=CARTESIAN_POINT('',(3.96900440526804,-1.27,1.57));
#822=DIRECTION('',(0.906307787039943,0.422618261733638,-0.));
#823=DIRECTION('',(-0.422618261733638,0.906307787039943,0.));
#824=FACE_BOUND('',#825,.T.);
#825=EDGE_LOOP('',(#1275,#1276,#1277,#1278));
#826=PLANE('',#827);
#827=AXIS2_PLACEMENT_3D('',#828,#829,#830);
#828=CARTESIAN_POINT('',(3.78281076638794,-0.987321452149846,1.57));
#829=DIRECTION('',(-0.906307787039943,0.422618261733637,0.));
#830=DIRECTION('',(-0.422618261733637,-0.906307787039943,0.));
#831=FACE_BOUND('',#832,.T.);
#832=EDGE_LOOP('',(#1279,#1280,#1281,#1282));
#833=CYLINDRICAL_SURFACE('',#834,0.03);
#834=AXIS2_PLACEMENT_3D('',#835,#836,#837);
#835=CARTESIAN_POINT('',(3.81,-1.,1.57));
#836=DIRECTION('',(0.,0.,1.));
#837=DIRECTION('',(0.906307786970437,0.422618261882694,0.));
#838=FACE_BOUND('',#839,.T.);
#839=EDGE_LOOP('',(#1283,#1284,#1285,#1286));
#840=CYLINDRICAL_SURFACE('',#841,0.03);
#841=AXIS2_PLACEMENT_3D('',#842,#843,#844);
#842=CARTESIAN_POINT('',(3.81,1.,1.57));
#843=DIRECTION('',(0.,0.,1.));
#844=DIRECTION('',(-0.906307787035285,-0.422618261743626,0.));
#845=FACE_BOUND('',#846,.T.);
#846=EDGE_LOOP('',(#1287,#1288,#1289,#1290));
#847=PLANE('',#848);
#848=AXIS2_PLACEMENT_3D('',#849,#850,#851);
#849=CARTESIAN_POINT('',(3.65099559472815,1.27,1.57));
#850=DIRECTION('',(-0.906307787035266,-0.422618261743666,0.));
#851=DIRECTION('',(0.422618261743666,-0.906307787035267,0.));
#852=FACE_BOUND('',#853,.T.);
#853=EDGE_LOOP('',(#1291,#1292,#1293,#1294));
#854=PLANE('',#855);
#855=AXIS2_PLACEMENT_3D('',#856,#857,#858);
#856=CARTESIAN_POINT('',(3.83718923361106,0.987321452147693,1.57));
#857=DIRECTION('',(0.906307787035268,-0.422618261743663,0.));
#858=DIRECTION('',(0.422618261743663,0.906307787035268,0.));
#859=FACE_BOUND('',#860,.T.);
#860=EDGE_LOOP('',(#1295,#1296,#1297,#1298));
#861=PLANE('',#862);
#862=AXIS2_PLACEMENT_3D('',#863,#864,#865);
#863=CARTESIAN_POINT('',(1.42900440526804,-1.27,1.57));
#864=DIRECTION('',(0.906307787039943,0.422618261733638,-0.));
#865=DIRECTION('',(-0.422618261733638,0.906307787039943,0.));
#866=FACE_BOUND('',#867,.T.);
#867=EDGE_LOOP('',(#1299,#1300,#1301,#1302));
#868=PLANE('',#869);
#869=AXIS2_PLACEMENT_3D('',#870,#871,#872);
#870=CARTESIAN_POINT('',(8.8651077025535,-1.27,1.57));
#871=DIRECTION('',(0.906307787036648,-0.422618261740702,0.));
#872=DIRECTION('',(0.422618261740702,0.906307787036649,0.));
#873=FACE_BOUND('',#874,.T.);
#874=EDGE_LOOP('',(#1303,#1304,#1305,#1306));
#875=PLANE('',#876);
#876=AXIS2_PLACEMENT_3D('',#877,#878,#879);
#877=CARTESIAN_POINT('',(1.29718923361106,0.987321452147693,1.57));
#878=DIRECTION('',(0.906307787035268,-0.422618261743663,0.));
#879=DIRECTION('',(0.422618261743663,0.906307787035268,0.));
#880=FACE_BOUND('',#881,.T.);
#881=EDGE_LOOP('',(#1307,#1308,#1309,#1310));
#882=PLANE('',#883);
#883=AXIS2_PLACEMENT_3D('',#884,#885,#886);
#884=CARTESIAN_POINT('',(9.005,0.97,1.57));
#885=DIRECTION('',(0.906307787036648,0.422618261740702,-0.));
#886=DIRECTION('',(-0.422618261740702,0.906307787036648,0.));
#887=FACE_BOUND('',#888,.T.);
#888=EDGE_LOOP('',(#1311,#1312,#1313,#1314));
#889=CYLINDRICAL_SURFACE('',#890,0.03);
#890=AXIS2_PLACEMENT_3D('',#891,#892,#893);
#891=CARTESIAN_POINT('',(1.27,1.,1.57));
#892=DIRECTION('',(0.,0.,1.));
#893=DIRECTION('',(-0.906307787035285,-0.422618261743626,0.));
#894=FACE_BOUND('',#895,.T.);
#895=EDGE_LOOP('',(#1315,#1316,#1317,#1318));
#896=PLANE('',#897);
#897=AXIS2_PLACEMENT_3D('',#898,#899,#900);
#898=CARTESIAN_POINT('',(1.11099559472815,1.27,1.57));
#899=DIRECTION('',(-0.906307787035266,-0.422618261743666,0.));
#900=DIRECTION('',(0.422618261743666,-0.906307787035267,0.));
#901=FACE_BOUND('',#902,.T.);
#902=EDGE_LOOP('',(#1319,#1320,#1321,#1322));
#903=PLANE('',#904);
#904=AXIS2_PLACEMENT_3D('',#905,#906,#907);
#905=CARTESIAN_POINT('',(8.8651077025535,1.27,1.57));
#906=DIRECTION('',(0.,1.,-0.));
#907=DIRECTION('',(-1.,0.,0.));
#908=FACE_BOUND('',#909,.T.);
#909=EDGE_LOOP('',(#1323,#1324,#1325,#1326));
#910=PLANE('',#911);
#911=AXIS2_PLACEMENT_3D('',#912,#913,#914);
#912=CARTESIAN_POINT('',(-1.2451077025535,1.27,1.57));
#913=DIRECTION('',(-0.90630778703665,0.422618261740699,0.));
#914=DIRECTION('',(-0.4226182617407,-0.90630778703665,0.));
#915=FACE_BOUND('',#916,.T.);
#916=EDGE_LOOP('',(#1327,#1328,#1329,#1330));
#917=PLANE('',#918);
#918=AXIS2_PLACEMENT_3D('',#919,#920,#921);
#919=CARTESIAN_POINT('',(-1.385,0.970000000000001,1.57));
#920=DIRECTION('',(-1.,2.28911963840238E-016,0.));
#921=DIRECTION('',(-2.28911963840238E-016,-1.,0.));
#922=FACE_BOUND('',#923,.T.);
#923=EDGE_LOOP('',(#1331,#1332,#1333,#1334));
#924=PLANE('',#925);
#925=AXIS2_PLACEMENT_3D('',#926,#927,#928);
#926=CARTESIAN_POINT('',(-1.385,-0.97,1.57));
#927=DIRECTION('',(-0.90630778703665,-0.422618261740699,0.));
#928=DIRECTION('',(0.422618261740699,-0.90630778703665,0.));
#929=FACE_BOUND('',#930,.T.);
#930=EDGE_LOOP('',(#1335,#1336,#1337,#1338));
#931=PLANE('',#932);
#932=AXIS2_PLACEMENT_3D('',#933,#934,#935);
#933=CARTESIAN_POINT('',(-1.2451077025535,-1.27,1.57));
#934=DIRECTION('',(0.,-1.,0.));
#935=DIRECTION('',(1.,0.,0.));
#936=FACE_BOUND('',#937,.T.);
#937=EDGE_LOOP('',(#1339,#1340,#1341,#1342));
#938=PLANE('',#939);
#939=AXIS2_PLACEMENT_3D('',#940,#941,#942);
#940=CARTESIAN_POINT('',(1.24281076638794,-0.987321452149846,1.57));
#941=DIRECTION('',(-0.906307787039943,0.422618261733637,0.));
#942=DIRECTION('',(-0.422618261733637,-0.906307787039943,0.));
#943=FACE_BOUND('',#944,.T.);
#944=EDGE_LOOP('',(#1343,#1344,#1345,#1346));
#945=CYLINDRICAL_SURFACE('',#946,0.03);
#946=AXIS2_PLACEMENT_3D('',#947,#948,#949);
#947=CARTESIAN_POINT('',(1.27,-1.,1.57));
#948=DIRECTION('',(0.,0.,1.));
#949=DIRECTION('',(0.906307786970437,0.422618261882694,0.));
#950=FACE_BOUND('',#951,.T.);
#951=EDGE_LOOP('',(#1347,#1348,#1349,#1350));
#952=PLANE('',#953);
#953=AXIS2_PLACEMENT_3D('',#954,#955,#956);
#954=CARTESIAN_POINT('',(9.005,-0.97,1.57));
#955=DIRECTION('',(1.,0.,0.));
#956=DIRECTION('',(0.,1.,0.));
#957=FACE_OUTER_BOUND('',#958,.T.);
#958=EDGE_LOOP('',(#1351));
#959=FACE_OUTER_BOUND('',#960,.T.);
#960=EDGE_LOOP('',(#1352));
#961=CYLINDRICAL_SURFACE('',#962,0.66);
#962=AXIS2_PLACEMENT_3D('',#963,#964,#965);
#963=CARTESIAN_POINT('',(0.,0.,0.));
#964=DIRECTION('',(0.,0.,1.));
#965=DIRECTION('',(1.,0.,0.));
#966=FACE_OUTER_BOUND('',#967,.T.);
#967=EDGE_LOOP('',(#1353));
#968=FACE_OUTER_BOUND('',#969,.T.);
#969=EDGE_LOOP('',(#1354));
#970=CYLINDRICAL_SURFACE('',#971,0.66);
#971=AXIS2_PLACEMENT_3D('',#972,#973,#974);
#972=CARTESIAN_POINT('',(7.62,0.,0.));
#973=DIRECTION('',(0.,0.,1.));
#974=DIRECTION('',(1.,0.,0.));
#975=FACE_OUTER_BOUND('',#976,.T.);
#976=EDGE_LOOP('',(#1355));
#977=FACE_OUTER_BOUND('',#978,.T.);
#978=EDGE_LOOP('',(#1356));
#979=CYLINDRICAL_SURFACE('',#980,0.66);
#980=AXIS2_PLACEMENT_3D('',#981,#982,#983);
#981=CARTESIAN_POINT('',(5.08,0.,0.));
#982=DIRECTION('',(0.,0.,1.));
#983=DIRECTION('',(1.,0.,0.));
#984=FACE_OUTER_BOUND('',#985,.T.);
#985=EDGE_LOOP('',(#1357));
#986=FACE_OUTER_BOUND('',#987,.T.);
#987=EDGE_LOOP('',(#1358));
#988=CYLINDRICAL_SURFACE('',#989,0.66);
#989=AXIS2_PLACEMENT_3D('',#990,#991,#992);
#990=CARTESIAN_POINT('',(2.54,0.,0.));
#991=DIRECTION('',(0.,0.,1.));
#992=DIRECTION('',(1.,0.,0.));
#993=FACE_BOUND('',#994,.T.);
#994=EDGE_LOOP('',(#1359));
#995=PLANE('',#996);
#996=AXIS2_PLACEMENT_3D('',#997,#998,#999);
#997=CARTESIAN_POINT('',(0.,0.,-2.75));
#998=DIRECTION('',(-0.,-0.,-1.));
#999=DIRECTION('',(0.,-1.,0.));
#1000=FACE_OUTER_BOUND('',#1001,.T.);
#1001=EDGE_LOOP('',(#1360));
#1002=FACE_OUTER_BOUND('',#1003,.T.);
#1003=EDGE_LOOP('',(#1361));
#1004=CONICAL_SURFACE('',#1005,0.19125,0.785398163397449);
#1005=AXIS2_PLACEMENT_3D('',#1006,#1007,#1008);
#1006=CARTESIAN_POINT('',(0.,0.,-2.68625));
#1007=DIRECTION('',(0.,0.,1.));
#1008=DIRECTION('',(-0.,1.,-0.));
#1009=FACE_OUTER_BOUND('',#1010,.T.);
#1010=EDGE_LOOP('',(#1362));
#1011=FACE_OUTER_BOUND('',#1012,.T.);
#1012=EDGE_LOOP('',(#1363));
#1013=CYLINDRICAL_SURFACE('',#1014,0.255);
#1014=AXIS2_PLACEMENT_3D('',#1015,#1016,#1017);
#1015=CARTESIAN_POINT('',(0.,0.,0.));
#1016=DIRECTION('',(-0.,-0.,-1.));
#1017=DIRECTION('',(0.,-1.,0.));
#1018=FACE_OUTER_BOUND('',#1019,.T.);
#1019=EDGE_LOOP('',(#1364));
#1020=FACE_OUTER_BOUND('',#1021,.T.);
#1021=EDGE_LOOP('',(#1365));
#1022=CONICAL_SURFACE('',#1023,0.4575,0.959931087707183);
#1023=AXIS2_PLACEMENT_3D('',#1024,#1025,#1026);
#1024=CARTESIAN_POINT('',(0.,0.,0.141792026755963));
#1025=DIRECTION('',(0.,0.,1.));
#1026=DIRECTION('',(-0.,1.,-0.));
#1027=FACE_OUTER_BOUND('',#1028,.T.);
#1028=EDGE_LOOP('',(#1366));
#1029=FACE_OUTER_BOUND('',#1030,.T.);
#1030=EDGE_LOOP('',(#1367));
#1031=CYLINDRICAL_SURFACE('',#1032,0.66);
#1032=AXIS2_PLACEMENT_3D('',#1033,#1034,#1035);
#1033=CARTESIAN_POINT('',(0.,0.,1.79287838708181));
#1034=DIRECTION('',(-0.,-0.,-1.));
#1035=DIRECTION('',(0.,-1.,0.));
#1036=FACE_OUTER_BOUND('',#1037,.T.);
#1037=EDGE_LOOP('',(#1368));
#1038=FACE_OUTER_BOUND('',#1039,.T.);
#1039=EDGE_LOOP('',(#1369));
#1040=CONICAL_SURFACE('',#1041,0.735,0.349065850398867);
#1041=AXIS2_PLACEMENT_3D('',#1042,#1043,#1044);
#1042=CARTESIAN_POINT('',(0.,0.,1.9989391935409));
#1043=DIRECTION('',(0.,0.,1.));
#1044=DIRECTION('',(-0.,1.,-0.));
#1045=FACE_BOUND('',#1046,.T.);
#1046=EDGE_LOOP('',(#1370));
#1047=FACE_BOUND('',#1048,.T.);
#1048=EDGE_LOOP('',(#1371));
#1049=PLANE('',#1050);
#1050=AXIS2_PLACEMENT_3D('',#1051,#1052,#1053);
#1051=CARTESIAN_POINT('',(0.,0.,2.205));
#1052=DIRECTION('',(0.,0.,1.));
#1053=DIRECTION('',(0.,-1.,0.));
#1054=FACE_OUTER_BOUND('',#1055,.T.);
#1055=EDGE_LOOP('',(#1372));
#1056=FACE_OUTER_BOUND('',#1057,.T.);
#1057=EDGE_LOOP('',(#1373));
#1058=CYLINDRICAL_SURFACE('',#1059,0.66);
#1059=AXIS2_PLACEMENT_3D('',#1060,#1061,#1062);
#1060=CARTESIAN_POINT('',(0.,0.,2.84));
#1061=DIRECTION('',(-0.,-0.,-1.));
#1062=DIRECTION('',(0.,-1.,0.));
#1063=FACE_BOUND('',#1064,.T.);
#1064=EDGE_LOOP('',(#1374));
#1065=FACE_BOUND('',#1066,.T.);
#1066=EDGE_LOOP('',(#1375));
#1067=PLANE('',#1068);
#1068=AXIS2_PLACEMENT_3D('',#1069,#1070,#1071);
#1069=CARTESIAN_POINT('',(0.,0.,2.84));
#1070=DIRECTION('',(-0.,-0.,-1.));
#1071=DIRECTION('',(0.,-1.,0.));
#1072=FACE_OUTER_BOUND('',#1073,.T.);
#1073=EDGE_LOOP('',(#1376));
#1074=FACE_OUTER_BOUND('',#1075,.T.);
#1075=EDGE_LOOP('',(#1377));
#1076=CYLINDRICAL_SURFACE('',#1077,0.915);
#1077=AXIS2_PLACEMENT_3D('',#1078,#1079,#1080);
#1078=CARTESIAN_POINT('',(0.,0.,3.35));
#1079=DIRECTION('',(-0.,-0.,-1.));
#1080=DIRECTION('',(0.,-1.,0.));
#1081=FACE_BOUND('',#1082,.T.);
#1082=EDGE_LOOP('',(#1378));
#1083=FACE_BOUND('',#1084,.T.);
#1084=EDGE_LOOP('',(#1379));
#1085=PLANE('',#1086);
#1086=AXIS2_PLACEMENT_3D('',#1087,#1088,#1089);
#1087=CARTESIAN_POINT('',(0.,0.,3.35));
#1088=DIRECTION('',(0.,0.,1.));
#1089=DIRECTION('',(0.,-1.,0.));
#1090=FACE_OUTER_BOUND('',#1091,.T.);
#1091=EDGE_LOOP('',(#1380));
#1092=FACE_OUTER_BOUND('',#1093,.T.);
#1093=EDGE_LOOP('',(#1381));
#1094=CONICAL_SURFACE('',#1095,0.554595535433107,0.349065852124744);
#1095=AXIS2_PLACEMENT_3D('',#1096,#1097,#1098);
#1096=CARTESIAN_POINT('',(0.,0.,3.2));
#1097=DIRECTION('',(0.,0.,1.));
#1098=DIRECTION('',(-0.,1.,-0.));
#1099=FACE_OUTER_BOUND('',#1100,.T.);
#1100=EDGE_LOOP('',(#1382));
#1101=FACE_OUTER_BOUND('',#1102,.T.);
#1102=EDGE_LOOP('',(#1383));
#1103=CYLINDRICAL_SURFACE('',#1104,0.5);
#1104=AXIS2_PLACEMENT_3D('',#1105,#1106,#1107);
#1105=CARTESIAN_POINT('',(0.,0.,2.85));
#1106=DIRECTION('',(-0.,-0.,-1.));
#1107=DIRECTION('',(0.,-1.,0.));
#1108=FACE_OUTER_BOUND('',#1109,.T.);
#1109=EDGE_LOOP('',(#1384));
#1110=FACE_OUTER_BOUND('',#1111,.T.);
#1111=EDGE_LOOP('',(#1385));
#1112=CONICAL_SURFACE('',#1113,0.3625,0.225276779214055);
#1113=AXIS2_PLACEMENT_3D('',#1114,#1115,#1116);
#1114=CARTESIAN_POINT('',(0.,0.,2.25));
#1115=DIRECTION('',(0.,0.,1.));
#1116=DIRECTION('',(-0.,1.,-0.));
#1117=FACE_BOUND('',#1118,.T.);
#1118=EDGE_LOOP('',(#1386));
#1119=FACE_BOUND('',#1120,.T.);
#1120=EDGE_LOOP('',(#1387));
#1121=PLANE('',#1122);
#1122=AXIS2_PLACEMENT_3D('',#1123,#1124,#1125);
#1123=CARTESIAN_POINT('',(0.,0.,1.65));
#1124=DIRECTION('',(-0.,-0.,-1.));
#1125=DIRECTION('',(0.,-1.,0.));
#1126=FACE_OUTER_BOUND('',#1127,.T.);
#1127=EDGE_LOOP('',(#1388));
#1128=FACE_OUTER_BOUND('',#1129,.T.);
#1129=EDGE_LOOP('',(#1389));
#1130=CYLINDRICAL_SURFACE('',#1131,0.5);
#1131=AXIS2_PLACEMENT_3D('',#1132,#1133,#1134);
#1132=CARTESIAN_POINT('',(0.,0.,0.45));
#1133=DIRECTION('',(-0.,-0.,-1.));
#1134=DIRECTION('',(0.,-1.,0.));
#1135=FACE_OUTER_BOUND('',#1136,.T.);
#1136=EDGE_LOOP('',(#1390));
#1137=FACE_OUTER_BOUND('',#1138,.T.);
#1138=EDGE_LOOP('',(#1391));
#1139=CONICAL_SURFACE('',#1140,0.265,0.959931088596881);
#1140=AXIS2_PLACEMENT_3D('',#1141,#1142,#1143);
#1141=CARTESIAN_POINT('',(0.,0.,0.285451228520718));
#1142=DIRECTION('',(0.,0.,1.));
#1143=DIRECTION('',(-0.,1.,-0.));
#1144=FACE_BOUND('',#1145,.T.);
#1145=EDGE_LOOP('',(#1392));
#1146=PLANE('',#1147);
#1147=AXIS2_PLACEMENT_3D('',#1148,#1149,#1150);
#1148=CARTESIAN_POINT('',(0.,0.,0.120902457041437));
#1149=DIRECTION('',(0.,0.,1.));
#1150=DIRECTION('',(0.,-1.,0.));
#1151=ORIENTED_EDGE('',*,*,#1393,.T.);
#1152=ORIENTED_EDGE('',*,*,#1394,.F.);
#1153=ORIENTED_EDGE('',*,*,#1395,.T.);
#1154=ORIENTED_EDGE('',*,*,#1396,.T.);
#1155=ORIENTED_EDGE('',*,*,#1397,.T.);
#1156=ORIENTED_EDGE('',*,*,#1398,.T.);
#1157=ORIENTED_EDGE('',*,*,#1399,.T.);
#1158=ORIENTED_EDGE('',*,*,#1400,.F.);
#1159=ORIENTED_EDGE('',*,*,#1401,.T.);
#1160=ORIENTED_EDGE('',*,*,#1402,.T.);
#1161=ORIENTED_EDGE('',*,*,#1403,.T.);
#1162=ORIENTED_EDGE('',*,*,#1404,.F.);
#1163=ORIENTED_EDGE('',*,*,#1405,.T.);
#1164=ORIENTED_EDGE('',*,*,#1406,.F.);
#1165=ORIENTED_EDGE('',*,*,#1407,.T.);
#1166=ORIENTED_EDGE('',*,*,#1408,.T.);
#1167=ORIENTED_EDGE('',*,*,#1409,.T.);
#1168=ORIENTED_EDGE('',*,*,#1410,.T.);
#1169=ORIENTED_EDGE('',*,*,#1411,.T.);
#1170=ORIENTED_EDGE('',*,*,#1412,.F.);
#1171=ORIENTED_EDGE('',*,*,#1413,.T.);
#1172=ORIENTED_EDGE('',*,*,#1414,.F.);
#1173=ORIENTED_EDGE('',*,*,#1415,.F.);
#1174=ORIENTED_EDGE('',*,*,#1416,.T.);
#1175=ORIENTED_EDGE('',*,*,#1417,.T.);
#1176=ORIENTED_EDGE('',*,*,#1418,.T.);
#1177=ORIENTED_EDGE('',*,*,#1419,.T.);
#1178=ORIENTED_EDGE('',*,*,#1412,.T.);
#1179=ORIENTED_EDGE('',*,*,#1420,.T.);
#1180=ORIENTED_EDGE('',*,*,#1421,.T.);
#1181=ORIENTED_EDGE('',*,*,#1422,.T.);
#1182=ORIENTED_EDGE('',*,*,#1423,.T.);
#1183=ORIENTED_EDGE('',*,*,#1424,.T.);
#1184=ORIENTED_EDGE('',*,*,#1425,.T.);
#1185=ORIENTED_EDGE('',*,*,#1426,.T.);
#1186=ORIENTED_EDGE('',*,*,#1427,.T.);
#1187=ORIENTED_EDGE('',*,*,#1428,.T.);
#1188=ORIENTED_EDGE('',*,*,#1429,.T.);
#1189=ORIENTED_EDGE('',*,*,#1430,.T.);
#1190=ORIENTED_EDGE('',*,*,#1394,.T.);
#1191=ORIENTED_EDGE('',*,*,#1431,.T.);
#1192=ORIENTED_EDGE('',*,*,#1432,.T.);
#1193=ORIENTED_EDGE('',*,*,#1433,.T.);
#1194=ORIENTED_EDGE('',*,*,#1400,.T.);
#1195=ORIENTED_EDGE('',*,*,#1434,.T.);
#1196=ORIENTED_EDGE('',*,*,#1435,.T.);
#1197=ORIENTED_EDGE('',*,*,#1436,.T.);
#1198=ORIENTED_EDGE('',*,*,#1404,.T.);
#1199=ORIENTED_EDGE('',*,*,#1437,.T.);
#1200=ORIENTED_EDGE('',*,*,#1438,.T.);
#1201=ORIENTED_EDGE('',*,*,#1439,.T.);
#1202=ORIENTED_EDGE('',*,*,#1414,.T.);
#1203=ORIENTED_EDGE('',*,*,#1440,.T.);
#1204=ORIENTED_EDGE('',*,*,#1441,.T.);
#1205=ORIENTED_EDGE('',*,*,#1442,.T.);
#1206=ORIENTED_EDGE('',*,*,#1406,.T.);
#1207=ORIENTED_EDGE('',*,*,#1443,.T.);
#1208=ORIENTED_EDGE('',*,*,#1444,.T.);
#1209=ORIENTED_EDGE('',*,*,#1445,.T.);
#1210=ORIENTED_EDGE('',*,*,#1446,.T.);
#1211=ORIENTED_EDGE('',*,*,#1447,.T.);
#1212=ORIENTED_EDGE('',*,*,#1408,.F.);
#1213=ORIENTED_EDGE('',*,*,#1448,.T.);
#1214=ORIENTED_EDGE('',*,*,#1449,.T.);
#1215=ORIENTED_EDGE('',*,*,#1450,.T.);
#1216=ORIENTED_EDGE('',*,*,#1416,.F.);
#1217=ORIENTED_EDGE('',*,*,#1451,.F.);
#1218=ORIENTED_EDGE('',*,*,#1452,.F.);
#1219=ORIENTED_EDGE('',*,*,#1453,.F.);
#1220=ORIENTED_EDGE('',*,*,#1402,.F.);
#1221=ORIENTED_EDGE('',*,*,#1454,.T.);
#1222=ORIENTED_EDGE('',*,*,#1455,.T.);
#1223=ORIENTED_EDGE('',*,*,#1456,.T.);
#1224=ORIENTED_EDGE('',*,*,#1398,.F.);
#1225=ORIENTED_EDGE('',*,*,#1457,.T.);
#1226=ORIENTED_EDGE('',*,*,#1458,.T.);
#1227=ORIENTED_EDGE('',*,*,#1459,.T.);
#1228=ORIENTED_EDGE('',*,*,#1396,.F.);
#1229=ORIENTED_EDGE('',*,*,#1460,.T.);
#1230=ORIENTED_EDGE('',*,*,#1461,.T.);
#1231=ORIENTED_EDGE('',*,*,#1462,.T.);
#1232=ORIENTED_EDGE('',*,*,#1463,.F.);
#1233=ORIENTED_EDGE('',*,*,#1464,.F.);
#1234=ORIENTED_EDGE('',*,*,#1465,.F.);
#1235=ORIENTED_EDGE('',*,*,#1466,.F.);
#1236=ORIENTED_EDGE('',*,*,#1467,.F.);
#1237=ORIENTED_EDGE('',*,*,#1468,.T.);
#1238=ORIENTED_EDGE('',*,*,#1469,.T.);
#1239=ORIENTED_EDGE('',*,*,#1470,.T.);
#1240=ORIENTED_EDGE('',*,*,#1410,.F.);
#1241=ORIENTED_EDGE('',*,*,#1471,.T.);
#1242=ORIENTED_EDGE('',*,*,#1472,.T.);
#1243=ORIENTED_EDGE('',*,*,#1473,.T.);
#1244=ORIENTED_EDGE('',*,*,#1474,.T.);
#1245=ORIENTED_EDGE('',*,*,#1475,.T.);
#1246=ORIENTED_EDGE('',*,*,#1476,.T.);
#1247=ORIENTED_EDGE('',*,*,#1454,.F.);
#1248=ORIENTED_EDGE('',*,*,#1401,.F.);
#1249=ORIENTED_EDGE('',*,*,#1436,.F.);
#1250=ORIENTED_EDGE('',*,*,#1477,.F.);
#1251=ORIENTED_EDGE('',*,*,#1456,.F.);
#1252=ORIENTED_EDGE('',*,*,#1478,.T.);
#1253=ORIENTED_EDGE('',*,*,#1434,.F.);
#1254=ORIENTED_EDGE('',*,*,#1399,.F.);
#1255=ORIENTED_EDGE('',*,*,#1455,.F.);
#1256=ORIENTED_EDGE('',*,*,#1477,.T.);
#1257=ORIENTED_EDGE('',*,*,#1435,.F.);
#1258=ORIENTED_EDGE('',*,*,#1478,.F.);
#1259=ORIENTED_EDGE('',*,*,#1449,.F.);
#1260=ORIENTED_EDGE('',*,*,#1479,.T.);
#1261=ORIENTED_EDGE('',*,*,#1441,.F.);
#1262=ORIENTED_EDGE('',*,*,#1480,.F.);
#1263=ORIENTED_EDGE('',*,*,#1448,.F.);
#1264=ORIENTED_EDGE('',*,*,#1407,.F.);
#1265=ORIENTED_EDGE('',*,*,#1442,.F.);
#1266=ORIENTED_EDGE('',*,*,#1479,.F.);
#1267=ORIENTED_EDGE('',*,*,#1450,.F.);
#1268=ORIENTED_EDGE('',*,*,#1480,.T.);
#1269=ORIENTED_EDGE('',*,*,#1440,.F.);
#1270=ORIENTED_EDGE('',*,*,#1413,.F.);
#1271=ORIENTED_EDGE('',*,*,#1457,.F.);
#1272=ORIENTED_EDGE('',*,*,#1397,.F.);
#1273=ORIENTED_EDGE('',*,*,#1433,.F.);
#1274=ORIENTED_EDGE('',*,*,#1481,.F.);
#1275=ORIENTED_EDGE('',*,*,#1459,.F.);
#1276=ORIENTED_EDGE('',*,*,#1482,.T.);
#1277=ORIENTED_EDGE('',*,*,#1431,.F.);
#1278=ORIENTED_EDGE('',*,*,#1393,.F.);
#1279=ORIENTED_EDGE('',*,*,#1458,.F.);
#1280=ORIENTED_EDGE('',*,*,#1481,.T.);
#1281=ORIENTED_EDGE('',*,*,#1432,.F.);
#1282=ORIENTED_EDGE('',*,*,#1482,.F.);
#1283=ORIENTED_EDGE('',*,*,#1472,.F.);
#1284=ORIENTED_EDGE('',*,*,#1483,.T.);
#1285=ORIENTED_EDGE('',*,*,#1418,.F.);
#1286=ORIENTED_EDGE('',*,*,#1484,.F.);
#1287=ORIENTED_EDGE('',*,*,#1471,.F.);
#1288=ORIENTED_EDGE('',*,*,#1409,.F.);
#1289=ORIENTED_EDGE('',*,*,#1419,.F.);
#1290=ORIENTED_EDGE('',*,*,#1483,.F.);
#1291=ORIENTED_EDGE('',*,*,#1447,.F.);
#1292=ORIENTED_EDGE('',*,*,#1484,.T.);
#1293=ORIENTED_EDGE('',*,*,#1417,.F.);
#1294=ORIENTED_EDGE('',*,*,#1405,.F.);
#1295=ORIENTED_EDGE('',*,*,#1460,.F.);
#1296=ORIENTED_EDGE('',*,*,#1395,.F.);
#1297=ORIENTED_EDGE('',*,*,#1430,.F.);
#1298=ORIENTED_EDGE('',*,*,#1485,.F.);
#1299=ORIENTED_EDGE('',*,*,#1453,.T.);
#1300=ORIENTED_EDGE('',*,*,#1486,.T.);
#1301=ORIENTED_EDGE('',*,*,#1437,.F.);
#1302=ORIENTED_EDGE('',*,*,#1403,.F.);
#1303=ORIENTED_EDGE('',*,*,#1470,.F.);
#1304=ORIENTED_EDGE('',*,*,#1487,.T.);
#1305=ORIENTED_EDGE('',*,*,#1420,.F.);
#1306=ORIENTED_EDGE('',*,*,#1411,.F.);
#1307=ORIENTED_EDGE('',*,*,#1451,.T.);
#1308=ORIENTED_EDGE('',*,*,#1415,.T.);
#1309=ORIENTED_EDGE('',*,*,#1439,.F.);
#1310=ORIENTED_EDGE('',*,*,#1488,.F.);
#1311=ORIENTED_EDGE('',*,*,#1469,.F.);
#1312=ORIENTED_EDGE('',*,*,#1489,.T.);
#1313=ORIENTED_EDGE('',*,*,#1421,.F.);
#1314=ORIENTED_EDGE('',*,*,#1487,.F.);
#1315=ORIENTED_EDGE('',*,*,#1468,.F.);
#1316=ORIENTED_EDGE('',*,*,#1490,.F.);
#1317=ORIENTED_EDGE('',*,*,#1422,.F.);
#1318=ORIENTED_EDGE('',*,*,#1489,.F.);
#1319=ORIENTED_EDGE('',*,*,#1490,.T.);
#1320=ORIENTED_EDGE('',*,*,#1467,.T.);
#1321=ORIENTED_EDGE('',*,*,#1491,.T.);
#1322=ORIENTED_EDGE('',*,*,#1423,.F.);
#1323=ORIENTED_EDGE('',*,*,#1466,.T.);
#1324=ORIENTED_EDGE('',*,*,#1492,.T.);
#1325=ORIENTED_EDGE('',*,*,#1424,.F.);
#1326=ORIENTED_EDGE('',*,*,#1491,.F.);
#1327=ORIENTED_EDGE('',*,*,#1465,.T.);
#1328=ORIENTED_EDGE('',*,*,#1493,.T.);
#1329=ORIENTED_EDGE('',*,*,#1425,.F.);
#1330=ORIENTED_EDGE('',*,*,#1492,.F.);
#1331=ORIENTED_EDGE('',*,*,#1464,.T.);
#1332=ORIENTED_EDGE('',*,*,#1494,.T.);
#1333=ORIENTED_EDGE('',*,*,#1426,.F.);
#1334=ORIENTED_EDGE('',*,*,#1493,.F.);
#1335=ORIENTED_EDGE('',*,*,#1495,.T.);
#1336=ORIENTED_EDGE('',*,*,#1427,.F.);
#1337=ORIENTED_EDGE('',*,*,#1494,.F.);
#1338=ORIENTED_EDGE('',*,*,#1463,.T.);
#1339=ORIENTED_EDGE('',*,*,#1462,.F.);
#1340=ORIENTED_EDGE('',*,*,#1496,.T.);
#1341=ORIENTED_EDGE('',*,*,#1428,.F.);
#1342=ORIENTED_EDGE('',*,*,#1495,.F.);
#1343=ORIENTED_EDGE('',*,*,#1461,.F.);
#1344=ORIENTED_EDGE('',*,*,#1485,.T.);
#1345=ORIENTED_EDGE('',*,*,#1429,.F.);
#1346=ORIENTED_EDGE('',*,*,#1496,.F.);
#1347=ORIENTED_EDGE('',*,*,#1452,.T.);
#1348=ORIENTED_EDGE('',*,*,#1488,.T.);
#1349=ORIENTED_EDGE('',*,*,#1438,.F.);
#1350=ORIENTED_EDGE('',*,*,#1486,.F.);
#1351=ORIENTED_EDGE('',*,*,#1443,.F.);
#1352=ORIENTED_EDGE('',*,*,#1473,.F.);
#1353=ORIENTED_EDGE('',*,*,#1444,.F.);
#1354=ORIENTED_EDGE('',*,*,#1474,.F.);
#1355=ORIENTED_EDGE('',*,*,#1445,.F.);
#1356=ORIENTED_EDGE('',*,*,#1475,.F.);
#1357=ORIENTED_EDGE('',*,*,#1446,.F.);
#1358=ORIENTED_EDGE('',*,*,#1476,.F.);
#1359=ORIENTED_EDGE('',*,*,#1497,.T.);
#1360=ORIENTED_EDGE('',*,*,#1497,.F.);
#1361=ORIENTED_EDGE('',*,*,#1498,.T.);
#1362=ORIENTED_EDGE('',*,*,#1499,.T.);
#1363=ORIENTED_EDGE('',*,*,#1498,.F.);
#1364=ORIENTED_EDGE('',*,*,#1499,.F.);
#1365=ORIENTED_EDGE('',*,*,#1500,.T.);
#1366=ORIENTED_EDGE('',*,*,#1501,.T.);
#1367=ORIENTED_EDGE('',*,*,#1500,.F.);
#1368=ORIENTED_EDGE('',*,*,#1501,.F.);
#1369=ORIENTED_EDGE('',*,*,#1502,.T.);
#1370=ORIENTED_EDGE('',*,*,#1502,.F.);
#1371=ORIENTED_EDGE('',*,*,#1503,.T.);
#1372=ORIENTED_EDGE('',*,*,#1504,.T.);
#1373=ORIENTED_EDGE('',*,*,#1503,.F.);
#1374=ORIENTED_EDGE('',*,*,#1505,.T.);
#1375=ORIENTED_EDGE('',*,*,#1504,.F.);
#1376=ORIENTED_EDGE('',*,*,#1506,.T.);
#1377=ORIENTED_EDGE('',*,*,#1505,.F.);
#1378=ORIENTED_EDGE('',*,*,#1506,.F.);
#1379=ORIENTED_EDGE('',*,*,#1507,.T.);
#1380=ORIENTED_EDGE('',*,*,#1508,.T.);
#1381=ORIENTED_EDGE('',*,*,#1507,.F.);
#1382=ORIENTED_EDGE('',*,*,#1508,.F.);
#1383=ORIENTED_EDGE('',*,*,#1509,.T.);
#1384=ORIENTED_EDGE('',*,*,#1510,.T.);
#1385=ORIENTED_EDGE('',*,*,#1509,.F.);
#1386=ORIENTED_EDGE('',*,*,#1511,.T.);
#1387=ORIENTED_EDGE('',*,*,#1510,.F.);
#1388=ORIENTED_EDGE('',*,*,#1511,.F.);
#1389=ORIENTED_EDGE('',*,*,#1512,.T.);
#1390=ORIENTED_EDGE('',*,*,#1513,.T.);
#1391=ORIENTED_EDGE('',*,*,#1512,.F.);
#1392=ORIENTED_EDGE('',*,*,#1513,.F.);
#1393=EDGE_CURVE('',#1514,#1515,#1516,.F.);
#1394=EDGE_CURVE('',#1517,#1515,#1518,.T.);
#1395=EDGE_CURVE('',#1517,#1519,#1520,.F.);
#1396=EDGE_CURVE('',#1519,#1514,#1521,.T.);
#1397=EDGE_CURVE('',#1522,#1523,#1524,.F.);
#1398=EDGE_CURVE('',#1523,#1525,#1526,.T.);
#1399=EDGE_CURVE('',#1525,#1527,#1528,.F.);
#1400=EDGE_CURVE('',#1522,#1527,#1529,.T.);
#1401=EDGE_CURVE('',#1530,#1531,#1532,.F.);
#1402=EDGE_CURVE('',#1531,#1533,#1534,.T.);
#1403=EDGE_CURVE('',#1533,#1535,#1536,.T.);
#1404=EDGE_CURVE('',#1530,#1535,#1537,.T.);
#1405=EDGE_CURVE('',#1538,#1539,#1540,.F.);
#1406=EDGE_CURVE('',#1541,#1539,#1542,.T.);
#1407=EDGE_CURVE('',#1541,#1543,#1544,.F.);
#1408=EDGE_CURVE('',#1543,#1538,#1545,.T.);
#1409=EDGE_CURVE('',#1546,#1547,#1548,.F.);
#1410=EDGE_CURVE('',#1547,#1549,#1550,.T.);
#1411=EDGE_CURVE('',#1549,#1551,#1552,.F.);
#1412=EDGE_CURVE('',#1546,#1551,#1553,.T.);
#1413=EDGE_CURVE('',#1554,#1555,#1556,.F.);
#1414=EDGE_CURVE('',#1557,#1555,#1558,.T.);
#1415=EDGE_CURVE('',#1559,#1557,#1560,.T.);
#1416=EDGE_CURVE('',#1559,#1554,#1561,.T.);
#1417=EDGE_CURVE('',#1539,#1562,#1563,.F.);
#1418=EDGE_CURVE('',#1562,#1564,#1565,.F.);
#1419=EDGE_CURVE('',#1564,#1546,#1566,.F.);
#1420=EDGE_CURVE('',#1551,#1567,#1568,.F.);
#1421=EDGE_CURVE('',#1567,#1569,#1570,.F.);
#1422=EDGE_CURVE('',#1569,#1571,#1572,.F.);
#1423=EDGE_CURVE('',#1571,#1573,#1574,.T.);
#1424=EDGE_CURVE('',#1573,#1575,#1576,.T.);
#1425=EDGE_CURVE('',#1575,#1577,#1578,.T.);
#1426=EDGE_CURVE('',#1577,#1579,#1580,.T.);
#1427=EDGE_CURVE('',#1579,#1581,#1582,.T.);
#1428=EDGE_CURVE('',#1581,#1583,#1584,.F.);
#1429=EDGE_CURVE('',#1583,#1585,#1586,.F.);
#1430=EDGE_CURVE('',#1585,#1517,#1587,.F.);
#1431=EDGE_CURVE('',#1515,#1588,#1589,.F.);
#1432=EDGE_CURVE('',#1588,#1590,#1591,.F.);
#1433=EDGE_CURVE('',#1590,#1522,#1592,.F.);
#1434=EDGE_CURVE('',#1527,#1593,#1594,.F.);
#1435=EDGE_CURVE('',#1593,#1595,#1596,.F.);
#1436=EDGE_CURVE('',#1595,#1530,#1597,.F.);
#1437=EDGE_CURVE('',#1535,#1598,#1599,.T.);
#1438=EDGE_CURVE('',#1598,#1600,#1601,.T.);
#1439=EDGE_CURVE('',#1600,#1557,#1602,.T.);
#1440=EDGE_CURVE('',#1555,#1603,#1604,.F.);
#1441=EDGE_CURVE('',#1603,#1605,#1606,.F.);
#1442=EDGE_CURVE('',#1605,#1541,#1607,.F.);
#1443=EDGE_CURVE('',#1608,#1608,#1609,.F.);
#1444=EDGE_CURVE('',#1610,#1610,#1611,.F.);
#1445=EDGE_CURVE('',#1612,#1612,#1613,.F.);
#1446=EDGE_CURVE('',#1614,#1614,#1615,.F.);
#1447=EDGE_CURVE('',#1616,#1538,#1617,.T.);
#1448=EDGE_CURVE('',#1543,#1618,#1619,.T.);
#1449=EDGE_CURVE('',#1618,#1620,#1621,.T.);
#1450=EDGE_CURVE('',#1620,#1554,#1622,.T.);
#1451=EDGE_CURVE('',#1623,#1559,#1624,.T.);
#1452=EDGE_CURVE('',#1625,#1623,#1626,.T.);
#1453=EDGE_CURVE('',#1533,#1625,#1627,.T.);
#1454=EDGE_CURVE('',#1531,#1628,#1629,.T.);
#1455=EDGE_CURVE('',#1628,#1630,#1631,.T.);
#1456=EDGE_CURVE('',#1630,#1525,#1632,.T.);
#1457=EDGE_CURVE('',#1523,#1633,#1634,.T.);
#1458=EDGE_CURVE('',#1633,#1635,#1636,.T.);
#1459=EDGE_CURVE('',#1635,#1514,#1637,.T.);
#1460=EDGE_CURVE('',#1519,#1638,#1639,.T.);
#1461=EDGE_CURVE('',#1638,#1640,#1641,.T.);
#1462=EDGE_CURVE('',#1640,#1642,#1643,.T.);
#1463=EDGE_CURVE('',#1644,#1642,#1645,.T.);
#1464=EDGE_CURVE('',#1646,#1644,#1647,.T.);
#1465=EDGE_CURVE('',#1648,#1646,#1649,.T.);
#1466=EDGE_CURVE('',#1650,#1648,#1651,.T.);
#1467=EDGE_CURVE('',#1652,#1650,#1653,.T.);
#1468=EDGE_CURVE('',#1652,#1654,#1655,.T.);
#1469=EDGE_CURVE('',#1654,#1656,#1657,.T.);
#1470=EDGE_CURVE('',#1656,#1549,#1658,.T.);
#1471=EDGE_CURVE('',#1547,#1659,#1660,.T.);
#1472=EDGE_CURVE('',#1659,#1616,#1661,.T.);
#1473=EDGE_CURVE('',#1662,#1662,#1663,.T.);
#1474=EDGE_CURVE('',#1664,#1664,#1665,.T.);
#1475=EDGE_CURVE('',#1666,#1666,#1667,.T.);
#1476=EDGE_CURVE('',#1668,#1668,#1669,.T.);
#1477=EDGE_CURVE('',#1628,#1595,#1670,.T.);
#1478=EDGE_CURVE('',#1630,#1593,#1671,.T.);
#1479=EDGE_CURVE('',#1618,#1605,#1672,.T.);
#1480=EDGE_CURVE('',#1620,#1603,#1673,.T.);
#1481=EDGE_CURVE('',#1633,#1590,#1674,.T.);
#1482=EDGE_CURVE('',#1635,#1588,#1675,.T.);
#1483=EDGE_CURVE('',#1659,#1564,#1676,.T.);
#1484=EDGE_CURVE('',#1616,#1562,#1677,.T.);
#1485=EDGE_CURVE('',#1638,#1585,#1678,.T.);
#1486=EDGE_CURVE('',#1625,#1598,#1679,.T.);
#1487=EDGE_CURVE('',#1656,#1567,#1680,.T.);
#1488=EDGE_CURVE('',#1623,#1600,#1681,.T.);
#1489=EDGE_CURVE('',#1654,#1569,#1682,.T.);
#1490=EDGE_CURVE('',#1571,#1652,#1683,.F.);
#1491=EDGE_CURVE('',#1650,#1573,#1684,.T.);
#1492=EDGE_CURVE('',#1648,#1575,#1685,.T.);
#1493=EDGE_CURVE('',#1646,#1577,#1686,.T.);
#1494=EDGE_CURVE('',#1644,#1579,#1687,.T.);
#1495=EDGE_CURVE('',#1642,#1581,#1688,.F.);
#1496=EDGE_CURVE('',#1640,#1583,#1689,.T.);
#1497=EDGE_CURVE('',#1690,#1690,#1691,.T.);
#1498=EDGE_CURVE('',#1692,#1692,#1693,.T.);
#1499=EDGE_CURVE('',#1694,#1694,#1695,.T.);
#1500=EDGE_CURVE('',#1696,#1696,#1697,.T.);
#1501=EDGE_CURVE('',#1698,#1698,#1699,.T.);
#1502=EDGE_CURVE('',#1700,#1700,#1701,.T.);
#1503=EDGE_CURVE('',#1702,#1702,#1703,.T.);
#1504=EDGE_CURVE('',#1704,#1704,#1705,.T.);
#1505=EDGE_CURVE('',#1706,#1706,#1707,.T.);
#1506=EDGE_CURVE('',#1708,#1708,#1709,.T.);
#1507=EDGE_CURVE('',#1710,#1710,#1711,.T.);
#1508=EDGE_CURVE('',#1712,#1712,#1713,.T.);
#1509=EDGE_CURVE('',#1714,#1714,#1715,.T.);
#1510=EDGE_CURVE('',#1716,#1716,#1717,.T.);
#1511=EDGE_CURVE('',#1718,#1718,#1719,.T.);
#1512=EDGE_CURVE('',#1720,#1720,#1721,.T.);
#1513=EDGE_CURVE('',#1722,#1722,#1723,.T.);
#1514=VERTEX_POINT('',#1724);
#1515=VERTEX_POINT('',#1725);
#1516=LINE('',#1726,#1727);
#1517=VERTEX_POINT('',#1729);
#1518=LINE('',#1730,#1731);
#1519=VERTEX_POINT('',#1733);
#1520=LINE('',#1734,#1735);
#1521=LINE('',#1737,#1738);
#1522=VERTEX_POINT('',#1740);
#1523=VERTEX_POINT('',#1741);
#1524=LINE('',#1742,#1743);
#1525=VERTEX_POINT('',#1745);
#1526=LINE('',#1746,#1747);
#1527=VERTEX_POINT('',#1749);
#1528=LINE('',#1750,#1751);
#1529=LINE('',#1753,#1754);
#1530=VERTEX_POINT('',#1756);
#1531=VERTEX_POINT('',#1757);
#1532=LINE('',#1758,#1759);
#1533=VERTEX_POINT('',#1761);
#1534=LINE('',#1762,#1763);
#1535=VERTEX_POINT('',#1765);
#1536=LINE('',#1766,#1767);
#1537=LINE('',#1769,#1770);
#1538=VERTEX_POINT('',#1772);
#1539=VERTEX_POINT('',#1773);
#1540=LINE('',#1774,#1775);
#1541=VERTEX_POINT('',#1777);
#1542=LINE('',#1778,#1779);
#1543=VERTEX_POINT('',#1781);
#1544=LINE('',#1782,#1783);
#1545=LINE('',#1785,#1786);
#1546=VERTEX_POINT('',#1788);
#1547=VERTEX_POINT('',#1789);
#1548=LINE('',#1790,#1791);
#1549=VERTEX_POINT('',#1793);
#1550=LINE('',#1794,#1795);
#1551=VERTEX_POINT('',#1797);
#1552=LINE('',#1798,#1799);
#1553=LINE('',#1801,#1802);
#1554=VERTEX_POINT('',#1804);
#1555=VERTEX_POINT('',#1805);
#1556=LINE('',#1806,#1807);
#1557=VERTEX_POINT('',#1809);
#1558=LINE('',#1810,#1811);
#1559=VERTEX_POINT('',#1813);
#1560=LINE('',#1814,#1815);
#1561=LINE('',#1817,#1818);
#1562=VERTEX_POINT('',#1820);
#1563=LINE('',#1821,#1822);
#1564=VERTEX_POINT('',#1824);
#1565=CIRCLE('',#1825,0.03);
#1566=LINE('',#1829,#1830);
#1567=VERTEX_POINT('',#1832);
#1568=LINE('',#1833,#1834);
#1569=VERTEX_POINT('',#1836);
#1570=CIRCLE('',#1837,0.03);
#1571=VERTEX_POINT('',#1841);
#1572=LINE('',#1842,#1843);
#1573=VERTEX_POINT('',#1845);
#1574=LINE('',#1846,#1847);
#1575=VERTEX_POINT('',#1849);
#1576=LINE('',#1850,#1851);
#1577=VERTEX_POINT('',#1853);
#1578=LINE('',#1854,#1855);
#1579=VERTEX_POINT('',#1857);
#1580=LINE('',#1858,#1859);
#1581=VERTEX_POINT('',#1861);
#1582=LINE('',#1862,#1863);
#1583=VERTEX_POINT('',#1865);
#1584=LINE('',#1866,#1867);
#1585=VERTEX_POINT('',#1869);
#1586=CIRCLE('',#1870,0.03);
#1587=LINE('',#1874,#1875);
#1588=VERTEX_POINT('',#1877);
#1589=LINE('',#1878,#1879);
#1590=VERTEX_POINT('',#1881);
#1591=CIRCLE('',#1882,0.03);
#1592=LINE('',#1886,#1887);
#1593=VERTEX_POINT('',#1889);
#1594=LINE('',#1890,#1891);
#1595=VERTEX_POINT('',#1893);
#1596=CIRCLE('',#1894,0.03);
#1597=LINE('',#1898,#1899);
#1598=VERTEX_POINT('',#1901);
#1599=LINE('',#1902,#1903);
#1600=VERTEX_POINT('',#1905);
#1601=LINE('',#1906,#1907);
#1602=LINE('',#1909,#1910);
#1603=VERTEX_POINT('',#1912);
#1604=LINE('',#1913,#1914);
#1605=VERTEX_POINT('',#1916);
#1606=CIRCLE('',#1917,0.03);
#1607=LINE('',#1921,#1922);
#1608=VERTEX_POINT('',#1924);
#1609=CIRCLE('',#1925,0.66);
#1610=VERTEX_POINT('',#1929);
#1611=CIRCLE('',#1930,0.66);
#1612=VERTEX_POINT('',#1934);
#1613=CIRCLE('',#1935,0.66);
#1614=VERTEX_POINT('',#1939);
#1615=CIRCLE('',#1940,0.66);
#1616=VERTEX_POINT('',#1944);
#1617=LINE('',#1945,#1946);
#1618=VERTEX_POINT('',#1948);
#1619=LINE('',#1949,#1950);
#1620=VERTEX_POINT('',#1952);
#1621=CIRCLE('',#1953,0.03);
#1622=LINE('',#1957,#1958);
#1623=VERTEX_POINT('',#1960);
#1624=LINE('',#1961,#1962);
#1625=VERTEX_POINT('',#1964);
#1626=LINE('',#1965,#1966);
#1627=LINE('',#1968,#1969);
#1628=VERTEX_POINT('',#1971);
#1629=LINE('',#1972,#1973);
#1630=VERTEX_POINT('',#1975);
#1631=CIRCLE('',#1976,0.03);
#1632=LINE('',#1980,#1981);
#1633=VERTEX_POINT('',#1983);
#1634=LINE('',#1984,#1985);
#1635=VERTEX_POINT('',#1987);
#1636=CIRCLE('',#1988,0.03);
#1637=LINE('',#1992,#1993);
#1638=VERTEX_POINT('',#1995);
#1639=LINE('',#1996,#1997);
#1640=VERTEX_POINT('',#1999);
#1641=CIRCLE('',#2000,0.03);
#1642=VERTEX_POINT('',#2004);
#1643=LINE('',#2005,#2006);
#1644=VERTEX_POINT('',#2008);
#1645=LINE('',#2009,#2010);
#1646=VERTEX_POINT('',#2012);
#1647=LINE('',#2013,#2014);
#1648=VERTEX_POINT('',#2016);
#1649=LINE('',#2017,#2018);
#1650=VERTEX_POINT('',#2020);
#1651=LINE('',#2021,#2022);
#1652=VERTEX_POINT('',#2024);
#1653=LINE('',#2025,#2026);
#1654=VERTEX_POINT('',#2028);
#1655=LINE('',#2029,#2030);
#1656=VERTEX_POINT('',#2032);
#1657=CIRCLE('',#2033,0.03);
#1658=LINE('',#2037,#2038);
#1659=VERTEX_POINT('',#2040);
#1660=LINE('',#2041,#2042);
#1661=CIRCLE('',#2044,0.03);
#1662=VERTEX_POINT('',#2048);
#1663=CIRCLE('',#2049,0.66);
#1664=VERTEX_POINT('',#2053);
#1665=CIRCLE('',#2054,0.66);
#1666=VERTEX_POINT('',#2058);
#1667=CIRCLE('',#2059,0.66);
#1668=VERTEX_POINT('',#2063);
#1669=CIRCLE('',#2064,0.66);
#1670=LINE('',#2068,#2069);
#1671=LINE('',#2071,#2072);
#1672=LINE('',#2074,#2075);
#1673=LINE('',#2077,#2078);
#1674=LINE('',#2080,#2081);
#1675=LINE('',#2083,#2084);
#1676=LINE('',#2086,#2087);
#1677=LINE('',#2089,#2090);
#1678=LINE('',#2092,#2093);
#1679=LINE('',#2095,#2096);
#1680=LINE('',#2098,#2099);
#1681=LINE('',#2101,#2102);
#1682=LINE('',#2104,#2105);
#1683=LINE('',#2107,#2108);
#1684=LINE('',#2110,#2111);
#1685=LINE('',#2113,#2114);
#1686=LINE('',#2116,#2117);
#1687=LINE('',#2119,#2120);
#1688=LINE('',#2122,#2123);
#1689=LINE('',#2125,#2126);
#1690=VERTEX_POINT('',#2128);
#1691=CIRCLE('',#2129,0.1275);
#1692=VERTEX_POINT('',#2133);
#1693=CIRCLE('',#2134,0.255);
#1694=VERTEX_POINT('',#2138);
#1695=CIRCLE('',#2139,0.255);
#1696=VERTEX_POINT('',#2143);
#1697=CIRCLE('',#2144,0.66);
#1698=VERTEX_POINT('',#2148);
#1699=CIRCLE('',#2149,0.66);
#1700=VERTEX_POINT('',#2153);
#1701=CIRCLE('',#2154,0.810000000000001);
#1702=VERTEX_POINT('',#2158);
#1703=CIRCLE('',#2159,0.659999999999999);
#1704=VERTEX_POINT('',#2163);
#1705=CIRCLE('',#2164,0.66);
#1706=VERTEX_POINT('',#2168);
#1707=CIRCLE('',#2169,0.915);
#1708=VERTEX_POINT('',#2173);
#1709=CIRCLE('',#2174,0.915);
#1710=VERTEX_POINT('',#2178);
#1711=CIRCLE('',#2179,0.609191070866214);
#1712=VERTEX_POINT('',#2183);
#1713=CIRCLE('',#2184,0.5);
#1714=VERTEX_POINT('',#2188);
#1715=CIRCLE('',#2189,0.5);
#1716=VERTEX_POINT('',#2193);
#1717=CIRCLE('',#2194,0.225);
#1718=VERTEX_POINT('',#2198);
#1719=CIRCLE('',#2199,0.5);
#1720=VERTEX_POINT('',#2203);
#1721=CIRCLE('',#2204,0.5);
#1722=VERTEX_POINT('',#2208);
#1723=CIRCLE('',#2209,0.03);
#1724=CARTESIAN_POINT('',(3.65099559473196,-1.27,1.57));
#1725=CARTESIAN_POINT('',(3.65099559473196,-1.27,2.84));
#1726=CARTESIAN_POINT('',(3.65099559473196,-1.27,2.84));
#1727=VECTOR('',#1728,1.);
#1728=DIRECTION('',(0.,0.,-1.));
#1729=CARTESIAN_POINT('',(1.42900440526804,-1.27,2.84));
#1730=CARTESIAN_POINT('',(1.42900440526804,-1.27,2.84));
#1731=VECTOR('',#1732,1.);
#1732=DIRECTION('',(1.,0.,0.));
#1733=CARTESIAN_POINT('',(1.42900440526804,-1.27,1.57));
#1734=CARTESIAN_POINT('',(1.42900440526804,-1.27,1.57));
#1735=VECTOR('',#1736,1.);
#1736=DIRECTION('',(0.,0.,1.));
#1737=CARTESIAN_POINT('',(1.42900440526804,-1.27,1.57));
#1738=VECTOR('',#1739,1.);
#1739=DIRECTION('',(1.,0.,0.));
#1740=CARTESIAN_POINT('',(3.96900440526804,-1.27,2.84));
#1741=CARTESIAN_POINT('',(3.96900440526804,-1.27,1.57));
#1742=CARTESIAN_POINT('',(3.96900440526804,-1.27,1.57));
#1743=VECTOR('',#1744,1.);
#1744=DIRECTION('',(0.,0.,1.));
#1745=CARTESIAN_POINT('',(6.19099559473196,-1.27,1.57));
#1746=CARTESIAN_POINT('',(3.96900440526804,-1.27,1.57));
#1747=VECTOR('',#1748,1.);
#1748=DIRECTION('',(1.,0.,0.));
#1749=CARTESIAN_POINT('',(6.19099559473196,-1.27,2.84));
#1750=CARTESIAN_POINT('',(6.19099559473196,-1.27,2.84));
#1751=VECTOR('',#1752,1.);
#1752=DIRECTION('',(0.,0.,-1.));
#1753=CARTESIAN_POINT('',(3.96900440526804,-1.27,2.84));
#1754=VECTOR('',#1755,1.);
#1755=DIRECTION('',(1.,0.,0.));
#1756=CARTESIAN_POINT('',(6.50900440526804,-1.27,2.84));
#1757=CARTESIAN_POINT('',(6.50900440526804,-1.27,1.57));
#1758=CARTESIAN_POINT('',(6.50900440526804,-1.27,1.57));
#1759=VECTOR('',#1760,1.);
#1760=DIRECTION('',(0.,0.,1.));
#1761=CARTESIAN_POINT('',(8.8651077025535,-1.27,1.57));
#1762=CARTESIAN_POINT('',(6.50900440526804,-1.27,1.57));
#1763=VECTOR('',#1764,1.);
#1764=DIRECTION('',(1.,0.,0.));
#1765=CARTESIAN_POINT('',(8.8651077025535,-1.27,2.84));
#1766=CARTESIAN_POINT('',(8.8651077025535,-1.27,1.57));
#1767=VECTOR('',#1768,1.);
#1768=DIRECTION('',(0.,0.,1.));
#1769=CARTESIAN_POINT('',(6.50900440526804,-1.27,2.84));
#1770=VECTOR('',#1771,1.);
#1771=DIRECTION('',(1.,0.,-1.88484609465855E-016));
#1772=CARTESIAN_POINT('',(3.96900440527185,1.27,1.57));
#1773=CARTESIAN_POINT('',(3.96900440527185,1.27,2.84));
#1774=CARTESIAN_POINT('',(3.96900440527185,1.27,2.84));
#1775=VECTOR('',#1776,1.);
#1776=DIRECTION('',(0.,0.,-1.));
#1777=CARTESIAN_POINT('',(6.19099559472815,1.27,2.84));
#1778=CARTESIAN_POINT('',(6.19099559472815,1.27,2.84));
#1779=VECTOR('',#1780,1.);
#1780=DIRECTION('',(-1.,0.,-1.99860922922348E-016));
#1781=CARTESIAN_POINT('',(6.19099559472815,1.27,1.57));
#1782=CARTESIAN_POINT('',(6.19099559472815,1.27,1.57));
#1783=VECTOR('',#1784,1.);
#1784=DIRECTION('',(0.,0.,1.));
#1785=CARTESIAN_POINT('',(6.19099559472815,1.27,1.57));
#1786=VECTOR('',#1787,1.);
#1787=DIRECTION('',(-1.,0.,0.));
#1788=CARTESIAN_POINT('',(3.65099559472815,1.27,2.84));
#1789=CARTESIAN_POINT('',(3.65099559472815,1.27,1.57));
#1790=CARTESIAN_POINT('',(3.65099559472815,1.27,1.57));
#1791=VECTOR('',#1792,1.);
#1792=DIRECTION('',(0.,0.,1.));
#1793=CARTESIAN_POINT('',(1.42900440527185,1.27,1.57));
#1794=CARTESIAN_POINT('',(3.65099559472815,1.27,1.57));
#1795=VECTOR('',#1796,1.);
#1796=DIRECTION('',(-1.,0.,0.));
#1797=CARTESIAN_POINT('',(1.42900440527185,1.27,2.84));
#1798=CARTESIAN_POINT('',(1.42900440527185,1.27,2.84));
#1799=VECTOR('',#1800,1.);
#1800=DIRECTION('',(0.,0.,-1.));
#1801=CARTESIAN_POINT('',(3.65099559472815,1.27,2.84));
#1802=VECTOR('',#1803,1.);
#1803=DIRECTION('',(-1.,0.,-1.99860922922348E-016));
#1804=CARTESIAN_POINT('',(6.50900440527185,1.27,1.57));
#1805=CARTESIAN_POINT('',(6.50900440527185,1.27,2.84));
#1806=CARTESIAN_POINT('',(6.50900440527185,1.27,2.84));
#1807=VECTOR('',#1808,1.);
#1808=DIRECTION('',(0.,0.,-1.));
#1809=CARTESIAN_POINT('',(8.8651077025535,1.27,2.84));
#1810=CARTESIAN_POINT('',(8.8651077025535,1.27,2.84));
#1811=VECTOR('',#1812,1.);
#1812=DIRECTION('',(-1.,0.,1.88484609466159E-016));
#1813=CARTESIAN_POINT('',(8.8651077025535,1.27,1.57));
#1814=CARTESIAN_POINT('',(8.8651077025535,1.27,1.57));
#1815=VECTOR('',#1816,1.);
#1816=DIRECTION('',(0.,0.,1.));
#1817=CARTESIAN_POINT('',(8.8651077025535,1.27,1.57));
#1818=VECTOR('',#1819,1.);
#1819=DIRECTION('',(-1.,0.,0.));
#1820=CARTESIAN_POINT('',(3.83718923361106,0.987321452147693,2.84));
#1821=CARTESIAN_POINT('',(3.83718923361106,0.987321452147693,2.84));
#1822=VECTOR('',#1823,1.);
#1823=DIRECTION('',(0.422618261743663,0.906307787035268,0.));
#1824=CARTESIAN_POINT('',(3.78281076638894,0.987321452147693,2.84));
#1825=AXIS2_PLACEMENT_3D('',#1826,#1827,#1828);
#1826=CARTESIAN_POINT('',(3.81,1.,2.84));
#1827=DIRECTION('',(-0.,0.,1.));
#1828=DIRECTION('',(-0.906307787035284,-0.422618261743629,0.));
#1829=CARTESIAN_POINT('',(3.65099559472815,1.27,2.84));
#1830=VECTOR('',#1831,1.);
#1831=DIRECTION('',(0.422618261743666,-0.906307787035267,0.));
#1832=CARTESIAN_POINT('',(1.29718923361106,0.987321452147693,2.84));
#1833=CARTESIAN_POINT('',(1.29718923361106,0.987321452147693,2.84));
#1834=VECTOR('',#1835,1.);
#1835=DIRECTION('',(0.422618261743663,0.906307787035268,0.));
#1836=CARTESIAN_POINT('',(1.24281076638894,0.987321452147693,2.84));
#1837=AXIS2_PLACEMENT_3D('',#1838,#1839,#1840);
#1838=CARTESIAN_POINT('',(1.27,1.,2.84));
#1839=DIRECTION('',(-0.,0.,1.));
#1840=DIRECTION('',(-0.906307787035285,-0.422618261743626,0.));
#1841=CARTESIAN_POINT('',(1.11099559472815,1.27,2.84));
#1842=CARTESIAN_POINT('',(1.11099559472815,1.27,2.84));
#1843=VECTOR('',#1844,1.);
#1844=DIRECTION('',(0.422618261743666,-0.906307787035267,0.));
#1845=CARTESIAN_POINT('',(-1.2451077025535,1.27,2.84));
#1846=CARTESIAN_POINT('',(1.11099559472815,1.27,2.84));
#1847=VECTOR('',#1848,1.);
#1848=DIRECTION('',(-1.,0.,0.));
#1849=CARTESIAN_POINT('',(-1.385,0.970000000000001,2.84));
#1850=CARTESIAN_POINT('',(-1.2451077025535,1.27,2.84));
#1851=VECTOR('',#1852,1.);
#1852=DIRECTION('',(-0.4226182617407,-0.90630778703665,0.));
#1853=CARTESIAN_POINT('',(-1.385,-0.97,2.84));
#1854=CARTESIAN_POINT('',(-1.385,0.970000000000001,2.84));
#1855=VECTOR('',#1856,1.);
#1856=DIRECTION('',(-2.28911963840238E-016,-1.,0.));
#1857=CARTESIAN_POINT('',(-1.2451077025535,-1.27,2.84));
#1858=CARTESIAN_POINT('',(-1.385,-0.97,2.84));
#1859=VECTOR('',#1860,1.);
#1860=DIRECTION('',(0.422618261740699,-0.90630778703665,0.));
#1861=CARTESIAN_POINT('',(1.11099559473196,-1.27,2.84));
#1862=CARTESIAN_POINT('',(-1.2451077025535,-1.27,2.84));
#1863=VECTOR('',#1864,1.);
#1864=DIRECTION('',(1.,0.,1.88484609465855E-016));
#1865=CARTESIAN_POINT('',(1.24281076638794,-0.987321452149846,2.84));
#1866=CARTESIAN_POINT('',(1.24281076638794,-0.987321452149846,2.84));
#1867=VECTOR('',#1868,1.);
#1868=DIRECTION('',(-0.422618261733637,-0.906307787039943,0.));
#1869=CARTESIAN_POINT('',(1.29718923360911,-0.987321452143519,2.84));
#1870=AXIS2_PLACEMENT_3D('',#1871,#1872,#1873);
#1871=CARTESIAN_POINT('',(1.27,-1.,2.84));
#1872=DIRECTION('',(0.,-0.,1.));
#1873=DIRECTION('',(0.906307786970437,0.422618261882694,0.));
#1874=CARTESIAN_POINT('',(1.42900440526804,-1.27,2.84));
#1875=VECTOR('',#1876,1.);
#1876=DIRECTION('',(-0.422618261733638,0.906307787039943,0.));
#1877=CARTESIAN_POINT('',(3.78281076638794,-0.987321452149846,2.84));
#1878=CARTESIAN_POINT('',(3.78281076638794,-0.987321452149846,2.84));
#1879=VECTOR('',#1880,1.);
#1880=DIRECTION('',(-0.422618261733636,-0.906307787039944,0.));
#1881=CARTESIAN_POINT('',(3.83718923360911,-0.987321452143519,2.84));
#1882=AXIS2_PLACEMENT_3D('',#1883,#1884,#1885);
#1883=CARTESIAN_POINT('',(3.81,-1.,2.84));
#1884=DIRECTION('',(0.,-0.,1.));
#1885=DIRECTION('',(0.906307786970438,0.422618261882691,0.));
#1886=CARTESIAN_POINT('',(3.96900440526804,-1.27,2.84));
#1887=VECTOR('',#1888,1.);
#1888=DIRECTION('',(-0.422618261733638,0.906307787039943,0.));
#1889=CARTESIAN_POINT('',(6.32281076638794,-0.987321452149846,2.84));
#1890=CARTESIAN_POINT('',(6.32281076638794,-0.987321452149846,2.84));
#1891=VECTOR('',#1892,1.);
#1892=DIRECTION('',(-0.422618261733638,-0.906307787039943,0.));
#1893=CARTESIAN_POINT('',(6.37718923360911,-0.987321452143519,2.84));
#1894=AXIS2_PLACEMENT_3D('',#1895,#1896,#1897);
#1895=CARTESIAN_POINT('',(6.35,-1.,2.84));
#1896=DIRECTION('',(0.,-0.,1.));
#1897=DIRECTION('',(0.906307786970438,0.422618261882691,0.));
#1898=CARTESIAN_POINT('',(6.50900440526804,-1.27,2.84));
#1899=VECTOR('',#1900,1.);
#1900=DIRECTION('',(-0.422618261733636,0.906307787039943,0.));
#1901=CARTESIAN_POINT('',(9.005,-0.97,2.84));
#1902=CARTESIAN_POINT('',(8.8651077025535,-1.27,2.84));
#1903=VECTOR('',#1904,1.);
#1904=DIRECTION('',(0.422618261740702,0.906307787036649,0.));
#1905=CARTESIAN_POINT('',(9.005,0.97,2.84));
#1906=CARTESIAN_POINT('',(9.005,-0.97,2.84));
#1907=VECTOR('',#1908,1.);
#1908=DIRECTION('',(0.,1.,0.));
#1909=CARTESIAN_POINT('',(9.005,0.97,2.84));
#1910=VECTOR('',#1911,1.);
#1911=DIRECTION('',(-0.422618261740702,0.906307787036648,0.));
#1912=CARTESIAN_POINT('',(6.37718923361106,0.987321452147693,2.84));
#1913=CARTESIAN_POINT('',(6.37718923361106,0.987321452147693,2.84));
#1914=VECTOR('',#1915,1.);
#1915=DIRECTION('',(0.422618261743664,0.906307787035268,0.));
#1916=CARTESIAN_POINT('',(6.32281076638894,0.987321452147693,2.84));
#1917=AXIS2_PLACEMENT_3D('',#1918,#1919,#1920);
#1918=CARTESIAN_POINT('',(6.35,1.,2.84));
#1919=DIRECTION('',(-0.,0.,1.));
#1920=DIRECTION('',(-0.906307787035284,-0.422618261743629,0.));
#1921=CARTESIAN_POINT('',(6.19099559472815,1.27,2.84));
#1922=VECTOR('',#1923,1.);
#1923=DIRECTION('',(0.422618261743667,-0.906307787035266,0.));
#1924=CARTESIAN_POINT('',(0.66,-8.08266887437253E-017,2.84));
#1925=AXIS2_PLACEMENT_3D('',#1926,#1927,#1928);
#1926=CARTESIAN_POINT('',(0.,0.,2.84));
#1927=DIRECTION('',(0.,0.,1.));
#1928=DIRECTION('',(1.,0.,0.));
#1929=CARTESIAN_POINT('',(8.28,-8.08266887437253E-017,2.84));
#1930=AXIS2_PLACEMENT_3D('',#1931,#1932,#1933);
#1931=CARTESIAN_POINT('',(7.62,0.,2.84));
#1932=DIRECTION('',(0.,0.,1.));
#1933=DIRECTION('',(1.,0.,0.));
#1934=CARTESIAN_POINT('',(5.74,-8.08266887437253E-017,2.84));
#1935=AXIS2_PLACEMENT_3D('',#1936,#1937,#1938);
#1936=CARTESIAN_POINT('',(5.08,0.,2.84));
#1937=DIRECTION('',(0.,0.,1.));
#1938=DIRECTION('',(1.,0.,0.));
#1939=CARTESIAN_POINT('',(3.2,-8.08266887437253E-017,2.84));
#1940=AXIS2_PLACEMENT_3D('',#1941,#1942,#1943);
#1941=CARTESIAN_POINT('',(2.54,0.,2.84));
#1942=DIRECTION('',(0.,0.,1.));
#1943=DIRECTION('',(1.,0.,0.));
#1944=CARTESIAN_POINT('',(3.83718923361106,0.987321452147693,1.57));
#1945=CARTESIAN_POINT('',(3.83718923361106,0.987321452147693,1.57));
#1946=VECTOR('',#1947,1.);
#1947=DIRECTION('',(0.422618261743663,0.906307787035268,0.));
#1948=CARTESIAN_POINT('',(6.32281076638894,0.987321452147693,1.57));
#1949=CARTESIAN_POINT('',(6.19099559472815,1.27,1.57));
#1950=VECTOR('',#1951,1.);
#1951=DIRECTION('',(0.422618261743667,-0.906307787035266,0.));
#1952=CARTESIAN_POINT('',(6.37718923361106,0.987321452147693,1.57));
#1953=AXIS2_PLACEMENT_3D('',#1954,#1955,#1956);
#1954=CARTESIAN_POINT('',(6.35,1.,1.57));
#1955=DIRECTION('',(-0.,0.,1.));
#1956=DIRECTION('',(-0.906307787035284,-0.422618261743629,0.));
#1957=CARTESIAN_POINT('',(6.37718923361106,0.987321452147693,1.57));
#1958=VECTOR('',#1959,1.);
#1959=DIRECTION('',(0.422618261743664,0.906307787035268,0.));
#1960=CARTESIAN_POINT('',(9.005,0.97,1.57));
#1961=CARTESIAN_POINT('',(9.005,0.97,1.57));
#1962=VECTOR('',#1963,1.);
#1963=DIRECTION('',(-0.422618261740702,0.906307787036648,0.));
#1964=CARTESIAN_POINT('',(9.005,-0.97,1.57));
#1965=CARTESIAN_POINT('',(9.005,-0.97,1.57));
#1966=VECTOR('',#1967,1.);
#1967=DIRECTION('',(0.,1.,0.));
#1968=CARTESIAN_POINT('',(8.8651077025535,-1.27,1.57));
#1969=VECTOR('',#1970,1.);
#1970=DIRECTION('',(0.422618261740702,0.906307787036649,0.));
#1971=CARTESIAN_POINT('',(6.37718923360911,-0.987321452143519,1.57));
#1972=CARTESIAN_POINT('',(6.50900440526804,-1.27,1.57));
#1973=VECTOR('',#1974,1.);
#1974=DIRECTION('',(-0.422618261733636,0.906307787039943,0.));
#1975=CARTESIAN_POINT('',(6.32281076638794,-0.987321452149846,1.57));
#1976=AXIS2_PLACEMENT_3D('',#1977,#1978,#1979);
#1977=CARTESIAN_POINT('',(6.35,-1.,1.57));
#1978=DIRECTION('',(0.,-0.,1.));
#1979=DIRECTION('',(0.906307786970438,0.422618261882691,0.));
#1980=CARTESIAN_POINT('',(6.32281076638794,-0.987321452149846,1.57));
#1981=VECTOR('',#1982,1.);
#1982=DIRECTION('',(-0.422618261733638,-0.906307787039943,0.));
#1983=CARTESIAN_POINT('',(3.83718923360911,-0.987321452143519,1.57));
#1984=CARTESIAN_POINT('',(3.96900440526804,-1.27,1.57));
#1985=VECTOR('',#1986,1.);
#1986=DIRECTION('',(-0.422618261733638,0.906307787039943,0.));
#1987=CARTESIAN_POINT('',(3.78281076638794,-0.987321452149846,1.57));
#1988=AXIS2_PLACEMENT_3D('',#1989,#1990,#1991);
#1989=CARTESIAN_POINT('',(3.81,-1.,1.57));
#1990=DIRECTION('',(0.,-0.,1.));
#1991=DIRECTION('',(0.906307786970438,0.422618261882691,0.));
#1992=CARTESIAN_POINT('',(3.78281076638794,-0.987321452149846,1.57));
#1993=VECTOR('',#1994,1.);
#1994=DIRECTION('',(-0.422618261733636,-0.906307787039944,0.));
#1995=CARTESIAN_POINT('',(1.29718923360911,-0.987321452143519,1.57));
#1996=CARTESIAN_POINT('',(1.42900440526804,-1.27,1.57));
#1997=VECTOR('',#1998,1.);
#1998=DIRECTION('',(-0.422618261733638,0.906307787039943,0.));
#1999=CARTESIAN_POINT('',(1.24281076638794,-0.987321452149846,1.57));
#2000=AXIS2_PLACEMENT_3D('',#2001,#2002,#2003);
#2001=CARTESIAN_POINT('',(1.27,-1.,1.57));
#2002=DIRECTION('',(0.,-0.,1.));
#2003=DIRECTION('',(0.906307786970437,0.422618261882694,0.));
#2004=CARTESIAN_POINT('',(1.11099559473196,-1.27,1.57));
#2005=CARTESIAN_POINT('',(1.24281076638794,-0.987321452149846,1.57));
#2006=VECTOR('',#2007,1.);
#2007=DIRECTION('',(-0.422618261733637,-0.906307787039943,0.));
#2008=CARTESIAN_POINT('',(-1.2451077025535,-1.27,1.57));
#2009=CARTESIAN_POINT('',(-1.2451077025535,-1.27,1.57));
#2010=VECTOR('',#2011,1.);
#2011=DIRECTION('',(1.,0.,0.));
#2012=CARTESIAN_POINT('',(-1.385,-0.97,1.57));
#2013=CARTESIAN_POINT('',(-1.385,-0.97,1.57));
#2014=VECTOR('',#2015,1.);
#2015=DIRECTION('',(0.422618261740699,-0.90630778703665,0.));
#2016=CARTESIAN_POINT('',(-1.385,0.970000000000001,1.57));
#2017=CARTESIAN_POINT('',(-1.385,0.970000000000001,1.57));
#2018=VECTOR('',#2019,1.);
#2019=DIRECTION('',(-2.28911963840238E-016,-1.,0.));
#2020=CARTESIAN_POINT('',(-1.2451077025535,1.27,1.57));
#2021=CARTESIAN_POINT('',(-1.2451077025535,1.27,1.57));
#2022=VECTOR('',#2023,1.);
#2023=DIRECTION('',(-0.4226182617407,-0.90630778703665,0.));
#2024=CARTESIAN_POINT('',(1.11099559472815,1.27,1.57));
#2025=CARTESIAN_POINT('',(1.11099559472815,1.27,1.57));
#2026=VECTOR('',#2027,1.);
#2027=DIRECTION('',(-1.,0.,0.));
#2028=CARTESIAN_POINT('',(1.24281076638894,0.987321452147693,1.57));
#2029=CARTESIAN_POINT('',(1.11099559472815,1.27,1.57));
#2030=VECTOR('',#2031,1.);
#2031=DIRECTION('',(0.422618261743666,-0.906307787035267,0.));
#2032=CARTESIAN_POINT('',(1.29718923361106,0.987321452147693,1.57));
#2033=AXIS2_PLACEMENT_3D('',#2034,#2035,#2036);
#2034=CARTESIAN_POINT('',(1.27,1.,1.57));
#2035=DIRECTION('',(-0.,0.,1.));
#2036=DIRECTION('',(-0.906307787035285,-0.422618261743626,0.));
#2037=CARTESIAN_POINT('',(1.29718923361106,0.987321452147693,1.57));
#2038=VECTOR('',#2039,1.);
#2039=DIRECTION('',(0.422618261743663,0.906307787035268,0.));
#2040=CARTESIAN_POINT('',(3.78281076638894,0.987321452147693,1.57));
#2041=CARTESIAN_POINT('',(3.65099559472815,1.27,1.57));
#2042=VECTOR('',#2043,1.);
#2043=DIRECTION('',(0.422618261743666,-0.906307787035267,0.));
#2044=AXIS2_PLACEMENT_3D('',#2045,#2046,#2047);
#2045=CARTESIAN_POINT('',(3.81,1.,1.57));
#2046=DIRECTION('',(-0.,0.,1.));
#2047=DIRECTION('',(-0.906307787035284,-0.422618261743629,0.));
#2048=CARTESIAN_POINT('',(0.66,-8.08266887437253E-017,1.57));
#2049=AXIS2_PLACEMENT_3D('',#2050,#2051,#2052);
#2050=CARTESIAN_POINT('',(0.,0.,1.57));
#2051=DIRECTION('',(0.,0.,1.));
#2052=DIRECTION('',(1.,0.,0.));
#2053=CARTESIAN_POINT('',(8.28,-8.08266887437253E-017,1.57));
#2054=AXIS2_PLACEMENT_3D('',#2055,#2056,#2057);
#2055=CARTESIAN_POINT('',(7.62,0.,1.57));
#2056=DIRECTION('',(0.,0.,1.));
#2057=DIRECTION('',(1.,0.,0.));
#2058=CARTESIAN_POINT('',(5.74,-8.08266887437253E-017,1.57));
#2059=AXIS2_PLACEMENT_3D('',#2060,#2061,#2062);
#2060=CARTESIAN_POINT('',(5.08,0.,1.57));
#2061=DIRECTION('',(0.,0.,1.));
#2062=DIRECTION('',(1.,0.,0.));
#2063=CARTESIAN_POINT('',(3.2,-8.08266887437253E-017,1.57));
#2064=AXIS2_PLACEMENT_3D('',#2065,#2066,#2067);
#2065=CARTESIAN_POINT('',(2.54,0.,1.57));
#2066=DIRECTION('',(0.,0.,1.));
#2067=DIRECTION('',(1.,0.,0.));
#2068=CARTESIAN_POINT('',(6.37718923360911,-0.987321452143519,1.57));
#2069=VECTOR('',#2070,1.);
#2070=DIRECTION('',(0.,0.,1.));
#2071=CARTESIAN_POINT('',(6.32281076638794,-0.987321452149846,1.57));
#2072=VECTOR('',#2073,1.);
#2073=DIRECTION('',(0.,0.,1.));
#2074=CARTESIAN_POINT('',(6.32281076638894,0.987321452147694,1.57));
#2075=VECTOR('',#2076,1.);
#2076=DIRECTION('',(0.,0.,1.));
#2077=CARTESIAN_POINT('',(6.37718923361106,0.987321452147693,1.57));
#2078=VECTOR('',#2079,1.);
#2079=DIRECTION('',(0.,0.,1.));
#2080=CARTESIAN_POINT('',(3.83718923360911,-0.987321452143519,1.57));
#2081=VECTOR('',#2082,1.);
#2082=DIRECTION('',(0.,0.,1.));
#2083=CARTESIAN_POINT('',(3.78281076638794,-0.987321452149846,1.57));
#2084=VECTOR('',#2085,1.);
#2085=DIRECTION('',(0.,0.,1.));
#2086=CARTESIAN_POINT('',(3.78281076638894,0.987321452147694,1.57));
#2087=VECTOR('',#2088,1.);
#2088=DIRECTION('',(0.,0.,1.));
#2089=CARTESIAN_POINT('',(3.83718923361106,0.987321452147693,1.57));
#2090=VECTOR('',#2091,1.);
#2091=DIRECTION('',(0.,0.,1.));
#2092=CARTESIAN_POINT('',(1.29718923360911,-0.987321452143519,1.57));
#2093=VECTOR('',#2094,1.);
#2094=DIRECTION('',(0.,0.,1.));
#2095=CARTESIAN_POINT('',(9.005,-0.97,1.57));
#2096=VECTOR('',#2097,1.);
#2097=DIRECTION('',(0.,0.,1.));
#2098=CARTESIAN_POINT('',(1.29718923361106,0.987321452147693,1.57));
#2099=VECTOR('',#2100,1.);
#2100=DIRECTION('',(0.,0.,1.));
#2101=CARTESIAN_POINT('',(9.005,0.97,1.57));
#2102=VECTOR('',#2103,1.);
#2103=DIRECTION('',(0.,0.,1.));
#2104=CARTESIAN_POINT('',(1.24281076638894,0.987321452147694,1.57));
#2105=VECTOR('',#2106,1.);
#2106=DIRECTION('',(0.,0.,1.));
#2107=CARTESIAN_POINT('',(1.11099559472815,1.27,1.57));
#2108=VECTOR('',#2109,1.);
#2109=DIRECTION('',(0.,0.,1.));
#2110=CARTESIAN_POINT('',(-1.2451077025535,1.27,1.57));
#2111=VECTOR('',#2112,1.);
#2112=DIRECTION('',(0.,0.,1.));
#2113=CARTESIAN_POINT('',(-1.385,0.970000000000001,1.57));
#2114=VECTOR('',#2115,1.);
#2115=DIRECTION('',(0.,0.,1.));
#2116=CARTESIAN_POINT('',(-1.385,-0.97,1.57));
#2117=VECTOR('',#2118,1.);
#2118=DIRECTION('',(0.,0.,1.));
#2119=CARTESIAN_POINT('',(-1.2451077025535,-1.27,1.57));
#2120=VECTOR('',#2121,1.);
#2121=DIRECTION('',(0.,0.,1.));
#2122=CARTESIAN_POINT('',(1.11099559473196,-1.27,2.84));
#2123=VECTOR('',#2124,1.);
#2124=DIRECTION('',(0.,0.,-1.));
#2125=CARTESIAN_POINT('',(1.24281076638794,-0.987321452149846,1.57));
#2126=VECTOR('',#2127,1.);
#2127=DIRECTION('',(0.,0.,1.));
#2128=CARTESIAN_POINT('',(0.,-0.1275,-2.75));
#2129=AXIS2_PLACEMENT_3D('',#2130,#2131,#2132);
#2130=CARTESIAN_POINT('',(0.,0.,-2.75));
#2131=DIRECTION('',(-0.,-0.,-1.));
#2132=DIRECTION('',(0.,-1.,0.));
#2133=CARTESIAN_POINT('',(0.,-0.255,-2.6225));
#2134=AXIS2_PLACEMENT_3D('',#2135,#2136,#2137);
#2135=CARTESIAN_POINT('',(0.,0.,-2.6225));
#2136=DIRECTION('',(-0.,-0.,-1.));
#2137=DIRECTION('',(0.,-1.,0.));
#2138=CARTESIAN_POINT('',(0.,-0.255,-1.56142466891288E-017));
#2139=AXIS2_PLACEMENT_3D('',#2140,#2141,#2142);
#2140=CARTESIAN_POINT('',(0.,0.,0.));
#2141=DIRECTION('',(-0.,-0.,-1.));
#2142=DIRECTION('',(0.,-1.,0.));
#2143=CARTESIAN_POINT('',(0.,-0.66,0.283584053511925));
#2144=AXIS2_PLACEMENT_3D('',#2145,#2146,#2147);
#2145=CARTESIAN_POINT('',(0.,0.,0.283584053511925));
#2146=DIRECTION('',(-0.,-0.,-1.));
#2147=DIRECTION('',(0.,-1.,0.));
#2148=CARTESIAN_POINT('',(0.,-0.66,1.79287838708181));
#2149=AXIS2_PLACEMENT_3D('',#2150,#2151,#2152);
#2150=CARTESIAN_POINT('',(0.,0.,1.79287838708181));
#2151=DIRECTION('',(-0.,-0.,-1.));
#2152=DIRECTION('',(0.,-1.,0.));
#2153=CARTESIAN_POINT('',(0.,-0.810000000000001,2.205));
#2154=AXIS2_PLACEMENT_3D('',#2155,#2156,#2157);
#2155=CARTESIAN_POINT('',(0.,0.,2.205));
#2156=DIRECTION('',(-0.,-0.,-1.));
#2157=DIRECTION('',(0.,-1.,0.));
#2158=CARTESIAN_POINT('',(0.,-0.659999999999999,2.205));
#2159=AXIS2_PLACEMENT_3D('',#2160,#2161,#2162);
#2160=CARTESIAN_POINT('',(0.,0.,2.205));
#2161=DIRECTION('',(-0.,-0.,-1.));
#2162=DIRECTION('',(0.,-1.,0.));
#2163=CARTESIAN_POINT('',(0.,-0.66,2.84));
#2164=AXIS2_PLACEMENT_3D('',#2165,#2166,#2167);
#2165=CARTESIAN_POINT('',(0.,0.,2.84));
#2166=DIRECTION('',(-0.,-0.,-1.));
#2167=DIRECTION('',(0.,-1.,0.));
#2168=CARTESIAN_POINT('',(0.,-0.915,2.84));
#2169=AXIS2_PLACEMENT_3D('',#2170,#2171,#2172);
#2170=CARTESIAN_POINT('',(0.,0.,2.84));
#2171=DIRECTION('',(-0.,-0.,-1.));
#2172=DIRECTION('',(0.,-1.,0.));
#2173=CARTESIAN_POINT('',(0.,-0.915,3.35));
#2174=AXIS2_PLACEMENT_3D('',#2175,#2176,#2177);
#2175=CARTESIAN_POINT('',(0.,0.,3.35));
#2176=DIRECTION('',(-0.,-0.,-1.));
#2177=DIRECTION('',(0.,-1.,0.));
#2178=CARTESIAN_POINT('',(0.,-0.609191070866214,3.35));
#2179=AXIS2_PLACEMENT_3D('',#2180,#2181,#2182);
#2180=CARTESIAN_POINT('',(0.,0.,3.35));
#2181=DIRECTION('',(-0.,-0.,-1.));
#2182=DIRECTION('',(0.,-1.,0.));
#2183=CARTESIAN_POINT('',(0.,-0.5,3.05));
#2184=AXIS2_PLACEMENT_3D('',#2185,#2186,#2187);
#2185=CARTESIAN_POINT('',(0.,0.,3.05));
#2186=DIRECTION('',(0.,-0.,-1.));
#2187=DIRECTION('',(0.,-1.,0.));
#2188=CARTESIAN_POINT('',(0.,-0.5,2.85));
#2189=AXIS2_PLACEMENT_3D('',#2190,#2191,#2192);
#2190=CARTESIAN_POINT('',(0.,0.,2.85));
#2191=DIRECTION('',(0.,-0.,-1.));
#2192=DIRECTION('',(0.,-1.,0.));
#2193=CARTESIAN_POINT('',(0.,-0.225,1.65));
#2194=AXIS2_PLACEMENT_3D('',#2195,#2196,#2197);
#2195=CARTESIAN_POINT('',(0.,0.,1.65));
#2196=DIRECTION('',(-0.,-0.,-1.));
#2197=DIRECTION('',(0.,-1.,0.));
#2198=CARTESIAN_POINT('',(0.,-0.5,1.65));
#2199=AXIS2_PLACEMENT_3D('',#2200,#2201,#2202);
#2200=CARTESIAN_POINT('',(0.,0.,1.65));
#2201=DIRECTION('',(-0.,-0.,-1.));
#2202=DIRECTION('',(0.,-1.,0.));
#2203=CARTESIAN_POINT('',(0.,-0.5,0.45));
#2204=AXIS2_PLACEMENT_3D('',#2205,#2206,#2207);
#2205=CARTESIAN_POINT('',(0.,0.,0.45));
#2206=DIRECTION('',(0.,-0.,-1.));
#2207=DIRECTION('',(0.,-1.,0.));
#2208=CARTESIAN_POINT('',(0.,-0.03,0.120902457041437));
#2209=AXIS2_PLACEMENT_3D('',#2210,#2211,#2212);
#2210=CARTESIAN_POINT('',(0.,0.,0.120902457041437));
#2211=DIRECTION('',(-0.,-0.,-1.));
#2212=DIRECTION('',(0.,-1.,0.));
ENDSEC;
END-ISO-10303-21;
