ISO-10303-21;
HEADER;
FILE_DESCRIPTION(('STEP AP214'),
    '1');
FILE_NAME('SL-105-TT-11',
    '2020-03-30T23:14:57',
    ('AF'),
    (''),
    'UNSPECIFIED',
    'UNSPECIFIED',
    '');
/*Based on Samtec Inc. SL, SDL series datasheet*/
FILE_SCHEMA(('AUTOMOTIVE_DESIGN { 1 0 10303 214 3 1 1}'));
ENDSEC;

DATA;
#1=SHAPE_REPRESENTATION('NONE',(#2,#58),#6);
#2=AXIS2_PLACEMENT_3D('',#3,#4,#5);
#3=CARTESIAN_POINT('',(0.,0.,0.));
#4=DIRECTION('',(0.,0.,1.));
#5=DIRECTION('',(1.,0.,0.));
#6=(GEOMETRIC_REPRESENTATION_CONTEXT(3)GLOBAL_UNCERTAINTY_ASSIGNED_CONTEXT((#8))
GLOBAL_UNIT_ASSIGNED_CONTEXT((#7,#9,#10))REPRESENTATION_CONTEXT('NONE','NONE'));
#7=(LENGTH_UNIT()NAMED_UNIT(*)SI_UNIT(.MILLI.,.METRE.));
#8=UNCERTAINTY_MEASURE_WITH_UNIT(LENGTH_MEASURE(1.E-005),#7,'NONE','NONE');
#9=(NAMED_UNIT(*)PLANE_ANGLE_UNIT()SI_UNIT($,.RADIAN.));
#10=(NAMED_UNIT(*)SI_UNIT($,.STERADIAN.)SOLID_ANGLE_UNIT());
#11=SHAPE_DEFINITION_REPRESENTATION(#12,#1);
#12=PRODUCT_DEFINITION_SHAPE('NONE','NONE',#13);
#13=PRODUCT_DEFINITION('','UNSPECIFIED',#14,#22);
#14=PRODUCT_DEFINITION_FORMATION_WITH_SPECIFIED_SOURCE('ANY','UNSPECIFIED',#15,.NOT_KNOWN.);
#15=PRODUCT('','SL-101-TT-11','Based on Samtec Inc. SL, SDL series datasheet',(#25));
#16=PERSON('UNSPECIFIED','AF','UNSPECIFIED',('UNSPECIFIED'),('UNSPECIFIED'),
('UNSPECIFIED'));
#17=ORGANIZATION('UNSPECIFIED','UNSPECIFIED','UNSPECIFIED');
#18=PERSON_AND_ORGANIZATION(#16,#17);
#19=PERSON_AND_ORGANIZATION_ROLE('design_owner');
#20=CC_DESIGN_PERSON_AND_ORGANIZATION_ASSIGNMENT(#18,#19,(#15));
#21=PRODUCT_RELATED_PRODUCT_CATEGORY('assembly','',(#15));
#22=DESIGN_CONTEXT('detailed design',#23,'design');
#23=APPLICATION_CONTEXT('configuration controlled 3d designs of mechanical parts and assemblies');
#24=APPLICATION_PROTOCOL_DEFINITION('international standard','automotive_design',
2011,#23);
#25=PRODUCT_CONTEXT('NONE',#23,'mechanical');
#26=CC_DESIGN_DATE_AND_TIME_ASSIGNMENT(#27,#31,(#13));
#27=DATE_AND_TIME(#28,#29);
#28=CALENDAR_DATE(0,1,1);
#29=LOCAL_TIME(0,0,0.,#30);
#30=COORDINATED_UNIVERSAL_TIME_OFFSET(0,0,.AHEAD.);
#31=DATE_TIME_ROLE('creation_date');
#32=CC_DESIGN_APPROVAL(#33,(#13));
#33=APPROVAL(#34,'UNSPECIFIED');
#34=APPROVAL_STATUS('not_yet_approved');
#35=APPROVAL_DATE_TIME(#36,#33);
#36=DATE_AND_TIME(#37,#38);
#37=CALENDAR_DATE(0,1,1);
#38=LOCAL_TIME(0,0,0.,#39);
#39=COORDINATED_UNIVERSAL_TIME_OFFSET(0,0,.AHEAD.);
#40=DERIVED_UNIT((#44,#41));
#41=DERIVED_UNIT_ELEMENT(#42,-1.);
#42=VOLUME_UNIT(#43);
#43=DIMENSIONAL_EXPONENTS(3.,0.,0.,0.,0.,0.,0.);
#44=(DERIVED_UNIT_ELEMENT($,-1.)NAMED_UNIT($)MASS_UNIT()SI_UNIT($,.GRAM.));
#45=MANIFOLD_SOLID_BREP('',#46);
#46=CLOSED_SHELL('',(#121,#130,#139,#148,#157,#166,#175,#184,#193,#202,#211));
#47=COLOUR_RGB($,0.156862745098039,0.156862745098039,0.156862745098039);
#48=FILL_AREA_STYLE_COLOUR($,#47);
#49=FILL_AREA_STYLE($,(#48));
#50=SURFACE_STYLE_FILL_AREA(#49);
#51=SURFACE_SIDE_STYLE('',(#50));
#52=SURFACE_STYLE_USAGE(.BOTH.,#51);
#53=PRESENTATION_STYLE_ASSIGNMENT((#52));
#54=MECHANICAL_DESIGN_GEOMETRIC_PRESENTATION_REPRESENTATION('NONE',(#55,#96,#129,
#138,#147,#156,#165,#174,#183,#192,#201,#210,#219,#228,#237,#246,#255,#264,#273,
#282,#291,#300,#309,#318,#327,#336,#345,#354,#363,#372,#381),#6);
#55=STYLED_ITEM('',(#53),#45);
#56=ADVANCED_BREP_SHAPE_REPRESENTATION('NONE',(#45),#6);
#57=SHAPE_REPRESENTATION_RELATIONSHIP('','',#1,#56);
#58=AXIS2_PLACEMENT_3D('',#59,#60,#61);
#59=CARTESIAN_POINT('',(0.,0.,0.));
#60=DIRECTION('',(0.,0.,1.));
#61=DIRECTION('',(1.,0.,0.));
#62=SHAPE_REPRESENTATION('NONE',(#2),#6);
#63=SHAPE_DEFINITION_REPRESENTATION(#64,#62);
#64=PRODUCT_DEFINITION_SHAPE('NONE','NONE',#65);
#65=PRODUCT_DEFINITION('','UNSPECIFIED',#66,#69);
#66=PRODUCT_DEFINITION_FORMATION_WITH_SPECIFIED_SOURCE('ANY','UNSPECIFIED',#67,.NOT_KNOWN.);
#67=PRODUCT('','SxL-1xx-TT-11-pin','Based on Samtec Inc. SL, SDL series datasheet',
(#72));
#68=PRODUCT_RELATED_PRODUCT_CATEGORY('detail','',(#67));
#69=DESIGN_CONTEXT('detailed design',#70,'design');
#70=APPLICATION_CONTEXT('configuration controlled 3d designs of mechanical parts and assemblies');
#71=APPLICATION_PROTOCOL_DEFINITION('international standard','automotive_design',
2011,#70);
#72=PRODUCT_CONTEXT('NONE',#70,'mechanical');
#73=CC_DESIGN_DATE_AND_TIME_ASSIGNMENT(#74,#78,(#65));
#74=DATE_AND_TIME(#75,#76);
#75=CALENDAR_DATE(0,1,1);
#76=LOCAL_TIME(0,0,0.,#77);
#77=COORDINATED_UNIVERSAL_TIME_OFFSET(0,0,.AHEAD.);
#78=DATE_TIME_ROLE('creation_date');
#79=CC_DESIGN_APPROVAL(#80,(#65));
#80=APPROVAL(#81,'UNSPECIFIED');
#81=APPROVAL_STATUS('not_yet_approved');
#82=APPROVAL_DATE_TIME(#83,#80);
#83=DATE_AND_TIME(#84,#85);
#84=CALENDAR_DATE(0,1,1);
#85=LOCAL_TIME(0,0,0.,#86);
#86=COORDINATED_UNIVERSAL_TIME_OFFSET(0,0,.AHEAD.);
#87=MANIFOLD_SOLID_BREP('',#88);
#88=CLOSED_SHELL('',(#220,#229,#238,#247,#256,#265,#274,#283,#292,#301,#310,#319,
#328,#337,#346,#355,#364,#373));
#89=COLOUR_RGB($,0.827450980392157,0.831372549019608,0.835294117647059);
#90=FILL_AREA_STYLE_COLOUR($,#89);
#91=FILL_AREA_STYLE($,(#90));
#92=SURFACE_STYLE_FILL_AREA(#91);
#93=SURFACE_SIDE_STYLE('',(#92));
#94=SURFACE_STYLE_USAGE(.BOTH.,#93);
#95=PRESENTATION_STYLE_ASSIGNMENT((#94));
#96=STYLED_ITEM('',(#95),#87);
#97=ADVANCED_BREP_SHAPE_REPRESENTATION('NONE',(#87),#6);
#98=SHAPE_REPRESENTATION_RELATIONSHIP('','',#62,#97);
#99=ITEM_DEFINED_TRANSFORMATION('','',#2,#58);
#100=(REPRESENTATION_RELATIONSHIP('','',#62,#1)REPRESENTATION_RELATIONSHIP_WITH_TRANSFORMATION(
#99)SHAPE_REPRESENTATION_RELATIONSHIP());
#101=NEXT_ASSEMBLY_USAGE_OCCURRENCE('1','','',#13,#65,$);
#102=CC_DESIGN_SECURITY_CLASSIFICATION(#103,(#101));
#103=SECURITY_CLASSIFICATION('','',#104);
#104=SECURITY_CLASSIFICATION_LEVEL('unclassified');
#105=CC_DESIGN_DATE_AND_TIME_ASSIGNMENT(#106,#110,(#103));
#106=DATE_AND_TIME(#107,#108);
#107=CALENDAR_DATE(0,1,1);
#108=LOCAL_TIME(0,0,0.,#109);
#109=COORDINATED_UNIVERSAL_TIME_OFFSET(0,0,.AHEAD.);
#110=DATE_TIME_ROLE('classification_date');
#111=CC_DESIGN_APPROVAL(#112,(#103));
#112=APPROVAL(#113,'UNSPECIFIED');
#113=APPROVAL_STATUS('not_yet_approved');
#114=APPROVAL_DATE_TIME(#115,#112);
#115=DATE_AND_TIME(#116,#117);
#116=CALENDAR_DATE(0,1,1);
#117=LOCAL_TIME(0,0,0.,#118);
#118=COORDINATED_UNIVERSAL_TIME_OFFSET(0,0,.AHEAD.);
#119=PRODUCT_DEFINITION_SHAPE('NONE','NONE',#101);
#120=CONTEXT_DEPENDENT_SHAPE_REPRESENTATION(#100,#119);
#121=ADVANCED_FACE('',(#382,#384),#386,.F.);
#122=COLOUR_RGB($,0.156862745098039,0.156862745098039,0.156862745098039);
#123=FILL_AREA_STYLE_COLOUR($,#122);
#124=FILL_AREA_STYLE($,(#123));
#125=SURFACE_STYLE_FILL_AREA(#124);
#126=SURFACE_SIDE_STYLE('',(#125));
#127=SURFACE_STYLE_USAGE(.BOTH.,#126);
#128=PRESENTATION_STYLE_ASSIGNMENT((#127));
#129=STYLED_ITEM('',(#128),#121);
#130=ADVANCED_FACE('',(#391,#393),#395,.T.);
#131=COLOUR_RGB($,0.156862745098039,0.156862745098039,0.156862745098039);
#132=FILL_AREA_STYLE_COLOUR($,#131);
#133=FILL_AREA_STYLE($,(#132));
#134=SURFACE_STYLE_FILL_AREA(#133);
#135=SURFACE_SIDE_STYLE('',(#134));
#136=SURFACE_STYLE_USAGE(.BOTH.,#135);
#137=PRESENTATION_STYLE_ASSIGNMENT((#136));
#138=STYLED_ITEM('',(#137),#130);
#139=ADVANCED_FACE('',(#400,#402),#404,.F.);
#140=COLOUR_RGB($,0.156862745098039,0.156862745098039,0.156862745098039);
#141=FILL_AREA_STYLE_COLOUR($,#140);
#142=FILL_AREA_STYLE($,(#141));
#143=SURFACE_STYLE_FILL_AREA(#142);
#144=SURFACE_SIDE_STYLE('',(#143));
#145=SURFACE_STYLE_USAGE(.BOTH.,#144);
#146=PRESENTATION_STYLE_ASSIGNMENT((#145));
#147=STYLED_ITEM('',(#146),#139);
#148=ADVANCED_FACE('',(#409),#411,.T.);
#149=COLOUR_RGB($,0.156862745098039,0.156862745098039,0.156862745098039);
#150=FILL_AREA_STYLE_COLOUR($,#149);
#151=FILL_AREA_STYLE($,(#150));
#152=SURFACE_STYLE_FILL_AREA(#151);
#153=SURFACE_SIDE_STYLE('',(#152));
#154=SURFACE_STYLE_USAGE(.BOTH.,#153);
#155=PRESENTATION_STYLE_ASSIGNMENT((#154));
#156=STYLED_ITEM('',(#155),#148);
#157=ADVANCED_FACE('',(#416),#418,.T.);
#158=COLOUR_RGB($,0.156862745098039,0.156862745098039,0.156862745098039);
#159=FILL_AREA_STYLE_COLOUR($,#158);
#160=FILL_AREA_STYLE($,(#159));
#161=SURFACE_STYLE_FILL_AREA(#160);
#162=SURFACE_SIDE_STYLE('',(#161));
#163=SURFACE_STYLE_USAGE(.BOTH.,#162);
#164=PRESENTATION_STYLE_ASSIGNMENT((#163));
#165=STYLED_ITEM('',(#164),#157);
#166=ADVANCED_FACE('',(#423),#425,.T.);
#167=COLOUR_RGB($,0.156862745098039,0.156862745098039,0.156862745098039);
#168=FILL_AREA_STYLE_COLOUR($,#167);
#169=FILL_AREA_STYLE($,(#168));
#170=SURFACE_STYLE_FILL_AREA(#169);
#171=SURFACE_SIDE_STYLE('',(#170));
#172=SURFACE_STYLE_USAGE(.BOTH.,#171);
#173=PRESENTATION_STYLE_ASSIGNMENT((#172));
#174=STYLED_ITEM('',(#173),#166);
#175=ADVANCED_FACE('',(#430),#432,.T.);
#176=COLOUR_RGB($,0.156862745098039,0.156862745098039,0.156862745098039);
#177=FILL_AREA_STYLE_COLOUR($,#176);
#178=FILL_AREA_STYLE($,(#177));
#179=SURFACE_STYLE_FILL_AREA(#178);
#180=SURFACE_SIDE_STYLE('',(#179));
#181=SURFACE_STYLE_USAGE(.BOTH.,#180);
#182=PRESENTATION_STYLE_ASSIGNMENT((#181));
#183=STYLED_ITEM('',(#182),#175);
#184=ADVANCED_FACE('',(#437),#439,.T.);
#185=COLOUR_RGB($,0.156862745098039,0.156862745098039,0.156862745098039);
#186=FILL_AREA_STYLE_COLOUR($,#185);
#187=FILL_AREA_STYLE($,(#186));
#188=SURFACE_STYLE_FILL_AREA(#187);
#189=SURFACE_SIDE_STYLE('',(#188));
#190=SURFACE_STYLE_USAGE(.BOTH.,#189);
#191=PRESENTATION_STYLE_ASSIGNMENT((#190));
#192=STYLED_ITEM('',(#191),#184);
#193=ADVANCED_FACE('',(#444),#446,.T.);
#194=COLOUR_RGB($,0.156862745098039,0.156862745098039,0.156862745098039);
#195=FILL_AREA_STYLE_COLOUR($,#194);
#196=FILL_AREA_STYLE($,(#195));
#197=SURFACE_STYLE_FILL_AREA(#196);
#198=SURFACE_SIDE_STYLE('',(#197));
#199=SURFACE_STYLE_USAGE(.BOTH.,#198);
#200=PRESENTATION_STYLE_ASSIGNMENT((#199));
#201=STYLED_ITEM('',(#200),#193);
#202=ADVANCED_FACE('',(#451),#453,.T.);
#203=COLOUR_RGB($,0.156862745098039,0.156862745098039,0.156862745098039);
#204=FILL_AREA_STYLE_COLOUR($,#203);
#205=FILL_AREA_STYLE($,(#204));
#206=SURFACE_STYLE_FILL_AREA(#205);
#207=SURFACE_SIDE_STYLE('',(#206));
#208=SURFACE_STYLE_USAGE(.BOTH.,#207);
#209=PRESENTATION_STYLE_ASSIGNMENT((#208));
#210=STYLED_ITEM('',(#209),#202);
#211=ADVANCED_FACE('',(#458),#460,.T.);
#212=COLOUR_RGB($,0.156862745098039,0.156862745098039,0.156862745098039);
#213=FILL_AREA_STYLE_COLOUR($,#212);
#214=FILL_AREA_STYLE($,(#213));
#215=SURFACE_STYLE_FILL_AREA(#214);
#216=SURFACE_SIDE_STYLE('',(#215));
#217=SURFACE_STYLE_USAGE(.BOTH.,#216);
#218=PRESENTATION_STYLE_ASSIGNMENT((#217));
#219=STYLED_ITEM('',(#218),#211);
#220=ADVANCED_FACE('',(#465),#467,.T.);
#221=COLOUR_RGB($,0.827450980392157,0.831372549019608,0.835294117647059);
#222=FILL_AREA_STYLE_COLOUR($,#221);
#223=FILL_AREA_STYLE($,(#222));
#224=SURFACE_STYLE_FILL_AREA(#223);
#225=SURFACE_SIDE_STYLE('',(#224));
#226=SURFACE_STYLE_USAGE(.BOTH.,#225);
#227=PRESENTATION_STYLE_ASSIGNMENT((#226));
#228=STYLED_ITEM('',(#227),#220);
#229=ADVANCED_FACE('',(#472,#474),#476,.T.);
#230=COLOUR_RGB($,0.827450980392157,0.831372549019608,0.835294117647059);
#231=FILL_AREA_STYLE_COLOUR($,#230);
#232=FILL_AREA_STYLE($,(#231));
#233=SURFACE_STYLE_FILL_AREA(#232);
#234=SURFACE_SIDE_STYLE('',(#233));
#235=SURFACE_STYLE_USAGE(.BOTH.,#234);
#236=PRESENTATION_STYLE_ASSIGNMENT((#235));
#237=STYLED_ITEM('',(#236),#229);
#238=ADVANCED_FACE('',(#481,#483),#485,.T.);
#239=COLOUR_RGB($,0.827450980392157,0.831372549019608,0.835294117647059);
#240=FILL_AREA_STYLE_COLOUR($,#239);
#241=FILL_AREA_STYLE($,(#240));
#242=SURFACE_STYLE_FILL_AREA(#241);
#243=SURFACE_SIDE_STYLE('',(#242));
#244=SURFACE_STYLE_USAGE(.BOTH.,#243);
#245=PRESENTATION_STYLE_ASSIGNMENT((#244));
#246=STYLED_ITEM('',(#245),#238);
#247=ADVANCED_FACE('',(#490,#492),#494,.T.);
#248=COLOUR_RGB($,0.827450980392157,0.831372549019608,0.835294117647059);
#249=FILL_AREA_STYLE_COLOUR($,#248);
#250=FILL_AREA_STYLE($,(#249));
#251=SURFACE_STYLE_FILL_AREA(#250);
#252=SURFACE_SIDE_STYLE('',(#251));
#253=SURFACE_STYLE_USAGE(.BOTH.,#252);
#254=PRESENTATION_STYLE_ASSIGNMENT((#253));
#255=STYLED_ITEM('',(#254),#247);
#256=ADVANCED_FACE('',(#499,#501),#503,.T.);
#257=COLOUR_RGB($,0.827450980392157,0.831372549019608,0.835294117647059);
#258=FILL_AREA_STYLE_COLOUR($,#257);
#259=FILL_AREA_STYLE($,(#258));
#260=SURFACE_STYLE_FILL_AREA(#259);
#261=SURFACE_SIDE_STYLE('',(#260));
#262=SURFACE_STYLE_USAGE(.BOTH.,#261);
#263=PRESENTATION_STYLE_ASSIGNMENT((#262));
#264=STYLED_ITEM('',(#263),#256);
#265=ADVANCED_FACE('',(#508,#510),#512,.T.);
#266=COLOUR_RGB($,0.827450980392157,0.831372549019608,0.835294117647059);
#267=FILL_AREA_STYLE_COLOUR($,#266);
#268=FILL_AREA_STYLE($,(#267));
#269=SURFACE_STYLE_FILL_AREA(#268);
#270=SURFACE_SIDE_STYLE('',(#269));
#271=SURFACE_STYLE_USAGE(.BOTH.,#270);
#272=PRESENTATION_STYLE_ASSIGNMENT((#271));
#273=STYLED_ITEM('',(#272),#265);
#274=ADVANCED_FACE('',(#517,#519),#521,.T.);
#275=COLOUR_RGB($,0.827450980392157,0.831372549019608,0.835294117647059);
#276=FILL_AREA_STYLE_COLOUR($,#275);
#277=FILL_AREA_STYLE($,(#276));
#278=SURFACE_STYLE_FILL_AREA(#277);
#279=SURFACE_SIDE_STYLE('',(#278));
#280=SURFACE_STYLE_USAGE(.BOTH.,#279);
#281=PRESENTATION_STYLE_ASSIGNMENT((#280));
#282=STYLED_ITEM('',(#281),#274);
#283=ADVANCED_FACE('',(#526,#528),#530,.T.);
#284=COLOUR_RGB($,0.827450980392157,0.831372549019608,0.835294117647059);
#285=FILL_AREA_STYLE_COLOUR($,#284);
#286=FILL_AREA_STYLE($,(#285));
#287=SURFACE_STYLE_FILL_AREA(#286);
#288=SURFACE_SIDE_STYLE('',(#287));
#289=SURFACE_STYLE_USAGE(.BOTH.,#288);
#290=PRESENTATION_STYLE_ASSIGNMENT((#289));
#291=STYLED_ITEM('',(#290),#283);
#292=ADVANCED_FACE('',(#535,#537),#539,.T.);
#293=COLOUR_RGB($,0.827450980392157,0.831372549019608,0.835294117647059);
#294=FILL_AREA_STYLE_COLOUR($,#293);
#295=FILL_AREA_STYLE($,(#294));
#296=SURFACE_STYLE_FILL_AREA(#295);
#297=SURFACE_SIDE_STYLE('',(#296));
#298=SURFACE_STYLE_USAGE(.BOTH.,#297);
#299=PRESENTATION_STYLE_ASSIGNMENT((#298));
#300=STYLED_ITEM('',(#299),#292);
#301=ADVANCED_FACE('',(#544,#546),#548,.T.);
#302=COLOUR_RGB($,0.827450980392157,0.831372549019608,0.835294117647059);
#303=FILL_AREA_STYLE_COLOUR($,#302);
#304=FILL_AREA_STYLE($,(#303));
#305=SURFACE_STYLE_FILL_AREA(#304);
#306=SURFACE_SIDE_STYLE('',(#305));
#307=SURFACE_STYLE_USAGE(.BOTH.,#306);
#308=PRESENTATION_STYLE_ASSIGNMENT((#307));
#309=STYLED_ITEM('',(#308),#301);
#310=ADVANCED_FACE('',(#553,#555),#557,.T.);
#311=COLOUR_RGB($,0.827450980392157,0.831372549019608,0.835294117647059);
#312=FILL_AREA_STYLE_COLOUR($,#311);
#313=FILL_AREA_STYLE($,(#312));
#314=SURFACE_STYLE_FILL_AREA(#313);
#315=SURFACE_SIDE_STYLE('',(#314));
#316=SURFACE_STYLE_USAGE(.BOTH.,#315);
#317=PRESENTATION_STYLE_ASSIGNMENT((#316));
#318=STYLED_ITEM('',(#317),#310);
#319=ADVANCED_FACE('',(#562,#564),#566,.F.);
#320=COLOUR_RGB($,0.827450980392157,0.831372549019608,0.835294117647059);
#321=FILL_AREA_STYLE_COLOUR($,#320);
#322=FILL_AREA_STYLE($,(#321));
#323=SURFACE_STYLE_FILL_AREA(#322);
#324=SURFACE_SIDE_STYLE('',(#323));
#325=SURFACE_STYLE_USAGE(.BOTH.,#324);
#326=PRESENTATION_STYLE_ASSIGNMENT((#325));
#327=STYLED_ITEM('',(#326),#319);
#328=ADVANCED_FACE('',(#571,#573),#575,.F.);
#329=COLOUR_RGB($,0.827450980392157,0.831372549019608,0.835294117647059);
#330=FILL_AREA_STYLE_COLOUR($,#329);
#331=FILL_AREA_STYLE($,(#330));
#332=SURFACE_STYLE_FILL_AREA(#331);
#333=SURFACE_SIDE_STYLE('',(#332));
#334=SURFACE_STYLE_USAGE(.BOTH.,#333);
#335=PRESENTATION_STYLE_ASSIGNMENT((#334));
#336=STYLED_ITEM('',(#335),#328);
#337=ADVANCED_FACE('',(#580,#582),#584,.F.);
#338=COLOUR_RGB($,0.827450980392157,0.831372549019608,0.835294117647059);
#339=FILL_AREA_STYLE_COLOUR($,#338);
#340=FILL_AREA_STYLE($,(#339));
#341=SURFACE_STYLE_FILL_AREA(#340);
#342=SURFACE_SIDE_STYLE('',(#341));
#343=SURFACE_STYLE_USAGE(.BOTH.,#342);
#344=PRESENTATION_STYLE_ASSIGNMENT((#343));
#345=STYLED_ITEM('',(#344),#337);
#346=ADVANCED_FACE('',(#589,#591),#593,.T.);
#347=COLOUR_RGB($,0.827450980392157,0.831372549019608,0.835294117647059);
#348=FILL_AREA_STYLE_COLOUR($,#347);
#349=FILL_AREA_STYLE($,(#348));
#350=SURFACE_STYLE_FILL_AREA(#349);
#351=SURFACE_SIDE_STYLE('',(#350));
#352=SURFACE_STYLE_USAGE(.BOTH.,#351);
#353=PRESENTATION_STYLE_ASSIGNMENT((#352));
#354=STYLED_ITEM('',(#353),#346);
#355=ADVANCED_FACE('',(#598,#600),#602,.F.);
#356=COLOUR_RGB($,0.827450980392157,0.831372549019608,0.835294117647059);
#357=FILL_AREA_STYLE_COLOUR($,#356);
#358=FILL_AREA_STYLE($,(#357));
#359=SURFACE_STYLE_FILL_AREA(#358);
#360=SURFACE_SIDE_STYLE('',(#359));
#361=SURFACE_STYLE_USAGE(.BOTH.,#360);
#362=PRESENTATION_STYLE_ASSIGNMENT((#361));
#363=STYLED_ITEM('',(#362),#355);
#364=ADVANCED_FACE('',(#607,#609),#611,.F.);
#365=COLOUR_RGB($,0.827450980392157,0.831372549019608,0.835294117647059);
#366=FILL_AREA_STYLE_COLOUR($,#365);
#367=FILL_AREA_STYLE($,(#366));
#368=SURFACE_STYLE_FILL_AREA(#367);
#369=SURFACE_SIDE_STYLE('',(#368));
#370=SURFACE_STYLE_USAGE(.BOTH.,#369);
#371=PRESENTATION_STYLE_ASSIGNMENT((#370));
#372=STYLED_ITEM('',(#371),#364);
#373=ADVANCED_FACE('',(#616),#618,.T.);
#374=COLOUR_RGB($,0.827450980392157,0.831372549019608,0.835294117647059);
#375=FILL_AREA_STYLE_COLOUR($,#374);
#376=FILL_AREA_STYLE($,(#375));
#377=SURFACE_STYLE_FILL_AREA(#376);
#378=SURFACE_SIDE_STYLE('',(#377));
#379=SURFACE_STYLE_USAGE(.BOTH.,#378);
#380=PRESENTATION_STYLE_ASSIGNMENT((#379));
#381=STYLED_ITEM('',(#380),#373);
#382=FACE_BOUND('',#383,.T.);
#383=EDGE_LOOP('',(#623,#624,#625,#626,#627,#628,#629,#630));
#384=FACE_BOUND('',#385,.T.);
#385=EDGE_LOOP('',(#631));
#386=PLANE('',#387);
#387=AXIS2_PLACEMENT_3D('',#388,#389,#390);
#388=CARTESIAN_POINT('',(0.,0.,1.57));
#389=DIRECTION('',(0.,0.,1.));
#390=DIRECTION('',(1.,0.,0.));
#391=FACE_BOUND('',#392,.T.);
#392=EDGE_LOOP('',(#632,#633,#634,#635,#636,#637,#638,#639));
#393=FACE_BOUND('',#394,.T.);
#394=EDGE_LOOP('',(#640));
#395=PLANE('',#396);
#396=AXIS2_PLACEMENT_3D('',#397,#398,#399);
#397=CARTESIAN_POINT('',(0.,0.,2.84));
#398=DIRECTION('',(0.,0.,1.));
#399=DIRECTION('',(1.,0.,0.));
#400=FACE_OUTER_BOUND('',#401,.T.);
#401=EDGE_LOOP('',(#641));
#402=FACE_OUTER_BOUND('',#403,.T.);
#403=EDGE_LOOP('',(#642));
#404=CYLINDRICAL_SURFACE('',#405,0.66);
#405=AXIS2_PLACEMENT_3D('',#406,#407,#408);
#406=CARTESIAN_POINT('',(0.,0.,0.));
#407=DIRECTION('',(0.,0.,1.));
#408=DIRECTION('',(1.,0.,0.));
#409=FACE_BOUND('',#410,.T.);
#410=EDGE_LOOP('',(#643,#644,#645,#646));
#411=PLANE('',#412);
#412=AXIS2_PLACEMENT_3D('',#413,#414,#415);
#413=CARTESIAN_POINT('',(-1.2451077025535,-1.27,1.57));
#414=DIRECTION('',(0.,-1.,0.));
#415=DIRECTION('',(1.,0.,0.));
#416=FACE_BOUND('',#417,.T.);
#417=EDGE_LOOP('',(#647,#648,#649,#650));
#418=PLANE('',#419);
#419=AXIS2_PLACEMENT_3D('',#420,#421,#422);
#420=CARTESIAN_POINT('',(-1.385,-0.97,1.57));
#421=DIRECTION('',(-0.90630778703665,-0.422618261740699,0.));
#422=DIRECTION('',(0.422618261740699,-0.90630778703665,0.));
#423=FACE_BOUND('',#424,.T.);
#424=EDGE_LOOP('',(#651,#652,#653,#654));
#425=PLANE('',#426);
#426=AXIS2_PLACEMENT_3D('',#427,#428,#429);
#427=CARTESIAN_POINT('',(-1.385,0.970000000000001,1.57));
#428=DIRECTION('',(-1.,2.28911963840238E-016,0.));
#429=DIRECTION('',(-2.28911963840238E-016,-1.,0.));
#430=FACE_BOUND('',#431,.T.);
#431=EDGE_LOOP('',(#655,#656,#657,#658));
#432=PLANE('',#433);
#433=AXIS2_PLACEMENT_3D('',#434,#435,#436);
#434=CARTESIAN_POINT('',(-1.2451077025535,1.27,1.57));
#435=DIRECTION('',(-0.90630778703665,0.422618261740699,0.));
#436=DIRECTION('',(-0.4226182617407,-0.90630778703665,0.));
#437=FACE_BOUND('',#438,.T.);
#438=EDGE_LOOP('',(#659,#660,#661,#662));
#439=PLANE('',#440);
#440=AXIS2_PLACEMENT_3D('',#441,#442,#443);
#441=CARTESIAN_POINT('',(1.2451077025535,1.27,1.57));
#442=DIRECTION('',(0.,1.,-0.));
#443=DIRECTION('',(-1.,0.,0.));
#444=FACE_BOUND('',#445,.T.);
#445=EDGE_LOOP('',(#663,#664,#665,#666));
#446=PLANE('',#447);
#447=AXIS2_PLACEMENT_3D('',#448,#449,#450);
#448=CARTESIAN_POINT('',(1.385,0.970000000000001,1.57));
#449=DIRECTION('',(0.90630778703665,0.422618261740699,-0.));
#450=DIRECTION('',(-0.422618261740699,0.90630778703665,0.));
#451=FACE_BOUND('',#452,.T.);
#452=EDGE_LOOP('',(#667,#668,#669,#670));
#453=PLANE('',#454);
#454=AXIS2_PLACEMENT_3D('',#455,#456,#457);
#455=CARTESIAN_POINT('',(1.385,-0.969999999999999,1.57));
#456=DIRECTION('',(1.,0.,0.));
#457=DIRECTION('',(0.,1.,0.));
#458=FACE_BOUND('',#459,.T.);
#459=EDGE_LOOP('',(#671,#672,#673,#674));
#460=PLANE('',#461);
#461=AXIS2_PLACEMENT_3D('',#462,#463,#464);
#462=CARTESIAN_POINT('',(1.2451077025535,-1.27,1.57));
#463=DIRECTION('',(0.906307787036649,-0.422618261740701,0.));
#464=DIRECTION('',(0.422618261740701,0.906307787036649,0.));
#465=FACE_BOUND('',#466,.T.);
#466=EDGE_LOOP('',(#675));
#467=PLANE('',#468);
#468=AXIS2_PLACEMENT_3D('',#469,#470,#471);
#469=CARTESIAN_POINT('',(0.,0.,-2.75));
#470=DIRECTION('',(-0.,-0.,-1.));
#471=DIRECTION('',(0.,-1.,0.));
#472=FACE_OUTER_BOUND('',#473,.T.);
#473=EDGE_LOOP('',(#676));
#474=FACE_OUTER_BOUND('',#475,.T.);
#475=EDGE_LOOP('',(#677));
#476=CONICAL_SURFACE('',#477,0.19125,0.785398163397449);
#477=AXIS2_PLACEMENT_3D('',#478,#479,#480);
#478=CARTESIAN_POINT('',(0.,0.,-2.68625));
#479=DIRECTION('',(0.,0.,1.));
#480=DIRECTION('',(-0.,1.,-0.));
#481=FACE_OUTER_BOUND('',#482,.T.);
#482=EDGE_LOOP('',(#678));
#483=FACE_OUTER_BOUND('',#484,.T.);
#484=EDGE_LOOP('',(#679));
#485=CYLINDRICAL_SURFACE('',#486,0.255);
#486=AXIS2_PLACEMENT_3D('',#487,#488,#489);
#487=CARTESIAN_POINT('',(0.,0.,0.));
#488=DIRECTION('',(-0.,-0.,-1.));
#489=DIRECTION('',(0.,-1.,0.));
#490=FACE_OUTER_BOUND('',#491,.T.);
#491=EDGE_LOOP('',(#680));
#492=FACE_OUTER_BOUND('',#493,.T.);
#493=EDGE_LOOP('',(#681));
#494=CONICAL_SURFACE('',#495,0.4575,0.959931087707183);
#495=AXIS2_PLACEMENT_3D('',#496,#497,#498);
#496=CARTESIAN_POINT('',(0.,0.,0.141792026755963));
#497=DIRECTION('',(0.,0.,1.));
#498=DIRECTION('',(-0.,1.,-0.));
#499=FACE_OUTER_BOUND('',#500,.T.);
#500=EDGE_LOOP('',(#682));
#501=FACE_OUTER_BOUND('',#502,.T.);
#502=EDGE_LOOP('',(#683));
#503=CYLINDRICAL_SURFACE('',#504,0.66);
#504=AXIS2_PLACEMENT_3D('',#505,#506,#507);
#505=CARTESIAN_POINT('',(0.,0.,1.79287838708181));
#506=DIRECTION('',(-0.,-0.,-1.));
#507=DIRECTION('',(0.,-1.,0.));
#508=FACE_OUTER_BOUND('',#509,.T.);
#509=EDGE_LOOP('',(#684));
#510=FACE_OUTER_BOUND('',#511,.T.);
#511=EDGE_LOOP('',(#685));
#512=CONICAL_SURFACE('',#513,0.735,0.349065850398867);
#513=AXIS2_PLACEMENT_3D('',#514,#515,#516);
#514=CARTESIAN_POINT('',(0.,0.,1.9989391935409));
#515=DIRECTION('',(0.,0.,1.));
#516=DIRECTION('',(-0.,1.,-0.));
#517=FACE_BOUND('',#518,.T.);
#518=EDGE_LOOP('',(#686));
#519=FACE_BOUND('',#520,.T.);
#520=EDGE_LOOP('',(#687));
#521=PLANE('',#522);
#522=AXIS2_PLACEMENT_3D('',#523,#524,#525);
#523=CARTESIAN_POINT('',(0.,0.,2.205));
#524=DIRECTION('',(0.,0.,1.));
#525=DIRECTION('',(0.,-1.,0.));
#526=FACE_OUTER_BOUND('',#527,.T.);
#527=EDGE_LOOP('',(#688));
#528=FACE_OUTER_BOUND('',#529,.T.);
#529=EDGE_LOOP('',(#689));
#530=CYLINDRICAL_SURFACE('',#531,0.66);
#531=AXIS2_PLACEMENT_3D('',#532,#533,#534);
#532=CARTESIAN_POINT('',(0.,0.,2.84));
#533=DIRECTION('',(-0.,-0.,-1.));
#534=DIRECTION('',(0.,-1.,0.));
#535=FACE_BOUND('',#536,.T.);
#536=EDGE_LOOP('',(#690));
#537=FACE_BOUND('',#538,.T.);
#538=EDGE_LOOP('',(#691));
#539=PLANE('',#540);
#540=AXIS2_PLACEMENT_3D('',#541,#542,#543);
#541=CARTESIAN_POINT('',(0.,0.,2.84));
#542=DIRECTION('',(-0.,-0.,-1.));
#543=DIRECTION('',(0.,-1.,0.));
#544=FACE_OUTER_BOUND('',#545,.T.);
#545=EDGE_LOOP('',(#692));
#546=FACE_OUTER_BOUND('',#547,.T.);
#547=EDGE_LOOP('',(#693));
#548=CYLINDRICAL_SURFACE('',#549,0.915);
#549=AXIS2_PLACEMENT_3D('',#550,#551,#552);
#550=CARTESIAN_POINT('',(0.,0.,3.35));
#551=DIRECTION('',(-0.,-0.,-1.));
#552=DIRECTION('',(0.,-1.,0.));
#553=FACE_BOUND('',#554,.T.);
#554=EDGE_LOOP('',(#694));
#555=FACE_BOUND('',#556,.T.);
#556=EDGE_LOOP('',(#695));
#557=PLANE('',#558);
#558=AXIS2_PLACEMENT_3D('',#559,#560,#561);
#559=CARTESIAN_POINT('',(0.,0.,3.35));
#560=DIRECTION('',(0.,0.,1.));
#561=DIRECTION('',(0.,-1.,0.));
#562=FACE_OUTER_BOUND('',#563,.T.);
#563=EDGE_LOOP('',(#696));
#564=FACE_OUTER_BOUND('',#565,.T.);
#565=EDGE_LOOP('',(#697));
#566=CONICAL_SURFACE('',#567,0.554595535433107,0.349065852124744);
#567=AXIS2_PLACEMENT_3D('',#568,#569,#570);
#568=CARTESIAN_POINT('',(0.,0.,3.2));
#569=DIRECTION('',(0.,0.,1.));
#570=DIRECTION('',(-0.,1.,-0.));
#571=FACE_OUTER_BOUND('',#572,.T.);
#572=EDGE_LOOP('',(#698));
#573=FACE_OUTER_BOUND('',#574,.T.);
#574=EDGE_LOOP('',(#699));
#575=CYLINDRICAL_SURFACE('',#576,0.5);
#576=AXIS2_PLACEMENT_3D('',#577,#578,#579);
#577=CARTESIAN_POINT('',(0.,0.,2.85));
#578=DIRECTION('',(-0.,-0.,-1.));
#579=DIRECTION('',(0.,-1.,0.));
#580=FACE_OUTER_BOUND('',#581,.T.);
#581=EDGE_LOOP('',(#700));
#582=FACE_OUTER_BOUND('',#583,.T.);
#583=EDGE_LOOP('',(#701));
#584=CONICAL_SURFACE('',#585,0.3625,0.225276779214055);
#585=AXIS2_PLACEMENT_3D('',#586,#587,#588);
#586=CARTESIAN_POINT('',(0.,0.,2.25));
#587=DIRECTION('',(0.,0.,1.));
#588=DIRECTION('',(-0.,1.,-0.));
#589=FACE_BOUND('',#590,.T.);
#590=EDGE_LOOP('',(#702));
#591=FACE_BOUND('',#592,.T.);
#592=EDGE_LOOP('',(#703));
#593=PLANE('',#594);
#594=AXIS2_PLACEMENT_3D('',#595,#596,#597);
#595=CARTESIAN_POINT('',(0.,0.,1.65));
#596=DIRECTION('',(-0.,-0.,-1.));
#597=DIRECTION('',(0.,-1.,0.));
#598=FACE_OUTER_BOUND('',#599,.T.);
#599=EDGE_LOOP('',(#704));
#600=FACE_OUTER_BOUND('',#601,.T.);
#601=EDGE_LOOP('',(#705));
#602=CYLINDRICAL_SURFACE('',#603,0.5);
#603=AXIS2_PLACEMENT_3D('',#604,#605,#606);
#604=CARTESIAN_POINT('',(0.,0.,0.45));
#605=DIRECTION('',(-0.,-0.,-1.));
#606=DIRECTION('',(0.,-1.,0.));
#607=FACE_OUTER_BOUND('',#608,.T.);
#608=EDGE_LOOP('',(#706));
#609=FACE_OUTER_BOUND('',#610,.T.);
#610=EDGE_LOOP('',(#707));
#611=CONICAL_SURFACE('',#612,0.265,0.959931088596881);
#612=AXIS2_PLACEMENT_3D('',#613,#614,#615);
#613=CARTESIAN_POINT('',(0.,0.,0.285451228520718));
#614=DIRECTION('',(0.,0.,1.));
#615=DIRECTION('',(-0.,1.,-0.));
#616=FACE_BOUND('',#617,.T.);
#617=EDGE_LOOP('',(#708));
#618=PLANE('',#619);
#619=AXIS2_PLACEMENT_3D('',#620,#621,#622);
#620=CARTESIAN_POINT('',(0.,0.,0.120902457041437));
#621=DIRECTION('',(0.,0.,1.));
#622=DIRECTION('',(0.,-1.,0.));
#623=ORIENTED_EDGE('',*,*,#709,.F.);
#624=ORIENTED_EDGE('',*,*,#710,.F.);
#625=ORIENTED_EDGE('',*,*,#711,.F.);
#626=ORIENTED_EDGE('',*,*,#712,.F.);
#627=ORIENTED_EDGE('',*,*,#713,.F.);
#628=ORIENTED_EDGE('',*,*,#714,.F.);
#629=ORIENTED_EDGE('',*,*,#715,.F.);
#630=ORIENTED_EDGE('',*,*,#716,.F.);
#631=ORIENTED_EDGE('',*,*,#717,.T.);
#632=ORIENTED_EDGE('',*,*,#718,.T.);
#633=ORIENTED_EDGE('',*,*,#719,.T.);
#634=ORIENTED_EDGE('',*,*,#720,.T.);
#635=ORIENTED_EDGE('',*,*,#721,.T.);
#636=ORIENTED_EDGE('',*,*,#722,.T.);
#637=ORIENTED_EDGE('',*,*,#723,.T.);
#638=ORIENTED_EDGE('',*,*,#724,.T.);
#639=ORIENTED_EDGE('',*,*,#725,.T.);
#640=ORIENTED_EDGE('',*,*,#726,.T.);
#641=ORIENTED_EDGE('',*,*,#726,.F.);
#642=ORIENTED_EDGE('',*,*,#717,.F.);
#643=ORIENTED_EDGE('',*,*,#709,.T.);
#644=ORIENTED_EDGE('',*,*,#727,.T.);
#645=ORIENTED_EDGE('',*,*,#725,.F.);
#646=ORIENTED_EDGE('',*,*,#728,.F.);
#647=ORIENTED_EDGE('',*,*,#710,.T.);
#648=ORIENTED_EDGE('',*,*,#728,.T.);
#649=ORIENTED_EDGE('',*,*,#724,.F.);
#650=ORIENTED_EDGE('',*,*,#729,.F.);
#651=ORIENTED_EDGE('',*,*,#711,.T.);
#652=ORIENTED_EDGE('',*,*,#729,.T.);
#653=ORIENTED_EDGE('',*,*,#723,.F.);
#654=ORIENTED_EDGE('',*,*,#730,.F.);
#655=ORIENTED_EDGE('',*,*,#712,.T.);
#656=ORIENTED_EDGE('',*,*,#730,.T.);
#657=ORIENTED_EDGE('',*,*,#722,.F.);
#658=ORIENTED_EDGE('',*,*,#731,.F.);
#659=ORIENTED_EDGE('',*,*,#713,.T.);
#660=ORIENTED_EDGE('',*,*,#731,.T.);
#661=ORIENTED_EDGE('',*,*,#721,.F.);
#662=ORIENTED_EDGE('',*,*,#732,.F.);
#663=ORIENTED_EDGE('',*,*,#714,.T.);
#664=ORIENTED_EDGE('',*,*,#732,.T.);
#665=ORIENTED_EDGE('',*,*,#720,.F.);
#666=ORIENTED_EDGE('',*,*,#733,.F.);
#667=ORIENTED_EDGE('',*,*,#715,.T.);
#668=ORIENTED_EDGE('',*,*,#733,.T.);
#669=ORIENTED_EDGE('',*,*,#719,.F.);
#670=ORIENTED_EDGE('',*,*,#734,.F.);
#671=ORIENTED_EDGE('',*,*,#716,.T.);
#672=ORIENTED_EDGE('',*,*,#734,.T.);
#673=ORIENTED_EDGE('',*,*,#718,.F.);
#674=ORIENTED_EDGE('',*,*,#727,.F.);
#675=ORIENTED_EDGE('',*,*,#735,.T.);
#676=ORIENTED_EDGE('',*,*,#735,.F.);
#677=ORIENTED_EDGE('',*,*,#736,.T.);
#678=ORIENTED_EDGE('',*,*,#737,.T.);
#679=ORIENTED_EDGE('',*,*,#736,.F.);
#680=ORIENTED_EDGE('',*,*,#737,.F.);
#681=ORIENTED_EDGE('',*,*,#738,.T.);
#682=ORIENTED_EDGE('',*,*,#739,.T.);
#683=ORIENTED_EDGE('',*,*,#738,.F.);
#684=ORIENTED_EDGE('',*,*,#739,.F.);
#685=ORIENTED_EDGE('',*,*,#740,.T.);
#686=ORIENTED_EDGE('',*,*,#740,.F.);
#687=ORIENTED_EDGE('',*,*,#741,.T.);
#688=ORIENTED_EDGE('',*,*,#742,.T.);
#689=ORIENTED_EDGE('',*,*,#741,.F.);
#690=ORIENTED_EDGE('',*,*,#743,.T.);
#691=ORIENTED_EDGE('',*,*,#742,.F.);
#692=ORIENTED_EDGE('',*,*,#744,.T.);
#693=ORIENTED_EDGE('',*,*,#743,.F.);
#694=ORIENTED_EDGE('',*,*,#744,.F.);
#695=ORIENTED_EDGE('',*,*,#745,.T.);
#696=ORIENTED_EDGE('',*,*,#746,.T.);
#697=ORIENTED_EDGE('',*,*,#745,.F.);
#698=ORIENTED_EDGE('',*,*,#746,.F.);
#699=ORIENTED_EDGE('',*,*,#747,.T.);
#700=ORIENTED_EDGE('',*,*,#748,.T.);
#701=ORIENTED_EDGE('',*,*,#747,.F.);
#702=ORIENTED_EDGE('',*,*,#749,.T.);
#703=ORIENTED_EDGE('',*,*,#748,.F.);
#704=ORIENTED_EDGE('',*,*,#749,.F.);
#705=ORIENTED_EDGE('',*,*,#750,.T.);
#706=ORIENTED_EDGE('',*,*,#751,.T.);
#707=ORIENTED_EDGE('',*,*,#750,.F.);
#708=ORIENTED_EDGE('',*,*,#751,.F.);
#709=EDGE_CURVE('',#752,#753,#754,.T.);
#710=EDGE_CURVE('',#755,#752,#756,.T.);
#711=EDGE_CURVE('',#757,#755,#758,.T.);
#712=EDGE_CURVE('',#759,#757,#760,.T.);
#713=EDGE_CURVE('',#761,#759,#762,.T.);
#714=EDGE_CURVE('',#763,#761,#764,.T.);
#715=EDGE_CURVE('',#765,#763,#766,.T.);
#716=EDGE_CURVE('',#753,#765,#767,.T.);
#717=EDGE_CURVE('',#768,#768,#769,.T.);
#718=EDGE_CURVE('',#770,#771,#772,.T.);
#719=EDGE_CURVE('',#771,#773,#774,.T.);
#720=EDGE_CURVE('',#773,#775,#776,.T.);
#721=EDGE_CURVE('',#775,#777,#778,.T.);
#722=EDGE_CURVE('',#777,#779,#780,.T.);
#723=EDGE_CURVE('',#779,#781,#782,.T.);
#724=EDGE_CURVE('',#781,#783,#784,.T.);
#725=EDGE_CURVE('',#783,#770,#785,.T.);
#726=EDGE_CURVE('',#786,#786,#787,.F.);
#727=EDGE_CURVE('',#753,#770,#788,.T.);
#728=EDGE_CURVE('',#752,#783,#789,.T.);
#729=EDGE_CURVE('',#755,#781,#790,.T.);
#730=EDGE_CURVE('',#757,#779,#791,.T.);
#731=EDGE_CURVE('',#759,#777,#792,.T.);
#732=EDGE_CURVE('',#761,#775,#793,.T.);
#733=EDGE_CURVE('',#763,#773,#794,.T.);
#734=EDGE_CURVE('',#765,#771,#795,.T.);
#735=EDGE_CURVE('',#796,#796,#797,.T.);
#736=EDGE_CURVE('',#798,#798,#799,.T.);
#737=EDGE_CURVE('',#800,#800,#801,.T.);
#738=EDGE_CURVE('',#802,#802,#803,.T.);
#739=EDGE_CURVE('',#804,#804,#805,.T.);
#740=EDGE_CURVE('',#806,#806,#807,.T.);
#741=EDGE_CURVE('',#808,#808,#809,.T.);
#742=EDGE_CURVE('',#810,#810,#811,.T.);
#743=EDGE_CURVE('',#812,#812,#813,.T.);
#744=EDGE_CURVE('',#814,#814,#815,.T.);
#745=EDGE_CURVE('',#816,#816,#817,.T.);
#746=EDGE_CURVE('',#818,#818,#819,.T.);
#747=EDGE_CURVE('',#820,#820,#821,.T.);
#748=EDGE_CURVE('',#822,#822,#823,.T.);
#749=EDGE_CURVE('',#824,#824,#825,.T.);
#750=EDGE_CURVE('',#826,#826,#827,.T.);
#751=EDGE_CURVE('',#828,#828,#829,.T.);
#752=VERTEX_POINT('',#830);
#753=VERTEX_POINT('',#831);
#754=LINE('',#832,#833);
#755=VERTEX_POINT('',#835);
#756=LINE('',#836,#837);
#757=VERTEX_POINT('',#839);
#758=LINE('',#840,#841);
#759=VERTEX_POINT('',#843);
#760=LINE('',#844,#845);
#761=VERTEX_POINT('',#847);
#762=LINE('',#848,#849);
#763=VERTEX_POINT('',#851);
#764=LINE('',#852,#853);
#765=VERTEX_POINT('',#855);
#766=LINE('',#856,#857);
#767=LINE('',#859,#860);
#768=VERTEX_POINT('',#862);
#769=CIRCLE('',#863,0.66);
#770=VERTEX_POINT('',#867);
#771=VERTEX_POINT('',#868);
#772=LINE('',#869,#870);
#773=VERTEX_POINT('',#872);
#774=LINE('',#873,#874);
#775=VERTEX_POINT('',#876);
#776=LINE('',#877,#878);
#777=VERTEX_POINT('',#880);
#778=LINE('',#881,#882);
#779=VERTEX_POINT('',#884);
#780=LINE('',#885,#886);
#781=VERTEX_POINT('',#888);
#782=LINE('',#889,#890);
#783=VERTEX_POINT('',#892);
#784=LINE('',#893,#894);
#785=LINE('',#896,#897);
#786=VERTEX_POINT('',#899);
#787=CIRCLE('',#900,0.66);
#788=LINE('',#904,#905);
#789=LINE('',#907,#908);
#790=LINE('',#910,#911);
#791=LINE('',#913,#914);
#792=LINE('',#916,#917);
#793=LINE('',#919,#920);
#794=LINE('',#922,#923);
#795=LINE('',#925,#926);
#796=VERTEX_POINT('',#928);
#797=CIRCLE('',#929,0.1275);
#798=VERTEX_POINT('',#933);
#799=CIRCLE('',#934,0.255);
#800=VERTEX_POINT('',#938);
#801=CIRCLE('',#939,0.255);
#802=VERTEX_POINT('',#943);
#803=CIRCLE('',#944,0.66);
#804=VERTEX_POINT('',#948);
#805=CIRCLE('',#949,0.66);
#806=VERTEX_POINT('',#953);
#807=CIRCLE('',#954,0.810000000000001);
#808=VERTEX_POINT('',#958);
#809=CIRCLE('',#959,0.659999999999999);
#810=VERTEX_POINT('',#963);
#811=CIRCLE('',#964,0.66);
#812=VERTEX_POINT('',#968);
#813=CIRCLE('',#969,0.915);
#814=VERTEX_POINT('',#973);
#815=CIRCLE('',#974,0.915);
#816=VERTEX_POINT('',#978);
#817=CIRCLE('',#979,0.609191070866214);
#818=VERTEX_POINT('',#983);
#819=CIRCLE('',#984,0.5);
#820=VERTEX_POINT('',#988);
#821=CIRCLE('',#989,0.5);
#822=VERTEX_POINT('',#993);
#823=CIRCLE('',#994,0.225);
#824=VERTEX_POINT('',#998);
#825=CIRCLE('',#999,0.5);
#826=VERTEX_POINT('',#1003);
#827=CIRCLE('',#1004,0.5);
#828=VERTEX_POINT('',#1008);
#829=CIRCLE('',#1009,0.03);
#830=CARTESIAN_POINT('',(-1.2451077025535,-1.27,1.57));
#831=CARTESIAN_POINT('',(1.2451077025535,-1.27,1.57));
#832=CARTESIAN_POINT('',(-1.2451077025535,-1.27,1.57));
#833=VECTOR('',#834,1.);
#834=DIRECTION('',(1.,0.,0.));
#835=CARTESIAN_POINT('',(-1.385,-0.97,1.57));
#836=CARTESIAN_POINT('',(-1.385,-0.97,1.57));
#837=VECTOR('',#838,1.);
#838=DIRECTION('',(0.422618261740699,-0.90630778703665,0.));
#839=CARTESIAN_POINT('',(-1.385,0.970000000000001,1.57));
#840=CARTESIAN_POINT('',(-1.385,0.970000000000001,1.57));
#841=VECTOR('',#842,1.);
#842=DIRECTION('',(-2.28911963840238E-016,-1.,0.));
#843=CARTESIAN_POINT('',(-1.2451077025535,1.27,1.57));
#844=CARTESIAN_POINT('',(-1.2451077025535,1.27,1.57));
#845=VECTOR('',#846,1.);
#846=DIRECTION('',(-0.4226182617407,-0.90630778703665,0.));
#847=CARTESIAN_POINT('',(1.2451077025535,1.27,1.57));
#848=CARTESIAN_POINT('',(1.2451077025535,1.27,1.57));
#849=VECTOR('',#850,1.);
#850=DIRECTION('',(-1.,0.,0.));
#851=CARTESIAN_POINT('',(1.385,0.970000000000001,1.57));
#852=CARTESIAN_POINT('',(1.385,0.970000000000001,1.57));
#853=VECTOR('',#854,1.);
#854=DIRECTION('',(-0.422618261740699,0.90630778703665,0.));
#855=CARTESIAN_POINT('',(1.385,-0.969999999999999,1.57));
#856=CARTESIAN_POINT('',(1.385,-0.969999999999999,1.57));
#857=VECTOR('',#858,1.);
#858=DIRECTION('',(0.,1.,0.));
#859=CARTESIAN_POINT('',(1.2451077025535,-1.27,1.57));
#860=VECTOR('',#861,1.);
#861=DIRECTION('',(0.422618261740701,0.906307787036649,0.));
#862=CARTESIAN_POINT('',(0.66,-8.08266887437253E-017,1.57));
#863=AXIS2_PLACEMENT_3D('',#864,#865,#866);
#864=CARTESIAN_POINT('',(0.,0.,1.57));
#865=DIRECTION('',(0.,0.,1.));
#866=DIRECTION('',(1.,0.,0.));
#867=CARTESIAN_POINT('',(1.2451077025535,-1.27,2.84));
#868=CARTESIAN_POINT('',(1.385,-0.969999999999999,2.84));
#869=CARTESIAN_POINT('',(1.2451077025535,-1.27,2.84));
#870=VECTOR('',#871,1.);
#871=DIRECTION('',(0.422618261740701,0.906307787036649,0.));
#872=CARTESIAN_POINT('',(1.385,0.970000000000001,2.84));
#873=CARTESIAN_POINT('',(1.385,-0.969999999999999,2.84));
#874=VECTOR('',#875,1.);
#875=DIRECTION('',(0.,1.,0.));
#876=CARTESIAN_POINT('',(1.2451077025535,1.27,2.84));
#877=CARTESIAN_POINT('',(1.385,0.970000000000001,2.84));
#878=VECTOR('',#879,1.);
#879=DIRECTION('',(-0.422618261740699,0.90630778703665,0.));
#880=CARTESIAN_POINT('',(-1.2451077025535,1.27,2.84));
#881=CARTESIAN_POINT('',(1.2451077025535,1.27,2.84));
#882=VECTOR('',#883,1.);
#883=DIRECTION('',(-1.,0.,0.));
#884=CARTESIAN_POINT('',(-1.385,0.970000000000001,2.84));
#885=CARTESIAN_POINT('',(-1.2451077025535,1.27,2.84));
#886=VECTOR('',#887,1.);
#887=DIRECTION('',(-0.4226182617407,-0.90630778703665,0.));
#888=CARTESIAN_POINT('',(-1.385,-0.97,2.84));
#889=CARTESIAN_POINT('',(-1.385,0.970000000000001,2.84));
#890=VECTOR('',#891,1.);
#891=DIRECTION('',(-2.28911963840238E-016,-1.,0.));
#892=CARTESIAN_POINT('',(-1.2451077025535,-1.27,2.84));
#893=CARTESIAN_POINT('',(-1.385,-0.97,2.84));
#894=VECTOR('',#895,1.);
#895=DIRECTION('',(0.422618261740699,-0.90630778703665,0.));
#896=CARTESIAN_POINT('',(-1.2451077025535,-1.27,2.84));
#897=VECTOR('',#898,1.);
#898=DIRECTION('',(1.,0.,0.));
#899=CARTESIAN_POINT('',(0.66,-8.08266887437253E-017,2.84));
#900=AXIS2_PLACEMENT_3D('',#901,#902,#903);
#901=CARTESIAN_POINT('',(0.,0.,2.84));
#902=DIRECTION('',(0.,0.,1.));
#903=DIRECTION('',(1.,0.,0.));
#904=CARTESIAN_POINT('',(1.2451077025535,-1.27,1.57));
#905=VECTOR('',#906,1.);
#906=DIRECTION('',(0.,0.,1.));
#907=CARTESIAN_POINT('',(-1.2451077025535,-1.27,1.57));
#908=VECTOR('',#909,1.);
#909=DIRECTION('',(0.,0.,1.));
#910=CARTESIAN_POINT('',(-1.385,-0.97,1.57));
#911=VECTOR('',#912,1.);
#912=DIRECTION('',(0.,0.,1.));
#913=CARTESIAN_POINT('',(-1.385,0.970000000000001,1.57));
#914=VECTOR('',#915,1.);
#915=DIRECTION('',(0.,0.,1.));
#916=CARTESIAN_POINT('',(-1.2451077025535,1.27,1.57));
#917=VECTOR('',#918,1.);
#918=DIRECTION('',(0.,0.,1.));
#919=CARTESIAN_POINT('',(1.2451077025535,1.27,1.57));
#920=VECTOR('',#921,1.);
#921=DIRECTION('',(0.,0.,1.));
#922=CARTESIAN_POINT('',(1.385,0.970000000000001,1.57));
#923=VECTOR('',#924,1.);
#924=DIRECTION('',(0.,0.,1.));
#925=CARTESIAN_POINT('',(1.385,-0.969999999999999,1.57));
#926=VECTOR('',#927,1.);
#927=DIRECTION('',(0.,0.,1.));
#928=CARTESIAN_POINT('',(0.,-0.1275,-2.75));
#929=AXIS2_PLACEMENT_3D('',#930,#931,#932);
#930=CARTESIAN_POINT('',(0.,0.,-2.75));
#931=DIRECTION('',(-0.,-0.,-1.));
#932=DIRECTION('',(0.,-1.,0.));
#933=CARTESIAN_POINT('',(0.,-0.255,-2.6225));
#934=AXIS2_PLACEMENT_3D('',#935,#936,#937);
#935=CARTESIAN_POINT('',(0.,0.,-2.6225));
#936=DIRECTION('',(-0.,-0.,-1.));
#937=DIRECTION('',(0.,-1.,0.));
#938=CARTESIAN_POINT('',(0.,-0.255,-1.56142466891288E-017));
#939=AXIS2_PLACEMENT_3D('',#940,#941,#942);
#940=CARTESIAN_POINT('',(0.,0.,0.));
#941=DIRECTION('',(-0.,-0.,-1.));
#942=DIRECTION('',(0.,-1.,0.));
#943=CARTESIAN_POINT('',(0.,-0.66,0.283584053511925));
#944=AXIS2_PLACEMENT_3D('',#945,#946,#947);
#945=CARTESIAN_POINT('',(0.,0.,0.283584053511925));
#946=DIRECTION('',(-0.,-0.,-1.));
#947=DIRECTION('',(0.,-1.,0.));
#948=CARTESIAN_POINT('',(0.,-0.66,1.79287838708181));
#949=AXIS2_PLACEMENT_3D('',#950,#951,#952);
#950=CARTESIAN_POINT('',(0.,0.,1.79287838708181));
#951=DIRECTION('',(-0.,-0.,-1.));
#952=DIRECTION('',(0.,-1.,0.));
#953=CARTESIAN_POINT('',(0.,-0.810000000000001,2.205));
#954=AXIS2_PLACEMENT_3D('',#955,#956,#957);
#955=CARTESIAN_POINT('',(0.,0.,2.205));
#956=DIRECTION('',(-0.,-0.,-1.));
#957=DIRECTION('',(0.,-1.,0.));
#958=CARTESIAN_POINT('',(0.,-0.659999999999999,2.205));
#959=AXIS2_PLACEMENT_3D('',#960,#961,#962);
#960=CARTESIAN_POINT('',(0.,0.,2.205));
#961=DIRECTION('',(-0.,-0.,-1.));
#962=DIRECTION('',(0.,-1.,0.));
#963=CARTESIAN_POINT('',(0.,-0.66,2.84));
#964=AXIS2_PLACEMENT_3D('',#965,#966,#967);
#965=CARTESIAN_POINT('',(0.,0.,2.84));
#966=DIRECTION('',(-0.,-0.,-1.));
#967=DIRECTION('',(0.,-1.,0.));
#968=CARTESIAN_POINT('',(0.,-0.915,2.84));
#969=AXIS2_PLACEMENT_3D('',#970,#971,#972);
#970=CARTESIAN_POINT('',(0.,0.,2.84));
#971=DIRECTION('',(-0.,-0.,-1.));
#972=DIRECTION('',(0.,-1.,0.));
#973=CARTESIAN_POINT('',(0.,-0.915,3.35));
#974=AXIS2_PLACEMENT_3D('',#975,#976,#977);
#975=CARTESIAN_POINT('',(0.,0.,3.35));
#976=DIRECTION('',(-0.,-0.,-1.));
#977=DIRECTION('',(0.,-1.,0.));
#978=CARTESIAN_POINT('',(0.,-0.609191070866214,3.35));
#979=AXIS2_PLACEMENT_3D('',#980,#981,#982);
#980=CARTESIAN_POINT('',(0.,0.,3.35));
#981=DIRECTION('',(-0.,-0.,-1.));
#982=DIRECTION('',(0.,-1.,0.));
#983=CARTESIAN_POINT('',(0.,-0.5,3.05));
#984=AXIS2_PLACEMENT_3D('',#985,#986,#987);
#985=CARTESIAN_POINT('',(0.,0.,3.05));
#986=DIRECTION('',(0.,-0.,-1.));
#987=DIRECTION('',(0.,-1.,0.));
#988=CARTESIAN_POINT('',(0.,-0.5,2.85));
#989=AXIS2_PLACEMENT_3D('',#990,#991,#992);
#990=CARTESIAN_POINT('',(0.,0.,2.85));
#991=DIRECTION('',(0.,-0.,-1.));
#992=DIRECTION('',(0.,-1.,0.));
#993=CARTESIAN_POINT('',(0.,-0.225,1.65));
#994=AXIS2_PLACEMENT_3D('',#995,#996,#997);
#995=CARTESIAN_POINT('',(0.,0.,1.65));
#996=DIRECTION('',(-0.,-0.,-1.));
#997=DIRECTION('',(0.,-1.,0.));
#998=CARTESIAN_POINT('',(0.,-0.5,1.65));
#999=AXIS2_PLACEMENT_3D('',#1000,#1001,#1002);
#1000=CARTESIAN_POINT('',(0.,0.,1.65));
#1001=DIRECTION('',(-0.,-0.,-1.));
#1002=DIRECTION('',(0.,-1.,0.));
#1003=CARTESIAN_POINT('',(0.,-0.5,0.45));
#1004=AXIS2_PLACEMENT_3D('',#1005,#1006,#1007);
#1005=CARTESIAN_POINT('',(0.,0.,0.45));
#1006=DIRECTION('',(0.,-0.,-1.));
#1007=DIRECTION('',(0.,-1.,0.));
#1008=CARTESIAN_POINT('',(0.,-0.03,0.120902457041437));
#1009=AXIS2_PLACEMENT_3D('',#1010,#1011,#1012);
#1010=CARTESIAN_POINT('',(0.,0.,0.120902457041437));
#1011=DIRECTION('',(-0.,-0.,-1.));
#1012=DIRECTION('',(0.,-1.,0.));
ENDSEC;
END-ISO-10303-21;
