ISO-10303-21;
HEADER;
/* Generated by software containing ST-Developer
 * from STEP Tools, Inc. (www.steptools.com) 
 */
/* OPTION: using custom schema-name function */

FILE_DESCRIPTION(
/* description */ (''),
/* implementation_level */ '2;1');

FILE_NAME(
/* name */ 'DO-215AA',
/* time_stamp */ '2022-05-01T15:27:16+02:00',
/* author */ (''),
/* organization */ (''),
/* preprocessor_version */ 'ST-DEVELOPER v16.5',
/* originating_system */ '',
/* authorisation */ '');

FILE_SCHEMA (('AUTOMOTIVE_DESIGN'));
ENDSEC;

DATA;
#10=SHAPE_REPRESENTATION_RELATIONSHIP('','',#808,#66);
#11=(
BOUNDED_CURVE()
B_SPLINE_CURVE(2,(#1157,#1158,#1159),.UNSPECIFIED.,.F.,.F.)
B_SPLINE_CURVE_WITH_KNOTS((3,3),(-0.148352986419519,0.),.UNSPECIFIED.)
CURVE()
GEOMETRIC_REPRESENTATION_ITEM()
RATIONAL_B_SPLINE_CURVE((1.,0.737277336810128,1.))
REPRESENTATION_ITEM('')
);
#12=(
BOUNDED_CURVE()
B_SPLINE_CURVE(2,(#1160,#1161,#1162),.UNSPECIFIED.,.F.,.F.)
B_SPLINE_CURVE_WITH_KNOTS((3,3),(-0.148352986419516,0.),.UNSPECIFIED.)
CURVE()
GEOMETRIC_REPRESENTATION_ITEM()
RATIONAL_B_SPLINE_CURVE((1.,0.737277336810114,1.))
REPRESENTATION_ITEM('')
);
#13=(
BOUNDED_CURVE()
B_SPLINE_CURVE(2,(#1181,#1182,#1183),.UNSPECIFIED.,.F.,.F.)
B_SPLINE_CURVE_WITH_KNOTS((3,3),(0.,0.296705972839034),.UNSPECIFIED.)
CURVE()
GEOMETRIC_REPRESENTATION_ITEM()
RATIONAL_B_SPLINE_CURVE((1.,0.737277336810127,1.))
REPRESENTATION_ITEM('')
);
#14=(
BOUNDED_CURVE()
B_SPLINE_CURVE(2,(#1184,#1185,#1186),.UNSPECIFIED.,.F.,.F.)
B_SPLINE_CURVE_WITH_KNOTS((3,3),(0.,0.296705972839035),.UNSPECIFIED.)
CURVE()
GEOMETRIC_REPRESENTATION_ITEM()
RATIONAL_B_SPLINE_CURVE((1.,0.737277336810125,1.))
REPRESENTATION_ITEM('')
);
#15=(
BOUNDED_CURVE()
B_SPLINE_CURVE(2,(#1195,#1196,#1197),.UNSPECIFIED.,.F.,.F.)
B_SPLINE_CURVE_WITH_KNOTS((3,3),(-0.148352986419518,0.),.UNSPECIFIED.)
CURVE()
GEOMETRIC_REPRESENTATION_ITEM()
RATIONAL_B_SPLINE_CURVE((1.,0.737277336810137,1.))
REPRESENTATION_ITEM('')
);
#16=(
BOUNDED_CURVE()
B_SPLINE_CURVE(2,(#1198,#1199,#1200),.UNSPECIFIED.,.F.,.F.)
B_SPLINE_CURVE_WITH_KNOTS((3,3),(-0.148352986419517,0.),.UNSPECIFIED.)
CURVE()
GEOMETRIC_REPRESENTATION_ITEM()
RATIONAL_B_SPLINE_CURVE((1.,0.737277336810119,1.))
REPRESENTATION_ITEM('')
);
#17=(
BOUNDED_CURVE()
B_SPLINE_CURVE(2,(#1203,#1204,#1205),.UNSPECIFIED.,.F.,.F.)
B_SPLINE_CURVE_WITH_KNOTS((3,3),(0.,0.296705972839035),.UNSPECIFIED.)
CURVE()
GEOMETRIC_REPRESENTATION_ITEM()
RATIONAL_B_SPLINE_CURVE((1.,0.737277336810125,1.))
REPRESENTATION_ITEM('')
);
#18=(
BOUNDED_CURVE()
B_SPLINE_CURVE(2,(#1208,#1209,#1210),.UNSPECIFIED.,.F.,.F.)
B_SPLINE_CURVE_WITH_KNOTS((3,3),(0.,0.296705972839036),.UNSPECIFIED.)
CURVE()
GEOMETRIC_REPRESENTATION_ITEM()
RATIONAL_B_SPLINE_CURVE((1.,0.737277336810123,1.))
REPRESENTATION_ITEM('')
);
#19=(
BOUNDED_CURVE()
B_SPLINE_CURVE(2,(#1340,#1341,#1342),.UNSPECIFIED.,.F.,.F.)
B_SPLINE_CURVE_WITH_KNOTS((3,3),(0.,0.296705972839038),.UNSPECIFIED.)
CURVE()
GEOMETRIC_REPRESENTATION_ITEM()
RATIONAL_B_SPLINE_CURVE((1.,0.737277336810134,1.))
REPRESENTATION_ITEM('')
);
#20=(
BOUNDED_CURVE()
B_SPLINE_CURVE(2,(#1345,#1346,#1347),.UNSPECIFIED.,.F.,.F.)
B_SPLINE_CURVE_WITH_KNOTS((3,3),(0.,0.29670597283904),.UNSPECIFIED.)
CURVE()
GEOMETRIC_REPRESENTATION_ITEM()
RATIONAL_B_SPLINE_CURVE((1.,0.737277336810116,1.))
REPRESENTATION_ITEM('')
);
#21=(
BOUNDED_CURVE()
B_SPLINE_CURVE(2,(#1356,#1357,#1358),.UNSPECIFIED.,.F.,.F.)
B_SPLINE_CURVE_WITH_KNOTS((3,3),(-0.148352986419521,0.),.UNSPECIFIED.)
CURVE()
GEOMETRIC_REPRESENTATION_ITEM()
RATIONAL_B_SPLINE_CURVE((1.,0.737277336810113,1.))
REPRESENTATION_ITEM('')
);
#22=(
BOUNDED_CURVE()
B_SPLINE_CURVE(2,(#1359,#1360,#1361),.UNSPECIFIED.,.F.,.F.)
B_SPLINE_CURVE_WITH_KNOTS((3,3),(-0.148352986419521,0.),.UNSPECIFIED.)
CURVE()
GEOMETRIC_REPRESENTATION_ITEM()
RATIONAL_B_SPLINE_CURVE((1.,0.73727733681012,1.))
REPRESENTATION_ITEM('')
);
#23=(
BOUNDED_CURVE()
B_SPLINE_CURVE(2,(#1382,#1383,#1384),.UNSPECIFIED.,.F.,.F.)
B_SPLINE_CURVE_WITH_KNOTS((3,3),(0.,0.296705972839039),.UNSPECIFIED.)
CURVE()
GEOMETRIC_REPRESENTATION_ITEM()
RATIONAL_B_SPLINE_CURVE((1.,0.73727733681012,1.))
REPRESENTATION_ITEM('')
);
#24=(
BOUNDED_CURVE()
B_SPLINE_CURVE(2,(#1385,#1386,#1387),.UNSPECIFIED.,.F.,.F.)
B_SPLINE_CURVE_WITH_KNOTS((3,3),(0.,0.29670597283904),.UNSPECIFIED.)
CURVE()
GEOMETRIC_REPRESENTATION_ITEM()
RATIONAL_B_SPLINE_CURVE((1.,0.737277336810118,1.))
REPRESENTATION_ITEM('')
);
#25=(
BOUNDED_CURVE()
B_SPLINE_CURVE(2,(#1396,#1397,#1398),.UNSPECIFIED.,.F.,.F.)
B_SPLINE_CURVE_WITH_KNOTS((3,3),(-0.14835298641952,0.),.UNSPECIFIED.)
CURVE()
GEOMETRIC_REPRESENTATION_ITEM()
RATIONAL_B_SPLINE_CURVE((1.,0.737277336810119,1.))
REPRESENTATION_ITEM('')
);
#26=(
BOUNDED_CURVE()
B_SPLINE_CURVE(2,(#1399,#1400,#1401),.UNSPECIFIED.,.F.,.F.)
B_SPLINE_CURVE_WITH_KNOTS((3,3),(-0.14835298641952,0.),.UNSPECIFIED.)
CURVE()
GEOMETRIC_REPRESENTATION_ITEM()
RATIONAL_B_SPLINE_CURVE((1.,0.737277336810117,1.))
REPRESENTATION_ITEM('')
);
#27=(
BOUNDED_SURFACE()
B_SPLINE_SURFACE(1,2,((#1041,#1042,#1043,#1044,#1045,#1046,#1047,#1048,
#1049),(#1050,#1051,#1052,#1053,#1054,#1055,#1056,#1057,#1058)),
 .UNSPECIFIED.,.F.,.F.,.F.)
B_SPLINE_SURFACE_WITH_KNOTS((2,2),(3,2,2,2,3),(0.,2.43864),(0.,1.5707963267949,
3.14159265358979,4.71238898038469,6.28318530717959),.UNSPECIFIED.)
GEOMETRIC_REPRESENTATION_ITEM()
RATIONAL_B_SPLINE_SURFACE(((1.,0.707106781186548,1.,0.707106781186548,1.,
0.707106781186548,1.,0.707106781186548,1.),(1.,0.707106781186548,1.,0.707106781186548,
1.,0.707106781186548,1.,0.707106781186548,1.)))
REPRESENTATION_ITEM('')
SURFACE()
);
#28=(
BOUNDED_SURFACE()
B_SPLINE_SURFACE(2,1,((#1062,#1063),(#1064,#1065),(#1066,#1067),(#1068,
#1069),(#1070,#1071),(#1072,#1073),(#1074,#1075),(#1076,#1077),(#1078,#1079)),
 .UNSPECIFIED.,.T.,.F.,.F.)
B_SPLINE_SURFACE_WITH_KNOTS((3,2,2,2,3),(2,2),(0.,1.5707963267949,3.14159265358979,
4.71238898038469,6.28318530717959),(0.,2.43864),.UNSPECIFIED.)
GEOMETRIC_REPRESENTATION_ITEM()
RATIONAL_B_SPLINE_SURFACE(((1.,1.),(0.707106781186548,0.707106781186548),
(1.,1.),(0.707106781186548,0.707106781186548),(1.,1.),(0.707106781186548,
0.707106781186548),(1.,1.),(0.707106781186548,0.707106781186548),(1.,1.)))
REPRESENTATION_ITEM('')
SURFACE()
);
#29=(
BOUNDED_SURFACE()
B_SPLINE_SURFACE(1,2,((#1081,#1082,#1083,#1084,#1085,#1086,#1087,#1088,
#1089),(#1090,#1091,#1092,#1093,#1094,#1095,#1096,#1097,#1098)),
 .UNSPECIFIED.,.F.,.F.,.F.)
B_SPLINE_SURFACE_WITH_KNOTS((2,2),(3,2,2,2,3),(0.,2.43864),(0.,1.5707963267949,
3.14159265358979,4.71238898038469,6.28318530717959),.UNSPECIFIED.)
GEOMETRIC_REPRESENTATION_ITEM()
RATIONAL_B_SPLINE_SURFACE(((1.,0.707106781186548,1.,0.707106781186548,1.,
0.707106781186548,1.,0.707106781186548,1.),(1.,0.707106781186548,1.,0.707106781186548,
1.,0.707106781186548,1.,0.707106781186548,1.)))
REPRESENTATION_ITEM('')
SURFACE()
);
#30=(
BOUNDED_SURFACE()
B_SPLINE_SURFACE(2,1,((#1099,#1100),(#1101,#1102),(#1103,#1104),(#1105,
#1106),(#1107,#1108),(#1109,#1110),(#1111,#1112),(#1113,#1114),(#1115,#1116)),
 .UNSPECIFIED.,.T.,.F.,.F.)
B_SPLINE_SURFACE_WITH_KNOTS((3,2,2,2,3),(2,2),(0.,1.5707963267949,3.14159265358979,
4.71238898038469,6.28318530717959),(0.,2.43864),.UNSPECIFIED.)
GEOMETRIC_REPRESENTATION_ITEM()
RATIONAL_B_SPLINE_SURFACE(((1.,1.),(0.707106781186548,0.707106781186548),
(1.,1.),(0.707106781186548,0.707106781186548),(1.,1.),(0.707106781186548,
0.707106781186548),(1.,1.),(0.707106781186548,0.707106781186548),(1.,1.)))
REPRESENTATION_ITEM('')
SURFACE()
);
#31=(
BOUNDED_SURFACE()
B_SPLINE_SURFACE(2,1,((#1231,#1232),(#1233,#1234),(#1235,#1236),(#1237,
#1238),(#1239,#1240),(#1241,#1242),(#1243,#1244),(#1245,#1246),(#1247,#1248)),
 .UNSPECIFIED.,.T.,.F.,.F.)
B_SPLINE_SURFACE_WITH_KNOTS((3,2,2,2,3),(2,2),(0.,1.5707963267949,3.14159265358979,
4.71238898038469,6.28318530717959),(0.,2.43864),.UNSPECIFIED.)
GEOMETRIC_REPRESENTATION_ITEM()
RATIONAL_B_SPLINE_SURFACE(((1.,1.),(0.707106781186548,0.707106781186548),
(1.,1.),(0.707106781186548,0.707106781186548),(1.,1.),(0.707106781186548,
0.707106781186548),(1.,1.),(0.707106781186548,0.707106781186548),(1.,1.)))
REPRESENTATION_ITEM('')
SURFACE()
);
#32=(
BOUNDED_SURFACE()
B_SPLINE_SURFACE(1,2,((#1250,#1251,#1252,#1253,#1254,#1255,#1256,#1257,
#1258),(#1259,#1260,#1261,#1262,#1263,#1264,#1265,#1266,#1267)),
 .UNSPECIFIED.,.F.,.F.,.F.)
B_SPLINE_SURFACE_WITH_KNOTS((2,2),(3,2,2,2,3),(0.,2.43864),(0.,1.5707963267949,
3.14159265358979,4.71238898038469,6.28318530717959),.UNSPECIFIED.)
GEOMETRIC_REPRESENTATION_ITEM()
RATIONAL_B_SPLINE_SURFACE(((1.,0.707106781186548,1.,0.707106781186548,1.,
0.707106781186548,1.,0.707106781186548,1.),(1.,0.707106781186548,1.,0.707106781186548,
1.,0.707106781186548,1.,0.707106781186548,1.)))
REPRESENTATION_ITEM('')
SURFACE()
);
#33=(
BOUNDED_SURFACE()
B_SPLINE_SURFACE(2,1,((#1271,#1272),(#1273,#1274),(#1275,#1276),(#1277,
#1278),(#1279,#1280),(#1281,#1282),(#1283,#1284),(#1285,#1286),(#1287,#1288)),
 .UNSPECIFIED.,.T.,.F.,.F.)
B_SPLINE_SURFACE_WITH_KNOTS((3,2,2,2,3),(2,2),(0.,1.5707963267949,3.14159265358979,
4.71238898038469,6.28318530717959),(0.,2.43864),.UNSPECIFIED.)
GEOMETRIC_REPRESENTATION_ITEM()
RATIONAL_B_SPLINE_SURFACE(((1.,1.),(0.707106781186548,0.707106781186548),
(1.,1.),(0.707106781186548,0.707106781186548),(1.,1.),(0.707106781186548,
0.707106781186548),(1.,1.),(0.707106781186548,0.707106781186548),(1.,1.)))
REPRESENTATION_ITEM('')
SURFACE()
);
#34=(
BOUNDED_SURFACE()
B_SPLINE_SURFACE(1,2,((#1290,#1291,#1292,#1293,#1294,#1295,#1296,#1297,
#1298),(#1299,#1300,#1301,#1302,#1303,#1304,#1305,#1306,#1307)),
 .UNSPECIFIED.,.F.,.F.,.F.)
B_SPLINE_SURFACE_WITH_KNOTS((2,2),(3,2,2,2,3),(0.,2.43864),(0.,1.5707963267949,
3.14159265358979,4.71238898038469,6.28318530717959),.UNSPECIFIED.)
GEOMETRIC_REPRESENTATION_ITEM()
RATIONAL_B_SPLINE_SURFACE(((1.,0.707106781186548,1.,0.707106781186548,1.,
0.707106781186548,1.,0.707106781186548,1.),(1.,0.707106781186548,1.,0.707106781186548,
1.,0.707106781186548,1.,0.707106781186548,1.)))
REPRESENTATION_ITEM('')
SURFACE()
);
#35=COLOUR_RGB('',0.129411764705882,0.129411764705882,0.129411764705882);
#36=COLOUR_RGB('',0.901960784313726,0.901960784313726,0.901960784313726);
#37=COLOUR_RGB('',0.901960784313726,0.901960784313726,0.901960784313726);
#38=FILL_AREA_STYLE_COLOUR('',#35);
#39=FILL_AREA_STYLE_COLOUR('',#36);
#40=FILL_AREA_STYLE_COLOUR('',#37);
#41=FILL_AREA_STYLE('',(#38));
#42=FILL_AREA_STYLE('',(#39));
#43=FILL_AREA_STYLE('',(#40));
#44=SURFACE_STYLE_FILL_AREA(#41);
#45=SURFACE_STYLE_FILL_AREA(#42);
#46=SURFACE_STYLE_FILL_AREA(#43);
#47=SURFACE_SIDE_STYLE('case',(#44));
#48=SURFACE_SIDE_STYLE('leads',(#45));
#49=SURFACE_SIDE_STYLE('leads',(#46));
#50=SURFACE_STYLE_USAGE(.BOTH.,#47);
#51=SURFACE_STYLE_USAGE(.BOTH.,#48);
#52=SURFACE_STYLE_USAGE(.BOTH.,#49);
#53=MECHANICAL_DESIGN_GEOMETRIC_PRESENTATION_REPRESENTATION('',(#57,#58,
#59),#807);
#54=PRESENTATION_STYLE_ASSIGNMENT((#50));
#55=PRESENTATION_STYLE_ASSIGNMENT((#51));
#56=PRESENTATION_STYLE_ASSIGNMENT((#52));
#57=STYLED_ITEM('',(#54),#63);
#58=STYLED_ITEM('',(#55),#64);
#59=STYLED_ITEM('',(#56),#65);
#60=PRESENTATION_LAYER_ASSIGNMENT('Default','',(#63));
#61=PRESENTATION_LAYER_ASSIGNMENT('Default','',(#64));
#62=PRESENTATION_LAYER_ASSIGNMENT('Default','',(#65));
#63=SHELL_BASED_SURFACE_MODEL('case',(#67));
#64=SHELL_BASED_SURFACE_MODEL('leads',(#68));
#65=SHELL_BASED_SURFACE_MODEL('leads',(#69));
#66=MANIFOLD_SURFACE_SHAPE_REPRESENTATION('shell_rep_0',(#63,#64,#65,#844),
#807);
#67=OPEN_SHELL('',(#70,#71,#72,#73,#74,#75,#76,#77,#78,#79,#80,#81,#82,
#83,#84,#85));
#68=OPEN_SHELL('',(#86,#87,#88,#89,#90,#91,#92,#93,#94,#95,#96,#97,#98));
#69=OPEN_SHELL('',(#99,#100,#101,#102,#103,#104,#105,#106,#107,#108,#109,
#110,#111));
#70=ADVANCED_FACE('',(#112),#756,.T.);
#71=ADVANCED_FACE('',(#113),#757,.T.);
#72=ADVANCED_FACE('',(#114),#758,.T.);
#73=ADVANCED_FACE('',(#115),#759,.T.);
#74=ADVANCED_FACE('',(#116),#760,.T.);
#75=ADVANCED_FACE('',(#117),#761,.T.);
#76=ADVANCED_FACE('',(#118),#762,.T.);
#77=ADVANCED_FACE('',(#119),#763,.T.);
#78=ADVANCED_FACE('',(#120),#764,.T.);
#79=ADVANCED_FACE('',(#121),#765,.T.);
#80=ADVANCED_FACE('',(#122),#766,.T.);
#81=ADVANCED_FACE('',(#123),#767,.T.);
#82=ADVANCED_FACE('',(#124),#768,.T.);
#83=ADVANCED_FACE('',(#125),#769,.T.);
#84=ADVANCED_FACE('',(#126),#770,.T.);
#85=ADVANCED_FACE('',(#127),#771,.T.);
#86=ADVANCED_FACE('',(#128),#772,.T.);
#87=ADVANCED_FACE('',(#129),#27,.T.);
#88=ADVANCED_FACE('',(#130),#773,.T.);
#89=ADVANCED_FACE('',(#131),#774,.T.);
#90=ADVANCED_FACE('',(#132),#775,.T.);
#91=ADVANCED_FACE('',(#133),#28,.T.);
#92=ADVANCED_FACE('',(#134),#776,.T.);
#93=ADVANCED_FACE('',(#135),#29,.T.);
#94=ADVANCED_FACE('',(#136),#30,.T.);
#95=ADVANCED_FACE('',(#137),#777,.T.);
#96=ADVANCED_FACE('',(#138),#778,.T.);
#97=ADVANCED_FACE('',(#139),#779,.T.);
#98=ADVANCED_FACE('',(#140),#780,.T.);
#99=ADVANCED_FACE('',(#141),#31,.T.);
#100=ADVANCED_FACE('',(#142),#781,.T.);
#101=ADVANCED_FACE('',(#143),#32,.T.);
#102=ADVANCED_FACE('',(#144),#782,.T.);
#103=ADVANCED_FACE('',(#145),#783,.T.);
#104=ADVANCED_FACE('',(#146),#784,.T.);
#105=ADVANCED_FACE('',(#147),#33,.T.);
#106=ADVANCED_FACE('',(#148),#785,.T.);
#107=ADVANCED_FACE('',(#149),#34,.T.);
#108=ADVANCED_FACE('',(#150),#786,.T.);
#109=ADVANCED_FACE('',(#151),#787,.T.);
#110=ADVANCED_FACE('',(#152),#788,.T.);
#111=ADVANCED_FACE('',(#153),#789,.T.);
#112=FACE_OUTER_BOUND('',#154,.T.);
#113=FACE_OUTER_BOUND('',#155,.T.);
#114=FACE_OUTER_BOUND('',#156,.T.);
#115=FACE_OUTER_BOUND('',#157,.T.);
#116=FACE_OUTER_BOUND('',#158,.T.);
#117=FACE_OUTER_BOUND('',#159,.T.);
#118=FACE_OUTER_BOUND('',#160,.T.);
#119=FACE_OUTER_BOUND('',#161,.T.);
#120=FACE_OUTER_BOUND('',#162,.T.);
#121=FACE_OUTER_BOUND('',#163,.T.);
#122=FACE_OUTER_BOUND('',#164,.T.);
#123=FACE_OUTER_BOUND('',#165,.T.);
#124=FACE_OUTER_BOUND('',#166,.T.);
#125=FACE_OUTER_BOUND('',#167,.T.);
#126=FACE_OUTER_BOUND('',#168,.T.);
#127=FACE_OUTER_BOUND('',#169,.T.);
#128=FACE_OUTER_BOUND('',#170,.T.);
#129=FACE_OUTER_BOUND('',#171,.T.);
#130=FACE_OUTER_BOUND('',#172,.T.);
#131=FACE_OUTER_BOUND('',#173,.T.);
#132=FACE_OUTER_BOUND('',#174,.T.);
#133=FACE_OUTER_BOUND('',#175,.T.);
#134=FACE_OUTER_BOUND('',#176,.T.);
#135=FACE_OUTER_BOUND('',#177,.T.);
#136=FACE_OUTER_BOUND('',#178,.T.);
#137=FACE_OUTER_BOUND('',#179,.T.);
#138=FACE_OUTER_BOUND('',#180,.T.);
#139=FACE_OUTER_BOUND('',#181,.T.);
#140=FACE_OUTER_BOUND('',#182,.T.);
#141=FACE_OUTER_BOUND('',#183,.T.);
#142=FACE_OUTER_BOUND('',#184,.T.);
#143=FACE_OUTER_BOUND('',#185,.T.);
#144=FACE_OUTER_BOUND('',#186,.T.);
#145=FACE_OUTER_BOUND('',#187,.T.);
#146=FACE_OUTER_BOUND('',#188,.T.);
#147=FACE_OUTER_BOUND('',#189,.T.);
#148=FACE_OUTER_BOUND('',#190,.T.);
#149=FACE_OUTER_BOUND('',#191,.T.);
#150=FACE_OUTER_BOUND('',#192,.T.);
#151=FACE_OUTER_BOUND('',#193,.T.);
#152=FACE_OUTER_BOUND('',#194,.T.);
#153=FACE_OUTER_BOUND('',#195,.T.);
#154=EDGE_LOOP('',(#196,#197,#198,#199));
#155=EDGE_LOOP('',(#200,#201,#202,#203));
#156=EDGE_LOOP('',(#204,#205,#206,#207));
#157=EDGE_LOOP('',(#208,#209,#210,#211));
#158=EDGE_LOOP('',(#212,#213,#214,#215));
#159=EDGE_LOOP('',(#216,#217,#218,#219,#220,#221,#222,#223,#224,#225,#226,
#227));
#160=EDGE_LOOP('',(#228,#229,#230,#231));
#161=EDGE_LOOP('',(#232,#233,#234,#235,#236,#237,#238,#239,#240,#241,#242,
#243));
#162=EDGE_LOOP('',(#244,#245,#246,#247));
#163=EDGE_LOOP('',(#248,#249,#250,#251,#252,#253,#254,#255));
#164=EDGE_LOOP('',(#256,#257,#258,#259));
#165=EDGE_LOOP('',(#260,#261,#262,#263,#264,#265));
#166=EDGE_LOOP('',(#266,#267,#268,#269,#270,#271));
#167=EDGE_LOOP('',(#272,#273,#274,#275));
#168=EDGE_LOOP('',(#276,#277,#278,#279,#280,#281,#282,#283));
#169=EDGE_LOOP('',(#284,#285,#286,#287));
#170=EDGE_LOOP('',(#288,#289,#290,#291));
#171=EDGE_LOOP('',(#292,#293,#294,#295));
#172=EDGE_LOOP('',(#296,#297,#298,#299));
#173=EDGE_LOOP('',(#300,#301,#302,#303));
#174=EDGE_LOOP('',(#304,#305,#306,#307));
#175=EDGE_LOOP('',(#308,#309,#310,#311));
#176=EDGE_LOOP('',(#312,#313,#314,#315));
#177=EDGE_LOOP('',(#316,#317,#318,#319));
#178=EDGE_LOOP('',(#320,#321,#322,#323));
#179=EDGE_LOOP('',(#324,#325,#326,#327,#328,#329,#330,#331,#332,#333,#334,
#335));
#180=EDGE_LOOP('',(#336,#337,#338,#339,#340,#341,#342,#343,#344,#345,#346,
#347));
#181=EDGE_LOOP('',(#348,#349,#350,#351));
#182=EDGE_LOOP('',(#352,#353,#354,#355,#356,#357));
#183=EDGE_LOOP('',(#358,#359,#360,#361));
#184=EDGE_LOOP('',(#362,#363,#364,#365));
#185=EDGE_LOOP('',(#366,#367,#368,#369));
#186=EDGE_LOOP('',(#370,#371,#372,#373));
#187=EDGE_LOOP('',(#374,#375,#376,#377));
#188=EDGE_LOOP('',(#378,#379,#380,#381));
#189=EDGE_LOOP('',(#382,#383,#384,#385));
#190=EDGE_LOOP('',(#386,#387,#388,#389));
#191=EDGE_LOOP('',(#390,#391,#392,#393));
#192=EDGE_LOOP('',(#394,#395,#396,#397,#398,#399));
#193=EDGE_LOOP('',(#400,#401,#402,#403));
#194=EDGE_LOOP('',(#404,#405,#406,#407,#408,#409,#410,#411,#412,#413,#414,
#415));
#195=EDGE_LOOP('',(#416,#417,#418,#419,#420,#421,#422,#423,#424,#425,#426,
#427));
#196=ORIENTED_EDGE('',*,*,#429,.F.);
#197=ORIENTED_EDGE('',*,*,#430,.F.);
#198=ORIENTED_EDGE('',*,*,#431,.F.);
#199=ORIENTED_EDGE('',*,*,#428,.F.);
#200=ORIENTED_EDGE('',*,*,#431,.T.);
#201=ORIENTED_EDGE('',*,*,#433,.F.);
#202=ORIENTED_EDGE('',*,*,#434,.F.);
#203=ORIENTED_EDGE('',*,*,#432,.F.);
#204=ORIENTED_EDGE('',*,*,#434,.T.);
#205=ORIENTED_EDGE('',*,*,#436,.F.);
#206=ORIENTED_EDGE('',*,*,#437,.F.);
#207=ORIENTED_EDGE('',*,*,#435,.F.);
#208=ORIENTED_EDGE('',*,*,#437,.T.);
#209=ORIENTED_EDGE('',*,*,#439,.F.);
#210=ORIENTED_EDGE('',*,*,#440,.F.);
#211=ORIENTED_EDGE('',*,*,#438,.F.);
#212=ORIENTED_EDGE('',*,*,#441,.T.);
#213=ORIENTED_EDGE('',*,*,#443,.F.);
#214=ORIENTED_EDGE('',*,*,#444,.F.);
#215=ORIENTED_EDGE('',*,*,#442,.F.);
#216=ORIENTED_EDGE('',*,*,#445,.T.);
#217=ORIENTED_EDGE('',*,*,#467,.T.);
#218=ORIENTED_EDGE('',*,*,#442,.T.);
#219=ORIENTED_EDGE('',*,*,#463,.F.);
#220=ORIENTED_EDGE('',*,*,#446,.F.);
#221=ORIENTED_EDGE('',*,*,#459,.F.);
#222=ORIENTED_EDGE('',*,*,#447,.F.);
#223=ORIENTED_EDGE('',*,*,#428,.T.);
#224=ORIENTED_EDGE('',*,*,#432,.T.);
#225=ORIENTED_EDGE('',*,*,#435,.T.);
#226=ORIENTED_EDGE('',*,*,#438,.T.);
#227=ORIENTED_EDGE('',*,*,#474,.T.);
#228=ORIENTED_EDGE('',*,*,#448,.F.);
#229=ORIENTED_EDGE('',*,*,#449,.F.);
#230=ORIENTED_EDGE('',*,*,#429,.T.);
#231=ORIENTED_EDGE('',*,*,#447,.T.);
#232=ORIENTED_EDGE('',*,*,#475,.T.);
#233=ORIENTED_EDGE('',*,*,#439,.T.);
#234=ORIENTED_EDGE('',*,*,#436,.T.);
#235=ORIENTED_EDGE('',*,*,#433,.T.);
#236=ORIENTED_EDGE('',*,*,#430,.T.);
#237=ORIENTED_EDGE('',*,*,#449,.T.);
#238=ORIENTED_EDGE('',*,*,#458,.T.);
#239=ORIENTED_EDGE('',*,*,#451,.T.);
#240=ORIENTED_EDGE('',*,*,#464,.T.);
#241=ORIENTED_EDGE('',*,*,#443,.T.);
#242=ORIENTED_EDGE('',*,*,#468,.T.);
#243=ORIENTED_EDGE('',*,*,#450,.T.);
#244=ORIENTED_EDGE('',*,*,#453,.F.);
#245=ORIENTED_EDGE('',*,*,#451,.F.);
#246=ORIENTED_EDGE('',*,*,#454,.F.);
#247=ORIENTED_EDGE('',*,*,#452,.F.);
#248=ORIENTED_EDGE('',*,*,#456,.F.);
#249=ORIENTED_EDGE('',*,*,#457,.F.);
#250=ORIENTED_EDGE('',*,*,#454,.T.);
#251=ORIENTED_EDGE('',*,*,#458,.F.);
#252=ORIENTED_EDGE('',*,*,#448,.T.);
#253=ORIENTED_EDGE('',*,*,#459,.T.);
#254=ORIENTED_EDGE('',*,*,#460,.F.);
#255=ORIENTED_EDGE('',*,*,#455,.F.);
#256=ORIENTED_EDGE('',*,*,#460,.T.);
#257=ORIENTED_EDGE('',*,*,#446,.T.);
#258=ORIENTED_EDGE('',*,*,#462,.F.);
#259=ORIENTED_EDGE('',*,*,#461,.F.);
#260=ORIENTED_EDGE('',*,*,#444,.T.);
#261=ORIENTED_EDGE('',*,*,#464,.F.);
#262=ORIENTED_EDGE('',*,*,#453,.T.);
#263=ORIENTED_EDGE('',*,*,#465,.F.);
#264=ORIENTED_EDGE('',*,*,#462,.T.);
#265=ORIENTED_EDGE('',*,*,#463,.T.);
#266=ORIENTED_EDGE('',*,*,#479,.T.);
#267=ORIENTED_EDGE('',*,*,#477,.T.);
#268=ORIENTED_EDGE('',*,*,#466,.T.);
#269=ORIENTED_EDGE('',*,*,#468,.F.);
#270=ORIENTED_EDGE('',*,*,#441,.F.);
#271=ORIENTED_EDGE('',*,*,#467,.F.);
#272=ORIENTED_EDGE('',*,*,#470,.F.);
#273=ORIENTED_EDGE('',*,*,#450,.F.);
#274=ORIENTED_EDGE('',*,*,#466,.F.);
#275=ORIENTED_EDGE('',*,*,#469,.T.);
#276=ORIENTED_EDGE('',*,*,#472,.T.);
#277=ORIENTED_EDGE('',*,*,#474,.F.);
#278=ORIENTED_EDGE('',*,*,#440,.T.);
#279=ORIENTED_EDGE('',*,*,#475,.F.);
#280=ORIENTED_EDGE('',*,*,#470,.T.);
#281=ORIENTED_EDGE('',*,*,#476,.T.);
#282=ORIENTED_EDGE('',*,*,#471,.T.);
#283=ORIENTED_EDGE('',*,*,#473,.T.);
#284=ORIENTED_EDGE('',*,*,#479,.F.);
#285=ORIENTED_EDGE('',*,*,#445,.F.);
#286=ORIENTED_EDGE('',*,*,#472,.F.);
#287=ORIENTED_EDGE('',*,*,#478,.T.);
#288=ORIENTED_EDGE('',*,*,#480,.T.);
#289=ORIENTED_EDGE('',*,*,#481,.T.);
#290=ORIENTED_EDGE('',*,*,#482,.T.);
#291=ORIENTED_EDGE('',*,*,#483,.T.);
#292=ORIENTED_EDGE('',*,*,#485,.F.);
#293=ORIENTED_EDGE('',*,*,#483,.F.);
#294=ORIENTED_EDGE('',*,*,#486,.F.);
#295=ORIENTED_EDGE('',*,*,#484,.F.);
#296=ORIENTED_EDGE('',*,*,#488,.F.);
#297=ORIENTED_EDGE('',*,*,#484,.T.);
#298=ORIENTED_EDGE('',*,*,#489,.F.);
#299=ORIENTED_EDGE('',*,*,#487,.F.);
#300=ORIENTED_EDGE('',*,*,#491,.F.);
#301=ORIENTED_EDGE('',*,*,#487,.T.);
#302=ORIENTED_EDGE('',*,*,#492,.F.);
#303=ORIENTED_EDGE('',*,*,#490,.F.);
#304=ORIENTED_EDGE('',*,*,#494,.F.);
#305=ORIENTED_EDGE('',*,*,#490,.T.);
#306=ORIENTED_EDGE('',*,*,#495,.F.);
#307=ORIENTED_EDGE('',*,*,#493,.F.);
#308=ORIENTED_EDGE('',*,*,#496,.T.);
#309=ORIENTED_EDGE('',*,*,#493,.T.);
#310=ORIENTED_EDGE('',*,*,#497,.T.);
#311=ORIENTED_EDGE('',*,*,#498,.T.);
#312=ORIENTED_EDGE('',*,*,#499,.T.);
#313=ORIENTED_EDGE('',*,*,#498,.F.);
#314=ORIENTED_EDGE('',*,*,#500,.T.);
#315=ORIENTED_EDGE('',*,*,#501,.T.);
#316=ORIENTED_EDGE('',*,*,#501,.F.);
#317=ORIENTED_EDGE('',*,*,#503,.F.);
#318=ORIENTED_EDGE('',*,*,#504,.F.);
#319=ORIENTED_EDGE('',*,*,#502,.F.);
#320=ORIENTED_EDGE('',*,*,#481,.F.);
#321=ORIENTED_EDGE('',*,*,#505,.T.);
#322=ORIENTED_EDGE('',*,*,#506,.T.);
#323=ORIENTED_EDGE('',*,*,#507,.T.);
#324=ORIENTED_EDGE('',*,*,#510,.F.);
#325=ORIENTED_EDGE('',*,*,#503,.T.);
#326=ORIENTED_EDGE('',*,*,#500,.F.);
#327=ORIENTED_EDGE('',*,*,#497,.F.);
#328=ORIENTED_EDGE('',*,*,#495,.T.);
#329=ORIENTED_EDGE('',*,*,#492,.T.);
#330=ORIENTED_EDGE('',*,*,#489,.T.);
#331=ORIENTED_EDGE('',*,*,#486,.T.);
#332=ORIENTED_EDGE('',*,*,#482,.F.);
#333=ORIENTED_EDGE('',*,*,#507,.F.);
#334=ORIENTED_EDGE('',*,*,#509,.F.);
#335=ORIENTED_EDGE('',*,*,#508,.T.);
#336=ORIENTED_EDGE('',*,*,#512,.F.);
#337=ORIENTED_EDGE('',*,*,#505,.F.);
#338=ORIENTED_EDGE('',*,*,#480,.F.);
#339=ORIENTED_EDGE('',*,*,#485,.T.);
#340=ORIENTED_EDGE('',*,*,#488,.T.);
#341=ORIENTED_EDGE('',*,*,#491,.T.);
#342=ORIENTED_EDGE('',*,*,#494,.T.);
#343=ORIENTED_EDGE('',*,*,#496,.F.);
#344=ORIENTED_EDGE('',*,*,#499,.F.);
#345=ORIENTED_EDGE('',*,*,#502,.T.);
#346=ORIENTED_EDGE('',*,*,#513,.F.);
#347=ORIENTED_EDGE('',*,*,#511,.T.);
#348=ORIENTED_EDGE('',*,*,#513,.T.);
#349=ORIENTED_EDGE('',*,*,#504,.T.);
#350=ORIENTED_EDGE('',*,*,#510,.T.);
#351=ORIENTED_EDGE('',*,*,#514,.T.);
#352=ORIENTED_EDGE('',*,*,#516,.T.);
#353=ORIENTED_EDGE('',*,*,#517,.T.);
#354=ORIENTED_EDGE('',*,*,#515,.T.);
#355=ORIENTED_EDGE('',*,*,#509,.T.);
#356=ORIENTED_EDGE('',*,*,#506,.F.);
#357=ORIENTED_EDGE('',*,*,#512,.T.);
#358=ORIENTED_EDGE('',*,*,#518,.T.);
#359=ORIENTED_EDGE('',*,*,#519,.T.);
#360=ORIENTED_EDGE('',*,*,#520,.T.);
#361=ORIENTED_EDGE('',*,*,#521,.T.);
#362=ORIENTED_EDGE('',*,*,#523,.F.);
#363=ORIENTED_EDGE('',*,*,#518,.F.);
#364=ORIENTED_EDGE('',*,*,#524,.F.);
#365=ORIENTED_EDGE('',*,*,#522,.F.);
#366=ORIENTED_EDGE('',*,*,#526,.F.);
#367=ORIENTED_EDGE('',*,*,#522,.T.);
#368=ORIENTED_EDGE('',*,*,#527,.F.);
#369=ORIENTED_EDGE('',*,*,#525,.F.);
#370=ORIENTED_EDGE('',*,*,#529,.F.);
#371=ORIENTED_EDGE('',*,*,#525,.T.);
#372=ORIENTED_EDGE('',*,*,#530,.F.);
#373=ORIENTED_EDGE('',*,*,#528,.F.);
#374=ORIENTED_EDGE('',*,*,#532,.F.);
#375=ORIENTED_EDGE('',*,*,#528,.T.);
#376=ORIENTED_EDGE('',*,*,#533,.F.);
#377=ORIENTED_EDGE('',*,*,#531,.F.);
#378=ORIENTED_EDGE('',*,*,#535,.F.);
#379=ORIENTED_EDGE('',*,*,#531,.T.);
#380=ORIENTED_EDGE('',*,*,#536,.F.);
#381=ORIENTED_EDGE('',*,*,#534,.F.);
#382=ORIENTED_EDGE('',*,*,#537,.T.);
#383=ORIENTED_EDGE('',*,*,#538,.T.);
#384=ORIENTED_EDGE('',*,*,#534,.T.);
#385=ORIENTED_EDGE('',*,*,#539,.T.);
#386=ORIENTED_EDGE('',*,*,#541,.F.);
#387=ORIENTED_EDGE('',*,*,#537,.F.);
#388=ORIENTED_EDGE('',*,*,#542,.F.);
#389=ORIENTED_EDGE('',*,*,#540,.F.);
#390=ORIENTED_EDGE('',*,*,#544,.F.);
#391=ORIENTED_EDGE('',*,*,#540,.T.);
#392=ORIENTED_EDGE('',*,*,#545,.F.);
#393=ORIENTED_EDGE('',*,*,#543,.F.);
#394=ORIENTED_EDGE('',*,*,#547,.F.);
#395=ORIENTED_EDGE('',*,*,#548,.F.);
#396=ORIENTED_EDGE('',*,*,#549,.F.);
#397=ORIENTED_EDGE('',*,*,#520,.F.);
#398=ORIENTED_EDGE('',*,*,#550,.F.);
#399=ORIENTED_EDGE('',*,*,#546,.F.);
#400=ORIENTED_EDGE('',*,*,#552,.F.);
#401=ORIENTED_EDGE('',*,*,#553,.F.);
#402=ORIENTED_EDGE('',*,*,#543,.T.);
#403=ORIENTED_EDGE('',*,*,#551,.F.);
#404=ORIENTED_EDGE('',*,*,#554,.F.);
#405=ORIENTED_EDGE('',*,*,#550,.T.);
#406=ORIENTED_EDGE('',*,*,#519,.F.);
#407=ORIENTED_EDGE('',*,*,#523,.T.);
#408=ORIENTED_EDGE('',*,*,#526,.T.);
#409=ORIENTED_EDGE('',*,*,#529,.T.);
#410=ORIENTED_EDGE('',*,*,#532,.T.);
#411=ORIENTED_EDGE('',*,*,#535,.T.);
#412=ORIENTED_EDGE('',*,*,#538,.F.);
#413=ORIENTED_EDGE('',*,*,#541,.T.);
#414=ORIENTED_EDGE('',*,*,#544,.T.);
#415=ORIENTED_EDGE('',*,*,#553,.T.);
#416=ORIENTED_EDGE('',*,*,#555,.F.);
#417=ORIENTED_EDGE('',*,*,#551,.T.);
#418=ORIENTED_EDGE('',*,*,#545,.T.);
#419=ORIENTED_EDGE('',*,*,#542,.T.);
#420=ORIENTED_EDGE('',*,*,#539,.F.);
#421=ORIENTED_EDGE('',*,*,#536,.T.);
#422=ORIENTED_EDGE('',*,*,#533,.T.);
#423=ORIENTED_EDGE('',*,*,#530,.T.);
#424=ORIENTED_EDGE('',*,*,#527,.T.);
#425=ORIENTED_EDGE('',*,*,#524,.T.);
#426=ORIENTED_EDGE('',*,*,#521,.F.);
#427=ORIENTED_EDGE('',*,*,#549,.T.);
#428=EDGE_CURVE('',#668,#669,#556,.T.);
#429=EDGE_CURVE('',#670,#668,#557,.T.);
#430=EDGE_CURVE('',#671,#670,#558,.T.);
#431=EDGE_CURVE('',#669,#671,#559,.T.);
#432=EDGE_CURVE('',#669,#672,#560,.T.);
#433=EDGE_CURVE('',#673,#671,#561,.T.);
#434=EDGE_CURVE('',#672,#673,#562,.T.);
#435=EDGE_CURVE('',#672,#674,#563,.T.);
#436=EDGE_CURVE('',#675,#673,#564,.T.);
#437=EDGE_CURVE('',#674,#675,#565,.T.);
#438=EDGE_CURVE('',#674,#676,#566,.T.);
#439=EDGE_CURVE('',#677,#675,#567,.T.);
#440=EDGE_CURVE('',#676,#677,#568,.T.);
#441=EDGE_CURVE('',#678,#679,#569,.T.);
#442=EDGE_CURVE('',#678,#680,#570,.T.);
#443=EDGE_CURVE('',#681,#679,#571,.T.);
#444=EDGE_CURVE('',#680,#681,#572,.T.);
#445=EDGE_CURVE('',#683,#682,#573,.T.);
#446=EDGE_CURVE('',#685,#684,#574,.T.);
#447=EDGE_CURVE('',#668,#686,#575,.T.);
#448=EDGE_CURVE('',#687,#686,#576,.T.);
#449=EDGE_CURVE('',#670,#687,#577,.T.);
#450=EDGE_CURVE('',#689,#688,#578,.T.);
#451=EDGE_CURVE('',#690,#691,#579,.T.);
#452=EDGE_CURVE('',#692,#693,#580,.T.);
#453=EDGE_CURVE('',#691,#692,#581,.T.);
#454=EDGE_CURVE('',#693,#690,#582,.T.);
#455=EDGE_CURVE('',#694,#695,#583,.T.);
#456=EDGE_CURVE('',#696,#694,#584,.T.);
#457=EDGE_CURVE('',#693,#696,#585,.T.);
#458=EDGE_CURVE('',#687,#690,#586,.T.);
#459=EDGE_CURVE('',#686,#685,#587,.T.);
#460=EDGE_CURVE('',#695,#685,#588,.T.);
#461=EDGE_CURVE('',#695,#697,#589,.T.);
#462=EDGE_CURVE('',#697,#684,#590,.T.);
#463=EDGE_CURVE('',#684,#680,#591,.T.);
#464=EDGE_CURVE('',#691,#681,#592,.T.);
#465=EDGE_CURVE('',#697,#692,#593,.T.);
#466=EDGE_CURVE('',#698,#689,#594,.T.);
#467=EDGE_CURVE('',#682,#678,#595,.T.);
#468=EDGE_CURVE('',#679,#689,#596,.T.);
#469=EDGE_CURVE('',#698,#699,#597,.T.);
#470=EDGE_CURVE('',#688,#699,#598,.T.);
#471=EDGE_CURVE('',#702,#701,#599,.T.);
#472=EDGE_CURVE('',#700,#683,#600,.T.);
#473=EDGE_CURVE('',#701,#700,#601,.T.);
#474=EDGE_CURVE('',#676,#683,#602,.T.);
#475=EDGE_CURVE('',#688,#677,#603,.T.);
#476=EDGE_CURVE('',#699,#702,#604,.T.);
#477=EDGE_CURVE('',#703,#698,#605,.T.);
#478=EDGE_CURVE('',#700,#703,#606,.T.);
#479=EDGE_CURVE('',#682,#703,#607,.T.);
#480=EDGE_CURVE('',#704,#705,#608,.T.);
#481=EDGE_CURVE('',#705,#706,#609,.T.);
#482=EDGE_CURVE('',#706,#707,#610,.T.);
#483=EDGE_CURVE('',#707,#704,#611,.T.);
#484=EDGE_CURVE('',#708,#709,#612,.T.);
#485=EDGE_CURVE('',#704,#708,#11,.T.);
#486=EDGE_CURVE('',#709,#707,#12,.T.);
#487=EDGE_CURVE('',#710,#711,#613,.T.);
#488=EDGE_CURVE('',#708,#710,#614,.T.);
#489=EDGE_CURVE('',#711,#709,#615,.T.);
#490=EDGE_CURVE('',#712,#713,#616,.T.);
#491=EDGE_CURVE('',#710,#712,#617,.T.);
#492=EDGE_CURVE('',#713,#711,#618,.T.);
#493=EDGE_CURVE('',#714,#715,#619,.T.);
#494=EDGE_CURVE('',#712,#714,#620,.T.);
#495=EDGE_CURVE('',#715,#713,#621,.T.);
#496=EDGE_CURVE('',#716,#714,#13,.T.);
#497=EDGE_CURVE('',#715,#717,#14,.T.);
#498=EDGE_CURVE('',#717,#716,#622,.T.);
#499=EDGE_CURVE('',#718,#716,#623,.T.);
#500=EDGE_CURVE('',#717,#719,#624,.T.);
#501=EDGE_CURVE('',#719,#718,#625,.T.);
#502=EDGE_CURVE('',#718,#720,#15,.T.);
#503=EDGE_CURVE('',#721,#719,#16,.T.);
#504=EDGE_CURVE('',#720,#721,#626,.T.);
#505=EDGE_CURVE('',#705,#722,#17,.T.);
#506=EDGE_CURVE('',#722,#723,#627,.T.);
#507=EDGE_CURVE('',#723,#706,#18,.T.);
#508=EDGE_CURVE('',#724,#725,#628,.T.);
#509=EDGE_CURVE('',#724,#723,#629,.T.);
#510=EDGE_CURVE('',#721,#725,#630,.T.);
#511=EDGE_CURVE('',#726,#727,#631,.T.);
#512=EDGE_CURVE('',#722,#727,#632,.T.);
#513=EDGE_CURVE('',#726,#720,#633,.T.);
#514=EDGE_CURVE('',#725,#726,#634,.T.);
#515=EDGE_CURVE('',#728,#724,#635,.T.);
#516=EDGE_CURVE('',#727,#729,#636,.T.);
#517=EDGE_CURVE('',#729,#728,#637,.T.);
#518=EDGE_CURVE('',#730,#731,#638,.T.);
#519=EDGE_CURVE('',#731,#732,#19,.T.);
#520=EDGE_CURVE('',#732,#733,#639,.T.);
#521=EDGE_CURVE('',#733,#730,#20,.T.);
#522=EDGE_CURVE('',#734,#735,#640,.T.);
#523=EDGE_CURVE('',#731,#734,#641,.T.);
#524=EDGE_CURVE('',#735,#730,#642,.T.);
#525=EDGE_CURVE('',#736,#737,#643,.T.);
#526=EDGE_CURVE('',#734,#736,#21,.T.);
#527=EDGE_CURVE('',#737,#735,#22,.T.);
#528=EDGE_CURVE('',#738,#739,#644,.T.);
#529=EDGE_CURVE('',#736,#738,#645,.T.);
#530=EDGE_CURVE('',#739,#737,#646,.T.);
#531=EDGE_CURVE('',#740,#741,#647,.T.);
#532=EDGE_CURVE('',#738,#740,#648,.T.);
#533=EDGE_CURVE('',#741,#739,#649,.T.);
#534=EDGE_CURVE('',#742,#743,#650,.T.);
#535=EDGE_CURVE('',#740,#742,#651,.T.);
#536=EDGE_CURVE('',#743,#741,#652,.T.);
#537=EDGE_CURVE('',#744,#745,#653,.T.);
#538=EDGE_CURVE('',#745,#742,#23,.T.);
#539=EDGE_CURVE('',#743,#744,#24,.T.);
#540=EDGE_CURVE('',#746,#747,#654,.T.);
#541=EDGE_CURVE('',#745,#746,#655,.T.);
#542=EDGE_CURVE('',#747,#744,#656,.T.);
#543=EDGE_CURVE('',#748,#749,#657,.T.);
#544=EDGE_CURVE('',#746,#748,#25,.T.);
#545=EDGE_CURVE('',#749,#747,#26,.T.);
#546=EDGE_CURVE('',#750,#751,#658,.T.);
#547=EDGE_CURVE('',#752,#750,#659,.T.);
#548=EDGE_CURVE('',#753,#752,#660,.T.);
#549=EDGE_CURVE('',#733,#753,#661,.T.);
#550=EDGE_CURVE('',#751,#732,#662,.T.);
#551=EDGE_CURVE('',#754,#749,#663,.T.);
#552=EDGE_CURVE('',#755,#754,#664,.T.);
#553=EDGE_CURVE('',#748,#755,#665,.T.);
#554=EDGE_CURVE('',#751,#755,#666,.T.);
#555=EDGE_CURVE('',#754,#753,#667,.T.);
#556=B_SPLINE_CURVE_WITH_KNOTS('',1,(#936,#937),.UNSPECIFIED.,.F.,.F.,(2,
2),(-0.175514481833646,0.),.UNSPECIFIED.);
#557=B_SPLINE_CURVE_WITH_KNOTS('',1,(#938,#939),.UNSPECIFIED.,.F.,.F.,(2,
2),(-3.556,0.),.UNSPECIFIED.);
#558=B_SPLINE_CURVE_WITH_KNOTS('',1,(#940,#941),.UNSPECIFIED.,.F.,.F.,(2,
2),(-0.175514481833646,0.),.UNSPECIFIED.);
#559=B_SPLINE_CURVE_WITH_KNOTS('',1,(#942,#943),.UNSPECIFIED.,.F.,.F.,(2,
2),(-3.556,0.),.UNSPECIFIED.);
#560=B_SPLINE_CURVE_WITH_KNOTS('',1,(#944,#945),.UNSPECIFIED.,.F.,.F.,(2,
2),(-1.83,0.),.UNSPECIFIED.);
#561=B_SPLINE_CURVE_WITH_KNOTS('',1,(#946,#947),.UNSPECIFIED.,.F.,.F.,(2,
2),(-1.83,0.),.UNSPECIFIED.);
#562=B_SPLINE_CURVE_WITH_KNOTS('',1,(#948,#949),.UNSPECIFIED.,.F.,.F.,(2,
2),(-3.556,0.),.UNSPECIFIED.);
#563=B_SPLINE_CURVE_WITH_KNOTS('',1,(#950,#951),.UNSPECIFIED.,.F.,.F.,(2,
2),(-0.175514481833645,0.),.UNSPECIFIED.);
#564=B_SPLINE_CURVE_WITH_KNOTS('',1,(#952,#953),.UNSPECIFIED.,.F.,.F.,(2,
2),(-0.175514481833645,0.),.UNSPECIFIED.);
#565=B_SPLINE_CURVE_WITH_KNOTS('',1,(#954,#955),.UNSPECIFIED.,.F.,.F.,(2,
2),(-3.556,0.),.UNSPECIFIED.);
#566=B_SPLINE_CURVE_WITH_KNOTS('',1,(#956,#957),.UNSPECIFIED.,.F.,.F.,(2,
2),(-1.1128,0.),.UNSPECIFIED.);
#567=B_SPLINE_CURVE_WITH_KNOTS('',1,(#958,#959),.UNSPECIFIED.,.F.,.F.,(2,
2),(-1.1128,0.),.UNSPECIFIED.);
#568=B_SPLINE_CURVE_WITH_KNOTS('',1,(#960,#961),.UNSPECIFIED.,.F.,.F.,(2,
2),(-3.556,0.),.UNSPECIFIED.);
#569=B_SPLINE_CURVE_WITH_KNOTS('',1,(#962,#963),.UNSPECIFIED.,.F.,.F.,(2,
2),(-3.556,0.),.UNSPECIFIED.);
#570=B_SPLINE_CURVE_WITH_KNOTS('',1,(#964,#965),.UNSPECIFIED.,.F.,.F.,(2,
2),(-4.19991188392956,0.),.UNSPECIFIED.);
#571=B_SPLINE_CURVE_WITH_KNOTS('',1,(#966,#967),.UNSPECIFIED.,.F.,.F.,(2,
2),(-4.19991188392956,0.),.UNSPECIFIED.);
#572=B_SPLINE_CURVE_WITH_KNOTS('',1,(#968,#969),.UNSPECIFIED.,.F.,.F.,(2,
2),(-3.556,0.),.UNSPECIFIED.);
#573=B_SPLINE_CURVE_WITH_KNOTS('',1,(#970,#971),.UNSPECIFIED.,.F.,.F.,(2,
2),(-0.0253999999999905,0.),.UNSPECIFIED.);
#574=B_SPLINE_CURVE_WITH_KNOTS('',1,(#972,#973),.UNSPECIFIED.,.F.,.F.,(2,
2),(-0.0254000000000119,0.),.UNSPECIFIED.);
#575=B_SPLINE_CURVE_WITH_KNOTS('',1,(#974,#975),.UNSPECIFIED.,.F.,.F.,(2,
2),(-1.1128,0.),.UNSPECIFIED.);
#576=B_SPLINE_CURVE_WITH_KNOTS('',1,(#976,#977),.UNSPECIFIED.,.F.,.F.,(2,
2),(-3.556,0.),.UNSPECIFIED.);
#577=B_SPLINE_CURVE_WITH_KNOTS('',1,(#978,#979),.UNSPECIFIED.,.F.,.F.,(2,
2),(-1.1128,0.),.UNSPECIFIED.);
#578=B_SPLINE_CURVE_WITH_KNOTS('',1,(#980,#981),.UNSPECIFIED.,.F.,.F.,(2,
2),(-0.0253999999999905,0.),.UNSPECIFIED.);
#579=B_SPLINE_CURVE_WITH_KNOTS('',1,(#982,#983),.UNSPECIFIED.,.F.,.F.,(2,
2),(0.,0.0254000000000119),.UNSPECIFIED.);
#580=B_SPLINE_CURVE_WITH_KNOTS('',1,(#984,#985),.UNSPECIFIED.,.F.,.F.,(2,
2),(-0.0254000000000119,0.),.UNSPECIFIED.);
#581=B_SPLINE_CURVE_WITH_KNOTS('',1,(#986,#987),.UNSPECIFIED.,.F.,.F.,(2,
2),(-0.762,0.),.UNSPECIFIED.);
#582=B_SPLINE_CURVE_WITH_KNOTS('',1,(#988,#989),.UNSPECIFIED.,.F.,.F.,(2,
2),(-0.762,0.),.UNSPECIFIED.);
#583=B_SPLINE_CURVE_WITH_KNOTS('',1,(#990,#991),.UNSPECIFIED.,.F.,.F.,(2,
2),(-0.200857899109296,0.),.UNSPECIFIED.);
#584=B_SPLINE_CURVE_WITH_KNOTS('',1,(#992,#993),.UNSPECIFIED.,.F.,.F.,(2,
2),(-2.032,0.),.UNSPECIFIED.);
#585=B_SPLINE_CURVE_WITH_KNOTS('',1,(#994,#995),.UNSPECIFIED.,.F.,.F.,(2,
2),(-0.200857899109296,0.),.UNSPECIFIED.);
#586=B_SPLINE_CURVE_WITH_KNOTS('',1,(#996,#997),.UNSPECIFIED.,.F.,.F.,(2,
2),(-1.02075984327344,0.),.UNSPECIFIED.);
#587=B_SPLINE_CURVE_WITH_KNOTS('',1,(#998,#999),.UNSPECIFIED.,.F.,.F.,(2,
2),(0.,1.02075984327344),.UNSPECIFIED.);
#588=B_SPLINE_CURVE_WITH_KNOTS('',1,(#1000,#1001),.UNSPECIFIED.,.F.,.F.,
(2,2),(-0.762,0.),.UNSPECIFIED.);
#589=B_SPLINE_CURVE_WITH_KNOTS('',1,(#1002,#1003),.UNSPECIFIED.,.F.,.F.,
(2,2),(-0.0254000000000119,0.),.UNSPECIFIED.);
#590=B_SPLINE_CURVE_WITH_KNOTS('',1,(#1004,#1005),.UNSPECIFIED.,.F.,.F.,
(2,2),(-0.762,0.),.UNSPECIFIED.);
#591=B_SPLINE_CURVE_WITH_KNOTS('',1,(#1006,#1007),.UNSPECIFIED.,.F.,.F.,
(2,2),(0.,0.968886907196837),.UNSPECIFIED.);
#592=B_SPLINE_CURVE_WITH_KNOTS('',1,(#1008,#1009),.UNSPECIFIED.,.F.,.F.,
(2,2),(-0.968886907196837,0.),.UNSPECIFIED.);
#593=B_SPLINE_CURVE_WITH_KNOTS('',1,(#1010,#1011),.UNSPECIFIED.,.F.,.F.,
(2,2),(-2.032,0.),.UNSPECIFIED.);
#594=B_SPLINE_CURVE_WITH_KNOTS('',1,(#1012,#1013),.UNSPECIFIED.,.F.,.F.,
(2,2),(-0.762,0.),.UNSPECIFIED.);
#595=B_SPLINE_CURVE_WITH_KNOTS('',1,(#1014,#1015),.UNSPECIFIED.,.F.,.F.,
(2,2),(-0.968886907196837,0.),.UNSPECIFIED.);
#596=B_SPLINE_CURVE_WITH_KNOTS('',1,(#1016,#1017),.UNSPECIFIED.,.F.,.F.,
(2,2),(-0.968886907196837,0.),.UNSPECIFIED.);
#597=B_SPLINE_CURVE_WITH_KNOTS('',1,(#1018,#1019),.UNSPECIFIED.,.F.,.F.,
(2,2),(-0.0253999999999905,0.),.UNSPECIFIED.);
#598=B_SPLINE_CURVE_WITH_KNOTS('',1,(#1020,#1021),.UNSPECIFIED.,.F.,.F.,
(2,2),(-0.762,0.),.UNSPECIFIED.);
#599=B_SPLINE_CURVE_WITH_KNOTS('',1,(#1022,#1023),.UNSPECIFIED.,.F.,.F.,
(2,2),(-2.032,0.),.UNSPECIFIED.);
#600=B_SPLINE_CURVE_WITH_KNOTS('',1,(#1024,#1025),.UNSPECIFIED.,.F.,.F.,
(2,2),(-0.762,0.),.UNSPECIFIED.);
#601=B_SPLINE_CURVE_WITH_KNOTS('',1,(#1026,#1027),.UNSPECIFIED.,.F.,.F.,
(2,2),(0.,0.200857899109335),.UNSPECIFIED.);
#602=B_SPLINE_CURVE_WITH_KNOTS('',1,(#1028,#1029),.UNSPECIFIED.,.F.,.F.,
(2,2),(-1.02075984327344,0.),.UNSPECIFIED.);
#603=B_SPLINE_CURVE_WITH_KNOTS('',1,(#1030,#1031),.UNSPECIFIED.,.F.,.F.,
(2,2),(-1.02075984327344,0.),.UNSPECIFIED.);
#604=B_SPLINE_CURVE_WITH_KNOTS('',1,(#1032,#1033),.UNSPECIFIED.,.F.,.F.,
(2,2),(0.,0.200857899109336),.UNSPECIFIED.);
#605=B_SPLINE_CURVE_WITH_KNOTS('',1,(#1034,#1035),.UNSPECIFIED.,.F.,.F.,
(2,2),(0.,2.032),.UNSPECIFIED.);
#606=B_SPLINE_CURVE_WITH_KNOTS('',1,(#1036,#1037),.UNSPECIFIED.,.F.,.F.,
(2,2),(-0.0253999999999905,0.),.UNSPECIFIED.);
#607=B_SPLINE_CURVE_WITH_KNOTS('',1,(#1038,#1039),.UNSPECIFIED.,.F.,.F.,
(2,2),(-0.762,0.),.UNSPECIFIED.);
#608=B_SPLINE_CURVE_WITH_KNOTS('',1,(#1147,#1148),.UNSPECIFIED.,.F.,.F.,
(2,2),(0.,0.804336680286476),.UNSPECIFIED.);
#609=B_SPLINE_CURVE_WITH_KNOTS('',1,(#1149,#1150),.UNSPECIFIED.,.F.,.F.,
(2,2),(0.,2.032),.UNSPECIFIED.);
#610=B_SPLINE_CURVE_WITH_KNOTS('',1,(#1151,#1152),.UNSPECIFIED.,.F.,.F.,
(2,2),(0.,0.804336680286476),.UNSPECIFIED.);
#611=B_SPLINE_CURVE_WITH_KNOTS('',1,(#1153,#1154),.UNSPECIFIED.,.F.,.F.,
(2,2),(0.,2.032),.UNSPECIFIED.);
#612=B_SPLINE_CURVE_WITH_KNOTS('',1,(#1155,#1156),.UNSPECIFIED.,.F.,.F.,
(2,2),(-2.032,0.),.UNSPECIFIED.);
#613=B_SPLINE_CURVE_WITH_KNOTS('',1,(#1163,#1164),.UNSPECIFIED.,.F.,.F.,
(2,2),(-2.032,0.),.UNSPECIFIED.);
#614=B_SPLINE_CURVE_WITH_KNOTS('',1,(#1165,#1166),.UNSPECIFIED.,.F.,.F.,
(2,2),(-0.353924601151801,0.),.UNSPECIFIED.);
#615=B_SPLINE_CURVE_WITH_KNOTS('',1,(#1167,#1168),.UNSPECIFIED.,.F.,.F.,
(2,2),(-0.353924601151801,0.),.UNSPECIFIED.);
#616=B_SPLINE_CURVE_WITH_KNOTS('',1,(#1169,#1170),.UNSPECIFIED.,.F.,.F.,
(2,2),(-2.032,0.),.UNSPECIFIED.);
#617=B_SPLINE_CURVE_WITH_KNOTS('',1,(#1171,#1172),.UNSPECIFIED.,.F.,.F.,
(2,2),(-0.199999999999999,0.),.UNSPECIFIED.);
#618=B_SPLINE_CURVE_WITH_KNOTS('',1,(#1173,#1174),.UNSPECIFIED.,.F.,.F.,
(2,2),(-0.199999999999999,0.),.UNSPECIFIED.);
#619=B_SPLINE_CURVE_WITH_KNOTS('',1,(#1175,#1176),.UNSPECIFIED.,.F.,.F.,
(2,2),(-2.032,0.),.UNSPECIFIED.);
#620=B_SPLINE_CURVE_WITH_KNOTS('',1,(#1177,#1178),.UNSPECIFIED.,.F.,.F.,
(2,2),(-0.449999999999999,0.),.UNSPECIFIED.);
#621=B_SPLINE_CURVE_WITH_KNOTS('',1,(#1179,#1180),.UNSPECIFIED.,.F.,.F.,
(2,2),(-0.449999999999999,0.),.UNSPECIFIED.);
#622=B_SPLINE_CURVE_WITH_KNOTS('',1,(#1187,#1188),.UNSPECIFIED.,.F.,.F.,
(2,2),(0.,2.032),.UNSPECIFIED.);
#623=B_SPLINE_CURVE_WITH_KNOTS('',1,(#1189,#1190),.UNSPECIFIED.,.F.,.F.,
(2,2),(0.,0.804336680286105),.UNSPECIFIED.);
#624=B_SPLINE_CURVE_WITH_KNOTS('',1,(#1191,#1192),.UNSPECIFIED.,.F.,.F.,
(2,2),(0.,0.804336680286105),.UNSPECIFIED.);
#625=B_SPLINE_CURVE_WITH_KNOTS('',1,(#1193,#1194),.UNSPECIFIED.,.F.,.F.,
(2,2),(0.,2.032),.UNSPECIFIED.);
#626=B_SPLINE_CURVE_WITH_KNOTS('',1,(#1201,#1202),.UNSPECIFIED.,.F.,.F.,
(2,2),(-2.032,0.),.UNSPECIFIED.);
#627=B_SPLINE_CURVE_WITH_KNOTS('',1,(#1206,#1207),.UNSPECIFIED.,.F.,.F.,
(2,2),(0.,2.032),.UNSPECIFIED.);
#628=B_SPLINE_CURVE_WITH_KNOTS('',1,(#1211,#1212),.UNSPECIFIED.,.F.,.F.,
(2,2),(-0.200857899109296,0.),.UNSPECIFIED.);
#629=B_SPLINE_CURVE_WITH_KNOTS('',1,(#1213,#1214),.UNSPECIFIED.,.F.,.F.,
(2,2),(0.,0.191056952994018),.UNSPECIFIED.);
#630=B_SPLINE_CURVE_WITH_KNOTS('',1,(#1215,#1216),.UNSPECIFIED.,.F.,.F.,
(2,2),(-0.11352559251975,0.),.UNSPECIFIED.);
#631=B_SPLINE_CURVE_WITH_KNOTS('',1,(#1217,#1218),.UNSPECIFIED.,.F.,.F.,
(2,2),(-0.200857899109296,0.),.UNSPECIFIED.);
#632=B_SPLINE_CURVE_WITH_KNOTS('',1,(#1219,#1220),.UNSPECIFIED.,.F.,.F.,
(2,2),(0.,0.191056952994018),.UNSPECIFIED.);
#633=B_SPLINE_CURVE_WITH_KNOTS('',1,(#1221,#1222),.UNSPECIFIED.,.F.,.F.,
(2,2),(-0.11352559251975,0.),.UNSPECIFIED.);
#634=B_SPLINE_CURVE_WITH_KNOTS('',1,(#1223,#1224),.UNSPECIFIED.,.F.,.F.,
(2,2),(-2.032,0.),.UNSPECIFIED.);
#635=B_SPLINE_CURVE_WITH_KNOTS('',1,(#1225,#1226),.UNSPECIFIED.,.F.,.F.,
(2,2),(-0.0254000000000119,0.),.UNSPECIFIED.);
#636=B_SPLINE_CURVE_WITH_KNOTS('',1,(#1227,#1228),.UNSPECIFIED.,.F.,.F.,
(2,2),(-0.0254000000000119,0.),.UNSPECIFIED.);
#637=B_SPLINE_CURVE_WITH_KNOTS('',1,(#1229,#1230),.UNSPECIFIED.,.F.,.F.,
(2,2),(-2.032,0.),.UNSPECIFIED.);
#638=B_SPLINE_CURVE_WITH_KNOTS('',1,(#1338,#1339),.UNSPECIFIED.,.F.,.F.,
(2,2),(0.,2.032),.UNSPECIFIED.);
#639=B_SPLINE_CURVE_WITH_KNOTS('',1,(#1343,#1344),.UNSPECIFIED.,.F.,.F.,
(2,2),(0.,2.032),.UNSPECIFIED.);
#640=B_SPLINE_CURVE_WITH_KNOTS('',1,(#1348,#1349),.UNSPECIFIED.,.F.,.F.,
(2,2),(-2.032,0.),.UNSPECIFIED.);
#641=B_SPLINE_CURVE_WITH_KNOTS('',1,(#1350,#1351),.UNSPECIFIED.,.F.,.F.,
(2,2),(-0.804336680286475,0.),.UNSPECIFIED.);
#642=B_SPLINE_CURVE_WITH_KNOTS('',1,(#1352,#1353),.UNSPECIFIED.,.F.,.F.,
(2,2),(-0.804336680286475,0.),.UNSPECIFIED.);
#643=B_SPLINE_CURVE_WITH_KNOTS('',1,(#1354,#1355),.UNSPECIFIED.,.F.,.F.,
(2,2),(-2.032,0.),.UNSPECIFIED.);
#644=B_SPLINE_CURVE_WITH_KNOTS('',1,(#1362,#1363),.UNSPECIFIED.,.F.,.F.,
(2,2),(-2.032,0.),.UNSPECIFIED.);
#645=B_SPLINE_CURVE_WITH_KNOTS('',1,(#1364,#1365),.UNSPECIFIED.,.F.,.F.,
(2,2),(-0.359808377020775,0.),.UNSPECIFIED.);
#646=B_SPLINE_CURVE_WITH_KNOTS('',1,(#1366,#1367),.UNSPECIFIED.,.F.,.F.,
(2,2),(-0.359808377020775,0.),.UNSPECIFIED.);
#647=B_SPLINE_CURVE_WITH_KNOTS('',1,(#1368,#1369),.UNSPECIFIED.,.F.,.F.,
(2,2),(-2.032,0.),.UNSPECIFIED.);
#648=B_SPLINE_CURVE_WITH_KNOTS('',1,(#1370,#1371),.UNSPECIFIED.,.F.,.F.,
(2,2),(-0.20102460289201,0.),.UNSPECIFIED.);
#649=B_SPLINE_CURVE_WITH_KNOTS('',1,(#1372,#1373),.UNSPECIFIED.,.F.,.F.,
(2,2),(-0.20102460289201,0.),.UNSPECIFIED.);
#650=B_SPLINE_CURVE_WITH_KNOTS('',1,(#1374,#1375),.UNSPECIFIED.,.F.,.F.,
(2,2),(-2.032,0.),.UNSPECIFIED.);
#651=B_SPLINE_CURVE_WITH_KNOTS('',1,(#1376,#1377),.UNSPECIFIED.,.F.,.F.,
(2,2),(-0.449999999999999,0.),.UNSPECIFIED.);
#652=B_SPLINE_CURVE_WITH_KNOTS('',1,(#1378,#1379),.UNSPECIFIED.,.F.,.F.,
(2,2),(-0.449999999999999,0.),.UNSPECIFIED.);
#653=B_SPLINE_CURVE_WITH_KNOTS('',1,(#1380,#1381),.UNSPECIFIED.,.F.,.F.,
(2,2),(0.,2.032),.UNSPECIFIED.);
#654=B_SPLINE_CURVE_WITH_KNOTS('',1,(#1388,#1389),.UNSPECIFIED.,.F.,.F.,
(2,2),(-2.032,0.),.UNSPECIFIED.);
#655=B_SPLINE_CURVE_WITH_KNOTS('',1,(#1390,#1391),.UNSPECIFIED.,.F.,.F.,
(2,2),(-0.805365196995077,0.),.UNSPECIFIED.);
#656=B_SPLINE_CURVE_WITH_KNOTS('',1,(#1392,#1393),.UNSPECIFIED.,.F.,.F.,
(2,2),(-0.805365196995077,0.),.UNSPECIFIED.);
#657=B_SPLINE_CURVE_WITH_KNOTS('',1,(#1394,#1395),.UNSPECIFIED.,.F.,.F.,
(2,2),(-2.032,0.),.UNSPECIFIED.);
#658=B_SPLINE_CURVE_WITH_KNOTS('',1,(#1402,#1403),.UNSPECIFIED.,.F.,.F.,
(2,2),(-0.0253999999999905,0.),.UNSPECIFIED.);
#659=B_SPLINE_CURVE_WITH_KNOTS('',1,(#1404,#1405),.UNSPECIFIED.,.F.,.F.,
(2,2),(-2.032,0.),.UNSPECIFIED.);
#660=B_SPLINE_CURVE_WITH_KNOTS('',1,(#1406,#1407),.UNSPECIFIED.,.F.,.F.,
(2,2),(-0.0253999999999905,0.),.UNSPECIFIED.);
#661=B_SPLINE_CURVE_WITH_KNOTS('',1,(#1408,#1409),.UNSPECIFIED.,.F.,.F.,
(2,2),(-0.18334304700598,0.),.UNSPECIFIED.);
#662=B_SPLINE_CURVE_WITH_KNOTS('',1,(#1410,#1411),.UNSPECIFIED.,.F.,.F.,
(2,2),(-0.18334304700598,0.),.UNSPECIFIED.);
#663=B_SPLINE_CURVE_WITH_KNOTS('',1,(#1412,#1413),.UNSPECIFIED.,.F.,.F.,
(2,2),(-0.111606206164023,0.),.UNSPECIFIED.);
#664=B_SPLINE_CURVE_WITH_KNOTS('',1,(#1414,#1415),.UNSPECIFIED.,.F.,.F.,
(2,2),(-2.032,0.),.UNSPECIFIED.);
#665=B_SPLINE_CURVE_WITH_KNOTS('',1,(#1416,#1417),.UNSPECIFIED.,.F.,.F.,
(2,2),(-0.111606206164023,0.),.UNSPECIFIED.);
#666=B_SPLINE_CURVE_WITH_KNOTS('',1,(#1418,#1419),.UNSPECIFIED.,.F.,.F.,
(2,2),(0.,0.200857899109336),.UNSPECIFIED.);
#667=B_SPLINE_CURVE_WITH_KNOTS('',1,(#1420,#1421),.UNSPECIFIED.,.F.,.F.,
(2,2),(0.,0.200857899109335),.UNSPECIFIED.);
#668=VERTEX_POINT('',#900);
#669=VERTEX_POINT('',#901);
#670=VERTEX_POINT('',#902);
#671=VERTEX_POINT('',#903);
#672=VERTEX_POINT('',#904);
#673=VERTEX_POINT('',#905);
#674=VERTEX_POINT('',#906);
#675=VERTEX_POINT('',#907);
#676=VERTEX_POINT('',#908);
#677=VERTEX_POINT('',#909);
#678=VERTEX_POINT('',#910);
#679=VERTEX_POINT('',#911);
#680=VERTEX_POINT('',#912);
#681=VERTEX_POINT('',#913);
#682=VERTEX_POINT('',#914);
#683=VERTEX_POINT('',#915);
#684=VERTEX_POINT('',#916);
#685=VERTEX_POINT('',#917);
#686=VERTEX_POINT('',#918);
#687=VERTEX_POINT('',#919);
#688=VERTEX_POINT('',#920);
#689=VERTEX_POINT('',#921);
#690=VERTEX_POINT('',#922);
#691=VERTEX_POINT('',#923);
#692=VERTEX_POINT('',#924);
#693=VERTEX_POINT('',#925);
#694=VERTEX_POINT('',#926);
#695=VERTEX_POINT('',#927);
#696=VERTEX_POINT('',#928);
#697=VERTEX_POINT('',#929);
#698=VERTEX_POINT('',#930);
#699=VERTEX_POINT('',#931);
#700=VERTEX_POINT('',#932);
#701=VERTEX_POINT('',#933);
#702=VERTEX_POINT('',#934);
#703=VERTEX_POINT('',#935);
#704=VERTEX_POINT('',#1121);
#705=VERTEX_POINT('',#1122);
#706=VERTEX_POINT('',#1123);
#707=VERTEX_POINT('',#1124);
#708=VERTEX_POINT('',#1125);
#709=VERTEX_POINT('',#1126);
#710=VERTEX_POINT('',#1127);
#711=VERTEX_POINT('',#1128);
#712=VERTEX_POINT('',#1129);
#713=VERTEX_POINT('',#1130);
#714=VERTEX_POINT('',#1131);
#715=VERTEX_POINT('',#1132);
#716=VERTEX_POINT('',#1133);
#717=VERTEX_POINT('',#1134);
#718=VERTEX_POINT('',#1135);
#719=VERTEX_POINT('',#1136);
#720=VERTEX_POINT('',#1137);
#721=VERTEX_POINT('',#1138);
#722=VERTEX_POINT('',#1139);
#723=VERTEX_POINT('',#1140);
#724=VERTEX_POINT('',#1141);
#725=VERTEX_POINT('',#1142);
#726=VERTEX_POINT('',#1143);
#727=VERTEX_POINT('',#1144);
#728=VERTEX_POINT('',#1145);
#729=VERTEX_POINT('',#1146);
#730=VERTEX_POINT('',#1312);
#731=VERTEX_POINT('',#1313);
#732=VERTEX_POINT('',#1314);
#733=VERTEX_POINT('',#1315);
#734=VERTEX_POINT('',#1316);
#735=VERTEX_POINT('',#1317);
#736=VERTEX_POINT('',#1318);
#737=VERTEX_POINT('',#1319);
#738=VERTEX_POINT('',#1320);
#739=VERTEX_POINT('',#1321);
#740=VERTEX_POINT('',#1322);
#741=VERTEX_POINT('',#1323);
#742=VERTEX_POINT('',#1324);
#743=VERTEX_POINT('',#1325);
#744=VERTEX_POINT('',#1326);
#745=VERTEX_POINT('',#1327);
#746=VERTEX_POINT('',#1328);
#747=VERTEX_POINT('',#1329);
#748=VERTEX_POINT('',#1330);
#749=VERTEX_POINT('',#1331);
#750=VERTEX_POINT('',#1332);
#751=VERTEX_POINT('',#1333);
#752=VERTEX_POINT('',#1334);
#753=VERTEX_POINT('',#1335);
#754=VERTEX_POINT('',#1336);
#755=VERTEX_POINT('',#1337);
#756=PLANE('',#810);
#757=PLANE('',#811);
#758=PLANE('',#812);
#759=PLANE('',#813);
#760=PLANE('',#814);
#761=PLANE('',#815);
#762=PLANE('',#816);
#763=PLANE('',#817);
#764=PLANE('',#818);
#765=PLANE('',#819);
#766=PLANE('',#820);
#767=PLANE('',#821);
#768=PLANE('',#822);
#769=PLANE('',#823);
#770=PLANE('',#824);
#771=PLANE('',#825);
#772=PLANE('',#826);
#773=PLANE('',#827);
#774=PLANE('',#828);
#775=PLANE('',#829);
#776=PLANE('',#830);
#777=PLANE('',#831);
#778=PLANE('',#832);
#779=PLANE('',#833);
#780=PLANE('',#834);
#781=PLANE('',#835);
#782=PLANE('',#836);
#783=PLANE('',#837);
#784=PLANE('',#838);
#785=PLANE('',#839);
#786=PLANE('',#840);
#787=PLANE('',#841);
#788=PLANE('',#842);
#789=PLANE('',#843);
#790=SHAPE_DEFINITION_REPRESENTATION(#791,#808);
#791=PRODUCT_DEFINITION_SHAPE('Document','',#793);
#792=PRODUCT_DEFINITION_CONTEXT('3D Mechanical Parts',#797,'design');
#793=PRODUCT_DEFINITION('A','First version',#794,#792);
#794=PRODUCT_DEFINITION_FORMATION_WITH_SPECIFIED_SOURCE('A',
'First version',#799,.MADE.);
#795=PRODUCT_RELATED_PRODUCT_CATEGORY('tool','tool',(#799));
#796=APPLICATION_PROTOCOL_DEFINITION('Draft International Standard',
'automotive_design',1999,#797);
#797=APPLICATION_CONTEXT(
'data for automotive mechanical design processes');
#798=PRODUCT_CONTEXT('3D Mechanical Parts',#797,'mechanical');
#799=PRODUCT('Document','Document','Rhino converted to STEP',(#798));
#800=(
LENGTH_UNIT()
NAMED_UNIT(*)
SI_UNIT(.MILLI.,.METRE.)
);
#801=(
NAMED_UNIT(*)
PLANE_ANGLE_UNIT()
SI_UNIT($,.RADIAN.)
);
#802=DIMENSIONAL_EXPONENTS(0.,0.,0.,0.,0.,0.,0.);
#803=PLANE_ANGLE_MEASURE_WITH_UNIT(PLANE_ANGLE_MEASURE(0.01745329252),#801);
#804=(
CONVERSION_BASED_UNIT('DEGREES',#803)
NAMED_UNIT(#802)
PLANE_ANGLE_UNIT()
);
#805=(
NAMED_UNIT(*)
SI_UNIT($,.STERADIAN.)
SOLID_ANGLE_UNIT()
);
#806=UNCERTAINTY_MEASURE_WITH_UNIT(LENGTH_MEASURE(0.001),#800,
'DISTANCE_ACCURACY_VALUE',
'Maximum model space distance between geometric entities at asserted c
onnectivities');
#807=(
GEOMETRIC_REPRESENTATION_CONTEXT(3)
GLOBAL_UNCERTAINTY_ASSIGNED_CONTEXT((#806))
GLOBAL_UNIT_ASSIGNED_CONTEXT((#805,#804,#800))
REPRESENTATION_CONTEXT('ID1','3D')
);
#808=SHAPE_REPRESENTATION('Document',(#809,#844),#807);
#809=AXIS2_PLACEMENT_3D('',#883,#845,#846);
#810=AXIS2_PLACEMENT_3D('',#884,#847,$);
#811=AXIS2_PLACEMENT_3D('',#885,#848,$);
#812=AXIS2_PLACEMENT_3D('',#886,#849,$);
#813=AXIS2_PLACEMENT_3D('',#887,#850,$);
#814=AXIS2_PLACEMENT_3D('',#888,#851,$);
#815=AXIS2_PLACEMENT_3D('',#889,#852,$);
#816=AXIS2_PLACEMENT_3D('',#890,#853,$);
#817=AXIS2_PLACEMENT_3D('',#891,#854,$);
#818=AXIS2_PLACEMENT_3D('',#892,#855,$);
#819=AXIS2_PLACEMENT_3D('',#893,#856,$);
#820=AXIS2_PLACEMENT_3D('',#894,#857,$);
#821=AXIS2_PLACEMENT_3D('',#895,#858,$);
#822=AXIS2_PLACEMENT_3D('',#896,#859,$);
#823=AXIS2_PLACEMENT_3D('',#897,#860,$);
#824=AXIS2_PLACEMENT_3D('',#898,#861,$);
#825=AXIS2_PLACEMENT_3D('',#899,#862,$);
#826=AXIS2_PLACEMENT_3D('',#1040,#863,$);
#827=AXIS2_PLACEMENT_3D('',#1059,#864,$);
#828=AXIS2_PLACEMENT_3D('',#1060,#865,$);
#829=AXIS2_PLACEMENT_3D('',#1061,#866,$);
#830=AXIS2_PLACEMENT_3D('',#1080,#867,$);
#831=AXIS2_PLACEMENT_3D('',#1117,#868,$);
#832=AXIS2_PLACEMENT_3D('',#1118,#869,$);
#833=AXIS2_PLACEMENT_3D('',#1119,#870,$);
#834=AXIS2_PLACEMENT_3D('',#1120,#871,$);
#835=AXIS2_PLACEMENT_3D('',#1249,#872,$);
#836=AXIS2_PLACEMENT_3D('',#1268,#873,$);
#837=AXIS2_PLACEMENT_3D('',#1269,#874,$);
#838=AXIS2_PLACEMENT_3D('',#1270,#875,$);
#839=AXIS2_PLACEMENT_3D('',#1289,#876,$);
#840=AXIS2_PLACEMENT_3D('',#1308,#877,$);
#841=AXIS2_PLACEMENT_3D('',#1309,#878,$);
#842=AXIS2_PLACEMENT_3D('',#1310,#879,$);
#843=AXIS2_PLACEMENT_3D('',#1311,#880,$);
#844=AXIS2_PLACEMENT_3D('',#1422,#881,#882);
#845=DIRECTION('',(0.,0.,1.));
#846=DIRECTION('',(1.,0.,0.));
#847=DIRECTION('',(0.866025403784442,0.,-0.499999999999995));
#848=DIRECTION('',(0.,0.,-1.));
#849=DIRECTION('',(-0.866025403784442,0.,-0.499999999999995));
#850=DIRECTION('',(0.,0.,-1.));
#851=DIRECTION('',(0.,0.,1.));
#852=DIRECTION('',(0.,1.,0.));
#853=DIRECTION('',(0.,0.,-1.));
#854=DIRECTION('',(0.,-1.,0.));
#855=DIRECTION('',(0.,0.,1.));
#856=DIRECTION('',(0.995728825636934,2.79573471635145E-17,-0.0923260840482953));
#857=DIRECTION('',(0.,0.,1.));
#858=DIRECTION('',(0.996194698091746,5.40903856374637E-17,0.0871557427476548));
#859=DIRECTION('',(-0.996194698091746,2.76499572707741E-17,0.0871557427476548));
#860=DIRECTION('',(0.,0.,1.));
#861=DIRECTION('',(-0.995728825636936,0.,-0.0923260840482751));
#862=DIRECTION('',(0.,0.,1.));
#863=DIRECTION('',(0.996194698091745,0.,0.0871557427476612));
#864=DIRECTION('',(0.,0.,1.));
#865=DIRECTION('',(0.999999999998148,1.1102230246231E-16,-1.92450514724385E-6));
#866=DIRECTION('',(0.,0.,-1.));
#867=DIRECTION('',(-0.996194698091745,0.,-0.0871557427476628));
#868=DIRECTION('',(0.,-1.,0.));
#869=DIRECTION('',(0.,1.,0.));
#870=DIRECTION('',(0.,0.,-1.));
#871=DIRECTION('',(0.,0.,1.));
#872=DIRECTION('',(-0.996194698091746,0.,0.0871557427476528));
#873=DIRECTION('',(0.,0.,1.));
#874=DIRECTION('',(-1.,0.,0.));
#875=DIRECTION('',(0.,0.,-1.));
#876=DIRECTION('',(0.996194698091746,0.,-0.0871557427476539));
#877=DIRECTION('',(0.,0.,1.));
#878=DIRECTION('',(0.,0.,-1.));
#879=DIRECTION('',(0.,-1.,0.));
#880=DIRECTION('',(0.,1.,0.));
#881=DIRECTION('',(0.,0.,1.));
#882=DIRECTION('',(1.,0.,0.));
#883=CARTESIAN_POINT('',(0.,0.,0.));
#884=CARTESIAN_POINT('',(1.31161492653273,2.13372,0.813686417352324));
#885=CARTESIAN_POINT('',(-1.09812,2.13372,0.126729213557432));
#886=CARTESIAN_POINT('',(-0.606142314384094,2.13372,-0.408227990237459));
#887=CARTESIAN_POINT('',(-2.22695724091682,2.13372,0.278729213557432));
#888=CARTESIAN_POINT('',(-2.52006713035774,-2.13372,2.26032921355743));
#889=CARTESIAN_POINT('',(-2.65187999999999,1.778,-0.086750786442568));
#890=CARTESIAN_POINT('',(0.891357240916822,2.13372,0.278729213557432));
#891=CARTESIAN_POINT('',(-2.65187999999999,-1.778,-0.086750786442568));
#892=CARTESIAN_POINT('',(1.58174,-0.33968,1.29512921355747));
#893=CARTESIAN_POINT('',(2.21923633061022,2.13372,1.39689922247393));
#894=CARTESIAN_POINT('',(1.58174,2.45432,1.29512921355747));
#895=CARTESIAN_POINT('',(2.03920676008719,2.13372,2.95469553976832));
#896=CARTESIAN_POINT('',(-2.24514918187759,2.13372,0.600762887346546));
#897=CARTESIAN_POINT('',(-2.81245999999999,-2.45432,1.29512921355743));
#898=CARTESIAN_POINT('',(-2.10612091030662,2.13372,0.176959204640938));
#899=CARTESIAN_POINT('',(-2.81245999999999,0.33968,1.29512921355743));
#900=CARTESIAN_POINT('',(1.00275724091682,1.778,0.278729213557432));
#901=CARTESIAN_POINT('',(0.915000000000001,1.778,0.126729213557432));
#902=CARTESIAN_POINT('',(1.00275724091682,-1.778,0.278729213557432));
#903=CARTESIAN_POINT('',(0.915000000000001,-1.778,0.126729213557432));
#904=CARTESIAN_POINT('',(-0.915000000000001,1.778,0.126729213557432));
#905=CARTESIAN_POINT('',(-0.915000000000001,-1.778,0.126729213557432));
#906=CARTESIAN_POINT('',(-1.00275724091682,1.778,0.278729213557432));
#907=CARTESIAN_POINT('',(-1.00275724091682,-1.778,0.278729213557432));
#908=CARTESIAN_POINT('',(-2.11555724091682,1.778,0.278729213557432));
#909=CARTESIAN_POINT('',(-2.11555724091682,-1.778,0.278729213557432));
#910=CARTESIAN_POINT('',(-2.09995594196478,1.778,2.26032921355743));
#911=CARTESIAN_POINT('',(-2.09995594196478,-1.778,2.26032921355743));
#912=CARTESIAN_POINT('',(2.09995594196478,1.778,2.26032921355743));
#913=CARTESIAN_POINT('',(2.09995594196478,-1.778,2.26032921355743));
#914=CARTESIAN_POINT('',(-2.1844,1.778,1.29512921355743));
#915=CARTESIAN_POINT('',(-2.20979999999999,1.778,1.29512921355743));
#916=CARTESIAN_POINT('',(2.1844,1.778,1.29512921355743));
#917=CARTESIAN_POINT('',(2.20980000000001,1.778,1.29512921355743));
#918=CARTESIAN_POINT('',(2.11555724091682,1.778,0.278729213557432));
#919=CARTESIAN_POINT('',(2.11555724091682,-1.778,0.278729213557432));
#920=CARTESIAN_POINT('',(-2.20979999999999,-1.778,1.29512921355743));
#921=CARTESIAN_POINT('',(-2.1844,-1.778,1.29512921355743));
#922=CARTESIAN_POINT('',(2.20980000000001,-1.778,1.29512921355743));
#923=CARTESIAN_POINT('',(2.1844,-1.778,1.29512921355743));
#924=CARTESIAN_POINT('',(2.1844,-1.016,1.29512921355743));
#925=CARTESIAN_POINT('',(2.20980000000001,-1.016,1.29512921355743));
#926=CARTESIAN_POINT('',(2.19125557672508,1.016,1.09512921355743));
#927=CARTESIAN_POINT('',(2.20980000000001,1.016,1.29512921355743));
#928=CARTESIAN_POINT('',(2.19125557672508,-1.016,1.09512921355743));
#929=CARTESIAN_POINT('',(2.1844,1.016,1.29512921355743));
#930=CARTESIAN_POINT('',(-2.1844,-1.016,1.29512921355743));
#931=CARTESIAN_POINT('',(-2.20979999999999,-1.016,1.29512921355743));
#932=CARTESIAN_POINT('',(-2.20979999999999,1.016,1.29512921355743));
#933=CARTESIAN_POINT('',(-2.19125557672506,1.016,1.09512921355739));
#934=CARTESIAN_POINT('',(-2.19125557672506,-1.016,1.09512921355739));
#935=CARTESIAN_POINT('',(-2.1844,1.016,1.29512921355743));
#936=CARTESIAN_POINT('',(1.00275724091682,1.778,0.278729213557432));
#937=CARTESIAN_POINT('',(0.915000000000001,1.778,0.126729213557432));
#938=CARTESIAN_POINT('',(1.00275724091682,-1.778,0.278729213557432));
#939=CARTESIAN_POINT('',(1.00275724091682,1.778,0.278729213557432));
#940=CARTESIAN_POINT('',(0.915000000000001,-1.778,0.126729213557432));
#941=CARTESIAN_POINT('',(1.00275724091682,-1.778,0.278729213557432));
#942=CARTESIAN_POINT('',(0.915000000000001,1.778,0.126729213557432));
#943=CARTESIAN_POINT('',(0.915000000000001,-1.778,0.126729213557432));
#944=CARTESIAN_POINT('',(0.915000000000001,1.778,0.126729213557432));
#945=CARTESIAN_POINT('',(-0.915000000000001,1.778,0.126729213557432));
#946=CARTESIAN_POINT('',(-0.915000000000001,-1.778,0.126729213557432));
#947=CARTESIAN_POINT('',(0.915000000000001,-1.778,0.126729213557432));
#948=CARTESIAN_POINT('',(-0.915000000000001,1.778,0.126729213557432));
#949=CARTESIAN_POINT('',(-0.915000000000001,-1.778,0.126729213557432));
#950=CARTESIAN_POINT('',(-0.915000000000001,1.778,0.126729213557432));
#951=CARTESIAN_POINT('',(-1.00275724091682,1.778,0.278729213557432));
#952=CARTESIAN_POINT('',(-1.00275724091682,-1.778,0.278729213557432));
#953=CARTESIAN_POINT('',(-0.915000000000001,-1.778,0.126729213557432));
#954=CARTESIAN_POINT('',(-1.00275724091682,1.778,0.278729213557432));
#955=CARTESIAN_POINT('',(-1.00275724091682,-1.778,0.278729213557432));
#956=CARTESIAN_POINT('',(-1.00275724091682,1.778,0.278729213557432));
#957=CARTESIAN_POINT('',(-2.11555724091682,1.778,0.278729213557432));
#958=CARTESIAN_POINT('',(-2.11555724091682,-1.778,0.278729213557432));
#959=CARTESIAN_POINT('',(-1.00275724091682,-1.778,0.278729213557432));
#960=CARTESIAN_POINT('',(-2.11555724091682,1.778,0.278729213557432));
#961=CARTESIAN_POINT('',(-2.11555724091682,-1.778,0.278729213557432));
#962=CARTESIAN_POINT('',(-2.09995594196478,1.778,2.26032921355743));
#963=CARTESIAN_POINT('',(-2.09995594196478,-1.778,2.26032921355743));
#964=CARTESIAN_POINT('',(-2.09995594196478,1.778,2.26032921355743));
#965=CARTESIAN_POINT('',(2.09995594196478,1.778,2.26032921355743));
#966=CARTESIAN_POINT('',(2.09995594196478,-1.778,2.26032921355743));
#967=CARTESIAN_POINT('',(-2.09995594196478,-1.778,2.26032921355743));
#968=CARTESIAN_POINT('',(2.09995594196478,1.778,2.26032921355743));
#969=CARTESIAN_POINT('',(2.09995594196478,-1.778,2.26032921355743));
#970=CARTESIAN_POINT('',(-2.20979999999999,1.778,1.29512921355743));
#971=CARTESIAN_POINT('',(-2.1844,1.778,1.29512921355743));
#972=CARTESIAN_POINT('',(2.20980000000001,1.778,1.29512921355743));
#973=CARTESIAN_POINT('',(2.1844,1.778,1.29512921355743));
#974=CARTESIAN_POINT('',(1.00275724091682,1.778,0.278729213557432));
#975=CARTESIAN_POINT('',(2.11555724091682,1.778,0.278729213557432));
#976=CARTESIAN_POINT('',(2.11555724091682,-1.778,0.278729213557432));
#977=CARTESIAN_POINT('',(2.11555724091682,1.778,0.278729213557432));
#978=CARTESIAN_POINT('',(1.00275724091682,-1.778,0.278729213557432));
#979=CARTESIAN_POINT('',(2.11555724091682,-1.778,0.278729213557432));
#980=CARTESIAN_POINT('',(-2.1844,-1.778,1.29512921355743));
#981=CARTESIAN_POINT('',(-2.20979999999999,-1.778,1.29512921355743));
#982=CARTESIAN_POINT('',(2.20980000000001,-1.778,1.29512921355743));
#983=CARTESIAN_POINT('',(2.1844,-1.778,1.29512921355743));
#984=CARTESIAN_POINT('',(2.1844,-1.016,1.29512921355743));
#985=CARTESIAN_POINT('',(2.20980000000001,-1.016,1.29512921355743));
#986=CARTESIAN_POINT('',(2.1844,-1.778,1.29512921355743));
#987=CARTESIAN_POINT('',(2.1844,-1.016,1.29512921355743));
#988=CARTESIAN_POINT('',(2.20980000000001,-1.016,1.29512921355743));
#989=CARTESIAN_POINT('',(2.20980000000001,-1.778,1.29512921355743));
#990=CARTESIAN_POINT('',(2.19125557672508,1.016,1.09512921355743));
#991=CARTESIAN_POINT('',(2.20980000000001,1.016,1.29512921355743));
#992=CARTESIAN_POINT('',(2.19125557672508,-1.016,1.09512921355743));
#993=CARTESIAN_POINT('',(2.19125557672508,1.016,1.09512921355743));
#994=CARTESIAN_POINT('',(2.20980000000001,-1.016,1.29512921355743));
#995=CARTESIAN_POINT('',(2.19125557672508,-1.016,1.09512921355743));
#996=CARTESIAN_POINT('',(2.11555724091682,-1.778,0.278729213557432));
#997=CARTESIAN_POINT('',(2.20980000000001,-1.778,1.29512921355743));
#998=CARTESIAN_POINT('',(2.11555724091682,1.778,0.278729213557432));
#999=CARTESIAN_POINT('',(2.20980000000001,1.778,1.29512921355743));
#1000=CARTESIAN_POINT('',(2.20980000000001,1.016,1.29512921355743));
#1001=CARTESIAN_POINT('',(2.20980000000001,1.778,1.29512921355743));
#1002=CARTESIAN_POINT('',(2.20980000000001,1.016,1.29512921355743));
#1003=CARTESIAN_POINT('',(2.1844,1.016,1.29512921355743));
#1004=CARTESIAN_POINT('',(2.1844,1.016,1.29512921355743));
#1005=CARTESIAN_POINT('',(2.1844,1.778,1.29512921355743));
#1006=CARTESIAN_POINT('',(2.1844,1.778,1.29512921355743));
#1007=CARTESIAN_POINT('',(2.09995594196478,1.778,2.26032921355743));
#1008=CARTESIAN_POINT('',(2.1844,-1.778,1.29512921355743));
#1009=CARTESIAN_POINT('',(2.09995594196478,-1.778,2.26032921355743));
#1010=CARTESIAN_POINT('',(2.1844,1.016,1.29512921355743));
#1011=CARTESIAN_POINT('',(2.1844,-1.016,1.29512921355743));
#1012=CARTESIAN_POINT('',(-2.1844,-1.016,1.29512921355743));
#1013=CARTESIAN_POINT('',(-2.1844,-1.778,1.29512921355743));
#1014=CARTESIAN_POINT('',(-2.1844,1.778,1.29512921355743));
#1015=CARTESIAN_POINT('',(-2.09995594196478,1.778,2.26032921355743));
#1016=CARTESIAN_POINT('',(-2.09995594196478,-1.778,2.26032921355743));
#1017=CARTESIAN_POINT('',(-2.1844,-1.778,1.29512921355743));
#1018=CARTESIAN_POINT('',(-2.1844,-1.016,1.29512921355743));
#1019=CARTESIAN_POINT('',(-2.20979999999999,-1.016,1.29512921355743));
#1020=CARTESIAN_POINT('',(-2.20979999999999,-1.778,1.29512921355743));
#1021=CARTESIAN_POINT('',(-2.20979999999999,-1.016,1.29512921355743));
#1022=CARTESIAN_POINT('',(-2.19125557672506,-1.016,1.09512921355739));
#1023=CARTESIAN_POINT('',(-2.19125557672506,1.016,1.09512921355739));
#1024=CARTESIAN_POINT('',(-2.20979999999999,1.016,1.29512921355743));
#1025=CARTESIAN_POINT('',(-2.20979999999999,1.778,1.29512921355743));
#1026=CARTESIAN_POINT('',(-2.19125557672506,1.016,1.09512921355739));
#1027=CARTESIAN_POINT('',(-2.20979999999999,1.016,1.29512921355743));
#1028=CARTESIAN_POINT('',(-2.11555724091682,1.778,0.278729213557432));
#1029=CARTESIAN_POINT('',(-2.20979999999999,1.778,1.29512921355743));
#1030=CARTESIAN_POINT('',(-2.20979999999999,-1.778,1.29512921355743));
#1031=CARTESIAN_POINT('',(-2.11555724091682,-1.778,0.278729213557432));
#1032=CARTESIAN_POINT('',(-2.20979999999999,-1.016,1.29512921355743));
#1033=CARTESIAN_POINT('',(-2.19125557672506,-1.016,1.09512921355739));
#1034=CARTESIAN_POINT('',(-2.1844,1.016,1.29512921355743));
#1035=CARTESIAN_POINT('',(-2.1844,-1.016,1.29512921355743));
#1036=CARTESIAN_POINT('',(-2.20979999999999,1.016,1.29512921355743));
#1037=CARTESIAN_POINT('',(-2.1844,1.016,1.29512921355743));
#1038=CARTESIAN_POINT('',(-2.1844,1.778,1.29512921355743));
#1039=CARTESIAN_POINT('',(-2.1844,1.016,1.29512921355743));
#1040=CARTESIAN_POINT('',(2.72951348555496,1.21932,-0.366689494124235));
#1041=CARTESIAN_POINT('',(2.6698179232111,-1.21932,0.319999999999632));
#1042=CARTESIAN_POINT('',(2.6698179232111,-1.21932,0.419999999999635));
#1043=CARTESIAN_POINT('',(2.76981792321111,-1.21932,0.419999999999635));
#1044=CARTESIAN_POINT('',(2.86981792321111,-1.21932,0.419999999999635));
#1045=CARTESIAN_POINT('',(2.86981792321111,-1.21932,0.319999999999632));
#1046=CARTESIAN_POINT('',(2.86981792321111,-1.21932,0.219999999999629));
#1047=CARTESIAN_POINT('',(2.76981792321111,-1.21932,0.219999999999629));
#1048=CARTESIAN_POINT('',(2.6698179232111,-1.21932,0.219999999999629));
#1049=CARTESIAN_POINT('',(2.6698179232111,-1.21932,0.319999999999632));
#1050=CARTESIAN_POINT('',(2.6698179232111,1.21932,0.319999999999632));
#1051=CARTESIAN_POINT('',(2.6698179232111,1.21932,0.419999999999635));
#1052=CARTESIAN_POINT('',(2.76981792321111,1.21932,0.419999999999635));
#1053=CARTESIAN_POINT('',(2.86981792321111,1.21932,0.419999999999635));
#1054=CARTESIAN_POINT('',(2.86981792321111,1.21932,0.319999999999632));
#1055=CARTESIAN_POINT('',(2.86981792321111,1.21932,0.219999999999629));
#1056=CARTESIAN_POINT('',(2.76981792321111,1.21932,0.219999999999629));
#1057=CARTESIAN_POINT('',(2.6698179232111,1.21932,0.219999999999629));
#1058=CARTESIAN_POINT('',(2.6698179232111,1.21932,0.319999999999632));
#1059=CARTESIAN_POINT('',(2.13430546309593,1.21932,0.219999999999626));
#1060=CARTESIAN_POINT('',(3.12374371778704,1.21932,0.84012000022942));
#1061=CARTESIAN_POINT('',(3.76886213946188,1.21932,0.0200000000000012));
#1062=CARTESIAN_POINT('',(2.47374213946188,-1.21932,0.22));
#1063=CARTESIAN_POINT('',(2.47374213946188,1.21932,0.22));
#1064=CARTESIAN_POINT('',(2.47374213946188,-1.21932,0.420000000000001));
#1065=CARTESIAN_POINT('',(2.47374213946188,1.21932,0.420000000000001));
#1066=CARTESIAN_POINT('',(2.67374213946188,-1.21932,0.420000000000001));
#1067=CARTESIAN_POINT('',(2.67374213946188,1.21932,0.420000000000001));
#1068=CARTESIAN_POINT('',(2.87374213946188,-1.21932,0.420000000000001));
#1069=CARTESIAN_POINT('',(2.87374213946188,1.21932,0.420000000000001));
#1070=CARTESIAN_POINT('',(2.87374213946188,-1.21932,0.22));
#1071=CARTESIAN_POINT('',(2.87374213946188,1.21932,0.22));
#1072=CARTESIAN_POINT('',(2.87374213946188,-1.21932,0.0199999999999992));
#1073=CARTESIAN_POINT('',(2.87374213946188,1.21932,0.0199999999999992));
#1074=CARTESIAN_POINT('',(2.67374213946188,-1.21932,0.0199999999999991));
#1075=CARTESIAN_POINT('',(2.67374213946188,1.21932,0.0199999999999991));
#1076=CARTESIAN_POINT('',(2.47374213946188,-1.21932,0.0199999999999991));
#1077=CARTESIAN_POINT('',(2.47374213946188,1.21932,0.0199999999999991));
#1078=CARTESIAN_POINT('',(2.47374213946188,-1.21932,0.22));
#1079=CARTESIAN_POINT('',(2.47374213946188,1.21932,0.22));
#1080=CARTESIAN_POINT('',(2.34508560690098,1.21932,1.68181870768126));
#1081=CARTESIAN_POINT('',(2.20478116924483,-1.21932,0.995129213557433));
#1082=CARTESIAN_POINT('',(2.20478116924483,-1.21932,1.09512921355743));
#1083=CARTESIAN_POINT('',(2.30478116924483,-1.21932,1.09512921355743));
#1084=CARTESIAN_POINT('',(2.40478116924483,-1.21932,1.09512921355743));
#1085=CARTESIAN_POINT('',(2.40478116924483,-1.21932,0.995129213557433));
#1086=CARTESIAN_POINT('',(2.40478116924483,-1.21932,0.895129213557431));
#1087=CARTESIAN_POINT('',(2.30478116924483,-1.21932,0.895129213557432));
#1088=CARTESIAN_POINT('',(2.20478116924483,-1.21932,0.895129213557431));
#1089=CARTESIAN_POINT('',(2.20478116924483,-1.21932,0.995129213557433));
#1090=CARTESIAN_POINT('',(2.20478116924483,1.21932,0.995129213557433));
#1091=CARTESIAN_POINT('',(2.20478116924483,1.21932,1.09512921355743));
#1092=CARTESIAN_POINT('',(2.30478116924483,1.21932,1.09512921355743));
#1093=CARTESIAN_POINT('',(2.40478116924483,1.21932,1.09512921355743));
#1094=CARTESIAN_POINT('',(2.40478116924483,1.21932,0.995129213557433));
#1095=CARTESIAN_POINT('',(2.40478116924483,1.21932,0.895129213557431));
#1096=CARTESIAN_POINT('',(2.30478116924483,1.21932,0.895129213557432));
#1097=CARTESIAN_POINT('',(2.20478116924483,1.21932,0.895129213557431));
#1098=CARTESIAN_POINT('',(2.20478116924483,1.21932,0.995129213557433));
#1099=CARTESIAN_POINT('',(2.20085695299403,-1.21932,1.09512921355743));
#1100=CARTESIAN_POINT('',(2.20085695299403,1.21932,1.09512921355743));
#1101=CARTESIAN_POINT('',(2.20085695299403,-1.21932,1.29512921355743));
#1102=CARTESIAN_POINT('',(2.20085695299403,1.21932,1.29512921355743));
#1103=CARTESIAN_POINT('',(2.40085695299403,-1.21932,1.29512921355743));
#1104=CARTESIAN_POINT('',(2.40085695299403,1.21932,1.29512921355743));
#1105=CARTESIAN_POINT('',(2.60085695299403,-1.21932,1.29512921355743));
#1106=CARTESIAN_POINT('',(2.60085695299403,1.21932,1.29512921355743));
#1107=CARTESIAN_POINT('',(2.60085695299403,-1.21932,1.09512921355743));
#1108=CARTESIAN_POINT('',(2.60085695299403,1.21932,1.09512921355743));
#1109=CARTESIAN_POINT('',(2.60085695299403,-1.21932,0.895129213557434));
#1110=CARTESIAN_POINT('',(2.60085695299403,1.21932,0.895129213557434));
#1111=CARTESIAN_POINT('',(2.40085695299403,-1.21932,0.895129213557434));
#1112=CARTESIAN_POINT('',(2.40085695299403,1.21932,0.895129213557434));
#1113=CARTESIAN_POINT('',(2.20085695299403,-1.21932,0.895129213557434));
#1114=CARTESIAN_POINT('',(2.20085695299403,1.21932,0.895129213557434));
#1115=CARTESIAN_POINT('',(2.20085695299403,-1.21932,1.09512921355743));
#1116=CARTESIAN_POINT('',(2.20085695299403,1.21932,1.09512921355743));
#1117=CARTESIAN_POINT('',(3.81711121912669,-1.016,-0.107632921355744));
#1118=CARTESIAN_POINT('',(1.4978868819613,1.016,-0.107632921355744));
#1119=CARTESIAN_POINT('',(2.91625372849681,1.21932,1.09512921355743));
#1120=CARTESIAN_POINT('',(1.5626343047006,1.21932,1.29512921355743));
#1121=CARTESIAN_POINT('',(2.67019845340193,1.016,0.311284425724863));
#1122=CARTESIAN_POINT('',(2.60009589261238,1.016,1.11256036210696));
#1123=CARTESIAN_POINT('',(2.60009589261238,-1.016,1.11256036210696));
#1124=CARTESIAN_POINT('',(2.67019845340194,-1.016,0.311284425724863));
#1125=CARTESIAN_POINT('',(2.76981792321111,1.016,0.21999999999963));
#1126=CARTESIAN_POINT('',(2.76981792321111,-1.016,0.21999999999963));
#1127=CARTESIAN_POINT('',(3.12374252436291,1.016,0.219999999999629));
#1128=CARTESIAN_POINT('',(3.12374252436291,-1.016,0.219999999999629));
#1129=CARTESIAN_POINT('',(3.12374213946188,1.016,0.02));
#1130=CARTESIAN_POINT('',(3.12374213946188,-1.016,0.02));
#1131=CARTESIAN_POINT('',(2.67374213946188,1.016,0.0199999999999991));
#1132=CARTESIAN_POINT('',(2.67374213946188,-1.016,0.02));
#1133=CARTESIAN_POINT('',(2.47450319984353,1.016,0.202568851450465));
#1134=CARTESIAN_POINT('',(2.47450319984353,-1.016,0.202568851450465));
#1135=CARTESIAN_POINT('',(2.40440063905401,1.016,1.0038447878322));
#1136=CARTESIAN_POINT('',(2.40440063905401,-1.016,1.0038447878322));
#1137=CARTESIAN_POINT('',(2.30478116924483,1.016,1.09512921355743));
#1138=CARTESIAN_POINT('',(2.30478116924483,-1.016,1.09512921355743));
#1139=CARTESIAN_POINT('',(2.40085695299403,1.016,1.29512921355743));
#1140=CARTESIAN_POINT('',(2.40085695299403,-1.016,1.29512921355743));
#1141=CARTESIAN_POINT('',(2.20980000000001,-1.016,1.29512921355743));
#1142=CARTESIAN_POINT('',(2.19125557672508,-1.016,1.09512921355743));
#1143=CARTESIAN_POINT('',(2.19125557672508,1.016,1.09512921355743));
#1144=CARTESIAN_POINT('',(2.20980000000001,1.016,1.29512921355743));
#1145=CARTESIAN_POINT('',(2.1844,-1.016,1.29512921355743));
#1146=CARTESIAN_POINT('',(2.1844,1.016,1.29512921355743));
#1147=CARTESIAN_POINT('',(2.67019845340193,1.016,0.311284425724863));
#1148=CARTESIAN_POINT('',(2.60009589261238,1.016,1.11256036210696));
#1149=CARTESIAN_POINT('',(2.60009589261238,1.016,1.11256036210696));
#1150=CARTESIAN_POINT('',(2.60009589261238,-1.016,1.11256036210696));
#1151=CARTESIAN_POINT('',(2.60009589261238,-1.016,1.11256036210696));
#1152=CARTESIAN_POINT('',(2.67019845340194,-1.016,0.311284425724863));
#1153=CARTESIAN_POINT('',(2.67019845340194,-1.016,0.311284425724863));
#1154=CARTESIAN_POINT('',(2.67019845340193,1.016,0.311284425724863));
#1155=CARTESIAN_POINT('',(2.76981792321111,1.016,0.21999999999963));
#1156=CARTESIAN_POINT('',(2.76981792321111,-1.016,0.21999999999963));
#1157=CARTESIAN_POINT('',(2.67019845340193,1.016,0.311284425724863));
#1158=CARTESIAN_POINT('',(2.67818480580937,1.016,0.219999999999629));
#1159=CARTESIAN_POINT('',(2.76981792321111,1.016,0.219999999999629));
#1160=CARTESIAN_POINT('',(2.76981792321111,-1.016,0.21999999999963));
#1161=CARTESIAN_POINT('',(2.67818480580937,-1.016,0.219999999999628));
#1162=CARTESIAN_POINT('',(2.67019845340194,-1.016,0.311284425724863));
#1163=CARTESIAN_POINT('',(3.12374252436291,1.016,0.219999999999629));
#1164=CARTESIAN_POINT('',(3.12374252436291,-1.016,0.219999999999629));
#1165=CARTESIAN_POINT('',(2.76981792321111,1.016,0.21999999999963));
#1166=CARTESIAN_POINT('',(3.12374252436291,1.016,0.219999999999629));
#1167=CARTESIAN_POINT('',(3.12374252436291,-1.016,0.219999999999629));
#1168=CARTESIAN_POINT('',(2.76981792321111,-1.016,0.21999999999963));
#1169=CARTESIAN_POINT('',(3.12374213946188,1.016,0.02));
#1170=CARTESIAN_POINT('',(3.12374213946188,-1.016,0.02));
#1171=CARTESIAN_POINT('',(3.12374252436291,1.016,0.219999999999629));
#1172=CARTESIAN_POINT('',(3.12374213946188,1.016,0.02));
#1173=CARTESIAN_POINT('',(3.12374213946188,-1.016,0.02));
#1174=CARTESIAN_POINT('',(3.12374252436291,-1.016,0.219999999999629));
#1175=CARTESIAN_POINT('',(2.67374213946188,1.016,0.0199999999999991));
#1176=CARTESIAN_POINT('',(2.67374213946188,-1.016,0.02));
#1177=CARTESIAN_POINT('',(3.12374213946188,1.016,0.02));
#1178=CARTESIAN_POINT('',(2.67374213946188,1.016,0.0199999999999991));
#1179=CARTESIAN_POINT('',(2.67374213946188,-1.016,0.02));
#1180=CARTESIAN_POINT('',(3.12374213946188,-1.016,0.02));
#1181=CARTESIAN_POINT('',(2.47450319984353,1.016,0.202568851450465));
#1182=CARTESIAN_POINT('',(2.4904759046584,1.016,0.0199999999999991));
#1183=CARTESIAN_POINT('',(2.67374213946188,1.016,0.0199999999999991));
#1184=CARTESIAN_POINT('',(2.67374213946188,-1.016,0.02));
#1185=CARTESIAN_POINT('',(2.4904759046584,-1.016,0.0199999999999979));
#1186=CARTESIAN_POINT('',(2.47450319984353,-1.016,0.202568851450466));
#1187=CARTESIAN_POINT('',(2.47450319984353,-1.016,0.202568851450465));
#1188=CARTESIAN_POINT('',(2.47450319984353,1.016,0.202568851450465));
#1189=CARTESIAN_POINT('',(2.40440063905401,1.016,1.0038447878322));
#1190=CARTESIAN_POINT('',(2.47450319984353,1.016,0.202568851450465));
#1191=CARTESIAN_POINT('',(2.47450319984353,-1.016,0.202568851450465));
#1192=CARTESIAN_POINT('',(2.40440063905401,-1.016,1.0038447878322));
#1193=CARTESIAN_POINT('',(2.40440063905401,-1.016,1.0038447878322));
#1194=CARTESIAN_POINT('',(2.40440063905401,1.016,1.0038447878322));
#1195=CARTESIAN_POINT('',(2.40440063905401,1.016,1.0038447878322));
#1196=CARTESIAN_POINT('',(2.39641428664657,1.016,1.09512921355743));
#1197=CARTESIAN_POINT('',(2.30478116924483,1.016,1.09512921355743));
#1198=CARTESIAN_POINT('',(2.30478116924483,-1.016,1.09512921355743));
#1199=CARTESIAN_POINT('',(2.39641428664657,-1.016,1.09512921355743));
#1200=CARTESIAN_POINT('',(2.40440063905401,-1.016,1.0038447878322));
#1201=CARTESIAN_POINT('',(2.30478116924483,1.016,1.09512921355743));
#1202=CARTESIAN_POINT('',(2.30478116924483,-1.016,1.09512921355743));
#1203=CARTESIAN_POINT('',(2.60009589261238,1.016,1.11256036210696));
#1204=CARTESIAN_POINT('',(2.58412318779751,1.016,1.29512921355743));
#1205=CARTESIAN_POINT('',(2.40085695299403,1.016,1.29512921355743));
#1206=CARTESIAN_POINT('',(2.40085695299403,1.016,1.29512921355743));
#1207=CARTESIAN_POINT('',(2.40085695299403,-1.016,1.29512921355743));
#1208=CARTESIAN_POINT('',(2.40085695299403,-1.016,1.29512921355743));
#1209=CARTESIAN_POINT('',(2.58412318779751,-1.016,1.29512921355743));
#1210=CARTESIAN_POINT('',(2.60009589261238,-1.016,1.11256036210696));
#1211=CARTESIAN_POINT('',(2.20980000000001,-1.016,1.29512921355743));
#1212=CARTESIAN_POINT('',(2.19125557672508,-1.016,1.09512921355743));
#1213=CARTESIAN_POINT('',(2.20980000000001,-1.016,1.29512921355743));
#1214=CARTESIAN_POINT('',(2.40085695299403,-1.016,1.29512921355743));
#1215=CARTESIAN_POINT('',(2.30478116924483,-1.016,1.09512921355743));
#1216=CARTESIAN_POINT('',(2.19125557672508,-1.016,1.09512921355743));
#1217=CARTESIAN_POINT('',(2.19125557672508,1.016,1.09512921355743));
#1218=CARTESIAN_POINT('',(2.20980000000001,1.016,1.29512921355743));
#1219=CARTESIAN_POINT('',(2.40085695299403,1.016,1.29512921355743));
#1220=CARTESIAN_POINT('',(2.20980000000001,1.016,1.29512921355743));
#1221=CARTESIAN_POINT('',(2.19125557672508,1.016,1.09512921355743));
#1222=CARTESIAN_POINT('',(2.30478116924483,1.016,1.09512921355743));
#1223=CARTESIAN_POINT('',(2.19125557672508,-1.016,1.09512921355743));
#1224=CARTESIAN_POINT('',(2.19125557672508,1.016,1.09512921355743));
#1225=CARTESIAN_POINT('',(2.1844,-1.016,1.29512921355743));
#1226=CARTESIAN_POINT('',(2.20980000000001,-1.016,1.29512921355743));
#1227=CARTESIAN_POINT('',(2.20980000000001,1.016,1.29512921355743));
#1228=CARTESIAN_POINT('',(2.1844,1.016,1.29512921355743));
#1229=CARTESIAN_POINT('',(2.1844,1.016,1.29512921355743));
#1230=CARTESIAN_POINT('',(2.1844,-1.016,1.29512921355743));
#1231=CARTESIAN_POINT('',(-2.59314304700597,-1.21932,1.09512921355743));
#1232=CARTESIAN_POINT('',(-2.59314304700597,1.21932,1.09512921355743));
#1233=CARTESIAN_POINT('',(-2.59314304700597,-1.21932,1.29512921355743));
#1234=CARTESIAN_POINT('',(-2.59314304700597,1.21932,1.29512921355743));
#1235=CARTESIAN_POINT('',(-2.39314304700597,-1.21932,1.29512921355743));
#1236=CARTESIAN_POINT('',(-2.39314304700597,1.21932,1.29512921355743));
#1237=CARTESIAN_POINT('',(-2.19314304700597,-1.21932,1.29512921355743));
#1238=CARTESIAN_POINT('',(-2.19314304700597,1.21932,1.29512921355743));
#1239=CARTESIAN_POINT('',(-2.19314304700597,-1.21932,1.09512921355743));
#1240=CARTESIAN_POINT('',(-2.19314304700597,1.21932,1.09512921355743));
#1241=CARTESIAN_POINT('',(-2.19314304700597,-1.21932,0.895129213557432));
#1242=CARTESIAN_POINT('',(-2.19314304700597,1.21932,0.895129213557432));
#1243=CARTESIAN_POINT('',(-2.39314304700597,-1.21932,0.895129213557432));
#1244=CARTESIAN_POINT('',(-2.39314304700597,1.21932,0.895129213557432));
#1245=CARTESIAN_POINT('',(-2.59314304700597,-1.21932,0.895129213557432));
#1246=CARTESIAN_POINT('',(-2.59314304700597,1.21932,0.895129213557432));
#1247=CARTESIAN_POINT('',(-2.59314304700597,-1.21932,1.09512921355743));
#1248=CARTESIAN_POINT('',(-2.59314304700597,1.21932,1.09512921355743));
#1249=CARTESIAN_POINT('',(-2.7217995795669,1.21932,-0.366689494124236));
#1250=CARTESIAN_POINT('',(-2.86210401722305,-1.21932,0.319999999999628));
#1251=CARTESIAN_POINT('',(-2.86210401722305,-1.21932,0.419999999999627));
#1252=CARTESIAN_POINT('',(-2.76210401722305,-1.21932,0.419999999999627));
#1253=CARTESIAN_POINT('',(-2.66210401722305,-1.21932,0.419999999999627));
#1254=CARTESIAN_POINT('',(-2.66210401722305,-1.21932,0.319999999999628));
#1255=CARTESIAN_POINT('',(-2.66210401722305,-1.21932,0.219999999999628));
#1256=CARTESIAN_POINT('',(-2.76210401722305,-1.21932,0.219999999999628));
#1257=CARTESIAN_POINT('',(-2.86210401722305,-1.21932,0.219999999999628));
#1258=CARTESIAN_POINT('',(-2.86210401722305,-1.21932,0.319999999999628));
#1259=CARTESIAN_POINT('',(-2.86210401722305,1.21932,0.319999999999628));
#1260=CARTESIAN_POINT('',(-2.86210401722305,1.21932,0.419999999999627));
#1261=CARTESIAN_POINT('',(-2.76210401722305,1.21932,0.419999999999627));
#1262=CARTESIAN_POINT('',(-2.66210401722305,1.21932,0.419999999999627));
#1263=CARTESIAN_POINT('',(-2.66210401722305,1.21932,0.319999999999628));
#1264=CARTESIAN_POINT('',(-2.66210401722305,1.21932,0.219999999999628));
#1265=CARTESIAN_POINT('',(-2.76210401722305,1.21932,0.219999999999628));
#1266=CARTESIAN_POINT('',(-2.86210401722305,1.21932,0.219999999999628));
#1267=CARTESIAN_POINT('',(-2.86210401722305,1.21932,0.319999999999628));
#1268=CARTESIAN_POINT('',(-3.7580132319459,1.21932,0.219999999999632));
#1269=CARTESIAN_POINT('',(-3.12191239424383,-1.21932,-0.601247063181581));
#1270=CARTESIAN_POINT('',(-2.02679239424383,1.21932,0.0189753971076151));
#1271=CARTESIAN_POINT('',(-2.87191239424383,-1.21932,0.218975397107617));
#1272=CARTESIAN_POINT('',(-2.87191239424383,1.21932,0.218975397107617));
#1273=CARTESIAN_POINT('',(-2.87191239424383,-1.21932,0.41897539710762));
#1274=CARTESIAN_POINT('',(-2.87191239424383,1.21932,0.41897539710762));
#1275=CARTESIAN_POINT('',(-2.67191239424383,-1.21932,0.41897539710762));
#1276=CARTESIAN_POINT('',(-2.67191239424383,1.21932,0.41897539710762));
#1277=CARTESIAN_POINT('',(-2.47191239424382,-1.21932,0.41897539710762));
#1278=CARTESIAN_POINT('',(-2.47191239424382,1.21932,0.41897539710762));
#1279=CARTESIAN_POINT('',(-2.47191239424382,-1.21932,0.218975397107617));
#1280=CARTESIAN_POINT('',(-2.47191239424382,1.21932,0.218975397107617));
#1281=CARTESIAN_POINT('',(-2.47191239424382,-1.21932,0.0189753971076141));
#1282=CARTESIAN_POINT('',(-2.47191239424382,1.21932,0.0189753971076141));
#1283=CARTESIAN_POINT('',(-2.67191239424383,-1.21932,0.0189753971076141));
#1284=CARTESIAN_POINT('',(-2.67191239424383,1.21932,0.0189753971076141));
#1285=CARTESIAN_POINT('',(-2.87191239424383,-1.21932,0.0189753971076141));
#1286=CARTESIAN_POINT('',(-2.87191239424383,1.21932,0.0189753971076141));
#1287=CARTESIAN_POINT('',(-2.87191239424383,-1.21932,0.218975397107617));
#1288=CARTESIAN_POINT('',(-2.87191239424383,1.21932,0.218975397107617));
#1289=CARTESIAN_POINT('',(-2.34315725643147,1.21932,1.6819211679705));
#1290=CARTESIAN_POINT('',(-2.40286178288909,-1.21932,0.995129213557432));
#1291=CARTESIAN_POINT('',(-2.40286178288909,-1.21932,1.09512921355743));
#1292=CARTESIAN_POINT('',(-2.30286178288909,-1.21932,1.09512921355743));
#1293=CARTESIAN_POINT('',(-2.20286178288908,-1.21932,1.09512921355743));
#1294=CARTESIAN_POINT('',(-2.20286178288908,-1.21932,0.995129213557432));
#1295=CARTESIAN_POINT('',(-2.20286178288908,-1.21932,0.895129213557431));
#1296=CARTESIAN_POINT('',(-2.30286178288909,-1.21932,0.895129213557431));
#1297=CARTESIAN_POINT('',(-2.40286178288909,-1.21932,0.895129213557431));
#1298=CARTESIAN_POINT('',(-2.40286178288909,-1.21932,0.995129213557432));
#1299=CARTESIAN_POINT('',(-2.40286178288909,1.21932,0.995129213557432));
#1300=CARTESIAN_POINT('',(-2.40286178288909,1.21932,1.09512921355743));
#1301=CARTESIAN_POINT('',(-2.30286178288909,1.21932,1.09512921355743));
#1302=CARTESIAN_POINT('',(-2.20286178288908,1.21932,1.09512921355743));
#1303=CARTESIAN_POINT('',(-2.20286178288908,1.21932,0.995129213557432));
#1304=CARTESIAN_POINT('',(-2.20286178288908,1.21932,0.895129213557431));
#1305=CARTESIAN_POINT('',(-2.30286178288909,1.21932,0.895129213557431));
#1306=CARTESIAN_POINT('',(-2.40286178288909,1.21932,0.895129213557431));
#1307=CARTESIAN_POINT('',(-2.40286178288909,1.21932,0.995129213557432));
#1308=CARTESIAN_POINT('',(-3.01413735170657,1.21932,1.29512921355743));
#1309=CARTESIAN_POINT('',(-1.57997495610866,1.21932,1.09512921355747));
#1310=CARTESIAN_POINT('',(-1.49806989497319,-1.016,-0.108759984537366));
#1311=CARTESIAN_POINT('',(-3.8150980759957,1.016,-0.108759984537366));
#1312=CARTESIAN_POINT('',(-2.59238198662432,1.016,1.11256036210696));
#1313=CARTESIAN_POINT('',(-2.59238198662432,-1.016,1.11256036210696));
#1314=CARTESIAN_POINT('',(-2.39314304700597,-1.016,1.29512921355743));
#1315=CARTESIAN_POINT('',(-2.39314304700597,1.016,1.29512921355743));
#1316=CARTESIAN_POINT('',(-2.66248454741387,-1.016,0.311284425724863));
#1317=CARTESIAN_POINT('',(-2.66248454741387,1.016,0.311284425724863));
#1318=CARTESIAN_POINT('',(-2.76210401722305,-1.016,0.219999999999628));
#1319=CARTESIAN_POINT('',(-2.76210401722305,1.016,0.219999999999628));
#1320=CARTESIAN_POINT('',(-3.12191239424383,-1.016,0.219999999999629));
#1321=CARTESIAN_POINT('',(-3.12191239424383,1.016,0.219999999999629));
#1322=CARTESIAN_POINT('',(-3.12191239424383,-1.016,0.0189753971076194));
#1323=CARTESIAN_POINT('',(-3.12191239424383,1.016,0.0189753971076194));
#1324=CARTESIAN_POINT('',(-2.67191239424383,-1.016,0.0189753971076158));
#1325=CARTESIAN_POINT('',(-2.67191239424383,1.016,0.0189753971076167));
#1326=CARTESIAN_POINT('',(-2.47267345462548,1.016,0.201544248558087));
#1327=CARTESIAN_POINT('',(-2.47267345462548,-1.016,0.201544248558087));
#1328=CARTESIAN_POINT('',(-2.40248125269826,-1.016,1.0038447878322));
#1329=CARTESIAN_POINT('',(-2.40248125269826,1.016,1.0038447878322));
#1330=CARTESIAN_POINT('',(-2.30286178288909,-1.016,1.09512921355743));
#1331=CARTESIAN_POINT('',(-2.30286178288909,1.016,1.09512921355743));
#1332=CARTESIAN_POINT('',(-2.1844,-1.016,1.29512921355743));
#1333=CARTESIAN_POINT('',(-2.20979999999999,-1.016,1.29512921355743));
#1334=CARTESIAN_POINT('',(-2.1844,1.016,1.29512921355743));
#1335=CARTESIAN_POINT('',(-2.20979999999999,1.016,1.29512921355743));
#1336=CARTESIAN_POINT('',(-2.19125557672506,1.016,1.09512921355739));
#1337=CARTESIAN_POINT('',(-2.19125557672506,-1.016,1.09512921355739));
#1338=CARTESIAN_POINT('',(-2.59238198662432,1.016,1.11256036210696));
#1339=CARTESIAN_POINT('',(-2.59238198662432,-1.016,1.11256036210696));
#1340=CARTESIAN_POINT('',(-2.59238198662432,-1.016,1.11256036210696));
#1341=CARTESIAN_POINT('',(-2.57640928180945,-1.016,1.29512921355743));
#1342=CARTESIAN_POINT('',(-2.39314304700597,-1.016,1.29512921355743));
#1343=CARTESIAN_POINT('',(-2.39314304700597,-1.016,1.29512921355743));
#1344=CARTESIAN_POINT('',(-2.39314304700597,1.016,1.29512921355743));
#1345=CARTESIAN_POINT('',(-2.39314304700597,1.016,1.29512921355743));
#1346=CARTESIAN_POINT('',(-2.57640928180946,1.016,1.29512921355744));
#1347=CARTESIAN_POINT('',(-2.59238198662432,1.016,1.11256036210696));
#1348=CARTESIAN_POINT('',(-2.66248454741387,-1.016,0.311284425724863));
#1349=CARTESIAN_POINT('',(-2.66248454741387,1.016,0.311284425724863));
#1350=CARTESIAN_POINT('',(-2.59238198662432,-1.016,1.11256036210696));
#1351=CARTESIAN_POINT('',(-2.66248454741387,-1.016,0.311284425724863));
#1352=CARTESIAN_POINT('',(-2.66248454741387,1.016,0.311284425724863));
#1353=CARTESIAN_POINT('',(-2.59238198662432,1.016,1.11256036210696));
#1354=CARTESIAN_POINT('',(-2.76210401722305,-1.016,0.219999999999628));
#1355=CARTESIAN_POINT('',(-2.76210401722305,1.016,0.219999999999628));
#1356=CARTESIAN_POINT('',(-2.66248454741387,-1.016,0.311284425724863));
#1357=CARTESIAN_POINT('',(-2.67047089982131,-1.016,0.219999999999625));
#1358=CARTESIAN_POINT('',(-2.76210401722305,-1.016,0.219999999999628));
#1359=CARTESIAN_POINT('',(-2.76210401722305,1.016,0.219999999999628));
#1360=CARTESIAN_POINT('',(-2.67047089982131,1.016,0.219999999999627));
#1361=CARTESIAN_POINT('',(-2.66248454741388,1.016,0.311284425724863));
#1362=CARTESIAN_POINT('',(-3.12191239424383,-1.016,0.219999999999629));
#1363=CARTESIAN_POINT('',(-3.12191239424383,1.016,0.219999999999629));
#1364=CARTESIAN_POINT('',(-2.76210401722305,-1.016,0.219999999999628));
#1365=CARTESIAN_POINT('',(-3.12191239424383,-1.016,0.219999999999629));
#1366=CARTESIAN_POINT('',(-3.12191239424383,1.016,0.219999999999629));
#1367=CARTESIAN_POINT('',(-2.76210401722305,1.016,0.219999999999628));
#1368=CARTESIAN_POINT('',(-3.12191239424383,-1.016,0.0189753971076194));
#1369=CARTESIAN_POINT('',(-3.12191239424383,1.016,0.0189753971076194));
#1370=CARTESIAN_POINT('',(-3.12191239424383,-1.016,0.219999999999629));
#1371=CARTESIAN_POINT('',(-3.12191239424383,-1.016,0.0189753971076194));
#1372=CARTESIAN_POINT('',(-3.12191239424383,1.016,0.0189753971076194));
#1373=CARTESIAN_POINT('',(-3.12191239424383,1.016,0.219999999999629));
#1374=CARTESIAN_POINT('',(-2.67191239424383,-1.016,0.0189753971076158));
#1375=CARTESIAN_POINT('',(-2.67191239424383,1.016,0.0189753971076167));
#1376=CARTESIAN_POINT('',(-3.12191239424383,-1.016,0.0189753971076194));
#1377=CARTESIAN_POINT('',(-2.67191239424383,-1.016,0.0189753971076158));
#1378=CARTESIAN_POINT('',(-2.67191239424383,1.016,0.0189753971076167));
#1379=CARTESIAN_POINT('',(-3.12191239424383,1.016,0.0189753971076194));
#1380=CARTESIAN_POINT('',(-2.47267345462548,1.016,0.201544248558087));
#1381=CARTESIAN_POINT('',(-2.47267345462548,-1.016,0.201544248558087));
#1382=CARTESIAN_POINT('',(-2.47267345462548,-1.016,0.201544248558087));
#1383=CARTESIAN_POINT('',(-2.48864615944034,-1.016,0.0189753971076149));
#1384=CARTESIAN_POINT('',(-2.67191239424383,-1.016,0.0189753971076149));
#1385=CARTESIAN_POINT('',(-2.67191239424383,1.016,0.0189753971076166));
#1386=CARTESIAN_POINT('',(-2.48864615944034,1.016,0.0189753971076157));
#1387=CARTESIAN_POINT('',(-2.47267345462548,1.016,0.201544248558088));
#1388=CARTESIAN_POINT('',(-2.40248125269826,-1.016,1.0038447878322));
#1389=CARTESIAN_POINT('',(-2.40248125269826,1.016,1.0038447878322));
#1390=CARTESIAN_POINT('',(-2.47267345462548,-1.016,0.201544248558087));
#1391=CARTESIAN_POINT('',(-2.40248125269826,-1.016,1.0038447878322));
#1392=CARTESIAN_POINT('',(-2.40248125269826,1.016,1.0038447878322));
#1393=CARTESIAN_POINT('',(-2.47267345462548,1.016,0.201544248558087));
#1394=CARTESIAN_POINT('',(-2.30286178288909,-1.016,1.09512921355743));
#1395=CARTESIAN_POINT('',(-2.30286178288909,1.016,1.09512921355743));
#1396=CARTESIAN_POINT('',(-2.40248125269826,-1.016,1.0038447878322));
#1397=CARTESIAN_POINT('',(-2.39449490029083,-1.016,1.09512921355743));
#1398=CARTESIAN_POINT('',(-2.30286178288909,-1.016,1.09512921355743));
#1399=CARTESIAN_POINT('',(-2.30286178288909,1.016,1.09512921355743));
#1400=CARTESIAN_POINT('',(-2.39449490029083,1.016,1.09512921355743));
#1401=CARTESIAN_POINT('',(-2.40248125269826,1.016,1.0038447878322));
#1402=CARTESIAN_POINT('',(-2.1844,-1.016,1.29512921355743));
#1403=CARTESIAN_POINT('',(-2.20979999999999,-1.016,1.29512921355743));
#1404=CARTESIAN_POINT('',(-2.1844,1.016,1.29512921355743));
#1405=CARTESIAN_POINT('',(-2.1844,-1.016,1.29512921355743));
#1406=CARTESIAN_POINT('',(-2.20979999999999,1.016,1.29512921355743));
#1407=CARTESIAN_POINT('',(-2.1844,1.016,1.29512921355743));
#1408=CARTESIAN_POINT('',(-2.39314304700597,1.016,1.29512921355743));
#1409=CARTESIAN_POINT('',(-2.20979999999999,1.016,1.29512921355743));
#1410=CARTESIAN_POINT('',(-2.20979999999999,-1.016,1.29512921355743));
#1411=CARTESIAN_POINT('',(-2.39314304700597,-1.016,1.29512921355743));
#1412=CARTESIAN_POINT('',(-2.19125557672506,1.016,1.09512921355739));
#1413=CARTESIAN_POINT('',(-2.30286178288909,1.016,1.09512921355743));
#1414=CARTESIAN_POINT('',(-2.19125557672506,-1.016,1.09512921355739));
#1415=CARTESIAN_POINT('',(-2.19125557672506,1.016,1.09512921355739));
#1416=CARTESIAN_POINT('',(-2.30286178288909,-1.016,1.09512921355743));
#1417=CARTESIAN_POINT('',(-2.19125557672506,-1.016,1.09512921355739));
#1418=CARTESIAN_POINT('',(-2.20979999999999,-1.016,1.29512921355743));
#1419=CARTESIAN_POINT('',(-2.19125557672506,-1.016,1.09512921355739));
#1420=CARTESIAN_POINT('',(-2.19125557672506,1.016,1.09512921355739));
#1421=CARTESIAN_POINT('',(-2.20979999999999,1.016,1.29512921355743));
#1422=CARTESIAN_POINT('',(0.,0.,0.));
ENDSEC;
END-ISO-10303-21;
