ISO-10303-21;
HEADER;
/* Generated by software containing ST-Developer
 * from STEP Tools, Inc. (www.steptools.com) 
 */
/* OPTION: using custom schema-name function */

FILE_DESCRIPTION(
/* description */ (''),
/* implementation_level */ '2;1');

FILE_NAME(
/* name */ 'DO-215AA diode',
/* time_stamp */ '2022-05-01T15:26:45+02:00',
/* author */ (''),
/* organization */ (''),
/* preprocessor_version */ 'ST-DEVELOPER v16.5',
/* originating_system */ '',
/* authorisation */ '');

FILE_SCHEMA (('AUTOMOTIVE_DESIGN'));
ENDSEC;

DATA;
#10=SHAPE_REPRESENTATION_RELATIONSHIP('','',#833,#173);
#11=(
BOUNDED_SURFACE()
B_SPLINE_SURFACE(1,2,((#1097,#1098,#1099,#1100,#1101,#1102,#1103,#1104,
#1105),(#1106,#1107,#1108,#1109,#1110,#1111,#1112,#1113,#1114)),
 .UNSPECIFIED.,.F.,.F.,.F.)
B_SPLINE_SURFACE_WITH_KNOTS((2,2),(3,2,2,2,3),(0.,2.43864),(0.,1.5707963267949,
3.14159265358979,4.71238898038469,6.28318530717959),.UNSPECIFIED.)
GEOMETRIC_REPRESENTATION_ITEM()
RATIONAL_B_SPLINE_SURFACE(((1.,0.707106781186548,1.,0.707106781186548,1.,
0.707106781186548,1.,0.707106781186548,1.),(1.,0.707106781186548,1.,0.707106781186548,
1.,0.707106781186548,1.,0.707106781186548,1.)))
REPRESENTATION_ITEM('')
SURFACE()
);
#12=(
BOUNDED_SURFACE()
B_SPLINE_SURFACE(2,1,((#1118,#1119),(#1120,#1121),(#1122,#1123),(#1124,
#1125),(#1126,#1127),(#1128,#1129),(#1130,#1131),(#1132,#1133),(#1134,#1135)),
 .UNSPECIFIED.,.T.,.F.,.F.)
B_SPLINE_SURFACE_WITH_KNOTS((3,2,2,2,3),(2,2),(0.,1.5707963267949,3.14159265358979,
4.71238898038469,6.28318530717959),(0.,2.43864),.UNSPECIFIED.)
GEOMETRIC_REPRESENTATION_ITEM()
RATIONAL_B_SPLINE_SURFACE(((1.,1.),(0.707106781186548,0.707106781186548),
(1.,1.),(0.707106781186548,0.707106781186548),(1.,1.),(0.707106781186548,
0.707106781186548),(1.,1.),(0.707106781186548,0.707106781186548),(1.,1.)))
REPRESENTATION_ITEM('')
SURFACE()
);
#13=(
BOUNDED_SURFACE()
B_SPLINE_SURFACE(1,2,((#1137,#1138,#1139,#1140,#1141,#1142,#1143,#1144,
#1145),(#1146,#1147,#1148,#1149,#1150,#1151,#1152,#1153,#1154)),
 .UNSPECIFIED.,.F.,.F.,.F.)
B_SPLINE_SURFACE_WITH_KNOTS((2,2),(3,2,2,2,3),(0.,2.43864),(0.,1.5707963267949,
3.14159265358979,4.71238898038469,6.28318530717959),.UNSPECIFIED.)
GEOMETRIC_REPRESENTATION_ITEM()
RATIONAL_B_SPLINE_SURFACE(((1.,0.707106781186548,1.,0.707106781186548,1.,
0.707106781186548,1.,0.707106781186548,1.),(1.,0.707106781186548,1.,0.707106781186548,
1.,0.707106781186548,1.,0.707106781186548,1.)))
REPRESENTATION_ITEM('')
SURFACE()
);
#14=(
BOUNDED_SURFACE()
B_SPLINE_SURFACE(2,1,((#1155,#1156),(#1157,#1158),(#1159,#1160),(#1161,
#1162),(#1163,#1164),(#1165,#1166),(#1167,#1168),(#1169,#1170),(#1171,#1172)),
 .UNSPECIFIED.,.T.,.F.,.F.)
B_SPLINE_SURFACE_WITH_KNOTS((3,2,2,2,3),(2,2),(0.,1.5707963267949,3.14159265358979,
4.71238898038469,6.28318530717959),(0.,2.43864),.UNSPECIFIED.)
GEOMETRIC_REPRESENTATION_ITEM()
RATIONAL_B_SPLINE_SURFACE(((1.,1.),(0.707106781186548,0.707106781186548),
(1.,1.),(0.707106781186548,0.707106781186548),(1.,1.),(0.707106781186548,
0.707106781186548),(1.,1.),(0.707106781186548,0.707106781186548),(1.,1.)))
REPRESENTATION_ITEM('')
SURFACE()
);
#15=(
BOUNDED_SURFACE()
B_SPLINE_SURFACE(2,1,((#1287,#1288),(#1289,#1290),(#1291,#1292),(#1293,
#1294),(#1295,#1296),(#1297,#1298),(#1299,#1300),(#1301,#1302),(#1303,#1304)),
 .UNSPECIFIED.,.T.,.F.,.F.)
B_SPLINE_SURFACE_WITH_KNOTS((3,2,2,2,3),(2,2),(0.,1.5707963267949,3.14159265358979,
4.71238898038469,6.28318530717959),(0.,2.43864),.UNSPECIFIED.)
GEOMETRIC_REPRESENTATION_ITEM()
RATIONAL_B_SPLINE_SURFACE(((1.,1.),(0.707106781186548,0.707106781186548),
(1.,1.),(0.707106781186548,0.707106781186548),(1.,1.),(0.707106781186548,
0.707106781186548),(1.,1.),(0.707106781186548,0.707106781186548),(1.,1.)))
REPRESENTATION_ITEM('')
SURFACE()
);
#16=(
BOUNDED_SURFACE()
B_SPLINE_SURFACE(1,2,((#1306,#1307,#1308,#1309,#1310,#1311,#1312,#1313,
#1314),(#1315,#1316,#1317,#1318,#1319,#1320,#1321,#1322,#1323)),
 .UNSPECIFIED.,.F.,.F.,.F.)
B_SPLINE_SURFACE_WITH_KNOTS((2,2),(3,2,2,2,3),(0.,2.43864),(0.,1.5707963267949,
3.14159265358979,4.71238898038469,6.28318530717959),.UNSPECIFIED.)
GEOMETRIC_REPRESENTATION_ITEM()
RATIONAL_B_SPLINE_SURFACE(((1.,0.707106781186548,1.,0.707106781186548,1.,
0.707106781186548,1.,0.707106781186548,1.),(1.,0.707106781186548,1.,0.707106781186548,
1.,0.707106781186548,1.,0.707106781186548,1.)))
REPRESENTATION_ITEM('')
SURFACE()
);
#17=(
BOUNDED_SURFACE()
B_SPLINE_SURFACE(2,1,((#1327,#1328),(#1329,#1330),(#1331,#1332),(#1333,
#1334),(#1335,#1336),(#1337,#1338),(#1339,#1340),(#1341,#1342),(#1343,#1344)),
 .UNSPECIFIED.,.T.,.F.,.F.)
B_SPLINE_SURFACE_WITH_KNOTS((3,2,2,2,3),(2,2),(0.,1.5707963267949,3.14159265358979,
4.71238898038469,6.28318530717959),(0.,2.43864),.UNSPECIFIED.)
GEOMETRIC_REPRESENTATION_ITEM()
RATIONAL_B_SPLINE_SURFACE(((1.,1.),(0.707106781186548,0.707106781186548),
(1.,1.),(0.707106781186548,0.707106781186548),(1.,1.),(0.707106781186548,
0.707106781186548),(1.,1.),(0.707106781186548,0.707106781186548),(1.,1.)))
REPRESENTATION_ITEM('')
SURFACE()
);
#18=(
BOUNDED_SURFACE()
B_SPLINE_SURFACE(1,2,((#1346,#1347,#1348,#1349,#1350,#1351,#1352,#1353,
#1354),(#1355,#1356,#1357,#1358,#1359,#1360,#1361,#1362,#1363)),
 .UNSPECIFIED.,.F.,.F.,.F.)
B_SPLINE_SURFACE_WITH_KNOTS((2,2),(3,2,2,2,3),(0.,2.43864),(0.,1.5707963267949,
3.14159265358979,4.71238898038469,6.28318530717959),.UNSPECIFIED.)
GEOMETRIC_REPRESENTATION_ITEM()
RATIONAL_B_SPLINE_SURFACE(((1.,0.707106781186548,1.,0.707106781186548,1.,
0.707106781186548,1.,0.707106781186548,1.),(1.,0.707106781186548,1.,0.707106781186548,
1.,0.707106781186548,1.,0.707106781186548,1.)))
REPRESENTATION_ITEM('')
SURFACE()
);
#19=FACE_BOUND('',#270,.T.);
#20=B_SPLINE_CURVE_WITH_KNOTS('',1,(#979,#980),.UNSPECIFIED.,.F.,.F.,(2,
2),(-0.175514481833646,0.),.UNSPECIFIED.);
#21=B_SPLINE_CURVE_WITH_KNOTS('',1,(#981,#982),.UNSPECIFIED.,.F.,.F.,(2,
2),(-3.556,0.),.UNSPECIFIED.);
#22=B_SPLINE_CURVE_WITH_KNOTS('',1,(#983,#984),.UNSPECIFIED.,.F.,.F.,(2,
2),(-0.175514481833646,0.),.UNSPECIFIED.);
#23=B_SPLINE_CURVE_WITH_KNOTS('',1,(#985,#986),.UNSPECIFIED.,.F.,.F.,(2,
2),(-3.556,0.),.UNSPECIFIED.);
#24=B_SPLINE_CURVE_WITH_KNOTS('',1,(#987,#988),.UNSPECIFIED.,.F.,.F.,(2,
2),(-1.83,0.),.UNSPECIFIED.);
#25=B_SPLINE_CURVE_WITH_KNOTS('',1,(#989,#990),.UNSPECIFIED.,.F.,.F.,(2,
2),(-1.83,0.),.UNSPECIFIED.);
#26=B_SPLINE_CURVE_WITH_KNOTS('',1,(#991,#992),.UNSPECIFIED.,.F.,.F.,(2,
2),(-3.556,0.),.UNSPECIFIED.);
#27=B_SPLINE_CURVE_WITH_KNOTS('',1,(#993,#994),.UNSPECIFIED.,.F.,.F.,(2,
2),(-0.175514481833645,0.),.UNSPECIFIED.);
#28=B_SPLINE_CURVE_WITH_KNOTS('',1,(#995,#996),.UNSPECIFIED.,.F.,.F.,(2,
2),(-0.175514481833645,0.),.UNSPECIFIED.);
#29=B_SPLINE_CURVE_WITH_KNOTS('',1,(#997,#998),.UNSPECIFIED.,.F.,.F.,(2,
2),(-3.556,0.),.UNSPECIFIED.);
#30=B_SPLINE_CURVE_WITH_KNOTS('',1,(#999,#1000),.UNSPECIFIED.,.F.,.F.,(2,
2),(-1.1128,0.),.UNSPECIFIED.);
#31=B_SPLINE_CURVE_WITH_KNOTS('',1,(#1001,#1002),.UNSPECIFIED.,.F.,.F.,
(2,2),(-1.1128,0.),.UNSPECIFIED.);
#32=B_SPLINE_CURVE_WITH_KNOTS('',1,(#1003,#1004),.UNSPECIFIED.,.F.,.F.,
(2,2),(-3.556,0.),.UNSPECIFIED.);
#33=B_SPLINE_CURVE_WITH_KNOTS('',1,(#1005,#1006),.UNSPECIFIED.,.F.,.F.,
(2,2),(-3.556,0.),.UNSPECIFIED.);
#34=B_SPLINE_CURVE_WITH_KNOTS('',1,(#1007,#1008),.UNSPECIFIED.,.F.,.F.,
(2,2),(-4.19991188392956,0.),.UNSPECIFIED.);
#35=B_SPLINE_CURVE_WITH_KNOTS('',1,(#1009,#1010),.UNSPECIFIED.,.F.,.F.,
(2,2),(-4.19991188392956,0.),.UNSPECIFIED.);
#36=B_SPLINE_CURVE_WITH_KNOTS('',1,(#1011,#1012),.UNSPECIFIED.,.F.,.F.,
(2,2),(-3.556,0.),.UNSPECIFIED.);
#37=B_SPLINE_CURVE_WITH_KNOTS('',1,(#1013,#1014),.UNSPECIFIED.,.F.,.F.,
(2,2),(-0.0253999999999905,0.),.UNSPECIFIED.);
#38=B_SPLINE_CURVE_WITH_KNOTS('',1,(#1015,#1016),.UNSPECIFIED.,.F.,.F.,
(2,2),(-0.0254000000000119,0.),.UNSPECIFIED.);
#39=B_SPLINE_CURVE_WITH_KNOTS('',1,(#1017,#1018),.UNSPECIFIED.,.F.,.F.,
(2,2),(-1.1128,0.),.UNSPECIFIED.);
#40=B_SPLINE_CURVE_WITH_KNOTS('',1,(#1019,#1020),.UNSPECIFIED.,.F.,.F.,
(2,2),(-3.556,0.),.UNSPECIFIED.);
#41=B_SPLINE_CURVE_WITH_KNOTS('',1,(#1021,#1022),.UNSPECIFIED.,.F.,.F.,
(2,2),(-1.1128,0.),.UNSPECIFIED.);
#42=B_SPLINE_CURVE_WITH_KNOTS('',1,(#1023,#1024),.UNSPECIFIED.,.F.,.F.,
(2,2),(-0.0253999999999905,0.),.UNSPECIFIED.);
#43=B_SPLINE_CURVE_WITH_KNOTS('',1,(#1025,#1026),.UNSPECIFIED.,.F.,.F.,
(2,2),(0.,0.0254000000000119),.UNSPECIFIED.);
#44=B_SPLINE_CURVE_WITH_KNOTS('',1,(#1027,#1028),.UNSPECIFIED.,.F.,.F.,
(2,2),(-0.0254000000000119,0.),.UNSPECIFIED.);
#45=B_SPLINE_CURVE_WITH_KNOTS('',1,(#1029,#1030),.UNSPECIFIED.,.F.,.F.,
(2,2),(-0.762,0.),.UNSPECIFIED.);
#46=B_SPLINE_CURVE_WITH_KNOTS('',1,(#1031,#1032),.UNSPECIFIED.,.F.,.F.,
(2,2),(-0.762,0.),.UNSPECIFIED.);
#47=B_SPLINE_CURVE_WITH_KNOTS('',1,(#1033,#1034),.UNSPECIFIED.,.F.,.F.,
(2,2),(-0.200857899109296,0.),.UNSPECIFIED.);
#48=B_SPLINE_CURVE_WITH_KNOTS('',1,(#1035,#1036),.UNSPECIFIED.,.F.,.F.,
(2,2),(-2.032,0.),.UNSPECIFIED.);
#49=B_SPLINE_CURVE_WITH_KNOTS('',1,(#1037,#1038),.UNSPECIFIED.,.F.,.F.,
(2,2),(-0.200857899109296,0.),.UNSPECIFIED.);
#50=B_SPLINE_CURVE_WITH_KNOTS('',1,(#1039,#1040),.UNSPECIFIED.,.F.,.F.,
(2,2),(-1.02075984327344,0.),.UNSPECIFIED.);
#51=B_SPLINE_CURVE_WITH_KNOTS('',1,(#1041,#1042),.UNSPECIFIED.,.F.,.F.,
(2,2),(0.,1.02075984327344),.UNSPECIFIED.);
#52=B_SPLINE_CURVE_WITH_KNOTS('',1,(#1043,#1044),.UNSPECIFIED.,.F.,.F.,
(2,2),(-0.762,0.),.UNSPECIFIED.);
#53=B_SPLINE_CURVE_WITH_KNOTS('',1,(#1045,#1046),.UNSPECIFIED.,.F.,.F.,
(2,2),(-0.0254000000000119,0.),.UNSPECIFIED.);
#54=B_SPLINE_CURVE_WITH_KNOTS('',1,(#1047,#1048),.UNSPECIFIED.,.F.,.F.,
(2,2),(-0.762,0.),.UNSPECIFIED.);
#55=B_SPLINE_CURVE_WITH_KNOTS('',1,(#1049,#1050),.UNSPECIFIED.,.F.,.F.,
(2,2),(0.,0.968886907196837),.UNSPECIFIED.);
#56=B_SPLINE_CURVE_WITH_KNOTS('',1,(#1051,#1052),.UNSPECIFIED.,.F.,.F.,
(2,2),(-0.968886907196837,0.),.UNSPECIFIED.);
#57=B_SPLINE_CURVE_WITH_KNOTS('',1,(#1053,#1054),.UNSPECIFIED.,.F.,.F.,
(2,2),(-2.032,0.),.UNSPECIFIED.);
#58=B_SPLINE_CURVE_WITH_KNOTS('',1,(#1055,#1056),.UNSPECIFIED.,.F.,.F.,
(2,2),(-0.762,0.),.UNSPECIFIED.);
#59=B_SPLINE_CURVE_WITH_KNOTS('',1,(#1057,#1058),.UNSPECIFIED.,.F.,.F.,
(2,2),(-0.968886907196837,0.),.UNSPECIFIED.);
#60=B_SPLINE_CURVE_WITH_KNOTS('',1,(#1059,#1060),.UNSPECIFIED.,.F.,.F.,
(2,2),(-0.968886907196837,0.),.UNSPECIFIED.);
#61=B_SPLINE_CURVE_WITH_KNOTS('',1,(#1061,#1062),.UNSPECIFIED.,.F.,.F.,
(2,2),(-0.0253999999999905,0.),.UNSPECIFIED.);
#62=B_SPLINE_CURVE_WITH_KNOTS('',1,(#1063,#1064),.UNSPECIFIED.,.F.,.F.,
(2,2),(-0.762,0.),.UNSPECIFIED.);
#63=B_SPLINE_CURVE_WITH_KNOTS('',1,(#1065,#1066),.UNSPECIFIED.,.F.,.F.,
(2,2),(-2.032,0.),.UNSPECIFIED.);
#64=B_SPLINE_CURVE_WITH_KNOTS('',1,(#1067,#1068),.UNSPECIFIED.,.F.,.F.,
(2,2),(-0.762,0.),.UNSPECIFIED.);
#65=B_SPLINE_CURVE_WITH_KNOTS('',1,(#1069,#1070),.UNSPECIFIED.,.F.,.F.,
(2,2),(0.,0.200857899109335),.UNSPECIFIED.);
#66=B_SPLINE_CURVE_WITH_KNOTS('',1,(#1071,#1072),.UNSPECIFIED.,.F.,.F.,
(2,2),(-1.02075984327344,0.),.UNSPECIFIED.);
#67=B_SPLINE_CURVE_WITH_KNOTS('',1,(#1073,#1074),.UNSPECIFIED.,.F.,.F.,
(2,2),(-1.02075984327344,0.),.UNSPECIFIED.);
#68=B_SPLINE_CURVE_WITH_KNOTS('',1,(#1075,#1076),.UNSPECIFIED.,.F.,.F.,
(2,2),(0.,0.200857899109336),.UNSPECIFIED.);
#69=B_SPLINE_CURVE_WITH_KNOTS('',1,(#1077,#1078),.UNSPECIFIED.,.F.,.F.,
(2,2),(0.,2.032),.UNSPECIFIED.);
#70=B_SPLINE_CURVE_WITH_KNOTS('',1,(#1079,#1080),.UNSPECIFIED.,.F.,.F.,
(2,2),(-0.0253999999999905,0.),.UNSPECIFIED.);
#71=B_SPLINE_CURVE_WITH_KNOTS('',1,(#1081,#1082),.UNSPECIFIED.,.F.,.F.,
(2,2),(-0.762,0.),.UNSPECIFIED.);
#72=B_SPLINE_CURVE_WITH_KNOTS('',1,(#1203,#1204),.UNSPECIFIED.,.F.,.F.,
(2,2),(0.,0.804336680286476),.UNSPECIFIED.);
#73=B_SPLINE_CURVE_WITH_KNOTS('',1,(#1205,#1206),.UNSPECIFIED.,.F.,.F.,
(2,2),(0.,2.032),.UNSPECIFIED.);
#74=B_SPLINE_CURVE_WITH_KNOTS('',1,(#1207,#1208),.UNSPECIFIED.,.F.,.F.,
(2,2),(0.,0.804336680286476),.UNSPECIFIED.);
#75=B_SPLINE_CURVE_WITH_KNOTS('',1,(#1209,#1210),.UNSPECIFIED.,.F.,.F.,
(2,2),(0.,2.032),.UNSPECIFIED.);
#76=B_SPLINE_CURVE_WITH_KNOTS('',1,(#1211,#1212),.UNSPECIFIED.,.F.,.F.,
(2,2),(-2.032,0.),.UNSPECIFIED.);
#77=B_SPLINE_CURVE_WITH_KNOTS('',1,(#1219,#1220),.UNSPECIFIED.,.F.,.F.,
(2,2),(-2.032,0.),.UNSPECIFIED.);
#78=B_SPLINE_CURVE_WITH_KNOTS('',1,(#1221,#1222),.UNSPECIFIED.,.F.,.F.,
(2,2),(-0.353924601151801,0.),.UNSPECIFIED.);
#79=B_SPLINE_CURVE_WITH_KNOTS('',1,(#1223,#1224),.UNSPECIFIED.,.F.,.F.,
(2,2),(-0.353924601151801,0.),.UNSPECIFIED.);
#80=B_SPLINE_CURVE_WITH_KNOTS('',1,(#1225,#1226),.UNSPECIFIED.,.F.,.F.,
(2,2),(-2.032,0.),.UNSPECIFIED.);
#81=B_SPLINE_CURVE_WITH_KNOTS('',1,(#1227,#1228),.UNSPECIFIED.,.F.,.F.,
(2,2),(-0.199999999999999,0.),.UNSPECIFIED.);
#82=B_SPLINE_CURVE_WITH_KNOTS('',1,(#1229,#1230),.UNSPECIFIED.,.F.,.F.,
(2,2),(-0.199999999999999,0.),.UNSPECIFIED.);
#83=B_SPLINE_CURVE_WITH_KNOTS('',1,(#1231,#1232),.UNSPECIFIED.,.F.,.F.,
(2,2),(-2.032,0.),.UNSPECIFIED.);
#84=B_SPLINE_CURVE_WITH_KNOTS('',1,(#1233,#1234),.UNSPECIFIED.,.F.,.F.,
(2,2),(-0.449999999999999,0.),.UNSPECIFIED.);
#85=B_SPLINE_CURVE_WITH_KNOTS('',1,(#1235,#1236),.UNSPECIFIED.,.F.,.F.,
(2,2),(-0.449999999999999,0.),.UNSPECIFIED.);
#86=B_SPLINE_CURVE_WITH_KNOTS('',1,(#1243,#1244),.UNSPECIFIED.,.F.,.F.,
(2,2),(0.,2.032),.UNSPECIFIED.);
#87=B_SPLINE_CURVE_WITH_KNOTS('',1,(#1245,#1246),.UNSPECIFIED.,.F.,.F.,
(2,2),(0.,0.804336680286105),.UNSPECIFIED.);
#88=B_SPLINE_CURVE_WITH_KNOTS('',1,(#1247,#1248),.UNSPECIFIED.,.F.,.F.,
(2,2),(0.,0.804336680286105),.UNSPECIFIED.);
#89=B_SPLINE_CURVE_WITH_KNOTS('',1,(#1249,#1250),.UNSPECIFIED.,.F.,.F.,
(2,2),(0.,2.032),.UNSPECIFIED.);
#90=B_SPLINE_CURVE_WITH_KNOTS('',1,(#1257,#1258),.UNSPECIFIED.,.F.,.F.,
(2,2),(-2.032,0.),.UNSPECIFIED.);
#91=B_SPLINE_CURVE_WITH_KNOTS('',1,(#1262,#1263),.UNSPECIFIED.,.F.,.F.,
(2,2),(0.,2.032),.UNSPECIFIED.);
#92=B_SPLINE_CURVE_WITH_KNOTS('',1,(#1267,#1268),.UNSPECIFIED.,.F.,.F.,
(2,2),(-0.200857899109296,0.),.UNSPECIFIED.);
#93=B_SPLINE_CURVE_WITH_KNOTS('',1,(#1269,#1270),.UNSPECIFIED.,.F.,.F.,
(2,2),(0.,0.191056952994018),.UNSPECIFIED.);
#94=B_SPLINE_CURVE_WITH_KNOTS('',1,(#1271,#1272),.UNSPECIFIED.,.F.,.F.,
(2,2),(-0.11352559251975,0.),.UNSPECIFIED.);
#95=B_SPLINE_CURVE_WITH_KNOTS('',1,(#1273,#1274),.UNSPECIFIED.,.F.,.F.,
(2,2),(-0.200857899109296,0.),.UNSPECIFIED.);
#96=B_SPLINE_CURVE_WITH_KNOTS('',1,(#1275,#1276),.UNSPECIFIED.,.F.,.F.,
(2,2),(0.,0.191056952994018),.UNSPECIFIED.);
#97=B_SPLINE_CURVE_WITH_KNOTS('',1,(#1277,#1278),.UNSPECIFIED.,.F.,.F.,
(2,2),(-0.11352559251975,0.),.UNSPECIFIED.);
#98=B_SPLINE_CURVE_WITH_KNOTS('',1,(#1279,#1280),.UNSPECIFIED.,.F.,.F.,
(2,2),(-2.032,0.),.UNSPECIFIED.);
#99=B_SPLINE_CURVE_WITH_KNOTS('',1,(#1281,#1282),.UNSPECIFIED.,.F.,.F.,
(2,2),(-0.0254000000000119,0.),.UNSPECIFIED.);
#100=B_SPLINE_CURVE_WITH_KNOTS('',1,(#1283,#1284),.UNSPECIFIED.,.F.,.F.,
(2,2),(-0.0254000000000119,0.),.UNSPECIFIED.);
#101=B_SPLINE_CURVE_WITH_KNOTS('',1,(#1285,#1286),.UNSPECIFIED.,.F.,.F.,
(2,2),(-2.032,0.),.UNSPECIFIED.);
#102=B_SPLINE_CURVE_WITH_KNOTS('',1,(#1394,#1395),.UNSPECIFIED.,.F.,.F.,
(2,2),(0.,2.032),.UNSPECIFIED.);
#103=B_SPLINE_CURVE_WITH_KNOTS('',1,(#1399,#1400),.UNSPECIFIED.,.F.,.F.,
(2,2),(0.,2.032),.UNSPECIFIED.);
#104=B_SPLINE_CURVE_WITH_KNOTS('',1,(#1404,#1405),.UNSPECIFIED.,.F.,.F.,
(2,2),(-2.032,0.),.UNSPECIFIED.);
#105=B_SPLINE_CURVE_WITH_KNOTS('',1,(#1406,#1407),.UNSPECIFIED.,.F.,.F.,
(2,2),(-0.804336680286475,0.),.UNSPECIFIED.);
#106=B_SPLINE_CURVE_WITH_KNOTS('',1,(#1408,#1409),.UNSPECIFIED.,.F.,.F.,
(2,2),(-0.804336680286475,0.),.UNSPECIFIED.);
#107=B_SPLINE_CURVE_WITH_KNOTS('',1,(#1410,#1411),.UNSPECIFIED.,.F.,.F.,
(2,2),(-2.032,0.),.UNSPECIFIED.);
#108=B_SPLINE_CURVE_WITH_KNOTS('',1,(#1418,#1419),.UNSPECIFIED.,.F.,.F.,
(2,2),(-2.032,0.),.UNSPECIFIED.);
#109=B_SPLINE_CURVE_WITH_KNOTS('',1,(#1420,#1421),.UNSPECIFIED.,.F.,.F.,
(2,2),(-0.359808377020775,0.),.UNSPECIFIED.);
#110=B_SPLINE_CURVE_WITH_KNOTS('',1,(#1422,#1423),.UNSPECIFIED.,.F.,.F.,
(2,2),(-0.359808377020775,0.),.UNSPECIFIED.);
#111=B_SPLINE_CURVE_WITH_KNOTS('',1,(#1424,#1425),.UNSPECIFIED.,.F.,.F.,
(2,2),(-2.032,0.),.UNSPECIFIED.);
#112=B_SPLINE_CURVE_WITH_KNOTS('',1,(#1426,#1427),.UNSPECIFIED.,.F.,.F.,
(2,2),(-0.20102460289201,0.),.UNSPECIFIED.);
#113=B_SPLINE_CURVE_WITH_KNOTS('',1,(#1428,#1429),.UNSPECIFIED.,.F.,.F.,
(2,2),(-0.20102460289201,0.),.UNSPECIFIED.);
#114=B_SPLINE_CURVE_WITH_KNOTS('',1,(#1430,#1431),.UNSPECIFIED.,.F.,.F.,
(2,2),(-2.032,0.),.UNSPECIFIED.);
#115=B_SPLINE_CURVE_WITH_KNOTS('',1,(#1432,#1433),.UNSPECIFIED.,.F.,.F.,
(2,2),(-0.449999999999999,0.),.UNSPECIFIED.);
#116=B_SPLINE_CURVE_WITH_KNOTS('',1,(#1434,#1435),.UNSPECIFIED.,.F.,.F.,
(2,2),(-0.449999999999999,0.),.UNSPECIFIED.);
#117=B_SPLINE_CURVE_WITH_KNOTS('',1,(#1436,#1437),.UNSPECIFIED.,.F.,.F.,
(2,2),(0.,2.032),.UNSPECIFIED.);
#118=B_SPLINE_CURVE_WITH_KNOTS('',1,(#1444,#1445),.UNSPECIFIED.,.F.,.F.,
(2,2),(-2.032,0.),.UNSPECIFIED.);
#119=B_SPLINE_CURVE_WITH_KNOTS('',1,(#1446,#1447),.UNSPECIFIED.,.F.,.F.,
(2,2),(-0.805365196995077,0.),.UNSPECIFIED.);
#120=B_SPLINE_CURVE_WITH_KNOTS('',1,(#1448,#1449),.UNSPECIFIED.,.F.,.F.,
(2,2),(-0.805365196995077,0.),.UNSPECIFIED.);
#121=B_SPLINE_CURVE_WITH_KNOTS('',1,(#1450,#1451),.UNSPECIFIED.,.F.,.F.,
(2,2),(-2.032,0.),.UNSPECIFIED.);
#122=B_SPLINE_CURVE_WITH_KNOTS('',1,(#1458,#1459),.UNSPECIFIED.,.F.,.F.,
(2,2),(-0.0253999999999905,0.),.UNSPECIFIED.);
#123=B_SPLINE_CURVE_WITH_KNOTS('',1,(#1460,#1461),.UNSPECIFIED.,.F.,.F.,
(2,2),(-2.032,0.),.UNSPECIFIED.);
#124=B_SPLINE_CURVE_WITH_KNOTS('',1,(#1462,#1463),.UNSPECIFIED.,.F.,.F.,
(2,2),(-0.0253999999999905,0.),.UNSPECIFIED.);
#125=B_SPLINE_CURVE_WITH_KNOTS('',1,(#1464,#1465),.UNSPECIFIED.,.F.,.F.,
(2,2),(-0.18334304700598,0.),.UNSPECIFIED.);
#126=B_SPLINE_CURVE_WITH_KNOTS('',1,(#1466,#1467),.UNSPECIFIED.,.F.,.F.,
(2,2),(-0.18334304700598,0.),.UNSPECIFIED.);
#127=B_SPLINE_CURVE_WITH_KNOTS('',1,(#1468,#1469),.UNSPECIFIED.,.F.,.F.,
(2,2),(-0.111606206164023,0.),.UNSPECIFIED.);
#128=B_SPLINE_CURVE_WITH_KNOTS('',1,(#1470,#1471),.UNSPECIFIED.,.F.,.F.,
(2,2),(-2.032,0.),.UNSPECIFIED.);
#129=B_SPLINE_CURVE_WITH_KNOTS('',1,(#1472,#1473),.UNSPECIFIED.,.F.,.F.,
(2,2),(-0.111606206164023,0.),.UNSPECIFIED.);
#130=B_SPLINE_CURVE_WITH_KNOTS('',1,(#1474,#1475),.UNSPECIFIED.,.F.,.F.,
(2,2),(0.,0.200857899109336),.UNSPECIFIED.);
#131=B_SPLINE_CURVE_WITH_KNOTS('',1,(#1476,#1477),.UNSPECIFIED.,.F.,.F.,
(2,2),(0.,0.200857899109335),.UNSPECIFIED.);
#132=COLOUR_RGB('',1.,1.,1.);
#133=COLOUR_RGB('',0.129411764705882,0.129411764705882,0.129411764705882);
#134=COLOUR_RGB('',0.901960784313726,0.901960784313726,0.901960784313726);
#135=COLOUR_RGB('',0.901960784313726,0.901960784313726,0.901960784313726);
#136=FILL_AREA_STYLE_COLOUR('',#132);
#137=FILL_AREA_STYLE_COLOUR('',#133);
#138=FILL_AREA_STYLE_COLOUR('',#134);
#139=FILL_AREA_STYLE_COLOUR('',#135);
#140=FILL_AREA_STYLE('',(#136));
#141=FILL_AREA_STYLE('',(#137));
#142=FILL_AREA_STYLE('',(#138));
#143=FILL_AREA_STYLE('',(#139));
#144=SURFACE_STYLE_FILL_AREA(#140);
#145=SURFACE_STYLE_FILL_AREA(#141);
#146=SURFACE_STYLE_FILL_AREA(#142);
#147=SURFACE_STYLE_FILL_AREA(#143);
#148=SURFACE_SIDE_STYLE('marking',(#144));
#149=SURFACE_SIDE_STYLE('case',(#145));
#150=SURFACE_SIDE_STYLE('leads',(#146));
#151=SURFACE_SIDE_STYLE('leads',(#147));
#152=SURFACE_STYLE_USAGE(.BOTH.,#148);
#153=SURFACE_STYLE_USAGE(.BOTH.,#149);
#154=SURFACE_STYLE_USAGE(.BOTH.,#150);
#155=SURFACE_STYLE_USAGE(.BOTH.,#151);
#156=MECHANICAL_DESIGN_GEOMETRIC_PRESENTATION_REPRESENTATION('',(#161,#162,
#163,#164),#832);
#157=PRESENTATION_STYLE_ASSIGNMENT((#152));
#158=PRESENTATION_STYLE_ASSIGNMENT((#153));
#159=PRESENTATION_STYLE_ASSIGNMENT((#154));
#160=PRESENTATION_STYLE_ASSIGNMENT((#155));
#161=STYLED_ITEM('',(#157),#169);
#162=STYLED_ITEM('',(#158),#170);
#163=STYLED_ITEM('',(#159),#171);
#164=STYLED_ITEM('',(#160),#172);
#165=PRESENTATION_LAYER_ASSIGNMENT('Default','',(#169));
#166=PRESENTATION_LAYER_ASSIGNMENT('Default','',(#170));
#167=PRESENTATION_LAYER_ASSIGNMENT('Default','',(#171));
#168=PRESENTATION_LAYER_ASSIGNMENT('Default','',(#172));
#169=SHELL_BASED_SURFACE_MODEL('marking',(#174));
#170=SHELL_BASED_SURFACE_MODEL('case',(#175));
#171=SHELL_BASED_SURFACE_MODEL('leads',(#176));
#172=SHELL_BASED_SURFACE_MODEL('leads',(#177));
#173=MANIFOLD_SURFACE_SHAPE_REPRESENTATION('shell_rep_0',(#169,#170,#171,
#172,#870),#832);
#174=OPEN_SHELL('',(#178));
#175=OPEN_SHELL('',(#179,#180,#181,#182,#183,#184,#185,#186,#187,#188,#189,
#190,#191,#192,#193,#194));
#176=OPEN_SHELL('',(#195,#196,#197,#198,#199,#200,#201,#202,#203,#204,#205,
#206,#207));
#177=OPEN_SHELL('',(#208,#209,#210,#211,#212,#213,#214,#215,#216,#217,#218,
#219,#220));
#178=ADVANCED_FACE('',(#221),#780,.T.);
#179=ADVANCED_FACE('',(#222),#781,.T.);
#180=ADVANCED_FACE('',(#223),#782,.T.);
#181=ADVANCED_FACE('',(#224),#783,.T.);
#182=ADVANCED_FACE('',(#225),#784,.T.);
#183=ADVANCED_FACE('',(#226,#19),#785,.T.);
#184=ADVANCED_FACE('',(#227),#786,.T.);
#185=ADVANCED_FACE('',(#228),#787,.T.);
#186=ADVANCED_FACE('',(#229),#788,.T.);
#187=ADVANCED_FACE('',(#230),#789,.T.);
#188=ADVANCED_FACE('',(#231),#790,.T.);
#189=ADVANCED_FACE('',(#232),#791,.T.);
#190=ADVANCED_FACE('',(#233),#792,.T.);
#191=ADVANCED_FACE('',(#234),#793,.T.);
#192=ADVANCED_FACE('',(#235),#794,.T.);
#193=ADVANCED_FACE('',(#236),#795,.T.);
#194=ADVANCED_FACE('',(#237),#796,.T.);
#195=ADVANCED_FACE('',(#238),#797,.T.);
#196=ADVANCED_FACE('',(#239),#11,.T.);
#197=ADVANCED_FACE('',(#240),#798,.T.);
#198=ADVANCED_FACE('',(#241),#799,.T.);
#199=ADVANCED_FACE('',(#242),#800,.T.);
#200=ADVANCED_FACE('',(#243),#12,.T.);
#201=ADVANCED_FACE('',(#244),#801,.T.);
#202=ADVANCED_FACE('',(#245),#13,.T.);
#203=ADVANCED_FACE('',(#246),#14,.T.);
#204=ADVANCED_FACE('',(#247),#802,.T.);
#205=ADVANCED_FACE('',(#248),#803,.T.);
#206=ADVANCED_FACE('',(#249),#804,.T.);
#207=ADVANCED_FACE('',(#250),#805,.T.);
#208=ADVANCED_FACE('',(#251),#15,.T.);
#209=ADVANCED_FACE('',(#252),#806,.T.);
#210=ADVANCED_FACE('',(#253),#16,.T.);
#211=ADVANCED_FACE('',(#254),#807,.T.);
#212=ADVANCED_FACE('',(#255),#808,.T.);
#213=ADVANCED_FACE('',(#256),#809,.T.);
#214=ADVANCED_FACE('',(#257),#17,.T.);
#215=ADVANCED_FACE('',(#258),#810,.T.);
#216=ADVANCED_FACE('',(#259),#18,.T.);
#217=ADVANCED_FACE('',(#260),#811,.T.);
#218=ADVANCED_FACE('',(#261),#812,.T.);
#219=ADVANCED_FACE('',(#262),#813,.T.);
#220=ADVANCED_FACE('',(#263),#814,.T.);
#221=FACE_OUTER_BOUND('',#264,.T.);
#222=FACE_OUTER_BOUND('',#265,.T.);
#223=FACE_OUTER_BOUND('',#266,.T.);
#224=FACE_OUTER_BOUND('',#267,.T.);
#225=FACE_OUTER_BOUND('',#268,.T.);
#226=FACE_OUTER_BOUND('',#269,.T.);
#227=FACE_OUTER_BOUND('',#271,.T.);
#228=FACE_OUTER_BOUND('',#272,.T.);
#229=FACE_OUTER_BOUND('',#273,.T.);
#230=FACE_OUTER_BOUND('',#274,.T.);
#231=FACE_OUTER_BOUND('',#275,.T.);
#232=FACE_OUTER_BOUND('',#276,.T.);
#233=FACE_OUTER_BOUND('',#277,.T.);
#234=FACE_OUTER_BOUND('',#278,.T.);
#235=FACE_OUTER_BOUND('',#279,.T.);
#236=FACE_OUTER_BOUND('',#280,.T.);
#237=FACE_OUTER_BOUND('',#281,.T.);
#238=FACE_OUTER_BOUND('',#282,.T.);
#239=FACE_OUTER_BOUND('',#283,.T.);
#240=FACE_OUTER_BOUND('',#284,.T.);
#241=FACE_OUTER_BOUND('',#285,.T.);
#242=FACE_OUTER_BOUND('',#286,.T.);
#243=FACE_OUTER_BOUND('',#287,.T.);
#244=FACE_OUTER_BOUND('',#288,.T.);
#245=FACE_OUTER_BOUND('',#289,.T.);
#246=FACE_OUTER_BOUND('',#290,.T.);
#247=FACE_OUTER_BOUND('',#291,.T.);
#248=FACE_OUTER_BOUND('',#292,.T.);
#249=FACE_OUTER_BOUND('',#293,.T.);
#250=FACE_OUTER_BOUND('',#294,.T.);
#251=FACE_OUTER_BOUND('',#295,.T.);
#252=FACE_OUTER_BOUND('',#296,.T.);
#253=FACE_OUTER_BOUND('',#297,.T.);
#254=FACE_OUTER_BOUND('',#298,.T.);
#255=FACE_OUTER_BOUND('',#299,.T.);
#256=FACE_OUTER_BOUND('',#300,.T.);
#257=FACE_OUTER_BOUND('',#301,.T.);
#258=FACE_OUTER_BOUND('',#302,.T.);
#259=FACE_OUTER_BOUND('',#303,.T.);
#260=FACE_OUTER_BOUND('',#304,.T.);
#261=FACE_OUTER_BOUND('',#305,.T.);
#262=FACE_OUTER_BOUND('',#306,.T.);
#263=FACE_OUTER_BOUND('',#307,.T.);
#264=EDGE_LOOP('',(#308));
#265=EDGE_LOOP('',(#309,#310,#311,#312));
#266=EDGE_LOOP('',(#313,#314,#315,#316));
#267=EDGE_LOOP('',(#317,#318,#319,#320));
#268=EDGE_LOOP('',(#321,#322,#323,#324));
#269=EDGE_LOOP('',(#325,#326,#327,#328));
#270=EDGE_LOOP('',(#329));
#271=EDGE_LOOP('',(#330,#331,#332,#333,#334,#335,#336,#337,#338,#339,#340,
#341));
#272=EDGE_LOOP('',(#342,#343,#344,#345));
#273=EDGE_LOOP('',(#346,#347,#348,#349,#350,#351,#352,#353,#354,#355,#356,
#357));
#274=EDGE_LOOP('',(#358,#359,#360,#361));
#275=EDGE_LOOP('',(#362,#363,#364,#365,#366,#367,#368,#369));
#276=EDGE_LOOP('',(#370,#371,#372,#373));
#277=EDGE_LOOP('',(#374,#375,#376,#377,#378,#379));
#278=EDGE_LOOP('',(#380,#381,#382,#383,#384,#385));
#279=EDGE_LOOP('',(#386,#387,#388,#389));
#280=EDGE_LOOP('',(#390,#391,#392,#393,#394,#395,#396,#397));
#281=EDGE_LOOP('',(#398,#399,#400,#401));
#282=EDGE_LOOP('',(#402,#403,#404,#405));
#283=EDGE_LOOP('',(#406,#407,#408,#409));
#284=EDGE_LOOP('',(#410,#411,#412,#413));
#285=EDGE_LOOP('',(#414,#415,#416,#417));
#286=EDGE_LOOP('',(#418,#419,#420,#421));
#287=EDGE_LOOP('',(#422,#423,#424,#425));
#288=EDGE_LOOP('',(#426,#427,#428,#429));
#289=EDGE_LOOP('',(#430,#431,#432,#433));
#290=EDGE_LOOP('',(#434,#435,#436,#437));
#291=EDGE_LOOP('',(#438,#439,#440,#441,#442,#443,#444,#445,#446,#447,#448,
#449));
#292=EDGE_LOOP('',(#450,#451,#452,#453,#454,#455,#456,#457,#458,#459,#460,
#461));
#293=EDGE_LOOP('',(#462,#463,#464,#465));
#294=EDGE_LOOP('',(#466,#467,#468,#469,#470,#471));
#295=EDGE_LOOP('',(#472,#473,#474,#475));
#296=EDGE_LOOP('',(#476,#477,#478,#479));
#297=EDGE_LOOP('',(#480,#481,#482,#483));
#298=EDGE_LOOP('',(#484,#485,#486,#487));
#299=EDGE_LOOP('',(#488,#489,#490,#491));
#300=EDGE_LOOP('',(#492,#493,#494,#495));
#301=EDGE_LOOP('',(#496,#497,#498,#499));
#302=EDGE_LOOP('',(#500,#501,#502,#503));
#303=EDGE_LOOP('',(#504,#505,#506,#507));
#304=EDGE_LOOP('',(#508,#509,#510,#511,#512,#513));
#305=EDGE_LOOP('',(#514,#515,#516,#517));
#306=EDGE_LOOP('',(#518,#519,#520,#521,#522,#523,#524,#525,#526,#527,#528,
#529));
#307=EDGE_LOOP('',(#530,#531,#532,#533,#534,#535,#536,#537,#538,#539,#540,
#541));
#308=ORIENTED_EDGE('',*,*,#542,.F.);
#309=ORIENTED_EDGE('',*,*,#544,.F.);
#310=ORIENTED_EDGE('',*,*,#545,.F.);
#311=ORIENTED_EDGE('',*,*,#546,.F.);
#312=ORIENTED_EDGE('',*,*,#543,.F.);
#313=ORIENTED_EDGE('',*,*,#546,.T.);
#314=ORIENTED_EDGE('',*,*,#548,.F.);
#315=ORIENTED_EDGE('',*,*,#549,.F.);
#316=ORIENTED_EDGE('',*,*,#547,.F.);
#317=ORIENTED_EDGE('',*,*,#549,.T.);
#318=ORIENTED_EDGE('',*,*,#551,.F.);
#319=ORIENTED_EDGE('',*,*,#552,.F.);
#320=ORIENTED_EDGE('',*,*,#550,.F.);
#321=ORIENTED_EDGE('',*,*,#552,.T.);
#322=ORIENTED_EDGE('',*,*,#554,.F.);
#323=ORIENTED_EDGE('',*,*,#555,.F.);
#324=ORIENTED_EDGE('',*,*,#553,.F.);
#325=ORIENTED_EDGE('',*,*,#556,.T.);
#326=ORIENTED_EDGE('',*,*,#558,.F.);
#327=ORIENTED_EDGE('',*,*,#559,.F.);
#328=ORIENTED_EDGE('',*,*,#557,.F.);
#329=ORIENTED_EDGE('',*,*,#595,.T.);
#330=ORIENTED_EDGE('',*,*,#560,.T.);
#331=ORIENTED_EDGE('',*,*,#582,.T.);
#332=ORIENTED_EDGE('',*,*,#557,.T.);
#333=ORIENTED_EDGE('',*,*,#578,.F.);
#334=ORIENTED_EDGE('',*,*,#561,.F.);
#335=ORIENTED_EDGE('',*,*,#574,.F.);
#336=ORIENTED_EDGE('',*,*,#562,.F.);
#337=ORIENTED_EDGE('',*,*,#543,.T.);
#338=ORIENTED_EDGE('',*,*,#547,.T.);
#339=ORIENTED_EDGE('',*,*,#550,.T.);
#340=ORIENTED_EDGE('',*,*,#553,.T.);
#341=ORIENTED_EDGE('',*,*,#589,.T.);
#342=ORIENTED_EDGE('',*,*,#563,.F.);
#343=ORIENTED_EDGE('',*,*,#564,.F.);
#344=ORIENTED_EDGE('',*,*,#544,.T.);
#345=ORIENTED_EDGE('',*,*,#562,.T.);
#346=ORIENTED_EDGE('',*,*,#590,.T.);
#347=ORIENTED_EDGE('',*,*,#554,.T.);
#348=ORIENTED_EDGE('',*,*,#551,.T.);
#349=ORIENTED_EDGE('',*,*,#548,.T.);
#350=ORIENTED_EDGE('',*,*,#545,.T.);
#351=ORIENTED_EDGE('',*,*,#564,.T.);
#352=ORIENTED_EDGE('',*,*,#573,.T.);
#353=ORIENTED_EDGE('',*,*,#566,.T.);
#354=ORIENTED_EDGE('',*,*,#579,.T.);
#355=ORIENTED_EDGE('',*,*,#558,.T.);
#356=ORIENTED_EDGE('',*,*,#583,.T.);
#357=ORIENTED_EDGE('',*,*,#565,.T.);
#358=ORIENTED_EDGE('',*,*,#568,.F.);
#359=ORIENTED_EDGE('',*,*,#566,.F.);
#360=ORIENTED_EDGE('',*,*,#569,.F.);
#361=ORIENTED_EDGE('',*,*,#567,.F.);
#362=ORIENTED_EDGE('',*,*,#571,.F.);
#363=ORIENTED_EDGE('',*,*,#572,.F.);
#364=ORIENTED_EDGE('',*,*,#569,.T.);
#365=ORIENTED_EDGE('',*,*,#573,.F.);
#366=ORIENTED_EDGE('',*,*,#563,.T.);
#367=ORIENTED_EDGE('',*,*,#574,.T.);
#368=ORIENTED_EDGE('',*,*,#575,.F.);
#369=ORIENTED_EDGE('',*,*,#570,.F.);
#370=ORIENTED_EDGE('',*,*,#575,.T.);
#371=ORIENTED_EDGE('',*,*,#561,.T.);
#372=ORIENTED_EDGE('',*,*,#577,.F.);
#373=ORIENTED_EDGE('',*,*,#576,.F.);
#374=ORIENTED_EDGE('',*,*,#559,.T.);
#375=ORIENTED_EDGE('',*,*,#579,.F.);
#376=ORIENTED_EDGE('',*,*,#568,.T.);
#377=ORIENTED_EDGE('',*,*,#580,.F.);
#378=ORIENTED_EDGE('',*,*,#577,.T.);
#379=ORIENTED_EDGE('',*,*,#578,.T.);
#380=ORIENTED_EDGE('',*,*,#594,.T.);
#381=ORIENTED_EDGE('',*,*,#592,.T.);
#382=ORIENTED_EDGE('',*,*,#581,.T.);
#383=ORIENTED_EDGE('',*,*,#583,.F.);
#384=ORIENTED_EDGE('',*,*,#556,.F.);
#385=ORIENTED_EDGE('',*,*,#582,.F.);
#386=ORIENTED_EDGE('',*,*,#585,.F.);
#387=ORIENTED_EDGE('',*,*,#565,.F.);
#388=ORIENTED_EDGE('',*,*,#581,.F.);
#389=ORIENTED_EDGE('',*,*,#584,.T.);
#390=ORIENTED_EDGE('',*,*,#587,.T.);
#391=ORIENTED_EDGE('',*,*,#589,.F.);
#392=ORIENTED_EDGE('',*,*,#555,.T.);
#393=ORIENTED_EDGE('',*,*,#590,.F.);
#394=ORIENTED_EDGE('',*,*,#585,.T.);
#395=ORIENTED_EDGE('',*,*,#591,.T.);
#396=ORIENTED_EDGE('',*,*,#586,.T.);
#397=ORIENTED_EDGE('',*,*,#588,.T.);
#398=ORIENTED_EDGE('',*,*,#594,.F.);
#399=ORIENTED_EDGE('',*,*,#560,.F.);
#400=ORIENTED_EDGE('',*,*,#587,.F.);
#401=ORIENTED_EDGE('',*,*,#593,.T.);
#402=ORIENTED_EDGE('',*,*,#596,.T.);
#403=ORIENTED_EDGE('',*,*,#597,.T.);
#404=ORIENTED_EDGE('',*,*,#598,.T.);
#405=ORIENTED_EDGE('',*,*,#599,.T.);
#406=ORIENTED_EDGE('',*,*,#601,.F.);
#407=ORIENTED_EDGE('',*,*,#599,.F.);
#408=ORIENTED_EDGE('',*,*,#602,.F.);
#409=ORIENTED_EDGE('',*,*,#600,.F.);
#410=ORIENTED_EDGE('',*,*,#604,.F.);
#411=ORIENTED_EDGE('',*,*,#600,.T.);
#412=ORIENTED_EDGE('',*,*,#605,.F.);
#413=ORIENTED_EDGE('',*,*,#603,.F.);
#414=ORIENTED_EDGE('',*,*,#607,.F.);
#415=ORIENTED_EDGE('',*,*,#603,.T.);
#416=ORIENTED_EDGE('',*,*,#608,.F.);
#417=ORIENTED_EDGE('',*,*,#606,.F.);
#418=ORIENTED_EDGE('',*,*,#610,.F.);
#419=ORIENTED_EDGE('',*,*,#606,.T.);
#420=ORIENTED_EDGE('',*,*,#611,.F.);
#421=ORIENTED_EDGE('',*,*,#609,.F.);
#422=ORIENTED_EDGE('',*,*,#612,.T.);
#423=ORIENTED_EDGE('',*,*,#609,.T.);
#424=ORIENTED_EDGE('',*,*,#613,.T.);
#425=ORIENTED_EDGE('',*,*,#614,.T.);
#426=ORIENTED_EDGE('',*,*,#615,.T.);
#427=ORIENTED_EDGE('',*,*,#614,.F.);
#428=ORIENTED_EDGE('',*,*,#616,.T.);
#429=ORIENTED_EDGE('',*,*,#617,.T.);
#430=ORIENTED_EDGE('',*,*,#617,.F.);
#431=ORIENTED_EDGE('',*,*,#619,.F.);
#432=ORIENTED_EDGE('',*,*,#620,.F.);
#433=ORIENTED_EDGE('',*,*,#618,.F.);
#434=ORIENTED_EDGE('',*,*,#597,.F.);
#435=ORIENTED_EDGE('',*,*,#621,.T.);
#436=ORIENTED_EDGE('',*,*,#622,.T.);
#437=ORIENTED_EDGE('',*,*,#623,.T.);
#438=ORIENTED_EDGE('',*,*,#626,.F.);
#439=ORIENTED_EDGE('',*,*,#619,.T.);
#440=ORIENTED_EDGE('',*,*,#616,.F.);
#441=ORIENTED_EDGE('',*,*,#613,.F.);
#442=ORIENTED_EDGE('',*,*,#611,.T.);
#443=ORIENTED_EDGE('',*,*,#608,.T.);
#444=ORIENTED_EDGE('',*,*,#605,.T.);
#445=ORIENTED_EDGE('',*,*,#602,.T.);
#446=ORIENTED_EDGE('',*,*,#598,.F.);
#447=ORIENTED_EDGE('',*,*,#623,.F.);
#448=ORIENTED_EDGE('',*,*,#625,.F.);
#449=ORIENTED_EDGE('',*,*,#624,.T.);
#450=ORIENTED_EDGE('',*,*,#628,.F.);
#451=ORIENTED_EDGE('',*,*,#621,.F.);
#452=ORIENTED_EDGE('',*,*,#596,.F.);
#453=ORIENTED_EDGE('',*,*,#601,.T.);
#454=ORIENTED_EDGE('',*,*,#604,.T.);
#455=ORIENTED_EDGE('',*,*,#607,.T.);
#456=ORIENTED_EDGE('',*,*,#610,.T.);
#457=ORIENTED_EDGE('',*,*,#612,.F.);
#458=ORIENTED_EDGE('',*,*,#615,.F.);
#459=ORIENTED_EDGE('',*,*,#618,.T.);
#460=ORIENTED_EDGE('',*,*,#629,.F.);
#461=ORIENTED_EDGE('',*,*,#627,.T.);
#462=ORIENTED_EDGE('',*,*,#629,.T.);
#463=ORIENTED_EDGE('',*,*,#620,.T.);
#464=ORIENTED_EDGE('',*,*,#626,.T.);
#465=ORIENTED_EDGE('',*,*,#630,.T.);
#466=ORIENTED_EDGE('',*,*,#632,.T.);
#467=ORIENTED_EDGE('',*,*,#633,.T.);
#468=ORIENTED_EDGE('',*,*,#631,.T.);
#469=ORIENTED_EDGE('',*,*,#625,.T.);
#470=ORIENTED_EDGE('',*,*,#622,.F.);
#471=ORIENTED_EDGE('',*,*,#628,.T.);
#472=ORIENTED_EDGE('',*,*,#634,.T.);
#473=ORIENTED_EDGE('',*,*,#635,.T.);
#474=ORIENTED_EDGE('',*,*,#636,.T.);
#475=ORIENTED_EDGE('',*,*,#637,.T.);
#476=ORIENTED_EDGE('',*,*,#639,.F.);
#477=ORIENTED_EDGE('',*,*,#634,.F.);
#478=ORIENTED_EDGE('',*,*,#640,.F.);
#479=ORIENTED_EDGE('',*,*,#638,.F.);
#480=ORIENTED_EDGE('',*,*,#642,.F.);
#481=ORIENTED_EDGE('',*,*,#638,.T.);
#482=ORIENTED_EDGE('',*,*,#643,.F.);
#483=ORIENTED_EDGE('',*,*,#641,.F.);
#484=ORIENTED_EDGE('',*,*,#645,.F.);
#485=ORIENTED_EDGE('',*,*,#641,.T.);
#486=ORIENTED_EDGE('',*,*,#646,.F.);
#487=ORIENTED_EDGE('',*,*,#644,.F.);
#488=ORIENTED_EDGE('',*,*,#648,.F.);
#489=ORIENTED_EDGE('',*,*,#644,.T.);
#490=ORIENTED_EDGE('',*,*,#649,.F.);
#491=ORIENTED_EDGE('',*,*,#647,.F.);
#492=ORIENTED_EDGE('',*,*,#651,.F.);
#493=ORIENTED_EDGE('',*,*,#647,.T.);
#494=ORIENTED_EDGE('',*,*,#652,.F.);
#495=ORIENTED_EDGE('',*,*,#650,.F.);
#496=ORIENTED_EDGE('',*,*,#653,.T.);
#497=ORIENTED_EDGE('',*,*,#654,.T.);
#498=ORIENTED_EDGE('',*,*,#650,.T.);
#499=ORIENTED_EDGE('',*,*,#655,.T.);
#500=ORIENTED_EDGE('',*,*,#657,.F.);
#501=ORIENTED_EDGE('',*,*,#653,.F.);
#502=ORIENTED_EDGE('',*,*,#658,.F.);
#503=ORIENTED_EDGE('',*,*,#656,.F.);
#504=ORIENTED_EDGE('',*,*,#660,.F.);
#505=ORIENTED_EDGE('',*,*,#656,.T.);
#506=ORIENTED_EDGE('',*,*,#661,.F.);
#507=ORIENTED_EDGE('',*,*,#659,.F.);
#508=ORIENTED_EDGE('',*,*,#663,.F.);
#509=ORIENTED_EDGE('',*,*,#664,.F.);
#510=ORIENTED_EDGE('',*,*,#665,.F.);
#511=ORIENTED_EDGE('',*,*,#636,.F.);
#512=ORIENTED_EDGE('',*,*,#666,.F.);
#513=ORIENTED_EDGE('',*,*,#662,.F.);
#514=ORIENTED_EDGE('',*,*,#668,.F.);
#515=ORIENTED_EDGE('',*,*,#669,.F.);
#516=ORIENTED_EDGE('',*,*,#659,.T.);
#517=ORIENTED_EDGE('',*,*,#667,.F.);
#518=ORIENTED_EDGE('',*,*,#670,.F.);
#519=ORIENTED_EDGE('',*,*,#666,.T.);
#520=ORIENTED_EDGE('',*,*,#635,.F.);
#521=ORIENTED_EDGE('',*,*,#639,.T.);
#522=ORIENTED_EDGE('',*,*,#642,.T.);
#523=ORIENTED_EDGE('',*,*,#645,.T.);
#524=ORIENTED_EDGE('',*,*,#648,.T.);
#525=ORIENTED_EDGE('',*,*,#651,.T.);
#526=ORIENTED_EDGE('',*,*,#654,.F.);
#527=ORIENTED_EDGE('',*,*,#657,.T.);
#528=ORIENTED_EDGE('',*,*,#660,.T.);
#529=ORIENTED_EDGE('',*,*,#669,.T.);
#530=ORIENTED_EDGE('',*,*,#671,.F.);
#531=ORIENTED_EDGE('',*,*,#667,.T.);
#532=ORIENTED_EDGE('',*,*,#661,.T.);
#533=ORIENTED_EDGE('',*,*,#658,.T.);
#534=ORIENTED_EDGE('',*,*,#655,.F.);
#535=ORIENTED_EDGE('',*,*,#652,.T.);
#536=ORIENTED_EDGE('',*,*,#649,.T.);
#537=ORIENTED_EDGE('',*,*,#646,.T.);
#538=ORIENTED_EDGE('',*,*,#643,.T.);
#539=ORIENTED_EDGE('',*,*,#640,.T.);
#540=ORIENTED_EDGE('',*,*,#637,.F.);
#541=ORIENTED_EDGE('',*,*,#665,.T.);
#542=EDGE_CURVE('',#690,#690,#672,.T.);
#543=EDGE_CURVE('',#691,#692,#20,.T.);
#544=EDGE_CURVE('',#693,#691,#21,.T.);
#545=EDGE_CURVE('',#694,#693,#22,.T.);
#546=EDGE_CURVE('',#692,#694,#23,.T.);
#547=EDGE_CURVE('',#692,#695,#24,.T.);
#548=EDGE_CURVE('',#696,#694,#25,.T.);
#549=EDGE_CURVE('',#695,#696,#26,.T.);
#550=EDGE_CURVE('',#695,#697,#27,.T.);
#551=EDGE_CURVE('',#698,#696,#28,.T.);
#552=EDGE_CURVE('',#697,#698,#29,.T.);
#553=EDGE_CURVE('',#697,#699,#30,.T.);
#554=EDGE_CURVE('',#700,#698,#31,.T.);
#555=EDGE_CURVE('',#699,#700,#32,.T.);
#556=EDGE_CURVE('',#701,#702,#33,.T.);
#557=EDGE_CURVE('',#701,#703,#34,.T.);
#558=EDGE_CURVE('',#704,#702,#35,.T.);
#559=EDGE_CURVE('',#703,#704,#36,.T.);
#560=EDGE_CURVE('',#706,#705,#37,.T.);
#561=EDGE_CURVE('',#708,#707,#38,.T.);
#562=EDGE_CURVE('',#691,#709,#39,.T.);
#563=EDGE_CURVE('',#710,#709,#40,.T.);
#564=EDGE_CURVE('',#693,#710,#41,.T.);
#565=EDGE_CURVE('',#712,#711,#42,.T.);
#566=EDGE_CURVE('',#713,#714,#43,.T.);
#567=EDGE_CURVE('',#715,#716,#44,.T.);
#568=EDGE_CURVE('',#714,#715,#45,.T.);
#569=EDGE_CURVE('',#716,#713,#46,.T.);
#570=EDGE_CURVE('',#717,#718,#47,.T.);
#571=EDGE_CURVE('',#719,#717,#48,.T.);
#572=EDGE_CURVE('',#716,#719,#49,.T.);
#573=EDGE_CURVE('',#710,#713,#50,.T.);
#574=EDGE_CURVE('',#709,#708,#51,.T.);
#575=EDGE_CURVE('',#718,#708,#52,.T.);
#576=EDGE_CURVE('',#718,#720,#53,.T.);
#577=EDGE_CURVE('',#720,#707,#54,.T.);
#578=EDGE_CURVE('',#707,#703,#55,.T.);
#579=EDGE_CURVE('',#714,#704,#56,.T.);
#580=EDGE_CURVE('',#720,#715,#57,.T.);
#581=EDGE_CURVE('',#721,#712,#58,.T.);
#582=EDGE_CURVE('',#705,#701,#59,.T.);
#583=EDGE_CURVE('',#702,#712,#60,.T.);
#584=EDGE_CURVE('',#721,#722,#61,.T.);
#585=EDGE_CURVE('',#711,#722,#62,.T.);
#586=EDGE_CURVE('',#725,#724,#63,.T.);
#587=EDGE_CURVE('',#723,#706,#64,.T.);
#588=EDGE_CURVE('',#724,#723,#65,.T.);
#589=EDGE_CURVE('',#699,#706,#66,.T.);
#590=EDGE_CURVE('',#711,#700,#67,.T.);
#591=EDGE_CURVE('',#722,#725,#68,.T.);
#592=EDGE_CURVE('',#726,#721,#69,.T.);
#593=EDGE_CURVE('',#723,#726,#70,.T.);
#594=EDGE_CURVE('',#705,#726,#71,.T.);
#595=EDGE_CURVE('',#727,#727,#673,.T.);
#596=EDGE_CURVE('',#728,#729,#72,.T.);
#597=EDGE_CURVE('',#729,#730,#73,.T.);
#598=EDGE_CURVE('',#730,#731,#74,.T.);
#599=EDGE_CURVE('',#731,#728,#75,.T.);
#600=EDGE_CURVE('',#732,#733,#76,.T.);
#601=EDGE_CURVE('',#728,#732,#674,.T.);
#602=EDGE_CURVE('',#733,#731,#675,.T.);
#603=EDGE_CURVE('',#734,#735,#77,.T.);
#604=EDGE_CURVE('',#732,#734,#78,.T.);
#605=EDGE_CURVE('',#735,#733,#79,.T.);
#606=EDGE_CURVE('',#736,#737,#80,.T.);
#607=EDGE_CURVE('',#734,#736,#81,.T.);
#608=EDGE_CURVE('',#737,#735,#82,.T.);
#609=EDGE_CURVE('',#738,#739,#83,.T.);
#610=EDGE_CURVE('',#736,#738,#84,.T.);
#611=EDGE_CURVE('',#739,#737,#85,.T.);
#612=EDGE_CURVE('',#740,#738,#676,.T.);
#613=EDGE_CURVE('',#739,#741,#677,.T.);
#614=EDGE_CURVE('',#741,#740,#86,.T.);
#615=EDGE_CURVE('',#742,#740,#87,.T.);
#616=EDGE_CURVE('',#741,#743,#88,.T.);
#617=EDGE_CURVE('',#743,#742,#89,.T.);
#618=EDGE_CURVE('',#742,#744,#678,.T.);
#619=EDGE_CURVE('',#745,#743,#679,.T.);
#620=EDGE_CURVE('',#744,#745,#90,.T.);
#621=EDGE_CURVE('',#729,#746,#680,.T.);
#622=EDGE_CURVE('',#746,#747,#91,.T.);
#623=EDGE_CURVE('',#747,#730,#681,.T.);
#624=EDGE_CURVE('',#748,#749,#92,.T.);
#625=EDGE_CURVE('',#748,#747,#93,.T.);
#626=EDGE_CURVE('',#745,#749,#94,.T.);
#627=EDGE_CURVE('',#750,#751,#95,.T.);
#628=EDGE_CURVE('',#746,#751,#96,.T.);
#629=EDGE_CURVE('',#750,#744,#97,.T.);
#630=EDGE_CURVE('',#749,#750,#98,.T.);
#631=EDGE_CURVE('',#752,#748,#99,.T.);
#632=EDGE_CURVE('',#751,#753,#100,.T.);
#633=EDGE_CURVE('',#753,#752,#101,.T.);
#634=EDGE_CURVE('',#754,#755,#102,.T.);
#635=EDGE_CURVE('',#755,#756,#682,.T.);
#636=EDGE_CURVE('',#756,#757,#103,.T.);
#637=EDGE_CURVE('',#757,#754,#683,.T.);
#638=EDGE_CURVE('',#758,#759,#104,.T.);
#639=EDGE_CURVE('',#755,#758,#105,.T.);
#640=EDGE_CURVE('',#759,#754,#106,.T.);
#641=EDGE_CURVE('',#760,#761,#107,.T.);
#642=EDGE_CURVE('',#758,#760,#684,.T.);
#643=EDGE_CURVE('',#761,#759,#685,.T.);
#644=EDGE_CURVE('',#762,#763,#108,.T.);
#645=EDGE_CURVE('',#760,#762,#109,.T.);
#646=EDGE_CURVE('',#763,#761,#110,.T.);
#647=EDGE_CURVE('',#764,#765,#111,.T.);
#648=EDGE_CURVE('',#762,#764,#112,.T.);
#649=EDGE_CURVE('',#765,#763,#113,.T.);
#650=EDGE_CURVE('',#766,#767,#114,.T.);
#651=EDGE_CURVE('',#764,#766,#115,.T.);
#652=EDGE_CURVE('',#767,#765,#116,.T.);
#653=EDGE_CURVE('',#768,#769,#117,.T.);
#654=EDGE_CURVE('',#769,#766,#686,.T.);
#655=EDGE_CURVE('',#767,#768,#687,.T.);
#656=EDGE_CURVE('',#770,#771,#118,.T.);
#657=EDGE_CURVE('',#769,#770,#119,.T.);
#658=EDGE_CURVE('',#771,#768,#120,.T.);
#659=EDGE_CURVE('',#772,#773,#121,.T.);
#660=EDGE_CURVE('',#770,#772,#688,.T.);
#661=EDGE_CURVE('',#773,#771,#689,.T.);
#662=EDGE_CURVE('',#774,#775,#122,.T.);
#663=EDGE_CURVE('',#776,#774,#123,.T.);
#664=EDGE_CURVE('',#777,#776,#124,.T.);
#665=EDGE_CURVE('',#757,#777,#125,.T.);
#666=EDGE_CURVE('',#775,#756,#126,.T.);
#667=EDGE_CURVE('',#778,#773,#127,.T.);
#668=EDGE_CURVE('',#779,#778,#128,.T.);
#669=EDGE_CURVE('',#772,#779,#129,.T.);
#670=EDGE_CURVE('',#775,#779,#130,.T.);
#671=EDGE_CURVE('',#778,#777,#131,.T.);
#672=(
BOUNDED_CURVE()
B_SPLINE_CURVE(2,(#913,#914,#915,#916,#917,#918,#919,#920,#921,#922,#923,
#924,#925),.UNSPECIFIED.,.T.,.F.)
B_SPLINE_CURVE_WITH_KNOTS((3,2,2,2,2,2,3),(-3.056,-0.499999999999999,-0.107300918301275,
0.285398163397449,2.84139816339745,3.23409724509617,3.6267963267949),
 .UNSPECIFIED.)
CURVE()
GEOMETRIC_REPRESENTATION_ITEM()
RATIONAL_B_SPLINE_CURVE((1.,1.,1.,0.707106781186548,1.,0.707106781186548,
1.,1.,1.,0.707106781186548,1.,0.707106781186548,1.))
REPRESENTATION_ITEM('')
);
#673=(
BOUNDED_CURVE()
B_SPLINE_CURVE(2,(#1083,#1084,#1085,#1086,#1087,#1088,#1089,#1090,#1091,
#1092,#1093,#1094,#1095),.UNSPECIFIED.,.T.,.F.)
B_SPLINE_CURVE_WITH_KNOTS((3,2,2,2,2,2,3),(-3.056,-0.499999999999999,-0.107300918301275,
0.285398163397449,2.84139816339745,3.23409724509617,3.6267963267949),
 .UNSPECIFIED.)
CURVE()
GEOMETRIC_REPRESENTATION_ITEM()
RATIONAL_B_SPLINE_CURVE((1.,1.,1.,0.707106781186548,1.,0.707106781186548,
1.,1.,1.,0.707106781186548,1.,0.707106781186548,1.))
REPRESENTATION_ITEM('')
);
#674=(
BOUNDED_CURVE()
B_SPLINE_CURVE(2,(#1213,#1214,#1215),.UNSPECIFIED.,.F.,.F.)
B_SPLINE_CURVE_WITH_KNOTS((3,3),(-0.148352986419519,0.),.UNSPECIFIED.)
CURVE()
GEOMETRIC_REPRESENTATION_ITEM()
RATIONAL_B_SPLINE_CURVE((1.,0.737277336810128,1.))
REPRESENTATION_ITEM('')
);
#675=(
BOUNDED_CURVE()
B_SPLINE_CURVE(2,(#1216,#1217,#1218),.UNSPECIFIED.,.F.,.F.)
B_SPLINE_CURVE_WITH_KNOTS((3,3),(-0.148352986419516,0.),.UNSPECIFIED.)
CURVE()
GEOMETRIC_REPRESENTATION_ITEM()
RATIONAL_B_SPLINE_CURVE((1.,0.737277336810114,1.))
REPRESENTATION_ITEM('')
);
#676=(
BOUNDED_CURVE()
B_SPLINE_CURVE(2,(#1237,#1238,#1239),.UNSPECIFIED.,.F.,.F.)
B_SPLINE_CURVE_WITH_KNOTS((3,3),(0.,0.296705972839034),.UNSPECIFIED.)
CURVE()
GEOMETRIC_REPRESENTATION_ITEM()
RATIONAL_B_SPLINE_CURVE((1.,0.737277336810127,1.))
REPRESENTATION_ITEM('')
);
#677=(
BOUNDED_CURVE()
B_SPLINE_CURVE(2,(#1240,#1241,#1242),.UNSPECIFIED.,.F.,.F.)
B_SPLINE_CURVE_WITH_KNOTS((3,3),(0.,0.296705972839035),.UNSPECIFIED.)
CURVE()
GEOMETRIC_REPRESENTATION_ITEM()
RATIONAL_B_SPLINE_CURVE((1.,0.737277336810125,1.))
REPRESENTATION_ITEM('')
);
#678=(
BOUNDED_CURVE()
B_SPLINE_CURVE(2,(#1251,#1252,#1253),.UNSPECIFIED.,.F.,.F.)
B_SPLINE_CURVE_WITH_KNOTS((3,3),(-0.148352986419518,0.),.UNSPECIFIED.)
CURVE()
GEOMETRIC_REPRESENTATION_ITEM()
RATIONAL_B_SPLINE_CURVE((1.,0.737277336810137,1.))
REPRESENTATION_ITEM('')
);
#679=(
BOUNDED_CURVE()
B_SPLINE_CURVE(2,(#1254,#1255,#1256),.UNSPECIFIED.,.F.,.F.)
B_SPLINE_CURVE_WITH_KNOTS((3,3),(-0.148352986419517,0.),.UNSPECIFIED.)
CURVE()
GEOMETRIC_REPRESENTATION_ITEM()
RATIONAL_B_SPLINE_CURVE((1.,0.737277336810119,1.))
REPRESENTATION_ITEM('')
);
#680=(
BOUNDED_CURVE()
B_SPLINE_CURVE(2,(#1259,#1260,#1261),.UNSPECIFIED.,.F.,.F.)
B_SPLINE_CURVE_WITH_KNOTS((3,3),(0.,0.296705972839035),.UNSPECIFIED.)
CURVE()
GEOMETRIC_REPRESENTATION_ITEM()
RATIONAL_B_SPLINE_CURVE((1.,0.737277336810125,1.))
REPRESENTATION_ITEM('')
);
#681=(
BOUNDED_CURVE()
B_SPLINE_CURVE(2,(#1264,#1265,#1266),.UNSPECIFIED.,.F.,.F.)
B_SPLINE_CURVE_WITH_KNOTS((3,3),(0.,0.296705972839036),.UNSPECIFIED.)
CURVE()
GEOMETRIC_REPRESENTATION_ITEM()
RATIONAL_B_SPLINE_CURVE((1.,0.737277336810123,1.))
REPRESENTATION_ITEM('')
);
#682=(
BOUNDED_CURVE()
B_SPLINE_CURVE(2,(#1396,#1397,#1398),.UNSPECIFIED.,.F.,.F.)
B_SPLINE_CURVE_WITH_KNOTS((3,3),(0.,0.296705972839038),.UNSPECIFIED.)
CURVE()
GEOMETRIC_REPRESENTATION_ITEM()
RATIONAL_B_SPLINE_CURVE((1.,0.737277336810134,1.))
REPRESENTATION_ITEM('')
);
#683=(
BOUNDED_CURVE()
B_SPLINE_CURVE(2,(#1401,#1402,#1403),.UNSPECIFIED.,.F.,.F.)
B_SPLINE_CURVE_WITH_KNOTS((3,3),(0.,0.29670597283904),.UNSPECIFIED.)
CURVE()
GEOMETRIC_REPRESENTATION_ITEM()
RATIONAL_B_SPLINE_CURVE((1.,0.737277336810116,1.))
REPRESENTATION_ITEM('')
);
#684=(
BOUNDED_CURVE()
B_SPLINE_CURVE(2,(#1412,#1413,#1414),.UNSPECIFIED.,.F.,.F.)
B_SPLINE_CURVE_WITH_KNOTS((3,3),(-0.148352986419521,0.),.UNSPECIFIED.)
CURVE()
GEOMETRIC_REPRESENTATION_ITEM()
RATIONAL_B_SPLINE_CURVE((1.,0.737277336810113,1.))
REPRESENTATION_ITEM('')
);
#685=(
BOUNDED_CURVE()
B_SPLINE_CURVE(2,(#1415,#1416,#1417),.UNSPECIFIED.,.F.,.F.)
B_SPLINE_CURVE_WITH_KNOTS((3,3),(-0.148352986419521,0.),.UNSPECIFIED.)
CURVE()
GEOMETRIC_REPRESENTATION_ITEM()
RATIONAL_B_SPLINE_CURVE((1.,0.73727733681012,1.))
REPRESENTATION_ITEM('')
);
#686=(
BOUNDED_CURVE()
B_SPLINE_CURVE(2,(#1438,#1439,#1440),.UNSPECIFIED.,.F.,.F.)
B_SPLINE_CURVE_WITH_KNOTS((3,3),(0.,0.296705972839039),.UNSPECIFIED.)
CURVE()
GEOMETRIC_REPRESENTATION_ITEM()
RATIONAL_B_SPLINE_CURVE((1.,0.73727733681012,1.))
REPRESENTATION_ITEM('')
);
#687=(
BOUNDED_CURVE()
B_SPLINE_CURVE(2,(#1441,#1442,#1443),.UNSPECIFIED.,.F.,.F.)
B_SPLINE_CURVE_WITH_KNOTS((3,3),(0.,0.29670597283904),.UNSPECIFIED.)
CURVE()
GEOMETRIC_REPRESENTATION_ITEM()
RATIONAL_B_SPLINE_CURVE((1.,0.737277336810118,1.))
REPRESENTATION_ITEM('')
);
#688=(
BOUNDED_CURVE()
B_SPLINE_CURVE(2,(#1452,#1453,#1454),.UNSPECIFIED.,.F.,.F.)
B_SPLINE_CURVE_WITH_KNOTS((3,3),(-0.14835298641952,0.),.UNSPECIFIED.)
CURVE()
GEOMETRIC_REPRESENTATION_ITEM()
RATIONAL_B_SPLINE_CURVE((1.,0.737277336810119,1.))
REPRESENTATION_ITEM('')
);
#689=(
BOUNDED_CURVE()
B_SPLINE_CURVE(2,(#1455,#1456,#1457),.UNSPECIFIED.,.F.,.F.)
B_SPLINE_CURVE_WITH_KNOTS((3,3),(-0.14835298641952,0.),.UNSPECIFIED.)
CURVE()
GEOMETRIC_REPRESENTATION_ITEM()
RATIONAL_B_SPLINE_CURVE((1.,0.737277336810117,1.))
REPRESENTATION_ITEM('')
);
#690=VERTEX_POINT('',#912);
#691=VERTEX_POINT('',#942);
#692=VERTEX_POINT('',#943);
#693=VERTEX_POINT('',#944);
#694=VERTEX_POINT('',#945);
#695=VERTEX_POINT('',#946);
#696=VERTEX_POINT('',#947);
#697=VERTEX_POINT('',#948);
#698=VERTEX_POINT('',#949);
#699=VERTEX_POINT('',#950);
#700=VERTEX_POINT('',#951);
#701=VERTEX_POINT('',#952);
#702=VERTEX_POINT('',#953);
#703=VERTEX_POINT('',#954);
#704=VERTEX_POINT('',#955);
#705=VERTEX_POINT('',#956);
#706=VERTEX_POINT('',#957);
#707=VERTEX_POINT('',#958);
#708=VERTEX_POINT('',#959);
#709=VERTEX_POINT('',#960);
#710=VERTEX_POINT('',#961);
#711=VERTEX_POINT('',#962);
#712=VERTEX_POINT('',#963);
#713=VERTEX_POINT('',#964);
#714=VERTEX_POINT('',#965);
#715=VERTEX_POINT('',#966);
#716=VERTEX_POINT('',#967);
#717=VERTEX_POINT('',#968);
#718=VERTEX_POINT('',#969);
#719=VERTEX_POINT('',#970);
#720=VERTEX_POINT('',#971);
#721=VERTEX_POINT('',#972);
#722=VERTEX_POINT('',#973);
#723=VERTEX_POINT('',#974);
#724=VERTEX_POINT('',#975);
#725=VERTEX_POINT('',#976);
#726=VERTEX_POINT('',#977);
#727=VERTEX_POINT('',#978);
#728=VERTEX_POINT('',#1177);
#729=VERTEX_POINT('',#1178);
#730=VERTEX_POINT('',#1179);
#731=VERTEX_POINT('',#1180);
#732=VERTEX_POINT('',#1181);
#733=VERTEX_POINT('',#1182);
#734=VERTEX_POINT('',#1183);
#735=VERTEX_POINT('',#1184);
#736=VERTEX_POINT('',#1185);
#737=VERTEX_POINT('',#1186);
#738=VERTEX_POINT('',#1187);
#739=VERTEX_POINT('',#1188);
#740=VERTEX_POINT('',#1189);
#741=VERTEX_POINT('',#1190);
#742=VERTEX_POINT('',#1191);
#743=VERTEX_POINT('',#1192);
#744=VERTEX_POINT('',#1193);
#745=VERTEX_POINT('',#1194);
#746=VERTEX_POINT('',#1195);
#747=VERTEX_POINT('',#1196);
#748=VERTEX_POINT('',#1197);
#749=VERTEX_POINT('',#1198);
#750=VERTEX_POINT('',#1199);
#751=VERTEX_POINT('',#1200);
#752=VERTEX_POINT('',#1201);
#753=VERTEX_POINT('',#1202);
#754=VERTEX_POINT('',#1368);
#755=VERTEX_POINT('',#1369);
#756=VERTEX_POINT('',#1370);
#757=VERTEX_POINT('',#1371);
#758=VERTEX_POINT('',#1372);
#759=VERTEX_POINT('',#1373);
#760=VERTEX_POINT('',#1374);
#761=VERTEX_POINT('',#1375);
#762=VERTEX_POINT('',#1376);
#763=VERTEX_POINT('',#1377);
#764=VERTEX_POINT('',#1378);
#765=VERTEX_POINT('',#1379);
#766=VERTEX_POINT('',#1380);
#767=VERTEX_POINT('',#1381);
#768=VERTEX_POINT('',#1382);
#769=VERTEX_POINT('',#1383);
#770=VERTEX_POINT('',#1384);
#771=VERTEX_POINT('',#1385);
#772=VERTEX_POINT('',#1386);
#773=VERTEX_POINT('',#1387);
#774=VERTEX_POINT('',#1388);
#775=VERTEX_POINT('',#1389);
#776=VERTEX_POINT('',#1390);
#777=VERTEX_POINT('',#1391);
#778=VERTEX_POINT('',#1392);
#779=VERTEX_POINT('',#1393);
#780=PLANE('',#835);
#781=PLANE('',#836);
#782=PLANE('',#837);
#783=PLANE('',#838);
#784=PLANE('',#839);
#785=PLANE('',#840);
#786=PLANE('',#841);
#787=PLANE('',#842);
#788=PLANE('',#843);
#789=PLANE('',#844);
#790=PLANE('',#845);
#791=PLANE('',#846);
#792=PLANE('',#847);
#793=PLANE('',#848);
#794=PLANE('',#849);
#795=PLANE('',#850);
#796=PLANE('',#851);
#797=PLANE('',#852);
#798=PLANE('',#853);
#799=PLANE('',#854);
#800=PLANE('',#855);
#801=PLANE('',#856);
#802=PLANE('',#857);
#803=PLANE('',#858);
#804=PLANE('',#859);
#805=PLANE('',#860);
#806=PLANE('',#861);
#807=PLANE('',#862);
#808=PLANE('',#863);
#809=PLANE('',#864);
#810=PLANE('',#865);
#811=PLANE('',#866);
#812=PLANE('',#867);
#813=PLANE('',#868);
#814=PLANE('',#869);
#815=SHAPE_DEFINITION_REPRESENTATION(#816,#833);
#816=PRODUCT_DEFINITION_SHAPE('Document','',#818);
#817=PRODUCT_DEFINITION_CONTEXT('3D Mechanical Parts',#822,'design');
#818=PRODUCT_DEFINITION('A','First version',#819,#817);
#819=PRODUCT_DEFINITION_FORMATION_WITH_SPECIFIED_SOURCE('A',
'First version',#824,.MADE.);
#820=PRODUCT_RELATED_PRODUCT_CATEGORY('tool','tool',(#824));
#821=APPLICATION_PROTOCOL_DEFINITION('Draft International Standard',
'automotive_design',1999,#822);
#822=APPLICATION_CONTEXT(
'data for automotive mechanical design processes');
#823=PRODUCT_CONTEXT('3D Mechanical Parts',#822,'mechanical');
#824=PRODUCT('Document','Document','Rhino converted to STEP',(#823));
#825=(
LENGTH_UNIT()
NAMED_UNIT(*)
SI_UNIT(.MILLI.,.METRE.)
);
#826=(
NAMED_UNIT(*)
PLANE_ANGLE_UNIT()
SI_UNIT($,.RADIAN.)
);
#827=DIMENSIONAL_EXPONENTS(0.,0.,0.,0.,0.,0.,0.);
#828=PLANE_ANGLE_MEASURE_WITH_UNIT(PLANE_ANGLE_MEASURE(0.01745329252),#826);
#829=(
CONVERSION_BASED_UNIT('DEGREES',#828)
NAMED_UNIT(#827)
PLANE_ANGLE_UNIT()
);
#830=(
NAMED_UNIT(*)
SI_UNIT($,.STERADIAN.)
SOLID_ANGLE_UNIT()
);
#831=UNCERTAINTY_MEASURE_WITH_UNIT(LENGTH_MEASURE(0.001),#825,
'DISTANCE_ACCURACY_VALUE',
'Maximum model space distance between geometric entities at asserted c
onnectivities');
#832=(
GEOMETRIC_REPRESENTATION_CONTEXT(3)
GLOBAL_UNCERTAINTY_ASSIGNED_CONTEXT((#831))
GLOBAL_UNIT_ASSIGNED_CONTEXT((#830,#829,#825))
REPRESENTATION_CONTEXT('ID1','3D')
);
#833=SHAPE_REPRESENTATION('Document',(#834,#870),#832);
#834=AXIS2_PLACEMENT_3D('',#910,#871,#872);
#835=AXIS2_PLACEMENT_3D('',#911,#873,$);
#836=AXIS2_PLACEMENT_3D('',#926,#874,$);
#837=AXIS2_PLACEMENT_3D('',#927,#875,$);
#838=AXIS2_PLACEMENT_3D('',#928,#876,$);
#839=AXIS2_PLACEMENT_3D('',#929,#877,$);
#840=AXIS2_PLACEMENT_3D('',#930,#878,$);
#841=AXIS2_PLACEMENT_3D('',#931,#879,$);
#842=AXIS2_PLACEMENT_3D('',#932,#880,$);
#843=AXIS2_PLACEMENT_3D('',#933,#881,$);
#844=AXIS2_PLACEMENT_3D('',#934,#882,$);
#845=AXIS2_PLACEMENT_3D('',#935,#883,$);
#846=AXIS2_PLACEMENT_3D('',#936,#884,$);
#847=AXIS2_PLACEMENT_3D('',#937,#885,$);
#848=AXIS2_PLACEMENT_3D('',#938,#886,$);
#849=AXIS2_PLACEMENT_3D('',#939,#887,$);
#850=AXIS2_PLACEMENT_3D('',#940,#888,$);
#851=AXIS2_PLACEMENT_3D('',#941,#889,$);
#852=AXIS2_PLACEMENT_3D('',#1096,#890,$);
#853=AXIS2_PLACEMENT_3D('',#1115,#891,$);
#854=AXIS2_PLACEMENT_3D('',#1116,#892,$);
#855=AXIS2_PLACEMENT_3D('',#1117,#893,$);
#856=AXIS2_PLACEMENT_3D('',#1136,#894,$);
#857=AXIS2_PLACEMENT_3D('',#1173,#895,$);
#858=AXIS2_PLACEMENT_3D('',#1174,#896,$);
#859=AXIS2_PLACEMENT_3D('',#1175,#897,$);
#860=AXIS2_PLACEMENT_3D('',#1176,#898,$);
#861=AXIS2_PLACEMENT_3D('',#1305,#899,$);
#862=AXIS2_PLACEMENT_3D('',#1324,#900,$);
#863=AXIS2_PLACEMENT_3D('',#1325,#901,$);
#864=AXIS2_PLACEMENT_3D('',#1326,#902,$);
#865=AXIS2_PLACEMENT_3D('',#1345,#903,$);
#866=AXIS2_PLACEMENT_3D('',#1364,#904,$);
#867=AXIS2_PLACEMENT_3D('',#1365,#905,$);
#868=AXIS2_PLACEMENT_3D('',#1366,#906,$);
#869=AXIS2_PLACEMENT_3D('',#1367,#907,$);
#870=AXIS2_PLACEMENT_3D('',#1478,#908,#909);
#871=DIRECTION('',(0.,0.,1.));
#872=DIRECTION('',(1.,0.,0.));
#873=DIRECTION('',(0.,0.,1.));
#874=DIRECTION('',(0.866025403784442,0.,-0.499999999999995));
#875=DIRECTION('',(0.,0.,-1.));
#876=DIRECTION('',(-0.866025403784442,0.,-0.499999999999995));
#877=DIRECTION('',(0.,0.,-1.));
#878=DIRECTION('',(0.,0.,1.));
#879=DIRECTION('',(0.,1.,0.));
#880=DIRECTION('',(0.,0.,-1.));
#881=DIRECTION('',(0.,-1.,0.));
#882=DIRECTION('',(0.,0.,1.));
#883=DIRECTION('',(0.995728825636934,2.79573471635145E-17,-0.0923260840482953));
#884=DIRECTION('',(0.,0.,1.));
#885=DIRECTION('',(0.996194698091746,5.40903856374637E-17,0.0871557427476548));
#886=DIRECTION('',(-0.996194698091746,2.76499572707741E-17,0.0871557427476548));
#887=DIRECTION('',(0.,0.,1.));
#888=DIRECTION('',(-0.995728825636936,0.,-0.0923260840482751));
#889=DIRECTION('',(0.,0.,1.));
#890=DIRECTION('',(0.996194698091745,0.,0.0871557427476612));
#891=DIRECTION('',(0.,0.,1.));
#892=DIRECTION('',(0.999999999998148,1.1102230246231E-16,-1.92450514724385E-6));
#893=DIRECTION('',(0.,0.,-1.));
#894=DIRECTION('',(-0.996194698091745,0.,-0.0871557427476628));
#895=DIRECTION('',(0.,-1.,0.));
#896=DIRECTION('',(0.,1.,0.));
#897=DIRECTION('',(0.,0.,-1.));
#898=DIRECTION('',(0.,0.,1.));
#899=DIRECTION('',(-0.996194698091746,0.,0.0871557427476528));
#900=DIRECTION('',(0.,0.,1.));
#901=DIRECTION('',(-1.,0.,0.));
#902=DIRECTION('',(0.,0.,-1.));
#903=DIRECTION('',(0.996194698091746,0.,-0.0871557427476539));
#904=DIRECTION('',(0.,0.,1.));
#905=DIRECTION('',(0.,0.,-1.));
#906=DIRECTION('',(0.,-1.,0.));
#907=DIRECTION('',(0.,1.,0.));
#908=DIRECTION('',(0.,0.,1.));
#909=DIRECTION('',(1.,0.,0.));
#910=CARTESIAN_POINT('',(0.,0.,0.));
#911=CARTESIAN_POINT('',(-2.52006713035774,-2.13372,2.26032921355743));
#912=CARTESIAN_POINT('',(-1.1,1.278,2.26032921355743));
#913=CARTESIAN_POINT('',(-1.1,1.278,2.26032921355743));
#914=CARTESIAN_POINT('',(-1.1,-8.88178419700125E-16,2.26032921355743));
#915=CARTESIAN_POINT('',(-1.1,-1.278,2.26032921355743));
#916=CARTESIAN_POINT('',(-1.1,-1.528,2.26032921355743));
#917=CARTESIAN_POINT('',(-1.35,-1.528,2.26032921355743));
#918=CARTESIAN_POINT('',(-1.6,-1.528,2.26032921355743));
#919=CARTESIAN_POINT('',(-1.6,-1.278,2.26032921355743));
#920=CARTESIAN_POINT('',(-1.6,-9.99200722162641E-16,2.26032921355743));
#921=CARTESIAN_POINT('',(-1.6,1.278,2.26032921355743));
#922=CARTESIAN_POINT('',(-1.6,1.528,2.26032921355743));
#923=CARTESIAN_POINT('',(-1.35,1.528,2.26032921355743));
#924=CARTESIAN_POINT('',(-1.1,1.528,2.26032921355743));
#925=CARTESIAN_POINT('',(-1.1,1.278,2.26032921355743));
#926=CARTESIAN_POINT('',(1.31161492653273,2.13372,0.813686417352324));
#927=CARTESIAN_POINT('',(-1.09812,2.13372,0.126729213557432));
#928=CARTESIAN_POINT('',(-0.606142314384094,2.13372,-0.408227990237459));
#929=CARTESIAN_POINT('',(-2.22695724091682,2.13372,0.278729213557432));
#930=CARTESIAN_POINT('',(-2.52006713035774,-2.13372,2.26032921355743));
#931=CARTESIAN_POINT('',(-2.65187999999999,1.778,-0.086750786442568));
#932=CARTESIAN_POINT('',(0.891357240916822,2.13372,0.278729213557432));
#933=CARTESIAN_POINT('',(-2.65187999999999,-1.778,-0.086750786442568));
#934=CARTESIAN_POINT('',(1.58174,-0.33968,1.29512921355747));
#935=CARTESIAN_POINT('',(2.21923633061022,2.13372,1.39689922247393));
#936=CARTESIAN_POINT('',(1.58174,2.45432,1.29512921355747));
#937=CARTESIAN_POINT('',(2.03920676008719,2.13372,2.95469553976832));
#938=CARTESIAN_POINT('',(-2.24514918187759,2.13372,0.600762887346546));
#939=CARTESIAN_POINT('',(-2.81245999999999,-2.45432,1.29512921355743));
#940=CARTESIAN_POINT('',(-2.10612091030662,2.13372,0.176959204640938));
#941=CARTESIAN_POINT('',(-2.81245999999999,0.33968,1.29512921355743));
#942=CARTESIAN_POINT('',(1.00275724091682,1.778,0.278729213557432));
#943=CARTESIAN_POINT('',(0.915000000000001,1.778,0.126729213557432));
#944=CARTESIAN_POINT('',(1.00275724091682,-1.778,0.278729213557432));
#945=CARTESIAN_POINT('',(0.915000000000001,-1.778,0.126729213557432));
#946=CARTESIAN_POINT('',(-0.915000000000001,1.778,0.126729213557432));
#947=CARTESIAN_POINT('',(-0.915000000000001,-1.778,0.126729213557432));
#948=CARTESIAN_POINT('',(-1.00275724091682,1.778,0.278729213557432));
#949=CARTESIAN_POINT('',(-1.00275724091682,-1.778,0.278729213557432));
#950=CARTESIAN_POINT('',(-2.11555724091682,1.778,0.278729213557432));
#951=CARTESIAN_POINT('',(-2.11555724091682,-1.778,0.278729213557432));
#952=CARTESIAN_POINT('',(-2.09995594196478,1.778,2.26032921355743));
#953=CARTESIAN_POINT('',(-2.09995594196478,-1.778,2.26032921355743));
#954=CARTESIAN_POINT('',(2.09995594196478,1.778,2.26032921355743));
#955=CARTESIAN_POINT('',(2.09995594196478,-1.778,2.26032921355743));
#956=CARTESIAN_POINT('',(-2.1844,1.778,1.29512921355743));
#957=CARTESIAN_POINT('',(-2.20979999999999,1.778,1.29512921355743));
#958=CARTESIAN_POINT('',(2.1844,1.778,1.29512921355743));
#959=CARTESIAN_POINT('',(2.20980000000001,1.778,1.29512921355743));
#960=CARTESIAN_POINT('',(2.11555724091682,1.778,0.278729213557432));
#961=CARTESIAN_POINT('',(2.11555724091682,-1.778,0.278729213557432));
#962=CARTESIAN_POINT('',(-2.20979999999999,-1.778,1.29512921355743));
#963=CARTESIAN_POINT('',(-2.1844,-1.778,1.29512921355743));
#964=CARTESIAN_POINT('',(2.20980000000001,-1.778,1.29512921355743));
#965=CARTESIAN_POINT('',(2.1844,-1.778,1.29512921355743));
#966=CARTESIAN_POINT('',(2.1844,-1.016,1.29512921355743));
#967=CARTESIAN_POINT('',(2.20980000000001,-1.016,1.29512921355743));
#968=CARTESIAN_POINT('',(2.19125557672508,1.016,1.09512921355743));
#969=CARTESIAN_POINT('',(2.20980000000001,1.016,1.29512921355743));
#970=CARTESIAN_POINT('',(2.19125557672508,-1.016,1.09512921355743));
#971=CARTESIAN_POINT('',(2.1844,1.016,1.29512921355743));
#972=CARTESIAN_POINT('',(-2.1844,-1.016,1.29512921355743));
#973=CARTESIAN_POINT('',(-2.20979999999999,-1.016,1.29512921355743));
#974=CARTESIAN_POINT('',(-2.20979999999999,1.016,1.29512921355743));
#975=CARTESIAN_POINT('',(-2.19125557672506,1.016,1.09512921355739));
#976=CARTESIAN_POINT('',(-2.19125557672506,-1.016,1.09512921355739));
#977=CARTESIAN_POINT('',(-2.1844,1.016,1.29512921355743));
#978=CARTESIAN_POINT('',(-1.1,1.278,2.26032921355743));
#979=CARTESIAN_POINT('',(1.00275724091682,1.778,0.278729213557432));
#980=CARTESIAN_POINT('',(0.915000000000001,1.778,0.126729213557432));
#981=CARTESIAN_POINT('',(1.00275724091682,-1.778,0.278729213557432));
#982=CARTESIAN_POINT('',(1.00275724091682,1.778,0.278729213557432));
#983=CARTESIAN_POINT('',(0.915000000000001,-1.778,0.126729213557432));
#984=CARTESIAN_POINT('',(1.00275724091682,-1.778,0.278729213557432));
#985=CARTESIAN_POINT('',(0.915000000000001,1.778,0.126729213557432));
#986=CARTESIAN_POINT('',(0.915000000000001,-1.778,0.126729213557432));
#987=CARTESIAN_POINT('',(0.915000000000001,1.778,0.126729213557432));
#988=CARTESIAN_POINT('',(-0.915000000000001,1.778,0.126729213557432));
#989=CARTESIAN_POINT('',(-0.915000000000001,-1.778,0.126729213557432));
#990=CARTESIAN_POINT('',(0.915000000000001,-1.778,0.126729213557432));
#991=CARTESIAN_POINT('',(-0.915000000000001,1.778,0.126729213557432));
#992=CARTESIAN_POINT('',(-0.915000000000001,-1.778,0.126729213557432));
#993=CARTESIAN_POINT('',(-0.915000000000001,1.778,0.126729213557432));
#994=CARTESIAN_POINT('',(-1.00275724091682,1.778,0.278729213557432));
#995=CARTESIAN_POINT('',(-1.00275724091682,-1.778,0.278729213557432));
#996=CARTESIAN_POINT('',(-0.915000000000001,-1.778,0.126729213557432));
#997=CARTESIAN_POINT('',(-1.00275724091682,1.778,0.278729213557432));
#998=CARTESIAN_POINT('',(-1.00275724091682,-1.778,0.278729213557432));
#999=CARTESIAN_POINT('',(-1.00275724091682,1.778,0.278729213557432));
#1000=CARTESIAN_POINT('',(-2.11555724091682,1.778,0.278729213557432));
#1001=CARTESIAN_POINT('',(-2.11555724091682,-1.778,0.278729213557432));
#1002=CARTESIAN_POINT('',(-1.00275724091682,-1.778,0.278729213557432));
#1003=CARTESIAN_POINT('',(-2.11555724091682,1.778,0.278729213557432));
#1004=CARTESIAN_POINT('',(-2.11555724091682,-1.778,0.278729213557432));
#1005=CARTESIAN_POINT('',(-2.09995594196478,1.778,2.26032921355743));
#1006=CARTESIAN_POINT('',(-2.09995594196478,-1.778,2.26032921355743));
#1007=CARTESIAN_POINT('',(-2.09995594196478,1.778,2.26032921355743));
#1008=CARTESIAN_POINT('',(2.09995594196478,1.778,2.26032921355743));
#1009=CARTESIAN_POINT('',(2.09995594196478,-1.778,2.26032921355743));
#1010=CARTESIAN_POINT('',(-2.09995594196478,-1.778,2.26032921355743));
#1011=CARTESIAN_POINT('',(2.09995594196478,1.778,2.26032921355743));
#1012=CARTESIAN_POINT('',(2.09995594196478,-1.778,2.26032921355743));
#1013=CARTESIAN_POINT('',(-2.20979999999999,1.778,1.29512921355743));
#1014=CARTESIAN_POINT('',(-2.1844,1.778,1.29512921355743));
#1015=CARTESIAN_POINT('',(2.20980000000001,1.778,1.29512921355743));
#1016=CARTESIAN_POINT('',(2.1844,1.778,1.29512921355743));
#1017=CARTESIAN_POINT('',(1.00275724091682,1.778,0.278729213557432));
#1018=CARTESIAN_POINT('',(2.11555724091682,1.778,0.278729213557432));
#1019=CARTESIAN_POINT('',(2.11555724091682,-1.778,0.278729213557432));
#1020=CARTESIAN_POINT('',(2.11555724091682,1.778,0.278729213557432));
#1021=CARTESIAN_POINT('',(1.00275724091682,-1.778,0.278729213557432));
#1022=CARTESIAN_POINT('',(2.11555724091682,-1.778,0.278729213557432));
#1023=CARTESIAN_POINT('',(-2.1844,-1.778,1.29512921355743));
#1024=CARTESIAN_POINT('',(-2.20979999999999,-1.778,1.29512921355743));
#1025=CARTESIAN_POINT('',(2.20980000000001,-1.778,1.29512921355743));
#1026=CARTESIAN_POINT('',(2.1844,-1.778,1.29512921355743));
#1027=CARTESIAN_POINT('',(2.1844,-1.016,1.29512921355743));
#1028=CARTESIAN_POINT('',(2.20980000000001,-1.016,1.29512921355743));
#1029=CARTESIAN_POINT('',(2.1844,-1.778,1.29512921355743));
#1030=CARTESIAN_POINT('',(2.1844,-1.016,1.29512921355743));
#1031=CARTESIAN_POINT('',(2.20980000000001,-1.016,1.29512921355743));
#1032=CARTESIAN_POINT('',(2.20980000000001,-1.778,1.29512921355743));
#1033=CARTESIAN_POINT('',(2.19125557672508,1.016,1.09512921355743));
#1034=CARTESIAN_POINT('',(2.20980000000001,1.016,1.29512921355743));
#1035=CARTESIAN_POINT('',(2.19125557672508,-1.016,1.09512921355743));
#1036=CARTESIAN_POINT('',(2.19125557672508,1.016,1.09512921355743));
#1037=CARTESIAN_POINT('',(2.20980000000001,-1.016,1.29512921355743));
#1038=CARTESIAN_POINT('',(2.19125557672508,-1.016,1.09512921355743));
#1039=CARTESIAN_POINT('',(2.11555724091682,-1.778,0.278729213557432));
#1040=CARTESIAN_POINT('',(2.20980000000001,-1.778,1.29512921355743));
#1041=CARTESIAN_POINT('',(2.11555724091682,1.778,0.278729213557432));
#1042=CARTESIAN_POINT('',(2.20980000000001,1.778,1.29512921355743));
#1043=CARTESIAN_POINT('',(2.20980000000001,1.016,1.29512921355743));
#1044=CARTESIAN_POINT('',(2.20980000000001,1.778,1.29512921355743));
#1045=CARTESIAN_POINT('',(2.20980000000001,1.016,1.29512921355743));
#1046=CARTESIAN_POINT('',(2.1844,1.016,1.29512921355743));
#1047=CARTESIAN_POINT('',(2.1844,1.016,1.29512921355743));
#1048=CARTESIAN_POINT('',(2.1844,1.778,1.29512921355743));
#1049=CARTESIAN_POINT('',(2.1844,1.778,1.29512921355743));
#1050=CARTESIAN_POINT('',(2.09995594196478,1.778,2.26032921355743));
#1051=CARTESIAN_POINT('',(2.1844,-1.778,1.29512921355743));
#1052=CARTESIAN_POINT('',(2.09995594196478,-1.778,2.26032921355743));
#1053=CARTESIAN_POINT('',(2.1844,1.016,1.29512921355743));
#1054=CARTESIAN_POINT('',(2.1844,-1.016,1.29512921355743));
#1055=CARTESIAN_POINT('',(-2.1844,-1.016,1.29512921355743));
#1056=CARTESIAN_POINT('',(-2.1844,-1.778,1.29512921355743));
#1057=CARTESIAN_POINT('',(-2.1844,1.778,1.29512921355743));
#1058=CARTESIAN_POINT('',(-2.09995594196478,1.778,2.26032921355743));
#1059=CARTESIAN_POINT('',(-2.09995594196478,-1.778,2.26032921355743));
#1060=CARTESIAN_POINT('',(-2.1844,-1.778,1.29512921355743));
#1061=CARTESIAN_POINT('',(-2.1844,-1.016,1.29512921355743));
#1062=CARTESIAN_POINT('',(-2.20979999999999,-1.016,1.29512921355743));
#1063=CARTESIAN_POINT('',(-2.20979999999999,-1.778,1.29512921355743));
#1064=CARTESIAN_POINT('',(-2.20979999999999,-1.016,1.29512921355743));
#1065=CARTESIAN_POINT('',(-2.19125557672506,-1.016,1.09512921355739));
#1066=CARTESIAN_POINT('',(-2.19125557672506,1.016,1.09512921355739));
#1067=CARTESIAN_POINT('',(-2.20979999999999,1.016,1.29512921355743));
#1068=CARTESIAN_POINT('',(-2.20979999999999,1.778,1.29512921355743));
#1069=CARTESIAN_POINT('',(-2.19125557672506,1.016,1.09512921355739));
#1070=CARTESIAN_POINT('',(-2.20979999999999,1.016,1.29512921355743));
#1071=CARTESIAN_POINT('',(-2.11555724091682,1.778,0.278729213557432));
#1072=CARTESIAN_POINT('',(-2.20979999999999,1.778,1.29512921355743));
#1073=CARTESIAN_POINT('',(-2.20979999999999,-1.778,1.29512921355743));
#1074=CARTESIAN_POINT('',(-2.11555724091682,-1.778,0.278729213557432));
#1075=CARTESIAN_POINT('',(-2.20979999999999,-1.016,1.29512921355743));
#1076=CARTESIAN_POINT('',(-2.19125557672506,-1.016,1.09512921355739));
#1077=CARTESIAN_POINT('',(-2.1844,1.016,1.29512921355743));
#1078=CARTESIAN_POINT('',(-2.1844,-1.016,1.29512921355743));
#1079=CARTESIAN_POINT('',(-2.20979999999999,1.016,1.29512921355743));
#1080=CARTESIAN_POINT('',(-2.1844,1.016,1.29512921355743));
#1081=CARTESIAN_POINT('',(-2.1844,1.778,1.29512921355743));
#1082=CARTESIAN_POINT('',(-2.1844,1.016,1.29512921355743));
#1083=CARTESIAN_POINT('',(-1.1,1.278,2.26032921355743));
#1084=CARTESIAN_POINT('',(-1.1,-8.88178419700125E-16,2.26032921355743));
#1085=CARTESIAN_POINT('',(-1.1,-1.278,2.26032921355743));
#1086=CARTESIAN_POINT('',(-1.1,-1.528,2.26032921355743));
#1087=CARTESIAN_POINT('',(-1.35,-1.528,2.26032921355743));
#1088=CARTESIAN_POINT('',(-1.6,-1.528,2.26032921355743));
#1089=CARTESIAN_POINT('',(-1.6,-1.278,2.26032921355743));
#1090=CARTESIAN_POINT('',(-1.6,-9.99200722162641E-16,2.26032921355743));
#1091=CARTESIAN_POINT('',(-1.6,1.278,2.26032921355743));
#1092=CARTESIAN_POINT('',(-1.6,1.528,2.26032921355743));
#1093=CARTESIAN_POINT('',(-1.35,1.528,2.26032921355743));
#1094=CARTESIAN_POINT('',(-1.1,1.528,2.26032921355743));
#1095=CARTESIAN_POINT('',(-1.1,1.278,2.26032921355743));
#1096=CARTESIAN_POINT('',(2.72951348555496,1.21932,-0.366689494124235));
#1097=CARTESIAN_POINT('',(2.6698179232111,-1.21932,0.319999999999632));
#1098=CARTESIAN_POINT('',(2.6698179232111,-1.21932,0.419999999999635));
#1099=CARTESIAN_POINT('',(2.76981792321111,-1.21932,0.419999999999635));
#1100=CARTESIAN_POINT('',(2.86981792321111,-1.21932,0.419999999999635));
#1101=CARTESIAN_POINT('',(2.86981792321111,-1.21932,0.319999999999632));
#1102=CARTESIAN_POINT('',(2.86981792321111,-1.21932,0.219999999999629));
#1103=CARTESIAN_POINT('',(2.76981792321111,-1.21932,0.219999999999629));
#1104=CARTESIAN_POINT('',(2.6698179232111,-1.21932,0.219999999999629));
#1105=CARTESIAN_POINT('',(2.6698179232111,-1.21932,0.319999999999632));
#1106=CARTESIAN_POINT('',(2.6698179232111,1.21932,0.319999999999632));
#1107=CARTESIAN_POINT('',(2.6698179232111,1.21932,0.419999999999635));
#1108=CARTESIAN_POINT('',(2.76981792321111,1.21932,0.419999999999635));
#1109=CARTESIAN_POINT('',(2.86981792321111,1.21932,0.419999999999635));
#1110=CARTESIAN_POINT('',(2.86981792321111,1.21932,0.319999999999632));
#1111=CARTESIAN_POINT('',(2.86981792321111,1.21932,0.219999999999629));
#1112=CARTESIAN_POINT('',(2.76981792321111,1.21932,0.219999999999629));
#1113=CARTESIAN_POINT('',(2.6698179232111,1.21932,0.219999999999629));
#1114=CARTESIAN_POINT('',(2.6698179232111,1.21932,0.319999999999632));
#1115=CARTESIAN_POINT('',(2.13430546309593,1.21932,0.219999999999626));
#1116=CARTESIAN_POINT('',(3.12374371778704,1.21932,0.84012000022942));
#1117=CARTESIAN_POINT('',(3.76886213946188,1.21932,0.0200000000000012));
#1118=CARTESIAN_POINT('',(2.47374213946188,-1.21932,0.22));
#1119=CARTESIAN_POINT('',(2.47374213946188,1.21932,0.22));
#1120=CARTESIAN_POINT('',(2.47374213946188,-1.21932,0.420000000000001));
#1121=CARTESIAN_POINT('',(2.47374213946188,1.21932,0.420000000000001));
#1122=CARTESIAN_POINT('',(2.67374213946188,-1.21932,0.420000000000001));
#1123=CARTESIAN_POINT('',(2.67374213946188,1.21932,0.420000000000001));
#1124=CARTESIAN_POINT('',(2.87374213946188,-1.21932,0.420000000000001));
#1125=CARTESIAN_POINT('',(2.87374213946188,1.21932,0.420000000000001));
#1126=CARTESIAN_POINT('',(2.87374213946188,-1.21932,0.22));
#1127=CARTESIAN_POINT('',(2.87374213946188,1.21932,0.22));
#1128=CARTESIAN_POINT('',(2.87374213946188,-1.21932,0.0199999999999992));
#1129=CARTESIAN_POINT('',(2.87374213946188,1.21932,0.0199999999999992));
#1130=CARTESIAN_POINT('',(2.67374213946188,-1.21932,0.0199999999999991));
#1131=CARTESIAN_POINT('',(2.67374213946188,1.21932,0.0199999999999991));
#1132=CARTESIAN_POINT('',(2.47374213946188,-1.21932,0.0199999999999991));
#1133=CARTESIAN_POINT('',(2.47374213946188,1.21932,0.0199999999999991));
#1134=CARTESIAN_POINT('',(2.47374213946188,-1.21932,0.22));
#1135=CARTESIAN_POINT('',(2.47374213946188,1.21932,0.22));
#1136=CARTESIAN_POINT('',(2.34508560690098,1.21932,1.68181870768126));
#1137=CARTESIAN_POINT('',(2.20478116924483,-1.21932,0.995129213557433));
#1138=CARTESIAN_POINT('',(2.20478116924483,-1.21932,1.09512921355743));
#1139=CARTESIAN_POINT('',(2.30478116924483,-1.21932,1.09512921355743));
#1140=CARTESIAN_POINT('',(2.40478116924483,-1.21932,1.09512921355743));
#1141=CARTESIAN_POINT('',(2.40478116924483,-1.21932,0.995129213557433));
#1142=CARTESIAN_POINT('',(2.40478116924483,-1.21932,0.895129213557431));
#1143=CARTESIAN_POINT('',(2.30478116924483,-1.21932,0.895129213557432));
#1144=CARTESIAN_POINT('',(2.20478116924483,-1.21932,0.895129213557431));
#1145=CARTESIAN_POINT('',(2.20478116924483,-1.21932,0.995129213557433));
#1146=CARTESIAN_POINT('',(2.20478116924483,1.21932,0.995129213557433));
#1147=CARTESIAN_POINT('',(2.20478116924483,1.21932,1.09512921355743));
#1148=CARTESIAN_POINT('',(2.30478116924483,1.21932,1.09512921355743));
#1149=CARTESIAN_POINT('',(2.40478116924483,1.21932,1.09512921355743));
#1150=CARTESIAN_POINT('',(2.40478116924483,1.21932,0.995129213557433));
#1151=CARTESIAN_POINT('',(2.40478116924483,1.21932,0.895129213557431));
#1152=CARTESIAN_POINT('',(2.30478116924483,1.21932,0.895129213557432));
#1153=CARTESIAN_POINT('',(2.20478116924483,1.21932,0.895129213557431));
#1154=CARTESIAN_POINT('',(2.20478116924483,1.21932,0.995129213557433));
#1155=CARTESIAN_POINT('',(2.20085695299403,-1.21932,1.09512921355743));
#1156=CARTESIAN_POINT('',(2.20085695299403,1.21932,1.09512921355743));
#1157=CARTESIAN_POINT('',(2.20085695299403,-1.21932,1.29512921355743));
#1158=CARTESIAN_POINT('',(2.20085695299403,1.21932,1.29512921355743));
#1159=CARTESIAN_POINT('',(2.40085695299403,-1.21932,1.29512921355743));
#1160=CARTESIAN_POINT('',(2.40085695299403,1.21932,1.29512921355743));
#1161=CARTESIAN_POINT('',(2.60085695299403,-1.21932,1.29512921355743));
#1162=CARTESIAN_POINT('',(2.60085695299403,1.21932,1.29512921355743));
#1163=CARTESIAN_POINT('',(2.60085695299403,-1.21932,1.09512921355743));
#1164=CARTESIAN_POINT('',(2.60085695299403,1.21932,1.09512921355743));
#1165=CARTESIAN_POINT('',(2.60085695299403,-1.21932,0.895129213557434));
#1166=CARTESIAN_POINT('',(2.60085695299403,1.21932,0.895129213557434));
#1167=CARTESIAN_POINT('',(2.40085695299403,-1.21932,0.895129213557434));
#1168=CARTESIAN_POINT('',(2.40085695299403,1.21932,0.895129213557434));
#1169=CARTESIAN_POINT('',(2.20085695299403,-1.21932,0.895129213557434));
#1170=CARTESIAN_POINT('',(2.20085695299403,1.21932,0.895129213557434));
#1171=CARTESIAN_POINT('',(2.20085695299403,-1.21932,1.09512921355743));
#1172=CARTESIAN_POINT('',(2.20085695299403,1.21932,1.09512921355743));
#1173=CARTESIAN_POINT('',(3.81711121912669,-1.016,-0.107632921355744));
#1174=CARTESIAN_POINT('',(1.4978868819613,1.016,-0.107632921355744));
#1175=CARTESIAN_POINT('',(2.91625372849681,1.21932,1.09512921355743));
#1176=CARTESIAN_POINT('',(1.5626343047006,1.21932,1.29512921355743));
#1177=CARTESIAN_POINT('',(2.67019845340193,1.016,0.311284425724863));
#1178=CARTESIAN_POINT('',(2.60009589261238,1.016,1.11256036210696));
#1179=CARTESIAN_POINT('',(2.60009589261238,-1.016,1.11256036210696));
#1180=CARTESIAN_POINT('',(2.67019845340194,-1.016,0.311284425724863));
#1181=CARTESIAN_POINT('',(2.76981792321111,1.016,0.21999999999963));
#1182=CARTESIAN_POINT('',(2.76981792321111,-1.016,0.21999999999963));
#1183=CARTESIAN_POINT('',(3.12374252436291,1.016,0.219999999999629));
#1184=CARTESIAN_POINT('',(3.12374252436291,-1.016,0.219999999999629));
#1185=CARTESIAN_POINT('',(3.12374213946188,1.016,0.02));
#1186=CARTESIAN_POINT('',(3.12374213946188,-1.016,0.02));
#1187=CARTESIAN_POINT('',(2.67374213946188,1.016,0.0199999999999991));
#1188=CARTESIAN_POINT('',(2.67374213946188,-1.016,0.02));
#1189=CARTESIAN_POINT('',(2.47450319984353,1.016,0.202568851450465));
#1190=CARTESIAN_POINT('',(2.47450319984353,-1.016,0.202568851450465));
#1191=CARTESIAN_POINT('',(2.40440063905401,1.016,1.0038447878322));
#1192=CARTESIAN_POINT('',(2.40440063905401,-1.016,1.0038447878322));
#1193=CARTESIAN_POINT('',(2.30478116924483,1.016,1.09512921355743));
#1194=CARTESIAN_POINT('',(2.30478116924483,-1.016,1.09512921355743));
#1195=CARTESIAN_POINT('',(2.40085695299403,1.016,1.29512921355743));
#1196=CARTESIAN_POINT('',(2.40085695299403,-1.016,1.29512921355743));
#1197=CARTESIAN_POINT('',(2.20980000000001,-1.016,1.29512921355743));
#1198=CARTESIAN_POINT('',(2.19125557672508,-1.016,1.09512921355743));
#1199=CARTESIAN_POINT('',(2.19125557672508,1.016,1.09512921355743));
#1200=CARTESIAN_POINT('',(2.20980000000001,1.016,1.29512921355743));
#1201=CARTESIAN_POINT('',(2.1844,-1.016,1.29512921355743));
#1202=CARTESIAN_POINT('',(2.1844,1.016,1.29512921355743));
#1203=CARTESIAN_POINT('',(2.67019845340193,1.016,0.311284425724863));
#1204=CARTESIAN_POINT('',(2.60009589261238,1.016,1.11256036210696));
#1205=CARTESIAN_POINT('',(2.60009589261238,1.016,1.11256036210696));
#1206=CARTESIAN_POINT('',(2.60009589261238,-1.016,1.11256036210696));
#1207=CARTESIAN_POINT('',(2.60009589261238,-1.016,1.11256036210696));
#1208=CARTESIAN_POINT('',(2.67019845340194,-1.016,0.311284425724863));
#1209=CARTESIAN_POINT('',(2.67019845340194,-1.016,0.311284425724863));
#1210=CARTESIAN_POINT('',(2.67019845340193,1.016,0.311284425724863));
#1211=CARTESIAN_POINT('',(2.76981792321111,1.016,0.21999999999963));
#1212=CARTESIAN_POINT('',(2.76981792321111,-1.016,0.21999999999963));
#1213=CARTESIAN_POINT('',(2.67019845340193,1.016,0.311284425724863));
#1214=CARTESIAN_POINT('',(2.67818480580937,1.016,0.219999999999629));
#1215=CARTESIAN_POINT('',(2.76981792321111,1.016,0.219999999999629));
#1216=CARTESIAN_POINT('',(2.76981792321111,-1.016,0.21999999999963));
#1217=CARTESIAN_POINT('',(2.67818480580937,-1.016,0.219999999999628));
#1218=CARTESIAN_POINT('',(2.67019845340194,-1.016,0.311284425724863));
#1219=CARTESIAN_POINT('',(3.12374252436291,1.016,0.219999999999629));
#1220=CARTESIAN_POINT('',(3.12374252436291,-1.016,0.219999999999629));
#1221=CARTESIAN_POINT('',(2.76981792321111,1.016,0.21999999999963));
#1222=CARTESIAN_POINT('',(3.12374252436291,1.016,0.219999999999629));
#1223=CARTESIAN_POINT('',(3.12374252436291,-1.016,0.219999999999629));
#1224=CARTESIAN_POINT('',(2.76981792321111,-1.016,0.21999999999963));
#1225=CARTESIAN_POINT('',(3.12374213946188,1.016,0.02));
#1226=CARTESIAN_POINT('',(3.12374213946188,-1.016,0.02));
#1227=CARTESIAN_POINT('',(3.12374252436291,1.016,0.219999999999629));
#1228=CARTESIAN_POINT('',(3.12374213946188,1.016,0.02));
#1229=CARTESIAN_POINT('',(3.12374213946188,-1.016,0.02));
#1230=CARTESIAN_POINT('',(3.12374252436291,-1.016,0.219999999999629));
#1231=CARTESIAN_POINT('',(2.67374213946188,1.016,0.0199999999999991));
#1232=CARTESIAN_POINT('',(2.67374213946188,-1.016,0.02));
#1233=CARTESIAN_POINT('',(3.12374213946188,1.016,0.02));
#1234=CARTESIAN_POINT('',(2.67374213946188,1.016,0.0199999999999991));
#1235=CARTESIAN_POINT('',(2.67374213946188,-1.016,0.02));
#1236=CARTESIAN_POINT('',(3.12374213946188,-1.016,0.02));
#1237=CARTESIAN_POINT('',(2.47450319984353,1.016,0.202568851450465));
#1238=CARTESIAN_POINT('',(2.4904759046584,1.016,0.0199999999999991));
#1239=CARTESIAN_POINT('',(2.67374213946188,1.016,0.0199999999999991));
#1240=CARTESIAN_POINT('',(2.67374213946188,-1.016,0.02));
#1241=CARTESIAN_POINT('',(2.4904759046584,-1.016,0.0199999999999979));
#1242=CARTESIAN_POINT('',(2.47450319984353,-1.016,0.202568851450466));
#1243=CARTESIAN_POINT('',(2.47450319984353,-1.016,0.202568851450465));
#1244=CARTESIAN_POINT('',(2.47450319984353,1.016,0.202568851450465));
#1245=CARTESIAN_POINT('',(2.40440063905401,1.016,1.0038447878322));
#1246=CARTESIAN_POINT('',(2.47450319984353,1.016,0.202568851450465));
#1247=CARTESIAN_POINT('',(2.47450319984353,-1.016,0.202568851450465));
#1248=CARTESIAN_POINT('',(2.40440063905401,-1.016,1.0038447878322));
#1249=CARTESIAN_POINT('',(2.40440063905401,-1.016,1.0038447878322));
#1250=CARTESIAN_POINT('',(2.40440063905401,1.016,1.0038447878322));
#1251=CARTESIAN_POINT('',(2.40440063905401,1.016,1.0038447878322));
#1252=CARTESIAN_POINT('',(2.39641428664657,1.016,1.09512921355743));
#1253=CARTESIAN_POINT('',(2.30478116924483,1.016,1.09512921355743));
#1254=CARTESIAN_POINT('',(2.30478116924483,-1.016,1.09512921355743));
#1255=CARTESIAN_POINT('',(2.39641428664657,-1.016,1.09512921355743));
#1256=CARTESIAN_POINT('',(2.40440063905401,-1.016,1.0038447878322));
#1257=CARTESIAN_POINT('',(2.30478116924483,1.016,1.09512921355743));
#1258=CARTESIAN_POINT('',(2.30478116924483,-1.016,1.09512921355743));
#1259=CARTESIAN_POINT('',(2.60009589261238,1.016,1.11256036210696));
#1260=CARTESIAN_POINT('',(2.58412318779751,1.016,1.29512921355743));
#1261=CARTESIAN_POINT('',(2.40085695299403,1.016,1.29512921355743));
#1262=CARTESIAN_POINT('',(2.40085695299403,1.016,1.29512921355743));
#1263=CARTESIAN_POINT('',(2.40085695299403,-1.016,1.29512921355743));
#1264=CARTESIAN_POINT('',(2.40085695299403,-1.016,1.29512921355743));
#1265=CARTESIAN_POINT('',(2.58412318779751,-1.016,1.29512921355743));
#1266=CARTESIAN_POINT('',(2.60009589261238,-1.016,1.11256036210696));
#1267=CARTESIAN_POINT('',(2.20980000000001,-1.016,1.29512921355743));
#1268=CARTESIAN_POINT('',(2.19125557672508,-1.016,1.09512921355743));
#1269=CARTESIAN_POINT('',(2.20980000000001,-1.016,1.29512921355743));
#1270=CARTESIAN_POINT('',(2.40085695299403,-1.016,1.29512921355743));
#1271=CARTESIAN_POINT('',(2.30478116924483,-1.016,1.09512921355743));
#1272=CARTESIAN_POINT('',(2.19125557672508,-1.016,1.09512921355743));
#1273=CARTESIAN_POINT('',(2.19125557672508,1.016,1.09512921355743));
#1274=CARTESIAN_POINT('',(2.20980000000001,1.016,1.29512921355743));
#1275=CARTESIAN_POINT('',(2.40085695299403,1.016,1.29512921355743));
#1276=CARTESIAN_POINT('',(2.20980000000001,1.016,1.29512921355743));
#1277=CARTESIAN_POINT('',(2.19125557672508,1.016,1.09512921355743));
#1278=CARTESIAN_POINT('',(2.30478116924483,1.016,1.09512921355743));
#1279=CARTESIAN_POINT('',(2.19125557672508,-1.016,1.09512921355743));
#1280=CARTESIAN_POINT('',(2.19125557672508,1.016,1.09512921355743));
#1281=CARTESIAN_POINT('',(2.1844,-1.016,1.29512921355743));
#1282=CARTESIAN_POINT('',(2.20980000000001,-1.016,1.29512921355743));
#1283=CARTESIAN_POINT('',(2.20980000000001,1.016,1.29512921355743));
#1284=CARTESIAN_POINT('',(2.1844,1.016,1.29512921355743));
#1285=CARTESIAN_POINT('',(2.1844,1.016,1.29512921355743));
#1286=CARTESIAN_POINT('',(2.1844,-1.016,1.29512921355743));
#1287=CARTESIAN_POINT('',(-2.59314304700597,-1.21932,1.09512921355743));
#1288=CARTESIAN_POINT('',(-2.59314304700597,1.21932,1.09512921355743));
#1289=CARTESIAN_POINT('',(-2.59314304700597,-1.21932,1.29512921355743));
#1290=CARTESIAN_POINT('',(-2.59314304700597,1.21932,1.29512921355743));
#1291=CARTESIAN_POINT('',(-2.39314304700597,-1.21932,1.29512921355743));
#1292=CARTESIAN_POINT('',(-2.39314304700597,1.21932,1.29512921355743));
#1293=CARTESIAN_POINT('',(-2.19314304700597,-1.21932,1.29512921355743));
#1294=CARTESIAN_POINT('',(-2.19314304700597,1.21932,1.29512921355743));
#1295=CARTESIAN_POINT('',(-2.19314304700597,-1.21932,1.09512921355743));
#1296=CARTESIAN_POINT('',(-2.19314304700597,1.21932,1.09512921355743));
#1297=CARTESIAN_POINT('',(-2.19314304700597,-1.21932,0.895129213557432));
#1298=CARTESIAN_POINT('',(-2.19314304700597,1.21932,0.895129213557432));
#1299=CARTESIAN_POINT('',(-2.39314304700597,-1.21932,0.895129213557432));
#1300=CARTESIAN_POINT('',(-2.39314304700597,1.21932,0.895129213557432));
#1301=CARTESIAN_POINT('',(-2.59314304700597,-1.21932,0.895129213557432));
#1302=CARTESIAN_POINT('',(-2.59314304700597,1.21932,0.895129213557432));
#1303=CARTESIAN_POINT('',(-2.59314304700597,-1.21932,1.09512921355743));
#1304=CARTESIAN_POINT('',(-2.59314304700597,1.21932,1.09512921355743));
#1305=CARTESIAN_POINT('',(-2.7217995795669,1.21932,-0.366689494124236));
#1306=CARTESIAN_POINT('',(-2.86210401722305,-1.21932,0.319999999999628));
#1307=CARTESIAN_POINT('',(-2.86210401722305,-1.21932,0.419999999999627));
#1308=CARTESIAN_POINT('',(-2.76210401722305,-1.21932,0.419999999999627));
#1309=CARTESIAN_POINT('',(-2.66210401722305,-1.21932,0.419999999999627));
#1310=CARTESIAN_POINT('',(-2.66210401722305,-1.21932,0.319999999999628));
#1311=CARTESIAN_POINT('',(-2.66210401722305,-1.21932,0.219999999999628));
#1312=CARTESIAN_POINT('',(-2.76210401722305,-1.21932,0.219999999999628));
#1313=CARTESIAN_POINT('',(-2.86210401722305,-1.21932,0.219999999999628));
#1314=CARTESIAN_POINT('',(-2.86210401722305,-1.21932,0.319999999999628));
#1315=CARTESIAN_POINT('',(-2.86210401722305,1.21932,0.319999999999628));
#1316=CARTESIAN_POINT('',(-2.86210401722305,1.21932,0.419999999999627));
#1317=CARTESIAN_POINT('',(-2.76210401722305,1.21932,0.419999999999627));
#1318=CARTESIAN_POINT('',(-2.66210401722305,1.21932,0.419999999999627));
#1319=CARTESIAN_POINT('',(-2.66210401722305,1.21932,0.319999999999628));
#1320=CARTESIAN_POINT('',(-2.66210401722305,1.21932,0.219999999999628));
#1321=CARTESIAN_POINT('',(-2.76210401722305,1.21932,0.219999999999628));
#1322=CARTESIAN_POINT('',(-2.86210401722305,1.21932,0.219999999999628));
#1323=CARTESIAN_POINT('',(-2.86210401722305,1.21932,0.319999999999628));
#1324=CARTESIAN_POINT('',(-3.7580132319459,1.21932,0.219999999999632));
#1325=CARTESIAN_POINT('',(-3.12191239424383,-1.21932,-0.601247063181581));
#1326=CARTESIAN_POINT('',(-2.02679239424383,1.21932,0.0189753971076151));
#1327=CARTESIAN_POINT('',(-2.87191239424383,-1.21932,0.218975397107617));
#1328=CARTESIAN_POINT('',(-2.87191239424383,1.21932,0.218975397107617));
#1329=CARTESIAN_POINT('',(-2.87191239424383,-1.21932,0.41897539710762));
#1330=CARTESIAN_POINT('',(-2.87191239424383,1.21932,0.41897539710762));
#1331=CARTESIAN_POINT('',(-2.67191239424383,-1.21932,0.41897539710762));
#1332=CARTESIAN_POINT('',(-2.67191239424383,1.21932,0.41897539710762));
#1333=CARTESIAN_POINT('',(-2.47191239424382,-1.21932,0.41897539710762));
#1334=CARTESIAN_POINT('',(-2.47191239424382,1.21932,0.41897539710762));
#1335=CARTESIAN_POINT('',(-2.47191239424382,-1.21932,0.218975397107617));
#1336=CARTESIAN_POINT('',(-2.47191239424382,1.21932,0.218975397107617));
#1337=CARTESIAN_POINT('',(-2.47191239424382,-1.21932,0.0189753971076141));
#1338=CARTESIAN_POINT('',(-2.47191239424382,1.21932,0.0189753971076141));
#1339=CARTESIAN_POINT('',(-2.67191239424383,-1.21932,0.0189753971076141));
#1340=CARTESIAN_POINT('',(-2.67191239424383,1.21932,0.0189753971076141));
#1341=CARTESIAN_POINT('',(-2.87191239424383,-1.21932,0.0189753971076141));
#1342=CARTESIAN_POINT('',(-2.87191239424383,1.21932,0.0189753971076141));
#1343=CARTESIAN_POINT('',(-2.87191239424383,-1.21932,0.218975397107617));
#1344=CARTESIAN_POINT('',(-2.87191239424383,1.21932,0.218975397107617));
#1345=CARTESIAN_POINT('',(-2.34315725643147,1.21932,1.6819211679705));
#1346=CARTESIAN_POINT('',(-2.40286178288909,-1.21932,0.995129213557432));
#1347=CARTESIAN_POINT('',(-2.40286178288909,-1.21932,1.09512921355743));
#1348=CARTESIAN_POINT('',(-2.30286178288909,-1.21932,1.09512921355743));
#1349=CARTESIAN_POINT('',(-2.20286178288908,-1.21932,1.09512921355743));
#1350=CARTESIAN_POINT('',(-2.20286178288908,-1.21932,0.995129213557432));
#1351=CARTESIAN_POINT('',(-2.20286178288908,-1.21932,0.895129213557431));
#1352=CARTESIAN_POINT('',(-2.30286178288909,-1.21932,0.895129213557431));
#1353=CARTESIAN_POINT('',(-2.40286178288909,-1.21932,0.895129213557431));
#1354=CARTESIAN_POINT('',(-2.40286178288909,-1.21932,0.995129213557432));
#1355=CARTESIAN_POINT('',(-2.40286178288909,1.21932,0.995129213557432));
#1356=CARTESIAN_POINT('',(-2.40286178288909,1.21932,1.09512921355743));
#1357=CARTESIAN_POINT('',(-2.30286178288909,1.21932,1.09512921355743));
#1358=CARTESIAN_POINT('',(-2.20286178288908,1.21932,1.09512921355743));
#1359=CARTESIAN_POINT('',(-2.20286178288908,1.21932,0.995129213557432));
#1360=CARTESIAN_POINT('',(-2.20286178288908,1.21932,0.895129213557431));
#1361=CARTESIAN_POINT('',(-2.30286178288909,1.21932,0.895129213557431));
#1362=CARTESIAN_POINT('',(-2.40286178288909,1.21932,0.895129213557431));
#1363=CARTESIAN_POINT('',(-2.40286178288909,1.21932,0.995129213557432));
#1364=CARTESIAN_POINT('',(-3.01413735170657,1.21932,1.29512921355743));
#1365=CARTESIAN_POINT('',(-1.57997495610866,1.21932,1.09512921355747));
#1366=CARTESIAN_POINT('',(-1.49806989497319,-1.016,-0.108759984537366));
#1367=CARTESIAN_POINT('',(-3.8150980759957,1.016,-0.108759984537366));
#1368=CARTESIAN_POINT('',(-2.59238198662432,1.016,1.11256036210696));
#1369=CARTESIAN_POINT('',(-2.59238198662432,-1.016,1.11256036210696));
#1370=CARTESIAN_POINT('',(-2.39314304700597,-1.016,1.29512921355743));
#1371=CARTESIAN_POINT('',(-2.39314304700597,1.016,1.29512921355743));
#1372=CARTESIAN_POINT('',(-2.66248454741387,-1.016,0.311284425724863));
#1373=CARTESIAN_POINT('',(-2.66248454741387,1.016,0.311284425724863));
#1374=CARTESIAN_POINT('',(-2.76210401722305,-1.016,0.219999999999628));
#1375=CARTESIAN_POINT('',(-2.76210401722305,1.016,0.219999999999628));
#1376=CARTESIAN_POINT('',(-3.12191239424383,-1.016,0.219999999999629));
#1377=CARTESIAN_POINT('',(-3.12191239424383,1.016,0.219999999999629));
#1378=CARTESIAN_POINT('',(-3.12191239424383,-1.016,0.0189753971076194));
#1379=CARTESIAN_POINT('',(-3.12191239424383,1.016,0.0189753971076194));
#1380=CARTESIAN_POINT('',(-2.67191239424383,-1.016,0.0189753971076158));
#1381=CARTESIAN_POINT('',(-2.67191239424383,1.016,0.0189753971076167));
#1382=CARTESIAN_POINT('',(-2.47267345462548,1.016,0.201544248558087));
#1383=CARTESIAN_POINT('',(-2.47267345462548,-1.016,0.201544248558087));
#1384=CARTESIAN_POINT('',(-2.40248125269826,-1.016,1.0038447878322));
#1385=CARTESIAN_POINT('',(-2.40248125269826,1.016,1.0038447878322));
#1386=CARTESIAN_POINT('',(-2.30286178288909,-1.016,1.09512921355743));
#1387=CARTESIAN_POINT('',(-2.30286178288909,1.016,1.09512921355743));
#1388=CARTESIAN_POINT('',(-2.1844,-1.016,1.29512921355743));
#1389=CARTESIAN_POINT('',(-2.20979999999999,-1.016,1.29512921355743));
#1390=CARTESIAN_POINT('',(-2.1844,1.016,1.29512921355743));
#1391=CARTESIAN_POINT('',(-2.20979999999999,1.016,1.29512921355743));
#1392=CARTESIAN_POINT('',(-2.19125557672506,1.016,1.09512921355739));
#1393=CARTESIAN_POINT('',(-2.19125557672506,-1.016,1.09512921355739));
#1394=CARTESIAN_POINT('',(-2.59238198662432,1.016,1.11256036210696));
#1395=CARTESIAN_POINT('',(-2.59238198662432,-1.016,1.11256036210696));
#1396=CARTESIAN_POINT('',(-2.59238198662432,-1.016,1.11256036210696));
#1397=CARTESIAN_POINT('',(-2.57640928180945,-1.016,1.29512921355743));
#1398=CARTESIAN_POINT('',(-2.39314304700597,-1.016,1.29512921355743));
#1399=CARTESIAN_POINT('',(-2.39314304700597,-1.016,1.29512921355743));
#1400=CARTESIAN_POINT('',(-2.39314304700597,1.016,1.29512921355743));
#1401=CARTESIAN_POINT('',(-2.39314304700597,1.016,1.29512921355743));
#1402=CARTESIAN_POINT('',(-2.57640928180946,1.016,1.29512921355744));
#1403=CARTESIAN_POINT('',(-2.59238198662432,1.016,1.11256036210696));
#1404=CARTESIAN_POINT('',(-2.66248454741387,-1.016,0.311284425724863));
#1405=CARTESIAN_POINT('',(-2.66248454741387,1.016,0.311284425724863));
#1406=CARTESIAN_POINT('',(-2.59238198662432,-1.016,1.11256036210696));
#1407=CARTESIAN_POINT('',(-2.66248454741387,-1.016,0.311284425724863));
#1408=CARTESIAN_POINT('',(-2.66248454741387,1.016,0.311284425724863));
#1409=CARTESIAN_POINT('',(-2.59238198662432,1.016,1.11256036210696));
#1410=CARTESIAN_POINT('',(-2.76210401722305,-1.016,0.219999999999628));
#1411=CARTESIAN_POINT('',(-2.76210401722305,1.016,0.219999999999628));
#1412=CARTESIAN_POINT('',(-2.66248454741387,-1.016,0.311284425724863));
#1413=CARTESIAN_POINT('',(-2.67047089982131,-1.016,0.219999999999625));
#1414=CARTESIAN_POINT('',(-2.76210401722305,-1.016,0.219999999999628));
#1415=CARTESIAN_POINT('',(-2.76210401722305,1.016,0.219999999999628));
#1416=CARTESIAN_POINT('',(-2.67047089982131,1.016,0.219999999999627));
#1417=CARTESIAN_POINT('',(-2.66248454741388,1.016,0.311284425724863));
#1418=CARTESIAN_POINT('',(-3.12191239424383,-1.016,0.219999999999629));
#1419=CARTESIAN_POINT('',(-3.12191239424383,1.016,0.219999999999629));
#1420=CARTESIAN_POINT('',(-2.76210401722305,-1.016,0.219999999999628));
#1421=CARTESIAN_POINT('',(-3.12191239424383,-1.016,0.219999999999629));
#1422=CARTESIAN_POINT('',(-3.12191239424383,1.016,0.219999999999629));
#1423=CARTESIAN_POINT('',(-2.76210401722305,1.016,0.219999999999628));
#1424=CARTESIAN_POINT('',(-3.12191239424383,-1.016,0.0189753971076194));
#1425=CARTESIAN_POINT('',(-3.12191239424383,1.016,0.0189753971076194));
#1426=CARTESIAN_POINT('',(-3.12191239424383,-1.016,0.219999999999629));
#1427=CARTESIAN_POINT('',(-3.12191239424383,-1.016,0.0189753971076194));
#1428=CARTESIAN_POINT('',(-3.12191239424383,1.016,0.0189753971076194));
#1429=CARTESIAN_POINT('',(-3.12191239424383,1.016,0.219999999999629));
#1430=CARTESIAN_POINT('',(-2.67191239424383,-1.016,0.0189753971076158));
#1431=CARTESIAN_POINT('',(-2.67191239424383,1.016,0.0189753971076167));
#1432=CARTESIAN_POINT('',(-3.12191239424383,-1.016,0.0189753971076194));
#1433=CARTESIAN_POINT('',(-2.67191239424383,-1.016,0.0189753971076158));
#1434=CARTESIAN_POINT('',(-2.67191239424383,1.016,0.0189753971076167));
#1435=CARTESIAN_POINT('',(-3.12191239424383,1.016,0.0189753971076194));
#1436=CARTESIAN_POINT('',(-2.47267345462548,1.016,0.201544248558087));
#1437=CARTESIAN_POINT('',(-2.47267345462548,-1.016,0.201544248558087));
#1438=CARTESIAN_POINT('',(-2.47267345462548,-1.016,0.201544248558087));
#1439=CARTESIAN_POINT('',(-2.48864615944034,-1.016,0.0189753971076149));
#1440=CARTESIAN_POINT('',(-2.67191239424383,-1.016,0.0189753971076149));
#1441=CARTESIAN_POINT('',(-2.67191239424383,1.016,0.0189753971076166));
#1442=CARTESIAN_POINT('',(-2.48864615944034,1.016,0.0189753971076157));
#1443=CARTESIAN_POINT('',(-2.47267345462548,1.016,0.201544248558088));
#1444=CARTESIAN_POINT('',(-2.40248125269826,-1.016,1.0038447878322));
#1445=CARTESIAN_POINT('',(-2.40248125269826,1.016,1.0038447878322));
#1446=CARTESIAN_POINT('',(-2.47267345462548,-1.016,0.201544248558087));
#1447=CARTESIAN_POINT('',(-2.40248125269826,-1.016,1.0038447878322));
#1448=CARTESIAN_POINT('',(-2.40248125269826,1.016,1.0038447878322));
#1449=CARTESIAN_POINT('',(-2.47267345462548,1.016,0.201544248558087));
#1450=CARTESIAN_POINT('',(-2.30286178288909,-1.016,1.09512921355743));
#1451=CARTESIAN_POINT('',(-2.30286178288909,1.016,1.09512921355743));
#1452=CARTESIAN_POINT('',(-2.40248125269826,-1.016,1.0038447878322));
#1453=CARTESIAN_POINT('',(-2.39449490029083,-1.016,1.09512921355743));
#1454=CARTESIAN_POINT('',(-2.30286178288909,-1.016,1.09512921355743));
#1455=CARTESIAN_POINT('',(-2.30286178288909,1.016,1.09512921355743));
#1456=CARTESIAN_POINT('',(-2.39449490029083,1.016,1.09512921355743));
#1457=CARTESIAN_POINT('',(-2.40248125269826,1.016,1.0038447878322));
#1458=CARTESIAN_POINT('',(-2.1844,-1.016,1.29512921355743));
#1459=CARTESIAN_POINT('',(-2.20979999999999,-1.016,1.29512921355743));
#1460=CARTESIAN_POINT('',(-2.1844,1.016,1.29512921355743));
#1461=CARTESIAN_POINT('',(-2.1844,-1.016,1.29512921355743));
#1462=CARTESIAN_POINT('',(-2.20979999999999,1.016,1.29512921355743));
#1463=CARTESIAN_POINT('',(-2.1844,1.016,1.29512921355743));
#1464=CARTESIAN_POINT('',(-2.39314304700597,1.016,1.29512921355743));
#1465=CARTESIAN_POINT('',(-2.20979999999999,1.016,1.29512921355743));
#1466=CARTESIAN_POINT('',(-2.20979999999999,-1.016,1.29512921355743));
#1467=CARTESIAN_POINT('',(-2.39314304700597,-1.016,1.29512921355743));
#1468=CARTESIAN_POINT('',(-2.19125557672506,1.016,1.09512921355739));
#1469=CARTESIAN_POINT('',(-2.30286178288909,1.016,1.09512921355743));
#1470=CARTESIAN_POINT('',(-2.19125557672506,-1.016,1.09512921355739));
#1471=CARTESIAN_POINT('',(-2.19125557672506,1.016,1.09512921355739));
#1472=CARTESIAN_POINT('',(-2.30286178288909,-1.016,1.09512921355743));
#1473=CARTESIAN_POINT('',(-2.19125557672506,-1.016,1.09512921355739));
#1474=CARTESIAN_POINT('',(-2.20979999999999,-1.016,1.29512921355743));
#1475=CARTESIAN_POINT('',(-2.19125557672506,-1.016,1.09512921355739));
#1476=CARTESIAN_POINT('',(-2.19125557672506,1.016,1.09512921355739));
#1477=CARTESIAN_POINT('',(-2.20979999999999,1.016,1.29512921355743));
#1478=CARTESIAN_POINT('',(0.,0.,0.));
ENDSEC;
END-ISO-10303-21;
